o 5b3aea852d36660f8dc55aaa
usemtl Material0
v -0.04035099968314171 0.005194359924644232 -0.003656290005892515
v -0.04035099968314171 0.004804879892617464 -0.002469999948516488
v -0.04035099968314171 0.005194370169192553 -0.002469999948516488
v -0.040176499634981155 0.005920920055359602 -0.002469999948516488
v -0.04024109989404678 0.005777180194854736 -0.005048200022429228
v -0.040272701531648636 0.005688610021024942 -0.002469999948516488
v -0.0402148999273777 0.005840249825268984 -0.005142990034073591
v -0.040176499634981155 0.005920920055359602 -0.002469999948516488
v -0.040182799100875854 0.005908399820327759 -0.005232289899140596
v -0.0402148999273777 0.005840249825268984 -0.005142990034073591
v -0.04024109989404678 0.005777180194854736 -0.005048200022429228
v -0.040176499634981155 0.005920920055359602 -0.002469999948516488
v -0.04028090089559555 0.005662779789417982 -0.004848420154303312
v -0.040272701531648636 0.005688610021024942 -0.002469999948516488
v -0.040262799710035324 0.005718260072171688 -0.0049496800638735294
v -0.040272701531648636 0.005688610021024942 -0.002469999948516488
v -0.04024109989404678 0.005777180194854736 -0.005048200022429228
v -0.040262799710035324 0.005718260072171688 -0.0049496800638735294
v -0.04028090089559555 0.005662779789417982 -0.004848420154303312
v -0.04029589891433716 0.0056104501709342 -0.004745040088891983
v -0.040272701531648636 0.005688610021024942 -0.002469999948516488
v -0.04014329984784126 0.005982730071991682 -0.005313440226018429
v -0.040182799100875854 0.005908399820327759 -0.005232289899140596
v -0.040176499634981155 0.005920920055359602 -0.002469999948516488
v -0.040318798273801804 0.0055139497853815556 -0.0045334999449551105
v -0.04033130034804344 0.005444750189781189 -0.002469999948516488
v -0.040308501571416855 0.005560840014368296 -0.0046400101855397224
v -0.040327198803424835 0.005469120107591152 -0.004425929859280586
v -0.040334101766347885 0.005426039919257164 -0.0043175402097404
v -0.04033130034804344 0.005444750189781189 -0.002469999948516488
v -0.040308501571416855 0.005560840014368296 -0.0046400101855397224
v -0.04033130034804344 0.005444750189781189 -0.002469999948516488
v -0.040272701531648636 0.005688610021024942 -0.002469999948516488
v -0.040318798273801804 0.0055139497853815556 -0.0045334999449551105
v -0.040327198803424835 0.005469120107591152 -0.004425929859280586
v -0.04033130034804344 0.005444750189781189 -0.002469999948516488
v -0.04033130034804344 0.005444750189781189 -0.002469999948516488
v -0.040334101766347885 0.005426039919257164 -0.0043175402097404
v -0.04033970087766647 0.005384489893913269 -0.004208480007946491
v -0.04029589891433716 0.0056104501709342 -0.004745040088891983
v -0.040308501571416855 0.005560840014368296 -0.0046400101855397224
v -0.040272701531648636 0.005688610021024942 -0.002469999948516488
v -0.04033130034804344 0.005444750189781189 -0.002469999948516488
v -0.0403439998626709 0.0053442600183188915 -0.004098860081285238
v -0.04034719988703728 0.0053052399307489395 -0.0039887698367238045
v -0.04033970087766647 0.005384489893913269 -0.004208480007946491
v -0.0403439998626709 0.0053442600183188915 -0.004098860081285238
v -0.04033130034804344 0.005444750189781189 -0.002469999948516488
v -0.04034930095076561 0.005267309956252575 -0.0038782800547778606
v -0.04035099968314171 0.005194370169192553 -0.002469999948516488
v -0.04034719988703728 0.0053052399307489395 -0.0039887698367238045
v -0.04033130034804344 0.005444750189781189 -0.002469999948516488
v -0.04034719988703728 0.0053052399307489395 -0.0039887698367238045
v -0.04035099968314171 0.005194370169192553 -0.002469999948516488
v -0.04035099968314171 0.005194359924644232 -0.003656290005892515
v -0.04035099968314171 0.005194370169192553 -0.002469999948516488
v -0.04035060107707977 0.005230369977653027 -0.0037674400955438614
v -0.04035099968314171 0.005194370169192553 -0.002469999948516488
v -0.04034930095076561 0.005267309956252575 -0.0038782800547778606
v -0.04035060107707977 0.005230369977653027 -0.0037674400955438614
v -0.0400937981903553 0.006064469926059246 -0.005380460061132908
v -0.04014329984784126 0.005982730071991682 -0.005313440226018429
v -0.040176499634981155 0.005920920055359602 -0.002469999948516488
v -0.0400937981903553 0.006064469926059246 -0.005380460061132908
v -0.040176499634981155 0.005920920055359602 -0.002469999948516488
v -0.04004549980163574 0.006134740076959133 -0.002469999948516488
v -0.04003189876675606 0.006153239868581295 -0.005424269940704107
v -0.04004549980163574 0.006134740076959133 -0.002469999948516488
v -0.0399589017033577 0.006243559997528791 -0.005432960111647844
v -0.04003189876675606 0.006153239868581295 -0.005424269940704107
v -0.0400937981903553 0.006064469926059246 -0.005380460061132908
v -0.04004549980163574 0.006134740076959133 -0.002469999948516488
v -0.04004549980163574 0.006134740076959133 -0.002469999948516488
v -0.03988239914178848 0.006325739901512861 -0.002469999948516488
v -0.0399589017033577 0.006243559997528791 -0.005432960111647844
v -0.0399589017033577 0.006243559997528791 -0.005432960111647844
v -0.03988239914178848 0.006325739901512861 -0.002469999948516488
v -0.03988239914178848 0.006325739901512861 -0.005403319839388132
v -0.03952940180897713 0.006678659934550524 -0.005258200224488974
v -0.03917669877409935 0.0070313699543476105 -0.002469999948516488
v -0.03935309872031212 0.0068549602292478085 -0.005240229889750481
v -0.03952940180897713 0.006678659934550524 -0.005258200224488974
v -0.03988239914178848 0.006325739901512861 -0.002469999948516488
v -0.03917669877409935 0.0070313699543476105 -0.002469999948516488
v -0.03988239914178848 0.006325739901512861 -0.002469999948516488
v -0.039705801755189896 0.006502320058643818 -0.005312560126185417
v -0.03988239914178848 0.006325739901512861 -0.005403319839388132
v -0.03952940180897713 0.006678659934550524 -0.005258200224488974
v -0.039705801755189896 0.006502320058643818 -0.005312560126185417
v -0.03988239914178848 0.006325739901512861 -0.002469999948516488
v -0.03917669877409935 0.0070313699543476105 -0.002469999948516488
v -0.03917669877409935 0.0070313699543476105 -0.005258650053292513
v -0.03935309872031212 0.0068549602292478085 -0.005240229889750481
v -0.03819140046834946 0.007493429817259312 -0.0036332199815660715
v -0.038153499364852905 0.007496410049498081 -0.0035170200280845165
v -0.03832940012216568 0.007123259827494621 -0.002469999948516488
v -0.03832940012216568 0.007123259827494621 -0.002469999948516488
v -0.038230299949645996 0.007489410229027271 -0.0037490699905902147
v -0.03819140046834946 0.007493429817259312 -0.0036332199815660715
v -0.03827039897441864 0.007484269794076681 -0.003864469937980175
v -0.03832940012216568 0.007123259827494621 -0.002469999948516488
v -0.038311801850795746 0.00747785996645689 -0.003979340195655823
v -0.03832940012216568 0.007123259827494621 -0.002469999948516488
v -0.03827039897441864 0.007484269794076681 -0.003864469937980175
v -0.038230299949645996 0.007489410229027271 -0.0037490699905902147
v -0.038354601711034775 0.007470049895346165 -0.0040936400182545185
v -0.03832940012216568 0.007123259827494621 -0.002469999948516488
v -0.038398899137973785 0.007460670080035925 -0.0042072501964867115
v -0.038354601711034775 0.007470049895346165 -0.0040936400182545185
v -0.038311801850795746 0.00747785996645689 -0.003979340195655823
v -0.03832940012216568 0.007123259827494621 -0.002469999948516488
v -0.03844489902257919 0.007449510041624308 -0.004319970030337572
v -0.03832940012216568 0.007123259827494621 -0.002469999948516488
v -0.038492798805236816 0.007436320185661316 -0.004431679844856262
v -0.03844489902257919 0.007449510041624308 -0.004319970030337572
v -0.038398899137973785 0.007460670080035925 -0.0042072501964867115
v -0.03832940012216568 0.007123259827494621 -0.002469999948516488
v -0.03854290023446083 0.007420769892632961 -0.004542119801044464
v -0.03832940012216568 0.007123259827494621 -0.002469999948516488
v -0.03859559819102287 0.007402469869703054 -0.004650960210710764
v -0.03854290023446083 0.007420769892632961 -0.004542119801044464
v -0.038492798805236816 0.007436320185661316 -0.004431679844856262
v -0.03832940012216568 0.007123259827494621 -0.002469999948516488
v -0.03865110129117966 0.007380910217761993 -0.004757740069180727
v -0.03832940012216568 0.007123259827494621 -0.002469999948516488
v -0.0387100987136364 0.007355410140007734 -0.004861770197749138
v -0.03865110129117966 0.007380910217761993 -0.004757740069180727
v -0.03859559819102287 0.007402469869703054 -0.004650960210710764
v -0.03832940012216568 0.007123259827494621 -0.002469999948516488
v -0.038773201406002045 0.007324929814785719 -0.004961969796568155
v -0.03832940012216568 0.007123259827494621 -0.002469999948516488
v -0.03884140029549599 0.007287989836186171 -0.005056439898908138
v -0.038773201406002045 0.007324929814785719 -0.004961969796568155
v -0.0387100987136364 0.007355410140007734 -0.004861770197749138
v -0.03832940012216568 0.007123259827494621 -0.002469999948516488
v -0.03879370167851448 0.006716719828546047 -0.002469999948516488
v -0.038916099816560745 0.007242430001497269 -0.005141749978065491
v -0.03884140029549599 0.007287989836186171 -0.005056439898908138
v -0.03884140029549599 0.007287989836186171 -0.005056439898908138
v -0.03832940012216568 0.007123259827494621 -0.002469999948516488
v -0.03879370167851448 0.006716719828546047 -0.002469999948516488
v -0.03879370167851448 0.006716719828546047 -0.002469999948516488
v -0.03908750042319298 0.007114130072295666 -0.005254849791526794
v -0.038998398929834366 0.007185299880802631 -0.0052116201259195805
v -0.038916099816560745 0.007242430001497269 -0.005141749978065491
v -0.03879370167851448 0.006716719828546047 -0.002469999948516488
v -0.038998398929834366 0.007185299880802631 -0.0052116201259195805
v -0.03879370167851448 0.006716719828546047 -0.002469999948516488
v -0.039230599999427795 0.0062788501381874084 -0.002469999948516488
v -0.03935309872031212 0.0068549602292478085 -0.005240229889750481
v -0.03935309872031212 0.0068549602292478085 -0.005240229889750481
v -0.03917669877409935 0.0070313699543476105 -0.005258650053292513
v -0.03879370167851448 0.006716719828546047 -0.002469999948516488
v -0.03908750042319298 0.007114130072295666 -0.005254849791526794
v -0.03879370167851448 0.006716719828546047 -0.002469999948516488
v -0.03917669877409935 0.0070313699543476105 -0.005258650053292513
v -0.039230599999427795 0.0062788501381874084 -0.002469999948516488
v -0.03988239914178848 0.006325739901512861 -0.005403319839388132
v -0.039705801755189896 0.006502320058643818 -0.005312560126185417
v -0.039230599999427795 0.0062788501381874084 -0.002469999948516488
v -0.03952940180897713 0.006678659934550524 -0.005258200224488974
v -0.03935309872031212 0.0068549602292478085 -0.005240229889750481
v -0.0403405986726284 0.005384409800171852 -0.004209800157696009
v -0.04000930115580559 0.005322929937392473 -0.002469999948516488
v -0.04034459963440895 0.005344230215996504 -0.004099910147488117
v -0.04000930115580559 0.005322929937392473 -0.002469999948516488
v -0.04028189927339554 0.005663310177624226 -0.004851339850574732
v -0.04026389867067337 0.005718260072171688 -0.004952940158545971
v -0.0403405986726284 0.005384409800171852 -0.004209800157696009
v -0.04033530130982399 0.005426039919257164 -0.004319109953939915
v -0.04000930115580559 0.005322929937392473 -0.002469999948516488
v -0.04032000154256821 0.0055144899524748325 -0.004535379819571972
v -0.04000930115580559 0.005322929937392473 -0.002469999948516488
v -0.040328498929739 0.005469330120831728 -0.0044276900589466095
v -0.04034750163555145 0.00530525017529726 -0.003989549819380045
v -0.04034459963440895 0.005344230215996504 -0.004099910147488117
v -0.04000930115580559 0.005322929937392473 -0.002469999948516488
v -0.040328498929739 0.005469330120831728 -0.0044276900589466095
v -0.04000930115580559 0.005322929937392473 -0.002469999948516488
v -0.04033530130982399 0.005426039919257164 -0.004319109953939915
v -0.04032000154256821 0.0055144899524748325 -0.004535379819571972
v -0.0403096005320549 0.005561720114201307 -0.004642010200768709
v -0.04000930115580559 0.005322929937392473 -0.002469999948516488
v -0.04000930115580559 0.005322929937392473 -0.002469999948516488
v -0.04034949839115143 0.00526734022423625 -0.0038787899538874626
v -0.04034750163555145 0.00530525017529726 -0.003989549819380045
v -0.04035060107707977 0.005230410024523735 -0.003767689922824502
v -0.04000930115580559 0.005322929937392473 -0.002469999948516488
v -0.04035099968314171 0.005194359924644232 -0.003656290005892515
v -0.04035060107707977 0.005230410024523735 -0.003767689922824502
v -0.04034949839115143 0.00526734022423625 -0.0038787899538874626
v -0.04000930115580559 0.005322929937392473 -0.002469999948516488
v -0.04028189927339554 0.005663310177624226 -0.004851339850574732
v -0.04000930115580559 0.005322929937392473 -0.002469999948516488
v -0.0402970016002655 0.005611250177025795 -0.004747339989989996
v -0.0403096005320549 0.005561720114201307 -0.004642010200768709
v -0.0402970016002655 0.005611250177025795 -0.004747339989989996
v -0.04000930115580559 0.005322929937392473 -0.002469999948516488
v -0.04024229943752289 0.0057767098769545555 -0.005052059888839722
v -0.04021630063652992 0.0058393701910972595 -0.005147530231624842
v -0.04000930115580559 0.005322929937392473 -0.002469999948516488
v -0.04026389867067337 0.005718260072171688 -0.004952940158545971
v -0.04024229943752289 0.0057767098769545555 -0.005052059888839722
v -0.04000930115580559 0.005322929937392473 -0.002469999948516488
v -0.04018440097570419 0.005907279904931784 -0.005237469915300608
v -0.0396357998251915 0.0058142500929534435 -0.002469999948516488
v -0.04021630063652992 0.0058393701910972595 -0.005147530231624842
v -0.04000930115580559 0.005322929937392473 -0.002469999948516488
v -0.04021630063652992 0.0058393701910972595 -0.005147530231624842
v -0.0396357998251915 0.0058142500929534435 -0.002469999948516488
v -0.04014480113983154 0.0059817200526595116 -0.0053186300210654736
v -0.040094900876283646 0.006063899956643581 -0.005385430064052343
v -0.0396357998251915 0.0058142500929534435 -0.002469999948516488
v -0.04014480113983154 0.0059817200526595116 -0.0053186300210654736
v -0.0396357998251915 0.0058142500929534435 -0.002469999948516488
v -0.04018440097570419 0.005907279904931784 -0.005237469915300608
v -0.0396357998251915 0.0058142500929534435 -0.002469999948516488
v -0.04003230109810829 0.006153299938887358 -0.005427840165793896
v -0.03995899856090546 0.006243640091270208 -0.005434140097349882
v -0.040094900876283646 0.006063899956643581 -0.005385430064052343
v -0.04003230109810829 0.006153299938887358 -0.005427840165793896
v -0.0396357998251915 0.0058142500929534435 -0.002469999948516488
v -0.0396357998251915 0.0058142500929534435 -0.002469999948516488
v -0.03995899856090546 0.006243640091270208 -0.005434140097349882
v -0.03988239914178848 0.006325739901512861 -0.005403319839388132
v -0.04035099968314171 0.005194359924644232 -0.003656290005892515
v -0.04000930115580559 0.005322929937392473 -0.002469999948516488
v -0.04035099968314171 0.004804879892617464 -0.002469999948516488
v -0.03988239914178848 0.006325739901512861 -0.005403319839388132
v -0.039230599999427795 0.0062788501381874084 -0.002469999948516488
v -0.0396357998251915 0.0058142500929534435 -0.002469999948516488
v -0.039230599999427795 0.0062788501381874084 -0.002469999948516488
v -0.039705801755189896 0.006502320058643818 -0.005312560126185417
v -0.03952940180897713 0.006678659934550524 -0.005258200224488974
v -0.03832940012216568 0.007123259827494621 -0.002469999948516488
v -0.038153499364852905 0.007496410049498081 -0.0035170200280845165
v -0.03811649978160858 0.007498450111597776 -0.0034004501067101955
v -0.03804539889097214 0.007499999832361937 -0.003166500013321638
v -0.03832940012216568 0.007123259827494621 -0.002469999948516488
v -0.038080498576164246 0.0074996198527514935 -0.003283610101789236
v -0.03832940012216568 0.007123259827494621 -0.002469999948516488
v -0.03811649978160858 0.007498450111597776 -0.0034004501067101955
v -0.038080498576164246 0.0074996198527514935 -0.003283610101789236
v -0.03783620148897171 0.007499999832361937 -0.002469999948516488
v -0.03832940012216568 0.007123259827494621 -0.002469999948516488
v -0.03804539889097214 0.007499999832361937 -0.003166500013321638
v -0.03917669877409935 0.0070313699543476105 -0.002469999948516488
v -0.03879370167851448 0.006716719828546047 -0.002469999948516488
v -0.038988299667835236 0.007192589808255434 -0.002469999948516488
v -0.03988239914178848 0.006325739901512861 -0.002469999948516488
v -0.039230599999427795 0.0062788501381874084 -0.002469999948516488
v -0.03917669877409935 0.0070313699543476105 -0.002469999948516488
v -0.03829260170459747 0.00748078990727663 -0.002469999948516488
v -0.03853829950094223 0.007422179915010929 -0.002469999948516488
v -0.03832940012216568 0.007123259827494621 -0.002469999948516488
v -0.03879370167851448 0.006716719828546047 -0.002469999948516488
v -0.03832940012216568 0.007123259827494621 -0.002469999948516488
v -0.038773201406002045 0.007324900012463331 -0.002469999948516488
v -0.03853829950094223 0.007422179915010929 -0.002469999948516488
v -0.038773201406002045 0.007324900012463331 -0.002469999948516488
v -0.03832940012216568 0.007123259827494621 -0.002469999948516488
v -0.03804539889097214 0.007499999832361937 -0.002469999948516488
v -0.03829260170459747 0.00748078990727663 -0.002469999948516488
v -0.03832940012216568 0.007123259827494621 -0.002469999948516488
v -0.038773201406002045 0.007324900012463331 -0.002469999948516488
v -0.038988299667835236 0.007192589808255434 -0.002469999948516488
v -0.03879370167851448 0.006716719828546047 -0.002469999948516488
v -0.03832940012216568 0.007123259827494621 -0.002469999948516488
v -0.03783620148897171 0.007499999832361937 -0.002469999948516488
v -0.03804539889097214 0.007499999832361937 -0.002469999948516488
v -0.039230599999427795 0.0062788501381874084 -0.002469999948516488
v -0.03988239914178848 0.006325739901512861 -0.002469999948516488
v -0.0396357998251915 0.0058142500929534435 -0.002469999948516488
v -0.03917669877409935 0.0070313699543476105 -0.002469999948516488
v -0.039230599999427795 0.0062788501381874084 -0.002469999948516488
v -0.03879370167851448 0.006716719828546047 -0.002469999948516488
v -0.0396357998251915 0.0058142500929534435 -0.002469999948516488
v -0.03988239914178848 0.006325739901512861 -0.002469999948516488
v -0.04004549980163574 0.006134740076959133 -0.002469999948516488
v -0.0396357998251915 0.0058142500929534435 -0.002469999948516488
v -0.040176499634981155 0.005920920055359602 -0.002469999948516488
v -0.04000930115580559 0.005322929937392473 -0.002469999948516488
v -0.040176499634981155 0.005920920055359602 -0.002469999948516488
v -0.0396357998251915 0.0058142500929534435 -0.002469999948516488
v -0.04004549980163574 0.006134740076959133 -0.002469999948516488
v -0.04000930115580559 0.005322929937392473 -0.002469999948516488
v -0.040272701531648636 0.005688610021024942 -0.002469999948516488
v -0.04033130034804344 0.005444750189781189 -0.002469999948516488
v -0.040176499634981155 0.005920920055359602 -0.002469999948516488
v -0.040272701531648636 0.005688610021024942 -0.002469999948516488
v -0.04000930115580559 0.005322929937392473 -0.002469999948516488
v -0.04033130034804344 0.005444750189781189 -0.002469999948516488
v -0.04035099968314171 0.005194370169192553 -0.002469999948516488
v -0.04000930115580559 0.005322929937392473 -0.002469999948516488
v -0.04000930115580559 0.005322929937392473 -0.002469999948516488
v -0.04035099968314171 0.005194370169192553 -0.002469999948516488
v -0.04035099968314171 0.004804879892617464 -0.002469999948516488
v -0.038773201406002045 0.007324900012463331 -0.002469999948516488
v -0.038773201406002045 0.007324929814785719 -0.004961969796568155
v -0.03884140029549599 0.007287989836186171 -0.005056439898908138
v -0.038998398929834366 0.007185299880802631 -0.0052116201259195805
v -0.03908750042319298 0.007114130072295666 -0.005254849791526794
v -0.038988299667835236 0.007192589808255434 -0.002469999948516488
v -0.038916099816560745 0.007242430001497269 -0.005141749978065491
v -0.038998398929834366 0.007185299880802631 -0.0052116201259195805
v -0.038988299667835236 0.007192589808255434 -0.002469999948516488
v -0.03908750042319298 0.007114130072295666 -0.005254849791526794
v -0.03917669877409935 0.0070313699543476105 -0.002469999948516488
v -0.038988299667835236 0.007192589808255434 -0.002469999948516488
v -0.038773201406002045 0.007324900012463331 -0.002469999948516488
v -0.038916099816560745 0.007242430001497269 -0.005141749978065491
v -0.038988299667835236 0.007192589808255434 -0.002469999948516488
v -0.0387100987136364 0.007355410140007734 -0.004861770197749138
v -0.038773201406002045 0.007324929814785719 -0.004961969796568155
v -0.038773201406002045 0.007324900012463331 -0.002469999948516488
v -0.038773201406002045 0.007324900012463331 -0.002469999948516488
v -0.03884140029549599 0.007287989836186171 -0.005056439898908138
v -0.038916099816560745 0.007242430001497269 -0.005141749978065491
v -0.038773201406002045 0.007324900012463331 -0.002469999948516488
v -0.03865110129117966 0.007380910217761993 -0.004757740069180727
v -0.0387100987136364 0.007355410140007734 -0.004861770197749138
v -0.03917669877409935 0.0070313699543476105 -0.002469999948516488
v -0.03908750042319298 0.007114130072295666 -0.005254849791526794
v -0.03917669877409935 0.0070313699543476105 -0.005258650053292513
v -0.03859559819102287 0.007402469869703054 -0.004650960210710764
v -0.03865110129117966 0.007380910217761993 -0.004757740069180727
v -0.03853829950094223 0.007422179915010929 -0.002469999948516488
v -0.038773201406002045 0.007324900012463331 -0.002469999948516488
v -0.03853829950094223 0.007422179915010929 -0.002469999948516488
v -0.03865110129117966 0.007380910217761993 -0.004757740069180727
v -0.03854290023446083 0.007420769892632961 -0.004542119801044464
v -0.03853829950094223 0.007422179915010929 -0.002469999948516488
v -0.038492798805236816 0.007436320185661316 -0.004431679844856262
v -0.03854290023446083 0.007420769892632961 -0.004542119801044464
v -0.03859559819102287 0.007402469869703054 -0.004650960210710764
v -0.03853829950094223 0.007422179915010929 -0.002469999948516488
v -0.03853829950094223 0.007422179915010929 -0.002469999948516488
v -0.038398899137973785 0.007460670080035925 -0.0042072501964867115
v -0.03844489902257919 0.007449510041624308 -0.004319970030337572
v -0.038492798805236816 0.007436320185661316 -0.004431679844856262
v -0.03853829950094223 0.007422179915010929 -0.002469999948516488
v -0.03844489902257919 0.007449510041624308 -0.004319970030337572
v -0.038398899137973785 0.007460670080035925 -0.0042072501964867115
v -0.03829260170459747 0.00748078990727663 -0.002469999948516488
v -0.038354601711034775 0.007470049895346165 -0.0040936400182545185
v -0.03829260170459747 0.00748078990727663 -0.002469999948516488
v -0.038398899137973785 0.007460670080035925 -0.0042072501964867115
v -0.03853829950094223 0.007422179915010929 -0.002469999948516488
v -0.03829260170459747 0.00748078990727663 -0.002469999948516488
v -0.03827039897441864 0.007484269794076681 -0.003864469937980175
v -0.038311801850795746 0.00747785996645689 -0.003979340195655823
v -0.038354601711034775 0.007470049895346165 -0.0040936400182545185
v -0.03829260170459747 0.00748078990727663 -0.002469999948516488
v -0.038311801850795746 0.00747785996645689 -0.003979340195655823
v -0.03819140046834946 0.007493429817259312 -0.0036332199815660715
v -0.038230299949645996 0.007489410229027271 -0.0037490699905902147
v -0.03829260170459747 0.00748078990727663 -0.002469999948516488
v -0.03829260170459747 0.00748078990727663 -0.002469999948516488
v -0.038230299949645996 0.007489410229027271 -0.0037490699905902147
v -0.03827039897441864 0.007484269794076681 -0.003864469937980175
v -0.03819140046834946 0.007493429817259312 -0.0036332199815660715
v -0.03829260170459747 0.00748078990727663 -0.002469999948516488
v -0.038153499364852905 0.007496410049498081 -0.0035170200280845165
v -0.03804539889097214 0.007499999832361937 -0.002469999948516488
v -0.03811649978160858 0.007498450111597776 -0.0034004501067101955
v -0.038153499364852905 0.007496410049498081 -0.0035170200280845165
v -0.038153499364852905 0.007496410049498081 -0.0035170200280845165
v -0.03829260170459747 0.00748078990727663 -0.002469999948516488
v -0.03804539889097214 0.007499999832361937 -0.002469999948516488
v -0.03804539889097214 0.007499999832361937 -0.002469999948516488
v -0.038080498576164246 0.0074996198527514935 -0.003283610101789236
v -0.03811649978160858 0.007498450111597776 -0.0034004501067101955
v -0.038080498576164246 0.0074996198527514935 -0.003283610101789236
v -0.03804539889097214 0.007499999832361937 -0.002469999948516488
v -0.03804539889097214 0.007499999832361937 -0.003166500013321638
v -0.03804539889097214 0.007499999832361937 -0.002469999948516488
v -0.03783620148897171 0.007499999832361937 -0.002469999948516488
v -0.03804539889097214 0.007499999832361937 -0.003166500013321638
f 1 2 3
f 4 5 6
f 7 8 9
f 10 11 12
f 13 14 15
f 16 17 18
f 19 20 21
f 22 23 24
f 25 26 27
f 28 29 30
f 31 32 33
f 34 35 36
f 37 38 39
f 40 41 42
f 43 44 45
f 46 47 48
f 49 50 51
f 52 53 54
f 55 56 57
f 58 59 60
f 61 62 63
f 64 65 66
f 67 68 69
f 70 71 72
f 73 74 75
f 76 77 78
f 79 80 81
f 82 83 84
f 85 86 87
f 88 89 90
f 91 92 93
f 94 95 96
f 97 98 99
f 100 101 102
f 103 104 105
f 106 107 108
f 109 110 111
f 112 113 114
f 115 116 117
f 118 119 120
f 121 122 123
f 124 125 126
f 127 128 129
f 130 131 132
f 133 134 135
f 136 137 138
f 139 140 141
f 142 143 144
f 145 146 147
f 148 149 150
f 151 152 153
f 154 155 156
f 157 158 159
f 160 161 162
f 163 164 165
f 166 167 168
f 169 170 171
f 172 173 174
f 175 176 177
f 178 179 180
f 181 182 183
f 184 185 186
f 187 188 189
f 190 191 192
f 193 194 195
f 196 197 198
f 199 200 201
f 202 203 204
f 205 206 207
f 208 209 210
f 211 212 213
f 214 215 216
f 217 218 219
f 220 221 222
f 223 224 225
f 226 227 228
f 229 230 231
f 232 233 234
f 235 236 237
f 238 239 240
f 241 242 243
f 244 245 246
f 247 248 249
f 250 251 252
f 253 254 255
f 256 257 258
f 259 260 261
f 262 263 264
f 265 266 267
f 268 269 270
f 271 272 273
f 274 275 276
f 277 278 279
f 280 281 282
f 283 284 285
f 286 287 288
f 289 290 291
f 292 293 294
f 295 296 297
f 298 299 300
f 301 302 303
f 304 305 306
f 307 308 309
f 310 311 312
f 313 314 315
f 316 317 318
f 319 320 321
f 322 323 324
f 325 326 327
f 328 329 330
f 331 332 333
f 334 335 336
f 337 338 339
f 340 341 342
f 343 344 345
f 346 347 348
f 349 350 351
f 352 353 354
f 355 356 357
f 358 359 360
f 361 362 363
f 364 365 366
f 367 368 369
f 370 371 372
f 373 374 375
f 376 377 378
