o 5b3aea852d36660f8dc55aaa
usemtl Material0
v -0.03525000065565109 0.0023900000378489494 -0.011470000259578228
v -0.03536750003695488 0.002372350078076124 -0.011470000259578228
v -0.035307999700307846 0.002385779982432723 -0.011470000259578228
v -0.030249999836087227 0.0023900000378489494 -0.011470000259578228
v -0.03013250045478344 0.002372350078076124 -0.011470000259578228
v -0.0300734993070364 0.0023489498998969793 -0.011470000259578228
v -0.03013250045478344 0.002372350078076124 -0.011470000259578228
v -0.030249999836087227 0.0023900000378489494 -0.011470000259578228
v -0.030192000791430473 0.002385779982432723 -0.011470000259578228
v -0.02996720001101494 0.002272839890792966 -0.011470000259578228
v -0.030249999836087227 0.0023900000378489494 -0.011470000259578228
v -0.03001759946346283 0.002315530087798834 -0.011470000259578228
v -0.030249999836087227 0.0023900000378489494 -0.011470000259578228
v -0.0300734993070364 0.0023489498998969793 -0.011470000259578228
v -0.03001759946346283 0.002315530087798834 -0.011470000259578228
v -0.029924500733613968 0.0022224399726837873 -0.011470000259578228
v -0.0298909991979599 0.0021665100939571857 -0.011470000259578228
v -0.030249999836087227 0.0023900000378489494 -0.011470000259578228
v -0.029924500733613968 0.0022224399726837873 -0.011470000259578228
v -0.030249999836087227 0.0023900000378489494 -0.011470000259578228
v -0.02996720001101494 0.002272839890792966 -0.011470000259578228
v -0.030249999836087227 0.0023900000378489494 -0.011470000259578228
v -0.02986769936978817 0.002107529900968075 -0.011470000259578228
v -0.029854200780391693 0.0020479699596762657 -0.011470000259578228
v -0.0298909991979599 0.0021665100939571857 -0.011470000259578228
v -0.02986769936978817 0.002107529900968075 -0.011470000259578228
v -0.030249999836087227 0.0023900000378489494 -0.011470000259578228
v -0.030249999836087227 0.0023900000378489494 -0.011470000259578228
v -0.029854200780391693 0.0020479699596762657 -0.011470000259578228
v -0.029850000515580177 0.001990000018849969 -0.011470000259578228
v -0.030249999836087227 0.0023900000378489494 -0.011470000259578228
v -0.029850000515580177 0.001990000018849969 -0.011470000259578228
v -0.03525000065565109 0.0023900000378489494 -0.011470000259578228
v -0.03536750003695488 0.002372350078076124 -0.011470000259578228
v -0.03525000065565109 0.0023900000378489494 -0.011470000259578228
v -0.03542650118470192 0.0023489498998969793 -0.011470000259578228
v -0.03553279861807823 0.002272839890792966 -0.011470000259578228
v -0.03548239916563034 0.002315530087798834 -0.011470000259578228
v -0.03525000065565109 0.0023900000378489494 -0.011470000259578228
v -0.03525000065565109 0.0023900000378489494 -0.011470000259578228
v -0.03548239916563034 0.002315530087798834 -0.011470000259578228
v -0.03542650118470192 0.0023489498998969793 -0.011470000259578228
v -0.03525000065565109 0.0023900000378489494 -0.011470000259578228
v -0.0355755016207695 0.0022224399726837873 -0.011470000259578228
v -0.03553279861807823 0.002272839890792966 -0.011470000259578228
v -0.03560899943113327 0.0021665100939571857 -0.011470000259578228
v -0.03525000065565109 0.0023900000378489494 -0.011470000259578228
v -0.03563230112195015 0.002107529900968075 -0.011470000259578228
v -0.03560899943113327 0.0021665100939571857 -0.011470000259578228
v -0.0355755016207695 0.0022224399726837873 -0.011470000259578228
v -0.03525000065565109 0.0023900000378489494 -0.011470000259578228
v -0.035645801573991776 0.0020479699596762657 -0.011470000259578228
v -0.03525000065565109 0.0023900000378489494 -0.011470000259578228
v -0.03564999997615814 0.001990000018849969 -0.011470000259578228
v -0.035645801573991776 0.0020479699596762657 -0.011470000259578228
v -0.03563230112195015 0.002107529900968075 -0.011470000259578228
v -0.03525000065565109 0.0023900000378489494 -0.011470000259578228
v -0.03564999997615814 0.001990000018849969 -0.011470000259578228
v -0.03525000065565109 0.0023900000378489494 -0.011470000259578228
v -0.029850000515580177 0.001990000018849969 -0.011470000259578228
v -0.029854200780391693 -0.001967970049008727 -0.011470000259578228
v -0.030249999836087227 -0.002309999894350767 -0.011470000259578228
v -0.029850000515580177 -0.0019099999917671084 -0.011470000259578228
v -0.03542650118470192 -0.0022689499892294407 -0.011470000259578228
v -0.03525000065565109 -0.002309999894350767 -0.011470000259578228
v -0.03536750003695488 -0.002292349934577942 -0.011470000259578228
v -0.035307999700307846 -0.0023057800717651844 -0.011470000259578228
v -0.03536750003695488 -0.002292349934577942 -0.011470000259578228
v -0.03525000065565109 -0.002309999894350767 -0.011470000259578228
v -0.03548239916563034 -0.0022355299443006516 -0.011470000259578228
v -0.03553279861807823 -0.0021928399801254272 -0.011470000259578228
v -0.03525000065565109 -0.002309999894350767 -0.011470000259578228
v -0.03548239916563034 -0.0022355299443006516 -0.011470000259578228
v -0.03525000065565109 -0.002309999894350767 -0.011470000259578228
v -0.03542650118470192 -0.0022689499892294407 -0.011470000259578228
v -0.03525000065565109 -0.002309999894350767 -0.011470000259578228
v -0.0355755016207695 -0.0021424400620162487 -0.011470000259578228
v -0.03560899943113327 -0.0020865099504590034 -0.011470000259578228
v -0.03553279861807823 -0.0021928399801254272 -0.011470000259578228
v -0.0355755016207695 -0.0021424400620162487 -0.011470000259578228
v -0.03525000065565109 -0.002309999894350767 -0.011470000259578228
v -0.03560899943113327 -0.0020865099504590034 -0.011470000259578228
v -0.03563230112195015 -0.002027519978582859 -0.011470000259578228
v -0.03525000065565109 -0.002309999894350767 -0.011470000259578228
v -0.035645801573991776 -0.001967970049008727 -0.011470000259578228
v -0.03564999997615814 -0.0019099999917671084 -0.011470000259578228
v -0.03525000065565109 -0.002309999894350767 -0.011470000259578228
v -0.035645801573991776 -0.001967970049008727 -0.011470000259578228
v -0.03525000065565109 -0.002309999894350767 -0.011470000259578228
v -0.03563230112195015 -0.002027519978582859 -0.011470000259578228
v -0.03525000065565109 -0.002309999894350767 -0.011470000259578228
v -0.03564999997615814 -0.0019099999917671084 -0.011470000259578228
v -0.030249999836087227 -0.002309999894350767 -0.011470000259578228
v -0.03013250045478344 -0.002292349934577942 -0.011470000259578228
v -0.030192000791430473 -0.0023057800717651844 -0.011470000259578228
v -0.030249999836087227 -0.002309999894350767 -0.011470000259578228
v -0.030249999836087227 -0.002309999894350767 -0.011470000259578228
v -0.03564999997615814 -0.0019099999917671084 -0.011470000259578228
v -0.029850000515580177 -0.0019099999917671084 -0.011470000259578228
v -0.030249999836087227 -0.002309999894350767 -0.011470000259578228
v -0.03001759946346283 -0.0022355299443006516 -0.011470000259578228
v -0.0300734993070364 -0.0022689499892294407 -0.011470000259578228
v -0.03013250045478344 -0.002292349934577942 -0.011470000259578228
v -0.030249999836087227 -0.002309999894350767 -0.011470000259578228
v -0.0300734993070364 -0.0022689499892294407 -0.011470000259578228
v -0.030249999836087227 -0.002309999894350767 -0.011470000259578228
v -0.029924500733613968 -0.0021424400620162487 -0.011470000259578228
v -0.02996720001101494 -0.0021928399801254272 -0.011470000259578228
v -0.03001759946346283 -0.0022355299443006516 -0.011470000259578228
v -0.030249999836087227 -0.002309999894350767 -0.011470000259578228
v -0.02996720001101494 -0.0021928399801254272 -0.011470000259578228
v -0.030249999836087227 -0.002309999894350767 -0.011470000259578228
v -0.02986769936978817 -0.002027519978582859 -0.011470000259578228
v -0.0298909991979599 -0.0020865099504590034 -0.011470000259578228
v -0.029924500733613968 -0.0021424400620162487 -0.011470000259578228
v -0.030249999836087227 -0.002309999894350767 -0.011470000259578228
v -0.0298909991979599 -0.0020865099504590034 -0.011470000259578228
v -0.029850000515580177 -0.0019099999917671084 -0.011470000259578228
v -0.03564999997615814 -0.0019099999917671084 -0.011470000259578228
v -0.03564999997615814 0.001990000018849969 -0.011470000259578228
v -0.02986769936978817 -0.002027519978582859 -0.011470000259578228
v -0.030249999836087227 -0.002309999894350767 -0.011470000259578228
v -0.029854200780391693 -0.001967970049008727 -0.011470000259578228
v -0.03564999997615814 0.001990000018849969 -0.011470000259578228
v -0.029850000515580177 0.001990000018849969 -0.011470000259578228
v -0.029850000515580177 -0.0019099999917671084 -0.011470000259578228
v -0.03525000065565109 0.0023900000378489494 -0.011470000259578228
v -0.030249999836087227 0.0023900000378489494 -0.010990000329911709
v -0.030249999836087227 0.0023900000378489494 -0.011470000259578228
v -0.030249999836087227 0.0023900000378489494 -0.010990000329911709
v -0.03525000065565109 0.0023900000378489494 -0.011470000259578228
v -0.03525000065565109 0.0023900000378489494 -0.010990000329911709
v -0.030186999589204788 0.002385020023211837 -0.010990000329911709
v -0.030249999836087227 0.0023900000378489494 -0.011470000259578228
v -0.030249999836087227 0.0023900000378489494 -0.010990000329911709
v -0.03001520037651062 0.0023138299584388733 -0.010990000329911709
v -0.0300734993070364 0.0023489498998969793 -0.011470000259578228
v -0.030068600550293922 0.002346490044146776 -0.010990000329911709
v -0.03012619912624359 0.0023703600745648146 -0.010990000329911709
v -0.03013250045478344 0.002372350078076124 -0.011470000259578228
v -0.030192000791430473 0.002385779982432723 -0.011470000259578228
v -0.029924500733613968 0.0022224399726837873 -0.011470000259578228
v -0.029926199465990067 0.00222480995580554 -0.010990000329911709
v -0.029893500730395317 0.0021714300382882357 -0.010990000329911709
v -0.03001759946346283 0.002315530087798834 -0.011470000259578228
v -0.02996720001101494 0.002272839890792966 -0.010990000329911709
v -0.02996720001101494 0.002272839890792966 -0.011470000259578228
v -0.02986769936978817 0.002107529900968075 -0.011470000259578228
v -0.029869599267840385 0.0021137900184839964 -0.010990000329911709
v -0.029854999855160713 0.0020529499743133783 -0.010990000329911709
v -0.029869599267840385 0.0021137900184839964 -0.010990000329911709
v -0.02986769936978817 0.002107529900968075 -0.011470000259578228
v -0.0298909991979599 0.0021665100939571857 -0.011470000259578228
v -0.029850000515580177 0.001990000018849969 -0.010990000329911709
v -0.029854200780391693 0.0020479699596762657 -0.011470000259578228
v -0.029854999855160713 0.0020529499743133783 -0.010990000329911709
v -0.02986769936978817 0.002107529900968075 -0.011470000259578228
v -0.029854999855160713 0.0020529499743133783 -0.010990000329911709
v -0.029854200780391693 0.0020479699596762657 -0.011470000259578228
v -0.029850000515580177 0.001990000018849969 -0.011470000259578228
v -0.029854200780391693 0.0020479699596762657 -0.011470000259578228
v -0.029850000515580177 0.001990000018849969 -0.010990000329911709
v -0.0298909991979599 0.0021665100939571857 -0.011470000259578228
v -0.029924500733613968 0.0022224399726837873 -0.011470000259578228
v -0.029893500730395317 0.0021714300382882357 -0.010990000329911709
v -0.029893500730395317 0.0021714300382882357 -0.010990000329911709
v -0.029869599267840385 0.0021137900184839964 -0.010990000329911709
v -0.0298909991979599 0.0021665100939571857 -0.011470000259578228
v -0.02996720001101494 0.002272839890792966 -0.011470000259578228
v -0.02996720001101494 0.002272839890792966 -0.010990000329911709
v -0.029926199465990067 0.00222480995580554 -0.010990000329911709
v -0.02996720001101494 0.002272839890792966 -0.011470000259578228
v -0.029926199465990067 0.00222480995580554 -0.010990000329911709
v -0.029924500733613968 0.0022224399726837873 -0.011470000259578228
v -0.03001759946346283 0.002315530087798834 -0.011470000259578228
v -0.0300734993070364 0.0023489498998969793 -0.011470000259578228
v -0.03001520037651062 0.0023138299584388733 -0.010990000329911709
v -0.03001759946346283 0.002315530087798834 -0.011470000259578228
v -0.03001520037651062 0.0023138299584388733 -0.010990000329911709
v -0.02996720001101494 0.002272839890792966 -0.010990000329911709
v -0.030068600550293922 0.002346490044146776 -0.010990000329911709
v -0.03013250045478344 0.002372350078076124 -0.011470000259578228
v -0.03012619912624359 0.0023703600745648146 -0.010990000329911709
v -0.0300734993070364 0.0023489498998969793 -0.011470000259578228
v -0.03013250045478344 0.002372350078076124 -0.011470000259578228
v -0.030068600550293922 0.002346490044146776 -0.010990000329911709
v -0.030186999589204788 0.002385020023211837 -0.010990000329911709
v -0.030192000791430473 0.002385779982432723 -0.011470000259578228
v -0.030249999836087227 0.0023900000378489494 -0.011470000259578228
v -0.03012619912624359 0.0023703600745648146 -0.010990000329911709
v -0.030192000791430473 0.002385779982432723 -0.011470000259578228
v -0.030186999589204788 0.002385020023211837 -0.010990000329911709
v -0.029850000515580177 0.001990000018849969 -0.011470000259578228
v -0.029850000515580177 0.001990000018849969 -0.010990000329911709
v -0.029850000515580177 -0.0019099999917671084 -0.010990000329911709
v -0.029850000515580177 0.001990000018849969 -0.011470000259578228
v -0.029850000515580177 -0.0019099999917671084 -0.010990000329911709
v -0.029850000515580177 -0.0019099999917671084 -0.011470000259578228
v -0.029854999855160713 -0.0019729500636458397 -0.010990000329911709
v -0.029850000515580177 -0.0019099999917671084 -0.011470000259578228
v -0.029850000515580177 -0.0019099999917671084 -0.010990000329911709
v -0.029926199465990067 -0.0021448100451380014 -0.010990000329911709
v -0.0298909991979599 -0.0020865099504590034 -0.011470000259578228
v -0.029893500730395317 -0.0020914298947900534 -0.010990000329911709
v -0.029869599267840385 -0.0020337800960987806 -0.010990000329911709
v -0.02986769936978817 -0.002027519978582859 -0.011470000259578228
v -0.029854200780391693 -0.001967970049008727 -0.011470000259578228
v -0.03001759946346283 -0.0022355299443006516 -0.011470000259578228
v -0.03001520037651062 -0.0022338300477713346 -0.010990000329911709
v -0.030068600550293922 -0.002266489900648594 -0.010990000329911709
v -0.029924500733613968 -0.0021424400620162487 -0.011470000259578228
v -0.02996720001101494 -0.0021928399801254272 -0.010990000329911709
v -0.02996720001101494 -0.0021928399801254272 -0.011470000259578228
v -0.03013250045478344 -0.002292349934577942 -0.011470000259578228
v -0.03012619912624359 -0.0022903599310666323 -0.010990000329911709
v -0.030186999589204788 -0.002305020112544298 -0.010990000329911709
v -0.03012619912624359 -0.0022903599310666323 -0.010990000329911709
v -0.03013250045478344 -0.002292349934577942 -0.011470000259578228
v -0.0300734993070364 -0.0022689499892294407 -0.011470000259578228
v -0.030249999836087227 -0.002309999894350767 -0.010990000329911709
v -0.030192000791430473 -0.0023057800717651844 -0.011470000259578228
v -0.030186999589204788 -0.002305020112544298 -0.010990000329911709
v -0.03013250045478344 -0.002292349934577942 -0.011470000259578228
v -0.030186999589204788 -0.002305020112544298 -0.010990000329911709
v -0.030192000791430473 -0.0023057800717651844 -0.011470000259578228
v -0.030249999836087227 -0.002309999894350767 -0.011470000259578228
v -0.030192000791430473 -0.0023057800717651844 -0.011470000259578228
v -0.030249999836087227 -0.002309999894350767 -0.010990000329911709
v -0.0300734993070364 -0.0022689499892294407 -0.011470000259578228
v -0.03001759946346283 -0.0022355299443006516 -0.011470000259578228
v -0.030068600550293922 -0.002266489900648594 -0.010990000329911709
v -0.030068600550293922 -0.002266489900648594 -0.010990000329911709
v -0.03012619912624359 -0.0022903599310666323 -0.010990000329911709
v -0.0300734993070364 -0.0022689499892294407 -0.011470000259578228
v -0.02996720001101494 -0.0021928399801254272 -0.011470000259578228
v -0.02996720001101494 -0.0021928399801254272 -0.010990000329911709
v -0.03001520037651062 -0.0022338300477713346 -0.010990000329911709
v -0.02996720001101494 -0.0021928399801254272 -0.011470000259578228
v -0.03001520037651062 -0.0022338300477713346 -0.010990000329911709
v -0.03001759946346283 -0.0022355299443006516 -0.011470000259578228
v -0.029924500733613968 -0.0021424400620162487 -0.011470000259578228
v -0.0298909991979599 -0.0020865099504590034 -0.011470000259578228
v -0.029926199465990067 -0.0021448100451380014 -0.010990000329911709
v -0.029924500733613968 -0.0021424400620162487 -0.011470000259578228
v -0.029926199465990067 -0.0021448100451380014 -0.010990000329911709
v -0.02996720001101494 -0.0021928399801254272 -0.010990000329911709
v -0.029893500730395317 -0.0020914298947900534 -0.010990000329911709
v -0.02986769936978817 -0.002027519978582859 -0.011470000259578228
v -0.029869599267840385 -0.0020337800960987806 -0.010990000329911709
v -0.0298909991979599 -0.0020865099504590034 -0.011470000259578228
v -0.02986769936978817 -0.002027519978582859 -0.011470000259578228
v -0.029893500730395317 -0.0020914298947900534 -0.010990000329911709
v -0.029854999855160713 -0.0019729500636458397 -0.010990000329911709
v -0.029854200780391693 -0.001967970049008727 -0.011470000259578228
v -0.029850000515580177 -0.0019099999917671084 -0.011470000259578228
v -0.029869599267840385 -0.0020337800960987806 -0.010990000329911709
v -0.029854200780391693 -0.001967970049008727 -0.011470000259578228
v -0.029854999855160713 -0.0019729500636458397 -0.010990000329911709
v -0.030249999836087227 -0.002309999894350767 -0.010990000329911709
v -0.03525000065565109 -0.002309999894350767 -0.010990000329911709
v -0.03525000065565109 -0.002309999894350767 -0.011470000259578228
v -0.030249999836087227 -0.002309999894350767 -0.010990000329911709
v -0.03525000065565109 -0.002309999894350767 -0.011470000259578228
v -0.030249999836087227 -0.002309999894350767 -0.011470000259578228
v -0.03531260043382645 -0.00230506993830204 -0.010990000329911709
v -0.03525000065565109 -0.002309999894350767 -0.011470000259578228
v -0.03525000065565109 -0.002309999894350767 -0.010990000329911709
v -0.03548499941825867 -0.0022336801048368216 -0.010990000329911709
v -0.03542650118470192 -0.0022689499892294407 -0.011470000259578228
v -0.035431500524282455 -0.002266450086608529 -0.010990000329911709
v -0.0353735014796257 -0.0022904500365257263 -0.010990000329911709
v -0.03536750003695488 -0.002292349934577942 -0.011470000259578228
v -0.035307999700307846 -0.0023057800717651844 -0.011470000259578228
v -0.0355755016207695 -0.0021424400620162487 -0.011470000259578228
v -0.035573601722717285 -0.0021451800130307674 -0.010990000329911709
v -0.035606298595666885 -0.002091709990054369 -0.010990000329911709
v -0.03548239916563034 -0.0022355299443006516 -0.011470000259578228
v -0.03553270176053047 -0.0021929400973021984 -0.010990000329911709
v -0.03553279861807823 -0.0021928399801254272 -0.011470000259578228
v -0.03563230112195015 -0.002027519978582859 -0.011470000259578228
v -0.035630401223897934 -0.002033629920333624 -0.010990000329911709
v -0.035645101219415665 -0.0019726199097931385 -0.010990000329911709
v -0.035630401223897934 -0.002033629920333624 -0.010990000329911709
v -0.03563230112195015 -0.002027519978582859 -0.011470000259578228
v -0.03560899943113327 -0.0020865099504590034 -0.011470000259578228
v -0.03564999997615814 -0.0019099999917671084 -0.010990000329911709
v -0.035645801573991776 -0.001967970049008727 -0.011470000259578228
v -0.035645101219415665 -0.0019726199097931385 -0.010990000329911709
v -0.03563230112195015 -0.002027519978582859 -0.011470000259578228
v -0.035645101219415665 -0.0019726199097931385 -0.010990000329911709
v -0.035645801573991776 -0.001967970049008727 -0.011470000259578228
v -0.03564999997615814 -0.0019099999917671084 -0.011470000259578228
v -0.035645801573991776 -0.001967970049008727 -0.011470000259578228
v -0.03564999997615814 -0.0019099999917671084 -0.010990000329911709
v -0.03560899943113327 -0.0020865099504590034 -0.011470000259578228
v -0.0355755016207695 -0.0021424400620162487 -0.011470000259578228
v -0.035606298595666885 -0.002091709990054369 -0.010990000329911709
v -0.035606298595666885 -0.002091709990054369 -0.010990000329911709
v -0.035630401223897934 -0.002033629920333624 -0.010990000329911709
v -0.03560899943113327 -0.0020865099504590034 -0.011470000259578228
v -0.03553279861807823 -0.0021928399801254272 -0.011470000259578228
v -0.03553270176053047 -0.0021929400973021984 -0.010990000329911709
v -0.035573601722717285 -0.0021451800130307674 -0.010990000329911709
v -0.03553279861807823 -0.0021928399801254272 -0.011470000259578228
v -0.035573601722717285 -0.0021451800130307674 -0.010990000329911709
v -0.0355755016207695 -0.0021424400620162487 -0.011470000259578228
v -0.03548239916563034 -0.0022355299443006516 -0.011470000259578228
v -0.03542650118470192 -0.0022689499892294407 -0.011470000259578228
v -0.03548499941825867 -0.0022336801048368216 -0.010990000329911709
v -0.03548239916563034 -0.0022355299443006516 -0.011470000259578228
v -0.03548499941825867 -0.0022336801048368216 -0.010990000329911709
v -0.03553270176053047 -0.0021929400973021984 -0.010990000329911709
v -0.035431500524282455 -0.002266450086608529 -0.010990000329911709
v -0.03536750003695488 -0.002292349934577942 -0.011470000259578228
v -0.0353735014796257 -0.0022904500365257263 -0.010990000329911709
v -0.03542650118470192 -0.0022689499892294407 -0.011470000259578228
v -0.03536750003695488 -0.002292349934577942 -0.011470000259578228
v -0.035431500524282455 -0.002266450086608529 -0.010990000329911709
v -0.03531260043382645 -0.00230506993830204 -0.010990000329911709
v -0.035307999700307846 -0.0023057800717651844 -0.011470000259578228
v -0.03525000065565109 -0.002309999894350767 -0.011470000259578228
v -0.0353735014796257 -0.0022904500365257263 -0.010990000329911709
v -0.035307999700307846 -0.0023057800717651844 -0.011470000259578228
v -0.03531260043382645 -0.00230506993830204 -0.010990000329911709
v -0.03564999997615814 0.001990000018849969 -0.011470000259578228
v -0.03564999997615814 -0.0019099999917671084 -0.010990000329911709
v -0.03564999997615814 0.001990000018849969 -0.010990000329911709
v -0.03564999997615814 -0.0019099999917671084 -0.010990000329911709
v -0.03564999997615814 0.001990000018849969 -0.011470000259578228
v -0.03564999997615814 -0.0019099999917671084 -0.011470000259578228
v -0.035645101219415665 0.002052620053291321 -0.010990000329911709
v -0.03564999997615814 0.001990000018849969 -0.011470000259578228
v -0.03564999997615814 0.001990000018849969 -0.010990000329911709
v -0.035573698580265045 0.0022250099573284388 -0.010990000329911709
v -0.03560899943113327 0.0021665100939571857 -0.011470000259578228
v -0.035606399178504944 0.0021714800968766212 -0.010990000329911709
v -0.035630401223897934 0.0021134898997843266 -0.010990000329911709
v -0.03563230112195015 0.002107529900968075 -0.011470000259578228
v -0.035645801573991776 0.0020479699596762657 -0.011470000259578228
v -0.03548239916563034 0.002315530087798834 -0.011470000259578228
v -0.035485200583934784 0.0023135601077228785 -0.010990000329911709
v -0.03543170168995857 0.002346340101212263 -0.010990000329911709
v -0.0355755016207695 0.0022224399726837873 -0.011470000259578228
v -0.03553289920091629 0.002272719983011484 -0.010990000329911709
v -0.03553279861807823 0.002272839890792966 -0.011470000259578228
v -0.03536750003695488 0.002372350078076124 -0.011470000259578228
v -0.03537359833717346 0.0023704099003225565 -0.010990000329911709
v -0.03531260043382645 0.0023850700818002224 -0.010990000329911709
v -0.03537359833717346 0.0023704099003225565 -0.010990000329911709
v -0.03536750003695488 0.002372350078076124 -0.011470000259578228
v -0.03542650118470192 0.0023489498998969793 -0.011470000259578228
v -0.03525000065565109 0.0023900000378489494 -0.010990000329911709
v -0.035307999700307846 0.002385779982432723 -0.011470000259578228
v -0.03531260043382645 0.0023850700818002224 -0.010990000329911709
v -0.03536750003695488 0.002372350078076124 -0.011470000259578228
v -0.03531260043382645 0.0023850700818002224 -0.010990000329911709
v -0.035307999700307846 0.002385779982432723 -0.011470000259578228
v -0.03525000065565109 0.0023900000378489494 -0.011470000259578228
v -0.035307999700307846 0.002385779982432723 -0.011470000259578228
v -0.03525000065565109 0.0023900000378489494 -0.010990000329911709
v -0.03542650118470192 0.0023489498998969793 -0.011470000259578228
v -0.03548239916563034 0.002315530087798834 -0.011470000259578228
v -0.03543170168995857 0.002346340101212263 -0.010990000329911709
v -0.03543170168995857 0.002346340101212263 -0.010990000329911709
v -0.03537359833717346 0.0023704099003225565 -0.010990000329911709
v -0.03542650118470192 0.0023489498998969793 -0.011470000259578228
v -0.03553279861807823 0.002272839890792966 -0.011470000259578228
v -0.03553289920091629 0.002272719983011484 -0.010990000329911709
v -0.035485200583934784 0.0023135601077228785 -0.010990000329911709
v -0.03553279861807823 0.002272839890792966 -0.011470000259578228
v -0.035485200583934784 0.0023135601077228785 -0.010990000329911709
v -0.03548239916563034 0.002315530087798834 -0.011470000259578228
v -0.0355755016207695 0.0022224399726837873 -0.011470000259578228
v -0.03560899943113327 0.0021665100939571857 -0.011470000259578228
v -0.035573698580265045 0.0022250099573284388 -0.010990000329911709
v -0.0355755016207695 0.0022224399726837873 -0.011470000259578228
v -0.035573698580265045 0.0022250099573284388 -0.010990000329911709
v -0.03553289920091629 0.002272719983011484 -0.010990000329911709
v -0.035606399178504944 0.0021714800968766212 -0.010990000329911709
v -0.03563230112195015 0.002107529900968075 -0.011470000259578228
v -0.035630401223897934 0.0021134898997843266 -0.010990000329911709
v -0.03560899943113327 0.0021665100939571857 -0.011470000259578228
v -0.03563230112195015 0.002107529900968075 -0.011470000259578228
v -0.035606399178504944 0.0021714800968766212 -0.010990000329911709
v -0.035645101219415665 0.002052620053291321 -0.010990000329911709
v -0.035645801573991776 0.0020479699596762657 -0.011470000259578228
v -0.03564999997615814 0.001990000018849969 -0.011470000259578228
v -0.035630401223897934 0.0021134898997843266 -0.010990000329911709
v -0.035645801573991776 0.0020479699596762657 -0.011470000259578228
v -0.035645101219415665 0.002052620053291321 -0.010990000329911709
v -0.030249999836087227 0.0023900000378489494 -0.010990000329911709
v -0.03012619912624359 0.0023703600745648146 -0.010990000329911709
v -0.030186999589204788 0.002385020023211837 -0.010990000329911709
v -0.03525000065565109 -0.002309999894350767 -0.010990000329911709
v -0.0353735014796257 -0.0022904500365257263 -0.010990000329911709
v -0.03531260043382645 -0.00230506993830204 -0.010990000329911709
v -0.030068600550293922 0.002346490044146776 -0.010990000329911709
v -0.030249999836087227 0.0023900000378489494 -0.010990000329911709
v -0.03001520037651062 0.0023138299584388733 -0.010990000329911709
v -0.030068600550293922 0.002346490044146776 -0.010990000329911709
v -0.03012619912624359 0.0023703600745648146 -0.010990000329911709
v -0.030249999836087227 0.0023900000378489494 -0.010990000329911709
v -0.02996720001101494 0.002272839890792966 -0.010990000329911709
v -0.030249999836087227 0.0023900000378489494 -0.010990000329911709
v -0.029926199465990067 0.00222480995580554 -0.010990000329911709
v -0.02996720001101494 0.002272839890792966 -0.010990000329911709
v -0.03001520037651062 0.0023138299584388733 -0.010990000329911709
v -0.030249999836087227 0.0023900000378489494 -0.010990000329911709
v -0.029926199465990067 0.00222480995580554 -0.010990000329911709
v -0.030249999836087227 0.0023900000378489494 -0.010990000329911709
v -0.029893500730395317 0.0021714300382882357 -0.010990000329911709
v -0.030249999836087227 0.0023900000378489494 -0.010990000329911709
v -0.029854999855160713 0.0020529499743133783 -0.010990000329911709
v -0.029869599267840385 0.0021137900184839964 -0.010990000329911709
v -0.029893500730395317 0.0021714300382882357 -0.010990000329911709
v -0.030249999836087227 0.0023900000378489494 -0.010990000329911709
v -0.029869599267840385 0.0021137900184839964 -0.010990000329911709
v -0.029854999855160713 0.0020529499743133783 -0.010990000329911709
v -0.030249999836087227 0.0023900000378489494 -0.010990000329911709
v -0.029850000515580177 0.001990000018849969 -0.010990000329911709
v -0.035645101219415665 -0.0019726199097931385 -0.010990000329911709
v -0.03525000065565109 -0.002309999894350767 -0.010990000329911709
v -0.03564999997615814 -0.0019099999917671084 -0.010990000329911709
v -0.030068600550293922 -0.002266489900648594 -0.010990000329911709
v -0.030249999836087227 -0.002309999894350767 -0.010990000329911709
v -0.03012619912624359 -0.0022903599310666323 -0.010990000329911709
v -0.030186999589204788 -0.002305020112544298 -0.010990000329911709
v -0.03012619912624359 -0.0022903599310666323 -0.010990000329911709
v -0.030249999836087227 -0.002309999894350767 -0.010990000329911709
v -0.03001520037651062 -0.0022338300477713346 -0.010990000329911709
v -0.02996720001101494 -0.0021928399801254272 -0.010990000329911709
v -0.030249999836087227 -0.002309999894350767 -0.010990000329911709
v -0.03001520037651062 -0.0022338300477713346 -0.010990000329911709
v -0.030249999836087227 -0.002309999894350767 -0.010990000329911709
v -0.030068600550293922 -0.002266489900648594 -0.010990000329911709
v -0.030249999836087227 -0.002309999894350767 -0.010990000329911709
v -0.029926199465990067 -0.0021448100451380014 -0.010990000329911709
v -0.029893500730395317 -0.0020914298947900534 -0.010990000329911709
v -0.02996720001101494 -0.0021928399801254272 -0.010990000329911709
v -0.029926199465990067 -0.0021448100451380014 -0.010990000329911709
v -0.030249999836087227 -0.002309999894350767 -0.010990000329911709
v -0.029854999855160713 -0.0019729500636458397 -0.010990000329911709
v -0.030249999836087227 -0.002309999894350767 -0.010990000329911709
v -0.029869599267840385 -0.0020337800960987806 -0.010990000329911709
v -0.030249999836087227 -0.002309999894350767 -0.010990000329911709
v -0.029893500730395317 -0.0020914298947900534 -0.010990000329911709
v -0.029869599267840385 -0.0020337800960987806 -0.010990000329911709
v -0.03525000065565109 -0.002309999894350767 -0.010990000329911709
v -0.030249999836087227 -0.002309999894350767 -0.010990000329911709
v -0.03564999997615814 -0.0019099999917671084 -0.010990000329911709
v -0.029850000515580177 -0.0019099999917671084 -0.010990000329911709
v -0.030249999836087227 -0.002309999894350767 -0.010990000329911709
v -0.029854999855160713 -0.0019729500636458397 -0.010990000329911709
v -0.03525000065565109 -0.002309999894350767 -0.010990000329911709
v -0.035645101219415665 -0.0019726199097931385 -0.010990000329911709
v -0.035630401223897934 -0.002033629920333624 -0.010990000329911709
v -0.035431500524282455 -0.002266450086608529 -0.010990000329911709
v -0.03525000065565109 -0.002309999894350767 -0.010990000329911709
v -0.03548499941825867 -0.0022336801048368216 -0.010990000329911709
v -0.035431500524282455 -0.002266450086608529 -0.010990000329911709
v -0.0353735014796257 -0.0022904500365257263 -0.010990000329911709
v -0.03525000065565109 -0.002309999894350767 -0.010990000329911709
v -0.03553270176053047 -0.0021929400973021984 -0.010990000329911709
v -0.03525000065565109 -0.002309999894350767 -0.010990000329911709
v -0.035573601722717285 -0.0021451800130307674 -0.010990000329911709
v -0.03553270176053047 -0.0021929400973021984 -0.010990000329911709
v -0.03548499941825867 -0.0022336801048368216 -0.010990000329911709
v -0.03525000065565109 -0.002309999894350767 -0.010990000329911709
v -0.035606298595666885 -0.002091709990054369 -0.010990000329911709
v -0.03525000065565109 -0.002309999894350767 -0.010990000329911709
v -0.035630401223897934 -0.002033629920333624 -0.010990000329911709
v -0.035606298595666885 -0.002091709990054369 -0.010990000329911709
v -0.035573601722717285 -0.0021451800130307674 -0.010990000329911709
v -0.03525000065565109 -0.002309999894350767 -0.010990000329911709
v -0.03564999997615814 0.001990000018849969 -0.010990000329911709
v -0.03564999997615814 -0.0019099999917671084 -0.010990000329911709
v -0.029850000515580177 -0.0019099999917671084 -0.010990000329911709
v -0.030249999836087227 -0.002309999894350767 -0.010990000329911709
v -0.029850000515580177 -0.0019099999917671084 -0.010990000329911709
v -0.03564999997615814 -0.0019099999917671084 -0.010990000329911709
v -0.029850000515580177 0.001990000018849969 -0.010990000329911709
v -0.03564999997615814 0.001990000018849969 -0.010990000329911709
v -0.029850000515580177 -0.0019099999917671084 -0.010990000329911709
v -0.03525000065565109 0.0023900000378489494 -0.010990000329911709
v -0.03564999997615814 0.001990000018849969 -0.010990000329911709
v -0.029850000515580177 0.001990000018849969 -0.010990000329911709
v -0.03531260043382645 0.0023850700818002224 -0.010990000329911709
v -0.03537359833717346 0.0023704099003225565 -0.010990000329911709
v -0.03525000065565109 0.0023900000378489494 -0.010990000329911709
v -0.03525000065565109 0.0023900000378489494 -0.010990000329911709
v -0.03543170168995857 0.002346340101212263 -0.010990000329911709
v -0.035485200583934784 0.0023135601077228785 -0.010990000329911709
v -0.03537359833717346 0.0023704099003225565 -0.010990000329911709
v -0.03543170168995857 0.002346340101212263 -0.010990000329911709
v -0.03525000065565109 0.0023900000378489494 -0.010990000329911709
v -0.035573698580265045 0.0022250099573284388 -0.010990000329911709
v -0.03525000065565109 0.0023900000378489494 -0.010990000329911709
v -0.03553289920091629 0.002272719983011484 -0.010990000329911709
v -0.03525000065565109 0.0023900000378489494 -0.010990000329911709
v -0.035485200583934784 0.0023135601077228785 -0.010990000329911709
v -0.03553289920091629 0.002272719983011484 -0.010990000329911709
v -0.03525000065565109 0.0023900000378489494 -0.010990000329911709
v -0.035573698580265045 0.0022250099573284388 -0.010990000329911709
v -0.035606399178504944 0.0021714800968766212 -0.010990000329911709
v -0.03525000065565109 0.0023900000378489494 -0.010990000329911709
v -0.035630401223897934 0.0021134898997843266 -0.010990000329911709
v -0.035645101219415665 0.002052620053291321 -0.010990000329911709
v -0.035606399178504944 0.0021714800968766212 -0.010990000329911709
v -0.035630401223897934 0.0021134898997843266 -0.010990000329911709
v -0.03525000065565109 0.0023900000378489494 -0.010990000329911709
v -0.03525000065565109 0.0023900000378489494 -0.010990000329911709
v -0.035645101219415665 0.002052620053291321 -0.010990000329911709
v -0.03564999997615814 0.001990000018849969 -0.010990000329911709
v -0.03525000065565109 0.0023900000378489494 -0.010990000329911709
v -0.029850000515580177 0.001990000018849969 -0.010990000329911709
v -0.030249999836087227 0.0023900000378489494 -0.010990000329911709
f 1 2 3
f 4 5 6
f 7 8 9
f 10 11 12
f 13 14 15
f 16 17 18
f 19 20 21
f 22 23 24
f 25 26 27
f 28 29 30
f 31 32 33
f 34 35 36
f 37 38 39
f 40 41 42
f 43 44 45
f 46 47 48
f 49 50 51
f 52 53 54
f 55 56 57
f 58 59 60
f 61 62 63
f 64 65 66
f 67 68 69
f 70 71 72
f 73 74 75
f 76 77 78
f 79 80 81
f 82 83 84
f 85 86 87
f 88 89 90
f 91 92 93
f 94 95 96
f 97 98 99
f 100 101 102
f 103 104 105
f 106 107 108
f 109 110 111
f 112 113 114
f 115 116 117
f 118 119 120
f 121 122 123
f 124 125 126
f 127 128 129
f 130 131 132
f 133 134 135
f 136 137 138
f 139 140 141
f 142 143 144
f 145 146 147
f 148 149 150
f 151 152 153
f 154 155 156
f 157 158 159
f 160 161 162
f 163 164 165
f 166 167 168
f 169 170 171
f 172 173 174
f 175 176 177
f 178 179 180
f 181 182 183
f 184 185 186
f 187 188 189
f 190 191 192
f 193 194 195
f 196 197 198
f 199 200 201
f 202 203 204
f 205 206 207
f 208 209 210
f 211 212 213
f 214 215 216
f 217 218 219
f 220 221 222
f 223 224 225
f 226 227 228
f 229 230 231
f 232 233 234
f 235 236 237
f 238 239 240
f 241 242 243
f 244 245 246
f 247 248 249
f 250 251 252
f 253 254 255
f 256 257 258
f 259 260 261
f 262 263 264
f 265 266 267
f 268 269 270
f 271 272 273
f 274 275 276
f 277 278 279
f 280 281 282
f 283 284 285
f 286 287 288
f 289 290 291
f 292 293 294
f 295 296 297
f 298 299 300
f 301 302 303
f 304 305 306
f 307 308 309
f 310 311 312
f 313 314 315
f 316 317 318
f 319 320 321
f 322 323 324
f 325 326 327
f 328 329 330
f 331 332 333
f 334 335 336
f 337 338 339
f 340 341 342
f 343 344 345
f 346 347 348
f 349 350 351
f 352 353 354
f 355 356 357
f 358 359 360
f 361 362 363
f 364 365 366
f 367 368 369
f 370 371 372
f 373 374 375
f 376 377 378
f 379 380 381
f 382 383 384
f 385 386 387
f 388 389 390
f 391 392 393
f 394 395 396
f 397 398 399
f 400 401 402
f 403 404 405
f 406 407 408
f 409 410 411
f 412 413 414
f 415 416 417
f 418 419 420
f 421 422 423
f 424 425 426
f 427 428 429
f 430 431 432
f 433 434 435
f 436 437 438
f 439 440 441
f 442 443 444
f 445 446 447
f 448 449 450
f 451 452 453
f 454 455 456
f 457 458 459
f 460 461 462
f 463 464 465
f 466 467 468
f 469 470 471
f 472 473 474
f 475 476 477
f 478 479 480
f 481 482 483
f 484 485 486
f 487 488 489
f 490 491 492
f 493 494 495
f 496 497 498
f 499 500 501
f 502 503 504
f 505 506 507
f 508 509 510
f 511 512 513
f 514 515 516
