o 5b3aea852d36660f8dc55aaa
usemtl Material0
v -0.033034298568964005 -0.009724060073494911 -0.005319999996572733
v -0.03297150135040283 -0.009724359959363937 -0.005482110194861889
v -0.032931700348854065 -0.009721259586513042 -0.005319999996572733
v -0.033012598752975464 -0.009724879637360573 -0.005497009959071875
v -0.033034298568964005 -0.009724060073494911 -0.005319999996572733
v -0.033056098967790604 -0.009722470305860043 -0.00549690006300807
v -0.033012598752975464 -0.009724879637360573 -0.005497009959071875
v -0.03297150135040283 -0.009724359959363937 -0.005482110194861889
v -0.033034298568964005 -0.009724060073494911 -0.005319999996572733
v -0.032904401421546936 -0.009717649780213833 -0.005426929797977209
v -0.032931700348854065 -0.009721259586513042 -0.005319999996572733
v -0.032935600727796555 -0.009721679612994194 -0.0054573798552155495
v -0.032931700348854065 -0.009721259586513042 -0.005319999996572733
v -0.03297150135040283 -0.009724359959363937 -0.005482110194861889
v -0.032935600727796555 -0.009721679612994194 -0.0054573798552155495
v -0.033135898411273956 -0.00971003994345665 -0.005319999996572733
v -0.03309670090675354 -0.009717470034956932 -0.005482079926878214
v -0.033034298568964005 -0.009724060073494911 -0.005319999996572733
v -0.03309670090675354 -0.009717470034956932 -0.005482079926878214
v -0.033056098967790604 -0.009722470305860043 -0.00549690006300807
v -0.033034298568964005 -0.009724060073494911 -0.005319999996572733
v -0.033132098615169525 -0.009710869751870632 -0.00545730022713542
v -0.03309670090675354 -0.009717470034956932 -0.005482079926878214
v -0.033135898411273956 -0.00971003994345665 -0.005319999996572733
v -0.032904401421546936 -0.009717649780213833 -0.005426929797977209
v -0.03287699818611145 -0.009712779894471169 -0.005393180064857006
v -0.032931700348854065 -0.009721259586513042 -0.005319999996572733
v -0.033135898411273956 -0.00971003994345665 -0.005319999996572733
v -0.03316269814968109 -0.00970344990491867 -0.005426909774541855
v -0.033132098615169525 -0.009710869751870632 -0.00545730022713542
v -0.032931700348854065 -0.009721259586513042 -0.005319999996572733
v -0.03287699818611145 -0.009712779894471169 -0.005393180064857006
v -0.032852500677108765 -0.00970735028386116 -0.005357310175895691
v -0.033189401030540466 -0.009695599786937237 -0.005393160041421652
v -0.03316269814968109 -0.00970344990491867 -0.005426909774541855
v -0.033135898411273956 -0.00971003994345665 -0.005319999996572733
v -0.032852500677108765 -0.00970735028386116 -0.005357310175895691
v -0.03283039852976799 -0.009701530449092388 -0.005319999996572733
v -0.032931700348854065 -0.009721259586513042 -0.005319999996572733
v -0.033234499394893646 -0.009679329581558704 -0.005319999996572733
v -0.03321310132741928 -0.009687529876828194 -0.005357290152460337
v -0.033135898411273956 -0.00971003994345665 -0.005319999996572733
v -0.033189401030540466 -0.009695599786937237 -0.005393160041421652
v -0.033135898411273956 -0.00971003994345665 -0.005319999996572733
v -0.03321310132741928 -0.009687529876828194 -0.005357290152460337
v -0.033135898411273956 -0.00971003994345665 -0.005319999996572733
v -0.033034298568964005 -0.009724060073494911 -0.005319999996572733
v -0.032931700348854065 -0.009721259586513042 -0.005319999996572733
v -0.032931700348854065 -0.009721259586513042 -0.005319999996572733
v -0.03283039852976799 -0.009701530449092388 -0.005319999996572733
v -0.033032599836587906 -0.009692540392279625 -0.005319999996572733
v -0.033032599836587906 -0.009692540392279625 -0.005319999996572733
v -0.033135898411273956 -0.00971003994345665 -0.005319999996572733
v -0.032931700348854065 -0.009721259586513042 -0.005319999996572733
v -0.033234499394893646 -0.009679329581558704 -0.005319999996572733
v -0.033135898411273956 -0.00971003994345665 -0.005319999996572733
v -0.033032599836587906 -0.009692540392279625 -0.005319999996572733
v -0.03321310132741928 -0.009687529876828194 -0.005357290152460337
v -0.033234499394893646 -0.009679329581558704 -0.005319999996572733
v -0.033032599836587906 -0.009692540392279625 -0.005319999996572733
v -0.033032599836587906 -0.009692540392279625 -0.005319999996572733
v -0.033189401030540466 -0.009695599786937237 -0.005393160041421652
v -0.03321310132741928 -0.009687529876828194 -0.005357290152460337
v -0.033189401030540466 -0.009695599786937237 -0.005393160041421652
v -0.033032599836587906 -0.009692540392279625 -0.005319999996572733
v -0.03316269814968109 -0.00970344990491867 -0.005426909774541855
v -0.033032599836587906 -0.009692540392279625 -0.005319999996572733
v -0.03309670090675354 -0.009717470034956932 -0.005482079926878214
v -0.033132098615169525 -0.009710869751870632 -0.00545730022713542
v -0.03316269814968109 -0.00970344990491867 -0.005426909774541855
v -0.033032599836587906 -0.009692540392279625 -0.005319999996572733
v -0.033132098615169525 -0.009710869751870632 -0.00545730022713542
v -0.033032599836587906 -0.009692540392279625 -0.005319999996572733
v -0.033012598752975464 -0.009724879637360573 -0.005497009959071875
v -0.033056098967790604 -0.009722470305860043 -0.00549690006300807
v -0.03309670090675354 -0.009717470034956932 -0.005482079926878214
v -0.033032599836587906 -0.009692540392279625 -0.005319999996572733
v -0.033056098967790604 -0.009722470305860043 -0.00549690006300807
v -0.033032599836587906 -0.009692540392279625 -0.005319999996572733
v -0.032935600727796555 -0.009721679612994194 -0.0054573798552155495
v -0.03297150135040283 -0.009724359959363937 -0.005482110194861889
v -0.033012598752975464 -0.009724879637360573 -0.005497009959071875
v -0.033032599836587906 -0.009692540392279625 -0.005319999996572733
v -0.03297150135040283 -0.009724359959363937 -0.005482110194861889
v -0.033032599836587906 -0.009692540392279625 -0.005319999996572733
v -0.03287699818611145 -0.009712779894471169 -0.005393180064857006
v -0.032904401421546936 -0.009717649780213833 -0.005426929797977209
v -0.032935600727796555 -0.009721679612994194 -0.0054573798552155495
v -0.033032599836587906 -0.009692540392279625 -0.005319999996572733
v -0.032904401421546936 -0.009717649780213833 -0.005426929797977209
v -0.03283039852976799 -0.009701530449092388 -0.005319999996572733
v -0.032852500677108765 -0.00970735028386116 -0.005357310175895691
v -0.033032599836587906 -0.009692540392279625 -0.005319999996572733
v -0.03287699818611145 -0.009712779894471169 -0.005393180064857006
v -0.033032599836587906 -0.009692540392279625 -0.005319999996572733
v -0.032852500677108765 -0.00970735028386116 -0.005357310175895691
f 1 2 3
f 4 5 6
f 7 8 9
f 10 11 12
f 13 14 15
f 16 17 18
f 19 20 21
f 22 23 24
f 25 26 27
f 28 29 30
f 31 32 33
f 34 35 36
f 37 38 39
f 40 41 42
f 43 44 45
f 46 47 48
f 49 50 51
f 52 53 54
f 55 56 57
f 58 59 60
f 61 62 63
f 64 65 66
f 67 68 69
f 70 71 72
f 73 74 75
f 76 77 78
f 79 80 81
f 82 83 84
f 85 86 87
f 88 89 90
f 91 92 93
f 94 95 96
