o node5_001
usemtl Part__Feature005_001_005_001
v 0.015254969708621502 0.06630653142929077 0.011061370372772217
v 0.015255509875714779 0.06845592707395554 0.026441270485520363
v 0.015255269594490528 -0.06846272200345993 0.02643764019012451
v -0.015255509875714779 0.06845592707395554 0.026441270485520363
v -0.015254969708621502 0.06630653142929077 0.011061370372772217
v -0.015255269594490528 -0.06846272200345993 0.02643764019012451
v 0.015255330130457878 0.06931853294372559 0.026234980672597885
v 0.015255509875714779 0.06845592707395554 0.026441270485520363
v 0.015255209989845753 0.07196158170700073 0.022136269137263298
v 0.015255269594490528 -0.06846272200345993 0.02643764019012451
v 0.015255209989845753 -0.06962721794843674 0.02613561972975731
v 0.015255150385200977 -0.0707891508936882 0.025323450565338135
v 0.015255150385200977 -0.0707891508936882 0.025323450565338135
v 0.015255089849233627 -0.07158952206373215 0.024234050884842873
v 0.015255330130457878 -0.07197289913892746 0.022689340636134148
v 0.015255330130457878 -0.07197289913892746 0.022689340636134148
v 0.015255330130457878 -0.07185590267181396 0.02158552035689354
v 0.015255150385200977 -0.0707891508936882 0.025323450565338135
v 0.015255330130457878 -0.07075326889753342 0.017617879435420036
v 0.015255450271070004 -0.06930655241012573 0.013206000439822674
v 0.0152546102181077 -0.06638555973768234 0.01107047963887453
v 0.015255150385200977 -0.06847184151411057 0.012109390459954739
v 0.015255209989845753 -0.06758683174848557 0.011487839743494987
v 0.015255450271070004 -0.06930655241012573 0.013206000439822674
v 0.0152546102181077 -0.06638555973768234 0.01107047963887453
v 0.015254969708621502 0.06630653142929077 0.011061370372772217
v 0.015255269594490528 -0.06846272200345993 0.02643764019012451
v 0.015254310332238674 0.06754838675260544 0.011463340371847153
v 0.015254910103976727 0.06862276047468185 0.012245230376720428
v 0.015254190191626549 0.06938499212265015 0.013389579951763153
v 0.015254190191626549 0.06938499212265015 0.013389579951763153
v 0.015254969708621502 0.06630653142929077 0.011061370372772217
v 0.015254310332238674 0.06754838675260544 0.011463340371847153
v 0.015255209989845753 0.07196158170700073 0.022136269137263298
v 0.015255269594490528 0.07189171761274338 0.023233650252223015
v 0.015255330130457878 0.06931853294372559 0.026234980672597885
v 0.015255269594490528 0.07155174016952515 0.024291029199957848
v 0.015255330130457878 0.07087653130292892 0.025223970413208008
v 0.015255269594490528 0.07189171761274338 0.023233650252223015
v 0.015255330130457878 0.07015960663557053 0.02582721970975399
v 0.015255330130457878 0.06931853294372559 0.026234980672597885
v 0.015255330130457878 0.07087653130292892 0.025223970413208008
v 0.015255269594490528 -0.06846272200345993 0.02643764019012451
v 0.015255150385200977 -0.0707891508936882 0.025323450565338135
v 0.015255330130457878 -0.07185590267181396 0.02158552035689354
v 0.015255330130457878 -0.07185590267181396 0.02158552035689354
v 0.015255330130457878 -0.07075326889753342 0.017617879435420036
v 0.015255269594490528 -0.06846272200345993 0.02643764019012451
v 0.015255209989845753 -0.06758683174848557 0.011487839743494987
v 0.0152546102181077 -0.06638555973768234 0.01107047963887453
v 0.015255450271070004 -0.06930655241012573 0.013206000439822674
v 0.015254190191626549 0.06938499212265015 0.013389579951763153
v 0.015254080295562744 0.07093381136655807 0.018207600340247154
v 0.015254969708621502 0.06630653142929077 0.011061370372772217
v 0.015255269594490528 0.07189171761274338 0.023233650252223015
v 0.015255330130457878 0.07087653130292892 0.025223970413208008
v 0.015255330130457878 0.06931853294372559 0.026234980672597885
v 0.015255509875714779 0.06845592707395554 0.026441270485520363
v 0.015254969708621502 0.06630653142929077 0.011061370372772217
v 0.015254080295562744 0.07093381136655807 0.018207600340247154
v 0.015255330130457878 -0.07075326889753342 0.017617879435420036
v 0.0152546102181077 -0.06638555973768234 0.01107047963887453
v 0.015255269594490528 -0.06846272200345993 0.02643764019012451
v 0.015254080295562744 0.07093381136655807 0.018207600340247154
v 0.015255209989845753 0.07196158170700073 0.022136269137263298
v 0.015255509875714779 0.06845592707395554 0.026441270485520363
v -0.015255209989845753 -0.06758683174848557 0.011487839743494987
v -0.015255150385200977 -0.06847184151411057 0.012109390459954739
v -0.015255450271070004 -0.06930655241012573 0.013206000439822674
v -0.015255450271070004 -0.06930655241012573 0.013206000439822674
v -0.015255330130457878 -0.07075326889753342 0.017617879435420036
v -0.0152546102181077 -0.06638555973768234 0.01107047963887453
v -0.015255330130457878 -0.07185590267181396 0.02158552035689354
v -0.015255330130457878 -0.07197289913892746 0.022689340636134148
v -0.015255150385200977 -0.0707891508936882 0.025323450565338135
v -0.015255089849233627 -0.07158952206373215 0.024234050884842873
v -0.015255150385200977 -0.0707891508936882 0.025323450565338135
v -0.015255330130457878 -0.07197289913892746 0.022689340636134148
v -0.015255209989845753 -0.06962721794843674 0.02613561972975731
v -0.015255269594490528 -0.06846272200345993 0.02643764019012451
v -0.015255150385200977 -0.0707891508936882 0.025323450565338135
v -0.015255509875714779 0.06845592707395554 0.026441270485520363
v -0.015255330130457878 0.06931853294372559 0.026234980672597885
v -0.015255269594490528 0.07189171761274338 0.023233650252223015
v -0.015255330130457878 0.07015960663557053 0.02582721970975399
v -0.015255330130457878 0.07087653130292892 0.025223970413208008
v -0.015255330130457878 0.06931853294372559 0.026234980672597885
v -0.015255269594490528 0.07155174016952515 0.024291029199957848
v -0.015255269594490528 0.07189171761274338 0.023233650252223015
v -0.015255330130457878 0.07087653130292892 0.025223970413208008
v -0.015255209989845753 0.07196158170700073 0.022136269137263298
v -0.015255509875714779 0.06845592707395554 0.026441270485520363
v -0.015255269594490528 0.07189171761274338 0.023233650252223015
v -0.015254190191626549 0.06938499212265015 0.013389579951763153
v -0.015254910103976727 0.06862276047468185 0.012245230376720428
v -0.015254310332238674 0.06754838675260544 0.011463340371847153
v -0.015254310332238674 0.06754838675260544 0.011463340371847153
v -0.015254969708621502 0.06630653142929077 0.011061370372772217
v -0.015254190191626549 0.06938499212265015 0.013389579951763153
v -0.0152546102181077 -0.06638555973768234 0.01107047963887453
v -0.015255209989845753 -0.06758683174848557 0.011487839743494987
v -0.015255450271070004 -0.06930655241012573 0.013206000439822674
v -0.015255330130457878 -0.07075326889753342 0.017617879435420036
v -0.015255330130457878 -0.07185590267181396 0.02158552035689354
v -0.015255269594490528 -0.06846272200345993 0.02643764019012451
v -0.015255150385200977 -0.0707891508936882 0.025323450565338135
v -0.015255269594490528 -0.06846272200345993 0.02643764019012451
v -0.015255330130457878 -0.07185590267181396 0.02158552035689354
v -0.015255330130457878 0.06931853294372559 0.026234980672597885
v -0.015255330130457878 0.07087653130292892 0.025223970413208008
v -0.015255269594490528 0.07189171761274338 0.023233650252223015
v -0.015255209989845753 0.07196158170700073 0.022136269137263298
v -0.015254080295562744 0.07093381136655807 0.018207600340247154
v -0.015255509875714779 0.06845592707395554 0.026441270485520363
v -0.015254190191626549 0.06938499212265015 0.013389579951763153
v -0.015254969708621502 0.06630653142929077 0.011061370372772217
v -0.015254080295562744 0.07093381136655807 0.018207600340247154
v -0.0152546102181077 -0.06638555973768234 0.01107047963887453
v -0.015255330130457878 -0.07075326889753342 0.017617879435420036
v -0.015255269594490528 -0.06846272200345993 0.02643764019012451
v -0.015255269594490528 -0.06846272200345993 0.02643764019012451
v -0.015254969708621502 0.06630653142929077 0.011061370372772217
v -0.0152546102181077 -0.06638555973768234 0.01107047963887453
v -0.015254080295562744 0.07093381136655807 0.018207600340247154
v -0.015254969708621502 0.06630653142929077 0.011061370372772217
v -0.015255509875714779 0.06845592707395554 0.026441270485520363
vn 0.9999999993902695 -0.0000017581199916288336 -0.00003487649880900662
vn 0.9999999993902695 -0.0000017581199916288336 -0.00003487649880900662
vn 0.9999999993902695 -0.0000017581199916288336 -0.00003487649880900662
vn -0.9999999993902746 -0.0000017552499674123103 -0.0000348764988090068
vn -0.9999999993902746 -0.0000017552499674123103 -0.0000348764988090068
vn -0.9999999993902746 -0.0000017552499674123103 -0.0000348764988090068
vn 0.9999999650051664 0.00023358199388934963 0.00012421400184491963
vn 0.9999999650051664 0.00023358199388934963 0.00012421400184491963
vn 0.9999999650051664 0.00023358199388934963 0.00012421400184491963
vn 0.999999998648752 -0.00005198490173167134 -2.568189923917459e-7
vn 0.999999998648752 -0.00005198490173167134 -2.568189923917459e-7
vn 0.999999998648752 -0.00005198490173167134 -2.568189923917459e-7
vn 0.9999998666186215 -0.00044436597916112176 0.00026325200078454843
vn 0.9999998666186215 -0.00044436597916112176 0.00026325200078454843
vn 0.9999998666186215 -0.00044436597916112176 0.00026325200078454843
vn 0.9999999919570403 0.00012615999629299568 0.000013022099560513474
vn 0.9999999919570403 0.00012615999629299568 0.000013022099560513474
vn 0.9999999919570403 0.00012615999629299568 0.000013022099560513474
vn 0.9999999171511723 0.0003779939637202126 0.00015105698197603372
vn 0.9999999171511723 0.0003779939637202126 0.00015105698197603372
vn 0.9999999171511723 0.0003779939637202126 0.00015105698197603372
vn 0.9999996019936404 -0.0005558599475539623 -0.0006978769804415535
vn 0.9999996019936404 -0.0005558599475539623 -0.0006978769804415535
vn 0.9999996019936404 -0.0005558599475539623 -0.0006978769804415535
vn 0.9999999992238204 -0.0000022551400871411005 -0.000039335398438588934
vn 0.9999999992238204 -0.0000022551400871411005 -0.000039335398438588934
vn 0.9999999992238204 -0.0000022551400871411005 -0.000039335398438588934
vn 0.9999968281760426 -0.0017918938309094538 0.001769958856251104
vn 0.9999968281760426 -0.0017918938309094538 0.001769958856251104
vn 0.9999968281760426 -0.0017918938309094538 0.001769958856251104
vn 0.9999996099204898 0.0006697799726646895 -0.000575806961197257
vn 0.9999996099204898 0.0006697799726646895 -0.000575806961197257
vn 0.9999996099204898 0.0006697799726646895 -0.000575806961197257
vn 0.9999999973807192 -0.00004453400094620993 -0.00005705509814623413
vn 0.9999999973807192 -0.00004453400094620993 -0.00005705509814623413
vn 0.9999999973807192 -0.00004453400094620993 -0.00005705509814623413
vn 0.9999999850402759 0.00016501499093080286 0.000051860398477383477
vn 0.9999999850402759 0.00016501499093080286 0.000051860398477383477
vn 0.9999999850402759 0.00016501499093080286 0.000051860398477383477
vn 1 0 0
vn 1 0 0
vn 1 0 0
vn 0.9999999937249331 -0.00008528630079269205 0.00007263870020217713
vn 0.9999999937249331 -0.00008528630079269205 0.00007263870020217713
vn 0.9999999937249331 -0.00008528630079269205 0.00007263870020217713
vn 0.999999999917123 0.000012376000085052735 0.0000035480300081659958
vn 0.999999999917123 0.000012376000085052735 0.0000035480300081659958
vn 0.999999999917123 0.000012376000085052735 0.0000035480300081659958
vn 0.9999997004427341 0.0006106819482465328 0.00047558595469839054
vn 0.9999997004427341 0.0006106819482465328 0.00047558595469839054
vn 0.9999997004427341 0.0006106819482465328 0.00047558595469839054
vn 0.9999999575024455 0.0002838819976565564 -0.0000663785988295282
vn 0.9999999575024455 0.0002838819976565564 -0.0000663785988295282
vn 0.9999999575024455 0.0002838819976565564 -0.0000663785988295282
vn 0.9999999985729713 -0.000028057900595718984 -0.00004546219854880131
vn 0.9999999985729713 -0.000028057900595718984 -0.00004546219854880131
vn 0.9999999985729713 -0.000028057900595718984 -0.00004546219854880131
vn 0.9999999519074148 0.00030039000903546345 -0.0000771427957956312
vn 0.9999999519074148 0.00030039000903546345 -0.0000771427957956312
vn 0.9999999519074148 0.00030039000903546345 -0.0000771427957956312
vn 0.999999992956637 0.00011637400084397953 -0.000023319900555547643
vn 0.999999992956637 0.00011637400084397953 -0.000023319900555547643
vn 0.999999992956637 0.00011637400084397953 -0.000023319900555547643
vn 0.9999999567124095 -0.00018952698465024163 -0.00022506599274298614
vn 0.9999999567124095 -0.00018952698465024163 -0.00022506599274298614
vn 0.9999999567124095 -0.00018952698465024163 -0.00022506599274298614
vn -0.9999996019974027 -0.00055585697896529 -0.0006978739536457535
vn -0.9999996019974027 -0.00055585697896529 -0.0006978739536457535
vn -0.9999996019974027 -0.00055585697896529 -0.0006978739536457535
vn -0.9999999174313693 0.0003772519616856703 0.00015105698201835942
vn -0.9999999174313693 0.0003772519616856703 0.00015105698201835942
vn -0.9999999174313693 0.0003772519616856703 0.00015105698201835942
vn -0.9999999925153652 0.00012165399584669591 0.000013022099567784037
vn -0.9999999925153652 0.00012165399584669591 0.000013022099567784037
vn -0.9999999925153652 0.00012165399584669591 0.000013022099567784037
vn -0.9999998666190947 -0.0004443649314234504 0.00026325197168084293
vn -0.9999998666190947 -0.0004443649314234504 0.00026325197168084293
vn -0.9999998666190947 -0.0004443649314234504 0.00026325197168084293
vn -0.9999999988030268 -0.000048927300609291224 -2.568199871911955e-7
vn -0.9999999988030268 -0.000048927300609291224 -2.568199871911955e-7
vn -0.9999999988030268 -0.000048927300609291224 -2.568199871911955e-7
vn -0.9999999477354098 0.00025453401217801966 0.00019935298915595327
vn -0.9999999477354098 0.00025453401217801966 0.00019935298915595327
vn -0.9999999477354098 0.00025453401217801966 0.00019935298915595327
vn -1 0 0
vn -1 0 0
vn -1 0 0
vn -0.9999999850402759 0.00016501499093080286 0.000051860398477383477
vn -0.9999999850402759 0.00016501499093080286 0.000051860398477383477
vn -0.9999999850402759 0.00016501499093080286 0.000051860398477383477
vn -0.9999999984242653 0.000018465500004829492 -0.000053014100474821155
vn -0.9999999984242653 0.000018465500004829492 -0.000053014100474821155
vn -0.9999999984242653 0.000018465500004829492 -0.000053014100474821155
vn -0.9999968281760426 -0.0017918938309094538 0.001769958856251104
vn -0.9999968281760426 -0.0017918938309094538 0.001769958856251104
vn -0.9999968281760426 -0.0017918938309094538 0.001769958856251104
vn -0.9999996106553443 0.0006686810124881866 -0.0005758080093583172
vn -0.9999996106553443 0.0006686810124881866 -0.0005758080093583172
vn -0.9999996106553443 0.0006686810124881866 -0.0005758080093583172
vn -0.999999698789022 0.0006133839468476301 0.00047558595391190795
vn -0.999999698789022 0.0006133839468476301 0.00047558595391190795
vn -0.999999698789022 0.0006133839468476301 0.00047558595391190795
vn -0.999999999917123 0.000012376000085052735 0.0000035480400126077144
vn -0.999999999917123 0.000012376000085052735 0.0000035480400126077144
vn -0.999999999917123 0.000012376000085052735 0.0000035480400126077144
vn -0.9999999937249318 -0.0000852864026560979 0.00007263859833877107
vn -0.9999999937249318 -0.0000852864026560979 0.00007263859833877107
vn -0.9999999937249318 -0.0000852864026560979 0.00007263859833877107
vn -0.9999999985729713 -0.000028057900595718984 -0.00004546219854880131
vn -0.9999999985729713 -0.000028057900595718984 -0.00004546219854880131
vn -0.9999999985729713 -0.000028057900595718984 -0.00004546219854880131
vn -0.9999999565602441 -0.0001903269907259289 -0.00022506698223899042
vn -0.9999999565602441 -0.0001903269907259289 -0.00022506698223899042
vn -0.9999999565602441 -0.0001903269907259289 -0.00022506698223899042
vn -0.9999999575024455 0.0002838819976565564 -0.0000663785988295282
vn -0.9999999575024455 0.0002838819976565564 -0.0000663785988295282
vn -0.9999999575024455 0.0002838819976565564 -0.0000663785988295282
vn -0.999999992956637 0.00011637400084397953 -0.000023319900555547643
vn -0.999999992956637 0.00011637400084397953 -0.000023319900555547643
vn -0.999999992956637 0.00011637400084397953 -0.000023319900555547643
vn -0.9999999992238078 -0.0000022589499604438415 -0.00003933550030199495
vn -0.9999999992238078 -0.0000022589499604438415 -0.00003933550030199495
vn -0.9999999992238078 -0.0000022589499604438415 -0.00003933550030199495
vn -0.9999999519074148 0.00030039000903546345 -0.0000771427957956312
vn -0.9999999519074148 0.00030039000903546345 -0.0000771427957956312
vn -0.9999999519074148 0.00030039000903546345 -0.0000771427957956312
f 1//1 2//2 3//3
f 4//4 5//5 6//6
f 7//7 8//8 9//9
f 10//10 11//11 12//12
f 13//13 14//14 15//15
f 16//16 17//17 18//18
f 19//19 20//20 21//21
f 22//22 23//23 24//24
f 25//25 26//26 27//27
f 28//28 29//29 30//30
f 31//31 32//32 33//33
f 34//34 35//35 36//36
f 37//37 38//38 39//39
f 40//40 41//41 42//42
f 43//43 44//44 45//45
f 46//46 47//47 48//48
f 49//49 50//50 51//51
f 52//52 53//53 54//54
f 55//55 56//56 57//57
f 58//58 59//59 60//60
f 61//61 62//62 63//63
f 64//64 65//65 66//66
f 67//67 68//68 69//69
f 70//70 71//71 72//72
f 73//73 74//74 75//75
f 76//76 77//77 78//78
f 79//79 80//80 81//81
f 82//82 83//83 84//84
f 85//85 86//86 87//87
f 88//88 89//89 90//90
f 91//91 92//92 93//93
f 94//94 95//95 96//96
f 97//97 98//98 99//99
f 100//100 101//101 102//102
f 103//103 104//104 105//105
f 106//106 107//107 108//108
f 109//109 110//110 111//111
f 112//112 113//113 114//114
f 115//115 116//116 117//117
f 118//118 119//119 120//120
f 121//121 122//122 123//123
f 124//124 125//125 126//126
