o node8
usemtl Union_001_001_002_001
v 0.11331850290298462 0.07165694236755371 -0.001125919632613659
v 0.113885298371315 0.07131022214889526 -0.0006084395572543144
v 0.11375010013580322 0.07138609141111374 -0.00148771982640028
v 0.11331850290298462 0.07165694236755371 -0.001125919632613659
v 0.1130807027220726 0.07180482149124146 -0.0007535098120570183
v 0.11373809725046158 0.07140356302261353 -0.0003998195752501488
v 0.11331850290298462 0.07165694236755371 -0.001125919632613659
v 0.11373809725046158 0.07140356302261353 -0.0003998195752501488
v 0.113885298371315 0.07131022214889526 -0.0006084395572543144
v 0.11517950147390366 0.07045876234769821 -0.00020323973149061203
v 0.1151982992887497 0.07044606655836105 0.00008601974695920944
v 0.11591450124979019 0.06994175165891647 -0.0002410896122455597
v 0.11517950147390366 0.07045876234769821 -0.00020323973149061203
v 0.11591450124979019 0.06994175165891647 -0.0002410896122455597
v 0.11575309932231903 0.07005404680967331 -0.0007707998156547546
v 0.1150674968957901 0.07053440064191818 -0.00048212986439466476
v 0.11517950147390366 0.07045876234769821 -0.00020323973149061203
v 0.11575309932231903 0.07005404680967331 -0.0007707998156547546
v 0.1154974028468132 0.07023190706968307 -0.0011593000963330269
v 0.1150674968957901 0.07053440064191818 -0.00048212986439466476
v 0.11575309932231903 0.07005404680967331 -0.0007707998156547546
v 0.11485370248556137 0.07067810744047165 -0.0007140599191188812
v 0.1150674968957901 0.07053440064191818 -0.00048212986439466476
v 0.1154974028468132 0.07023190706968307 -0.0011593000963330269
v 0.11522819846868515 0.0704161524772644 -0.0013940902426838875
v 0.11485370248556137 0.07067810744047165 -0.0007140599191188812
v 0.1154974028468132 0.07023190706968307 -0.0011593000963330269
v 0.11482930183410645 0.07068496197462082 -0.0016010301187634468
v 0.11485370248556137 0.07067810744047165 -0.0007140599191188812
v 0.11522819846868515 0.0704161524772644 -0.0013940902426838875
v 0.11482930183410645 0.07068496197462082 -0.0016010301187634468
v 0.11456070095300674 0.0708722397685051 -0.0008421503007411957
v 0.11485370248556137 0.07067810744047165 -0.0007140599191188812
v 0.11427950114011765 0.07104711979627609 -0.0016472302377223969
v 0.11431720107793808 0.07103192061185837 -0.0008414899930357933
v 0.11456070095300674 0.0708722397685051 -0.0008421503007411957
v 0.11427950114011765 0.07104711979627609 -0.0016472302377223969
v 0.11456070095300674 0.0708722397685051 -0.0008421503007411957
v 0.11482930183410645 0.07068496197462082 -0.0016010301187634468
v 0.11427950114011765 0.07104711979627609 -0.0016472302377223969
v 0.11407940089702606 0.07118593901395798 -0.0007653804495930672
v 0.11431720107793808 0.07103192061185837 -0.0008414899930357933
v 0.11375010013580322 0.07138609141111374 -0.00148771982640028
v 0.11407940089702606 0.07118593901395798 -0.0007653804495930672
v 0.11427950114011765 0.07104711979627609 -0.0016472302377223969
v 0.11292240023612976 0.07190161198377609 -0.00022333022207021713
v 0.11365240067243576 0.07145792245864868 -0.00008754990994930267
v 0.11373809725046158 0.07140356302261353 -0.0003998195752501488
v 0.1130807027220726 0.07180482149124146 -0.0007535098120570183
v 0.11292240023612976 0.07190161198377609 -0.00022333022207021713
v 0.11373809725046158 0.07140356302261353 -0.0003998195752501488
v 0.11375010013580322 0.07138609141111374 -0.00148771982640028
v 0.113885298371315 0.07131022214889526 -0.0006084395572543144
v 0.11407940089702606 0.07118593901395798 -0.0007653804495930672
v 0.11414600163698196 0.07114303112030029 0.0007966198027133942
v 0.11351989954710007 0.07153213024139404 0.0013237101957201958
v 0.11400769650936127 0.07122229784727097 0.0015970496460795403
v 0.11382649838924408 0.07134740799665451 0.0005544498562812805
v 0.11351989954710007 0.07153213024139404 0.0013237101957201958
v 0.11414600163698196 0.07114303112030029 0.0007966198027133942
v 0.1132832020521164 0.07167959213256836 0.0010760491713881493
v 0.11351989954710007 0.07153213024139404 0.0013237101957201958
v 0.11382649838924408 0.07134740799665451 0.0005544498562812805
v 0.11309420317411423 0.07179629057645798 0.0007825596258044243
v 0.1132832020521164 0.07167959213256836 0.0010760491713881493
v 0.11382649838924408 0.07134740799665451 0.0005544498562812805
v 0.11309420317411423 0.07179629057645798 0.0007825596258044243
v 0.11382649838924408 0.07134740799665451 0.0005544498562812805
v 0.1136711984872818 0.07144606113433838 0.00020343996584415436
v 0.11294610053300858 0.07188688963651657 0.00033957045525312424
v 0.11309420317411423 0.07179629057645798 0.0007825596258044243
v 0.1136711984872818 0.07144606113433838 0.00020343996584415436
v 0.11294610053300858 0.07188688963651657 0.00033957045525312424
v 0.1136711984872818 0.07144606113433838 0.00020343996584415436
v 0.11365240067243576 0.07145792245864868 -0.00008754990994930267
v 0.11292240023612976 0.07190161198377609 -0.00022333022207021713
v 0.11294610053300858 0.07188688963651657 0.00033957045525312424
v 0.11365240067243576 0.07145792245864868 -0.00008754990994930267
v 0.1149125024676323 0.07063852995634079 0.0006666900590062141
v 0.11531870067119598 0.07035499066114426 0.0013300301507115364
v 0.11561580002307892 0.07015006989240646 0.001007390208542347
v 0.11511450260877609 0.07050257176160812 0.000396139919757843
v 0.1149125024676323 0.07063852995634079 0.0006666900590062141
v 0.11561580002307892 0.07015006989240646 0.001007390208542347
v 0.1149125024676323 0.07063852995634079 0.0006666900590062141
v 0.11496040225028992 0.07059699296951294 0.0015453798696398735
v 0.11531870067119598 0.07035499066114426 0.0013300301507115364
v 0.11511450260877609 0.07050257176160812 0.000396139919757843
v 0.11561580002307892 0.07015006989240646 0.001007390208542347
v 0.11581719666719437 0.07000941038131714 0.0006165597587823868
v 0.11462470144033432 0.0708300992846489 0.0008263709023594856
v 0.11455760151147842 0.07086527347564697 0.0016479594632983208
v 0.11496040225028992 0.07059699296951294 0.0015453798696398735
v 0.11462470144033432 0.0708300992846489 0.0008263709023594856
v 0.11496040225028992 0.07059699296951294 0.0015453798696398735
v 0.1149125024676323 0.07063852995634079 0.0006666900590062141
v 0.1151982992887497 0.07044606655836105 0.00008601974695920944
v 0.11581719666719437 0.07000941038131714 0.0006165597587823868
v 0.11590850353240967 0.06994563341140747 0.00023335963487625122
v 0.1151982992887497 0.07044606655836105 0.00008601974695920944
v 0.11511450260877609 0.07050257176160812 0.000396139919757843
v 0.11581719666719437 0.07000941038131714 0.0006165597587823868
v 0.1151982992887497 0.07044606655836105 0.00008601974695920944
v 0.11590850353240967 0.06994563341140747 0.00023335963487625122
v 0.11591450124979019 0.06994175165891647 -0.0002410896122455597
v 0.11438360065221786 0.07098858803510666 0.0008487207815051079
v 0.11400769650936127 0.07122229784727097 0.0015970496460795403
v 0.11455760151147842 0.07086527347564697 0.0016479594632983208
v 0.11438360065221786 0.07098858803510666 0.0008487207815051079
v 0.11455760151147842 0.07086527347564697 0.0016479594632983208
v 0.11462470144033432 0.0708300992846489 0.0008263709023594856
v 0.11414600163698196 0.07114303112030029 0.0007966198027133942
v 0.11400769650936127 0.07122229784727097 0.0015970496460795403
v 0.11438360065221786 0.07098858803510666 0.0008487207815051079
vn 0.5269070315836517 0.849888272900868 -0.007674871548377952
vn 0.5269070315836517 0.849888272900868 -0.007674871548377952
vn 0.5269070315836517 0.849888272900868 -0.007674871548377952
vn 0.5228165889088986 0.8524324738951954 -0.004657446787755696
vn 0.5228165889088986 0.8524324738951954 -0.004657446787755696
vn 0.5228165889088986 0.8524324738951954 -0.004657446787755696
vn 0.5272148936220521 0.8496928357885591 -0.008157251539883465
vn 0.5272148936220521 0.8496928357885591 -0.008157251539883465
vn 0.5272148936220521 0.8496928357885591 -0.008157251539883465
vn 0.5752685734678653 0.8179632522841226 -0.001478611858497304
vn 0.5752685734678653 0.8179632522841226 -0.001478611858497304
vn 0.5752685734678653 0.8179632522841226 -0.001478611858497304
vn 0.5752679058268215 0.8179628776079692 -0.0018887511518905374
vn 0.5752679058268215 0.8179628776079692 -0.0018887511518905374
vn 0.5752679058268215 0.8179628776079692 -0.0018887511518905374
vn 0.571770792185327 0.8203824233452536 -0.007130264366260515
vn 0.571770792185327 0.8203824233452536 -0.007130264366260515
vn 0.571770792185327 0.8203824233452536 -0.007130264366260515
vn 0.5731992879401689 0.8194132076841227 -0.0021380780387844633
vn 0.5731992879401689 0.8194132076841227 -0.0021380780387844633
vn 0.5731992879401689 0.8194132076841227 -0.0021380780387844633
vn 0.5651048500206173 0.8249613757065641 -0.009758948483761153
vn 0.5651048500206173 0.8249613757065641 -0.009758948483761153
vn 0.5651048500206173 0.8249613757065641 -0.009758948483761153
vn 0.5675300917398984 0.8233398143411491 -0.004598379104040003
vn 0.5675300917398984 0.8233398143411491 -0.004598379104040003
vn 0.5675300917398984 0.8233398143411491 -0.004598379104040003
vn 0.5620481916600648 0.8270547910505206 -0.00906657884931189
vn 0.5620481916600648 0.8270547910505206 -0.00906657884931189
vn 0.5620481916600648 0.8270547910505206 -0.00906657884931189
vn 0.5549721628279901 0.8318219646692754 -0.008838415003250569
vn 0.5549721628279901 0.8318219646692754 -0.008838415003250569
vn 0.5549721628279901 0.8318219646692754 -0.008838415003250569
vn 0.5483260649966889 0.8362061227612784 -0.009891749177818437
vn 0.5483260649966889 0.8362061227612784 -0.009891749177818437
vn 0.5483260649966889 0.8362061227612784 -0.009891749177818437
vn 0.550702683187459 0.8346283912278499 -0.011045509791061255
vn 0.550702683187459 0.8346283912278499 -0.011045509791061255
vn 0.550702683187459 0.8346283912278499 -0.011045509791061255
vn 0.5414383824752802 0.8406869485417845 -0.009483276546375959
vn 0.5414383824752802 0.8406869485417845 -0.009483276546375959
vn 0.5414383824752802 0.8406869485417845 -0.009483276546375959
vn 0.5368518044689259 0.8436050714705116 -0.010982869738423684
vn 0.5368518044689259 0.8436050714705116 -0.010982869738423684
vn 0.5368518044689259 0.8436050714705116 -0.010982869738423684
vn 0.520181414400171 0.8540352532609626 -0.005923031328736274
vn 0.520181414400171 0.8540352532609626 -0.005923031328736274
vn 0.520181414400171 0.8540352532609626 -0.005923031328736274
vn 0.5210886643715653 0.8535025195260687 -0.00023027399059998726
vn 0.5210886643715653 0.8535025195260687 -0.00023027399059998726
vn 0.5210886643715653 0.8535025195260687 -0.00023027399059998726
vn 0.533959459085186 0.8454603722994067 -0.009168147293987012
vn 0.533959459085186 0.8454603722994067 -0.009168147293987012
vn 0.533959459085186 0.8454603722994067 -0.009168147293987012
vn 0.5328272579343444 0.8461836573671465 0.008266269226626637
vn 0.5328272579343444 0.8461836573671465 0.008266269226626637
vn 0.5328272579343444 0.8461836573671465 0.008266269226626637
vn 0.5336292990465044 0.8456634296319928 0.009650646724031212
vn 0.5336292990465044 0.8456634296319928 0.009650646724031212
vn 0.5336292990465044 0.8456634296319928 0.009650646724031212
vn 0.5250780032066525 0.8510399534838218 0.004907965237136224
vn 0.5250780032066525 0.8510399534838218 0.004907965237136224
vn 0.5250780032066525 0.8510399534838218 0.004907965237136224
vn 0.5230696807178068 0.8522874728923772 0.0020427100864354067
vn 0.5230696807178068 0.8522874728923772 0.0020427100864354067
vn 0.5230696807178068 0.8522874728923772 0.0020427100864354067
vn 0.5242589557219081 0.8515268908635818 0.007382511874429584
vn 0.5242589557219081 0.8515268908635818 0.007382511874429584
vn 0.5242589557219081 0.8515268908635818 0.007382511874429584
vn 0.5196325752155339 0.8543892458710078 0.0010016560502832817
vn 0.5196325752155339 0.8543892458710078 0.0010016560502832817
vn 0.5196325752155339 0.8543892458710078 0.0010016560502832817
vn 0.519659096737664 0.8543727908054563 0.0012480020397579714
vn 0.519659096737664 0.8543727908054563 0.0012480020397579714
vn 0.519659096737664 0.8543727908054563 0.0012480020397579714
vn 0.5193107195011137 0.8545853605636519 0.00048797697573589593
vn 0.5193107195011137 0.8545853605636519 0.00048797697573589593
vn 0.5193107195011137 0.8545853605636519 0.00048797697573589593
vn 0.5696280535485904 0.821898749299034 0.002515255678498193
vn 0.5696280535485904 0.821898749299034 0.002515255678498193
vn 0.5696280535485904 0.821898749299034 0.002515255678498193
vn 0.5672577615794254 0.8234835857657425 0.009665190235827235
vn 0.5672577615794254 0.8234835857657425 0.009665190235827235
vn 0.5672577615794254 0.8234835857657425 0.009665190235827235
vn 0.5631532709463466 0.8263102829124533 0.008349238023447957
vn 0.5631532709463466 0.8263102829124533 0.008349238023447957
vn 0.5631532709463466 0.8263102829124533 0.008349238023447957
vn 0.5741855609326366 0.8187242303158695 0.0012555119117426841
vn 0.5741855609326366 0.8187242303158695 0.0012555119117426841
vn 0.5741855609326366 0.8187242303158695 0.0012555119117426841
vn 0.5560408840139931 0.8310966505894428 0.009843408146921945
vn 0.5560408840139931 0.8310966505894428 0.009843408146921945
vn 0.5560408840139931 0.8310966505894428 0.009843408146921945
vn 0.5574761100729959 0.8301457863489252 0.008852124321627932
vn 0.5574761100729959 0.8301457863489252 0.008852124321627932
vn 0.5574761100729959 0.8301457863489252 0.008852124321627932
vn 0.575855626536241 0.8175506191407242 0.0011324880450045655
vn 0.575855626536241 0.8175506191407242 0.0011324880450045655
vn 0.575855626536241 0.8175506191407242 0.0011324880450045655
vn 0.5732527764607058 0.819359451796347 0.005598484802328506
vn 0.5732527764607058 0.819359451796347 0.005598484802328506
vn 0.5732527764607058 0.819359451796347 0.005598484802328506
vn 0.5759295136380391 0.8174991481671933 0.0005814349189196098
vn 0.5759295136380391 0.8174991481671933 0.0005814349189196098
vn 0.5759295136380391 0.8174991481671933 0.0005814349189196098
vn 0.5437913976215231 0.8391471859159481 0.011086759769003716
vn 0.5437913976215231 0.8391471859159481 0.011086759769003716
vn 0.5437913976215231 0.8391471859159481 0.011086759769003716
vn 0.5498498803274694 0.8352133821681509 0.009149609341715612
vn 0.5498498803274694 0.8352133821681509 0.009149609341715612
vn 0.5498498803274694 0.8352133821681509 0.009149609341715612
vn 0.543303497002657 0.8394672983701421 0.010768709849320553
vn 0.543303497002657 0.8394672983701421 0.010768709849320553
vn 0.543303497002657 0.8394672983701421 0.010768709849320553
f 1//1 2//2 3//3
f 4//4 5//5 6//6
f 7//7 8//8 9//9
f 10//10 11//11 12//12
f 13//13 14//14 15//15
f 16//16 17//17 18//18
f 19//19 20//20 21//21
f 22//22 23//23 24//24
f 25//25 26//26 27//27
f 28//28 29//29 30//30
f 31//31 32//32 33//33
f 34//34 35//35 36//36
f 37//37 38//38 39//39
f 40//40 41//41 42//42
f 43//43 44//44 45//45
f 46//46 47//47 48//48
f 49//49 50//50 51//51
f 52//52 53//53 54//54
f 55//55 56//56 57//57
f 58//58 59//59 60//60
f 61//61 62//62 63//63
f 64//64 65//65 66//66
f 67//67 68//68 69//69
f 70//70 71//71 72//72
f 73//73 74//74 75//75
f 76//76 77//77 78//78
f 79//79 80//80 81//81
f 82//82 83//83 84//84
f 85//85 86//86 87//87
f 88//88 89//89 90//90
f 91//91 92//92 93//93
f 94//94 95//95 96//96
f 97//97 98//98 99//99
f 100//100 101//101 102//102
f 103//103 104//104 105//105
f 106//106 107//107 108//108
f 109//109 110//110 111//111
f 112//112 113//113 114//114
