o node7
usemtl Face539_002_001_002_001
v 0.002737819915637374 -0.008035539649426937 0.05308598652482033
v -0.007368266116827726 -0.004631816875189543 0.05201542750000954
v 0.0013943309895694256 -0.007988153956830502 0.052959147840738297
v 0.0012636779574677348 0.010983879677951336 0.05294651910662651
v -0.0027409789618104696 0.008988142013549805 0.05253273621201515
v -6.96637016517343e-7 0.009704886935651302 0.05282134935259819
v -0.004266380798071623 -0.003127932082861662 0.05236024037003517
v -0.0070503950119018555 0.014738500118255615 0.0520218126475811
v -0.005922377109527588 -0.003263533115386963 0.052168380469083786
v 0.013806279748678207 0.00876986887305975 0.0538107194006443
v 0.012168100103735924 0.010939300060272217 0.05372269079089165
v 0.012995660305023193 -0.00994563102722168 0.05377340689301491
v 0.010868430137634277 -0.0122298002243042 0.05365521088242531
v 0.008741497062146664 0.002232312923297286 0.05354518070816994
v 0.00902330782264471 -0.013626029714941978 0.053562406450510025
v 0.01145785953849554 0.003640413051471114 0.053701650351285934
v 0.008741497062146664 0.002232312923297286 0.05354518070816994
v 0.010868430137634277 -0.0122298002243042 0.05365521088242531
v -0.005922377109527588 -0.003263533115386963 0.052168380469083786
v -0.0094221830368042 0.013322349637746811 0.05170596018433571
v -0.009778796695172787 -0.0020101070404052734 0.05165541544556618
v -0.0054025049321353436 0.009901522658765316 0.0522242896258831
v -0.0070503950119018555 0.014738500118255615 0.0520218126475811
v -0.004266380798071623 -0.003127932082861662 0.05236024037003517
v 0.00435715913772583 0.015766380354762077 0.053226541727781296
v 0.0012178419856354594 0.01630491018295288 0.05293590947985649
v 0.0039020180702209473 0.011685900390148163 0.05319173261523247
v 0.015818709507584572 -0.004160820972174406 0.05389660969376564
v 0.015745220705866814 0.00452309800311923 0.05389608070254326
v 0.014818370342254639 -0.006981492042541504 0.05385637655854225
v -0.0027409789618104696 0.008988142013549805 0.05253273621201515
v -0.0054025049321353436 0.009901522658765316 0.0522242896258831
v -0.004266380798071623 -0.003127932082861662 0.05236024037003517
v 0.005169569980353117 -0.015508649870753288 0.053292158991098404
v 0.0038456320762634277 -0.012869169935584068 0.05318409577012062
v 0.0022469160612672567 -0.016209419816732407 0.053040508180856705
v 0.0038456320762634277 -0.012869169935584068 0.05318409577012062
v 0.007171868812292814 0.0034192800521850586 0.05346949025988579
v 0.002737819915637374 -0.008035539649426937 0.05308598652482033
v 0.012995660305023193 -0.00994563102722168 0.05377340689301491
v 0.01145785953849554 0.003640413051471114 0.053701650351285934
v 0.010868430137634277 -0.0122298002243042 0.05365521088242531
v 0.015745220705866814 0.00452309800311923 0.05389608070254326
v 0.014758110046386719 0.0070393080823123455 0.05385589972138405
v 0.014818370342254639 -0.006981492042541504 0.05385637655854225
v 0.0039020180702209473 0.011685900390148163 0.05319173261523247
v 0.0012178419856354594 0.01630491018295288 0.05293590947985649
v 0.0012636779574677348 0.010983879677951336 0.05294651910662651
v -0.015043020248413086 -0.006268202792853117 0.05079400911927223
v -0.015814660117030144 0.004043281078338623 0.05064326897263527
v -0.015781700611114502 -0.004116833209991455 0.05064434930682182
v 0.014758110046386719 0.0070393080823123455 0.05385589972138405
v 0.012995660305023193 -0.00994563102722168 0.05377340689301491
v 0.014818370342254639 -0.006981492042541504 0.05385637655854225
v -0.007368266116827726 -0.004631816875189543 0.05201542750000954
v -0.011037290096282959 -0.005772947799414396 0.05147809907793999
v -0.006831287872046232 -0.014856330119073391 0.05204946920275688
v 0.01145785953849554 0.003640413051471114 0.053701650351285934
v 0.00987017061561346 0.013049540109932423 0.05361415073275566
v 0.00736081600189209 0.005020915996283293 0.05346013233065605
v -0.014934830367565155 0.006521642208099365 0.05081546679139137
v -0.015814660117030144 0.004043281078338623 0.05064326897263527
v -0.015043020248413086 -0.006268202792853117 0.05079400911927223
v 0.007171868812292814 0.0034192800521850586 0.05346949025988579
v -0.000583797984290868 -0.0013391970423981547 0.05276210233569145
v 0.002737819915637374 -0.008035539649426937 0.05308598652482033
v -0.006831287872046232 -0.014856330119073391 0.05204946920275688
v -0.011037290096282959 -0.005772947799414396 0.05147809907793999
v -0.009864985011518002 -0.013009250164031982 0.05164415016770363
v -0.015814660117030144 0.004043281078338623 0.05064326897263527
v -0.016226639971137047 -0.001504241954535246 0.05056065693497658
v -0.015781700611114502 -0.004116833209991455 0.05064434930682182
v 0.012168100103735924 0.010939300060272217 0.05372269079089165
v 0.01145785953849554 0.003640413051471114 0.053701650351285934
v 0.012995660305023193 -0.00994563102722168 0.05377340689301491
v 0.0012636779574677348 0.010983879677951336 0.05294651910662651
v 0.0012178419856354594 0.01630491018295288 0.05293590947985649
v -0.0013325209729373455 0.011926770210266113 0.05268651619553566
v -0.0070503950119018555 0.014738500118255615 0.0520218126475811
v -0.0094221830368042 0.013322349637746811 0.05170596018433571
v -0.005922377109527588 -0.003263533115386963 0.052168380469083786
v 0.007221281062811613 0.014679670333862305 0.05344599857926369
v 0.007171868812292814 0.0034192800521850586 0.05346949025988579
v 0.00736081600189209 0.005020915996283293 0.05346013233065605
v -0.000583797984290868 -0.0013391970423981547 0.05276210233569145
v 0.007171868812292814 0.0034192800521850586 0.05346949025988579
v -0.002344786887988448 -0.0012972949771210551 0.05257530137896538
v -0.002344786887988448 -0.0012972949771210551 0.05257530137896538
v -0.004266380798071623 -0.003127932082861662 0.05236024037003517
v -0.000583797984290868 -0.0013391970423981547 0.05276210233569145
v 0.012168100103735924 0.010939300060272217 0.05372269079089165
v 0.00987017061561346 0.013049540109932423 0.05361415073275566
v 0.01145785953849554 0.003640413051471114 0.053701650351285934
v -0.015814660117030144 0.004043281078338623 0.05064326897263527
v -0.016274629160761833 0.0009040880249813199 0.05055868998169899
v -0.016226639971137047 -0.001504241954535246 0.05056065693497658
v 0.00016197300283238292 -0.01164788007736206 0.052838269621133804
v -0.0007952110026963055 -0.016314739361405373 0.05274039879441261
v 0.0022469160612672567 -0.016209419816732407 0.053040508180856705
v 0.007321000099182129 -0.01462106965482235 0.05345207825303078
v 0.007171868812292814 0.0034192800521850586 0.05346949025988579
v 0.005169569980353117 -0.015508649870753288 0.053292158991098404
v 0.007221281062811613 0.014679670333862305 0.05344599857926369
v 0.00588303804397583 0.007792949210852385 0.053347889333963394
v 0.007171868812292814 0.0034192800521850586 0.05346949025988579
v 0.0012178419856354594 0.01630491018295288 0.05293590947985649
v -0.0015164610231295228 0.016263779252767563 0.05266411229968071
v -0.0013325209729373455 0.011926770210266113 0.05268651619553566
v 0.0038456320762634277 -0.012869169935584068 0.05318409577012062
v 0.00016197300283238292 -0.01164788007736206 0.052838269621133804
v 0.0022469160612672567 -0.016209419816732407 0.053040508180856705
v 0.016285469755530357 0.0015195009764283895 0.05391359701752663
v 0.015818709507584572 -0.004160820972174406 0.05389660969376564
v 0.016316529363393784 -0.0013396140420809388 0.053914669901132584
v 0.00588303804397583 0.007792949210852385 0.053347889333963394
v 0.001990616088733077 0.005803108215332031 0.05301976576447487
v 0.007171868812292814 0.0034192800521850586 0.05346949025988579
v -0.0015164610231295228 0.016263779252767563 0.05266411229968071
v -0.004149376880377531 0.015806009992957115 0.052372049540281296
v -0.0013325209729373455 0.011926770210266113 0.05268651619553566
v -0.009864985011518002 -0.013009250164031982 0.05164415016770363
v -0.011037290096282959 -0.005772947799414396 0.05147809907793999
v -0.01215611957013607 -0.01088649034500122 0.051298271864652634
v -0.005922377109527588 -0.003263533115386963 0.052168380469083786
v -0.007368266116827726 -0.004631816875189543 0.05201542750000954
v -0.004266380798071623 -0.003127932082861662 0.05236024037003517
v 0.008741497062146664 0.002232312923297286 0.05354518070816994
v 0.00736081600189209 0.005020915996283293 0.05346013233065605
v 0.00902330782264471 -0.013626029714941978 0.053562406450510025
v 0.00902330782264471 -0.013626029714941978 0.053562406450510025
v 0.00736081600189209 0.005020915996283293 0.05346013233065605
v 0.007321000099182129 -0.01462106965482235 0.05345207825303078
v -0.0013325209729373455 0.011926770210266113 0.05268651619553566
v -0.004149376880377531 0.015806009992957115 0.052372049540281296
v -0.0054025049321353436 0.009901522658765316 0.0522242896258831
v -0.011037290096282959 -0.005772947799414396 0.05147809907793999
v -0.007368266116827726 -0.004631816875189543 0.05201542750000954
v -0.005922377109527588 -0.003263533115386963 0.052168380469083786
v -0.013924119994044304 0.008498728275299072 0.0509997121989727
v -0.014934830367565155 0.006521642208099365 0.05081546679139137
v -0.014002439565956593 -0.00837785005569458 0.05098569765686989
v 0.014758110046386719 0.0070393080823123455 0.05385589972138405
v 0.013806279748678207 0.00876986887305975 0.0538107194006443
v 0.012995660305023193 -0.00994563102722168 0.05377340689301491
v 0.00736081600189209 0.005020915996283293 0.05346013233065605
v 0.007171868812292814 0.0034192800521850586 0.05346949025988579
v 0.007321000099182129 -0.01462106965482235 0.05345207825303078
v 0.007171868812292814 0.0034192800521850586 0.05346949025988579
v 0.001990616088733077 0.005803108215332031 0.05301976576447487
v 0.00010534899774938822 0.005805552005767822 0.05283403769135475
v -0.004149376880377531 0.015806009992957115 0.052372049540281296
v -0.0070503950119018555 0.014738500118255615 0.0520218126475811
v -0.0054025049321353436 0.009901522658765316 0.0522242896258831
v -0.007368266116827726 -0.004631816875189543 0.05201542750000954
v -0.0034964079968631268 -0.01596366986632347 0.05244697257876396
v -0.0007952110026963055 -0.016314739361405373 0.05274039879441261
v 0.007171868812292814 0.0034192800521850586 0.05346949025988579
v 0.0038456320762634277 -0.012869169935584068 0.05318409577012062
v 0.005169569980353117 -0.015508649870753288 0.053292158991098404
v -0.0094221830368042 0.013322349637746811 0.05170596018433571
v -0.011037290096282959 -0.005772947799414396 0.05147809907793999
v -0.009778796695172787 -0.0020101070404052734 0.05165541544556618
v 0.016285469755530357 0.0015195009764283895 0.05391359701752663
v 0.015745220705866814 0.00452309800311923 0.05389608070254326
v 0.015818709507584572 -0.004160820972174406 0.05389660969376564
v 0.00987017061561346 0.013049540109932423 0.05361415073275566
v 0.007221281062811613 0.014679670333862305 0.05344599857926369
v 0.00736081600189209 0.005020915996283293 0.05346013233065605
v 0.00010534899774938822 0.005805552005767822 0.05283403769135475
v -0.0027409789618104696 0.008988142013549805 0.05253273621201515
v -0.002344786887988448 -0.0012972949771210551 0.05257530137896538
v -0.01182383019477129 0.011272190138697624 0.051350902765989304
v -0.01215611957013607 -0.01088649034500122 0.051298271864652634
v -0.011037290096282959 -0.005772947799414396 0.05147809907793999
v -0.0094221830368042 0.013322349637746811 0.05170596018433571
v -0.01182383019477129 0.011272190138697624 0.051350902765989304
v -0.011037290096282959 -0.005772947799414396 0.05147809907793999
v 0.007221281062811613 0.014679670333862305 0.05344599857926369
v 0.00435715913772583 0.015766380354762077 0.053226541727781296
v 0.00588303804397583 0.007792949210852385 0.053347889333963394
v -6.96637016517343e-7 0.009704886935651302 0.05282134935259819
v 0.00010534899774938822 0.005805552005767822 0.05283403769135475
v 0.001990616088733077 0.005803108215332031 0.05301976576447487
v -6.96637016517343e-7 0.009704886935651302 0.05282134935259819
v -0.0027409789618104696 0.008988142013549805 0.05253273621201515
v 0.00010534899774938822 0.005805552005767822 0.05283403769135475
v -0.0027409789618104696 0.008988142013549805 0.05253273621201515
v -0.004266380798071623 -0.003127932082861662 0.05236024037003517
v -0.002344786887988448 -0.0012972949771210551 0.05257530137896538
v 0.00435715913772583 0.015766380354762077 0.053226541727781296
v 0.0039020180702209473 0.011685900390148163 0.05319173261523247
v 0.00588303804397583 0.007792949210852385 0.053347889333963394
v 0.002737819915637374 -0.008035539649426937 0.05308598652482033
v 0.0013943309895694256 -0.007988153956830502 0.052959147840738297
v 0.0038456320762634277 -0.012869169935584068 0.05318409577012062
v 0.0013943309895694256 -0.007988153956830502 0.052959147840738297
v -0.007368266116827726 -0.004631816875189543 0.05201542750000954
v 0.00016197300283238292 -0.01164788007736206 0.052838269621133804
v -0.007368266116827726 -0.004631816875189543 0.05201542750000954
v -0.006831287872046232 -0.014856330119073391 0.05204946920275688
v -0.0034964079968631268 -0.01596366986632347 0.05244697257876396
v 0.00016197300283238292 -0.01164788007736206 0.052838269621133804
v -0.007368266116827726 -0.004631816875189543 0.05201542750000954
v -0.0007952110026963055 -0.016314739361405373 0.05274039879441261
v -0.01182383019477129 0.011272190138697624 0.051350902765989304
v -0.013924119994044304 0.008498728275299072 0.0509997121989727
v -0.01215611957013607 -0.01088649034500122 0.051298271864652634
v -0.01215611957013607 -0.01088649034500122 0.051298271864652634
v -0.013924119994044304 0.008498728275299072 0.0509997121989727
v -0.014002439565956593 -0.00837785005569458 0.05098569765686989
v 0.0012636779574677348 0.010983879677951336 0.05294651910662651
v -6.96637016517343e-7 0.009704886935651302 0.05282134935259819
v 0.0039020180702209473 0.011685900390148163 0.05319173261523247
v -0.014002439565956593 -0.00837785005569458 0.05098569765686989
v -0.014934830367565155 0.006521642208099365 0.05081546679139137
v -0.015043020248413086 -0.006268202792853117 0.05079400911927223
vn -0.09259567891716601 0.038020606003743435 0.9949776247559424
vn -0.09259567891716601 0.038020606003743435 0.9949776247559424
vn -0.09259567891716601 0.038020606003743435 0.9949776247559424
vn -0.10690228346708111 0.008384702496349643 0.9942341769188844
vn -0.10690228346708111 0.008384702496349643 0.9942341769188844
vn -0.10690228346708111 0.008384702496349643 0.9942341769188844
vn -0.1151611933313253 0.0008716869477259646 0.9933464348918609
vn -0.1151611933313253 0.0008716869477259646 0.9933464348918609
vn -0.1151611933313253 0.0008716869477259646 0.9933464348918609
vn -0.05323952137411905 0.00031515799199359 0.9985817212623586
vn -0.05323952137411905 0.00031515799199359 0.9985817212623586
vn -0.05323952137411905 0.00031515799199359 0.9985817212623586
vn -0.05038194366522208 0.00018962696807488152 0.9987300054539904
vn -0.05038194366522208 0.00018962696807488152 0.9987300054539904
vn -0.05038194366522208 0.00018962696807488152 0.9987300054539904
vn -0.05709654193946414 -0.000800944005825288 0.9983683405373261
vn -0.05709654193946414 -0.000800944005825288 0.9983683405373261
vn -0.05709654193946414 -0.000800944005825288 0.9983683405373261
vn -0.13191787645069192 -0.00019951897755607874 0.9912606287273381
vn -0.13191787645069192 -0.00019951897755607874 0.9912606287273381
vn -0.13191787645069192 -0.00019951897755607874 0.9912606287273381
vn -0.12302508013178028 -0.0003731369448334621 0.9924034917448596
vn -0.12302508013178028 -0.0003731369448334621 0.9924034917448596
vn -0.12302508013178028 -0.0003731369448334621 0.9924034917448596
vn -0.09188674641172037 0.0017544619519541764 0.9957679185920417
vn -0.09188674641172037 0.0017544619519541764 0.9957679185920417
vn -0.09188674641172037 0.0017544619519541764 0.9957679185920417
vn -0.039419465468022497 -0.0002727129661549122 0.9992227135978512
vn -0.039419465468022497 -0.0002727129661549122 0.9992227135978512
vn -0.039419465468022497 -0.0002727129661549122 0.9992227135978512
vn -0.11500849548457036 0.00033671397173007947 0.9933644510400386
vn -0.11500849548457036 0.00033671397173007947 0.9933644510400386
vn -0.11500849548457036 0.00033671397173007947 0.9933644510400386
vn -0.08530967560483105 -0.0019989600118954986 0.9963524795006379
vn -0.08530967560483105 -0.0019989600118954986 0.9963524795006379
vn -0.08530967560483105 -0.0019989600118954986 0.9963524795006379
vn -0.08693349199990931 0.00029693400750827585 0.9962140732788795
vn -0.08693349199990931 0.00029693400750827585 0.9962140732788795
vn -0.08693349199990931 0.00029693400750827585 0.9962140732788795
vn -0.05451690765712197 -0.0008970779579178057 0.9985124446047943
vn -0.05451690765712197 -0.0008970779579178057 0.9985124446047943
vn -0.05451690765712197 -0.0008970779579178057 0.9985124446047943
vn -0.04104273817808629 -0.00014238900800191904 0.9991573816812922
vn -0.04104273817808629 -0.00014238900800191904 0.9991573816812922
vn -0.04104273817808629 -0.00014238900800191904 0.9991573816812922
vn -0.09285591623311484 0.0011853567660287847 0.9956788507093268
vn -0.09285591623311484 0.0011853567660287847 0.9956788507093268
vn -0.09285591623311484 0.0011853567660287847 0.9956788507093268
vn -0.20048248793510146 -0.0006800099517539501 0.9796970499178904
vn -0.20048248793510146 -0.0006800099517539501 0.9796970499178904
vn -0.20048248793510146 -0.0006800099517539501 0.9796970499178904
vn -0.045213518141445454 -0.000160351996987363 0.9989773331084695
vn -0.045213518141445454 -0.000160351996987363 0.9989773331084695
vn -0.045213518141445454 -0.000160351996987363 0.9989773331084695
vn -0.14361138765899442 -0.004247248209451782 0.9896250452657841
vn -0.14361138765899442 -0.004247248209451782 0.9896250452657841
vn -0.14361138765899442 -0.004247248209451782 0.9896250452657841
vn -0.059074806595014406 -0.0006854779050592276 0.9982533232330375
vn -0.059074806595014406 -0.0006854779050592276 0.9982533232330375
vn -0.059074806595014406 -0.0006854779050592276 0.9982533232330375
vn -0.19202788309687752 -0.000023077798850040052 0.9813894698745995
vn -0.19202788309687752 -0.000023077798850040052 0.9813894698745995
vn -0.19202788309687752 -0.000023077798850040052 0.9813894698745995
vn -0.0922838911957149 0.0023851390395872203 0.9957298803076762
vn -0.0922838911957149 0.0023851390395872203 0.9957298803076762
vn -0.0922838911957149 0.0023851390395872203 0.9957298803076762
vn -0.13157078295419536 0.0014322988797158102 0.9913057437505036
vn -0.13157078295419536 0.0014322988797158102 0.9913057437505036
vn -0.13157078295419536 0.0014322988797158102 0.9913057437505036
vn -0.1884043864066069 -0.0006309529589042383 0.9820913343885657
vn -0.1884043864066069 -0.0006309529589042383 0.9820913343885657
vn -0.1884043864066069 -0.0006309529589042383 0.9820913343885657
vn -0.038757796204106486 0.0008909169441979328 0.9992482371765283
vn -0.038757796204106486 0.0008909169441979328 0.9992482371765283
vn -0.038757796204106486 0.0008909169441979328 0.9992482371765283
vn -0.099237973183755 0.0011291500661372255 0.9950630883006908
vn -0.099237973183755 0.0011291500661372255 0.9950630883006908
vn -0.099237973183755 0.0011291500661372255 0.9950630883006908
vn -0.13189358946330335 -0.00019379598869203918 0.9912638616945543
vn -0.13189358946330335 -0.00019379598869203918 0.9912638616945543
vn -0.13189358946330335 -0.00019379598869203918 0.9912638616945543
vn 0.03308533582638998 0.0019400107433371646 0.9994506475617347
vn 0.03308533582638998 0.0019400107433371646 0.9994506475617347
vn 0.03308533582638998 0.0019400107433371646 0.9994506475617347
vn -0.10490999078942224 0.023193237657803893 0.9942112288440078
vn -0.10490999078942224 0.023193237657803893 0.9942112288440078
vn -0.10490999078942224 0.023193237657803893 0.9942112288440078
vn -0.1056239839912129 -0.005947946169600624 0.994388352678262
vn -0.1056239839912129 -0.005947946169600624 0.994388352678262
vn -0.1056239839912129 -0.005947946169600624 0.994388352678262
vn -0.04574292049957627 0.0015715359122903257 0.9989520086065425
vn -0.04574292049957627 0.0015715359122903257 0.9989520086065425
vn -0.04574292049957627 0.0015715359122903257 0.9989520086065425
vn -0.1645463974418932 -0.0024687049014668816 0.9863662547882526
vn -0.1645463974418932 -0.0024687049014668816 0.9863662547882526
vn -0.1645463974418932 -0.0024687049014668816 0.9863662547882526
vn -0.09815107311970175 -0.0007395519661745211 0.9951712515483655
vn -0.09815107311970175 -0.0007395519661745211 0.9951712515483655
vn -0.09815107311970175 -0.0007395519661745211 0.9951712515483655
vn -0.07348495041011516 -0.0015699860078652083 0.9972950903354323
vn -0.07348495041011516 -0.0015699860078652083 0.9972950903354323
vn -0.07348495041011516 -0.0015699860078652083 0.9972950903354323
vn -0.08567397420149629 0.002454458771327835 0.9963202024332644
vn -0.08567397420149629 0.002454458771327835 0.9963202024332644
vn -0.08567397420149629 0.002454458771327835 0.9963202024332644
vn -0.09892331942993468 0.0009446450404439997 0.9950946108379396
vn -0.09892331942993468 0.0009446450404439997 0.9950946108379396
vn -0.09892331942993468 0.0009446450404439997 0.9950946108379396
vn -0.09292130212022615 0.0016726248503538506 0.9956720513996521
vn -0.09292130212022615 0.0016726248503538506 0.9956720513996521
vn -0.09292130212022615 0.0016726248503538506 0.9956720513996521
vn -0.0362119570666249 -0.000017070599279850053 0.9993441318554884
vn -0.0362119570666249 -0.000017070599279850053 0.9993441318554884
vn -0.0362119570666249 -0.000017070599279850053 0.9993441318554884
vn -0.08530358848116772 0.0025648467341412465 0.9963517046472424
vn -0.08530358848116772 0.0025648467341412465 0.9963517046472424
vn -0.08530358848116772 0.0025648467341412465 0.9963517046472424
vn -0.11033159199212177 0.0004549499595820961 0.9938947292490378
vn -0.11033159199212177 0.0004549499595820961 0.9938947292490378
vn -0.11033159199212177 0.0004549499595820961 0.9938947292490378
vn -0.1508600980875024 -0.0017551770096724732 0.9885535646381
vn -0.1508600980875024 -0.0017551770096724732 0.9885535646381
vn -0.1508600980875024 -0.0017551770096724732 0.9885535646381
vn -0.11600229079936387 0.011573009128934136 0.9931815211677075
vn -0.11600229079936387 0.011573009128934136 0.9931815211677075
vn -0.11600229079936387 0.011573009128934136 0.9931815211677075
vn -0.06148396324148852 -0.000008718858981607657 0.9981080713971313
vn -0.06148396324148852 -0.000008718858981607657 0.9981080713971313
vn -0.06148396324148852 -0.000008718858981607657 0.9981080713971313
vn -0.06451260887557357 -0.00027841500613978303 0.9979168531401559
vn -0.06451260887557357 -0.00027841500613978303 0.9979168531401559
vn -0.06451260887557357 -0.00027841500613978303 0.9979168531401559
vn -0.11234138790505058 -0.0010240669256963758 0.9936691420440199
vn -0.11234138790505058 -0.0010240669256963758 0.9936691420440199
vn -0.11234138790505058 -0.0010240669256963758 0.9936691420440199
vn -0.16378249580161566 0.06301533566308702 0.9844817730868675
vn -0.16378249580161566 0.06301533566308702 0.9844817730868675
vn -0.16378249580161566 0.06301533566308702 0.9844817730868675
vn -0.17935767254943058 0.00001537689742204698 0.9837839321015576
vn -0.17935767254943058 0.00001537689742204698 0.9837839321015576
vn -0.17935767254943058 0.00001537689742204698 0.9837839321015576
vn -0.04730856021559767 0.00005752810072604009 0.9988803215705296
vn -0.04730856021559767 0.00005752810072604009 0.9988803215705296
vn -0.04730856021559767 0.00005752810072604009 0.9988803215705296
vn 0.05392348417739035 -0.0005186060466545821 0.9985449358451223
vn 0.05392348417739035 -0.0005186060466545821 0.9985449358451223
vn 0.05392348417739035 -0.0005186060466545821 0.9985449358451223
vn -0.09804165489383733 -0.02540772999712391 0.9948579200881255
vn -0.09804165489383733 -0.02540772999712391 0.9948579200881255
vn -0.09804165489383733 -0.02540772999712391 0.9948579200881255
vn -0.12009279619312208 0.0006436040377233677 0.9927624620604669
vn -0.12009279619312208 0.0006436040377233677 0.9927624620604669
vn -0.12009279619312208 0.0006436040377233677 0.9927624620604669
vn -0.10785929140097647 0.0010054700566917898 0.9941656613907184
vn -0.10785929140097647 0.0010054700566917898 0.9941656613907184
vn -0.10785929140097647 0.0010054700566917898 0.9941656613907184
vn -0.0825478435200765 -0.0006043260223246943 0.9965869196012177
vn -0.0825478435200765 -0.0006043260223246943 0.9965869196012177
vn -0.0825478435200765 -0.0006043260223246943 0.9965869196012177
vn -0.13945250059729367 -0.000020779699979035267 0.990228761269519
vn -0.13945250059729367 -0.000020779699979035267 0.990228761269519
vn -0.13945250059729367 -0.000020779699979035267 0.990228761269519
vn -0.0336198812479326 -0.000223844985325703 0.9994346669384134
vn -0.0336198812479326 -0.000223844985325703 0.9994346669384134
vn -0.0336198812479326 -0.000223844985325703 0.9994346669384134
vn -0.06301855415112587 0.0005500419751487672 0.9980122039767486
vn -0.06301855415112587 0.0005500419751487672 0.9980122039767486
vn -0.06301855415112587 0.0005500419751487672 0.9980122039767486
vn -0.10519520275870624 0.00006322850144482043 0.9944515902338892
vn -0.10519520275870624 0.00006322850144482043 0.9944515902338892
vn -0.10519520275870624 0.00006322850144482043 0.9944515902338892
vn -0.15885339631165757 0.0000375218986665432 0.9873021812354912
vn -0.15885339631165757 0.0000375218986665432 0.9873021812354912
vn -0.15885339631165757 0.0000375218986665432 0.9873021812354912
vn -0.14675770735494933 0.0006094279830191721 0.9891722822286584
vn -0.14675770735494933 0.0006094279830191721 0.9891722822286584
vn -0.14675770735494933 0.0006094279830191721 0.9891722822286584
vn -0.0761782009200404 0.0005974380794685912 0.9970940400846487
vn -0.0761782009200404 0.0005974380794685912 0.9970940400846487
vn -0.0761782009200404 0.0005974380794685912 0.9970940400846487
vn -0.0980378841110454 0.0005720119252383646 0.9951825189789995
vn -0.0980378841110454 0.0005720119252383646 0.9951825189789995
vn -0.0980378841110454 0.0005720119252383646 0.9951825189789995
vn -0.10484819689845175 0.00038475798752563283 0.9944881636140446
vn -0.10484819689845175 0.00038475798752563283 0.9944881636140446
vn -0.10484819689845175 0.00038475798752563283 0.9944881636140446
vn -0.11107069911278145 -0.0001655179935942353 0.993812493583368
vn -0.11107069911278145 -0.0001655179935942353 0.993812493583368
vn -0.11107069911278145 -0.0001655179935942353 0.993812493583368
vn -0.07815973262408005 0.0002140219822019315 0.9969408259223429
vn -0.07815973262408005 0.0002140219822019315 0.9969408259223429
vn -0.07815973262408005 0.0002140219822019315 0.9969408259223429
vn -0.09403812222594247 -0.001345335983347837 0.9955676881253784
vn -0.09403812222594247 -0.001345335983347837 0.9955676881253784
vn -0.09403812222594247 -0.001345335983347837 0.9955676881253784
vn -0.10599940179863045 0.0028506510182454135 0.9943621073869944
vn -0.10599940179863045 0.0028506510182454135 0.9943621073869944
vn -0.10599940179863045 0.0028506510182454135 0.9943621073869944
vn -0.11932399057800708 -0.002961217642188884 0.9928509538005265
vn -0.11932399057800708 -0.002961217642188884 0.9928509538005265
vn -0.11932399057800708 -0.002961217642188884 0.9928509538005265
vn -0.10751919723033232 0.0012022849712307795 0.9942022815995711
vn -0.10751919723033232 0.0012022849712307795 0.9942022815995711
vn -0.10751919723033232 0.0012022849712307795 0.9942022815995711
vn -0.16509167529892174 0.00013355597652893 0.9862782167876347
vn -0.16509167529892174 0.00013355597652893 0.9862782167876347
vn -0.16509167529892174 0.00013355597652893 0.9862782167876347
vn -0.1669785792606362 -0.000043803093828035545 0.9859605226120305
vn -0.1669785792606362 -0.000043803093828035545 0.9859605226120305
vn -0.1669785792606362 -0.000043803093828035545 0.9859605226120305
vn -0.09041059040293667 -0.008089005036468932 0.9958717252440258
vn -0.09041059040293667 -0.008089005036468932 0.9958717252440258
vn -0.09041059040293667 -0.008089005036468932 0.9958717252440258
vn -0.1813886738228643 -0.00011632698292251401 0.9834114782108331
vn -0.1813886738228643 -0.00011632698292251401 0.9834114782108331
vn -0.1813886738228643 -0.00011632698292251401 0.9834114782108331
f 1//1 2//2 3//3
f 4//4 5//5 6//6
f 7//7 8//8 9//9
f 10//10 11//11 12//12
f 13//13 14//14 15//15
f 16//16 17//17 18//18
f 19//19 20//20 21//21
f 22//22 23//23 24//24
f 25//25 26//26 27//27
f 28//28 29//29 30//30
f 31//31 32//32 33//33
f 34//34 35//35 36//36
f 37//37 38//38 39//39
f 40//40 41//41 42//42
f 43//43 44//44 45//45
f 46//46 47//47 48//48
f 49//49 50//50 51//51
f 52//52 53//53 54//54
f 55//55 56//56 57//57
f 58//58 59//59 60//60
f 61//61 62//62 63//63
f 64//64 65//65 66//66
f 67//67 68//68 69//69
f 70//70 71//71 72//72
f 73//73 74//74 75//75
f 76//76 77//77 78//78
f 79//79 80//80 81//81
f 82//82 83//83 84//84
f 85//85 86//86 87//87
f 88//88 89//89 90//90
f 91//91 92//92 93//93
f 94//94 95//95 96//96
f 97//97 98//98 99//99
f 100//100 101//101 102//102
f 103//103 104//104 105//105
f 106//106 107//107 108//108
f 109//109 110//110 111//111
f 112//112 113//113 114//114
f 115//115 116//116 117//117
f 118//118 119//119 120//120
f 121//121 122//122 123//123
f 124//124 125//125 126//126
f 127//127 128//128 129//129
f 130//130 131//131 132//132
f 133//133 134//134 135//135
f 136//136 137//137 138//138
f 139//139 140//140 141//141
f 142//142 143//143 144//144
f 145//145 146//146 147//147
f 148//148 149//149 150//150
f 151//151 152//152 153//153
f 154//154 155//155 156//156
f 157//157 158//158 159//159
f 160//160 161//161 162//162
f 163//163 164//164 165//165
f 166//166 167//167 168//168
f 169//169 170//170 171//171
f 172//172 173//173 174//174
f 175//175 176//176 177//177
f 178//178 179//179 180//180
f 181//181 182//182 183//183
f 184//184 185//185 186//186
f 187//187 188//188 189//189
f 190//190 191//191 192//192
f 193//193 194//194 195//195
f 196//196 197//197 198//198
f 199//199 200//200 201//201
f 202//202 203//203 204//204
f 205//205 206//206 207//207
f 208//208 209//209 210//210
f 211//211 212//212 213//213
f 214//214 215//215 216//216
