o node5
usemtl Face636_001
v -0.06731861084699631 0.056777529418468475 0.04519999027252197
v -0.052758269011974335 0.05913585051894188 0.04519999027252197
v -0.05395817011594772 0.05894147977232933 0.04070835933089256
v -0.06731861084699631 0.056777529418468475 0.02879994921386242
v -0.06731861084699631 0.056777529418468475 0.04519999027252197
v -0.06662023067474365 0.05689059942960739 0.038803331553936005
v -0.06731861084699631 0.056777529418468475 0.02879994921386242
v -0.06662023067474365 0.05689059942960739 0.038803331553936005
v -0.06662023067474365 0.05689059942960739 0.03811752051115036
v -0.06731861084699631 0.056777529418468475 0.02879994921386242
v -0.06662023067474365 0.05689059942960739 0.03811752051115036
v -0.06662023067474365 0.05689059942960739 0.035831570625305176
v -0.06731861084699631 0.056777529418468475 0.02879994921386242
v -0.06662023067474365 0.05689059942960739 0.035831570625305176
v -0.06662023067474365 0.05689059942960739 0.035247381776571274
v -0.052758269011974335 0.05913585051894188 0.04519999027252197
v -0.052758269011974335 0.05913585051894188 0.02879994921386242
v -0.053456779569387436 0.05902272090315819 0.035247381776571274
v -0.052758269011974335 0.05913585051894188 0.04519999027252197
v -0.053456779569387436 0.05902272090315819 0.035247381776571274
v -0.053456779569387436 0.05902272090315819 0.035831570625305176
v -0.052758269011974335 0.05913585051894188 0.04519999027252197
v -0.053456779569387436 0.05902272090315819 0.035831570625305176
v -0.053456779569387436 0.05902272090315819 0.03811752051115036
v -0.052758269011974335 0.05913585051894188 0.04519999027252197
v -0.053456779569387436 0.05902272090315819 0.03811752051115036
v -0.053456779569387436 0.05902272090315819 0.038803331553936005
v -0.052758269011974335 0.05913585051894188 0.02879994921386242
v -0.06731861084699631 0.056777529418468475 0.02879994921386242
v -0.0622323714196682 0.05760138854384422 0.028821170330047607
v -0.052758269011974335 0.05913585051894188 0.02879994921386242
v -0.0622323714196682 0.05760138854384422 0.028821170330047607
v -0.057844508439302444 0.05831199139356613 0.028821170330047607
v -0.05671625956892967 0.05849473923444748 0.03181833028793335
v -0.052758269011974335 0.05913585051894188 0.02879994921386242
v -0.057844508439302444 0.05831199139356613 0.028821170330047607
v -0.05671625956892967 0.05849473923444748 0.03181833028793335
v -0.05395817011594772 0.05894147977232933 0.03334236145019531
v -0.052758269011974335 0.05913585051894188 0.02879994921386242
v -0.053456779569387436 0.05902272090315819 0.035247381776571274
v -0.052758269011974335 0.05913585051894188 0.02879994921386242
v -0.05395817011594772 0.05894147977232933 0.03334236145019531
v -0.053895529359579086 0.05895154923200607 0.03519659861922264
v -0.053456779569387436 0.05902272090315819 0.035247381776571274
v -0.05395817011594772 0.05894147977232933 0.03334236145019531
v -0.053895529359579086 0.05895154923200607 0.035247381776571274
v -0.053456779569387436 0.05902272090315819 0.035247381776571274
v -0.053895529359579086 0.05895154923200607 0.03519659861922264
v -0.05395817011594772 0.05894147977232933 0.03519659861922264
v -0.053895529359579086 0.05895154923200607 0.03519659861922264
v -0.05395817011594772 0.05894147977232933 0.03334236145019531
v -0.057844508439302444 0.05831199139356613 0.03181833028793335
v -0.05671625956892967 0.05849473923444748 0.03181833028793335
v -0.057844508439302444 0.05831199139356613 0.028821170330047607
v -0.05671625956892967 0.05849473923444748 0.03334236145019531
v -0.05395817011594772 0.05894147977232933 0.03334236145019531
v -0.05671625956892967 0.05849473923444748 0.03181833028793335
v -0.05365264043211937 0.05899101123213768 0.03811752051115036
v -0.053456779569387436 0.05902272090315819 0.035831570625305176
v -0.05365264043211937 0.05899101123213768 0.035831570625305176
v -0.05365264043211937 0.05899101123213768 0.03811752051115036
v -0.053456779569387436 0.05902272090315819 0.03811752051115036
v -0.053456779569387436 0.05902272090315819 0.035831570625305176
v -0.05395817011594772 0.05894147977232933 0.04070835933089256
v -0.053456779569387436 0.05902272090315819 0.038803331553936005
v -0.05395817011594772 0.05894147977232933 0.038803331553936005
v -0.06336069107055664 0.057418640702962875 0.03181833028793335
v -0.0622323714196682 0.05760138854384422 0.03181833028793335
v -0.0622323714196682 0.05760138854384422 0.028821170330047607
v -0.06731861084699631 0.056777529418468475 0.02879994921386242
v -0.06336069107055664 0.057418640702962875 0.03181833028793335
v -0.0622323714196682 0.05760138854384422 0.028821170330047607
v -0.052758269011974335 0.05913585051894188 0.04519999027252197
v -0.053456779569387436 0.05902272090315819 0.038803331553936005
v -0.05395817011594772 0.05894147977232933 0.04070835933089256
v -0.0661187693476677 0.05697184056043625 0.03334236145019531
v -0.06336069107055664 0.057418640702962875 0.03334236145019531
v -0.06336069107055664 0.057418640702962875 0.03181833028793335
v -0.0661187693476677 0.05697184056043625 0.03334236145019531
v -0.06336069107055664 0.057418640702962875 0.03181833028793335
v -0.06731861084699631 0.056777529418468475 0.02879994921386242
v -0.06618142127990723 0.056961771100759506 0.03519659861922264
v -0.0661187693476677 0.05697184056043625 0.03519659861922264
v -0.0661187693476677 0.05697184056043625 0.03334236145019531
v -0.06662023067474365 0.05689059942960739 0.035247381776571274
v -0.06618142127990723 0.056961771100759506 0.035247381776571274
v -0.06618142127990723 0.056961771100759506 0.03519659861922264
v -0.06662023067474365 0.05689059942960739 0.035247381776571274
v -0.0661187693476677 0.05697184056043625 0.03334236145019531
v -0.06731861084699631 0.056777529418468475 0.02879994921386242
v -0.06662023067474365 0.05689059942960739 0.035247381776571274
v -0.06618142127990723 0.056961771100759506 0.03519659861922264
v -0.0661187693476677 0.05697184056043625 0.03334236145019531
v -0.06662023067474365 0.05689059942960739 0.03811752051115036
v -0.06642431020736694 0.056922368705272675 0.03811752051115036
v -0.06642431020736694 0.056922368705272675 0.035831570625305176
v -0.06662023067474365 0.05689059942960739 0.03811752051115036
v -0.06642431020736694 0.056922368705272675 0.035831570625305176
v -0.06662023067474365 0.05689059942960739 0.035831570625305176
v -0.0661187693476677 0.05697184056043625 0.04070835933089256
v -0.0661187693476677 0.05697184056043625 0.038803331553936005
v -0.06662023067474365 0.05689059942960739 0.038803331553936005
v -0.06731861084699631 0.056777529418468475 0.04519999027252197
v -0.05395817011594772 0.05894147977232933 0.04070835933089256
v -0.0661187693476677 0.05697184056043625 0.04070835933089256
v -0.06731861084699631 0.056777529418468475 0.04519999027252197
v -0.0661187693476677 0.05697184056043625 0.04070835933089256
v -0.06662023067474365 0.05689059942960739 0.038803331553936005
vn -0.15988169571667657 0.9871361827716258 -0.000006150090015194986
vn -0.15988169571667657 0.9871361827716258 -0.000006150090015194986
vn -0.15988169571667657 0.9871361827716258 -0.000006150090015194986
vn -0.15982519536101536 0.9871453322220661 0
vn -0.15982519536101536 0.9871453322220661 0
vn -0.15982519536101536 0.9871453322220661 0
vn -0.1597972691396992 0.9871498532520251 0
vn -0.1597972691396992 0.9871498532520251 0
vn -0.1597972691396992 0.9871498532520251 0
vn -0.15982349300163934 0.9871456078435212 0
vn -0.15982349300163934 0.9871456078435212 0
vn -0.15982349300163934 0.9871456078435212 0
vn -0.15981820655735096 0.9871464637290618 0
vn -0.15981820655735096 0.9871464637290618 0
vn -0.15981820655735096 0.9871464637290618 0
vn -0.15988999985986577 0.9871348377728405 0
vn -0.15988999985986577 0.9871348377728405 0
vn -0.15988999985986577 0.9871348377728405 0
vn -0.15990038385376676 0.9871331557816394 0
vn -0.15990038385376676 0.9871331557816394 0
vn -0.15990038385376676 0.9871331557816394 0
vn -0.15988579226664795 0.9871355192835816 0
vn -0.15988579226664795 0.9871355192835816 0
vn -0.15988579226664795 0.9871355192835816 0
vn -0.15989269387139837 0.9871344014097307 0
vn -0.15989269387139837 0.9871344014097307 0
vn -0.15989269387139837 0.9871344014097307 0
vn -0.15990169319457137 0.9871327860453483 -0.000557877995533128
vn -0.15990169319457137 0.9871327860453483 -0.000557877995533128
vn -0.15990169319457137 0.9871327860453483 -0.000557877995533128
vn -0.15986319171870692 0.987138408175998 0.001234113959290882
vn -0.15986319171870692 0.987138408175998 0.001234113959290882
vn -0.15986319171870692 0.987138408175998 0.001234113959290882
vn -0.1598820826534291 0.987136120120423 0
vn -0.1598820826534291 0.987136120120423 0
vn -0.1598820826534291 0.987136120120423 0
vn -0.1598779860988168 0.9871367835801252 0.00000800447926038105
vn -0.1598779860988168 0.9871367835801252 0.00000800447926038105
vn -0.1598779860988168 0.9871367835801252 0.00000800447926038105
vn -0.15991470463500074 0.9871308359237863 -0.000003147619784790155
vn -0.15991470463500074 0.9871308359237863 -0.000003147619784790155
vn -0.15991470463500074 0.9871308359237863 -0.000003147619784790155
vn -0.15999198122482636 0.9871183138068147 0.00002215729750566155
vn -0.15999198122482636 0.9871183138068147 0.00002215729750566155
vn -0.15999198122482636 0.9871183138068147 0.00002215729750566155
vn -0.15998360466156514 0.9871196716910732 0
vn -0.15998360466156514 0.9871196716910732 0
vn -0.15998360466156514 0.9871196716910732 0
vn -0.1594681898339399 0.9872030674745124 0
vn -0.1594681898339399 0.9872030674745124 0
vn -0.1594681898339399 0.9872030674745124 0
vn -0.1598827839195562 0.9871360065391863 0
vn -0.1598827839195562 0.9871360065391863 0
vn -0.1598827839195562 0.9871360065391863 0
vn -0.15987360425940886 0.9871374932911352 0
vn -0.15987360425940886 0.9871374932911352 0
vn -0.15987360425940886 0.9871374932911352 0
vn -0.15982060078747876 0.9871460761021793 0
vn -0.15982060078747876 0.9871460761021793 0
vn -0.15982060078747876 0.9871460761021793 0
vn -0.15982009768526698 0.9871461575551372 0
vn -0.15982009768526698 0.9871461575551372 0
vn -0.15982009768526698 0.9871461575551372 0
vn -0.15992450348608772 0.9871292484698893 0
vn -0.15992450348608772 0.9871292484698893 0
vn -0.15992450348608772 0.9871292484698893 0
vn -0.1598801044237259 0.9871364405235269 0
vn -0.1598801044237259 0.9871364405235269 0
vn -0.1598801044237259 0.9871364405235269 0
vn -0.15988229534410472 0.987136085671829 0
vn -0.15988229534410472 0.987136085671829 0
vn -0.15988229534410472 0.987136085671829 0
vn -0.15991480627522678 0.9871308194552036 0.000003956649829241051
vn -0.15991480627522678 0.9871308194552036 0.000003956649829241051
vn -0.15991480627522678 0.9871308194552036 0.000003956649829241051
vn -0.15989110257850006 0.9871346591606596 0
vn -0.15989110257850006 0.9871346591606596 0
vn -0.15989110257850006 0.9871346591606596 0
vn -0.15988838463558813 0.9871350993772752 0.000006003289321311675
vn -0.15988838463558813 0.9871350993772752 0.000006003289321311675
vn -0.15988838463558813 0.9871350993772752 0.000006003289321311675
vn -0.15958500296820077 0.9871841909327962 0
vn -0.15958500296820077 0.9871841909327962 0
vn -0.15958500296820077 0.9871841909327962 0
vn -0.159961294336605 0.9871232872919968 0
vn -0.159961294336605 0.9871232872919968 0
vn -0.159961294336605 0.9871232872919968 0
vn -0.15989269386823 0.98713440139017 0.00000629533999979179
vn -0.15989269386823 0.98713440139017 0.00000629533999979179
vn -0.15989269386823 0.98713440139017 0.00000629533999979179
vn -0.1599752861150953 0.9871210197761529 -0.000012185298737353532
vn -0.1599752861150953 0.9871210197761529 -0.000012185298737353532
vn -0.1599752861150953 0.9871210197761529 -0.000012185298737353532
vn -0.16006199762058057 0.9871069632606738 0
vn -0.16006199762058057 0.9871069632606738 0
vn -0.16006199762058057 0.9871069632606738 0
vn -0.1600624955954991 0.9871068825125983 0
vn -0.1600624955954991 0.9871068825125983 0
vn -0.1600624955954991 0.9871068825125983 0
vn -0.1599173841158162 0.9871304018505126 0
vn -0.1599173841158162 0.9871304018505126 0
vn -0.1599173841158162 0.9871304018505126 0
vn -0.15988138138581381 0.987136233692421 -0.000004207849495344554
vn -0.15988138138581381 0.987136233692421 -0.000004207849495344554
vn -0.15988138138581381 0.987136233692421 -0.000004207849495344554
vn -0.15989267934799115 0.9871344037418827 -0.000006330748917507113
vn -0.15989267934799115 0.9871344037418827 -0.000006330748917507113
vn -0.15989267934799115 0.9871344037418827 -0.000006330748917507113
f 1//1 2//2 3//3
f 4//4 5//5 6//6
f 7//7 8//8 9//9
f 10//10 11//11 12//12
f 13//13 14//14 15//15
f 16//16 17//17 18//18
f 19//19 20//20 21//21
f 22//22 23//23 24//24
f 25//25 26//26 27//27
f 28//28 29//29 30//30
f 31//31 32//32 33//33
f 34//34 35//35 36//36
f 37//37 38//38 39//39
f 40//40 41//41 42//42
f 43//43 44//44 45//45
f 46//46 47//47 48//48
f 49//49 50//50 51//51
f 52//52 53//53 54//54
f 55//55 56//56 57//57
f 58//58 59//59 60//60
f 61//61 62//62 63//63
f 64//64 65//65 66//66
f 67//67 68//68 69//69
f 70//70 71//71 72//72
f 73//73 74//74 75//75
f 76//76 77//77 78//78
f 79//79 80//80 81//81
f 82//82 83//83 84//84
f 85//85 86//86 87//87
f 88//88 89//89 90//90
f 91//91 92//92 93//93
f 94//94 95//95 96//96
f 97//97 98//98 99//99
f 100//100 101//101 102//102
f 103//103 104//104 105//105
f 106//106 107//107 108//108
