o node13
usemtl Shell005_001_001_002_001
v 0.0884011909365654 0.07785028219223022 -0.009257007390260696
v 0.08871704339981079 0.07769899815320969 -0.009312141686677933
v 0.0880318209528923 0.07790184020996094 -0.00924687460064888
v 0.08910661190748215 0.0770798921585083 -0.009463716298341751
v 0.08916901797056198 0.07740216702222824 -0.011949288658797741
v 0.08896195143461227 0.07741326093673706 -0.009198177605867386
v 0.08896881341934204 0.07781367748975754 -0.012075173668563366
v 0.08896195143461227 0.07741326093673706 -0.009198177605867386
v 0.08916901797056198 0.07740216702222824 -0.011949288658797741
v 0.0885355994105339 0.07815009355545044 -0.0119467256590724
v 0.08871704339981079 0.07769899815320969 -0.009312141686677933
v 0.08896881341934204 0.07781367748975754 -0.012075173668563366
v 0.08896881341934204 0.07781367748975754 -0.012075173668563366
v 0.08871704339981079 0.07769899815320969 -0.009312141686677933
v 0.08896195143461227 0.07741326093673706 -0.009198177605867386
v 0.08811508864164352 0.0782349705696106 -0.011881398968398571
v 0.08871704339981079 0.07769899815320969 -0.009312141686677933
v 0.0885355994105339 0.07815009355545044 -0.0119467256590724
v 0.0880318209528923 0.07790184020996094 -0.00924687460064888
v 0.08871704339981079 0.07769899815320969 -0.009312141686677933
v 0.08811508864164352 0.0782349705696106 -0.011881398968398571
v 0.08823615312576294 0.07811944931745529 -0.012385713867843151
v 0.08811508864164352 0.0782349705696106 -0.011881398968398571
v 0.0885355994105339 0.07815009355545044 -0.0119467256590724
v 0.08768749237060547 0.07810640335083008 -0.012267219834029675
v 0.08784501999616623 0.07819986343383789 -0.01181422546505928
v 0.08811508864164352 0.0782349705696106 -0.011881398968398571
v 0.08760076016187668 0.07776253670454025 -0.012600230984389782
v 0.08768749237060547 0.07810640335083008 -0.012267219834029675
v 0.0878896713256836 0.07774680107831955 -0.012775766663253307
v 0.0878896713256836 0.07774680107831955 -0.012775766663253307
v 0.08768749237060547 0.07810640335083008 -0.012267219834029675
v 0.08823615312576294 0.07811944931745529 -0.012385713867843151
v 0.0873371884226799 0.07777141779661179 -0.012321222573518753
v 0.08768749237060547 0.07810640335083008 -0.012267219834029675
v 0.08760076016187668 0.07776253670454025 -0.012600230984389782
v 0.08901578187942505 0.07747756689786911 -0.012352692894637585
v 0.08896881341934204 0.07781367748975754 -0.012075173668563366
v 0.08916901797056198 0.07740216702222824 -0.011949288658797741
v 0.08718758076429367 0.07775353640317917 -0.011970866471529007
v 0.08768749237060547 0.07810640335083008 -0.012267219834029675
v 0.0873371884226799 0.07777141779661179 -0.012321222573518753
v 0.08867073059082031 0.077585868537426 -0.012677895836532116
v 0.08870828151702881 0.07792221754789352 -0.012386607937514782
v 0.08901578187942505 0.07747756689786911 -0.012352692894637585
v 0.08901578187942505 0.07747756689786911 -0.012352692894637585
v 0.08870828151702881 0.07792221754789352 -0.012386607937514782
v 0.08896881341934204 0.07781367748975754 -0.012075173668563366
v 0.08867073059082031 0.077585868537426 -0.012677895836532116
v 0.08833371847867966 0.0776699110865593 -0.01280664186924696
v 0.08870828151702881 0.07792221754789352 -0.012386607937514782
v 0.08718758076429367 0.07775353640317917 -0.011970866471529007
v 0.08753055334091187 0.07807611674070358 -0.011792052537202835
v 0.08768749237060547 0.07810640335083008 -0.012267219834029675
v 0.08768749237060547 0.07810640335083008 -0.012267219834029675
v 0.08811508864164352 0.0782349705696106 -0.011881398968398571
v 0.08823615312576294 0.07811944931745529 -0.012385713867843151
v 0.08753055334091187 0.07807611674070358 -0.011792052537202835
v 0.08784501999616623 0.07819986343383789 -0.01181422546505928
v 0.08768749237060547 0.07810640335083008 -0.012267219834029675
v 0.08870828151702881 0.07792221754789352 -0.012386607937514782
v 0.0885355994105339 0.07815009355545044 -0.0119467256590724
v 0.08896881341934204 0.07781367748975754 -0.012075173668563366
v 0.08833371847867966 0.0776699110865593 -0.01280664186924696
v 0.08823615312576294 0.07811944931745529 -0.012385713867843151
v 0.08870828151702881 0.07792221754789352 -0.012386607937514782
v 0.0878896713256836 0.07774680107831955 -0.012775766663253307
v 0.08823615312576294 0.07811944931745529 -0.012385713867843151
v 0.08833371847867966 0.0776699110865593 -0.01280664186924696
v 0.08870828151702881 0.07792221754789352 -0.012386607937514782
v 0.08823615312576294 0.07811944931745529 -0.012385713867843151
v 0.0885355994105339 0.07815009355545044 -0.0119467256590724
v 0.08811508864164352 0.0782349705696106 -0.011881398968398571
v 0.08784501999616623 0.07819986343383789 -0.01181422546505928
v 0.0880318209528923 0.07790184020996094 -0.00924687460064888
v 0.0871429368853569 0.07758908718824387 -0.010685729794204235
v 0.08753055334091187 0.07807611674070358 -0.011792052537202835
v 0.08718758076429367 0.07775353640317917 -0.011970866471529007
v 0.08733385056257248 0.07761836051940918 -0.009161878377199173
v 0.0871429368853569 0.07758908718824387 -0.010685729794204235
v 0.08714418858289719 0.07741141319274902 -0.009270059876143932
v 0.08769232034683228 0.0778275728225708 -0.009126115590333939
v 0.08753055334091187 0.07807611674070358 -0.011792052537202835
v 0.08733385056257248 0.07761836051940918 -0.009161878377199173
v 0.08733385056257248 0.07761836051940918 -0.009161878377199173
v 0.08753055334091187 0.07807611674070358 -0.011792052537202835
v 0.0871429368853569 0.07758908718824387 -0.010685729794204235
v 0.0880318209528923 0.07790184020996094 -0.00924687460064888
v 0.08784501999616623 0.07819986343383789 -0.01181422546505928
v 0.08769232034683228 0.0778275728225708 -0.009126115590333939
v 0.08769232034683228 0.0778275728225708 -0.009126115590333939
v 0.08784501999616623 0.07819986343383789 -0.01181422546505928
v 0.08753055334091187 0.07807611674070358 -0.011792052537202835
v 0.08896195143461227 0.07741326093673706 -0.009198177605867386
v 0.08871704339981079 0.07769899815320969 -0.009312141686677933
v 0.08844465017318726 0.07771556824445724 -0.008957136422395706
v 0.08735644072294235 0.07732266187667847 -0.00885855033993721
v 0.08733385056257248 0.07761836051940918 -0.009161878377199173
v 0.08714418858289719 0.07741141319274902 -0.009270059876143932
v 0.08733385056257248 0.07761836051940918 -0.009161878377199173
v 0.08765488117933273 0.07724957913160324 -0.008580016903579235
v 0.08769232034683228 0.0778275728225708 -0.009126115590333939
v 0.08769232034683228 0.0778275728225708 -0.009126115590333939
v 0.08765488117933273 0.07724957913160324 -0.008580016903579235
v 0.08801119774580002 0.0776141807436943 -0.008736539632081985
v 0.08802150934934616 0.07717417925596237 -0.008483577519655228
v 0.08853042125701904 0.07735835760831833 -0.008679675869643688
v 0.08801119774580002 0.0776141807436943 -0.008736539632081985
v 0.08769232034683228 0.0778275728225708 -0.009126115590333939
v 0.08801119774580002 0.0776141807436943 -0.008736539632081985
v 0.08844465017318726 0.07771556824445724 -0.008957136422395706
v 0.08853042125701904 0.07735835760831833 -0.008679675869643688
v 0.08844465017318726 0.07771556824445724 -0.008957136422395706
v 0.08801119774580002 0.0776141807436943 -0.008736539632081985
v 0.08844465017318726 0.07771556824445724 -0.008957136422395706
v 0.0880318209528923 0.07790184020996094 -0.00924687460064888
v 0.08769232034683228 0.0778275728225708 -0.009126115590333939
v 0.0884011909365654 0.07785028219223022 -0.009257007390260696
v 0.0880318209528923 0.07790184020996094 -0.00924687460064888
v 0.08844465017318726 0.07771556824445724 -0.008957136422395706
v 0.08735644072294235 0.07732266187667847 -0.00885855033993721
v 0.08765488117933273 0.07724957913160324 -0.008580016903579235
v 0.08733385056257248 0.07761836051940918 -0.009161878377199173
v 0.0884011909365654 0.07785028219223022 -0.009257007390260696
v 0.08844465017318726 0.07771556824445724 -0.008957136422395706
v 0.08871704339981079 0.07769899815320969 -0.009312141686677933
v 0.08802150934934616 0.07717417925596237 -0.008483577519655228
v 0.08801119774580002 0.0776141807436943 -0.008736539632081985
v 0.08765488117933273 0.07724957913160324 -0.008580016903579235
v 0.08840054273605347 0.07710527628660202 -0.008539486676454544
v 0.08853042125701904 0.07735835760831833 -0.008679675869643688
v 0.08802150934934616 0.07717417925596237 -0.008483577519655228
v 0.08873479813337326 0.07706718891859055 -0.008727360516786575
v 0.08853042125701904 0.07735835760831833 -0.008679675869643688
v 0.08840054273605347 0.07710527628660202 -0.008539486676454544
v 0.08897030353546143 0.07705693691968918 -0.009003687649965286
v 0.08896195143461227 0.07741326093673706 -0.009198177605867386
v 0.08873479813337326 0.07706718891859055 -0.008727360516786575
v 0.08873479813337326 0.07706718891859055 -0.008727360516786575
v 0.08896195143461227 0.07741326093673706 -0.009198177605867386
v 0.08853042125701904 0.07735835760831833 -0.008679675869643688
v 0.08910661190748215 0.0770798921585083 -0.009463716298341751
v 0.08896195143461227 0.07741326093673706 -0.009198177605867386
v 0.08897030353546143 0.07705693691968918 -0.009003687649965286
v 0.08896195143461227 0.07741326093673706 -0.009198177605867386
v 0.08844465017318726 0.07771556824445724 -0.008957136422395706
v 0.08853042125701904 0.07735835760831833 -0.008679675869643688
vn 0.03033327894172201 0.39755568224164395 -0.9170765353589767
vn 0.03033327894172201 0.39755568224164395 -0.9170765353589767
vn 0.03033327894172201 0.39755568224164395 -0.9170765353589767
vn 0.93403879571682 0.3504656470099268 0.06888656154712695
vn 0.93403879571682 0.3504656470099268 0.06888656154712695
vn 0.93403879571682 0.3504656470099268 0.06888656154712695
vn 0.8893419854254593 0.4525827342274725 0.06511299132037432
vn 0.8893419854254593 0.4525827342274725 0.06511299132037432
vn 0.8893419854254593 0.4525827342274725 0.06511299132037432
vn 0.6272767704403294 0.773663272797816 0.08926921972170608
vn 0.6272767704403294 0.773663272797816 0.08926921972170608
vn 0.6272767704403294 0.773663272797816 0.08926921972170608
vn 0.7367904374059454 0.6694252661636352 0.09491925183492535
vn 0.7367904374059454 0.6694252661636352 0.09491925183492535
vn 0.7367904374059454 0.6694252661636352 0.09491925183492535
vn 0.2179671817994367 0.9643442604292776 0.1501014824561069
vn 0.2179671817994367 0.9643442604292776 0.1501014824561069
vn 0.2179671817994367 0.9643442604292776 0.1501014824561069
vn 0.2927505903161443 0.9474397085357812 0.12905460301431698
vn 0.2927505903161443 0.9474397085357812 0.12905460301431698
vn 0.2927505903161443 0.9474397085357812 0.12905460301431698
vn 0.16734178820661086 0.9689952995402508 -0.18178238470411137
vn 0.16734178820661086 0.9689952995402508 -0.18178238470411137
vn 0.16734178820661086 0.9689952995402508 -0.18178238470411137
vn -0.16287247762007384 0.97597825080272 -0.14470317893523102
vn -0.16287247762007384 0.97597825080272 -0.14470317893523102
vn -0.16287247762007384 0.97597825080272 -0.14470317893523102
vn -0.3444999712592958 0.6964791332541808 -0.6294732613414563
vn -0.3444999712592958 0.6964791332541808 -0.6294732613414563
vn -0.3444999712592958 0.6964791332541808 -0.6294732613414563
vn -0.1502262016724922 0.778076091993692 -0.6099423607185188
vn -0.1502262016724922 0.778076091993692 -0.6099423607185188
vn -0.1502262016724922 0.778076091993692 -0.6099423607185188
vn -0.5410161609824865 0.6515017146301406 -0.53183364823012
vn -0.5410161609824865 0.6515017146301406 -0.53183364823012
vn -0.5410161609824865 0.6515017146301406 -0.53183364823012
vn 0.8950662734673414 0.3515811610364718 -0.2743119634750423
vn 0.8950662734673414 0.3515811610364718 -0.2743119634750423
vn 0.8950662734673414 0.3515811610364718 -0.2743119634750423
vn -0.6510151584024888 0.7196961596367968 -0.24128137378220632
vn -0.6510151584024888 0.7196961596367968 -0.24128137378220632
vn -0.6510151584024888 0.7196961596367968 -0.24128137378220632
vn 0.6869521189914625 0.4304047853566634 -0.5855326694175347
vn 0.6869521189914625 0.4304047853566634 -0.5855326694175347
vn 0.6869521189914625 0.4304047853566634 -0.5855326694175347
vn 0.7473920580793422 0.4819820819394732 -0.45727276784127024
vn 0.7473920580793422 0.4819820819394732 -0.45727276784127024
vn 0.7473920580793422 0.4819820819394732 -0.45727276784127024
vn 0.41344499257653705 0.5692520692162506 -0.7106442990740194
vn 0.41344499257653705 0.5692520692162506 -0.7106442990740194
vn 0.41344499257653705 0.5692520692162506 -0.7106442990740194
vn -0.6307800623871526 0.7593032376484942 -0.1599221879270494
vn -0.6307800623871526 0.7593032376484942 -0.1599221879270494
vn -0.6307800623871526 0.7593032376484942 -0.1599221879270494
vn -0.07477872762003906 0.9679732845338159 -0.23965780255260763
vn -0.07477872762003906 0.9679732845338159 -0.23965780255260763
vn -0.07477872762003906 0.9679732845338159 -0.23965780255260763
vn -0.36926861909192027 0.927194280031874 -0.06286059202808206
vn -0.36926861909192027 0.927194280031874 -0.06286059202808206
vn -0.36926861909192027 0.927194280031874 -0.06286059202808206
vn 0.5653297349757525 0.8018524114043832 -0.19348126802670348
vn 0.5653297349757525 0.8018524114043832 -0.19348126802670348
vn 0.5653297349757525 0.8018524114043832 -0.19348126802670348
vn 0.28585419070881063 0.6872895958944184 -0.6677727106055606
vn 0.28585419070881063 0.6872895958944184 -0.6677727106055606
vn 0.28585419070881063 0.6872895958944184 -0.6677727106055606
vn 0.06934051800483423 0.6898422081810937 -0.7206314039608973
vn 0.06934051800483423 0.6898422081810937 -0.7206314039608973
vn 0.06934051800483423 0.6898422081810937 -0.7206314039608973
vn 0.36587753279553187 0.8772299738922449 -0.3108073420954951
vn 0.36587753279553187 0.8772299738922449 -0.3108073420954951
vn 0.36587753279553187 0.8772299738922449 -0.3108073420954951
vn -0.09810053635909924 0.987696059526547 0.1217898959757693
vn -0.09810053635909924 0.987696059526547 0.1217898959757693
vn -0.09810053635909924 0.987696059526547 0.1217898959757693
vn -0.7017480237767325 0.7093253239594534 0.06638746805886556
vn -0.7017480237767325 0.7093253239594534 0.06638746805886556
vn -0.7017480237767325 0.7093253239594534 0.06638746805886556
vn -0.7557592005103853 0.6496691287568366 0.08220738400068528
vn -0.7557592005103853 0.6496691287568366 0.08220738400068528
vn -0.7557592005103853 0.6496691287568366 0.08220738400068528
vn -0.5091766886549882 0.8535422374204531 0.1104751042978837
vn -0.5091766886549882 0.8535422374204531 0.1104751042978837
vn -0.5091766886549882 0.8535422374204531 0.1104751042978837
vn -0.6928920581077755 0.7173340746049365 0.0730234292665742
vn -0.6928920581077755 0.7173340746049365 0.0730234292665742
vn -0.6928920581077755 0.7173340746049365 0.0730234292665742
vn -0.16911098072817762 0.9775374365154775 0.12578567648147754
vn -0.16911098072817762 0.9775374365154775 0.12578567648147754
vn -0.16911098072817762 0.9775374365154775 0.12578567648147754
vn -0.35740361261390713 0.9276647734839403 0.10816989288853848
vn -0.35740361261390713 0.9276647734839403 0.10816989288853848
vn -0.35740361261390713 0.9276647734839403 0.10816989288853848
vn 0.5961589315106784 0.6807444803472249 0.4256541798888306
vn 0.5961589315106784 0.6807444803472249 0.4256541798888306
vn 0.5961589315106784 0.6807444803472249 0.4256541798888306
vn -0.756142359102147 0.4395542035772249 0.4848101018842648
vn -0.756142359102147 0.4395542035772249 0.4848101018842648
vn -0.756142359102147 0.4395542035772249 0.4848101018842648
vn -0.43365852831457274 0.6335293476279634 0.6407658281417059
vn -0.43365852831457274 0.6335293476279634 0.6407658281417059
vn -0.43365852831457274 0.6335293476279634 0.6407658281417059
vn -0.3739578160498319 0.6496163067292714 0.6619321761681185
vn -0.3739578160498319 0.6496163067292714 0.6619321761681185
vn -0.3739578160498319 0.6496163067292714 0.6619321761681185
vn 0.15038620323249743 0.49540088857961273 0.8555477482127132
vn 0.15038620323249743 0.49540088857961273 0.8555477482127132
vn 0.15038620323249743 0.49540088857961273 0.8555477482127132
vn 0.02806519892154923 0.8861990536011135 0.46245387013840056
vn 0.02806519892154923 0.8861990536011135 0.46245387013840056
vn 0.02806519892154923 0.8861990536011135 0.46245387013840056
vn 0.22964300153295136 0.6308069808155593 0.7411792258295531
vn 0.22964300153295136 0.6308069808155593 0.7411792258295531
vn 0.22964300153295136 0.6308069808155593 0.7411792258295531
vn 0.00556242377118311 0.8447488611335141 0.5351340215828374
vn 0.00556242377118311 0.8447488611335141 0.5351340215828374
vn 0.00556242377118311 0.8447488611335141 0.5351340215828374
vn 0.13780460022213264 0.9107914739227816 0.3891899063274708
vn 0.13780460022213264 0.9107914739227816 0.3891899063274708
vn 0.13780460022213264 0.9107914739227816 0.3891899063274708
vn -0.44596789058977465 0.6240747678997065 0.6415943614417401
vn -0.44596789058977465 0.6240747678997065 0.6415943614417401
vn -0.44596789058977465 0.6240747678997065 0.6415943614417401
vn 0.4541848822248536 0.8354058126473909 0.30953710755473
vn 0.4541848822248536 0.8354058126473909 0.30953710755473
vn 0.4541848822248536 0.8354058126473909 0.30953710755473
vn -0.12533890040350112 0.4922694693256196 0.8613715398221107
vn -0.12533890040350112 0.4922694693256196 0.8613715398221107
vn -0.12533890040350112 0.4922694693256196 0.8613715398221107
vn 0.2036366952066346 0.39236147027110924 0.896986383961325
vn 0.2036366952066346 0.39236147027110924 0.896986383961325
vn 0.2036366952066346 0.39236147027110924 0.896986383961325
vn 0.49708870027317564 0.21109570551809387 0.8416302199734415
vn 0.49708870027317564 0.21109570551809387 0.8416302199734415
vn 0.49708870027317564 0.21109570551809387 0.8416302199734415
vn 0.7205892826171468 0.34514430284491815 0.6013538858201559
vn 0.7205892826171468 0.34514430284491815 0.6013538858201559
vn 0.7205892826171468 0.34514430284491815 0.6013538858201559
vn 0.6895386768987734 0.38336069461120054 0.6144680552216748
vn 0.6895386768987734 0.38336069461120054 0.6144680552216748
vn 0.6895386768987734 0.38336069461120054 0.6144680552216748
vn 0.9408220462540073 0.17910398188364163 0.2877075615201076
vn 0.9408220462540073 0.17910398188364163 0.2877075615201076
vn 0.9408220462540073 0.17910398188364163 0.2877075615201076
vn 0.5969112266173241 0.5766368267529444 0.5578413372729708
vn 0.5969112266173241 0.5766368267529444 0.5578413372729708
vn 0.5969112266173241 0.5766368267529444 0.5578413372729708
f 1//1 2//2 3//3
f 4//4 5//5 6//6
f 7//7 8//8 9//9
f 10//10 11//11 12//12
f 13//13 14//14 15//15
f 16//16 17//17 18//18
f 19//19 20//20 21//21
f 22//22 23//23 24//24
f 25//25 26//26 27//27
f 28//28 29//29 30//30
f 31//31 32//32 33//33
f 34//34 35//35 36//36
f 37//37 38//38 39//39
f 40//40 41//41 42//42
f 43//43 44//44 45//45
f 46//46 47//47 48//48
f 49//49 50//50 51//51
f 52//52 53//53 54//54
f 55//55 56//56 57//57
f 58//58 59//59 60//60
f 61//61 62//62 63//63
f 64//64 65//65 66//66
f 67//67 68//68 69//69
f 70//70 71//71 72//72
f 73//73 74//74 75//75
f 76//76 77//77 78//78
f 79//79 80//80 81//81
f 82//82 83//83 84//84
f 85//85 86//86 87//87
f 88//88 89//89 90//90
f 91//91 92//92 93//93
f 94//94 95//95 96//96
f 97//97 98//98 99//99
f 100//100 101//101 102//102
f 103//103 104//104 105//105
f 106//106 107//107 108//108
f 109//109 110//110 111//111
f 112//112 113//113 114//114
f 115//115 116//116 117//117
f 118//118 119//119 120//120
f 121//121 122//122 123//123
f 124//124 125//125 126//126
f 127//127 128//128 129//129
f 130//130 131//131 132//132
f 133//133 134//134 135//135
f 136//136 137//137 138//138
f 139//139 140//140 141//141
f 142//142 143//143 144//144
f 145//145 146//146 147//147
