o node3
usemtl Face064_002_001_002_001
v 0.08813177794218063 0.07732068747282028 0.025707729160785675
v 0.08746469020843506 0.0776095911860466 0.024999797344207764
v 0.08696299046278 0.07758127897977829 0.025489218533039093
v 0.08818662166595459 0.07763165235519409 0.024292830377817154
v 0.08734499663114548 0.07794845104217529 0.02340913936495781
v 0.08662556856870651 0.07794106006622314 0.02411622926592827
v 0.08885537832975388 0.07735264301300049 0.02499968931078911
v 0.08813177794218063 0.07732068747282028 0.025707729160785675
v 0.0893704816699028 0.07712346315383911 0.025547027587890625
v 0.08885537832975388 0.07735264301300049 0.02499968931078911
v 0.08746469020843506 0.0776095911860466 0.024999797344207764
v 0.08813177794218063 0.07732068747282028 0.025707729160785675
v 0.0893704816699028 0.07712346315383911 0.025547027587890625
v 0.08813177794218063 0.07732068747282028 0.025707729160785675
v 0.0885699912905693 0.07711344212293625 0.026174429804086685
v 0.0892598032951355 0.07736361026763916 0.02460337057709694
v 0.08746469020843506 0.0776095911860466 0.024999797344207764
v 0.08885537832975388 0.07735264301300049 0.02499968931078911
v 0.0892598032951355 0.07736361026763916 0.02460337057709694
v 0.08818662166595459 0.07763165235519409 0.024292830377817154
v 0.08746469020843506 0.0776095911860466 0.024999797344207764
v 0.0897558331489563 0.07736896723508835 0.02411622926592827
v 0.08818662166595459 0.07763165235519409 0.024292830377817154
v 0.0892598032951355 0.07736361026763916 0.02460337057709694
v 0.08864820003509521 0.07763326168060303 0.0238385908305645
v 0.08818662166595459 0.07763165235519409 0.024292830377817154
v 0.0897558331489563 0.07736896723508835 0.02411622926592827
v 0.08818662166595459 0.07763165235519409 0.024292830377817154
v 0.08704829216003418 0.0777774378657341 0.024560820311307907
v 0.08746469020843506 0.0776095911860466 0.024999797344207764
v 0.0896858498454094 0.07697355002164841 0.02588403970003128
v 0.0885699912905693 0.07711344212293625 0.026174429804086685
v 0.08895885199308395 0.07692127674818039 0.026590950787067413
v 0.0890842005610466 0.07763116806745529 0.02340913936495781
v 0.08864820003509521 0.07763326168060303 0.0238385908305645
v 0.0897558331489563 0.07736896723508835 0.02411622926592827
v 0.08813177794218063 0.07732068747282028 0.025707729160785675
v 0.08655714243650436 0.07755160331726074 0.02588392049074173
v 0.08722089976072311 0.0772472620010376 0.026591308414936066
v 0.08662556856870651 0.07794106006622314 0.02411622926592827
v 0.08704829216003418 0.0777774378657341 0.024560820311307907
v 0.08818662166595459 0.07763165235519409 0.024292830377817154
v 0.0893704816699028 0.07712346315383911 0.025547027587890625
v 0.0885699912905693 0.07711344212293625 0.026174429804086685
v 0.0896858498454094 0.07697355002164841 0.02588403970003128
v 0.08696299046278 0.07758127897977829 0.025489218533039093
v 0.08655714243650436 0.07755160331726074 0.02588392049074173
v 0.08813177794218063 0.07732068747282028 0.025707729160785675
vn 0.1705554837585622 0.9580592315549039 0.23028967799775557
vn 0.1705554837585622 0.9580592315549039 0.23028967799775557
vn 0.1705554837585622 0.9580592315549039 0.23028967799775557
vn 0.1710090762087155 0.9679140311985653 0.1841149751193104
vn 0.1710090762087155 0.9679140311985653 0.1841149751193104
vn 0.1710090762087155 0.9679140311985653 0.1841149751193104
vn 0.18196319513303774 0.9562400230222362 0.22911659474470464
vn 0.18196319513303774 0.9562400230222362 0.22911659474470464
vn 0.18196319513303774 0.9562400230222362 0.22911659474470464
vn 0.17708868759531798 0.9583118873175209 0.2242273920637235
vn 0.17708868759531798 0.9583118873175209 0.2242273920637235
vn 0.17708868759531798 0.9583118873175209 0.2242273920637235
vn 0.1837482880033804 0.9507524270800524 0.2496124777674719
vn 0.1837482880033804 0.9507524270800524 0.2496124777674719
vn 0.1837482880033804 0.9507524270800524 0.2496124777674719
vn 0.17773649543014858 0.9618361237887619 0.20804088340328278
vn 0.17773649543014858 0.9618361237887619 0.20804088340328278
vn 0.17773649543014858 0.9618361237887619 0.20804088340328278
vn 0.17853199115244303 0.9607620926639409 0.2122793664847076
vn 0.17853199115244303 0.9607620926639409 0.2122793664847076
vn 0.17853199115244303 0.9607620926639409 0.2122793664847076
vn 0.1834236976946712 0.9630224095371628 0.1973412928235014
vn 0.1834236976946712 0.9630224095371628 0.1973412928235014
vn 0.1834236976946712 0.9630224095371628 0.1973412928235014
vn 0.18279890384788633 0.9647875849397334 0.18912820175258935
vn 0.18279890384788633 0.9647875849397334 0.18912820175258935
vn 0.18279890384788633 0.9647875849397334 0.18912820175258935
vn 0.17175139739534448 0.9634776853246718 0.2054560959771187
vn 0.17175139739534448 0.9634776853246718 0.2054560959771187
vn 0.17175139739534448 0.9634776853246718 0.2054560959771187
vn 0.18695709224085702 0.9467075525231302 0.26228201550336666
vn 0.18695709224085702 0.9467075525231302 0.26228201550336666
vn 0.18695709224085702 0.9467075525231302 0.26228201550336666
vn 0.18462078054879472 0.9656753425794177 0.18271918378670002
vn 0.18462078054879472 0.9656753425794177 0.18271918378670002
vn 0.18462078054879472 0.9656753425794177 0.18271918378670002
vn 0.16798429198596487 0.952939749188588 0.25236305605687454
vn 0.16798429198596487 0.952939749188588 0.25236305605687454
vn 0.16798429198596487 0.952939749188588 0.25236305605687454
vn 0.1694972820506832 0.9661659640403114 0.19440679336763667
vn 0.1694972820506832 0.9661659640403114 0.19440679336763667
vn 0.1694972820506832 0.9661659640403114 0.19440679336763667
vn 0.18431888666639845 0.9504380897426318 0.25038767059189704
vn 0.18431888666639845 0.9504380897426318 0.25038767059189704
vn 0.18431888666639845 0.9504380897426318 0.25038767059189704
vn 0.16737798964700967 0.955243208079394 0.24391601423422996
vn 0.16737798964700967 0.955243208079394 0.24391601423422996
vn 0.16737798964700967 0.955243208079394 0.24391601423422996
f 1//1 2//2 3//3
f 4//4 5//5 6//6
f 7//7 8//8 9//9
f 10//10 11//11 12//12
f 13//13 14//14 15//15
f 16//16 17//17 18//18
f 19//19 20//20 21//21
f 22//22 23//23 24//24
f 25//25 26//26 27//27
f 28//28 29//29 30//30
f 31//31 32//32 33//33
f 34//34 35//35 36//36
f 37//37 38//38 39//39
f 40//40 41//41 42//42
f 43//43 44//44 45//45
f 46//46 47//47 48//48
