o node4
usemtl Face065_002_001_002_001
v 0.08738522976636887 0.07734595984220505 -0.026197420433163643
v 0.08815622329711914 0.07722585648298264 -0.02612362988293171
v 0.08771610260009766 0.07718873023986816 -0.026550401002168655
v 0.08941631764173508 0.07743287086486816 -0.024222780019044876
v 0.0897454023361206 0.07729572057723999 -0.02457069233059883
v 0.08916913717985153 0.07728152722120285 -0.02513580024242401
v 0.08739113062620163 0.07752107828855515 -0.025514110922813416
v 0.08738522976636887 0.07734595984220505 -0.026197420433163643
v 0.08705251663923264 0.07749742269515991 -0.025843311101198196
v 0.08739113062620163 0.07752107828855515 -0.025514110922813416
v 0.08815622329711914 0.07722585648298264 -0.02612362988293171
v 0.08738522976636887 0.07734595984220505 -0.026197420433163643
v 0.08773332089185715 0.07753998041152954 -0.02518007904291153
v 0.08860248327255249 0.07725536078214645 -0.025689229369163513
v 0.08815622329711914 0.07722585648298264 -0.02612362988293171
v 0.08773332089185715 0.07753998041152954 -0.02518007904291153
v 0.08815622329711914 0.07722585648298264 -0.02612362988293171
v 0.08739113062620163 0.07752107828855515 -0.025514110922813416
v 0.08807908743619919 0.07755409926176071 -0.02484225109219551
v 0.08916913717985153 0.07728152722120285 -0.02513580024242401
v 0.08860248327255249 0.07725536078214645 -0.025689229369163513
v 0.08807908743619919 0.07755409926176071 -0.02484225109219551
v 0.08860248327255249 0.07725536078214645 -0.025689229369163513
v 0.08773332089185715 0.07753998041152954 -0.02518007904291153
v 0.08842843025922775 0.07756345719099045 -0.024500001221895218
v 0.08908265084028244 0.07756567001342773 -0.023871110752224922
v 0.08941631764173508 0.07743287086486816 -0.024222780019044876
v 0.08842843025922775 0.07756345719099045 -0.024500001221895218
v 0.08941631764173508 0.07743287086486816 -0.024222780019044876
v 0.08916913717985153 0.07728152722120285 -0.02513580024242401
v 0.08842843025922775 0.07756345719099045 -0.024500001221895218
v 0.08916913717985153 0.07728152722120285 -0.02513580024242401
v 0.08807908743619919 0.07755409926176071 -0.02484225109219551
v 0.0887444019317627 0.0776941105723381 -0.023515628650784492
v 0.08908265084028244 0.07756567001342773 -0.023871110752224922
v 0.08842843025922775 0.07756345719099045 -0.024500001221895218
v 0.08809328079223633 0.07769709080457687 -0.02414672262966633
v 0.0887444019317627 0.0776941105723381 -0.023515628650784492
v 0.08842843025922775 0.07756345719099045 -0.024500001221895218
v 0.08807592839002609 0.07782381027936935 -0.023478077724575996
v 0.08840154856443405 0.07781826704740524 -0.02315645106136799
v 0.0887444019317627 0.0776941105723381 -0.023515628650784492
v 0.08807592839002609 0.07782381027936935 -0.023478077724575996
v 0.0887444019317627 0.0776941105723381 -0.023515628650784492
v 0.08809328079223633 0.07769709080457687 -0.02414672262966633
v 0.08775656670331955 0.07782518118619919 -0.023792849853634834
v 0.08807592839002609 0.07782381027936935 -0.023478077724575996
v 0.08809328079223633 0.07769709080457687 -0.02414672262966633
vn 0.17292386032321175 0.9497436737667776 -0.2609296699704794
vn 0.17292386032321175 0.9497436737667776 -0.2609296699704794
vn 0.17292386032321175 0.9497436737667776 -0.2609296699704794
vn 0.18050537472908618 0.9612847284066653 -0.2082053808767583
vn 0.18050537472908618 0.9612847284066653 -0.2082053808767583
vn 0.18050537472908618 0.9612847284066653 -0.2082053808767583
vn 0.17246540056542775 0.9538198205124225 -0.24593380329970213
vn 0.17246540056542775 0.9538198205124225 -0.24593380329970213
vn 0.17246540056542775 0.9538198205124225 -0.24593380329970213
vn 0.17213079698210168 0.9538798534429969 -0.24593538567248366
vn 0.17213079698210168 0.9538798534429969 -0.24593538567248366
vn 0.17213079698210168 0.9538798534429969 -0.24593538567248366
vn 0.17156398675470946 0.9552067133265292 -0.2411346786855007
vn 0.17156398675470946 0.9552067133265292 -0.2411346786855007
vn 0.17156398675470946 0.9552067133265292 -0.2411346786855007
vn 0.17912660414443377 0.9547079735093255 -0.23758439554272148
vn 0.17912660414443377 0.9547079735093255 -0.23758439554272148
vn 0.17912660414443377 0.9547079735093255 -0.23758439554272148
vn 0.17808960000182675 0.9573271071378185 -0.22761569434097703
vn 0.17808960000182675 0.9573271071378185 -0.22761569434097703
vn 0.17808960000182675 0.9573271071378185 -0.22761569434097703
vn 0.1813349818557129 0.9572053265199011 -0.22555617313059256
vn 0.1813349818557129 0.9572053265199011 -0.22555617313059256
vn 0.1813349818557129 0.9572053265199011 -0.22555617313059256
vn 0.18139730183370878 0.9644642956385328 -0.19210320488195734
vn 0.18139730183370878 0.9644642956385328 -0.19210320488195734
vn 0.18139730183370878 0.9644642956385328 -0.19210320488195734
vn 0.18566638334748875 0.9600418263532492 -0.20939839002958185
vn 0.18566638334748875 0.9600418263532492 -0.20939839002958185
vn 0.18566638334748875 0.9600418263532492 -0.20939839002958185
vn 0.18272489152224086 0.9598711050484041 -0.21274180527423625
vn 0.18272489152224086 0.9598711050484041 -0.21274180527423625
vn 0.18272489152224086 0.9598711050484041 -0.21274180527423625
vn 0.17378109912413264 0.9674089076775558 -0.18417419725175066
vn 0.17378109912413264 0.9674089076775558 -0.18417419725175066
vn 0.17378109912413264 0.9674089076775558 -0.18417419725175066
vn 0.1864912956858792 0.9643294810761386 -0.18785539268497864
vn 0.1864912956858792 0.9643294810761386 -0.18785539268497864
vn 0.1864912956858792 0.9643294810761386 -0.18785539268497864
vn 0.17896579216448846 0.9700143342918653 -0.16444888720586268
vn 0.17896579216448846 0.9700143342918653 -0.16444888720586268
vn 0.17896579216448846 0.9700143342918653 -0.16444888720586268
vn 0.17771376534802866 0.9677054808753577 -0.17878456278330812
vn 0.17771376534802866 0.9677054808753577 -0.17878456278330812
vn 0.17771376534802866 0.9677054808753577 -0.17878456278330812
vn 0.1802231043780097 0.9672688682957794 -0.17863529627191585
vn 0.1802231043780097 0.9672688682957794 -0.17863529627191585
vn 0.1802231043780097 0.9672688682957794 -0.17863529627191585
f 1//1 2//2 3//3
f 4//4 5//5 6//6
f 7//7 8//8 9//9
f 10//10 11//11 12//12
f 13//13 14//14 15//15
f 16//16 17//17 18//18
f 19//19 20//20 21//21
f 22//22 23//23 24//24
f 25//25 26//26 27//27
f 28//28 29//29 30//30
f 31//31 32//32 33//33
f 34//34 35//35 36//36
f 37//37 38//38 39//39
f 40//40 41//41 42//42
f 43//43 44//44 45//45
f 46//46 47//47 48//48
