o node0
usemtl Part__Feature017_001
v 0.004527449142187834 0.07266539335250854 0.08251053094863892
v 0.00571095896884799 0.07315652817487717 0.08222907036542892
v 0.004431008826941252 0.07314550131559372 0.08153270930051804
v 0.005401492118835449 0.07244818657636642 0.0829806923866272
v 0.006165564060211182 0.07259613275527954 0.0828249379992485
v 0.00571095896884799 0.07315652817487717 0.08222907036542892
v 0.0033105609472841024 0.07220803946256638 0.08108741044998169
v 0.0036346910055726767 0.07218687981367111 0.08199714869260788
v 0.003934741020202637 0.07290869206190109 0.08132266253232956
v 0.005401492118835449 0.07244818657636642 0.0829806923866272
v 0.00571095896884799 0.07315652817487717 0.08222907036542892
v 0.004527449142187834 0.07266539335250854 0.08251053094863892
v 0.0036346910055726767 0.07218687981367111 0.08199714869260788
v 0.004527449142187834 0.07266539335250854 0.08251053094863892
v 0.003934741020202637 0.07290869206190109 0.08132266253232956
v 0.004527449142187834 0.07266539335250854 0.08251053094863892
v 0.004431008826941252 0.07314550131559372 0.08153270930051804
v 0.003934741020202637 0.07290869206190109 0.08132266253232956
v 0.0069849491119384766 0.06952118128538132 0.08467298001050949
v 0.00471758795902133 0.0691637322306633 0.08462338894605637
v 0.0019711849745362997 0.06870943307876587 0.08133988827466965
v 0.008984982036054134 0.06984584778547287 0.08352380245923996
v 0.0069849491119384766 0.06952118128538132 0.08467298001050949
v 0.0019711849745362997 0.06870943307876587 0.08133988827466965
v 0.01766352914273739 0.07125090807676315 0.04043852910399437
v 0.00962048675864935 0.06998442858457565 0.013219949789345264
v 0.020778000354766846 0.0718274712562561 0.013176379725337029
v 0.0019711849745362997 0.06870943307876587 0.08133988827466965
v 0.01766352914273739 0.07125090807676315 0.04043852910399437
v 0.012904520146548748 0.0704798623919487 0.07609497755765915
v 0.008984982036054134 0.06984584778547287 0.08352380245923996
v 0.0019711849745362997 0.06870943307876587 0.08133988827466965
v 0.010944659821689129 0.07016336172819138 0.08142440766096115
v 0.0019711849745362997 0.06870943307876587 0.08133988827466965
v 0.00962048675864935 0.06998442858457565 0.013219949789345264
v 0.01766352914273739 0.07125090807676315 0.04043852910399437
v 0.00471758795902133 0.0691637322306633 0.08462338894605637
v 0.003603935008868575 0.06898205727338791 0.08403289318084717
v 0.0026569960173219442 0.0688212513923645 0.08305519074201584
v 0.00471758795902133 0.0691637322306633 0.08462338894605637
v 0.0026569960173219442 0.0688212513923645 0.08305519074201584
v 0.0019711849745362997 0.06870943307876587 0.08133988827466965
v 0.012107189744710922 0.0703514814376831 0.07909982651472092
v 0.0019711849745362997 0.06870943307876587 0.08133988827466965
v 0.012904520146548748 0.0704798623919487 0.07609497755765915
v 0.010944659821689129 0.07016336172819138 0.08142440766096115
v 0.0019711849745362997 0.06870943307876587 0.08133988827466965
v 0.012107189744710922 0.0703514814376831 0.07909982651472092
v 0.00962048675864935 0.06998442858457565 0.013219949789345264
v 0.011115719564259052 0.07311099022626877 0.010156390257179737
v 0.010198590345680714 0.07098770141601562 0.011396050453186035
v 0.0033105609472841024 0.07220803946256638 0.08108741044998169
v 0.011115719564259052 0.07311099022626877 0.010156390257179737
v 0.00962048675864935 0.06998442858457565 0.013219949789345264
v 0.0019711849745362997 0.06870943307876587 0.08133988827466965
v 0.0033105609472841024 0.07220803946256638 0.08108741044998169
v 0.00962048675864935 0.06998442858457565 0.013219949789345264
v 0.006165564060211182 0.07259613275527954 0.0828249379992485
v 0.0069849491119384766 0.06952118128538132 0.08467298001050949
v 0.008984982036054134 0.06984584778547287 0.08352380245923996
v 0.00471758795902133 0.0691637322306633 0.08462338894605637
v 0.005401492118835449 0.07244818657636642 0.0829806923866272
v 0.004527449142187834 0.07266539335250854 0.08251053094863892
v 0.005401492118835449 0.07244818657636642 0.0829806923866272
v 0.0069849491119384766 0.06952118128538132 0.08467298001050949
v 0.006165564060211182 0.07259613275527954 0.0828249379992485
v 0.00471758795902133 0.0691637322306633 0.08462338894605637
v 0.0069849491119384766 0.06952118128538132 0.08467298001050949
v 0.005401492118835449 0.07244818657636642 0.0829806923866272
v 0.003603935008868575 0.06898205727338791 0.08403289318084717
v 0.004527449142187834 0.07266539335250854 0.08251053094863892
v 0.0036346910055726767 0.07218687981367111 0.08199714869260788
v 0.003603935008868575 0.06898205727338791 0.08403289318084717
v 0.00471758795902133 0.0691637322306633 0.08462338894605637
v 0.004527449142187834 0.07266539335250854 0.08251053094863892
v 0.0036346910055726767 0.07218687981367111 0.08199714869260788
v 0.0026569960173219442 0.0688212513923645 0.08305519074201584
v 0.003603935008868575 0.06898205727338791 0.08403289318084717
v 0.0033105609472841024 0.07220803946256638 0.08108741044998169
v 0.0026569960173219442 0.0688212513923645 0.08305519074201584
v 0.0036346910055726767 0.07218687981367111 0.08199714869260788
v 0.0033105609472841024 0.07220803946256638 0.08108741044998169
v 0.0019711849745362997 0.06870943307876587 0.08133988827466965
v 0.0026569960173219442 0.0688212513923645 0.08305519074201584
v 0.010241920128464699 0.07354438304901123 0.07645416259765625
v 0.009800313971936703 0.07323312014341354 0.07873201370239258
v 0.012904520146548748 0.0704798623919487 0.07609497755765915
v 0.01766352914273739 0.07125090807676315 0.04043852910399437
v 0.01870054006576538 0.07484018057584763 0.010147330351173878
v 0.014145850203931332 0.07385700196027756 0.04993432015180588
v 0.01870054006576538 0.07484018057584763 0.010147330351173878
v 0.01766352914273739 0.07125090807676315 0.04043852910399437
v 0.020778000354766846 0.0718274712562561 0.013176379725337029
v 0.011041989549994469 0.07318996638059616 0.07362425327301025
v 0.010241920128464699 0.07354438304901123 0.07645416259765625
v 0.012904520146548748 0.0704798623919487 0.07609497755765915
v 0.020018570125102997 0.0731041431427002 0.010882129892706871
v 0.01870054006576538 0.07484018057584763 0.010147330351173878
v 0.020778000354766846 0.0718274712562561 0.013176379725337029
v 0.0075765252113342285 0.07314819097518921 0.08159053325653076
v 0.006165564060211182 0.07259613275527954 0.0828249379992485
v 0.008984982036054134 0.06984584778547287 0.08352380245923996
v 0.011901729740202427 0.07370477169752121 0.06555687636137009
v 0.011041989549994469 0.07318996638059616 0.07362425327301025
v 0.012904520146548748 0.0704798623919487 0.07609497755765915
v 0.008430302143096924 0.07301037758588791 0.08098077028989792
v 0.0075765252113342285 0.07314819097518921 0.08159053325653076
v 0.008984982036054134 0.06984584778547287 0.08352380245923996
v 0.008430302143096924 0.07301037758588791 0.08098077028989792
v 0.008984982036054134 0.06984584778547287 0.08352380245923996
v 0.010944659821689129 0.07016336172819138 0.08142440766096115
v 0.01291119959205389 0.07377845048904419 0.05860966071486473
v 0.011901729740202427 0.07370477169752121 0.06555687636137009
v 0.012904520146548748 0.0704798623919487 0.07609497755765915
v 0.01291119959205389 0.07377845048904419 0.05860966071486473
v 0.012904520146548748 0.0704798623919487 0.07609497755765915
v 0.01766352914273739 0.07125090807676315 0.04043852910399437
v 0.009800313971936703 0.07323312014341354 0.07873201370239258
v 0.008430302143096924 0.07301037758588791 0.08098077028989792
v 0.010944659821689129 0.07016336172819138 0.08142440766096115
v 0.009800313971936703 0.07323312014341354 0.07873201370239258
v 0.010944659821689129 0.07016336172819138 0.08142440766096115
v 0.012107189744710922 0.0703514814376831 0.07909982651472092
v 0.014145850203931332 0.07385700196027756 0.04993432015180588
v 0.01291119959205389 0.07377845048904419 0.05860966071486473
v 0.01766352914273739 0.07125090807676315 0.04043852910399437
v 0.009800313971936703 0.07323312014341354 0.07873201370239258
v 0.012107189744710922 0.0703514814376831 0.07909982651472092
v 0.012904520146548748 0.0704798623919487 0.07609497755765915
v 0.01870054006576538 0.07484018057584763 0.010147330351173878
v 0.011115719564259052 0.07311099022626877 0.010156390257179737
v 0.012205660343170166 0.07439451664686203 0.01004444994032383
v 0.017627770081162453 0.07525806874036789 0.010096600279211998
v 0.01870054006576538 0.07484018057584763 0.010147330351173878
v 0.012205660343170166 0.07439451664686203 0.01004444994032383
v 0.020778000354766846 0.0718274712562561 0.013176379725337029
v 0.00962048675864935 0.06998442858457565 0.013219949789345264
v 0.010198590345680714 0.07098770141601562 0.011396050453186035
v 0.020018570125102997 0.0731041431427002 0.010882129892706871
v 0.020778000354766846 0.0718274712562561 0.013176379725337029
v 0.010198590345680714 0.07098770141601562 0.011396050453186035
v 0.020018570125102997 0.0731041431427002 0.010882129892706871
v 0.010198590345680714 0.07098770141601562 0.011396050453186035
v 0.011115719564259052 0.07311099022626877 0.010156390257179737
v 0.01870054006576538 0.07484018057584763 0.010147330351173878
v 0.020018570125102997 0.0731041431427002 0.010882129892706871
v 0.011115719564259052 0.07311099022626877 0.010156390257179737
v 0.003934741020202637 0.07290869206190109 0.08132266253232956
v 0.004431008826941252 0.07314550131559372 0.08153270930051804
v 0.012205660343170166 0.07439451664686203 0.01004444994032383
v 0.003934741020202637 0.07290869206190109 0.08132266253232956
v 0.012205660343170166 0.07439451664686203 0.01004444994032383
v 0.011115719564259052 0.07311099022626877 0.010156390257179737
v 0.0033105609472841024 0.07220803946256638 0.08108741044998169
v 0.003934741020202637 0.07290869206190109 0.08132266253232956
v 0.011115719564259052 0.07311099022626877 0.010156390257179737
v 0.007303475867956877 0.07361143082380295 0.08035874366760254
v 0.008911967277526855 0.0737074613571167 0.07868777960538864
v 0.009405015967786312 0.07393109053373337 0.07469820231199265
v 0.0075765252113342285 0.07314819097518921 0.08159053325653076
v 0.009800313971936703 0.07323312014341354 0.07873201370239258
v 0.008911967277526855 0.0737074613571167 0.07868777960538864
v 0.0075765252113342285 0.07314819097518921 0.08159053325653076
v 0.008430302143096924 0.07301037758588791 0.08098077028989792
v 0.009800313971936703 0.07323312014341354 0.07873201370239258
v 0.011209960095584393 0.07394134253263474 0.0670243501663208
v 0.011901729740202427 0.07370477169752121 0.06555687636137009
v 0.011024650186300278 0.07415348291397095 0.06468415260314941
v 0.007303475867956877 0.07361143082380295 0.08035874366760254
v 0.0075765252113342285 0.07314819097518921 0.08159053325653076
v 0.008911967277526855 0.0737074613571167 0.07868777960538864
v 0.010671189986169338 0.07372640818357468 0.07217860221862793
v 0.009884059429168701 0.07399708032608032 0.07153265923261642
v 0.009405015967786312 0.07393109053373337 0.07469820231199265
v 0.0075765252113342285 0.07314819097518921 0.08159053325653076
v 0.00571095896884799 0.07315652817487717 0.08222907036542892
v 0.006165564060211182 0.07259613275527954 0.0828249379992485
v 0.013655359856784344 0.07428306341171265 0.04941004142165184
v 0.01870054006576538 0.07484018057584763 0.010147330351173878
v 0.017627770081162453 0.07525806874036789 0.010096600279211998
v 0.007303475867956877 0.07361143082380295 0.08035874366760254
v 0.00571095896884799 0.07315652817487717 0.08222907036542892
v 0.0075765252113342285 0.07314819097518921 0.08159053325653076
v 0.007303475867956877 0.07361143082380295 0.08035874366760254
v 0.004431008826941252 0.07314550131559372 0.08153270930051804
v 0.00571095896884799 0.07315652817487717 0.08222907036542892
v 0.014898239634931087 0.07481098175048828 0.03299032896757126
v 0.013655359856784344 0.07428306341171265 0.04941004142165184
v 0.017627770081162453 0.07525806874036789 0.010096600279211998
v 0.014898239634931087 0.07481098175048828 0.03299032896757126
v 0.017627770081162453 0.07525806874036789 0.010096600279211998
v 0.015693780034780502 0.07496892660856247 0.024869080632925034
v 0.013655359856784344 0.07428306341171265 0.04941004142165184
v 0.014145850203931332 0.07385700196027756 0.04993432015180588
v 0.01870054006576538 0.07484018057584763 0.010147330351173878
v 0.013935860246419907 0.07465094327926636 0.041035350412130356
v 0.013655359856784344 0.07428306341171265 0.04941004142165184
v 0.014898239634931087 0.07481098175048828 0.03299032896757126
v 0.012956909835338593 0.07446002215147018 0.049814991652965546
v 0.013655359856784344 0.07428306341171265 0.04941004142165184
v 0.013935860246419907 0.07465094327926636 0.041035350412130356
v 0.013655359856784344 0.07428306341171265 0.04941004142165184
v 0.01291119959205389 0.07377845048904419 0.05860966071486473
v 0.014145850203931332 0.07385700196027756 0.04993432015180588
v 0.013655359856784344 0.07428306341171265 0.04941004142165184
v 0.012956909835338593 0.07446002215147018 0.049814991652965546
v 0.011937850154936314 0.07431495189666748 0.05720305070281029
v 0.013655359856784344 0.07428306341171265 0.04941004142165184
v 0.011937850154936314 0.07431495189666748 0.05720305070281029
v 0.01230286993086338 0.07411175221204758 0.05899769067764282
v 0.01291119959205389 0.07377845048904419 0.05860966071486473
v 0.013655359856784344 0.07428306341171265 0.04941004142165184
v 0.01230286993086338 0.07411175221204758 0.05899769067764282
v 0.010241920128464699 0.07354438304901123 0.07645416259765625
v 0.011041989549994469 0.07318996638059616 0.07362425327301025
v 0.010671189986169338 0.07372640818357468 0.07217860221862793
v 0.01230286993086338 0.07411175221204758 0.05899769067764282
v 0.011937850154936314 0.07431495189666748 0.05720305070281029
v 0.011024650186300278 0.07415348291397095 0.06468415260314941
v 0.01230286993086338 0.07411175221204758 0.05899769067764282
v 0.011901729740202427 0.07370477169752121 0.06555687636137009
v 0.01291119959205389 0.07377845048904419 0.05860966071486473
v 0.009405015967786312 0.07393109053373337 0.07469820231199265
v 0.010241920128464699 0.07354438304901123 0.07645416259765625
v 0.010671189986169338 0.07372640818357468 0.07217860221862793
v 0.01230286993086338 0.07411175221204758 0.05899769067764282
v 0.011024650186300278 0.07415348291397095 0.06468415260314941
v 0.011901729740202427 0.07370477169752121 0.06555687636137009
v 0.008911967277526855 0.0737074613571167 0.07868777960538864
v 0.010241920128464699 0.07354438304901123 0.07645416259765625
v 0.009405015967786312 0.07393109053373337 0.07469820231199265
v 0.011209960095584393 0.07394134253263474 0.0670243501663208
v 0.011024650186300278 0.07415348291397095 0.06468415260314941
v 0.009884059429168701 0.07399708032608032 0.07153265923261642
v 0.011209960095584393 0.07394134253263474 0.0670243501663208
v 0.011041989549994469 0.07318996638059616 0.07362425327301025
v 0.011901729740202427 0.07370477169752121 0.06555687636137009
v 0.008911967277526855 0.0737074613571167 0.07868777960538864
v 0.009800313971936703 0.07323312014341354 0.07873201370239258
v 0.010241920128464699 0.07354438304901123 0.07645416259765625
v 0.011209960095584393 0.07394134253263474 0.0670243501663208
v 0.009884059429168701 0.07399708032608032 0.07153265923261642
v 0.010671189986169338 0.07372640818357468 0.07217860221862793
v 0.010671189986169338 0.07372640818357468 0.07217860221862793
v 0.011041989549994469 0.07318996638059616 0.07362425327301025
v 0.011209960095584393 0.07394134253263474 0.0670243501663208
v 0.009405015967786312 0.07393109053373337 0.07469820231199265
v 0.004431008826941252 0.07314550131559372 0.08153270930051804
v 0.007303475867956877 0.07361143082380295 0.08035874366760254
v 0.009884059429168701 0.07399708032608032 0.07153265923261642
v 0.004431008826941252 0.07314550131559372 0.08153270930051804
v 0.009405015967786312 0.07393109053373337 0.07469820231199265
v 0.011024650186300278 0.07415348291397095 0.06468415260314941
v 0.004431008826941252 0.07314550131559372 0.08153270930051804
v 0.009884059429168701 0.07399708032608032 0.07153265923261642
v 0.012205660343170166 0.07439451664686203 0.01004444994032383
v 0.014898239634931087 0.07481098175048828 0.03299032896757126
v 0.015693780034780502 0.07496892660856247 0.024869080632925034
v 0.012205660343170166 0.07439451664686203 0.01004444994032383
v 0.013935860246419907 0.07465094327926636 0.041035350412130356
v 0.014898239634931087 0.07481098175048828 0.03299032896757126
v 0.017627770081162453 0.07525806874036789 0.010096600279211998
v 0.012205660343170166 0.07439451664686203 0.01004444994032383
v 0.015693780034780502 0.07496892660856247 0.024869080632925034
v 0.012205660343170166 0.07439451664686203 0.01004444994032383
v 0.004431008826941252 0.07314550131559372 0.08153270930051804
v 0.011024650186300278 0.07415348291397095 0.06468415260314941
v 0.012205660343170166 0.07439451664686203 0.01004444994032383
v 0.011024650186300278 0.07415348291397095 0.06468415260314941
v 0.011937850154936314 0.07431495189666748 0.05720305070281029
v 0.012205660343170166 0.07439451664686203 0.01004444994032383
v 0.011937850154936314 0.07431495189666748 0.05720305070281029
v 0.012956909835338593 0.07446002215147018 0.049814991652965546
v 0.012205660343170166 0.07439451664686203 0.01004444994032383
v 0.012956909835338593 0.07446002215147018 0.049814991652965546
v 0.013935860246419907 0.07465094327926636 0.041035350412130356
vn -0.25031897163580114 0.8590706496897371 0.44647287855013973
vn -0.25031897163580114 0.8590706496897371 0.44647287855013973
vn -0.25031897163580114 0.8590706496897371 0.44647287855013973
vn -0.0011981719998158033 0.7279980855356962 0.685578115053434
vn -0.0011981719998158033 0.7279980855356962 0.685578115053434
vn -0.0011981719998158033 0.7279980855356962 0.685578115053434
vn -0.7612608470834827 0.5825638021687792 0.28478296841699274
vn -0.7612608470834827 0.5825638021687792 0.28478296841699274
vn -0.7612608470834827 0.5825638021687792 0.28478296841699274
vn -0.15874099269354777 0.7503023525218565 0.6417535952675566
vn -0.15874099269354777 0.7503023525218565 0.6417535952675566
vn -0.15874099269354777 0.7503023525218565 0.6417535952675566
vn -0.607302960763131 0.6623748508479106 0.4386828818321307
vn -0.607302960763131 0.6623748508479106 0.4386828818321307
vn -0.607302960763131 0.6623748508479106 0.4386828818321307
vn -0.5289177728339421 0.740016794785882 0.41547699456794485
vn -0.5289177728339421 0.740016794785882 0.41547699456794485
vn -0.5289177728339421 0.740016794785882 0.41547699456794485
vn 0.15558310074274254 -0.9878011486302094 0.006541370507198137
vn 0.15558310074274254 -0.9878011486302094 0.006541370507198137
vn 0.15558310074274254 -0.9878011486302094 0.006541370507198137
vn 0.16004309223894053 -0.9871099693458114 -0.000342117975282868
vn 0.16004309223894053 -0.9871099693458114 -0.000342117975282868
vn 0.16004309223894053 -0.9871099693458114 -0.000342117975282868
vn 0.16296658204857425 -0.9866290264996469 -0.002248822750732479
vn 0.16296658204857425 -0.9866290264996469 -0.002248822750732479
vn 0.16296658204857425 -0.9866290264996469 -0.002248822750732479
vn 0.1598415816743101 -0.9871426789582292 -0.00001212539787766144
vn 0.1598415816743101 -0.9871426789582292 -0.00001212539787766144
vn 0.1598415816743101 -0.9871426789582292 -0.00001212539787766144
vn 0.15993978172103548 -0.9871267731264448 0
vn 0.15993978172103548 -0.9871267731264448 0
vn 0.15993978172103548 -0.9871267731264448 0
vn 0.1579907867068645 -0.9874403084035508 -0.0007407129312681014
vn 0.1579907867068645 -0.9874403084035508 -0.0007407129312681014
vn 0.1579907867068645 -0.9874403084035508 -0.0007407129312681014
vn 0.15423350247156198 -0.9879481331567946 0.013058059096174045
vn 0.15423350247156198 -0.9879481331567946 0.013058059096174045
vn 0.15423350247156198 -0.9879481331567946 0.013058059096174045
vn 0.1652831927485882 -0.9862445266825519 -0.0017887938791705824
vn 0.1652831927485882 -0.9862445266825519 -0.0017887938791705824
vn 0.1652831927485882 -0.9862445266825519 -0.0017887938791705824
vn 0.15997539140984854 -0.987120966259451 0.0002685410091542745
vn 0.15997539140984854 -0.987120966259451 0.0002685410091542745
vn 0.15997539140984854 -0.987120966259451 0.0002685410091542745
vn 0.15993907959317652 -0.987126881391247 0.00010418098769803491
vn 0.15993907959317652 -0.987126881391247 0.00010418098769803491
vn 0.15993907959317652 -0.987126881391247 0.00010418098769803491
vn -0.9341490865237313 0.33977046610683787 -0.10918568820326507
vn -0.9341490865237313 0.33977046610683787 -0.10918568820326507
vn -0.9341490865237313 0.33977046610683787 -0.10918568820326507
vn -0.9317802095157646 0.3495215737713163 -0.09808318216279627
vn -0.9317802095157646 0.3495215737713163 -0.09808318216279627
vn -0.9317802095157646 0.3495215737713163 -0.09808318216279627
vn -0.9317425433424364 0.34962206868797463 -0.09808283240256149
vn -0.9317425433424364 0.34962206868797463 -0.09808283240256149
vn -0.9317425433424364 0.34962206868797463 -0.09808283240256149
vn 0.3474767847276133 0.5493167110915802 0.7599414681348092
vn 0.3474767847276133 0.5493167110915802 0.7599414681348092
vn 0.3474767847276133 0.5493167110915802 0.7599414681348092
vn -0.32178985548853206 0.47627683698889195 0.8182980285033847
vn -0.32178985548853206 0.47627683698889195 0.8182980285033847
vn -0.32178985548853206 0.47627683698889195 0.8182980285033847
vn 0.07045017323921103 0.5275641785421727 0.8465889265810695
vn 0.07045017323921103 0.5275641785421727 0.8465889265810695
vn 0.07045017323921103 0.5275641785421727 0.8465889265810695
vn -0.09194033463299212 0.46066945141679067 0.8827970499491525
vn -0.09194033463299212 0.46066945141679067 0.8827970499491525
vn -0.09194033463299212 0.46066945141679067 0.8827970499491525
vn -0.6119173751811846 0.42824721242790953 0.664952217079614
vn -0.6119173751811846 0.42824721242790953 0.664952217079614
vn -0.6119173751811846 0.42824721242790953 0.664952217079614
vn -0.47617789787831805 0.43519508550648456 0.7641072222687008
vn -0.47617789787831805 0.43519508550648456 0.7641072222687008
vn -0.47617789787831805 0.43519508550648456 0.7641072222687008
vn -0.6922695759716117 0.3916435907312754 0.6061172593015299
vn -0.6922695759716117 0.3916435907312754 0.6061172593015299
vn -0.6922695759716117 0.3916435907312754 0.6061172593015299
vn -0.8776812983881772 0.35587128325514666 0.32098468532622976
vn -0.8776812983881772 0.35587128325514666 0.32098468532622976
vn -0.8776812983881772 0.35587128325514666 0.32098468532622976
vn -0.8746685544202946 0.35840267592440284 0.32634711856938386
vn -0.8746685544202946 0.35840267592440284 0.32634711856938386
vn -0.8746685544202946 0.35840267592440284 0.32634711856938386
vn 0.7478166034784565 0.6227558694858896 0.2300987930929208
vn 0.7478166034784565 0.6227558694858896 0.2300987930929208
vn 0.7478166034784565 0.6227558694858896 0.2300987930929208
vn 0.7558142820849986 0.6467129826007374 0.10250409324508296
vn 0.7558142820849986 0.6467129826007374 0.10250409324508296
vn 0.7558142820849986 0.6467129826007374 0.10250409324508296
vn 0.7685843308048748 0.6316995783434357 0.10116209350319147
vn 0.7685843308048748 0.6316995783434357 0.10116209350319147
vn 0.7685843308048748 0.6316995783434357 0.10116209350319147
vn 0.7558226528192966 0.6410429429182135 0.13340188461921082
vn 0.7558226528192966 0.6410429429182135 0.13340188461921082
vn 0.7558226528192966 0.6410429429182135 0.13340188461921082
vn 0.773752730350428 0.6266796438124266 0.09262470678165775
vn 0.773752730350428 0.6266796438124266 0.09262470678165775
vn 0.773752730350428 0.6266796438124266 0.09262470678165775
vn 0.39320454004600114 0.583622455644026 0.7104752064324621
vn 0.39320454004600114 0.583622455644026 0.7104752064324621
vn 0.39320454004600114 0.583622455644026 0.7104752064324621
vn 0.762685848729604 0.6351943723433612 0.12181299393302478
vn 0.762685848729604 0.6351943723433612 0.12181299393302478
vn 0.762685848729604 0.6351943723433612 0.12181299393302478
vn 0.5317434004181026 0.5851831957024742 0.6122169415976928
vn 0.5317434004181026 0.5851831957024742 0.6122169415976928
vn 0.5317434004181026 0.5851831957024742 0.6122169415976928
vn 0.5501596519454214 0.5795567829617297 0.6011973824746273
vn 0.5501596519454214 0.5795567829617297 0.6011973824746273
vn 0.5501596519454214 0.5795567829617297 0.6011973824746273
vn 0.7701020308075426 0.6268100197249781 0.11854139073956865
vn 0.7701020308075426 0.6268100197249781 0.11854139073956865
vn 0.7701020308075426 0.6268100197249781 0.11854139073956865
vn 0.776705565490121 0.6188922543748976 0.11705059594648973
vn 0.776705565490121 0.6188922543748976 0.11705059594648973
vn 0.776705565490121 0.6188922543748976 0.11705059594648973
vn 0.63402570537079 0.6298554067126699 0.4486575214614033
vn 0.63402570537079 0.6298554067126699 0.4486575214614033
vn 0.63402570537079 0.6298554067126699 0.4486575214614033
vn 0.6919420185862427 0.6043420280579813 0.3949518401496083
vn 0.6919420185862427 0.6043420280579813 0.3949518401496083
vn 0.6919420185862427 0.6043420280579813 0.3949518401496083
vn 0.7738417542455563 0.6227089291729045 0.11576929175949326
vn 0.7738417542455563 0.6227089291729045 0.11576929175949326
vn 0.7738417542455563 0.6227089291729045 0.11576929175949326
vn 0.7464733572467624 0.6262820239413076 0.22482960972417967
vn 0.7464733572467624 0.6262820239413076 0.22482960972417967
vn 0.7464733572467624 0.6262820239413076 0.22482960972417967
vn 0.023024548295954544 -0.10620169549511106 -0.9940779999827635
vn 0.023024548295954544 -0.10620169549511106 -0.9940779999827635
vn 0.023024548295954544 -0.10620169549511106 -0.9940779999827635
vn 0.02048223822877127 -0.06836580433926956 -0.9974500462249649
vn 0.02048223822877127 -0.06836580433926956 -0.9974500462249649
vn 0.02048223822877127 -0.06836580433926956 -0.9974500462249649
vn 0.14456768443998474 -0.8856240578379775 -0.441327783845812
vn 0.14456768443998474 -0.8856240578379775 -0.441327783845812
vn 0.14456768443998474 -0.8856240578379775 -0.441327783845812
vn 0.154065578522943 -0.8408330643301156 -0.518906114286215
vn 0.154065578522943 -0.8408330643301156 -0.518906114286215
vn 0.154065578522943 -0.8408330643301156 -0.518906114286215
vn 0.06875555292213618 -0.5249858555799802 -0.8483292552914392
vn 0.06875555292213618 -0.5249858555799802 -0.8483292552914392
vn 0.06875555292213618 -0.5249858555799802 -0.8483292552914392
vn 0.07618259005125767 -0.3390736629581967 -0.9376701253965561
vn 0.07618259005125767 -0.3390736629581967 -0.9376701253965561
vn 0.07618259005125767 -0.3390736629581967 -0.9376701253965561
vn -0.42011221496823264 0.9069813328754941 -0.029842731943940642
vn -0.42011221496823264 0.9069813328754941 -0.029842731943940642
vn -0.42011221496823264 0.9069813328754941 -0.029842731943940642
vn -0.7633182348859372 0.6416310619602645 -0.07519875410111984
vn -0.7633182348859372 0.6416310619602645 -0.07519875410111984
vn -0.7633182348859372 0.6416310619602645 -0.07519875410111984
vn -0.7326129640256833 0.676826533453845 -0.07200061495816475
vn -0.7326129640256833 0.676826533453845 -0.07200061495816475
vn -0.7326129640256833 0.676826533453845 -0.07200061495816475
vn -0.0016857979393422727 0.9984430694372906 0.05575477717603799
vn -0.0016857979393422727 0.9984430694372906 0.05575477717603799
vn -0.0016857979393422727 0.9984430694372906 0.05575477717603799
vn 0.42624243175816434 0.8314916908460921 0.3562849385292527
vn 0.42624243175816434 0.8314916908460921 0.3562849385292527
vn 0.42624243175816434 0.8314916908460921 0.3562849385292527
vn 0.3617396095260293 0.8800842855924209 0.3075647982998607
vn 0.3617396095260293 0.8800842855924209 0.3075647982998607
vn 0.3617396095260293 0.8800842855924209 0.3075647982998607
vn 0.41544718143668674 0.9082724581748989 0.0494447283058491
vn 0.41544718143668674 0.9082724581748989 0.0494447283058491
vn 0.41544718143668674 0.9082724581748989 0.0494447283058491
vn 0.2484345876902021 0.923515257904042 0.29223248289269677
vn 0.2484345876902021 0.923515257904042 0.29223248289269677
vn 0.2484345876902021 0.923515257904042 0.29223248289269677
vn 0.27855929535344354 0.9584067992149201 0.06213796094823654
vn 0.27855929535344354 0.9584067992149201 0.06213796094823654
vn 0.27855929535344354 0.9584067992149201 0.06213796094823654
vn 0.20337284100556857 0.7858962009667478 0.5839577457722064
vn 0.20337284100556857 0.7858962009667478 0.5839577457722064
vn 0.20337284100556857 0.7858962009667478 0.5839577457722064
vn 0.3598921016884797 0.9310975115974518 0.0594566988596078
vn 0.3598921016884797 0.9310975115974518 0.0594566988596078
vn 0.3598921016884797 0.9310975115974518 0.0594566988596078
vn 0.11610159930207625 0.9378787800237983 0.3269614849192056
vn 0.11610159930207625 0.9378787800237983 0.3269614849192056
vn 0.11610159930207625 0.9378787800237983 0.3269614849192056
vn -0.0946693958261537 0.9828213622624683 0.15842940186233365
vn -0.0946693958261537 0.9828213622624683 0.15842940186233365
vn -0.0946693958261537 0.9828213622624683 0.15842940186233365
vn 0.2781222741806253 0.9591430956610826 0.051889523511712894
vn 0.2781222741806253 0.9591430956610826 0.051889523511712894
vn 0.2781222741806253 0.9591430956610826 0.051889523511712894
vn -0.003788828086432159 0.9998109169490453 0.019072889955130977
vn -0.003788828086432159 0.9998109169490453 0.019072889955130977
vn -0.003788828086432159 0.9998109169490453 0.019072889955130977
vn 0.5978684528355298 0.7967345255784757 0.08813290449821207
vn 0.5978684528355298 0.7967345255784757 0.08813290449821207
vn 0.5978684528355298 0.7967345255784757 0.08813290449821207
vn 0.26842591800700133 0.9619363177599534 0.05124497162181561
vn 0.26842591800700133 0.9619363177599534 0.05124497162181561
vn 0.26842591800700133 0.9619363177599534 0.05124497162181561
vn 0.27317157181172685 0.9605940507731989 0.05134551560796469
vn 0.27317157181172685 0.9605940507731989 0.05134551560796469
vn 0.27317157181172685 0.9605940507731989 0.05134551560796469
vn 0.5951777065287732 0.7983180237184974 0.09193383847823476
vn 0.5951777065287732 0.7983180237184974 0.09193383847823476
vn 0.5951777065287732 0.7983180237184974 0.09193383847823476
vn 0.27611520406723683 0.9594370556086795 0.056929170096321875
vn 0.27611520406723683 0.9594370556086795 0.056929170096321875
vn 0.27611520406723683 0.9594370556086795 0.056929170096321875
vn 0.26640311057352617 0.9623041811791818 0.05477267166949066
vn 0.26640311057352617 0.9623041811791818 0.05477267166949066
vn 0.26640311057352617 0.9623041811791818 0.05477267166949066
vn 0.521582257052732 0.8485740605841042 0.08873563450825647
vn 0.521582257052732 0.8485740605841042 0.08873563450825647
vn 0.521582257052732 0.8485740605841042 0.08873563450825647
vn 0.6739149003956107 0.7321689627499012 0.09882973748071847
vn 0.6739149003956107 0.7321689627499012 0.09882973748071847
vn 0.6739149003956107 0.7321689627499012 0.09882973748071847
vn 0.2706379560179733 0.9611775760594148 0.05378442193573661
vn 0.2706379560179733 0.9611775760594148 0.05378442193573661
vn 0.2706379560179733 0.9611775760594148 0.05378442193573661
vn 0.5197527847238073 0.8501242737800214 0.08453260851197554
vn 0.5197527847238073 0.8501242737800214 0.08453260851197554
vn 0.5197527847238073 0.8501242737800214 0.08453260851197554
vn 0.2935160726371778 0.9533836342543647 0.07005684149022594
vn 0.2935160726371778 0.9533836342543647 0.07005684149022594
vn 0.2935160726371778 0.9533836342543647 0.07005684149022594
vn 0.3891059527849679 0.9176485106563106 0.08073269720229499
vn 0.3891059527849679 0.9176485106563106 0.08073269720229499
vn 0.3891059527849679 0.9176485106563106 0.08073269720229499
vn 0.26284149620119224 0.9609672548189023 0.08634977151412579
vn 0.26284149620119224 0.9609672548189023 0.08634977151412579
vn 0.26284149620119224 0.9609672548189023 0.08634977151412579
vn 0.2654367677018713 0.9618547528710648 0.06617217490248918
vn 0.2654367677018713 0.9618547528710648 0.06617217490248918
vn 0.2654367677018713 0.9618547528710648 0.06617217490248918
vn 0.5217561002773488 0.8460261026285686 0.10959199557671995
vn 0.5217561002773488 0.8460261026285686 0.10959199557671995
vn 0.5217561002773488 0.8460261026285686 0.10959199557671995
vn 0.45286987792877914 0.8673730816829626 0.20633179792890297
vn 0.45286987792877914 0.8673730816829626 0.20633179792890297
vn 0.45286987792877914 0.8673730816829626 0.20633179792890297
vn 0.2735920891141123 0.9593960203442066 0.06860499196030995
vn 0.2735920891141123 0.9593960203442066 0.06860499196030995
vn 0.2735920891141123 0.9593960203442066 0.06860499196030995
vn 0.6705648159820835 0.7349797330290869 0.10073539399539014
vn 0.6705648159820835 0.7349797330290869 0.10073539399539014
vn 0.6705648159820835 0.7349797330290869 0.10073539399539014
vn -0.1618511788922401 0.9868055357204392 -0.0043624033157468045
vn -0.1618511788922401 0.9868055357204392 -0.0043624033157468045
vn -0.1618511788922401 0.9868055357204392 -0.0043624033157468045
vn -0.16110770727092374 0.9869294960326936 -0.0038048020394928373
vn -0.16110770727092374 0.9869294960326936 -0.0038048020394928373
vn -0.16110770727092374 0.9869294960326936 -0.0038048020394928373
vn -0.16235602282079342 0.986721955986939 -0.004505932436567928
vn -0.16235602282079342 0.986721955986939 -0.004505932436567928
vn -0.16235602282079342 0.986721955986939 -0.004505932436567928
vn -0.17202739185604096 0.9850894675947139 0.002305923930011611
vn -0.17202739185604096 0.9850894675947139 0.002305923930011611
vn -0.17202739185604096 0.9850894675947139 0.002305923930011611
vn -0.15851050248995374 0.9873570571650903 0.000679901959960264
vn -0.15851050248995374 0.9873570571650903 0.000679901959960264
vn -0.15851050248995374 0.9873570571650903 0.000679901959960264
vn -0.15727200069226616 0.9875545191481813 -0.001260757017116764
vn -0.15727200069226616 0.9875545191481813 -0.001260757017116764
vn -0.15727200069226616 0.9875545191481813 -0.001260757017116764
vn -0.14822350102053586 0.9889532100565122 0.001158474917930616
vn -0.14822350102053586 0.9889532100565122 0.001158474917930616
vn -0.14822350102053586 0.9889532100565122 0.001158474917930616
vn -0.1684923929858159 0.9857027009523124 0.0007062869316549353
vn -0.1684923929858159 0.9857027009523124 0.0007062869316549353
vn -0.1684923929858159 0.9857027009523124 0.0007062869316549353
vn -0.1344791932495103 0.990916001706764 0.0009078240144856601
vn -0.1344791932495103 0.990916001706764 0.0009078240144856601
vn -0.1344791932495103 0.990916001706764 0.0009078240144856601
vn -0.17659448166731115 0.9842822000000397 0.001714586753667917
vn -0.17659448166731115 0.9842822000000397 0.001714586753667917
vn -0.17659448166731115 0.9842822000000397 0.001714586753667917
f 1//1 2//2 3//3
f 4//4 5//5 6//6
f 7//7 8//8 9//9
f 10//10 11//11 12//12
f 13//13 14//14 15//15
f 16//16 17//17 18//18
f 19//19 20//20 21//21
f 22//22 23//23 24//24
f 25//25 26//26 27//27
f 28//28 29//29 30//30
f 31//31 32//32 33//33
f 34//34 35//35 36//36
f 37//37 38//38 39//39
f 40//40 41//41 42//42
f 43//43 44//44 45//45
f 46//46 47//47 48//48
f 49//49 50//50 51//51
f 52//52 53//53 54//54
f 55//55 56//56 57//57
f 58//58 59//59 60//60
f 61//61 62//62 63//63
f 64//64 65//65 66//66
f 67//67 68//68 69//69
f 70//70 71//71 72//72
f 73//73 74//74 75//75
f 76//76 77//77 78//78
f 79//79 80//80 81//81
f 82//82 83//83 84//84
f 85//85 86//86 87//87
f 88//88 89//89 90//90
f 91//91 92//92 93//93
f 94//94 95//95 96//96
f 97//97 98//98 99//99
f 100//100 101//101 102//102
f 103//103 104//104 105//105
f 106//106 107//107 108//108
f 109//109 110//110 111//111
f 112//112 113//113 114//114
f 115//115 116//116 117//117
f 118//118 119//119 120//120
f 121//121 122//122 123//123
f 124//124 125//125 126//126
f 127//127 128//128 129//129
f 130//130 131//131 132//132
f 133//133 134//134 135//135
f 136//136 137//137 138//138
f 139//139 140//140 141//141
f 142//142 143//143 144//144
f 145//145 146//146 147//147
f 148//148 149//149 150//150
f 151//151 152//152 153//153
f 154//154 155//155 156//156
f 157//157 158//158 159//159
f 160//160 161//161 162//162
f 163//163 164//164 165//165
f 166//166 167//167 168//168
f 169//169 170//170 171//171
f 172//172 173//173 174//174
f 175//175 176//176 177//177
f 178//178 179//179 180//180
f 181//181 182//182 183//183
f 184//184 185//185 186//186
f 187//187 188//188 189//189
f 190//190 191//191 192//192
f 193//193 194//194 195//195
f 196//196 197//197 198//198
f 199//199 200//200 201//201
f 202//202 203//203 204//204
f 205//205 206//206 207//207
f 208//208 209//209 210//210
f 211//211 212//212 213//213
f 214//214 215//215 216//216
f 217//217 218//218 219//219
f 220//220 221//221 222//222
f 223//223 224//224 225//225
f 226//226 227//227 228//228
f 229//229 230//230 231//231
f 232//232 233//233 234//234
f 235//235 236//236 237//237
f 238//238 239//239 240//240
f 241//241 242//242 243//243
f 244//244 245//245 246//246
f 247//247 248//248 249//249
f 250//250 251//251 252//252
f 253//253 254//254 255//255
f 256//256 257//257 258//258
f 259//259 260//260 261//261
f 262//262 263//263 264//264
f 265//265 266//266 267//267
f 268//268 269//269 270//270
f 271//271 272//272 273//273
f 274//274 275//275 276//276
