o node5
usemtl Face374_002_001_002_001
v 0.08914226293563843 0.07657860964536667 0.0027381302788853645
v 0.08799797296524048 0.07681626081466675 0.0038793208077549934
v 0.08973579853773117 0.07656890153884888 0.004698219709098339
v 0.08857952803373337 0.07664471119642258 0.0017581703141331673
v 0.0869855210185051 0.07696156948804855 0.002843269146978855
v 0.08837907761335373 0.07670032232999802 0.00253117922693491
v 0.08991830796003342 0.0764346718788147 -0.002036210149526596
v 0.08829628676176071 0.07668644189834595 -0.0013689296320080757
v 0.08936572074890137 0.07649897783994675 -0.00045335013419389725
v 0.0856974720954895 0.07716751098632812 0.0001368001103401184
v 0.085933618247509 0.07712774723768234 0.0011045997962355614
v 0.0867486521601677 0.07696568220853806 0.0011775000020861626
v 0.08775591105222702 0.07685244083404541 -0.0037491796538233757
v 0.08715450018644333 0.07692182064056396 -0.002576880156993866
v 0.08918178081512451 0.07658206671476364 -0.0031556999310851097
v 0.08329588174819946 0.07770781964063644 -0.0012944899499416351
v 0.08413124084472656 0.07750511169433594 -0.0005564000457525253
v 0.08342497795820236 0.07768476009368896 -0.0017105303704738617
v 0.08342497795820236 0.07768476009368896 -0.0017105303704738617
v 0.08413124084472656 0.07750511169433594 -0.0005564000457525253
v 0.08503787964582443 0.07733868807554245 -0.0024741804227232933
v 0.0867486521601677 0.07696568220853806 0.0011775000020861626
v 0.0869855210185051 0.07696156948804855 0.002843269146978855
v 0.08857952803373337 0.07664471119642258 0.0017581703141331673
v 0.08520834892988205 0.07727295160293579 -0.0007293699309229851
v 0.08413124084472656 0.07750511169433594 -0.0005564000457525253
v 0.08534436672925949 0.07724142074584961 0.00006510037928819656
v 0.085933618247509 0.07712774723768234 0.0011045997962355614
v 0.0857737585902214 0.07716970890760422 0.0017190100625157356
v 0.0867486521601677 0.07696568220853806 0.0011775000020861626
v 0.08918178081512451 0.07658206671476364 -0.0031556999310851097
v 0.0874471589922905 0.0768539309501648 -0.0020575998350977898
v 0.08829628676176071 0.07668644189834595 -0.0013689296320080757
v 0.08715450018644333 0.07692182064056396 -0.002576880156993866
v 0.0874471589922905 0.0768539309501648 -0.0020575998350977898
v 0.08918178081512451 0.07658206671476364 -0.0031556999310851097
v 0.08837907761335373 0.07670032232999802 0.00253117922693491
v 0.0869855210185051 0.07696156948804855 0.002843269146978855
v 0.08799797296524048 0.07681626081466675 0.0038793208077549934
v 0.09158802032470703 0.07617270201444626 0.000437149778008461
v 0.09061019867658615 0.07633817195892334 0.0022881096228957176
v 0.09251456707715988 0.07607995718717575 0.0021131103858351707
v 0.0895310565829277 0.07647287100553513 -0.0003046896308660507
v 0.08908683061599731 0.07654476165771484 0.0006016604602336884
v 0.09029465168714523 0.07635337114334106 -0.00009767990559339523
v 0.08973579853773117 0.07656890153884888 0.004698219709098339
v 0.08890712261199951 0.07671809196472168 0.004924009554088116
v 0.08932650089263916 0.07664424180984497 0.004829240031540394
v 0.08799797296524048 0.07681626081466675 0.0038793208077549934
v 0.08890712261199951 0.07671809196472168 0.004924009554088116
v 0.08973579853773117 0.07656890153884888 0.004698219709098339
v 0.08936572074890137 0.07649897783994675 -0.00045335013419389725
v 0.08908683061599731 0.07654476165771484 0.0006016604602336884
v 0.0895310565829277 0.07647287100553513 -0.0003046896308660507
v 0.08413124084472656 0.07750511169433594 -0.0005564000457525253
v 0.08329421281814575 0.07770030945539474 0.0012940196320414543
v 0.08534436672925949 0.07724142074584961 0.00006510037928819656
v 0.09251456707715988 0.07607995718717575 0.0021131103858351707
v 0.0920855924487114 0.07615696638822556 0.002867770381271839
v 0.09231644123792648 0.07611721009016037 0.0024999501183629036
v 0.08829628676176071 0.07668644189834595 -0.0013689296320080757
v 0.08813600987195969 0.07670307159423828 0.0004249904304742813
v 0.08936572074890137 0.07649897783994675 -0.00045335013419389725
v 0.08329588174819946 0.07770781964063644 -0.0012944899499416351
v 0.08320289105176926 0.07772403210401535 -0.0008683102205395699
v 0.08413124084472656 0.07750511169433594 -0.0005564000457525253
v 0.0859706923365593 0.07723300904035568 -0.004531789571046829
v 0.08503787964582443 0.07733868807554245 -0.0024741804227232933
v 0.08775591105222702 0.07685244083404541 -0.0037491796538233757
v 0.0874471589922905 0.0768539309501648 -0.0020575998350977898
v 0.08707904070615768 0.0769117996096611 -0.0016021700575947762
v 0.08829628676176071 0.07668644189834595 -0.0013689296320080757
v 0.08559005707502365 0.07730317115783691 -0.004330149851739407
v 0.08522766083478928 0.07736659049987793 -0.004095899872481823
v 0.0859706923365593 0.07723300904035568 -0.004531789571046829
v 0.08799797296524048 0.07681626081466675 0.0038793208077549934
v 0.08848123997449875 0.07679300755262375 0.00498098973184824
v 0.08890712261199951 0.07671809196472168 0.004924009554088116
v 0.08534436672925949 0.07724142074584961 0.00006510037928819656
v 0.08329421281814575 0.07770030945539474 0.0012940196320414543
v 0.08518368005752563 0.0772784873843193 0.0006801001727581024
v 0.0874471589922905 0.0768539309501648 -0.0020575998350977898
v 0.08693504333496094 0.07694195955991745 -0.0017576096579432487
v 0.08707904070615768 0.0769117996096611 -0.0016021700575947762
v 0.08320289105176926 0.07772403210401535 -0.0008683102205395699
v 0.08314675092697144 0.07773386687040329 -0.0004357602447271347
v 0.08413124084472656 0.07750511169433594 -0.0005564000457525253
v 0.0867486521601677 0.07696568220853806 0.0011775000020861626
v 0.08538371324539185 0.0772782489657402 0.002796120010316372
v 0.0869855210185051 0.07696156948804855 0.002843269146978855
v 0.0857737585902214 0.07716970890760422 0.0017190100625157356
v 0.08538371324539185 0.0772782489657402 0.002796120010316372
v 0.0867486521601677 0.07696568220853806 0.0011775000020861626
v 0.09029465168714523 0.07635337114334106 -0.00009767990559339523
v 0.09061019867658615 0.07633817195892334 0.0022881096228957176
v 0.09158802032470703 0.07617270201444626 0.000437149778008461
v 0.09251456707715988 0.07607995718717575 0.0021131103858351707
v 0.09061019867658615 0.07633817195892334 0.0022881096228957176
v 0.0920855924487114 0.07615696638822556 0.002867770381271839
v 0.09121721237897873 0.07631105184555054 -0.003830539993941784
v 0.0918237492442131 0.07620137184858322 -0.0032141702249646187
v 0.09153395146131516 0.076255202293396 -0.003535560332238674
v 0.0918237492442131 0.07620137184858322 -0.0032141702249646187
v 0.09231626242399216 0.07611554116010666 -0.002500469796359539
v 0.09208565205335617 0.07615792006254196 -0.0028679296374320984
v 0.09087646007537842 0.07637113332748413 -0.004095899872481823
v 0.08918178081512451 0.07658206671476364 -0.0031556999310851097
v 0.09121721237897873 0.07631105184555054 -0.003830539993941784
v 0.09051412343978882 0.07643502205610275 -0.004330149851739407
v 0.08918178081512451 0.07658206671476364 -0.0031556999310851097
v 0.09087646007537842 0.07637113332748413 -0.004095899872481823
v 0.09013307094573975 0.07650195807218552 -0.0045316098257899284
v 0.08918178081512451 0.07658206671476364 -0.0031556999310851097
v 0.09051412343978882 0.07643502205610275 -0.004330149851739407
v 0.08775591105222702 0.07685244083404541 -0.0037491796538233757
v 0.08503787964582443 0.07733868807554245 -0.0024741804227232933
v 0.08715450018644333 0.07692182064056396 -0.002576880156993866
v 0.08518368005752563 0.0772784873843193 0.0006801001727581024
v 0.08329421281814575 0.07770030945539474 0.0012940196320414543
v 0.0857737585902214 0.07716970890760422 0.0017190100625157356
v 0.0925147533416748 0.07608193159103394 -0.0021133897826075554
v 0.09165149182081223 0.07617360353469849 -0.001334180124104023
v 0.09267920255661011 0.07605326175689697 -0.0017104698345065117
v 0.08829628676176071 0.07668644189834595 -0.0013689296320080757
v 0.08804333209991455 0.07671952247619629 0.0005249502137303352
v 0.08813600987195969 0.07670307159423828 0.0004249904304742813
v 0.08522766083478928 0.07736659049987793 -0.004095899872481823
v 0.08503787964582443 0.07733868807554245 -0.0024741804227232933
v 0.0859706923365593 0.07723300904035568 -0.004531789571046829
v 0.0897362232208252 0.07657217234373093 -0.004698869772255421
v 0.08918178081512451 0.07658206671476364 -0.0031556999310851097
v 0.09013307094573975 0.07650195807218552 -0.0045316098257899284
v 0.0920855924487114 0.07615696638822556 0.002867770381271839
v 0.09061019867658615 0.07633817195892334 0.0022881096228957176
v 0.09182416647672653 0.07620400190353394 0.003213890828192234
v 0.09165149182081223 0.07617360353469849 -0.001334180124104023
v 0.09280835837125778 0.07603030651807785 -0.0012944899499416351
v 0.09267920255661011 0.07605326175689697 -0.0017104698345065117
v 0.08314675092697144 0.07773386687040329 -0.0004357602447271347
v 0.08312802761793137 0.07773721218109131 -5.029141902923584e-8
v 0.08413124084472656 0.07750511169433594 -0.0005564000457525253
v 0.09121721237897873 0.07631105184555054 -0.003830539993941784
v 0.08918178081512451 0.07658206671476364 -0.0031556999310851097
v 0.0918237492442131 0.07620137184858322 -0.0032141702249646187
v 0.08932656049728394 0.07664430141448975 -0.004829692654311657
v 0.08918178081512451 0.07658206671476364 -0.0031556999310851097
v 0.0897362232208252 0.07657217234373093 -0.004698869772255421
v 0.09231626242399216 0.07611554116010666 -0.002500469796359539
v 0.09165149182081223 0.07617360353469849 -0.001334180124104023
v 0.0925147533416748 0.07608193159103394 -0.0021133897826075554
v 0.08457028120756149 0.07748305052518845 -0.003535560332238674
v 0.08503787964582443 0.07733868807554245 -0.0024741804227232933
v 0.08488702028989792 0.0774272009730339 -0.003830539993941784
v 0.08488702028989792 0.0774272009730339 -0.003830539993941784
v 0.08503787964582443 0.07733868807554245 -0.0024741804227232933
v 0.08522766083478928 0.07736659049987793 -0.004095899872481823
v 0.08707904070615768 0.0769117996096611 -0.0016021700575947762
v 0.08804333209991455 0.07671952247619629 0.0005249502137303352
v 0.08829628676176071 0.07668644189834595 -0.0013689296320080757
v 0.08799797296524048 0.07681626081466675 0.0038793208077549934
v 0.08805208653211594 0.07686907052993774 0.0049996403977274895
v 0.08848123997449875 0.07679300755262375 0.00498098973184824
v 0.08890712261199951 0.07671797275543213 -0.00492410734295845
v 0.08918178081512451 0.07658206671476364 -0.0031556999310851097
v 0.08932656049728394 0.07664430141448975 -0.004829692654311657
v 0.0876230001449585 0.07694482058286667 0.0049809301272034645
v 0.08805208653211594 0.07686907052993774 0.0049996403977274895
v 0.08799797296524048 0.07681626081466675 0.0038793208077549934
v 0.0918237492442131 0.07620137184858322 -0.0032141702249646187
v 0.09165149182081223 0.07617360353469849 -0.001334180124104023
v 0.09231626242399216 0.07611554116010666 -0.002500469796359539
v 0.0869855210185051 0.07696156948804855 0.002843269146978855
v 0.08597075194120407 0.07723294943571091 0.004531809128820896
v 0.08799797296524048 0.07681626081466675 0.0038793208077549934
v 0.08715450018644333 0.07692182064056396 -0.002576880156993866
v 0.08503787964582443 0.07733868807554245 -0.0024741804227232933
v 0.08693504333496094 0.07694195955991745 -0.0017576096579432487
v 0.08413124084472656 0.07750511169433594 -0.0005564000457525253
v 0.08314675092697144 0.07773386687040329 0.00043572019785642624
v 0.08329421281814575 0.07770030945539474 0.0012940196320414543
v 0.08312802761793137 0.07773721218109131 -5.029141902923584e-8
v 0.08314675092697144 0.07773386687040329 0.00043572019785642624
v 0.08413124084472656 0.07750511169433594 -0.0005564000457525253
v 0.08890712261199951 0.07671797275543213 -0.00492410734295845
v 0.08775591105222702 0.07685244083404541 -0.0037491796538233757
v 0.08918178081512451 0.07658206671476364 -0.0031556999310851097
v 0.09280835837125778 0.07603030651807785 -0.0012944899499416351
v 0.09165149182081223 0.07617360353469849 -0.001334180124104023
v 0.09290134161710739 0.07601373642683029 -0.0008682496845722198
v 0.09029465168714523 0.07635337114334106 -0.00009767990559339523
v 0.08877027034759521 0.07661396265029907 0.0018100207671523094
v 0.09061019867658615 0.07633817195892334 0.0022881096228957176
v 0.08908683061599731 0.07654476165771484 0.0006016604602336884
v 0.08877027034759521 0.07661396265029907 0.0018100207671523094
v 0.09029465168714523 0.07635337114334106 -0.00009767990559339523
v 0.09061019867658615 0.07633817195892334 0.0022881096228957176
v 0.0915338322520256 0.07625436037778854 0.0035355808213353157
v 0.09182416647672653 0.07620400190353394 0.003213890828192234
v 0.09290134161710739 0.07601373642683029 -0.0008682496845722198
v 0.0929759070277214 0.07599841803312302 5.997717380523682e-7
v 0.09295742958784103 0.07600408047437668 -0.0004357602447271347
v 0.08918178081512451 0.07658206671476364 -0.0031556999310851097
v 0.08991830796003342 0.0764346718788147 -0.002036210149526596
v 0.0918237492442131 0.07620137184858322 -0.0032141702249646187
v 0.08693504333496094 0.07694195955991745 -0.0017576096579432487
v 0.08654683083295822 0.07699763029813766 -0.0003632204607129097
v 0.08707904070615768 0.0769117996096611 -0.0016021700575947762
v 0.08799797296524048 0.07681626081466675 0.0038793208077549934
v 0.08719699829816818 0.07701939344406128 0.004924069158732891
v 0.0876230001449585 0.07694482058286667 0.0049809301272034645
v 0.08503787964582443 0.07733868807554245 -0.0024741804227232933
v 0.08605778217315674 0.07710330933332443 -0.0012295795604586601
v 0.08693504333496094 0.07694195955991745 -0.0017576096579432487
v 0.08848123997449875 0.0767931267619133 -0.004981028847396374
v 0.08775591105222702 0.07685244083404541 -0.0037491796538233757
v 0.08890712261199951 0.07671797275543213 -0.00492410734295845
v 0.08314675092697144 0.07773386687040329 0.00043572019785642624
v 0.08320289105176926 0.07772403210401535 0.0008682692423462868
v 0.08329421281814575 0.07770030945539474 0.0012940196320414543
v 0.08457028120756149 0.07748305052518845 -0.003535560332238674
v 0.08428000658750534 0.0775337815284729 -0.0032139895483851433
v 0.08503787964582443 0.07733868807554245 -0.0024741804227232933
v 0.08805208653211594 0.07686907052993774 -0.005000042729079723
v 0.08775591105222702 0.07685244083404541 -0.0037491796538233757
v 0.08848123997449875 0.0767931267619133 -0.004981028847396374
v 0.08693504333496094 0.07694195955991745 -0.0017576096579432487
v 0.08605778217315674 0.07710330933332443 -0.0012295795604586601
v 0.08654683083295822 0.07699763029813766 -0.0003632204607129097
v 0.09165149182081223 0.07617360353469849 -0.001334180124104023
v 0.0929759070277214 0.07599841803312302 5.997717380523682e-7
v 0.09290134161710739 0.07601373642683029 -0.0008682496845722198
v 0.08538371324539185 0.0772782489657402 0.002796120010316372
v 0.08597075194120407 0.07723294943571091 0.004531809128820896
v 0.0869855210185051 0.07696156948804855 0.002843269146978855
v 0.08707904070615768 0.0769117996096611 -0.0016021700575947762
v 0.08654683083295822 0.07699763029813766 -0.0003632204607129097
v 0.08661890029907227 0.07698488235473633 0.0001368001103401184
v 0.08597075194120407 0.07723294943571091 0.004531809128820896
v 0.08677767962217331 0.07709372043609619 0.004829240031540394
v 0.08799797296524048 0.07681626081466675 0.0038793208077549934
v 0.08799797296524048 0.07681626081466675 0.0038793208077549934
v 0.08677767962217331 0.07709372043609619 0.004829240031540394
v 0.08719699829816818 0.07701939344406128 0.004924069158732891
v 0.08329421281814575 0.07770030945539474 0.0012940196320414543
v 0.08538371324539185 0.0772782489657402 0.002796120010316372
v 0.0857737585902214 0.07716970890760422 0.0017190100625157356
v 0.0918237492442131 0.07620137184858322 -0.0032141702249646187
v 0.08991830796003342 0.0764346718788147 -0.002036210149526596
v 0.09165149182081223 0.07617360353469849 -0.001334180124104023
v 0.08488702028989792 0.0774272009730339 0.003829839639365673
v 0.08538371324539185 0.0772782489657402 0.002796120010316372
v 0.08457016199827194 0.07748252153396606 0.003535519354045391
v 0.0915338322520256 0.07625436037778854 0.0035355808213353157
v 0.09087604284286499 0.07636778801679611 0.004095860756933689
v 0.09121721237897873 0.07631105184555054 0.003829839639365673
v 0.09061019867658615 0.07633817195892334 0.0022881096228957176
v 0.09087604284286499 0.07636778801679611 0.004095860756933689
v 0.0915338322520256 0.07625436037778854 0.0035355808213353157
v 0.08597075194120407 0.07723294943571091 0.004531809128820896
v 0.08636801689863205 0.07716590166091919 0.004698100499808788
v 0.08677767962217331 0.07709372043609619 0.004829240031540394
v 0.08813600987195969 0.07670307159423828 0.0004249904304742813
v 0.08804333209991455 0.07671952247619629 0.0005249502137303352
v 0.08877027034759521 0.07661396265029907 0.0018100207671523094
v 0.0876230001449585 0.07694482058286667 -0.004981028847396374
v 0.08775591105222702 0.07685244083404541 -0.0037491796538233757
v 0.08805208653211594 0.07686907052993774 -0.005000042729079723
v 0.08428007364273071 0.0775342509150505 0.003213890828192234
v 0.08538371324539185 0.0772782489657402 0.002796120010316372
v 0.08401858061552048 0.0775802731513977 0.002867770381271839
v 0.08329421281814575 0.07770030945539474 0.0012940196320414543
v 0.08342497795820236 0.07768476009368896 0.0017099501565098763
v 0.08358942717313766 0.07765603065490723 0.0021130507811903954
v 0.08538371324539185 0.0772782489657402 0.002796120010316372
v 0.0852276012301445 0.07736653089523315 0.004095739684998989
v 0.08597075194120407 0.07723294943571091 0.004531809128820896
v 0.08597075194120407 0.07723294943571091 0.004531809128820896
v 0.0852276012301445 0.07736653089523315 0.004095739684998989
v 0.08559005707502365 0.07730317115783691 0.004330110736191273
v 0.08329421281814575 0.07770030945539474 0.0012940196320414543
v 0.08378767222166061 0.07762067764997482 0.0024999501183629036
v 0.08538371324539185 0.0772782489657402 0.002796120010316372
v 0.08358942717313766 0.07765603065490723 0.0021130507811903954
v 0.08378767222166061 0.07762067764997482 0.0024999501183629036
v 0.08329421281814575 0.07770030945539474 0.0012940196320414543
v 0.08488702028989792 0.0774272009730339 0.003829839639365673
v 0.0852276012301445 0.07736653089523315 0.004095739684998989
v 0.08538371324539185 0.0772782489657402 0.002796120010316372
v 0.08428007364273071 0.0775342509150505 0.003213890828192234
v 0.08457016199827194 0.07748252153396606 0.003535519354045391
v 0.08538371324539185 0.0772782489657402 0.002796120010316372
v 0.08401858061552048 0.07758033275604248 -0.0028679296374320984
v 0.08503787964582443 0.07733868807554245 -0.0024741804227232933
v 0.08428000658750534 0.0775337815284729 -0.0032139895483851433
v 0.08378767222166061 0.07762067764997482 0.0024999501183629036
v 0.08401858061552048 0.0775802731513977 0.002867770381271839
v 0.08538371324539185 0.0772782489657402 0.002796120010316372
v 0.09165149182081223 0.07617360353469849 -0.001334180124104023
v 0.09158802032470703 0.07617270201444626 0.000437149778008461
v 0.0929759070277214 0.07599841803312302 5.997717380523682e-7
v 0.08877027034759521 0.07661396265029907 0.0018100207671523094
v 0.08914226293563843 0.07657860964536667 0.0027381302788853645
v 0.09061019867658615 0.07633817195892334 0.0022881096228957176
v 0.08804333209991455 0.07671952247619629 0.0005249502137303352
v 0.08857952803373337 0.07664471119642258 0.0017581703141331673
v 0.08877027034759521 0.07661396265029907 0.0018100207671523094
v 0.0876230001449585 0.07694482058286667 -0.004981028847396374
v 0.08719699829816818 0.07701945304870605 -0.00492410734295845
v 0.08775591105222702 0.07685244083404541 -0.0037491796538233757
v 0.09295742958784103 0.07600414007902145 0.00043572019785642624
v 0.0929759070277214 0.07599841803312302 5.997717380523682e-7
v 0.09290134161710739 0.07601398229598999 0.000868150033056736
v 0.08857952803373337 0.07664471119642258 0.0017581703141331673
v 0.08914226293563843 0.07657860964536667 0.0027381302788853645
v 0.08877027034759521 0.07661396265029907 0.0018100207671523094
v 0.08503787964582443 0.07733868807554245 -0.0024741804227232933
v 0.08520834892988205 0.07727295160293579 -0.0007293699309229851
v 0.08605778217315674 0.07710330933332443 -0.0012295795604586601
v 0.09061019867658615 0.07633817195892334 0.0022881096228957176
v 0.08914226293563843 0.07657860964536667 0.0027381302788853645
v 0.09087604284286499 0.07636778801679611 0.004095860756933689
v 0.08401858061552048 0.07758033275604248 -0.0028679296374320984
v 0.08378773182630539 0.0776207372546196 -0.0025000497698783875
v 0.08503787964582443 0.07733868807554245 -0.0024741804227232933
v 0.08661890029907227 0.07698488235473633 0.0001368001103401184
v 0.0867486521601677 0.07696568220853806 0.0011775000020861626
v 0.08804333209991455 0.07671952247619629 0.0005249502137303352
v 0.08991830796003342 0.0764346718788147 -0.002036210149526596
v 0.09050065279006958 0.07632958143949509 -0.0008707595989108086
v 0.09165149182081223 0.07617360353469849 -0.001334180124104023
v 0.0929759070277214 0.07599841803312302 5.997717380523682e-7
v 0.09280835837125778 0.07603024691343307 0.0012938501313328743
v 0.09290134161710739 0.07601398229598999 0.000868150033056736
v 0.08358942717313766 0.07765603065490723 -0.0021133897826075554
v 0.08503787964582443 0.07733868807554245 -0.0024741804227232933
v 0.08378773182630539 0.0776207372546196 -0.0025000497698783875
v 0.08654683083295822 0.07699763029813766 -0.0003632204607129097
v 0.0856974720954895 0.07716751098632812 0.0001368001103401184
v 0.08661890029907227 0.07698488235473633 0.0001368001103401184
v 0.09087604284286499 0.07636778801679611 0.004095860756933689
v 0.09013307094573975 0.07650195807218552 0.00453150924295187
v 0.09051412343978882 0.07643502205610275 0.004330110736191273
v 0.08914226293563843 0.07657860964536667 0.0027381302788853645
v 0.08973579853773117 0.07656890153884888 0.004698219709098339
v 0.09087604284286499 0.07636778801679611 0.004095860756933689
v 0.0929759070277214 0.07599841803312302 5.997717380523682e-7
v 0.09158802032470703 0.07617270201444626 0.000437149778008461
v 0.09280835837125778 0.07603024691343307 0.0012938501313328743
v 0.0867486521601677 0.07696568220853806 0.0011775000020861626
v 0.08857952803373337 0.07664471119642258 0.0017581703141331673
v 0.08804333209991455 0.07671952247619629 0.0005249502137303352
v 0.08503787964582443 0.07733868807554245 -0.0024741804227232933
v 0.08413124084472656 0.07750511169433594 -0.0005564000457525253
v 0.08520834892988205 0.07727295160293579 -0.0007293699309229851
v 0.08661890029907227 0.07698488235473633 0.0001368001103401184
v 0.0856974720954895 0.07716751098632812 0.0001368001103401184
v 0.0867486521601677 0.07696568220853806 0.0011775000020861626
v 0.08837907761335373 0.07670032232999802 0.00253117922693491
v 0.08799797296524048 0.07681626081466675 0.0038793208077549934
v 0.08914226293563843 0.07657860964536667 0.0027381302788853645
v 0.08719699829816818 0.07701945304870605 -0.00492410734295845
v 0.0859706923365593 0.07723300904035568 -0.004531789571046829
v 0.08775591105222702 0.07685244083404541 -0.0037491796538233757
v 0.08677767962217331 0.07709372043609619 -0.004829633980989456
v 0.0859706923365593 0.07723300904035568 -0.004531789571046829
v 0.08719699829816818 0.07701945304870605 -0.00492410734295845
v 0.08636801689863205 0.07716596126556396 -0.004698869772255421
v 0.0859706923365593 0.07723300904035568 -0.004531789571046829
v 0.08677767962217331 0.07709372043609619 -0.004829633980989456
v 0.09165149182081223 0.07617360353469849 -0.001334180124104023
v 0.09029465168714523 0.07635337114334106 -0.00009767990559339523
v 0.09158802032470703 0.07617270201444626 0.000437149778008461
v 0.09050065279006958 0.07632958143949509 -0.0008707595989108086
v 0.09029465168714523 0.07635337114334106 -0.00009767990559339523
v 0.09165149182081223 0.07617360353469849 -0.001334180124104023
v 0.09087604284286499 0.07636778801679611 0.004095860756933689
v 0.08973579853773117 0.07656890153884888 0.004698219709098339
v 0.09013307094573975 0.07650195807218552 0.00453150924295187
v 0.08918178081512451 0.07658206671476364 -0.0031556999310851097
v 0.08829628676176071 0.07668644189834595 -0.0013689296320080757
v 0.08991830796003342 0.0764346718788147 -0.002036210149526596
v 0.09158802032470703 0.07617270201444626 0.000437149778008461
v 0.09251456707715988 0.07607995718717575 0.0021131103858351707
v 0.09280835837125778 0.07603024691343307 0.0012938501313328743
v 0.09280835837125778 0.07603024691343307 0.0012938501313328743
v 0.09251456707715988 0.07607995718717575 0.0021131103858351707
v 0.09267920255661011 0.07605326175689697 0.0017099501565098763
v 0.08991830796003342 0.0764346718788147 -0.002036210149526596
v 0.08936572074890137 0.07649897783994675 -0.00045335013419389725
v 0.09050065279006958 0.07632958143949509 -0.0008707595989108086
v 0.08520834892988205 0.07727295160293579 -0.0007293699309229851
v 0.08534436672925949 0.07724142074584961 0.00006510037928819656
v 0.0856974720954895 0.07716751098632812 0.0001368001103401184
v 0.08358942717313766 0.07765603065490723 -0.0021133897826075554
v 0.08342497795820236 0.07768476009368896 -0.0017105303704738617
v 0.08503787964582443 0.07733868807554245 -0.0024741804227232933
v 0.09050065279006958 0.07632958143949509 -0.0008707595989108086
v 0.08936572074890137 0.07649897783994675 -0.00045335013419389725
v 0.0895310565829277 0.07647287100553513 -0.0003046896308660507
v 0.085933618247509 0.07712774723768234 0.0011045997962355614
v 0.0856974720954895 0.07716751098632812 0.0001368001103401184
v 0.08534436672925949 0.07724142074584961 0.00006510037928819656
vn 0.16101739935286788 0.9859758987809984 -0.04387395729406841
vn 0.16101739935286788 0.9859758987809984 -0.04387395729406841
vn 0.16101739935286788 0.9859758987809984 -0.04387395729406841
vn 0.1789327017925879 0.9835596371072199 -0.02436243999928409
vn 0.1789327017925879 0.9835596371072199 -0.02436243999928409
vn 0.1789327017925879 0.9835596371072199 -0.02436243999928409
vn 0.1596398972091511 0.9870517392797622 0.015619449537290114
vn 0.1596398972091511 0.9870517392797622 0.015619449537290114
vn 0.1596398972091511 0.9870517392797622 0.015619449537290114
vn 0.19566329823730805 0.980642949820835 -0.007434963993817053
vn 0.19566329823730805 0.980642949820835 -0.007434963993817053
vn 0.19566329823730805 0.980642949820835 -0.007434963993817053
vn 0.17378236725544563 0.9842991443655285 0.030901184967283772
vn 0.17378236725544563 0.9842991443655285 0.030901184967283772
vn 0.17378236725544563 0.9842991443655285 0.030901184967283772
vn 0.22308949132175707 0.9746797301563876 0.015182308258983907
vn 0.22308949132175707 0.9746797301563876 0.015182308258983907
vn 0.22308949132175707 0.9746797301563876 0.015182308258983907
vn 0.21808809544334568 0.9757551775626669 0.018423248506771895
vn 0.21808809544334568 0.9757551775626669 0.018423248506771895
vn 0.21808809544334568 0.9757551775626669 0.018423248506771895
vn 0.17974411147977598 0.9834415424279657 -0.023125462487270106
vn 0.17974411147977598 0.9834415424279657 -0.023125462487270106
vn 0.17974411147977598 0.9834415424279657 -0.023125462487270106
vn 0.2111079725062017 0.9774591475903295 0.0026530616855992006
vn 0.2111079725062017 0.9774591475903295 0.0026530616855992006
vn 0.2111079725062017 0.9774591475903295 0.0026530616855992006
vn 0.1963661931276144 0.98040176544951 -0.01589643041857643
vn 0.1963661931276144 0.98040176544951 -0.01589643041857643
vn 0.1963661931276144 0.98040176544951 -0.01589643041857643
vn 0.17182938767251962 0.9847390062930907 0.027636045610458397
vn 0.17182938767251962 0.9847390062930907 0.027636045610458397
vn 0.17182938767251962 0.9847390062930907 0.027636045610458397
vn 0.17374388956948414 0.9843106317068736 0.030751278771499083
vn 0.17374388956948414 0.9843106317068736 0.030751278771499083
vn 0.17374388956948414 0.9843106317068736 0.030751278771499083
vn 0.17664280206603092 0.9836643156003725 -0.03466748754542126
vn 0.17664280206603092 0.9836643156003725 -0.03466748754542126
vn 0.17664280206603092 0.9836643156003725 -0.03466748754542126
vn 0.13266849781982698 0.9909876782325397 -0.018506519864930043
vn 0.13266849781982698 0.9909876782325397 -0.018506519864930043
vn 0.13266849781982698 0.9909876782325397 -0.018506519864930043
vn 0.15522150753460104 0.9878770746037409 -0.0022735591131665274
vn 0.15522150753460104 0.9878770746037409 -0.0022735591131665274
vn 0.15522150753460104 0.9878770746037409 -0.0022735591131665274
vn 0.15455678000889064 0.9844696455218528 -0.08325694445126454
vn 0.15455678000889064 0.9844696455218528 -0.08325694445126454
vn 0.15455678000889064 0.9844696455218528 -0.08325694445126454
vn 0.16377048400842098 0.9852338557455006 -0.04993473801374968
vn 0.16377048400842098 0.9852338557455006 -0.04993473801374968
vn 0.16377048400842098 0.9852338557455006 -0.04993473801374968
vn 0.15712801058940853 0.9875773466085638 -0.0013314480099420652
vn 0.15712801058940853 0.9875773466085638 -0.0013314480099420652
vn 0.15712801058940853 0.9875773466085638 -0.0013314480099420652
vn 0.215180208816168 0.9765578757874805 -0.005673885024758019
vn 0.215180208816168 0.9765578757874805 -0.005673885024758019
vn 0.215180208816168 0.9765578757874805 -0.005673885024758019
vn 0.10148808260818094 0.99388109665391 -0.04359512360960017
vn 0.10148808260818094 0.99388109665391 -0.04359512360960017
vn 0.10148808260818094 0.99388109665391 -0.04359512360960017
vn 0.1677930206802237 0.9858048562593497 0.005855560305323169
vn 0.1677930206802237 0.9858048562593497 0.005855560305323169
vn 0.1677930206802237 0.9858048562593497 0.005855560305323169
vn 0.22562777985915894 0.974137365379917 0.012185988942268635
vn 0.22562777985915894 0.974137365379917 0.012185988942268635
vn 0.22562777985915894 0.974137365379917 0.012185988942268635
vn 0.19278969269055787 0.980540832279228 0.03703796195039887
vn 0.19278969269055787 0.980540832279228 0.03703796195039887
vn 0.19278969269055787 0.980540832279228 0.03703796195039887
vn 0.1784465910353006 0.9837616689488408 0.01922999882661449
vn 0.1784465910353006 0.9837616689488408 0.01922999882661449
vn 0.1784465910353006 0.9837616689488408 0.01922999882661449
vn 0.2204521138727301 0.9722872329384519 0.07783573828219019
vn 0.2204521138727301 0.9722872329384519 0.07783573828219019
vn 0.2204521138727301 0.9722872329384519 0.07783573828219019
vn 0.16624298464603904 0.984703646556819 -0.05217277559877462
vn 0.16624298464603904 0.984703646556819 -0.05217277559877462
vn 0.16624298464603904 0.984703646556819 -0.05217277559877462
vn 0.21724289735709282 0.9761154091551703 -0.0020570750424044604
vn 0.21724289735709282 0.9761154091551703 -0.0020570750424044604
vn 0.21724289735709282 0.9761154091551703 -0.0020570750424044604
vn 0.1819734849385087 0.9830533147206634 0.022177267551497914
vn 0.1819734849385087 0.9830533147206634 0.022177267551497914
vn 0.1819734849385087 0.9830533147206634 0.022177267551497914
vn 0.22717636727229223 0.9738259870203151 0.0073379259245073825
vn 0.22717636727229223 0.9738259870203151 0.0073379259245073825
vn 0.22717636727229223 0.9738259870203151 0.0073379259245073825
vn 0.19460088089925276 0.9805574455067915 -0.02525060819922268
vn 0.19460088089925276 0.9805574455067915 -0.02525060819922268
vn 0.19460088089925276 0.9805574455067915 -0.02525060819922268
vn 0.18838068924552787 0.9816159648533951 -0.03070526769657266
vn 0.18838068924552787 0.9816159648533951 -0.03070526769657266
vn 0.18838068924552787 0.9816159648533951 -0.03070526769657266
vn 0.1434712835913057 0.9895734045441531 -0.012667588703344284
vn 0.1434712835913057 0.9895734045441531 -0.012667588703344284
vn 0.1434712835913057 0.9895734045441531 -0.012667588703344284
vn 0.13195850030686182 0.9909111318141014 -0.026116719619061073
vn 0.13195850030686182 0.9909111318141014 -0.026116719619061073
vn 0.13195850030686182 0.9909111318141014 -0.026116719619061073
vn 0.12576960097331488 0.9906876738463699 0.05215304746495641
vn 0.12576960097331488 0.9906876738463699 0.05215304746495641
vn 0.12576960097331488 0.9906876738463699 0.05215304746495641
vn 0.07858352429849032 0.9947528923593737 0.06550811286771074
vn 0.07858352429849032 0.9947528923593737 0.06550811286771074
vn 0.07858352429849032 0.9947528923593737 0.06550811286771074
vn 0.14439928481727757 0.9887720908315307 0.038452554361211685
vn 0.14439928481727757 0.9887720908315307 0.038452554361211685
vn 0.14439928481727757 0.9887720908315307 0.038452554361211685
vn 0.14667180573423624 0.9882650640082152 0.042656121055446444
vn 0.14667180573423624 0.9882650640082152 0.042656121055446444
vn 0.14667180573423624 0.9882650640082152 0.042656121055446444
vn 0.14932890540411597 0.9877293310995644 0.045734521932732954
vn 0.14932890540411597 0.9877293310995644 0.045734521932732954
vn 0.14932890540411597 0.9877293310995644 0.045734521932732954
vn 0.19503111960363825 0.9798949271940552 0.04205703324663734
vn 0.19503111960363825 0.9798949271940552 0.04205703324663734
vn 0.19503111960363825 0.9798949271940552 0.04205703324663734
vn 0.21220377371995577 0.977055562716403 -0.018220477050360635
vn 0.21220377371995577 0.977055562716403 -0.018220477050360635
vn 0.21220377371995577 0.977055562716403 -0.018220477050360635
vn 0.12355549084784366 0.9921326794925811 0.02016896041495267
vn 0.12355549084784366 0.9921326794925811 0.02016896041495267
vn 0.12355549084784366 0.9921326794925811 0.02016896041495267
vn 0.18229047973932966 0.9832185517527413 0.0071735964234803965
vn 0.18229047973932966 0.9832185517527413 0.0071735964234803965
vn 0.18229047973932966 0.9832185517527413 0.0071735964234803965
vn 0.19959611220823573 0.9790531055994386 0.04020458192112096
vn 0.19959611220823573 0.9790531055994386 0.04020458192112096
vn 0.19959611220823573 0.9790531055994386 0.04020458192112096
vn 0.15396058611924154 0.9868611130991543 0.04900287108443872
vn 0.15396058611924154 0.9868611130991543 0.04900287108443872
vn 0.15396058611924154 0.9868611130991543 0.04900287108443872
vn 0.1345760957228233 0.9903560177187566 -0.032927687866708986
vn 0.1345760957228233 0.9903560177187566 -0.032927687866708986
vn 0.1345760957228233 0.9903560177187566 -0.032927687866708986
vn 0.12234108572242602 0.9923464394026212 0.016769106988687756
vn 0.12234108572242602 0.9923464394026212 0.016769106988687756
vn 0.12234108572242602 0.9923464394026212 0.016769106988687756
vn 0.22658880379745394 0.9739878913301678 0.0022586579758331967
vn 0.22658880379745394 0.9739878913301678 0.0022586579758331967
vn 0.22658880379745394 0.9739878913301678 0.0022586579758331967
vn 0.1432931838982327 0.9890612744233624 0.03499798400395889
vn 0.1432931838982327 0.9890612744233624 0.03499798400395889
vn 0.1432931838982327 0.9890612744233624 0.03499798400395889
vn 0.1575759778444609 0.986224936940242 0.050300943963083045
vn 0.1575759778444609 0.986224936940242 0.050300943963083045
vn 0.1575759778444609 0.986224936940242 0.050300943963083045
vn 0.1251468825965512 0.991894915466871 0.021971218612853657
vn 0.1251468825965512 0.991894915466871 0.021971218612853657
vn 0.1251468825965512 0.991894915466871 0.021971218612853657
vn 0.20988060707452685 0.976891883340387 0.04040271077167605
vn 0.20988060707452685 0.976891883340387 0.04040271077167605
vn 0.20988060707452685 0.976891883340387 0.04040271077167605
vn 0.2058351085487449 0.9777311899308935 0.04091000275049317
vn 0.2058351085487449 0.9777311899308935 0.04091000275049317
vn 0.2058351085487449 0.9777311899308935 0.04091000275049317
vn 0.18074910113173792 0.9835045808835684 0.006964324885088952
vn 0.18074910113173792 0.9835045808835684 0.006964324885088952
vn 0.18074910113173792 0.9835045808835684 0.006964324885088952
vn 0.17194388360123009 0.9835884315546775 -0.05467264584722699
vn 0.17194388360123009 0.9835884315546775 -0.05467264584722699
vn 0.17194388360123009 0.9835884315546775 -0.05467264584722699
vn 0.16171340795084177 0.9855384322470578 0.050623830879696075
vn 0.16171340795084177 0.9855384322470578 0.050623830879696075
vn 0.16171340795084177 0.9855384322470578 0.050623830879696075
vn 0.17591528638551454 0.9828777933894823 -0.054818384486637575
vn 0.17591528638551454 0.9828777933894823 -0.054818384486637575
vn 0.17591528638551454 0.9828777933894823 -0.054818384486637575
vn 0.13368700745443088 0.9906592591940121 0.026870359339803505
vn 0.13368700745443088 0.9906592591940121 0.026870359339803505
vn 0.13368700745443088 0.9906592591940121 0.026870359339803505
vn 0.1871366004023342 0.981290910358266 -0.04525529845335752
vn 0.1871366004023342 0.981290910358266 -0.04525529845335752
vn 0.1871366004023342 0.981290910358266 -0.04525529845335752
vn 0.1944701846899898 0.9805089367848285 0.027992358809613056
vn 0.1944701846899898 0.9805089367848285 0.027992358809613056
vn 0.1944701846899898 0.9805089367848285 0.027992358809613056
vn 0.22567200409188726 0.9742030988834846 -0.000684613005078548
vn 0.22567200409188726 0.9742030988834846 -0.000684613005078548
vn 0.22567200409188726 0.9742030988834846 -0.000684613005078548
vn 0.22427549422418147 0.9745234018201414 -0.002154529043222736
vn 0.22427549422418147 0.9745234018201414 -0.002154529043222736
vn 0.22427549422418147 0.9745234018201414 -0.002154529043222736
vn 0.16597908685833082 0.9848656028974085 0.04990678265725631
vn 0.16597908685833082 0.9848656028974085 0.04990678265725631
vn 0.16597908685833082 0.9848656028974085 0.04990678265725631
vn 0.12251670099580014 0.9923958929083188 0.01183426025599543
vn 0.12251670099580014 0.9923958929083188 0.01183426025599543
vn 0.12251670099580014 0.9923958929083188 0.01183426025599543
vn 0.15172098308278023 0.9883273664887385 -0.013775338174778147
vn 0.15172098308278023 0.9883273664887385 -0.013775338174778147
vn 0.15172098308278023 0.9883273664887385 -0.013775338174778147
vn 0.14609388681886484 0.9891001958018403 -0.018367876821179182
vn 0.14609388681886484 0.9891001958018403 -0.018367876821179182
vn 0.14609388681886484 0.9891001958018403 -0.018367876821179182
vn 0.13485749114375767 0.9903043544144684 -0.033327806860858386
vn 0.13485749114375767 0.9903043544144684 -0.033327806860858386
vn 0.13485749114375767 0.9903043544144684 -0.033327806860858386
vn 0.1064468937586709 0.9942829771032065 0.008391677538783657
vn 0.1064468937586709 0.9942829771032065 0.008391677538783657
vn 0.1064468937586709 0.9942829771032065 0.008391677538783657
vn 0.14330980469803367 0.98902573189657 0.03592215923167022
vn 0.14330980469803367 0.98902573189657 0.03592215923167022
vn 0.14330980469803367 0.98902573189657 0.03592215923167022
vn 0.19061160567208327 0.9815675863249447 0.013866840279336922
vn 0.19061160567208327 0.9815675863249447 0.013866840279336922
vn 0.19061160567208327 0.9815675863249447 0.013866840279336922
vn 0.1791279937945532 0.9823599004010599 -0.05368601236037201
vn 0.1791279937945532 0.9823599004010599 -0.05368601236037201
vn 0.1791279937945532 0.9823599004010599 -0.05368601236037201
vn 0.19549098136383922 0.9803812265857389 0.025217588378847553
vn 0.19549098136383922 0.9803812265857389 0.025217588378847553
vn 0.19549098136383922 0.9803812265857389 0.025217588378847553
vn 0.16695359774576946 0.9846492660552512 0.050914821580742606
vn 0.16695359774576946 0.9846492660552512 0.050914821580742606
vn 0.16695359774576946 0.9846492660552512 0.050914821580742606
vn 0.3628270660143173 0.9314975229960927 -0.02586280765086685
vn 0.3628270660143173 0.9314975229960927 -0.02586280765086685
vn 0.3628270660143173 0.9314975229960927 -0.02586280765086685
vn 0.21350239018326964 0.9761750607123733 0.03871666603964739
vn 0.21350239018326964 0.9761750607123733 0.03871666603964739
vn 0.21350239018326964 0.9761750607123733 0.03871666603964739
vn 0.17169348813953808 0.9836843563061058 0.05372553665735333
vn 0.17169348813953808 0.9836843563061058 0.05372553665735333
vn 0.17169348813953808 0.9836843563061058 0.05372553665735333
vn 0.1886171990369895 0.981960472204734 0.013311020054705804
vn 0.1886171990369895 0.981960472204734 0.013311020054705804
vn 0.1886171990369895 0.981960472204734 0.013311020054705804
vn 0.12437169189860454 0.9922122308245285 0.006824313627848052
vn 0.12437169189860454 0.9922122308245285 0.006824313627848052
vn 0.12437169189860454 0.9922122308245285 0.006824313627848052
vn 0.19493289540056102 0.9799860840642375 -0.04035395062686295
vn 0.19493289540056102 0.9799860840642375 -0.04035395062686295
vn 0.19493289540056102 0.9799860840642375 -0.04035395062686295
vn 0.16298249374439236 0.9866275793733993 0.0016511670557284208
vn 0.16298249374439236 0.9866275793733993 0.0016511670557284208
vn 0.16298249374439236 0.9866275793733993 0.0016511670557284208
vn 0.18660930312942897 0.9813140304898447 -0.04690140242386149
vn 0.18660930312942897 0.9813140304898447 -0.04690140242386149
vn 0.18660930312942897 0.9813140304898447 -0.04690140242386149
vn 0.18504638721533773 0.9815093147149259 -0.04896222734300574
vn 0.18504638721533773 0.9815093147149259 -0.04896222734300574
vn 0.18504638721533773 0.9815093147149259 -0.04896222734300574
vn 0.2127130866838035 0.9768800465356373 -0.021413020197531493
vn 0.2127130866838035 0.9768800465356373 -0.021413020197531493
vn 0.2127130866838035 0.9768800465356373 -0.021413020197531493
vn 0.1380820988557723 0.9900451081310552 0.02727669043986109
vn 0.1380820988557723 0.9900451081310552 0.02727669043986109
vn 0.1380820988557723 0.9900451081310552 0.02727669043986109
vn 0.2083961622873077 0.9771985807195676 -0.040669071584985485
vn 0.2083961622873077 0.9771985807195676 -0.040669071584985485
vn 0.2083961622873077 0.9771985807195676 -0.040669071584985485
vn 0.09917098166306722 0.9914873720990052 -0.08436769147127521
vn 0.09917098166306722 0.9914873720990052 -0.08436769147127521
vn 0.09917098166306722 0.9914873720990052 -0.08436769147127521
vn 0.13937259923311124 0.9895595704247979 -0.03670333995286943
vn 0.13937259923311124 0.9895595704247979 -0.03670333995286943
vn 0.13937259923311124 0.9895595704247979 -0.03670333995286943
vn 0.19588388239001864 0.9778961407675504 -0.07313441386751433
vn 0.19588388239001864 0.9778961407675504 -0.07313441386751433
vn 0.19588388239001864 0.9778961407675504 -0.07313441386751433
vn 0.16303190888055683 0.9865573229589192 -0.01119130032179927
vn 0.16303190888055683 0.9865573229589192 -0.01119130032179927
vn 0.16303190888055683 0.9865573229589192 -0.01119130032179927
vn 0.1759407620583888 0.9828786577794606 0.05472104099849991
vn 0.1759407620583888 0.9828786577794606 0.05472104099849991
vn 0.1759407620583888 0.9828786577794606 0.05472104099849991
vn 0.2143020968974974 0.9762398191618841 -0.032100260872891605
vn 0.2143020968974974 0.9762398191618841 -0.032100260872891605
vn 0.2143020968974974 0.9762398191618841 -0.032100260872891605
vn 0.339844676423329 0.9377426575488486 -0.07172380441628665
vn 0.339844676423329 0.9377426575488486 -0.07172380441628665
vn 0.339844676423329 0.9377426575488486 -0.07172380441628665
vn 0.200783688591064 0.9787190738896878 -0.04236608077552845
vn 0.200783688591064 0.9787190738896878 -0.04236608077552845
vn 0.200783688591064 0.9787190738896878 -0.04236608077552845
vn 0.22168330837197417 0.9718106384214968 -0.08025331046168258
vn 0.22168330837197417 0.9718106384214968 -0.08025331046168258
vn 0.22168330837197417 0.9718106384214968 -0.08025331046168258
vn 0.2137968963066136 0.9766070136333938 -0.023013649248288807
vn 0.2137968963066136 0.9766070136333938 -0.023013649248288807
vn 0.2137968963066136 0.9766070136333938 -0.023013649248288807
vn 0.23835901061800094 0.9706009289276972 -0.03344874918287747
vn 0.23835901061800094 0.9706009289276972 -0.03344874918287747
vn 0.23835901061800094 0.9706009289276972 -0.03344874918287747
vn 0.2065966007913901 0.9775413405464983 -0.04160254876805051
vn 0.2065966007913901 0.9775413405464983 -0.04160254876805051
vn 0.2065966007913901 0.9775413405464983 -0.04160254876805051
vn 0.21315229326458524 0.976384299857807 -0.03521077771405089
vn 0.21315229326458524 0.976384299857807 -0.03521077771405089
vn 0.21315229326458524 0.976384299857807 -0.03521077771405089
vn 0.21822350303847315 0.9753183384194408 0.033654739106977215
vn 0.21822350303847315 0.9753183384194408 0.033654739106977215
vn 0.21822350303847315 0.9753183384194408 0.033654739106977215
vn 0.21456137283495122 0.9763247959466476 -0.027446495348555262
vn 0.21456137283495122 0.9763247959466476 -0.027446495348555262
vn 0.21456137283495122 0.9763247959466476 -0.027446495348555262
vn 0.12615089077587133 0.9919983116417836 0.005030154699917538
vn 0.12615089077587133 0.9919983116417836 0.005030154699917538
vn 0.12615089077587133 0.9919983116417836 0.005030154699917538
vn 0.15434919728512062 0.98771872893165 -0.02424949102733259
vn 0.15434919728512062 0.98771872893165 -0.02424949102733259
vn 0.15434919728512062 0.98771872893165 -0.02424949102733259
vn 0.16193638944615826 0.9867446546057257 -0.010563729463090907
vn 0.16193638944615826 0.9867446546057257 -0.010563729463090907
vn 0.16193638944615826 0.9867446546057257 -0.010563729463090907
vn 0.17934289798773767 0.9822852138265636 0.054331239991942976
vn 0.17934289798773767 0.9822852138265636 0.054331239991942976
vn 0.17934289798773767 0.9822852138265636 0.054331239991942976
vn 0.10945398974175191 0.9939566135314765 -0.008371054094392875
vn 0.10945398974175191 0.9939566135314765 -0.008371054094392875
vn 0.10945398974175191 0.9939566135314765 -0.008371054094392875
vn 0.1668439805803816 0.9855466486772892 -0.029340917249761723
vn 0.1668439805803816 0.9855466486772892 -0.029340917249761723
vn 0.1668439805803816 0.9855466486772892 -0.029340917249761723
vn 0.20532180202123992 0.9785501877455207 0.01680736975130796
vn 0.20532180202123992 0.9785501877455207 0.01680736975130796
vn 0.20532180202123992 0.9785501877455207 0.01680736975130796
vn 0.15008777542300106 0.9879326331165784 -0.03824620362753875
vn 0.15008777542300106 0.9879326331165784 -0.03824620362753875
vn 0.15008777542300106 0.9879326331165784 -0.03824620362753875
vn 0.21937528548701205 0.9751611483588252 0.030581348057097734
vn 0.21937528548701205 0.9751611483588252 0.030581348057097734
vn 0.21937528548701205 0.9751611483588252 0.030581348057097734
vn 0.18441809204061393 0.9828358020898529 -0.0048737519936097986
vn 0.18441809204061393 0.9828358020898529 -0.0048737519936097986
vn 0.18441809204061393 0.9828358020898529 -0.0048737519936097986
vn 0.14159547876616285 0.9897519662299553 0.01848690717557611
vn 0.14159547876616285 0.9897519662299553 0.01848690717557611
vn 0.14159547876616285 0.9897519662299553 0.01848690717557611
vn 0.15120599103977211 0.9884907288427115 -0.004777788786164878
vn 0.15120599103977211 0.9884907288427115 -0.004777788786164878
vn 0.15120599103977211 0.9884907288427115 -0.004777788786164878
vn 0.21955490332509608 0.97531558061333 0.023561889542027266
vn 0.21955490332509608 0.97531558061333 0.023561889542027266
vn 0.21955490332509608 0.97531558061333 0.023561889542027266
vn 0.19441918985651915 0.9809139349169215 -0.003005145809469345
vn 0.19441918985651915 0.9809139349169215 -0.003005145809469345
vn 0.19441918985651915 0.9809139349169215 -0.003005145809469345
vn 0.12907688015417787 0.9880437618046441 -0.08431301067208902
vn 0.12907688015417787 0.9880437618046441 -0.08431301067208902
vn 0.12907688015417787 0.9880437618046441 -0.08431301067208902
vn 0.1523729875998402 0.987461517181073 -0.04125802632642818
vn 0.1523729875998402 0.987461517181073 -0.04125802632642818
vn 0.1523729875998402 0.987461517181073 -0.04125802632642818
vn 0.12191990179699277 0.9925024045105353 -0.008632183189514855
vn 0.12191990179699277 0.9925024045105353 -0.008632183189514855
vn 0.12191990179699277 0.9925024045105353 -0.008632183189514855
vn 0.17811109392337113 0.9838501958359969 -0.01775472824041267
vn 0.17811109392337113 0.9838501958359969 -0.01775472824041267
vn 0.17811109392337113 0.9838501958359969 -0.01775472824041267
vn 0.21312938876595858 0.9768932574501238 0.015982089748685254
vn 0.21312938876595858 0.9768932574501238 0.015982089748685254
vn 0.21312938876595858 0.9768932574501238 0.015982089748685254
vn 0.194416087746216 0.9808997951511678 -0.006162523659408675
vn 0.194416087746216 0.9808997951511678 -0.006162523659408675
vn 0.194416087746216 0.9808997951511678 -0.006162523659408675
vn 0.1672746869222474 0.9851991127148184 -0.03744178709675686
vn 0.1672746869222474 0.9851991127148184 -0.03744178709675686
vn 0.1672746869222474 0.9851991127148184 -0.03744178709675686
vn 0.18700328280846107 0.9810606142371479 0.050495974210711246
vn 0.18700328280846107 0.9810606142371479 0.050495974210711246
vn 0.18700328280846107 0.9810606142371479 0.050495974210711246
vn 0.1810505962898655 0.9829983584655768 0.030576278993127953
vn 0.1810505962898655 0.9829983584655768 0.030576278993127953
vn 0.1810505962898655 0.9829983584655768 0.030576278993127953
vn 0.19590988960076666 0.9778593284812322 0.07355575340412794
vn 0.19590988960076666 0.9778593284812322 0.07355575340412794
vn 0.19590988960076666 0.9778593284812322 0.07355575340412794
vn 0.13615918190073892 0.9906723521554183 0.005382179760358346
vn 0.13615918190073892 0.9906723521554183 0.005382179760358346
vn 0.13615918190073892 0.9906723521554183 0.005382179760358346
vn 0.13665080437014204 0.9906013873673439 0.005953907194984198
vn 0.13665080437014204 0.9906013873673439 0.005953907194984198
vn 0.13665080437014204 0.9906013873673439 0.005953907194984198
vn 0.13644110002867663 0.9880748634851538 -0.07135748294159208
vn 0.13644110002867663 0.9880748634851538 -0.07135748294159208
vn 0.13644110002867663 0.9880748634851538 -0.07135748294159208
vn 0.16254709901652142 0.9864339974529265 0.022943610665127682
vn 0.16254709901652142 0.9864339974529265 0.022943610665127682
vn 0.16254709901652142 0.9864339974529265 0.022943610665127682
vn 0.12625229210939995 0.9918860677048962 -0.014912660059177147
vn 0.12625229210939995 0.9918860677048962 -0.014912660059177147
vn 0.12625229210939995 0.9918860677048962 -0.014912660059177147
vn 0.11064299649913577 0.9936449862316159 -0.020682569048943725
vn 0.11064299649913577 0.9936449862316159 -0.020682569048943725
vn 0.11064299649913577 0.9936449862316159 -0.020682569048943725
vn 0.15228947776078267 0.9882501220331339 0.013023488965867764
vn 0.15228947776078267 0.9882501220331339 0.013023488965867764
vn 0.15228947776078267 0.9882501220331339 0.013023488965867764
vn 0.20410980801971176 0.9789401541124723 0.003919303050963911
vn 0.20410980801971176 0.9789401541124723 0.003919303050963911
vn 0.20410980801971176 0.9789401541124723 0.003919303050963911
vn 0.21864240041393265 0.9756059126367342 0.019713040594450556
vn 0.21864240041393265 0.9756059126367342 0.019713040594450556
vn 0.21864240041393265 0.9756059126367342 0.019713040594450556
vn 0.15004518695594116 0.9886560484522267 0.006757198397654235
vn 0.15004518695594116 0.9886560484522267 0.006757198397654235
vn 0.15004518695594116 0.9886560484522267 0.006757198397654235
vn 0.20685709570357969 0.9783171802072022 -0.010277979787341796
vn 0.20685709570357969 0.9783171802072022 -0.010277979787341796
vn 0.20685709570357969 0.9783171802072022 -0.010277979787341796
f 1//1 2//2 3//3
f 4//4 5//5 6//6
f 7//7 8//8 9//9
f 10//10 11//11 12//12
f 13//13 14//14 15//15
f 16//16 17//17 18//18
f 19//19 20//20 21//21
f 22//22 23//23 24//24
f 25//25 26//26 27//27
f 28//28 29//29 30//30
f 31//31 32//32 33//33
f 34//34 35//35 36//36
f 37//37 38//38 39//39
f 40//40 41//41 42//42
f 43//43 44//44 45//45
f 46//46 47//47 48//48
f 49//49 50//50 51//51
f 52//52 53//53 54//54
f 55//55 56//56 57//57
f 58//58 59//59 60//60
f 61//61 62//62 63//63
f 64//64 65//65 66//66
f 67//67 68//68 69//69
f 70//70 71//71 72//72
f 73//73 74//74 75//75
f 76//76 77//77 78//78
f 79//79 80//80 81//81
f 82//82 83//83 84//84
f 85//85 86//86 87//87
f 88//88 89//89 90//90
f 91//91 92//92 93//93
f 94//94 95//95 96//96
f 97//97 98//98 99//99
f 100//100 101//101 102//102
f 103//103 104//104 105//105
f 106//106 107//107 108//108
f 109//109 110//110 111//111
f 112//112 113//113 114//114
f 115//115 116//116 117//117
f 118//118 119//119 120//120
f 121//121 122//122 123//123
f 124//124 125//125 126//126
f 127//127 128//128 129//129
f 130//130 131//131 132//132
f 133//133 134//134 135//135
f 136//136 137//137 138//138
f 139//139 140//140 141//141
f 142//142 143//143 144//144
f 145//145 146//146 147//147
f 148//148 149//149 150//150
f 151//151 152//152 153//153
f 154//154 155//155 156//156
f 157//157 158//158 159//159
f 160//160 161//161 162//162
f 163//163 164//164 165//165
f 166//166 167//167 168//168
f 169//169 170//170 171//171
f 172//172 173//173 174//174
f 175//175 176//176 177//177
f 178//178 179//179 180//180
f 181//181 182//182 183//183
f 184//184 185//185 186//186
f 187//187 188//188 189//189
f 190//190 191//191 192//192
f 193//193 194//194 195//195
f 196//196 197//197 198//198
f 199//199 200//200 201//201
f 202//202 203//203 204//204
f 205//205 206//206 207//207
f 208//208 209//209 210//210
f 211//211 212//212 213//213
f 214//214 215//215 216//216
f 217//217 218//218 219//219
f 220//220 221//221 222//222
f 223//223 224//224 225//225
f 226//226 227//227 228//228
f 229//229 230//230 231//231
f 232//232 233//233 234//234
f 235//235 236//236 237//237
f 238//238 239//239 240//240
f 241//241 242//242 243//243
f 244//244 245//245 246//246
f 247//247 248//248 249//249
f 250//250 251//251 252//252
f 253//253 254//254 255//255
f 256//256 257//257 258//258
f 259//259 260//260 261//261
f 262//262 263//263 264//264
f 265//265 266//266 267//267
f 268//268 269//269 270//270
f 271//271 272//272 273//273
f 274//274 275//275 276//276
f 277//277 278//278 279//279
f 280//280 281//281 282//282
f 283//283 284//284 285//285
f 286//286 287//287 288//288
f 289//289 290//290 291//291
f 292//292 293//293 294//294
f 295//295 296//296 297//297
f 298//298 299//299 300//300
f 301//301 302//302 303//303
f 304//304 305//305 306//306
f 307//307 308//308 309//309
f 310//310 311//311 312//312
f 313//313 314//314 315//315
f 316//316 317//317 318//318
f 319//319 320//320 321//321
f 322//322 323//323 324//324
f 325//325 326//326 327//327
f 328//328 329//329 330//330
f 331//331 332//332 333//333
f 334//334 335//335 336//336
f 337//337 338//338 339//339
f 340//340 341//341 342//342
f 343//343 344//344 345//345
f 346//346 347//347 348//348
f 349//349 350//350 351//351
f 352//352 353//353 354//354
f 355//355 356//356 357//357
f 358//358 359//359 360//360
f 361//361 362//362 363//363
f 364//364 365//365 366//366
f 367//367 368//368 369//369
f 370//370 371//371 372//372
f 373//373 374//374 375//375
f 376//376 377//377 378//378
f 379//379 380//380 381//381
f 382//382 383//383 384//384
f 385//385 386//386 387//387
f 388//388 389//389 390//390
f 391//391 392//392 393//393
f 394//394 395//395 396//396
f 397//397 398//398 399//399
f 400//400 401//401 402//402
