o node10
usemtl Shell002_002_001_002_001
v 0.07632844895124435 0.07967185229063034 -0.0009863302111625671
v 0.07899761199951172 0.07911001890897751 -0.0008590696379542351
v 0.07872544974088669 0.07891976088285446 -0.0010011103004217148
v 0.07639478892087936 0.0800127312541008 -0.0007773600518703461
v 0.07899761199951172 0.07911001890897751 -0.0008590696379542351
v 0.07632844895124435 0.07967185229063034 -0.0009863302111625671
v 0.07899761199951172 0.07911001890897751 -0.0008590696379542351
v 0.07639478892087936 0.0800127312541008 -0.0007773600518703461
v 0.07781928032636642 0.0797867700457573 -0.0004971595481038094
v 0.07781928032636642 0.0797867700457573 -0.0004971595481038094
v 0.07907109707593918 0.07950097322463989 -0.00018035992980003357
v 0.07908368110656738 0.07934354990720749 -0.0005919896066188812
v 0.07908368110656738 0.07934354990720749 -0.0005919896066188812
v 0.07899761199951172 0.07911001890897751 -0.0008590696379542351
v 0.07781928032636642 0.0797867700457573 -0.0004971595481038094
v 0.076564721763134 0.0802655816078186 -0.000267920084297657
v 0.07781928032636642 0.0797867700457573 -0.0004971595481038094
v 0.07639478892087936 0.0800127312541008 -0.0007773600518703461
v 0.07781928032636642 0.0797867700457573 -0.0004971595481038094
v 0.076564721763134 0.0802655816078186 -0.000267920084297657
v 0.07907109707593918 0.07950097322463989 -0.00018035992980003357
v 0.07951480150222778 0.0789840817451477 -0.0005348799750208855
v 0.07908368110656738 0.07934354990720749 -0.0005919896066188812
v 0.0793502926826477 0.0793026015162468 -0.0003129802644252777
v 0.07899761199951172 0.07911001890897751 -0.0008590696379542351
v 0.07908368110656738 0.07934354990720749 -0.0005919896066188812
v 0.07951480150222778 0.0789840817451477 -0.0005348799750208855
v 0.07902061194181442 0.07938212156295776 0.000565829686820507
v 0.07912527769804001 0.07916682213544846 0.0007797600701451302
v 0.07923448085784912 0.07942622154951096 0.00023400969803333282
v 0.07922577112913132 0.07877843827009201 0.0008898405358195305
v 0.07912527769804001 0.07916682213544846 0.0007797600701451302
v 0.07878780364990234 0.07890129089355469 0.0010008299723267555
v 0.07923448085784912 0.07942622154951096 0.00023400969803333282
v 0.07963048666715622 0.079058937728405 0.00011117011308670044
v 0.0793502926826477 0.0793026015162468 -0.0003129802644252777
v 0.07922577112913132 0.07877843827009201 0.0008898405358195305
v 0.0795026421546936 0.07870566099882126 0.0006842697039246559
v 0.07912527769804001 0.07916682213544846 0.0007797600701451302
v 0.07907109707593918 0.07950097322463989 -0.00018035992980003357
v 0.07923448085784912 0.07942622154951096 0.00023400969803333282
v 0.0793502926826477 0.0793026015162468 -0.0003129802644252777
v 0.0793502926826477 0.0793026015162468 -0.0003129802644252777
v 0.07908368110656738 0.07934354990720749 -0.0005919896066188812
v 0.07907109707593918 0.07950097322463989 -0.00018035992980003357
v 0.07969193905591965 0.07864075154066086 0.0003151996061205864
v 0.07963048666715622 0.079058937728405 0.00011117011308670044
v 0.0795026421546936 0.07870566099882126 0.0006842697039246559
v 0.0795026421546936 0.07870566099882126 0.0006842697039246559
v 0.07963048666715622 0.079058937728405 0.00011117011308670044
v 0.07912527769804001 0.07916682213544846 0.0007797600701451302
v 0.07972109317779541 0.07863067835569382 -0.00020521041005849838
v 0.07963048666715622 0.079058937728405 0.00011117011308670044
v 0.07969193905591965 0.07864075154066086 0.0003151996061205864
v 0.07963048666715622 0.079058937728405 0.00011117011308670044
v 0.07923448085784912 0.07942622154951096 0.00023400969803333282
v 0.07912527769804001 0.07916682213544846 0.0007797600701451302
v 0.07972109317779541 0.07863067835569382 -0.00020521041005849838
v 0.07951480150222778 0.0789840817451477 -0.0005348799750208855
v 0.07963048666715622 0.079058937728405 0.00011117011308670044
v 0.07947652786970139 0.078701913356781 -0.0006856797263026237
v 0.07951480150222778 0.0789840817451477 -0.0005348799750208855
v 0.07972109317779541 0.07863067835569382 -0.00020521041005849838
v 0.07911460846662521 0.07881081104278564 -0.0009378101676702499
v 0.07951480150222778 0.0789840817451477 -0.0005348799750208855
v 0.07947652786970139 0.078701913356781 -0.0006856797263026237
v 0.07911460846662521 0.07881081104278564 -0.0009378101676702499
v 0.07899761199951172 0.07911001890897751 -0.0008590696379542351
v 0.07951480150222778 0.0789840817451477 -0.0005348799750208855
v 0.07951480150222778 0.0789840817451477 -0.0005348799750208855
v 0.0793502926826477 0.0793026015162468 -0.0003129802644252777
v 0.07963048666715622 0.079058937728405 0.00011117011308670044
v 0.07872544974088669 0.07891976088285446 -0.0010011103004217148
v 0.07899761199951172 0.07911001890897751 -0.0008590696379542351
v 0.07911460846662521 0.07881081104278564 -0.0009378101676702499
v 0.07912527769804001 0.07916682213544846 0.0007797600701451302
v 0.07902061194181442 0.07938212156295776 0.000565829686820507
v 0.07787930220365524 0.07947015017271042 0.0008468693122267723
v 0.07878780364990234 0.07890129089355469 0.0010008299723267555
v 0.07787930220365524 0.07947015017271042 0.0008468693122267723
v 0.07651311159133911 0.07990401238203049 0.0008477000519633293
v 0.07651311159133911 0.07990401238203049 0.0008477000519633293
v 0.07787930220365524 0.07947015017271042 0.0008468693122267723
v 0.07787936180830002 0.07977931946516037 0.00046927016228437424
v 0.0765232965350151 0.08028191328048706 0.00016922038048505783
v 0.07787936180830002 0.07977931946516037 0.00046927016228437424
v 0.07907109707593918 0.07950097322463989 -0.00018035992980003357
v 0.07787930220365524 0.07947015017271042 0.0008468693122267723
v 0.07902061194181442 0.07938212156295776 0.000565829686820507
v 0.07787936180830002 0.07977931946516037 0.00046927016228437424
v 0.07878780364990234 0.07890129089355469 0.0010008299723267555
v 0.07651311159133911 0.07990401238203049 0.0008477000519633293
v 0.07640188187360764 0.07964777201414108 0.0009948695078492165
v 0.07787936180830002 0.07977931946516037 0.00046927016228437424
v 0.07923448085784912 0.07942622154951096 0.00023400969803333282
v 0.07907109707593918 0.07950097322463989 -0.00018035992980003357
v 0.07912527769804001 0.07916682213544846 0.0007797600701451302
v 0.07787930220365524 0.07947015017271042 0.0008468693122267723
v 0.07878780364990234 0.07890129089355469 0.0010008299723267555
v 0.07902061194181442 0.07938212156295776 0.000565829686820507
v 0.07923448085784912 0.07942622154951096 0.00023400969803333282
v 0.07787936180830002 0.07977931946516037 0.00046927016228437424
v 0.07670550793409348 0.08011454343795776 0.00053436029702425
v 0.07651311159133911 0.07990401238203049 0.0008477000519633293
v 0.07787936180830002 0.07977931946516037 0.00046927016228437424
v 0.0765232965350151 0.08028191328048706 0.00016922038048505783
v 0.07670550793409348 0.08011454343795776 0.00053436029702425
v 0.07787936180830002 0.07977931946516037 0.00046927016228437424
v 0.07620369642972946 0.0801045224070549 0.0006239498034119606
v 0.0765232965350151 0.08028191328048706 0.00016922038048505783
v 0.07604998350143433 0.08025538176298141 0.00012089032679796219
v 0.07651311159133911 0.07990401238203049 0.0008477000519633293
v 0.07670550793409348 0.08011454343795776 0.00053436029702425
v 0.07620369642972946 0.0801045224070549 0.0006239498034119606
v 0.07620369642972946 0.0801045224070549 0.0006239498034119606
v 0.07670550793409348 0.08011454343795776 0.00053436029702425
v 0.0765232965350151 0.08028191328048706 0.00016922038048505783
v 0.07605253905057907 0.08015400171279907 -0.00046288035809993744
v 0.076564721763134 0.0802655816078186 -0.000267920084297657
v 0.07639478892087936 0.0800127312541008 -0.0007773600518703461
v 0.07558435201644897 0.07991813868284225 -0.00013589020818471909
v 0.07604998350143433 0.08025538176298141 0.00012089032679796219
v 0.07605253905057907 0.08015400171279907 -0.00046288035809993744
v 0.07562880963087082 0.07990317791700363 0.00035102013498544693
v 0.07604998350143433 0.08025538176298141 0.00012089032679796219
v 0.07558435201644897 0.07991813868284225 -0.00013589020818471909
v 0.07562880963087082 0.07990317791700363 0.00035102013498544693
v 0.07620369642972946 0.0801045224070549 0.0006239498034119606
v 0.07604998350143433 0.08025538176298141 0.00012089032679796219
v 0.07605253905057907 0.08015400171279907 -0.00046288035809993744
v 0.07604998350143433 0.08025538176298141 0.00012089032679796219
v 0.076564721763134 0.0802655816078186 -0.000267920084297657
v 0.076564721763134 0.0802655816078186 -0.000267920084297657
v 0.07604998350143433 0.08025538176298141 0.00012089032679796219
v 0.0765232965350151 0.08028191328048706 0.00016922038048505783
v 0.07579869031906128 0.07984238117933273 -0.0006576096639037132
v 0.07639478892087936 0.0800127312541008 -0.0007773600518703461
v 0.07632844895124435 0.07967185229063034 -0.0009863302111625671
v 0.07579869031906128 0.07984238117933273 -0.0006576096639037132
v 0.07605253905057907 0.08015400171279907 -0.00046288035809993744
v 0.07639478892087936 0.0800127312541008 -0.0007773600518703461
v 0.07579869031906128 0.07984238117933273 -0.0006576096639037132
v 0.07558435201644897 0.07991813868284225 -0.00013589020818471909
v 0.07605253905057907 0.08015400171279907 -0.00046288035809993744
v 0.07596909254789352 0.07978837937116623 0.0008136704564094543
v 0.07620369642972946 0.0801045224070549 0.0006239498034119606
v 0.07562880963087082 0.07990317791700363 0.00035102013498544693
v 0.07640188187360764 0.07964777201414108 0.0009948695078492165
v 0.07651311159133911 0.07990401238203049 0.0008477000519633293
v 0.07596909254789352 0.07978837937116623 0.0008136704564094543
v 0.07596909254789352 0.07978837937116623 0.0008136704564094543
v 0.07651311159133911 0.07990401238203049 0.0008477000519633293
v 0.07620369642972946 0.0801045224070549 0.0006239498034119606
v 0.076564721763134 0.0802655816078186 -0.000267920084297657
v 0.0765232965350151 0.08028191328048706 0.00016922038048505783
v 0.07907109707593918 0.07950097322463989 -0.00018035992980003357
vn 0.138250198532858 0.45787988964619836 -0.8781986616154742
vn 0.138250198532858 0.45787988964619836 -0.8781986616154742
vn 0.138250198532858 0.45787988964619836 -0.8781986616154742
vn 0.14530777876324796 0.4964910726866266 -0.8557933536627716
vn 0.14530777876324796 0.4964910726866266 -0.8557933536627716
vn 0.14530777876324796 0.4964910726866266 -0.8557933536627716
vn 0.2402847839129516 0.7487806624363654 -0.6177303150900594
vn 0.2402847839129516 0.7487806624363654 -0.6177303150900594
vn 0.2402847839129516 0.7487806624363654 -0.6177303150900594
vn 0.2893617712598279 0.896980155084838 -0.3342100637583416
vn 0.2893617712598279 0.896980155084838 -0.3342100637583416
vn 0.2893617712598279 0.896980155084838 -0.3342100637583416
vn 0.19643638283971465 0.7059712738597719 -0.6804537515376486
vn 0.19643638283971465 0.7059712738597719 -0.6804537515376486
vn 0.19643638283971465 0.7059712738597719 -0.6804537515376486
vn 0.23008587804123465 0.8389673177496888 -0.49314736993507996
vn 0.23008587804123465 0.8389673177496888 -0.49314736993507996
vn 0.23008587804123465 0.8389673177496888 -0.49314736993507996
vn 0.28679362057023056 0.9036885537007797 -0.3179566277189573
vn 0.28679362057023056 0.9036885537007797 -0.3179566277189573
vn 0.28679362057023056 0.9036885537007797 -0.3179566277189573
vn 0.5989478348030394 0.6424648291797808 -0.4780171905399913
vn 0.5989478348030394 0.6424648291797808 -0.4780171905399913
vn 0.5989478348030394 0.6424648291797808 -0.4780171905399913
vn 0.5371798356656307 0.5416343292544106 -0.6465833879147921
vn 0.5371798356656307 0.5416343292544106 -0.6465833879147921
vn 0.5371798356656307 0.5416343292544106 -0.6465833879147921
vn 0.546224350988216 0.7088578878321833 0.44627284618896323
vn 0.546224350988216 0.7088578878321833 0.44627284618896323
vn 0.546224350988216 0.7088578878321833 0.44627284618896323
vn 0.3183839552467283 0.3339790631907001 0.8871807270177321
vn 0.3183839552467283 0.3339790631907001 0.8871807270177321
vn 0.3183839552467283 0.3339790631907001 0.8871807270177321
vn 0.6759185227985305 0.7366061246612818 -0.02335738960886896
vn 0.6759185227985305 0.7366061246612818 -0.02335738960886896
vn 0.6759185227985305 0.7366061246612818 -0.02335738960886896
vn 0.6155255640757328 0.35832027787582726 0.7019507521416589
vn 0.6155255640757328 0.35832027787582726 0.7019507521416589
vn 0.6155255640757328 0.35832027787582726 0.7019507521416589
vn 0.5556189557211714 0.8285191862986545 -0.0695955025725843
vn 0.5556189557211714 0.8285191862986545 -0.0695955025725843
vn 0.5556189557211714 0.8285191862986545 -0.0695955025725843
vn 0.4500226347792532 0.8385958018411679 -0.30697998195437337
vn 0.4500226347792532 0.8385958018411679 -0.30697998195437337
vn 0.4500226347792532 0.8385958018411679 -0.30697998195437337
vn 0.8654891512684882 0.31654752252357804 0.3882347164032818
vn 0.8654891512684882 0.31654752252357804 0.3882347164032818
vn 0.8654891512684882 0.31654752252357804 0.3882347164032818
vn 0.7283376669515874 0.4987201837350693 0.46989618133666217
vn 0.7283376669515874 0.4987201837350693 0.46989618133666217
vn 0.7283376669515874 0.4987201837350693 0.46989618133666217
vn 0.9840949426398246 0.16990980935262998 0.05184400212631381
vn 0.9840949426398246 0.16990980935262998 0.05184400212631381
vn 0.9840949426398246 0.16990980935262998 0.05184400212631381
vn 0.6837158298371169 0.5965046965726472 0.42037460793548975
vn 0.6837158298371169 0.5965046965726472 0.42037460793548975
vn 0.6837158298371169 0.5965046965726472 0.42037460793548975
vn 0.9163178951897784 0.3445887920180577 -0.20400999821212218
vn 0.9163178951897784 0.3445887920180577 -0.20400999821212218
vn 0.9163178951897784 0.3445887920180577 -0.20400999821212218
vn 0.8921590662775969 0.11277589474146615 -0.43741718990449857
vn 0.8921590662775969 0.11277589474146615 -0.43741718990449857
vn 0.8921590662775969 0.11277589474146615 -0.43741718990449857
vn 0.60449134504721 0.3101504702115855 -0.7337553404170544
vn 0.60449134504721 0.3101504702115855 -0.7337553404170544
vn 0.60449134504721 0.3101504702115855 -0.7337553404170544
vn 0.5541660266386206 0.40768817631835697 -0.7257343631176464
vn 0.5541660266386206 0.40768817631835697 -0.7257343631176464
vn 0.5541660266386206 0.40768817631835697 -0.7257343631176464
vn 0.8021466073928326 0.5595576719868268 -0.2084611042109576
vn 0.8021466073928326 0.5595576719868268 -0.2084611042109576
vn 0.8021466073928326 0.5595576719868268 -0.2084611042109576
vn 0.24175578704520273 0.3342599916991192 -0.9109469783579389
vn 0.24175578704520273 0.3342599916991192 -0.9109469783579389
vn 0.24175578704520273 0.3342599916991192 -0.9109469783579389
vn 0.2142771879119031 0.7388365691029491 0.6389098613237632
vn 0.2142771879119031 0.7388365691029491 0.6389098613237632
vn 0.2142771879119031 0.7388365691029491 0.6389098613237632
vn 0.15209588286723502 0.47718795752025245 0.8655394246436647
vn 0.15209588286723502 0.47718795752025245 0.8655394246436647
vn 0.15209588286723502 0.47718795752025245 0.8655394246436647
vn 0.2389770935659233 0.7512445576881894 0.6152410611253611
vn 0.2389770935659233 0.7512445576881894 0.6152410611253611
vn 0.2389770935659233 0.7512445576881894 0.6152410611253611
vn 0.30984887370108066 0.9359382953605879 0.16737139165248216
vn 0.30984887370108066 0.9359382953605879 0.16737139165248216
vn 0.30984887370108066 0.9359382953605879 0.16737139165248216
vn 0.21080836633158365 0.7562752954739737 0.619360565535426
vn 0.21080836633158365 0.7562752954739737 0.619360565535426
vn 0.21080836633158365 0.7562752954739737 0.619360565535426
vn 0.13779470079553613 0.4474681834304635 0.8836203060421993
vn 0.13779470079553613 0.4474681834304635 0.8836203060421993
vn 0.13779470079553613 0.4474681834304635 0.8836203060421993
vn 0.26287881130096696 0.9622888185065388 0.0699639932127955
vn 0.26287881130096696 0.9622888185065388 0.0699639932127955
vn 0.26287881130096696 0.9622888185065388 0.0699639932127955
vn 0.16685379727207117 0.49695696490411084 0.8515829879519581
vn 0.16685379727207117 0.49695696490411084 0.8515829879519581
vn 0.16685379727207117 0.49695696490411084 0.8515829879519581
vn 0.28953731326815885 0.9065756881324957 0.30706459566766675
vn 0.28953731326815885 0.9065756881324957 0.30706459566766675
vn 0.28953731326815885 0.9065756881324957 0.30706459566766675
vn 0.2436829884341314 0.7291284589994507 0.6395234877820337
vn 0.2436829884341314 0.7291284589994507 0.6395234877820337
vn 0.2436829884341314 0.7291284589994507 0.6395234877820337
vn 0.27787221008592483 0.9182301935035296 0.28220621290190345
vn 0.27787221008592483 0.9182301935035296 0.28220621290190345
vn 0.27787221008592483 0.9182301935035296 0.28220621290190345
vn -0.08476489199543333 0.9469888391581592 0.30988231894524854
vn -0.08476489199543333 0.9469888391581592 0.30988231894524854
vn -0.08476489199543333 0.9469888391581592 0.30988231894524854
vn 0.08979027651748661 0.8002948105618131 0.5928456143303625
vn 0.08979027651748661 0.8002948105618131 0.5928456143303625
vn 0.08979027651748661 0.8002948105618131 0.5928456143303625
vn 0.052069354948514814 0.9174078132629371 0.39452716818916506
vn 0.052069354948514814 0.9174078132629371 0.39452716818916506
vn 0.052069354948514814 0.9174078132629371 0.39452716818916506
vn -0.029734789402698972 0.8992656753682401 -0.43639097997516
vn -0.029734789402698972 0.8992656753682401 -0.43639097997516
vn -0.029734789402698972 0.8992656753682401 -0.43639097997516
vn -0.5253760306800318 0.8379334351989678 -0.14780928442608507
vn -0.5253760306800318 0.8379334351989678 -0.14780928442608507
vn -0.5253760306800318 0.8379334351989678 -0.14780928442608507
vn -0.6133090187535155 0.785769513207688 0.08011441586227172
vn -0.6133090187535155 0.785769513207688 0.08011441586227172
vn -0.6133090187535155 0.785769513207688 0.08011441586227172
vn -0.46153668808020876 0.8010235643821495 0.38124157021561605
vn -0.46153668808020876 0.8010235643821495 0.38124157021561605
vn -0.46153668808020876 0.8010235643821495 0.38124157021561605
vn -0.14759049912092947 0.9743526911534207 -0.1698642923375059
vn -0.14759049912092947 0.9743526911534207 -0.1698642923375059
vn -0.14759049912092947 0.9743526911534207 -0.1698642923375059
vn -0.05162029703211541 0.997775254665915 -0.042188696480038
vn -0.05162029703211541 0.997775254665915 -0.042188696480038
vn -0.05162029703211541 0.997775254665915 -0.042188696480038
vn -0.31133922615214715 0.5400520507736495 -0.7819281736285997
vn -0.31133922615214715 0.5400520507736495 -0.7819281736285997
vn -0.31133922615214715 0.5400520507736495 -0.7819281736285997
vn -0.3260064751639261 0.677535361436478 -0.6592917504067022
vn -0.3260064751639261 0.677535361436478 -0.6592917504067022
vn -0.3260064751639261 0.677535361436478 -0.6592917504067022
vn -0.6055649638059803 0.713519527639421 -0.3523931870622351
vn -0.6055649638059803 0.713519527639421 -0.3523931870622351
vn -0.6055649638059803 0.713519527639421 -0.3523931870622351
vn -0.4937978973757457 0.6866360890038021 0.5335677256214577
vn -0.4937978973757457 0.6866360890038021 0.5335677256214577
vn -0.4937978973757457 0.6866360890038021 0.5335677256214577
vn -0.16722611045477695 0.5444663910418507 0.821943901375288
vn -0.16722611045477695 0.5444663910418507 0.821943901375288
vn -0.16722611045477695 0.5444663910418507 0.821943901375288
vn -0.1763277804295075 0.59941530411367 0.7807751321879559
vn -0.1763277804295075 0.59941530411367 0.7807751321879559
vn -0.1763277804295075 0.59941530411367 0.7807751321879559
vn 0.29203570197191875 0.9563735228354827 -0.008051931011695102
vn 0.29203570197191875 0.9563735228354827 -0.008051931011695102
vn 0.29203570197191875 0.9563735228354827 -0.008051931011695102
f 1//1 2//2 3//3
f 4//4 5//5 6//6
f 7//7 8//8 9//9
f 10//10 11//11 12//12
f 13//13 14//14 15//15
f 16//16 17//17 18//18
f 19//19 20//20 21//21
f 22//22 23//23 24//24
f 25//25 26//26 27//27
f 28//28 29//29 30//30
f 31//31 32//32 33//33
f 34//34 35//35 36//36
f 37//37 38//38 39//39
f 40//40 41//41 42//42
f 43//43 44//44 45//45
f 46//46 47//47 48//48
f 49//49 50//50 51//51
f 52//52 53//53 54//54
f 55//55 56//56 57//57
f 58//58 59//59 60//60
f 61//61 62//62 63//63
f 64//64 65//65 66//66
f 67//67 68//68 69//69
f 70//70 71//71 72//72
f 73//73 74//74 75//75
f 76//76 77//77 78//78
f 79//79 80//80 81//81
f 82//82 83//83 84//84
f 85//85 86//86 87//87
f 88//88 89//89 90//90
f 91//91 92//92 93//93
f 94//94 95//95 96//96
f 97//97 98//98 99//99
f 100//100 101//101 102//102
f 103//103 104//104 105//105
f 106//106 107//107 108//108
f 109//109 110//110 111//111
f 112//112 113//113 114//114
f 115//115 116//116 117//117
f 118//118 119//119 120//120
f 121//121 122//122 123//123
f 124//124 125//125 126//126
f 127//127 128//128 129//129
f 130//130 131//131 132//132
f 133//133 134//134 135//135
f 136//136 137//137 138//138
f 139//139 140//140 141//141
f 142//142 143//143 144//144
f 145//145 146//146 147//147
f 148//148 149//149 150//150
f 151//151 152//152 153//153
f 154//154 155//155 156//156
