o node15
usemtl Shell007_002_002_001
v 0.09659445285797119 0.0707738921046257 -0.033296991139650345
v 0.0535922609269619 0.07916194200515747 -0.0000014798715710639954
v 0.1023230031132698 0.06963341683149338 -0.03110795095562935
v 0.11118890345096588 0.06802713125944138 -0.024508344009518623
v 0.0535922609269619 0.07916194200515747 -0.0000014798715710639954
v 0.11480420082807541 0.06679326295852661 1.0244548320770264e-8
v 0.0535922609269619 0.07916194200515747 -0.0000014798715710639954
v 0.06519109010696411 0.076842300593853 -0.02622174099087715
v 0.06141752004623413 0.0775594711303711 -0.02232144959270954
v 0.09124153107404709 0.07182341068983078 -0.03440361097455025
v 0.0535922609269619 0.07916194200515747 -0.0000014798715710639954
v 0.09659445285797119 0.0707738921046257 -0.033296991139650345
v 0.06906019896268845 0.07610683888196945 -0.02915405109524727
v 0.06519109010696411 0.076842300593853 -0.02622174099087715
v 0.0535922609269619 0.07916194200515747 -0.0000014798715710639954
v 0.0535922609269619 0.07916194200515747 -0.0000014798715710639954
v 0.08109778165817261 0.0737956091761589 -0.03403424099087715
v 0.07442957162857056 0.07507901638746262 -0.03208129107952118
v 0.11118890345096588 0.06802713125944138 -0.024508344009518623
v 0.10733400285243988 0.06863009184598923 -0.02792660892009735
v 0.0535922609269619 0.07916194200515747 -0.0000014798715710639954
v 0.07442957162857056 0.07507901638746262 -0.03208129107952118
v 0.06906019896268845 0.07610683888196945 -0.02915405109524727
v 0.0535922609269619 0.07916194200515747 -0.0000014798715710639954
v 0.08590149134397507 0.07286357134580612 -0.03457508981227875
v 0.0535922609269619 0.07916194200515747 -0.0000014798715710639954
v 0.09124153107404709 0.07182341068983078 -0.03440361097455025
v 0.1023230031132698 0.06963341683149338 -0.03110795095562935
v 0.0535922609269619 0.07916194200515747 -0.0000014798715710639954
v 0.10733400285243988 0.06863009184598923 -0.02792660892009735
v 0.08109778165817261 0.0737956091761589 -0.03403424099087715
v 0.0535922609269619 0.07916194200515747 -0.0000014798715710639954
v 0.08590149134397507 0.07286357134580612 -0.03457508981227875
v 0.05860155075788498 0.07809507101774216 -0.01837562397122383
v 0.0535922609269619 0.07916194200515747 -0.0000014798715710639954
v 0.06141752004623413 0.0775594711303711 -0.02232144959270954
v 0.05600041151046753 0.0785977765917778 -0.013329077512025833
v 0.0535922609269619 0.07916194200515747 -0.0000014798715710639954
v 0.05860155075788498 0.07809507101774216 -0.01837562397122383
v 0.0535922609269619 0.07916194200515747 -0.0000014798715710639954
v 0.05600041151046753 0.0785977765917778 -0.013329077512025833
v 0.05422312021255493 0.07893705368041992 -0.007587421219795942
v 0.05422312021255493 0.07893705368041992 -0.007587421219795942
v 0.05357813090085983 0.07906334847211838 -0.0034061595797538757
v 0.0535922609269619 0.07916194200515747 -0.0000014798715710639954
v 0.11480420082807541 0.06679326295852661 1.0244548320770264e-8
v 0.118293397128582 0.06490670889616013 -0.017174290493130684
v 0.11118890345096588 0.06802713125944138 -0.024508344009518623
v 0.12385399639606476 0.06093310937285423 -0.0000011296942830085754
v 0.12061280012130737 0.06318473070859909 -0.014124007895588875
v 0.11480420082807541 0.06679326295852661 1.0244548320770264e-8
v 0.12385399639606476 0.06093310937285423 -0.0000011296942830085754
v 0.12215600162744522 0.062151070684194565 -0.011141049675643444
v 0.12061280012130737 0.06318473070859909 -0.014124007895588875
v 0.11480420082807541 0.06679326295852661 1.0244548320770264e-8
v 0.12061280012130737 0.06318473070859909 -0.014124007895588875
v 0.118293397128582 0.06490670889616013 -0.017174290493130684
v 0.12385399639606476 0.06093310937285423 -0.0000011296942830085754
v 0.1235245019197464 0.061286561191082 -0.004216600209474564
v 0.12313179671764374 0.06152265891432762 -0.007020520977675915
v 0.12385399639606476 0.06093310937285423 -0.0000011296942830085754
v 0.12313179671764374 0.06152265891432762 -0.007020520977675915
v 0.12215600162744522 0.062151070684194565 -0.011141049675643444
v 0.1235245019197464 0.061286561191082 -0.004216600209474564
v 0.12385399639606476 0.06093310937285423 -0.0000011296942830085754
v 0.12361539900302887 0.06114751100540161 -0.004093400202691555
v 0.05712014064192772 0.07829325646162033 0.01604212075471878
v 0.053536828607320786 0.0786200687289238 -0.0000011799857020378113
v 0.05446081981062889 0.07879751175642014 0.00896312016993761
v 0.06699156016111374 0.07638168334960938 0.027743589133024216
v 0.053536828607320786 0.0786200687289238 -0.0000011799857020378113
v 0.06210434064269066 0.07730156183242798 0.023316510021686554
v 0.053536828607320786 0.0786200687289238 -0.0000011799857020378113
v 0.07521902769804001 0.07478033751249313 0.03235967084765434
v 0.08114171028137207 0.07361733168363571 0.03406650945544243
v 0.06699156016111374 0.07638168334960938 0.027743589133024216
v 0.07074344158172607 0.0756537914276123 0.030215270817279816
v 0.053536828607320786 0.0786200687289238 -0.0000011799857020378113
v 0.053536828607320786 0.0786200687289238 -0.0000011799857020378113
v 0.08114171028137207 0.07361733168363571 0.03406650945544243
v 0.08864717930555344 0.07225506752729416 0.03463638946413994
v 0.07521902769804001 0.07478033751249313 0.03235967084765434
v 0.053536828607320786 0.0786200687289238 -0.0000011799857020378113
v 0.07074344158172607 0.0756537914276123 0.030215270817279816
v 0.053536828607320786 0.0786200687289238 -0.0000011799857020378113
v 0.05712014064192772 0.07829325646162033 0.01604212075471878
v 0.06210434064269066 0.07730156183242798 0.023316510021686554
v 0.05446081981062889 0.07879751175642014 0.00896312016993761
v 0.053536828607320786 0.0786200687289238 -0.0000011799857020378113
v 0.053603049367666245 0.07897377014160156 0.004320510663092136
v 0.0960584208369255 0.07078354805707932 0.03346933051943779
v 0.10127740353345871 0.06973891705274582 0.03154832869768143
v 0.11498430371284485 0.06665229052305222 -1.7043203115463257e-7
v 0.10516999661922455 0.06896936148405075 0.02943361923098564
v 0.11498430371284485 0.06665229052305222 -1.7043203115463257e-7
v 0.10127740353345871 0.06973891705274582 0.03154832869768143
v 0.10986559838056564 0.0680045410990715 0.02591932937502861
v 0.11498430371284485 0.06665229052305222 -1.7043203115463257e-7
v 0.10516999661922455 0.06896936148405075 0.02943361923098564
v 0.08864717930555344 0.07225506752729416 0.03463638946413994
v 0.11498430371284485 0.06665229052305222 -1.7043203115463257e-7
v 0.053536828607320786 0.0786200687289238 -0.0000011799857020378113
v 0.0960584208369255 0.07078354805707932 0.03346933051943779
v 0.11498430371284485 0.06665229052305222 -1.7043203115463257e-7
v 0.08864717930555344 0.07225506752729416 0.03463638946413994
v 0.12199810147285461 0.06217854842543602 0.012003430165350437
v 0.11498430371284485 0.06665229052305222 -1.7043203115463257e-7
v 0.11938569694757462 0.06398128718137741 0.016019530594348907
v 0.11498430371284485 0.06665229052305222 -1.7043203115463257e-7
v 0.11379480361938477 0.06709294766187668 0.02180952951312065
v 0.11938569694757462 0.06398128718137741 0.016019530594348907
v 0.12199810147285461 0.06217854842543602 0.012003430165350437
v 0.12385830283164978 0.06083285063505173 2.4959444999694824e-7
v 0.11498430371284485 0.06665229052305222 -1.7043203115463257e-7
v 0.11379480361938477 0.06709294766187668 0.02180952951312065
v 0.11498430371284485 0.06665229052305222 -1.7043203115463257e-7
v 0.10986559838056564 0.0680045410990715 0.02591932937502861
v 0.1230664998292923 0.06148260086774826 0.008014810271561146
v 0.12385830283164978 0.06083285063505173 2.4959444999694824e-7
v 0.12199810147285461 0.06217854842543602 0.012003430165350437
v 0.12385830283164978 0.06083285063505173 2.4959444999694824e-7
v 0.1230664998292923 0.06148260086774826 0.008014810271561146
v 0.12366089969873428 0.060972269624471664 0.0035305703058838844
vn 0.19399798880424945 0.9809959860840337 0.0034140338195369994
vn 0.19399798880424945 0.9809959860840337 0.0034140338195369994
vn 0.19399798880424945 0.9809959860840337 0.0034140338195369994
vn 0.19801969905334507 0.9799913803152659 0.02012692958707083
vn 0.19801969905334507 0.9799913803152659 0.02012692958707083
vn 0.19801969905334507 0.9799913803152659 0.02012692958707083
vn 0.1787475066741382 0.9838627075705321 -0.007968783455484458
vn 0.1787475066741382 0.9838627075705321 -0.007968783455484458
vn 0.1787475066741382 0.9838627075705321 -0.007968783455484458
vn 0.19220128688976218 0.9813550131758053 0.0010017148469361338
vn 0.19220128688976218 0.9813550131758053 0.0010017148469361338
vn 0.19220128688976218 0.9813550131758053 0.0010017148469361338
vn 0.1819965998573696 0.9832778031968415 -0.006480692922052029
vn 0.1819965998573696 0.9832778031968415 -0.006480692922052029
vn 0.1819965998573696 0.9832778031968415 -0.006480692922052029
vn 0.18822309411448312 0.9821224827810688 -0.002737819920966747
vn 0.18822309411448312 0.9821224827810688 -0.002737819920966747
vn 0.18822309411448312 0.9821224827810688 -0.002737819920966747
vn 0.17837698518717623 0.9835732447484452 -0.027664478497688338
vn 0.17837698518717623 0.9835732447484452 -0.027664478497688338
vn 0.17837698518717623 0.9835732447484452 -0.027664478497688338
vn 0.1856584750710135 0.9826041739209658 -0.004468559880108165
vn 0.1856584750710135 0.9826041739209658 -0.004468559880108165
vn 0.1856584750710135 0.9826041739209658 -0.004468559880108165
vn 0.19119618938313274 0.9815518314033864 -0.00013940598077511455
vn 0.19119618938313274 0.9815518314033864 -0.00013940598077511455
vn 0.19119618938313274 0.9815518314033864 -0.00013940598077511455
vn 0.1941199854019032 0.9809711349616121 0.0036143657384748785
vn 0.1941199854019032 0.9809711349616121 0.0036143657384748785
vn 0.1941199854019032 0.9809711349616121 0.0036143657384748785
vn 0.19037068427981027 0.9817118326010065 -0.0009382419786050604
vn 0.19037068427981027 0.9817118326010065 -0.0009382419786050604
vn 0.19037068427981027 0.9817118326010065 -0.0009382419786050604
vn 0.17344826313791267 0.9847932971022386 -0.009892522274080712
vn 0.17344826313791267 0.9847932971022386 -0.009892522274080712
vn 0.17344826313791267 0.9847932971022386 -0.009892522274080712
vn 0.1686598099607936 0.9856101491251653 -0.011247330592571455
vn 0.1686598099607936 0.9856101491251653 -0.011247330592571455
vn 0.1686598099607936 0.9856101491251653 -0.011247330592571455
vn 0.1289591011005145 0.991474185704401 -0.01866786878950589
vn 0.1289591011005145 0.991474185704401 -0.01866786878950589
vn 0.1289591011005145 0.991474185704401 -0.01866786878950589
vn 0.007868111256191062 0.9995491660437632 -0.02897511840317602
vn 0.007868111256191062 0.9995491660437632 -0.02897511840317602
vn 0.007868111256191062 0.9995491660437632 -0.02897511840317602
vn 0.4154575050023649 0.9094805456827147 -0.01549834061701971
vn 0.4154575050023649 0.9094805456827147 -0.01549834061701971
vn 0.4154575050023649 0.9094805456827147 -0.01549834061701971
vn 0.5435185536529581 0.8393480342447242 0.009080707269478497
vn 0.5435185536529581 0.8393480342447242 0.009080707269478497
vn 0.5435185536529581 0.8393480342447242 0.009080707269478497
vn 0.5449555452387754 0.838420798491072 0.00860339299939173
vn 0.5449555452387754 0.838420798491072 0.00860339299939173
vn 0.5449555452387754 0.838420798491072 0.00860339299939173
vn 0.5731997887646648 0.8189874008047667 0.02648847831031762
vn 0.5731997887646648 0.8189874008047667 0.02648847831031762
vn 0.5731997887646648 0.8189874008047667 0.02648847831031762
vn 0.005187689903990028 0.9965220904198423 0.08316736847302214
vn 0.005187689903990028 0.9965220904198423 0.08316736847302214
vn 0.005187689903990028 0.9965220904198423 0.08316736847302214
vn 0.455278014255735 0.8899121383771265 0.027898310063603094
vn 0.455278014255735 0.8899121383771265 0.027898310063603094
vn 0.455278014255735 0.8899121383771265 0.027898310063603094
vn 0.8454746686260026 0.5335889510593185 -0.021340478419358832
vn 0.8454746686260026 0.5335889510593185 -0.021340478419358832
vn 0.8454746686260026 0.5335889510593185 -0.021340478419358832
vn 0.3163231602130221 0.9472604366643498 -0.051354877502648964
vn 0.3163231602130221 0.9472604366643498 -0.051354877502648964
vn 0.3163231602130221 0.9472604366643498 -0.051354877502648964
vn 0.20111397883616225 0.9793929206741125 -0.018511468070333104
vn 0.20111397883616225 0.9793929206741125 -0.018511468070333104
vn 0.20111397883616225 0.9793929206741125 -0.018511468070333104
vn 0.197012483559058 0.9802754495765921 -0.01568834852054863
vn 0.197012483559058 0.9802754495765921 -0.01568834852054863
vn 0.197012483559058 0.9802754495765921 -0.01568834852054863
vn 0.2026494036961187 0.9790614443373746 -0.019284900664022532
vn 0.2026494036961187 0.9790614443373746 -0.019284900664022532
vn 0.2026494036961187 0.9790614443373746 -0.019284900664022532
vn 0.17860257277327563 0.983921270258758 -0.00023437397155725057
vn 0.17860257277327563 0.983921270258758 -0.00023437397155725057
vn 0.17860257277327563 0.983921270258758 -0.00023437397155725057
vn 0.19957317104684105 0.979727193532796 -0.017469277336498883
vn 0.19957317104684105 0.979727193532796 -0.017469277336498883
vn 0.19957317104684105 0.979727193532796 -0.017469277336498883
vn 0.24338118809367595 0.9693128497429023 -0.034614976605575484
vn 0.24338118809367595 0.9693128497429023 -0.034614976605575484
vn 0.24338118809367595 0.9693128497429023 -0.034614976605575484
vn 0.5757008893843141 0.8141712095788216 -0.0754567919744035
vn 0.5757008893843141 0.8141712095788216 -0.0754567919744035
vn 0.5757008893843141 0.8141712095788216 -0.0754567919744035
vn 0.19175350519452922 0.9813609048206134 -0.01270306007538488
vn 0.19175350519452922 0.9813609048206134 -0.01270306007538488
vn 0.19175350519452922 0.9813609048206134 -0.01270306007538488
vn 0.18588438559511553 0.9824515543820842 -0.01536028919496136
vn 0.18588438559511553 0.9824515543820842 -0.01536028919496136
vn 0.18588438559511553 0.9824515543820842 -0.01536028919496136
vn 0.19165379166891108 0.9813717786955897 -0.013351259071121908
vn 0.19165379166891108 0.9813717786955897 -0.013351259071121908
vn 0.19165379166891108 0.9813717786955897 -0.013351259071121908
vn 0.19115510187971457 0.9814682400097702 -0.013409730701246838
vn 0.19115510187971457 0.9814682400097702 -0.013409730701246838
vn 0.19115510187971457 0.9814682400097702 -0.013409730701246838
vn 0.1929153919172259 0.981141790467477 -0.012018259428746044
vn 0.1929153919172259 0.981141790467477 -0.012018259428746044
vn 0.1929153919172259 0.981141790467477 -0.012018259428746044
vn 0.5538958896818374 0.8324784024957118 -0.013381060187945992
vn 0.5538958896818374 0.8324784024957118 -0.013381060187945992
vn 0.5538958896818374 0.8324784024957118 -0.013381060187945992
vn 0.4936710401025183 0.8695984068088852 0.009354947329966353
vn 0.4936710401025183 0.8695984068088852 0.009354947329966353
vn 0.4936710401025183 0.8695984068088852 0.009354947329966353
vn 0.5483603538603562 0.83619625308402 -0.008760630250773999
vn 0.5483603538603562 0.83619625308402 -0.008760630250773999
vn 0.5483603538603562 0.83619625308402 -0.008760630250773999
vn 0.21823136274536575 0.9758657708466452 -0.007814704356766136
vn 0.21823136274536575 0.9758657708466452 -0.007814704356766136
vn 0.21823136274536575 0.9758657708466452 -0.007814704356766136
vn 0.4834102722443413 0.875086849800659 -0.02318434805231203
vn 0.4834102722443413 0.875086849800659 -0.02318434805231203
vn 0.4834102722443413 0.875086849800659 -0.02318434805231203
vn 0.6962655780196408 0.7177060243887332 0.010597519572739567
vn 0.6962655780196408 0.7177060243887332 0.010597519572739567
vn 0.6962655780196408 0.7177060243887332 0.010597519572739567
f 1//1 2//2 3//3
f 4//4 5//5 6//6
f 7//7 8//8 9//9
f 10//10 11//11 12//12
f 13//13 14//14 15//15
f 16//16 17//17 18//18
f 19//19 20//20 21//21
f 22//22 23//23 24//24
f 25//25 26//26 27//27
f 28//28 29//29 30//30
f 31//31 32//32 33//33
f 34//34 35//35 36//36
f 37//37 38//38 39//39
f 40//40 41//41 42//42
f 43//43 44//44 45//45
f 46//46 47//47 48//48
f 49//49 50//50 51//51
f 52//52 53//53 54//54
f 55//55 56//56 57//57
f 58//58 59//59 60//60
f 61//61 62//62 63//63
f 64//64 65//65 66//66
f 67//67 68//68 69//69
f 70//70 71//71 72//72
f 73//73 74//74 75//75
f 76//76 77//77 78//78
f 79//79 80//80 81//81
f 82//82 83//83 84//84
f 85//85 86//86 87//87
f 88//88 89//89 90//90
f 91//91 92//92 93//93
f 94//94 95//95 96//96
f 97//97 98//98 99//99
f 100//100 101//101 102//102
f 103//103 104//104 105//105
f 106//106 107//107 108//108
f 109//109 110//110 111//111
f 112//112 113//113 114//114
f 115//115 116//116 117//117
f 118//118 119//119 120//120
f 121//121 122//122 123//123
