o node4
usemtl Part__Feature018_001
v 0.008512616157531738 -0.06976871937513351 0.08385466784238815
v 0.005045353900641203 -0.06921941041946411 0.08469133824110031
v 0.0069849491119384766 -0.06952124089002609 0.08467298001050949
v 0.009975074790418148 -0.07000582665205002 0.08260095119476318
v 0.0019977090414613485 -0.06871587038040161 0.08143609017133713
v 0.008512616157531738 -0.06976871937513351 0.08385466784238815
v 0.011500120162963867 -0.07025288790464401 0.08050321787595749
v 0.0019977090414613485 -0.06871587038040161 0.08143609017133713
v 0.009975074790418148 -0.07000582665205002 0.08260095119476318
v 0.012698110193014145 -0.07044749706983566 0.07722634077072144
v 0.0019977090414613485 -0.06871587038040161 0.08143609017133713
v 0.011500120162963867 -0.07025288790464401 0.08050321787595749
v 0.015147079713642597 -0.07084398716688156 0.05996011942625046
v 0.0019977090414613485 -0.06871587038040161 0.08143609017133713
v 0.012698110193014145 -0.07044749706983566 0.07722634077072144
v 0.00962048675864935 -0.06998442858457565 0.013219949789345264
v 0.015147079713642597 -0.07084398716688156 0.05996011942625046
v 0.018835600465536118 -0.07144062966108322 0.030645310878753662
v 0.00962048675864935 -0.06998442858457565 0.013219949789345264
v 0.0019977090414613485 -0.06871587038040161 0.08143609017133713
v 0.015147079713642597 -0.07084398716688156 0.05996011942625046
v 0.020778000354766846 -0.0718274712562561 0.013176379725337029
v 0.00962048675864935 -0.06998442858457565 0.013219949789345264
v 0.018835600465536118 -0.07144062966108322 0.030645310878753662
v 0.008512616157531738 -0.06976871937513351 0.08385466784238815
v 0.0039771790616214275 -0.06903547048568726 0.08429931849241257
v 0.005045353900641203 -0.06921941041946411 0.08469133824110031
v 0.008512616157531738 -0.06976871937513351 0.08385466784238815
v 0.0019977090414613485 -0.06871587038040161 0.08143609017133713
v 0.0026413199957460165 -0.06882833689451218 0.08303332328796387
v 0.008512616157531738 -0.06976871937513351 0.08385466784238815
v 0.0026413199957460165 -0.06882833689451218 0.08303332328796387
v 0.0039771790616214275 -0.06903547048568726 0.08429931849241257
v 0.017077019438147545 -0.07513368129730225 0.015488560311496258
v 0.012203210033476353 -0.07439284771680832 0.01004462968558073
v 0.01758706010878086 -0.0752558708190918 0.010099640116095543
v 0.01474452018737793 -0.07478462904691696 0.03462100028991699
v 0.012203210033476353 -0.07439284771680832 0.01004462968558073
v 0.017077019438147545 -0.07513368129730225 0.015488560311496258
v 0.013723489828407764 -0.0746031403541565 0.0431814081966877
v 0.012203210033476353 -0.07439284771680832 0.01004462968558073
v 0.01474452018737793 -0.07478462904691696 0.03462100028991699
v 0.00448495103046298 -0.07314734905958176 0.08143258094787598
v 0.011855180375277996 -0.07429707050323486 0.05801850184798241
v 0.010926900431513786 -0.07412713021039963 0.06547533720731735
v 0.00448495103046298 -0.07314734905958176 0.08143258094787598
v 0.010926900431513786 -0.07412713021039963 0.06547533720731735
v 0.009899555705487728 -0.0739663764834404 0.07250583171844482
v 0.00448495103046298 -0.07314734905958176 0.08143258094787598
v 0.009899555705487728 -0.0739663764834404 0.07250583171844482
v 0.009107767604291439 -0.07388781756162643 0.07665114849805832
v 0.007147610187530518 -0.07356572151184082 0.08069746941328049
v 0.00448495103046298 -0.07314734905958176 0.08143258094787598
v 0.009107767604291439 -0.07388781756162643 0.07665114849805832
v 0.007147610187530518 -0.07356572151184082 0.08069746941328049
v 0.005376576911658049 -0.07329212874174118 0.08172398060560226
v 0.00448495103046298 -0.07314734905958176 0.08143258094787598
v 0.00448495103046298 -0.07314734905958176 0.08143258094787598
v 0.012203210033476353 -0.07439284771680832 0.01004462968558073
v 0.011855180375277996 -0.07429707050323486 0.05801850184798241
v 0.011855180375277996 -0.07429707050323486 0.05801850184798241
v 0.012203210033476353 -0.07439284771680832 0.01004462968558073
v 0.012824170291423798 -0.07446104288101196 0.0503610298037529
v 0.012824170291423798 -0.07446104288101196 0.0503610298037529
v 0.012203210033476353 -0.07439284771680832 0.01004462968558073
v 0.013723489828407764 -0.0746031403541565 0.0431814081966877
v 0.009107767604291439 -0.07388781756162643 0.07665114849805832
v 0.009899555705487728 -0.0739663764834404 0.07250583171844482
v 0.010375550016760826 -0.07370846718549728 0.07395976036787033
v 0.01590198092162609 -0.07447408884763718 0.03328841179609299
v 0.015356889925897121 -0.07453674077987671 0.03596973046660423
v 0.01474452018737793 -0.07478462904691696 0.03462100028991699
v 0.01474452018737793 -0.07478462904691696 0.03462100028991699
v 0.014444050379097462 -0.07462363690137863 0.040092580020427704
v 0.013723489828407764 -0.0746031403541565 0.0431814081966877
v 0.013723489828407764 -0.0746031403541565 0.0431814081966877
v 0.014444050379097462 -0.07462363690137863 0.040092580020427704
v 0.014292240142822266 -0.07442402094602585 0.043891068547964096
v 0.017775829881429672 -0.07492834329605103 0.015266230329871178
v 0.01590198092162609 -0.07447408884763718 0.03328841179609299
v 0.017077019438147545 -0.07513368129730225 0.015488560311496258
v 0.018169930204749107 -0.07475686073303223 0.014707920141518116
v 0.01590198092162609 -0.07447408884763718 0.03328841179609299
v 0.017775829881429672 -0.07492834329605103 0.015266230329871178
v 0.01590198092162609 -0.07447408884763718 0.03328841179609299
v 0.01474452018737793 -0.07478462904691696 0.03462100028991699
v 0.017077019438147545 -0.07513368129730225 0.015488560311496258
v 0.013052579946815968 -0.0737748071551323 0.05768119916319847
v 0.013276509940624237 -0.07404530048370361 0.05404870957136154
v 0.014129569754004478 -0.07398837059736252 0.04914921149611473
v 0.014129569754004478 -0.07398837059736252 0.04914921149611473
v 0.013276509940624237 -0.07404530048370361 0.05404870957136154
v 0.013551590032875538 -0.07428228110074997 0.04993956908583641
v 0.010608970187604427 -0.0732601210474968 0.07592684030532837
v 0.009940147399902344 -0.07349181175231934 0.07767628878355026
v 0.010375550016760826 -0.07370846718549728 0.07395976036787033
v 0.009940147399902344 -0.07349181175231934 0.07767628878355026
v 0.009107767604291439 -0.07388781756162643 0.07665114849805832
v 0.010375550016760826 -0.07370846718549728 0.07395976036787033
v 0.011606689542531967 -0.07391268014907837 0.06519895046949387
v 0.012177219614386559 -0.07369749993085861 0.06378977745771408
v 0.011388829909265041 -0.0735883116722107 0.06939750164747238
v 0.011388829909265041 -0.0735883116722107 0.06939750164747238
v 0.010375550016760826 -0.07370846718549728 0.07395976036787033
v 0.010589770041406155 -0.0738825723528862 0.07086329907178879
v 0.010608970187604427 -0.0732601210474968 0.07592684030532837
v 0.010375550016760826 -0.07370846718549728 0.07395976036787033
v 0.011388829909265041 -0.0735883116722107 0.06939750164747238
v 0.009244382381439209 -0.07315664738416672 0.07978653162717819
v 0.008588789962232113 -0.0736413523554802 0.07938294857740402
v 0.009940147399902344 -0.07349181175231934 0.07767628878355026
v 0.01474452018737793 -0.07478462904691696 0.03462100028991699
v 0.015356889925897121 -0.07453674077987671 0.03596973046660423
v 0.014444050379097462 -0.07462363690137863 0.040092580020427704
v 0.009940147399902344 -0.07349181175231934 0.07767628878355026
v 0.008588789962232113 -0.0736413523554802 0.07938294857740402
v 0.009107767604291439 -0.07388781756162643 0.07665114849805832
v 0.015356889925897121 -0.07453674077987671 0.03596973046660423
v 0.015110130421817303 -0.07416999340057373 0.041192468255758286
v 0.014444050379097462 -0.07462363690137863 0.040092580020427704
v 0.008588789962232113 -0.0736413523554802 0.07938294857740402
v 0.007147610187530518 -0.07356572151184082 0.08069746941328049
v 0.009107767604291439 -0.07388781756162643 0.07665114849805832
v 0.014444050379097462 -0.07462363690137863 0.040092580020427704
v 0.015110130421817303 -0.07416999340057373 0.041192468255758286
v 0.014292240142822266 -0.07442402094602585 0.043891068547964096
v 0.013551590032875538 -0.07428228110074997 0.04993956908583641
v 0.014292240142822266 -0.07442402094602585 0.043891068547964096
v 0.014129569754004478 -0.07398837059736252 0.04914921149611473
v 0.013723489828407764 -0.0746031403541565 0.0431814081966877
v 0.014292240142822266 -0.07442402094602585 0.043891068547964096
v 0.013551590032875538 -0.07428228110074997 0.04993956908583641
v 0.009244382381439209 -0.07315664738416672 0.07978653162717819
v 0.00786900520324707 -0.07302778214216232 0.08148019760847092
v 0.008588789962232113 -0.0736413523554802 0.07938294857740402
v 0.00786900520324707 -0.07302778214216232 0.08148019760847092
v 0.007147610187530518 -0.07356572151184082 0.08069746941328049
v 0.008588789962232113 -0.0736413523554802 0.07938294857740402
v 0.013551590032875538 -0.07428228110074997 0.04993956908583641
v 0.012824170291423798 -0.07446104288101196 0.0503610298037529
v 0.013723489828407764 -0.0746031403541565 0.0431814081966877
v 0.013276509940624237 -0.07404530048370361 0.05404870957136154
v 0.012669620104134083 -0.07434438914060593 0.053737640380859375
v 0.013551590032875538 -0.07428228110074997 0.04993956908583641
v 0.013551590032875538 -0.07428228110074997 0.04993956908583641
v 0.012669620104134083 -0.07434438914060593 0.053737640380859375
v 0.012824170291423798 -0.07446104288101196 0.0503610298037529
v 0.012669620104134083 -0.07434438914060593 0.053737640380859375
v 0.013276509940624237 -0.07404530048370361 0.05404870957136154
v 0.012350790202617645 -0.07414393872022629 0.05838495120406151
v 0.013052579946815968 -0.0737748071551323 0.05768119916319847
v 0.012350790202617645 -0.07414393872022629 0.05838495120406151
v 0.013276509940624237 -0.07404530048370361 0.05404870957136154
v 0.005320370197296143 -0.07313156127929688 0.08223699778318405
v 0.007147610187530518 -0.07356572151184082 0.08069746941328049
v 0.006081581115722656 -0.07273118942975998 0.08276890963315964
v 0.006081581115722656 -0.07273118942975998 0.08276890963315964
v 0.007147610187530518 -0.07356572151184082 0.08069746941328049
v 0.00786900520324707 -0.07302778214216232 0.08148019760847092
v 0.005376576911658049 -0.07329212874174118 0.08172398060560226
v 0.007147610187530518 -0.07356572151184082 0.08069746941328049
v 0.005320370197296143 -0.07313156127929688 0.08223699778318405
v 0.015110130421817303 -0.07416999340057373 0.041192468255758286
v 0.015356889925897121 -0.07453674077987671 0.03596973046660423
v 0.01590198092162609 -0.07447408884763718 0.03328841179609299
v 0.012177219614386559 -0.07369749993085861 0.06378977745771408
v 0.012350790202617645 -0.07414393872022629 0.05838495120406151
v 0.013052579946815968 -0.0737748071551323 0.05768119916319847
v 0.011605620384216309 -0.07418102025985718 0.06158827990293503
v 0.011855180375277996 -0.07429707050323486 0.05801850184798241
v 0.012350790202617645 -0.07414393872022629 0.05838495120406151
v 0.014129569754004478 -0.07398837059736252 0.04914921149611473
v 0.014292240142822266 -0.07442402094602585 0.043891068547964096
v 0.015110130421817303 -0.07416999340057373 0.041192468255758286
v 0.011605620384216309 -0.07418102025985718 0.06158827990293503
v 0.012350790202617645 -0.07414393872022629 0.05838495120406151
v 0.012177219614386559 -0.07369749993085861 0.06378977745771408
v 0.011605620384216309 -0.07418102025985718 0.06158827990293503
v 0.012177219614386559 -0.07369749993085861 0.06378977745771408
v 0.011606689542531967 -0.07391268014907837 0.06519895046949387
v 0.012824170291423798 -0.07446104288101196 0.0503610298037529
v 0.012669620104134083 -0.07434438914060593 0.053737640380859375
v 0.011855180375277996 -0.07429707050323486 0.05801850184798241
v 0.011606689542531967 -0.07391268014907837 0.06519895046949387
v 0.01070873998105526 -0.07403004169464111 0.06819521635770798
v 0.010926900431513786 -0.07412713021039963 0.06547533720731735
v 0.011388829909265041 -0.0735883116722107 0.06939750164747238
v 0.01070873998105526 -0.07403004169464111 0.06819521635770798
v 0.011606689542531967 -0.07391268014907837 0.06519895046949387
v 0.01070873998105526 -0.07403004169464111 0.06819521635770798
v 0.011388829909265041 -0.0735883116722107 0.06939750164747238
v 0.010589770041406155 -0.0738825723528862 0.07086329907178879
v 0.011855180375277996 -0.07429707050323486 0.05801850184798241
v 0.011605620384216309 -0.07418102025985718 0.06158827990293503
v 0.010926900431513786 -0.07412713021039963 0.06547533720731735
v 0.010589770041406155 -0.0738825723528862 0.07086329907178879
v 0.010375550016760826 -0.07370846718549728 0.07395976036787033
v 0.009899555705487728 -0.0739663764834404 0.07250583171844482
v 0.012669620104134083 -0.07434438914060593 0.053737640380859375
v 0.012350790202617645 -0.07414393872022629 0.05838495120406151
v 0.011855180375277996 -0.07429707050323486 0.05801850184798241
v 0.011606689542531967 -0.07391268014907837 0.06519895046949387
v 0.010926900431513786 -0.07412713021039963 0.06547533720731735
v 0.011605620384216309 -0.07418102025985718 0.06158827990293503
v 0.010589770041406155 -0.0738825723528862 0.07086329907178879
v 0.009899555705487728 -0.0739663764834404 0.07250583171844482
v 0.01070873998105526 -0.07403004169464111 0.06819521635770798
v 0.010926900431513786 -0.07412713021039963 0.06547533720731735
v 0.01070873998105526 -0.07403004169464111 0.06819521635770798
v 0.009899555705487728 -0.0739663764834404 0.07250583171844482
v 0.018169930204749107 -0.07475686073303223 0.014707920141518116
v 0.01758706010878086 -0.0752558708190918 0.010099640116095543
v 0.018438510596752167 -0.07500212639570236 0.01011735014617443
v 0.018169930204749107 -0.07475686073303223 0.014707920141518116
v 0.017077019438147545 -0.07513368129730225 0.015488560311496258
v 0.01758706010878086 -0.0752558708190918 0.010099640116095543
v 0.017775829881429672 -0.07492834329605103 0.015266230329871178
v 0.017077019438147545 -0.07513368129730225 0.015488560311496258
v 0.018169930204749107 -0.07475686073303223 0.014707920141518116
v 0.003935753833502531 -0.0724756121635437 0.08216196298599243
v 0.003367065917700529 -0.07232964038848877 0.08104532212018967
v 0.003915249835699797 -0.07287514209747314 0.08107870072126389
v 0.004733740817755461 -0.07243602722883224 0.08280187100172043
v 0.003935753833502531 -0.0724756121635437 0.08216196298599243
v 0.005320370197296143 -0.07313156127929688 0.08223699778318405
v 0.005320370197296143 -0.07313156127929688 0.08223699778318405
v 0.00448495103046298 -0.07314734905958176 0.08143258094787598
v 0.005376576911658049 -0.07329212874174118 0.08172398060560226
v 0.003935753833502531 -0.0724756121635437 0.08216196298599243
v 0.003915249835699797 -0.07287514209747314 0.08107870072126389
v 0.00448495103046298 -0.07314734905958176 0.08143258094787598
v 0.006081581115722656 -0.07273118942975998 0.08276890963315964
v 0.004733740817755461 -0.07243602722883224 0.08280187100172043
v 0.005320370197296143 -0.07313156127929688 0.08223699778318405
v 0.003935753833502531 -0.0724756121635437 0.08216196298599243
v 0.00448495103046298 -0.07314734905958176 0.08143258094787598
v 0.005320370197296143 -0.07313156127929688 0.08223699778318405
v 0.003367065917700529 -0.07232964038848877 0.08104532212018967
v 0.011115719564259052 -0.07311099022626877 0.010156390257179737
v 0.012203210033476353 -0.07439284771680832 0.01004462968558073
v 0.003915249835699797 -0.07287514209747314 0.08107870072126389
v 0.003367065917700529 -0.07232964038848877 0.08104532212018967
v 0.012203210033476353 -0.07439284771680832 0.01004462968558073
v 0.00448495103046298 -0.07314734905958176 0.08143258094787598
v 0.003915249835699797 -0.07287514209747314 0.08107870072126389
v 0.012203210033476353 -0.07439284771680832 0.01004462968558073
v 0.020778000354766846 -0.0718274712562561 0.013176379725337029
v 0.020393190905451775 -0.07252991199493408 0.011652519926428795
v 0.010198590345680714 -0.07098770141601562 0.011396050453186035
v 0.020778000354766846 -0.0718274712562561 0.013176379725337029
v 0.010198590345680714 -0.07098770141601562 0.011396050453186035
v 0.00962048675864935 -0.06998442858457565 0.013219949789345264
v 0.018438510596752167 -0.07500212639570236 0.01011735014617443
v 0.01758706010878086 -0.0752558708190918 0.010099640116095543
v 0.012203210033476353 -0.07439284771680832 0.01004462968558073
v 0.018438510596752167 -0.07500212639570236 0.01011735014617443
v 0.012203210033476353 -0.07439284771680832 0.01004462968558073
v 0.011115719564259052 -0.07311099022626877 0.010156390257179737
v 0.0195996705442667 -0.07366377115249634 0.010564739815890789
v 0.018438510596752167 -0.07500212639570236 0.01011735014617443
v 0.011115719564259052 -0.07311099022626877 0.010156390257179737
v 0.0195996705442667 -0.07366377115249634 0.010564739815890789
v 0.011115719564259052 -0.07311099022626877 0.010156390257179737
v 0.010198590345680714 -0.07098770141601562 0.011396050453186035
v 0.020393190905451775 -0.07252991199493408 0.011652519926428795
v 0.0195996705442667 -0.07366377115249634 0.010564739815890789
v 0.010198590345680714 -0.07098770141601562 0.011396050453186035
v 0.011500120162963867 -0.07025288790464401 0.08050321787595749
v 0.009940147399902344 -0.07349181175231934 0.07767628878355026
v 0.012698110193014145 -0.07044749706983566 0.07722634077072144
v 0.015110130421817303 -0.07416999340057373 0.041192468255758286
v 0.015147079713642597 -0.07084398716688156 0.05996011942625046
v 0.014129569754004478 -0.07398837059736252 0.04914921149611473
v 0.015147079713642597 -0.07084398716688156 0.05996011942625046
v 0.015110130421817303 -0.07416999340057373 0.041192468255758286
v 0.018835600465536118 -0.07144062966108322 0.030645310878753662
v 0.018835600465536118 -0.07144062966108322 0.030645310878753662
v 0.015110130421817303 -0.07416999340057373 0.041192468255758286
v 0.01590198092162609 -0.07447408884763718 0.03328841179609299
v 0.018169930204749107 -0.07475686073303223 0.014707920141518116
v 0.018835600465536118 -0.07144062966108322 0.030645310878753662
v 0.01590198092162609 -0.07447408884763718 0.03328841179609299
v 0.009940147399902344 -0.07349181175231934 0.07767628878355026
v 0.010608970187604427 -0.0732601210474968 0.07592684030532837
v 0.012698110193014145 -0.07044749706983566 0.07722634077072144
v 0.018835600465536118 -0.07144062966108322 0.030645310878753662
v 0.018169930204749107 -0.07475686073303223 0.014707920141518116
v 0.020778000354766846 -0.0718274712562561 0.013176379725337029
v 0.020778000354766846 -0.0718274712562561 0.013176379725337029
v 0.0195996705442667 -0.07366377115249634 0.010564739815890789
v 0.020393190905451775 -0.07252991199493408 0.011652519926428795
v 0.018169930204749107 -0.07475686073303223 0.014707920141518116
v 0.0195996705442667 -0.07366377115249634 0.010564739815890789
v 0.020778000354766846 -0.0718274712562561 0.013176379725337029
v 0.018438510596752167 -0.07500212639570236 0.01011735014617443
v 0.0195996705442667 -0.07366377115249634 0.010564739815890789
v 0.018169930204749107 -0.07475686073303223 0.014707920141518116
v 0.012698110193014145 -0.07044749706983566 0.07722634077072144
v 0.011388829909265041 -0.0735883116722107 0.06939750164747238
v 0.015147079713642597 -0.07084398716688156 0.05996011942625046
v 0.010608970187604427 -0.0732601210474968 0.07592684030532837
v 0.011388829909265041 -0.0735883116722107 0.06939750164747238
v 0.012698110193014145 -0.07044749706983566 0.07722634077072144
v 0.011388829909265041 -0.0735883116722107 0.06939750164747238
v 0.012177219614386559 -0.07369749993085861 0.06378977745771408
v 0.015147079713642597 -0.07084398716688156 0.05996011942625046
v 0.006081581115722656 -0.07273118942975998 0.08276890963315964
v 0.00786900520324707 -0.07302778214216232 0.08148019760847092
v 0.008512616157531738 -0.06976871937513351 0.08385466784238815
v 0.008512616157531738 -0.06976871937513351 0.08385466784238815
v 0.00786900520324707 -0.07302778214216232 0.08148019760847092
v 0.009975074790418148 -0.07000582665205002 0.08260095119476318
v 0.012177219614386559 -0.07369749993085861 0.06378977745771408
v 0.013052579946815968 -0.0737748071551323 0.05768119916319847
v 0.015147079713642597 -0.07084398716688156 0.05996011942625046
v 0.009975074790418148 -0.07000582665205002 0.08260095119476318
v 0.009244382381439209 -0.07315664738416672 0.07978653162717819
v 0.011500120162963867 -0.07025288790464401 0.08050321787595749
v 0.00786900520324707 -0.07302778214216232 0.08148019760847092
v 0.009244382381439209 -0.07315664738416672 0.07978653162717819
v 0.009975074790418148 -0.07000582665205002 0.08260095119476318
v 0.009244382381439209 -0.07315664738416672 0.07978653162717819
v 0.009940147399902344 -0.07349181175231934 0.07767628878355026
v 0.011500120162963867 -0.07025288790464401 0.08050321787595749
v 0.013052579946815968 -0.0737748071551323 0.05768119916319847
v 0.014129569754004478 -0.07398837059736252 0.04914921149611473
v 0.015147079713642597 -0.07084398716688156 0.05996011942625046
v 0.003960906993597746 -0.07082760334014893 0.08323442190885544
v 0.0026413199957460165 -0.06882833689451218 0.08303332328796387
v 0.003935753833502531 -0.0724756121635437 0.08216196298599243
v 0.003960906993597746 -0.07082760334014893 0.08323442190885544
v 0.003935753833502531 -0.0724756121635437 0.08216196298599243
v 0.004733740817755461 -0.07243602722883224 0.08280187100172043
v 0.005742191802710295 -0.07099746912717819 0.08383934944868088
v 0.0069849491119384766 -0.06952124089002609 0.08467298001050949
v 0.005045353900641203 -0.06921941041946411 0.08469133824110031
v 0.006081581115722656 -0.07273118942975998 0.08276890963315964
v 0.0069849491119384766 -0.06952124089002609 0.08467298001050949
v 0.005742191802710295 -0.07099746912717819 0.08383934944868088
v 0.005045353900641203 -0.06921941041946411 0.08469133824110031
v 0.003960906993597746 -0.07082760334014893 0.08323442190885544
v 0.004733740817755461 -0.07243602722883224 0.08280187100172043
v 0.003960906993597746 -0.07082760334014893 0.08323442190885544
v 0.0039771790616214275 -0.06903547048568726 0.08429931849241257
v 0.0026413199957460165 -0.06882833689451218 0.08303332328796387
v 0.005045353900641203 -0.06921941041946411 0.08469133824110031
v 0.0039771790616214275 -0.06903547048568726 0.08429931849241257
v 0.003960906993597746 -0.07082760334014893 0.08323442190885544
v 0.005742191802710295 -0.07099746912717819 0.08383934944868088
v 0.004733740817755461 -0.07243602722883224 0.08280187100172043
v 0.006081581115722656 -0.07273118942975998 0.08276890963315964
v 0.005742191802710295 -0.07099746912717819 0.08383934944868088
v 0.005045353900641203 -0.06921941041946411 0.08469133824110031
v 0.004733740817755461 -0.07243602722883224 0.08280187100172043
v 0.0026413199957460165 -0.06882833689451218 0.08303332328796387
v 0.003367065917700529 -0.07232964038848877 0.08104532212018967
v 0.003935753833502531 -0.0724756121635437 0.08216196298599243
v 0.0026413199957460165 -0.06882833689451218 0.08303332328796387
v 0.0019977090414613485 -0.06871587038040161 0.08143609017133713
v 0.003367065917700529 -0.07232964038848877 0.08104532212018967
v 0.006081581115722656 -0.07273118942975998 0.08276890963315964
v 0.008512616157531738 -0.06976871937513351 0.08385466784238815
v 0.0069849491119384766 -0.06952124089002609 0.08467298001050949
v 0.00962048675864935 -0.06998442858457565 0.013219949789345264
v 0.003367065917700529 -0.07232964038848877 0.08104532212018967
v 0.0019977090414613485 -0.06871587038040161 0.08143609017133713
v 0.011115719564259052 -0.07311099022626877 0.010156390257179737
v 0.003367065917700529 -0.07232964038848877 0.08104532212018967
v 0.00962048675864935 -0.06998442858457565 0.013219949789345264
v 0.010198590345680714 -0.07098770141601562 0.011396050453186035
v 0.011115719564259052 -0.07311099022626877 0.010156390257179737
v 0.00962048675864935 -0.06998442858457565 0.013219949789345264
vn 0.15364588527304543 0.9880532448844375 -0.011988628445162899
vn 0.15364588527304543 0.9880532448844375 -0.011988628445162899
vn 0.15364588527304543 0.9880532448844375 -0.011988628445162899
vn 0.15968720278522897 0.9871675760219523 -0.0004172739775960985
vn 0.15968720278522897 0.9871675760219523 -0.0004172739775960985
vn 0.15968720278522897 0.9871675760219523 -0.0004172739775960985
vn 0.15965679586361353 0.9871725624560245 -0.00019866698501873296
vn 0.15965679586361353 0.9871725624560245 -0.00019866698501873296
vn 0.15965679586361353 0.9871725624560245 -0.00019866698501873296
vn 0.15964840202573954 0.9871739056366188 -0.000260308993630624
vn 0.15964840202573954 0.9871739056366188 -0.000260308993630624
vn 0.15964840202573954 0.9871739056366188 -0.000260308993630624
vn 0.15974618518769687 0.9871581211775945 -0.000010540398777811319
vn 0.15974618518769687 0.9871581211775945 -0.000010540398777811319
vn 0.15974618518769687 0.9871581211775945 -0.000010540398777811319
vn 0.15677818706021596 0.98763376789698 -0.0003749289620065034
vn 0.15677818706021596 0.98763376789698 -0.0003749289620065034
vn 0.15677818706021596 0.98763376789698 -0.0003749289620065034
vn 0.15877920342490964 0.987313923317028 -0.0006175630242101251
vn 0.15877920342490964 0.987313923317028 -0.0006175630242101251
vn 0.15877920342490964 0.987313923317028 -0.0006175630242101251
vn 0.16296019909489554 0.9866255972094405 -0.003728866056411143
vn 0.16296019909489554 0.9866255972094405 -0.003728866056411143
vn 0.16296019909489554 0.9866255972094405 -0.003728866056411143
vn 0.16169078942312848 0.9865889728781158 0.022322347793862614
vn 0.16169078942312848 0.9865889728781158 0.022322347793862614
vn 0.16169078942312848 0.9865889728781158 0.022322347793862614
vn 0.1573096816401403 0.9875302343823741 0.006140052358996422
vn 0.1573096816401403 0.9875302343823741 0.006140052358996422
vn 0.1573096816401403 0.9875302343823741 0.006140052358996422
vn 0.15899890298070588 0.9872590673967847 -0.006235598909733804
vn 0.15899890298070588 0.9872590673967847 -0.006235598909733804
vn 0.15899890298070588 0.9872590673967847 -0.006235598909733804
vn -0.15834918750338756 -0.98735541929182 0.007403432453362828
vn -0.15834918750338756 -0.98735541929182 0.007403432453362828
vn -0.15834918750338756 -0.98735541929182 0.007403432453362828
vn -0.15000388128427816 -0.9886853762270085 -0.0002498689881318822
vn -0.15000388128427816 -0.9886853762270085 -0.0002498689881318822
vn -0.15000388128427816 -0.9886853762270085 -0.0002498689881318822
vn -0.1645212743922327 -0.9863726939344121 0.0012879957011828562
vn -0.1645212743922327 -0.9863726939344121 0.0012879957011828562
vn -0.1645212743922327 -0.9863726939344121 0.0012879957011828562
vn -0.13697778943633712 -0.9905587264838129 0.005522190498449752
vn -0.13697778943633712 -0.9905587264838129 0.005522190498449752
vn -0.13697778943633712 -0.9905587264838129 0.005522190498449752
vn -0.1479615106272193 -0.9889926208693657 0.0009935989404115564
vn -0.1479615106272193 -0.9889926208693657 0.0009935989404115564
vn -0.1479615106272193 -0.9889926208693657 0.0009935989404115564
vn -0.17253988687174318 -0.9848988484365634 -0.01429145851960215
vn -0.17253988687174318 -0.9848988484365634 -0.01429145851960215
vn -0.17253988687174318 -0.9848988484365634 -0.01429145851960215
vn -0.15414360385622447 -0.9880404613385161 0.003974436839032063
vn -0.15414360385622447 -0.9880404613385161 0.003974436839032063
vn -0.15414360385622447 -0.9880404613385161 0.003974436839032063
vn -0.1575297847649681 -0.9874767569313329 -0.008603570902847676
vn -0.1575297847649681 -0.9874767569313329 -0.008603570902847676
vn -0.1575297847649681 -0.9874767569313329 -0.008603570902847676
vn -0.15141770232672425 -0.9884694807519189 0.0008746680098766872
vn -0.15141770232672425 -0.9884694807519189 0.0008746680098766872
vn -0.15141770232672425 -0.9884694807519189 0.0008746680098766872
vn -0.16065178518202008 -0.9870108185785643 0.0008049389433283852
vn -0.16065178518202008 -0.9870108185785643 0.0008049389433283852
vn -0.16065178518202008 -0.9870108185785643 0.0008049389433283852
vn -0.1509872861761915 -0.9885354885635962 0.0006536539458436529
vn -0.1509872861761915 -0.9885354885635962 0.0006536539458436529
vn -0.1509872861761915 -0.9885354885635962 0.0006536539458436529
vn 0.29146710660183195 -0.9537337625900073 0.07374846347595217
vn 0.29146710660183195 -0.9537337625900073 0.07374846347595217
vn 0.29146710660183195 -0.9537337625900073 0.07374846347595217
vn 0.3003592779756179 -0.9530375569981248 0.038777816919104556
vn 0.3003592779756179 -0.9530375569981248 0.038777816919104556
vn 0.3003592779756179 -0.9530375569981248 0.038777816919104556
vn 0.12665037531591078 -0.9912894745680056 0.03612284655209315
vn 0.12665037531591078 -0.9912894745680056 0.03612284655209315
vn 0.12665037531591078 -0.9912894745680056 0.03612284655209315
vn 0.23067618005280782 -0.9711629996275035 0.060257183063551
vn 0.23067618005280782 -0.9711629996275035 0.060257183063551
vn 0.23067618005280782 -0.9711629996275035 0.060257183063551
vn 0.2975719048857168 -0.9531159041241245 0.054963940254849256
vn 0.2975719048857168 -0.9531159041241245 0.054963940254849256
vn 0.2975719048857168 -0.9531159041241245 0.054963940254849256
vn 0.4820546793537156 -0.8731673337552502 0.07212553899926169
vn 0.4820546793537156 -0.8731673337552502 0.07212553899926169
vn 0.4820546793537156 -0.8731673337552502 0.07212553899926169
vn 0.3184656996813231 -0.9462734759594739 0.05609016689278334
vn 0.3184656996813231 -0.9462734759594739 0.05609016689278334
vn 0.3184656996813231 -0.9462734759594739 0.05609016689278334
vn 0.6050661229108798 -0.7903457313838151 0.09616970307211352
vn 0.6050661229108798 -0.7903457313838151 0.09616970307211352
vn 0.6050661229108798 -0.7903457313838151 0.09616970307211352
vn 0.5409619108482862 -0.8367953736162503 0.08446131484774963
vn 0.5409619108482862 -0.8367953736162503 0.08446131484774963
vn 0.5409619108482862 -0.8367953736162503 0.08446131484774963
vn 0.5800975044006084 -0.8063913097402317 0.11497800208570363
vn 0.5800975044006084 -0.8063913097402317 0.11497800208570363
vn 0.5800975044006084 -0.8063913097402317 0.11497800208570363
vn 0.33142083540453654 -0.9388325713316715 0.09356085114256377
vn 0.33142083540453654 -0.9388325713316715 0.09356085114256377
vn 0.33142083540453654 -0.9388325713316715 0.09356085114256377
vn 0.5434458664659766 -0.8343160461155973 0.09264623799745356
vn 0.5434458664659766 -0.8343160461155973 0.09264623799745356
vn 0.5434458664659766 -0.8343160461155973 0.09264623799745356
vn 0.47349454117619766 -0.8769654247673644 0.08206438471674758
vn 0.47349454117619766 -0.8769654247673644 0.08206438471674758
vn 0.47349454117619766 -0.8769654247673644 0.08206438471674758
vn 0.5943579799769731 -0.7964988519724306 0.11103229460067984
vn 0.5943579799769731 -0.7964988519724306 0.11103229460067984
vn 0.5943579799769731 -0.7964988519724306 0.11103229460067984
vn 0.45131079425580584 -0.8462317785284982 0.28321430754234167
vn 0.45131079425580584 -0.8462317785284982 0.28321430754234167
vn 0.45131079425580584 -0.8462317785284982 0.28321430754234167
vn 0.2899649952392966 -0.9560227710246932 0.04405408968690327
vn 0.2899649952392966 -0.9560227710246932 0.04405408968690327
vn 0.2899649952392966 -0.9560227710246932 0.04405408968690327
vn 0.28063550321104797 -0.9496970681249487 0.13899350032414576
vn 0.28063550321104797 -0.9496970681249487 0.13899350032414576
vn 0.28063550321104797 -0.9496970681249487 0.13899350032414576
vn 0.46264792054612863 -0.8825689066134248 0.08383929086965701
vn 0.46264792054612863 -0.8825689066134248 0.08383929086965701
vn 0.46264792054612863 -0.8825689066134248 0.08383929086965701
vn 0.03587221826179586 -0.9946813262960704 0.09655176370666749
vn 0.03587221826179586 -0.9946813262960704 0.09655176370666749
vn 0.03587221826179586 -0.9946813262960704 0.09655176370666749
vn 0.4859020688892277 -0.8715762458148377 0.06522290380289754
vn 0.4859020688892277 -0.8715762458148377 0.06522290380289754
vn 0.4859020688892277 -0.8715762458148377 0.06522290380289754
vn 0.5424947101400601 -0.8356444772198819 0.08601044798140782
vn 0.5424947101400601 -0.8356444772198819 0.08601044798140782
vn 0.5424947101400601 -0.8356444772198819 0.08601044798140782
vn 0.24023038503659996 -0.9693149471383374 0.052133438016007665
vn 0.24023038503659996 -0.9693149471383374 0.052133438016007665
vn 0.24023038503659996 -0.9693149471383374 0.052133438016007665
vn 0.387911027510581 -0.8401961452248926 0.3789399322912758
vn 0.387911027510581 -0.8401961452248926 0.3789399322912758
vn 0.387911027510581 -0.8401961452248926 0.3789399322912758
vn 0.2783361615145057 -0.8918872885145003 0.35646324604315605
vn 0.2783361615145057 -0.8918872885145003 0.35646324604315605
vn 0.2783361615145057 -0.8918872885145003 0.35646324604315605
vn 0.26691091508940107 -0.9622914952732974 0.05247515155595045
vn 0.26691091508940107 -0.9622914952732974 0.05247515155595045
vn 0.26691091508940107 -0.9622914952732974 0.05247515155595045
vn 0.4074350669742291 -0.9097470806966618 0.07973026629584885
vn 0.4074350669742291 -0.9097470806966618 0.07973026629584885
vn 0.4074350669742291 -0.9097470806966618 0.07973026629584885
vn 0.2631227099616564 -0.9636961307995053 0.045345418561266816
vn 0.2631227099616564 -0.9636961307995053 0.045345418561266816
vn 0.2631227099616564 -0.9636961307995053 0.045345418561266816
vn 0.4129607755147329 -0.9082436732446421 0.06750428058538557
vn 0.4129607755147329 -0.9082436732446421 0.06750428058538557
vn 0.4129607755147329 -0.9082436732446421 0.06750428058538557
vn 0.5367727285288986 -0.8383023151600859 0.0955210254597459
vn 0.5367727285288986 -0.8383023151600859 0.0955210254597459
vn 0.5367727285288986 -0.8383023151600859 0.0955210254597459
vn 0.15906350748397988 -0.8846615794157581 0.438260984451628
vn 0.15906350748397988 -0.8846615794157581 0.438260984451628
vn 0.15906350748397988 -0.8846615794157581 0.438260984451628
vn 0.17407117482716183 -0.8790837374157118 0.44374655909146554
vn 0.17407117482716183 -0.8790837374157118 0.44374655909146554
vn 0.17407117482716183 -0.8790837374157118 0.44374655909146554
vn 0.02739839839252533 -0.9531249489702256 0.3013339665819791
vn 0.02739839839252533 -0.9531249489702256 0.3013339665819791
vn 0.02739839839252533 -0.9531249489702256 0.3013339665819791
vn 0.512586470858297 -0.8544943273320318 0.0842291781416308
vn 0.512586470858297 -0.8544943273320318 0.0842291781416308
vn 0.512586470858297 -0.8544943273320318 0.0842291781416308
vn 0.5305067392255529 -0.8432365801272491 0.0866871938153053
vn 0.5305067392255529 -0.8432365801272491 0.0866871938153053
vn 0.5305067392255529 -0.8432365801272491 0.0866871938153053
vn 0.2611578101376252 -0.9640212038704119 0.049595530971669605
vn 0.2611578101376252 -0.9640212038704119 0.049595530971669605
vn 0.2611578101376252 -0.9640212038704119 0.049595530971669605
vn 0.5431546629573578 -0.8352168295744146 0.0859991843178899
vn 0.5431546629573578 -0.8352168295744146 0.0859991843178899
vn 0.5431546629573578 -0.8352168295744146 0.0859991843178899
vn 0.42344735010780127 -0.9016292294929057 0.08807425396056723
vn 0.42344735010780127 -0.9016292294929057 0.08807425396056723
vn 0.42344735010780127 -0.9016292294929057 0.08807425396056723
vn 0.4877521016869542 -0.8705918644706389 0.06455767047761252
vn 0.4877521016869542 -0.8705918644706389 0.06455767047761252
vn 0.4877521016869542 -0.8705918644706389 0.06455767047761252
vn 0.160381394160309 -0.9861861026013603 0.04140989547360651
vn 0.160381394160309 -0.9861861026013603 0.04140989547360651
vn 0.160381394160309 -0.9861861026013603 0.04140989547360651
vn 0.3222619043974172 -0.9447744626145775 0.059569117548323954
vn 0.3222619043974172 -0.9447744626145775 0.059569117548323954
vn 0.3222619043974172 -0.9447744626145775 0.059569117548323954
vn 0.423463899097262 -0.901270364611089 0.0915972490587938
vn 0.423463899097262 -0.901270364611089 0.0915972490587938
vn 0.423463899097262 -0.901270364611089 0.0915972490587938
vn 0.45427763981465574 -0.8881570202331849 0.06934647341383784
vn 0.45427763981465574 -0.8881570202331849 0.06934647341383784
vn 0.45427763981465574 -0.8881570202331849 0.06934647341383784
vn 0.17513478028844362 -0.983550859300657 0.04422121552216416
vn 0.17513478028844362 -0.983550859300657 0.04422121552216416
vn 0.17513478028844362 -0.983550859300657 0.04422121552216416
vn 0.29136758563646176 -0.95376162152821 0.07378142950810004
vn 0.29136758563646176 -0.95376162152821 0.07378142950810004
vn 0.29136758563646176 -0.95376162152821 0.07378142950810004
vn 0.25451937261739604 -0.9652606227576495 0.05909161629167092
vn 0.25451937261739604 -0.9652606227576495 0.05909161629167092
vn 0.25451937261739604 -0.9652606227576495 0.05909161629167092
vn 0.3258766804358257 -0.9428192899044803 0.06997267846908922
vn 0.3258766804358257 -0.9428192899044803 0.06997267846908922
vn 0.3258766804358257 -0.9428192899044803 0.06997267846908922
vn 0.27168279289227454 -0.9601766852143689 0.06518583601519572
vn 0.27168279289227454 -0.9601766852143689 0.06518583601519572
vn 0.27168279289227454 -0.9601766852143689 0.06518583601519572
vn 0.19075888501870344 -0.9803481156753525 0.050285384339854355
vn 0.19075888501870344 -0.9803481156753525 0.050285384339854355
vn 0.19075888501870344 -0.9803481156753525 0.050285384339854355
vn 0.2836390120024049 -0.956538313636006 0.06770055698947565
vn 0.2836390120024049 -0.956538313636006 0.06770055698947565
vn 0.2836390120024049 -0.956538313636006 0.06770055698947565
vn 0.36048716383869656 -0.9311277290253286 0.05522822600506991
vn 0.36048716383869656 -0.9311277290253286 0.05522822600506991
vn 0.36048716383869656 -0.9311277290253286 0.05522822600506991
vn 0.24337241154020828 -0.9620147387152524 -0.12368311038993288
vn 0.24337241154020828 -0.9620147387152524 -0.12368311038993288
vn 0.24337241154020828 -0.9620147387152524 -0.12368311038993288
vn -0.6886503725901609 -0.6759713321039447 0.2623421859043089
vn -0.6886503725901609 -0.6759713321039447 0.2623421859043089
vn -0.6886503725901609 -0.6759713321039447 0.2623421859043089
vn -0.3865945102689461 -0.7555804372842474 0.5288127148842577
vn -0.3865945102689461 -0.7555804372842474 0.5288127148842577
vn -0.3865945102689461 -0.7555804372842474 0.5288127148842577
vn -0.23863629957442697 -0.9339207991465219 0.2661665971660352
vn -0.23863629957442697 -0.9339207991465219 0.2661665971660352
vn -0.23863629957442697 -0.9339207991465219 0.2661665971660352
vn -0.5555792419439811 -0.7766236022834433 0.296963779436549
vn -0.5555792419439811 -0.7766236022834433 0.296963779436549
vn -0.5555792419439811 -0.7766236022834433 0.296963779436549
vn -0.1337804051698518 -0.6903048766354847 0.7110428823115093
vn -0.1337804051698518 -0.6903048766354847 0.7110428823115093
vn -0.1337804051698518 -0.6903048766354847 0.7110428823115093
vn -0.40450214564047643 -0.80397169240513 0.43589853404603446
vn -0.40450214564047643 -0.80397169240513 0.43589853404603446
vn -0.40450214564047643 -0.80397169240513 0.43589853404603446
vn -0.7635992956959412 -0.641154543746194 -0.07640004349653413
vn -0.7635992956959412 -0.641154543746194 -0.07640004349653413
vn -0.7635992956959412 -0.641154543746194 -0.07640004349653413
vn -0.7017545341605879 -0.7092874290269727 -0.0667226858674293
vn -0.7017545341605879 -0.7092874290269727 -0.0667226858674293
vn -0.7017545341605879 -0.7092874290269727 -0.0667226858674293
vn -0.41617977988239474 -0.9088152727612193 -0.029140878727173292
vn -0.41617977988239474 -0.9088152727612193 -0.029140878727173292
vn -0.41617977988239474 -0.9088152727612193 -0.029140878727173292
vn 0.14492690213112255 0.8841405297326842 -0.4441753220550242
vn 0.14492690213112255 0.8841405297326842 -0.4441753220550242
vn 0.14492690213112255 0.8841405297326842 -0.4441753220550242
vn 0.14456768443998474 0.8856240578379775 -0.441327783845812
vn 0.14456768443998474 0.8856240578379775 -0.441327783845812
vn 0.14456768443998474 0.8856240578379775 -0.441327783845812
vn 0.013896639693576684 0.022901527970450912 -0.999641137319711
vn 0.013896639693576684 0.022901527970450912 -0.999641137319711
vn 0.013896639693576684 0.022901527970450912 -0.999641137319711
vn 0.021878709587815574 0.10524260046453113 -0.9942058726009593
vn 0.021878709587815574 0.10524260046453113 -0.9942058726009593
vn 0.021878709587815574 0.10524260046453113 -0.9942058726009593
vn 0.06364387328543902 0.2662957035563869 -0.9617879473463138
vn 0.06364387328543902 0.2662957035563869 -0.9617879473463138
vn 0.06364387328543902 0.2662957035563869 -0.9617879473463138
vn 0.0750752698914949 0.5267612418479611 -0.8466913829356675
vn 0.0750752698914949 0.5267612418479611 -0.8466913829356675
vn 0.0750752698914949 0.5267612418479611 -0.8466913829356675
vn 0.11644400217027298 0.6439635922780734 -0.7561426361334803
vn 0.11644400217027298 0.6439635922780734 -0.7561426361334803
vn 0.11644400217027298 0.6439635922780734 -0.7561426361334803
vn 0.7281630865170304 -0.6149316624249161 0.3027169800016515
vn 0.7281630865170304 -0.6149316624249161 0.3027169800016515
vn 0.7281630865170304 -0.6149316624249161 0.3027169800016515
vn 0.7720498706368021 -0.6260703419916547 0.10942999647331533
vn 0.7720498706368021 -0.6260703419916547 0.10942999647331533
vn 0.7720498706368021 -0.6260703419916547 0.10942999647331533
vn 0.7706085973918408 -0.6277898496571218 0.10973738785513425
vn 0.7706085973918408 -0.6277898496571218 0.10973738785513425
vn 0.7706085973918408 -0.6277898496571218 0.10973738785513425
vn 0.7575950999666736 -0.6449087075780695 0.10070959932632911
vn 0.7575950999666736 -0.6449087075780695 0.10070959932632911
vn 0.7575950999666736 -0.6449087075780695 0.10070959932632911
vn 0.758139106694751 -0.6440117131856608 0.1023426019786249
vn 0.758139106694751 -0.6440117131856608 0.1023426019786249
vn 0.758139106694751 -0.6440117131856608 0.1023426019786249
vn 0.7407971638452044 -0.6418203130965037 0.19820758748243542
vn 0.7407971638452044 -0.6418203130965037 0.19820758748243542
vn 0.7407971638452044 -0.6418203130965037 0.19820758748243542
vn 0.7684415103509232 -0.6321461896063614 0.09944264746953417
vn 0.7684415103509232 -0.6321461896063614 0.09944264746953417
vn 0.7684415103509232 -0.6321461896063614 0.09944264746953417
vn 0.7694935164406335 -0.6312926380295804 0.0966919506757518
vn 0.7694935164406335 -0.6312926380295804 0.0966919506757518
vn 0.7694935164406335 -0.6312926380295804 0.0966919506757518
vn 0.7682231149395451 -0.6326072878603688 0.09818994357127767
vn 0.7682231149395451 -0.6326072878603688 0.09818994357127767
vn 0.7682231149395451 -0.6326072878603688 0.09818994357127767
vn 0.7397771549828116 -0.668200260955311 0.07898210066079042
vn 0.7397771549828116 -0.668200260955311 0.07898210066079042
vn 0.7397771549828116 -0.668200260955311 0.07898210066079042
vn 0.7684230122122355 -0.6279294420313544 0.12341268222053409
vn 0.7684230122122355 -0.6279294420313544 0.12341268222053409
vn 0.7684230122122355 -0.6279294420313544 0.12341268222053409
vn 0.7685162866258309 -0.6278265588160142 0.12335529674920952
vn 0.7685162866258309 -0.6278265588160142 0.12335529674920952
vn 0.7685162866258309 -0.6278265588160142 0.12335529674920952
vn 0.7637981198534816 -0.634252967290312 0.11973138933346225
vn 0.7637981198534816 -0.634252967290312 0.11973138933346225
vn 0.7637981198534816 -0.634252967290312 0.11973138933346225
vn 0.40595570710473916 -0.5891699864076497 0.6986262885015858
vn 0.40595570710473916 -0.5891699864076497 0.6986262885015858
vn 0.40595570710473916 -0.5891699864076497 0.6986262885015858
vn 0.4753752316220212 -0.5774654704040825 0.6637409281122427
vn 0.4753752316220212 -0.5774654704040825 0.6637409281122427
vn 0.4753752316220212 -0.5774654704040825 0.6637409281122427
vn 0.7625543585745336 -0.6361976358175878 0.11731759628927561
vn 0.7625543585745336 -0.6361976358175878 0.11731759628927561
vn 0.7625543585745336 -0.6361976358175878 0.11731759628927561
vn 0.6107637670536875 -0.60154960454652 0.5148841560237745
vn 0.6107637670536875 -0.60154960454652 0.5148841560237745
vn 0.6107637670536875 -0.60154960454652 0.5148841560237745
vn 0.5926190805614507 -0.6086698370561617 0.5275638869488
vn 0.5926190805614507 -0.6086698370561617 0.5275638869488
vn 0.5926190805614507 -0.6086698370561617 0.5275638869488
vn 0.7035526520311163 -0.6284390587050104 0.3317800707003717
vn 0.7035526520311163 -0.6284390587050104 0.3317800707003717
vn 0.7035526520311163 -0.6284390587050104 0.3317800707003717
vn 0.764991489502828 -0.6341486799294953 0.11244319780192606
vn 0.764991489502828 -0.6341486799294953 0.11244319780192606
vn 0.764991489502828 -0.6341486799294953 0.11244319780192606
vn -0.6848379642445004 -0.3901031766519918 0.6154806855584285
vn -0.6848379642445004 -0.3901031766519918 0.6154806855584285
vn -0.6848379642445004 -0.3901031766519918 0.6154806855584285
vn -0.5444263349695965 -0.4516767669174638 0.7068154384410119
vn -0.5444263349695965 -0.4516767669174638 0.7068154384410119
vn -0.5444263349695965 -0.4516767669174638 0.7068154384410119
vn -0.06173490779785228 -0.45086977228153163 0.890452272500885
vn -0.06173490779785228 -0.45086977228153163 0.890452272500885
vn -0.06173490779785228 -0.45086977228153163 0.890452272500885
vn 0.04339020255459922 -0.5186950479182513 0.8538575628214311
vn 0.04339020255459922 -0.5186950479182513 0.8538575628214311
vn 0.04339020255459922 -0.5186950479182513 0.8538575628214311
vn -0.4375252639254425 -0.42354377286799005 0.7932101335029201
vn -0.4375252639254425 -0.42354377286799005 0.7932101335029201
vn -0.4375252639254425 -0.42354377286799005 0.7932101335029201
vn -0.6674637643348996 -0.3758957002872906 0.6428021046989603
vn -0.6674637643348996 -0.3758957002872906 0.6428021046989603
vn -0.6674637643348996 -0.3758957002872906 0.6428021046989603
vn -0.3742547888818257 -0.4711922058176365 0.7986934694710669
vn -0.3742547888818257 -0.4711922058176365 0.7986934694710669
vn -0.3742547888818257 -0.4711922058176365 0.7986934694710669
vn -0.09699527917444474 -0.5365560649803242 0.8382717369389844
vn -0.09699527917444474 -0.5365560649803242 0.8382717369389844
vn -0.09699527917444474 -0.5365560649803242 0.8382717369389844
vn -0.18923998994722527 -0.483642568555861 0.8545631001192734
vn -0.18923998994722527 -0.483642568555861 0.8545631001192734
vn -0.18923998994722527 -0.483642568555861 0.8545631001192734
vn -0.8406376377281619 -0.3885127964258603 0.37734091886273574
vn -0.8406376377281619 -0.3885127964258603 0.37734091886273574
vn -0.8406376377281619 -0.3885127964258603 0.37734091886273574
vn -0.8719489722197488 -0.3656282784911296 0.3256085868224866
vn -0.8719489722197488 -0.3656282784911296 0.3256085868224866
vn -0.8719489722197488 -0.3656282784911296 0.3256085868224866
vn 0.3240575788017879 -0.5484428401721235 0.7708418363614273
vn 0.3240575788017879 -0.5484428401721235 0.7708418363614273
vn 0.3240575788017879 -0.5484428401721235 0.7708418363614273
vn -0.9340756183298907 -0.3433660060386787 -0.09799247490842683
vn -0.9340756183298907 -0.3433660060386787 -0.09799247490842683
vn -0.9340756183298907 -0.3433660060386787 -0.09799247490842683
vn -0.931760475531629 -0.34959899838550873 -0.09799467620703597
vn -0.931760475531629 -0.34959899838550873 -0.09799467620703597
vn -0.931760475531629 -0.34959899838550873 -0.09799467620703597
vn -0.9341485638510785 -0.3397702624987222 -0.1091907934604232
vn -0.9341485638510785 -0.3397702624987222 -0.1091907934604232
vn -0.9341485638510785 -0.3397702624987222 -0.1091907934604232
f 1//1 2//2 3//3
f 4//4 5//5 6//6
f 7//7 8//8 9//9
f 10//10 11//11 12//12
f 13//13 14//14 15//15
f 16//16 17//17 18//18
f 19//19 20//20 21//21
f 22//22 23//23 24//24
f 25//25 26//26 27//27
f 28//28 29//29 30//30
f 31//31 32//32 33//33
f 34//34 35//35 36//36
f 37//37 38//38 39//39
f 40//40 41//41 42//42
f 43//43 44//44 45//45
f 46//46 47//47 48//48
f 49//49 50//50 51//51
f 52//52 53//53 54//54
f 55//55 56//56 57//57
f 58//58 59//59 60//60
f 61//61 62//62 63//63
f 64//64 65//65 66//66
f 67//67 68//68 69//69
f 70//70 71//71 72//72
f 73//73 74//74 75//75
f 76//76 77//77 78//78
f 79//79 80//80 81//81
f 82//82 83//83 84//84
f 85//85 86//86 87//87
f 88//88 89//89 90//90
f 91//91 92//92 93//93
f 94//94 95//95 96//96
f 97//97 98//98 99//99
f 100//100 101//101 102//102
f 103//103 104//104 105//105
f 106//106 107//107 108//108
f 109//109 110//110 111//111
f 112//112 113//113 114//114
f 115//115 116//116 117//117
f 118//118 119//119 120//120
f 121//121 122//122 123//123
f 124//124 125//125 126//126
f 127//127 128//128 129//129
f 130//130 131//131 132//132
f 133//133 134//134 135//135
f 136//136 137//137 138//138
f 139//139 140//140 141//141
f 142//142 143//143 144//144
f 145//145 146//146 147//147
f 148//148 149//149 150//150
f 151//151 152//152 153//153
f 154//154 155//155 156//156
f 157//157 158//158 159//159
f 160//160 161//161 162//162
f 163//163 164//164 165//165
f 166//166 167//167 168//168
f 169//169 170//170 171//171
f 172//172 173//173 174//174
f 175//175 176//176 177//177
f 178//178 179//179 180//180
f 181//181 182//182 183//183
f 184//184 185//185 186//186
f 187//187 188//188 189//189
f 190//190 191//191 192//192
f 193//193 194//194 195//195
f 196//196 197//197 198//198
f 199//199 200//200 201//201
f 202//202 203//203 204//204
f 205//205 206//206 207//207
f 208//208 209//209 210//210
f 211//211 212//212 213//213
f 214//214 215//215 216//216
f 217//217 218//218 219//219
f 220//220 221//221 222//222
f 223//223 224//224 225//225
f 226//226 227//227 228//228
f 229//229 230//230 231//231
f 232//232 233//233 234//234
f 235//235 236//236 237//237
f 238//238 239//239 240//240
f 241//241 242//242 243//243
f 244//244 245//245 246//246
f 247//247 248//248 249//249
f 250//250 251//251 252//252
f 253//253 254//254 255//255
f 256//256 257//257 258//258
f 259//259 260//260 261//261
f 262//262 263//263 264//264
f 265//265 266//266 267//267
f 268//268 269//269 270//270
f 271//271 272//272 273//273
f 274//274 275//275 276//276
f 277//277 278//278 279//279
f 280//280 281//281 282//282
f 283//283 284//284 285//285
f 286//286 287//287 288//288
f 289//289 290//290 291//291
f 292//292 293//293 294//294
f 295//295 296//296 297//297
f 298//298 299//299 300//300
f 301//301 302//302 303//303
f 304//304 305//305 306//306
f 307//307 308//308 309//309
f 310//310 311//311 312//312
f 313//313 314//314 315//315
f 316//316 317//317 318//318
f 319//319 320//320 321//321
f 322//322 323//323 324//324
f 325//325 326//326 327//327
f 328//328 329//329 330//330
f 331//331 332//332 333//333
f 334//334 335//335 336//336
f 337//337 338//338 339//339
f 340//340 341//341 342//342
f 343//343 344//344 345//345
f 346//346 347//347 348//348
f 349//349 350//350 351//351
f 352//352 353//353 354//354
f 355//355 356//356 357//357
f 358//358 359//359 360//360
f 361//361 362//362 363//363
f 364//364 365//365 366//366
f 367//367 368//368 369//369
f 370//370 371//371 372//372
