o node16
usemtl Shell011_002_002_001
v 0.00272726989351213 -0.008026421070098877 0.05338336154818535
v 0.001095414045266807 -0.00473672104999423 0.05323005095124245
v -0.00039222699706442654 -0.00697511387988925 0.0530814565718174
v 0.001095414045266807 -0.00473672104999423 0.05323005095124245
v -0.0035085079725831747 -0.005925654899328947 0.052744749933481216
v -0.00039222699706442654 -0.00697511387988925 0.0530814565718174
v -0.0005861219833604991 -0.0013461109483614564 0.05306136980652809
v -0.0024671549908816814 -0.0022599101066589355 0.05286121740937233
v 0.001095414045266807 -0.00473672104999423 0.05323005095124245
v 0.001095414045266807 -0.00473672104999423 0.05323005095124245
v -0.0024671549908816814 -0.0022599101066589355 0.05286121740937233
v -0.0035085079725831747 -0.005925654899328947 0.052744749933481216
v -0.0035085079725831747 -0.005925654899328947 0.052744749933481216
v -0.00434720516204834 -0.0031727550085633993 0.05264897271990776
v -0.005431413184851408 -0.00527840806171298 0.052520398050546646
v -0.0024671549908816814 -0.0022599101066589355 0.05286121740937233
v -0.00434720516204834 -0.0031727550085633993 0.05264897271990776
v -0.0035085079725831747 -0.005925654899328947 0.052744749933481216
v -0.00434720516204834 -0.0031727550085633993 0.05264897271990776
v -0.005850433837622404 -0.0039026138838380575 0.052469801157712936
v -0.005431413184851408 -0.00527840806171298 0.052520398050546646
v -0.005850433837622404 -0.0039026138838380575 0.052469801157712936
v -0.007352888118475676 -0.004631816875189543 0.05228191986680031
v -0.005431413184851408 -0.00527840806171298 0.052520398050546646
v -0.005850433837622404 -0.0039026138838380575 0.052469801157712936
v -0.007366656791418791 -0.004632771015167236 0.051980141550302505
v -0.007352888118475676 -0.004631816875189543 0.05228191986680031
v -0.004353820811957121 -0.0031701920088380575 0.05234820023179054
v -0.005850433837622404 -0.0039026138838380575 0.052469801157712936
v -0.00434720516204834 -0.0031727550085633993 0.05264897271990776
v -0.002469300990924239 -0.0022550818976014853 0.05256098881363869
v -0.00434720516204834 -0.0031727550085633993 0.05264897271990776
v -0.0024671549908816814 -0.0022599101066589355 0.05286121740937233
v -0.002469300990924239 -0.0022550818976014853 0.05256098881363869
v -0.004353820811957121 -0.0031701920088380575 0.05234820023179054
v -0.00434720516204834 -0.0031727550085633993 0.05264897271990776
v -0.0005837479839101434 -0.0013391970423981547 0.05276161804795265
v -0.0024671549908816814 -0.0022599101066589355 0.05286121740937233
v -0.0005861219833604991 -0.0013461109483614564 0.05306136980652809
v -0.0005837479839101434 -0.0013391970423981547 0.05276161804795265
v -0.002469300990924239 -0.0022550818976014853 0.05256098881363869
v -0.0024671549908816814 -0.0022599101066589355 0.05286121740937233
v -0.004353820811957121 -0.0031701920088380575 0.05234820023179054
v -0.007366656791418791 -0.004632771015167236 0.051980141550302505
v -0.005850433837622404 -0.0039026138838380575 0.052469801157712936
v 0.0011019109515473247 -0.004737973213195801 0.052930716425180435
v -0.0005861219833604991 -0.0013461109483614564 0.05306136980652809
v 0.001095414045266807 -0.00473672104999423 0.05323005095124245
v 0.0011019109515473247 -0.004737973213195801 0.052930716425180435
v -0.0005837479839101434 -0.0013391970423981547 0.05276161804795265
v -0.0005861219833604991 -0.0013461109483614564 0.05306136980652809
v 0.0027376411017030478 -0.008035421371459961 0.05308431759476662
v 0.001095414045266807 -0.00473672104999423 0.05323005095124245
v 0.00272726989351213 -0.008026421070098877 0.05338336154818535
v 0.0027376411017030478 -0.008035421371459961 0.05308431759476662
v 0.0011019109515473247 -0.004737973213195801 0.052930716425180435
v 0.001095414045266807 -0.00473672104999423 0.05323005095124245
v -0.00039222699706442654 -0.00697511387988925 0.0530814565718174
v 0.0027376411017030478 -0.008035421371459961 0.05308431759476662
v 0.00272726989351213 -0.008026421070098877 0.05338336154818535
v -0.000381013989681378 -0.006984471809118986 0.05278259888291359
v 0.0027376411017030478 -0.008035421371459961 0.05308431759476662
v -0.00039222699706442654 -0.00697511387988925 0.0530814565718174
v -0.0035085079725831747 -0.005925654899328947 0.052744749933481216
v -0.000381013989681378 -0.006984471809118986 0.05278259888291359
v -0.00039222699706442654 -0.00697511387988925 0.0530814565718174
v -0.0034964680671691895 -0.00593531085178256 0.052446071058511734
v -0.000381013989681378 -0.006984471809118986 0.05278259888291359
v -0.0035085079725831747 -0.005925654899328947 0.052744749933481216
v -0.005431413184851408 -0.00527840806171298 0.052520398050546646
v -0.0034964680671691895 -0.00593531085178256 0.052446071058511734
v -0.0035085079725831747 -0.005925654899328947 0.052744749933481216
v -0.005432248115539551 -0.0052835941314697266 0.052220288664102554
v -0.0034964680671691895 -0.00593531085178256 0.052446071058511734
v -0.005431413184851408 -0.00527840806171298 0.052520398050546646
v -0.007352888118475676 -0.004631816875189543 0.05228191986680031
v -0.005432248115539551 -0.0052835941314697266 0.052220288664102554
v -0.005431413184851408 -0.00527840806171298 0.052520398050546646
v -0.007366656791418791 -0.004632771015167236 0.051980141550302505
v -0.005432248115539551 -0.0052835941314697266 0.052220288664102554
v -0.007352888118475676 -0.004631816875189543 0.05228191986680031
v 0.003835618030279875 -0.012860829941928387 0.053481172770261765
v 0.0013952850131317973 -0.00800174381583929 0.05325901880860329
v 0.0020346040837466717 -0.012263109907507896 0.053319577127695084
v 0.0020346040837466717 -0.012263109907507896 0.053319577127695084
v 0.0013952850131317973 -0.00800174381583929 0.05325901880860329
v 0.0001686750038061291 -0.011644840240478516 0.053138379007577896
v 0.0020346040837466717 -0.012263109907507896 0.053319577127695084
v 0.0038459300994873047 -0.012869410216808319 0.05318200960755348
v 0.003835618030279875 -0.012860829941928387 0.053481172770261765
v 0.0020367500837892294 -0.012269309721887112 0.05301976576447487
v 0.0038459300994873047 -0.012869410216808319 0.05318200960755348
v 0.0020346040837466717 -0.012263109907507896 0.053319577127695084
v 0.0001686750038061291 -0.011644840240478516 0.053138379007577896
v 0.0020367500837892294 -0.012269309721887112 0.05301976576447487
v 0.0020346040837466717 -0.012263109907507896 0.053319577127695084
v 0.00016202399274334311 -0.01164788007736206 0.05283768102526665
v 0.0020367500837892294 -0.012269309721887112 0.05301976576447487
v 0.0001686750038061291 -0.011644840240478516 0.053138379007577896
v 0.0038459300994873047 -0.012869410216808319 0.05318200960755348
v 0.0013952850131317973 -0.00800174381583929 0.05325901880860329
v 0.003835618030279875 -0.012860829941928387 0.053481172770261765
v 0.0038459300994873047 -0.012869410216808319 0.05318200960755348
v 0.0013943309895694256 -0.007988153956830502 0.052958909422159195
v 0.0013952850131317973 -0.00800174381583929 0.05325901880860329
v 0.0013943309895694256 -0.007988153956830502 0.052958909422159195
v 0.0001686750038061291 -0.011644840240478516 0.053138379007577896
v 0.0013952850131317973 -0.00800174381583929 0.05325901880860329
v 0.0013943309895694256 -0.007988153956830502 0.052958909422159195
v 0.00016202399274334311 -0.01164788007736206 0.05283768102526665
v 0.0001686750038061291 -0.011644840240478516 0.053138379007577896
v -0.005935192108154297 -0.0032645459286868572 0.052459072321653366
v -0.007941842079162598 -0.00261264992877841 0.05220562592148781
v -0.008200347423553467 -0.004375218879431486 0.052171651273965836
v -0.008200347423553467 -0.004375218879431486 0.052171651273965836
v -0.009775400161743164 -0.002016722923144698 0.05195577070116997
v -0.009614466689527035 -0.005068718921393156 0.05197859928011894
v -0.009614466689527035 -0.005068718921393156 0.05197859928011894
v -0.009775400161743164 -0.002016722923144698 0.05195577070116997
v -0.011026740074157715 -0.005761920940130949 0.051772598177194595
v -0.007941842079162598 -0.00261264992877841 0.05220562592148781
v -0.009775400161743164 -0.002016722923144698 0.05195577070116997
v -0.008200347423553467 -0.004375218879431486 0.052171651273965836
v -0.007937370799481869 -0.002608716022223234 0.05190623924136162
v -0.009775400161743164 -0.002016722923144698 0.05195577070116997
v -0.007941842079162598 -0.00261264992877841 0.05220562592148781
v -0.007937370799481869 -0.002608716022223234 0.05190623924136162
v -0.009778738021850586 -0.0020101070404052734 0.05165529623627663
v -0.009775400161743164 -0.002016722923144698 0.05195577070116997
v -0.005921304225921631 -0.00326365209184587 0.052160751074552536
v -0.007941842079162598 -0.00261264992877841 0.05220562592148781
v -0.005935192108154297 -0.0032645459286868572 0.052459072321653366
v -0.005921304225921631 -0.00326365209184587 0.052160751074552536
v -0.007937370799481869 -0.002608716022223234 0.05190623924136162
v -0.007941842079162598 -0.00261264992877841 0.05220562592148781
v -0.009778738021850586 -0.0020101070404052734 0.05165529623627663
v -0.011026740074157715 -0.005761920940130949 0.051772598177194595
v -0.009775400161743164 -0.002016722923144698 0.05195577070116997
v -0.009778738021850586 -0.0020101070404052734 0.05165529623627663
v -0.011035740375518799 -0.005772054195404053 0.05147123709321022
v -0.011026740074157715 -0.005761920940130949 0.051772598177194595
v -0.008200347423553467 -0.004375218879431486 0.052171651273965836
v -0.005921304225921631 -0.00326365209184587 0.052160751074552536
v -0.005935192108154297 -0.0032645459286868572 0.052459072321653366
v -0.008196651004254818 -0.004379152785986662 0.05187219753861427
v -0.005921304225921631 -0.00326365209184587 0.052160751074552536
v -0.008200347423553467 -0.004375218879431486 0.052171651273965836
v -0.009614466689527035 -0.005068718921393156 0.05197859928011894
v -0.008196651004254818 -0.004379152785986662 0.05187219753861427
v -0.008200347423553467 -0.004375218879431486 0.052171651273965836
v -0.009617090225219727 -0.005075931083410978 0.05167825147509575
v -0.008196651004254818 -0.004379152785986662 0.05187219753861427
v -0.009614466689527035 -0.005068718921393156 0.05197859928011894
v -0.011026740074157715 -0.005761920940130949 0.051772598177194595
v -0.009617090225219727 -0.005075931083410978 0.05167825147509575
v -0.009614466689527035 -0.005068718921393156 0.05197859928011894
v -0.011035740375518799 -0.005772054195404053 0.05147123709321022
v -0.009617090225219727 -0.005075931083410978 0.05167825147509575
v -0.011026740074157715 -0.005761920940130949 0.051772598177194595
v 0.007158398162573576 0.0034186840057373047 0.05374002829194069
v 0.00519823981449008 0.0040801758877933025 0.05359363928437233
v 0.004363893996924162 0.0020343658979982138 0.05352586880326271
v 0.004363893996924162 0.0020343658979982138 0.05352586880326271
v 0.003239691024646163 0.004741370212286711 0.05342913046479225
v 0.0015722509706392884 0.0006508490187115967 0.05327625200152397
v 0.00519823981449008 0.0040801758877933025 0.05359363928437233
v 0.003239691024646163 0.004741370212286711 0.05342913046479225
v 0.004363893996924162 0.0020343658979982138 0.05352586880326271
v 0.0015722509706392884 0.0006508490187115967 0.05327625200152397
v 0.00010870600090129301 0.005799055099487305 0.053132299333810806
v -0.00038225200842134655 -0.0003182179934810847 0.05308258906006813
v -0.00038225200842134655 -0.0003182179934810847 0.05308258906006813
v 0.00010870600090129301 0.005799055099487305 0.053132299333810806
v -0.0023356080055236816 -0.001286983024328947 0.05287529155611992
v 0.003239691024646163 0.004741370212286711 0.05342913046479225
v 0.00010870600090129301 0.005799055099487305 0.053132299333810806
v 0.0015722509706392884 0.0006508490187115967 0.05327625200152397
v 0.0032439229544252157 0.004745482932776213 0.05312949791550636
v 0.00010870600090129301 0.005799055099487305 0.053132299333810806
v 0.003239691024646163 0.004741370212286711 0.05342913046479225
v 0.0032439229544252157 0.004745482932776213 0.05312949791550636
v 0.00010544300312176347 0.005805671215057373 0.05283201113343239
v 0.00010870600090129301 0.005799055099487305 0.053132299333810806
v 0.005207240115851164 0.004082620143890381 0.05329437181353569
v 0.003239691024646163 0.004741370212286711 0.05342913046479225
v 0.00519823981449008 0.0040801758877933025 0.05359363928437233
v 0.005207240115851164 0.004082620143890381 0.05329437181353569
v 0.0032439229544252157 0.004745482932776213 0.05312949791550636
v 0.003239691024646163 0.004741370212286711 0.05342913046479225
v 0.007172048091888428 0.0034195780754089355 0.05344099923968315
v 0.00519823981449008 0.0040801758877933025 0.05359363928437233
v 0.007158398162573576 0.0034186840057373047 0.05374002829194069
v 0.007172048091888428 0.0034195780754089355 0.05344099923968315
v 0.005207240115851164 0.004082620143890381 0.05329437181353569
v 0.00519823981449008 0.0040801758877933025 0.05359363928437233
v 0.00010544300312176347 0.005805671215057373 0.05283201113343239
v -0.0023356080055236816 -0.001286983024328947 0.05287529155611992
v 0.00010870600090129301 0.005799055099487305 0.053132299333810806
v 0.00010544300312176347 0.005805671215057373 0.05283201113343239
v -0.002344727050513029 -0.0012972949771210551 0.0525742806494236
v -0.0023356080055236816 -0.001286983024328947 0.05287529155611992
v 0.004363893996924162 0.0020343658979982138 0.05352586880326271
v 0.007172048091888428 0.0034195780754089355 0.05344099923968315
v 0.007158398162573576 0.0034186840057373047 0.05374002829194069
v 0.004377603065222502 0.0020353789441287518 0.0532270111143589
v 0.007172048091888428 0.0034195780754089355 0.05344099923968315
v 0.004363893996924162 0.0020343658979982138 0.05352586880326271
v 0.0015722509706392884 0.0006508490187115967 0.05327625200152397
v 0.004377603065222502 0.0020353789441287518 0.0532270111143589
v 0.004363893996924162 0.0020343658979982138 0.05352586880326271
v 0.0015859600389376283 0.0006518819718621671 0.05297756567597389
v 0.004377603065222502 0.0020353789441287518 0.0532270111143589
v 0.0015722509706392884 0.0006508490187115967 0.05327625200152397
v -0.00038225200842134655 -0.0003182179934810847 0.05308258906006813
v 0.0015859600389376283 0.0006518819718621671 0.05297756567597389
v 0.0015722509706392884 0.0006508490187115967 0.05327625200152397
v -0.00037988999974913895 -0.00032288700458593667 0.05278283730149269
v 0.0015859600389376283 0.0006518819718621671 0.05297756567597389
v -0.00038225200842134655 -0.0003182179934810847 0.05308258906006813
v -0.0023356080055236816 -0.001286983024328947 0.05287529155611992
v -0.00037988999974913895 -0.00032288700458593667 0.05278283730149269
v -0.00038225200842134655 -0.0003182179934810847 0.05308258906006813
v -0.002344727050513029 -0.0012972949771210551 0.0525742806494236
v -0.00037988999974913895 -0.00032288700458593667 0.05278283730149269
v -0.0023356080055236816 -0.001286983024328947 0.05287529155611992
v 0.011444330215454102 0.003639400005340576 0.05400003120303154
v 0.009358285926282406 0.00434219790622592 0.053882669657468796
v 0.008743821643292904 0.002239406108856201 0.05384482070803642
v 0.009358285926282406 0.00434219790622592 0.053882669657468796
v 0.007371425163000822 0.005011916160583496 0.05375475063920021
v 0.008743821643292904 0.002239406108856201 0.05384482070803642
v 0.009359239600598812 0.004347443114966154 0.05358273908495903
v 0.007371425163000822 0.005011916160583496 0.05375475063920021
v 0.009358285926282406 0.00434219790622592 0.053882669657468796
v 0.009359239600598812 0.004347443114966154 0.05358273908495903
v 0.007361173164099455 0.005020915996283293 0.05345405265688896
v 0.007371425163000822 0.005011916160583496 0.05375475063920021
v 0.01145792007446289 0.003640413051471114 0.05370074883103371
v 0.009358285926282406 0.00434219790622592 0.053882669657468796
v 0.011444330215454102 0.003639400005340576 0.05400003120303154
v 0.01145792007446289 0.003640413051471114 0.05370074883103371
v 0.009359239600598812 0.004347443114966154 0.05358273908495903
v 0.009358285926282406 0.00434219790622592 0.053882669657468796
v 0.008743821643292904 0.002239406108856201 0.05384482070803642
v 0.01145792007446289 0.003640413051471114 0.05370074883103371
v 0.011444330215454102 0.003639400005340576 0.05400003120303154
v 0.008741497062146664 0.002232312923297286 0.05354471132159233
v 0.01145792007446289 0.003640413051471114 0.05370074883103371
v 0.008743821643292904 0.002239406108856201 0.05384482070803642
v 0.007371425163000822 0.005011916160583496 0.05375475063920021
v 0.008741497062146664 0.002232312923297286 0.05354471132159233
v 0.008743821643292904 0.002239406108856201 0.05384482070803642
v 0.007361173164099455 0.005020915996283293 0.05345405265688896
v 0.008741497062146664 0.002232312923297286 0.05354471132159233
v 0.007371425163000822 0.005011916160583496 0.05375475063920021
v 0.005876063834875822 0.007795273791998625 0.0536465086042881
v 0.0039001700934022665 0.011679530143737793 0.05348670855164528
v 0.003967583179473877 0.006819784175604582 0.053492430597543716
v 0.003967583179473877 0.006819784175604582 0.053492430597543716
v 0.001989603042602539 0.010709400288760662 0.0533154122531414
v 0.001993298064917326 0.005810319911688566 0.05331571027636528
v 0.0039001700934022665 0.011679530143737793 0.05348670855164528
v 0.001989603042602539 0.010709400288760662 0.0533154122531414
v 0.003967583179473877 0.006819784175604582 0.053492430597543716
v 0.001989603042602539 0.010709400288760662 0.0533154122531414
v 0.000006367390142258955 0.009702621959149837 0.053121987730264664
v 0.001993298064917326 0.005810319911688566 0.05331571027636528
v 0.0019873380661010742 0.010714109987020493 0.053015176206827164
v 0.000006367390142258955 0.009702621959149837 0.053121987730264664
v 0.001989603042602539 0.010709400288760662 0.0533154122531414
v 0.0019873380661010742 0.010714109987020493 0.053015176206827164
v -6.924059903212765e-7 0.009704886935651302 0.052821289747953415
v 0.000006367390142258955 0.009702621959149837 0.053121987730264664
v 0.0039024350699037313 0.01168655976653099 0.053186897188425064
v 0.001989603042602539 0.010709400288760662 0.0533154122531414
v 0.0039001700934022665 0.011679530143737793 0.05348670855164528
v 0.0039024350699037313 0.01168655976653099 0.053186897188425064
v 0.0019873380661010742 0.010714109987020493 0.053015176206827164
v 0.001989603042602539 0.010709400288760662 0.0533154122531414
v 0.0058831567876040936 0.007792949210852385 0.053347062319517136
v 0.0039001700934022665 0.011679530143737793 0.05348670855164528
v 0.005876063834875822 0.007795273791998625 0.0536465086042881
v 0.0058831567876040936 0.007792949210852385 0.053347062319517136
v 0.0039024350699037313 0.01168655976653099 0.053186897188425064
v 0.0039001700934022665 0.011679530143737793 0.05348670855164528
v 0.003967583179473877 0.006819784175604582 0.053492430597543716
v 0.0058831567876040936 0.007792949210852385 0.053347062319517136
v 0.005876063834875822 0.007795273791998625 0.0536465086042881
v 0.003970086108893156 0.006815195083618164 0.0531926192343235
v 0.0058831567876040936 0.007792949210852385 0.053347062319517136
v 0.003967583179473877 0.006819784175604582 0.053492430597543716
v 0.001993298064917326 0.005810319911688566 0.05331571027636528
v 0.003970086108893156 0.006815195083618164 0.0531926192343235
v 0.003967583179473877 0.006819784175604582 0.053492430597543716
v 0.001990914111956954 0.005803287029266357 0.05301554128527641
v 0.003970086108893156 0.006815195083618164 0.0531926192343235
v 0.001993298064917326 0.005810319911688566 0.05331571027636528
v 0.000006367390142258955 0.009702621959149837 0.053121987730264664
v 0.001990914111956954 0.005803287029266357 0.05301554128527641
v 0.001993298064917326 0.005810319911688566 0.05331571027636528
v -6.924059903212765e-7 0.009704886935651302 0.052821289747953415
v 0.001990914111956954 0.005803287029266357 0.05301554128527641
v 0.000006367390142258955 0.009702621959149837 0.053121987730264664
v 0.0012503860052675009 0.010982990264892578 0.053245071321725845
v -0.0013322229497134686 0.011921579949557781 0.05298328772187233
v -0.0007251430070027709 0.009998737834393978 0.05304701253771782
v -0.0007251430070027709 0.009998737834393978 0.05304701253771782
v -0.00336438394151628 0.010909910313785076 0.052760910242795944
v -0.0027412769850343466 0.008993864059448242 0.05283058062195778
v -0.0013322229497134686 0.011921579949557781 0.05298328772187233
v -0.00336438394151628 0.010909910313785076 0.052760910242795944
v -0.0007251430070027709 0.009998737834393978 0.05304701253771782
v -0.00336438394151628 0.010909910313785076 0.052760910242795944
v -0.005388795863837004 0.009902358055114746 0.05252516642212868
v -0.0027412769850343466 0.008993864059448242 0.05283058062195778
v -0.0033714768942445517 0.010912120342254639 0.052460137754678726
v -0.005388795863837004 0.009902358055114746 0.05252516642212868
v -0.00336438394151628 0.010909910313785076 0.052760910242795944
v -0.0033714768942445517 0.010912120342254639 0.052460137754678726
v -0.00540238618850708 0.00990146305412054 0.052223507314920425
v -0.005388795863837004 0.009902358055114746 0.05252516642212868
v -0.0013325209729373455 0.011926880106329918 0.05268329754471779
v -0.00336438394151628 0.010909910313785076 0.052760910242795944
v -0.0013322229497134686 0.011921579949557781 0.05298328772187233
v -0.0013325209729373455 0.011926880106329918 0.05268329754471779
v -0.0033714768942445517 0.010912120342254639 0.052460137754678726
v -0.00336438394151628 0.010909910313785076 0.052760910242795944
v 0.0012636779574677348 0.010983879677951336 0.052946340292692184
v -0.0013322229497134686 0.011921579949557781 0.05298328772187233
v 0.0012503860052675009 0.010982990264892578 0.053245071321725845
v 0.0012636779574677348 0.010983879677951336 0.052946340292692184
v -0.0013325209729373455 0.011926880106329918 0.05268329754471779
v -0.0013322229497134686 0.011921579949557781 0.05298328772187233
v -0.0007251430070027709 0.009998737834393978 0.05304701253771782
v 0.0012636779574677348 0.010983879677951336 0.052946340292692184
v 0.0012503860052675009 0.010982990264892578 0.053245071321725845
v -0.0007181200198829174 0.009996414184570312 0.052747730165719986
v 0.0012636779574677348 0.010983879677951336 0.052946340292692184
v -0.0007251430070027709 0.009998737834393978 0.05304701253771782
v -0.0027412769850343466 0.008993864059448242 0.05283058062195778
v -0.0007181200198829174 0.009996414184570312 0.052747730165719986
v -0.0007251430070027709 0.009998737834393978 0.05304701253771782
v -0.0027407999150455 0.008988200686872005 0.05253065004944801
v -0.0007181200198829174 0.009996414184570312 0.052747730165719986
v -0.0027412769850343466 0.008993864059448242 0.05283058062195778
v -0.005388795863837004 0.009902358055114746 0.05252516642212868
v -0.0027407999150455 0.008988200686872005 0.05253065004944801
v -0.0027412769850343466 0.008993864059448242 0.05283058062195778
v -0.00540238618850708 0.00990146305412054 0.052223507314920425
v -0.0027407999150455 0.008988200686872005 0.05253065004944801
v -0.005388795863837004 0.009902358055114746 0.05252516642212868
vn -0.09688913354500783 -0.001678466030020702 0.9952937649521794
vn -0.09688913354500783 -0.001678466030020702 0.9952937649521794
vn -0.09688913354500783 -0.001678466030020702 0.9952937649521794
vn -0.1059557841013535 0.004407226452980328 0.9943610753496235
vn -0.1059557841013535 0.004407226452980328 0.9943610753496235
vn -0.1059557841013535 0.004407226452980328 0.9943610753496235
vn -0.10464809176608693 -0.0024211998298215055 0.9945063673406525
vn -0.10464809176608693 -0.0024211998298215055 0.9945063673406525
vn -0.10464809176608693 -0.0024211998298215055 0.9945063673406525
vn -0.10432889183656 -0.001961051695043542 0.9945409175113936
vn -0.10432889183656 -0.001961051695043542 0.9945409175113936
vn -0.10432889183656 -0.001961051695043542 0.9945409175113936
vn -0.11616329516971206 -0.0008347710006854776 0.9932297780537446
vn -0.11616329516971206 -0.0008347710006854776 0.9932297780537446
vn -0.11616329516971206 -0.0008347710006854776 0.9932297780537446
vn -0.11234029221433926 0.00034402496619611016 0.9936697340625906
vn -0.11234029221433926 0.00034402496619611016 0.9936697340625906
vn -0.11234029221433926 0.00034402496619611016 0.9936697340625906
vn -0.11856029491736869 0.0004107490056166802 0.9929467698494019
vn -0.11856029491736869 0.0004107490056166802 0.9929467698494019
vn -0.11856029491736869 0.0004107490056166802 0.9929467698494019
vn -0.12354238985614292 -0.0011320108231811774 0.9923386500888339
vn -0.12354238985614292 -0.0011320108231811774 0.9923386500888339
vn -0.12354238985614292 -0.0011320108231811774 0.9923386500888339
vn -0.4383071461077447 0.8986615143695807 0.017155997839118475
vn -0.4383071461077447 0.8986615143695807 0.017155997839118475
vn -0.4383071461077447 0.8986615143695807 0.017155997839118475
vn -0.43837148275769144 0.8986273474485389 0.017301257827855257
vn -0.43837148275769144 0.8986273474485389 0.017301257827855257
vn -0.43837148275769144 0.8986273474485389 0.017301257827855257
vn -0.4383018307431396 0.8986557706904982 0.017587238892993906
vn -0.4383018307431396 0.8986557706904982 0.017587238892993906
vn -0.4383018307431396 0.8986557706904982 0.017587238892993906
vn -0.4383460888926945 0.8986398001326552 0.017297860272863255
vn -0.4383460888926945 0.8986398001326552 0.017297860272863255
vn -0.4383460888926945 0.8986398001326552 0.017297860272863255
vn -0.43837893874925815 0.8986246167265894 0.017254108903811204
vn -0.43837893874925815 0.8986246167265894 0.017254108903811204
vn -0.43837893874925815 0.8986246167265894 0.017254108903811204
vn -0.4383673716678702 0.8986238341172945 0.017585568325666275
vn -0.4383673716678702 0.8986238341172945 0.017585568325666275
vn -0.4383673716678702 0.8986238341172945 0.017585568325666275
vn -0.43837137855789754 0.8986256481943833 0.01739191963163065
vn -0.43837137855789754 0.8986256481943833 0.01739191963163065
vn -0.43837137855789754 0.8986256481943833 0.01739191963163065
vn 0.8953917577476864 0.44493236913739326 0.01757233767303209
vn 0.8953917577476864 0.44493236913739326 0.01757233767303209
vn 0.8953917577476864 0.44493236913739326 0.01757233767303209
vn 0.8953958976480751 0.44493262106198905 0.017353650621871084
vn 0.8953958976480751 0.44493262106198905 0.017353650621871084
vn 0.8953958976480751 0.44493262106198905 0.017353650621871084
vn 0.8953740947112644 0.4449643966639734 0.017661150060231473
vn 0.8953740947112644 0.4449643966639734 0.017661150060231473
vn 0.8953740947112644 0.4449643966639734 0.017661150060231473
vn 0.8953702769318563 0.444975630607409 0.017571435698592278
vn 0.8953702769318563 0.444975630607409 0.017571435698592278
vn 0.8953702769318563 0.444975630607409 0.017571435698592278
vn -0.3208388721692972 -0.9469744071874517 0.0173749888376346
vn -0.3208388721692972 -0.9469744071874517 0.0173749888376346
vn -0.3208388721692972 -0.9469744071874517 0.0173749888376346
vn -0.32082700926929714 -0.9469739853044123 0.017615370560876357
vn -0.32082700926929714 -0.9469739853044123 0.017615370560876357
vn -0.32082700926929714 -0.9469739853044123 0.017615370560876357
vn -0.3208074811261498 -0.946980578921307 0.017616560372593265
vn -0.3208074811261498 -0.946980578921307 0.017616560372593265
vn -0.3208074811261498 -0.946980578921307 0.017616560372593265
vn -0.32080906785052943 -0.9469788716438272 0.01767932818458179
vn -0.32080906785052943 -0.9469788716438272 0.01767932818458179
vn -0.32080906785052943 -0.9469788716438272 0.01767932818458179
vn -0.3208048694147547 -0.9469801938435122 0.017684689080856037
vn -0.3208048694147547 -0.9469801938435122 0.017684689080856037
vn -0.3208048694147547 -0.9469801938435122 0.017684689080856037
vn -0.32082986369040806 -0.9469796282592883 0.01725636770280141
vn -0.32082986369040806 -0.9469796282592883 0.01725636770280141
vn -0.32082986369040806 -0.9469796282592883 0.01725636770280141
vn -0.32081000002005455 -0.9469863467176008 0.017256970115995755
vn -0.32081000002005455 -0.9469863467176008 0.017256970115995755
vn -0.32081000002005455 -0.9469863467176008 0.017256970115995755
vn -0.32079630887313554 -0.9469841062746169 0.017630390711404348
vn -0.32079630887313554 -0.9469841062746169 0.017630390711404348
vn -0.32079630887313554 -0.9469841062746169 0.017630390711404348
vn -0.08910899625007844 0.0007860219352740435 0.9960215705278781
vn -0.08910899625007844 0.0007860219352740435 0.9960215705278781
vn -0.08910899625007844 0.0007860219352740435 0.9960215705278781
vn -0.09678214599731318 -0.00037486003562995154 0.9953055187710496
vn -0.09678214599731318 -0.00037486003562995154 0.9953055187710496
vn -0.09678214599731318 -0.00037486003562995154 0.9953055187710496
vn -0.3162572097355851 -0.9485300217782798 0.01649772940613846
vn -0.3162572097355851 -0.9485300217782798 0.01649772940613846
vn -0.3162572097355851 -0.9485300217782798 0.01649772940613846
vn -0.3161858855209517 -0.9485387022861828 0.01734404977437607
vn -0.3161858855209517 -0.9485387022861828 0.01734404977437607
vn -0.3161858855209517 -0.9485387022861828 0.01734404977437607
vn -0.3160310063951073 -0.9485900921163939 0.01735627078341287
vn -0.3160310063951073 -0.9485900921163939 0.01735627078341287
vn -0.3160310063951073 -0.9485900921163939 0.01735627078341287
vn -0.3160682554306218 -0.9485916302309084 0.016576397826746657
vn -0.3160682554306218 -0.9485916302309084 0.016576397826746657
vn -0.3160682554306218 -0.9485916302309084 0.016576397826746657
vn 0.8931732445367009 0.4493600860774989 0.017806411323045446
vn 0.8931732445367009 0.4493600860774989 0.017806411323045446
vn 0.8931732445367009 0.4493600860774989 0.017806411323045446
vn 0.8931626843383187 0.4493927741061364 0.017508680326056538
vn 0.8931626843383187 0.4493927741061364 0.017508680326056538
vn 0.8931626843383187 0.4493927741061364 0.017508680326056538
vn -0.9477517247871567 0.3185318788776108 0.01743875860457329
vn -0.9477517247871567 0.3185318788776108 0.01743875860457329
vn -0.9477517247871567 0.3185318788776108 0.01743875860457329
vn -0.9477424744302095 0.3185425143957749 0.017744539535335963
vn -0.9477424744302095 0.3185425143957749 0.017744539535335963
vn -0.9477424744302095 0.3185425143957749 0.017744539535335963
vn -0.12553849776903914 -0.0007116909815003535 0.9920884935699235
vn -0.12553849776903914 -0.0007116909815003535 0.9920884935699235
vn -0.12553849776903914 -0.0007116909815003535 0.9920884935699235
vn -0.13539668817220052 0.0002716589640698035 0.9907914326604802
vn -0.13539668817220052 0.0002716589640698035 0.9907914326604802
vn -0.13539668817220052 0.0002716589640698035 0.9907914326604802
vn -0.14423309035593884 -0.00020393301057016023 0.9895437201345391
vn -0.14423309035593884 -0.00020393301057016023 0.9895437201345391
vn -0.14423309035593884 -0.00020393301057016023 0.9895437201345391
vn -0.13479539863348167 0.0006715389955378935 0.9908732257673623
vn -0.13479539863348167 0.0006715389955378935 0.9908732257673623
vn -0.13479539863348167 0.0006715389955378935 0.9908732257673623
vn 0.3069582572223366 0.9515695543079631 0.017088347994190414
vn 0.3069582572223366 0.9515695543079631 0.017088347994190414
vn 0.3069582572223366 0.9515695543079631 0.017088347994190414
vn 0.30694881381124645 0.9515643808719203 0.017540089957221974
vn 0.30694881381124645 0.9515643808719203 0.017540089957221974
vn 0.30694881381124645 0.9515643808719203 0.017540089957221974
vn 0.30696558967794163 0.9515662198091616 0.01714223065345709
vn 0.30696558967794163 0.9515662198091616 0.01714223065345709
vn 0.30696558967794163 0.9515662198091616 0.01714223065345709
vn 0.30697701078663997 0.9515634991336275 0.01708865018267631
vn 0.30697701078663997 0.9515634991336275 0.01708865018267631
vn 0.30697701078663997 0.9515634991336275 0.01708865018267631
vn -0.9485727070430606 0.31607550775396775 0.017495509454465274
vn -0.9485727070430606 0.31607550775396775 0.017495509454465274
vn -0.9485727070430606 0.31607550775396775 0.017495509454465274
vn -0.9485646219009164 0.31609716120797643 0.017542598274778082
vn -0.9485646219009164 0.31609716120797643 0.017542598274778082
vn -0.9485646219009164 0.31609716120797643 0.017542598274778082
vn 0.4383614890496933 -0.8986241680463799 0.017714669657864352
vn 0.4383614890496933 -0.8986241680463799 0.017714669657864352
vn 0.4383614890496933 -0.8986241680463799 0.017714669657864352
vn 0.43838734682322833 -0.8986212270898619 0.017216979084654145
vn 0.43838734682322833 -0.8986212270898619 0.017216979084654145
vn 0.43838734682322833 -0.8986212270898619 0.017216979084654145
vn 0.4383622226611458 -0.8986335039996824 0.017215900581522288
vn 0.4383622226611458 -0.8986335039996824 0.017215900581522288
vn 0.4383622226611458 -0.8986335039996824 0.017215900581522288
vn 0.4383751607272542 -0.8986168211202656 0.017749007213434306
vn 0.4383751607272542 -0.8986168211202656 0.017749007213434306
vn 0.4383751607272542 -0.8986168211202656 0.017749007213434306
vn 0.43845189494533593 -0.8985794366292312 0.017746320349225853
vn 0.43845189494533593 -0.8985794366292312 0.017746320349225853
vn 0.43845189494533593 -0.8985794366292312 0.017746320349225853
vn 0.4384261840752523 -0.8986026984553716 0.017195099474490626
vn 0.4384261840752523 -0.8986026984553716 0.017195099474490626
vn 0.4384261840752523 -0.8986026984553716 0.017195099474490626
vn -0.07526258933463881 -0.0023391837592430017 0.9971610054880735
vn -0.07526258933463881 -0.0023391837592430017 0.9971610054880735
vn -0.07526258933463881 -0.0023391837592430017 0.9971610054880735
vn -0.08849262415184839 -0.0011544218246456936 0.9960761631426437
vn -0.08849262415184839 -0.0011544218246456936 0.9960761631426437
vn -0.08849262415184839 -0.0011544218246456936 0.9960761631426437
vn -0.0833716851091942 0.0009892899679981 0.9965180296549644
vn -0.0833716851091942 0.0009892899679981 0.9965180296549644
vn -0.0833716851091942 0.0009892899679981 0.9965180296549644
vn -0.09851317168753154 -0.00018016698707301078 0.995135730714117
vn -0.09851317168753154 -0.00018016698707301078 0.995135730714117
vn -0.09851317168753154 -0.00018016698707301078 0.995135730714117
vn -0.10572790329899054 0.0004049550034000165 0.9943950153110405
vn -0.10572790329899054 0.0004049550034000165 0.9943950153110405
vn -0.10572790329899054 0.0004049550034000165 0.9943950153110405
vn -0.09400606021319491 0.001112877957482946 0.9955710030660019
vn -0.09400606021319491 0.001112877957482946 0.9955710030660019
vn -0.09400606021319491 0.001112877957482946 0.9955710030660019
vn 0.31849875790348536 0.9477615876363388 0.017507547372022182
vn 0.31849875790348536 0.9477615876363388 0.017507547372022182
vn 0.31849875790348536 0.9477615876363388 0.017507547372022182
vn 0.3185014677029103 0.9477622367055213 0.017422908656124468
vn 0.3185014677029103 0.9477622367055213 0.017422908656124468
vn 0.3185014677029103 0.9477622367055213 0.017422908656124468
vn 0.31850090815050314 0.9477642831759575 0.017321519658160332
vn 0.31850090815050314 0.9477642831759575 0.017321519658160332
vn 0.31850090815050314 0.9477642831759575 0.017321519658160332
vn 0.31851615748079426 0.9477557315665314 0.01750801834756784
vn 0.31851615748079426 0.9477557315665314 0.01750801834756784
vn 0.31851615748079426 0.9477557315665314 0.01750801834756784
vn 0.3185369046209952 0.947751215669999 0.017374509792051945
vn 0.3185369046209952 0.947751215669999 0.017374509792051945
vn 0.3185369046209952 0.947751215669999 0.017374509792051945
vn 0.3185339875696623 0.9477531932638456 0.017320029479018204
vn 0.3185339875696623 0.9477531932638456 0.017320029479018204
vn 0.3185339875696623 0.9477531932638456 0.017320029479018204
vn -0.9453904287176012 0.32547298949837566 0.01744334819181096
vn -0.9453904287176012 0.32547298949837566 0.01744334819181096
vn -0.9453904287176012 0.32547298949837566 0.01744334819181096
vn -0.9453908800606029 0.325469195826467 0.017489610238988783
vn -0.9453908800606029 0.325469195826467 0.017489610238988783
vn -0.9453908800606029 0.325469195826467 0.017489610238988783
vn 0.4427347940817306 -0.8964812479230392 0.017529239337692293
vn 0.4427347940817306 -0.8964812479230392 0.017529239337692293
vn 0.4427347940817306 -0.8964812479230392 0.017529239337692293
vn 0.44274517290277965 -0.8964811441291001 0.017270497742316614
vn 0.44274517290277965 -0.8964811441291001 0.017270497742316614
vn 0.44274517290277965 -0.8964811441291001 0.017270497742316614
vn 0.4427474894577518 -0.8964799953894432 0.017270739573098125
vn 0.4427474894577518 -0.8964799953894432 0.017270739573098125
vn 0.4427474894577518 -0.8964799953894432 0.017270739573098125
vn 0.4427725957452312 -0.8964685770777858 0.017219720356623943
vn 0.4427725957452312 -0.8964685770777858 0.017219720356623943
vn 0.4427725957452312 -0.8964685770777858 0.017219720356623943
vn 0.44277446607774895 -0.8964676087980084 0.0172220372065971
vn 0.44277446607774895 -0.8964676087980084 0.0172220372065971
vn 0.44277446607774895 -0.8964676087980084 0.0172220372065971
vn 0.44277145927921713 -0.8964646351175904 0.017452588095691265
vn 0.44277145927921713 -0.8964646351175904 0.017452588095691265
vn 0.44277145927921713 -0.8964646351175904 0.017452588095691265
vn 0.4427491868442455 -0.8964756422643898 0.017452231244434176
vn 0.4427491868442455 -0.8964756422643898 0.017452231244434176
vn 0.4427491868442455 -0.8964756422643898 0.017452231244434176
vn 0.44274596004392935 -0.8964802153211437 0.0172985086795107
vn 0.44274596004392935 -0.8964802153211437 0.0172985086795107
vn 0.44274596004392935 -0.8964802153211437 0.0172985086795107
vn -0.05665033399212259 -0.001417278916379347 0.9983930743845604
vn -0.05665033399212259 -0.001417278916379347 0.9983930743845604
vn -0.05665033399212259 -0.001417278916379347 0.9983930743845604
vn -0.0639994071688448 0.0007395119193726126 0.9979496625602704
vn -0.0639994071688448 0.0007395119193726126 0.9979496625602704
vn -0.0639994071688448 0.0007395119193726126 0.9979496625602704
vn 0.3183490675683703 0.9478103642695138 0.017589330903723294
vn 0.3183490675683703 0.9478103642695138 0.017589330903723294
vn 0.3183490675683703 0.9478103642695138 0.017589330903723294
vn 0.3183527006107348 0.9478105942297304 0.01751101024319188
vn 0.3183527006107348 0.9478105942297304 0.01751101024319188
vn 0.3183527006107348 0.9478105942297304 0.01751101024319188
vn 0.3183209568976145 0.9478185090237387 0.017659058633010153
vn 0.3183209568976145 0.9478185090237387 0.017659058633010153
vn 0.3183209568976145 0.9478185090237387 0.017659058633010153
vn 0.3183210795959978 0.9478197711102531 0.017588967489476522
vn 0.3183210795959978 0.9478197711102531 0.017588967489476522
vn 0.3183210795959978 0.9478197711102531 0.017588967489476522
vn 0.45935886723528 -0.8880713509582399 0.01785235837437612
vn 0.45935886723528 -0.8880713509582399 0.01785235837437612
vn 0.45935886723528 -0.8880713509582399 0.01785235837437612
vn 0.4593420211796084 -0.888088382914973 0.017433637316991435
vn 0.4593420211796084 -0.888088382914973 0.017433637316991435
vn 0.4593420211796084 -0.888088382914973 0.017433637316991435
vn -0.8963000529659608 -0.4431059835565845 0.0174155789328958
vn -0.8963000529659608 -0.4431059835565845 0.0174155789328958
vn -0.8963000529659608 -0.4431059835565845 0.0174155789328958
vn -0.8963091151843952 -0.44309230543425826 0.01729678878637656
vn -0.8963091151843952 -0.44309230543425826 0.01729678878637656
vn -0.8963091151843952 -0.44309230543425826 0.01729678878637656
vn -0.08050756202388966 0.000056922792607270684 0.9967539963384973
vn -0.08050756202388966 0.000056922792607270684 0.9967539963384973
vn -0.08050756202388966 0.000056922792607270684 0.9967539963384973
vn -0.08915161473685691 -0.000006646379559616629 0.9960180668771207
vn -0.08915161473685691 -0.000006646379559616629 0.9960180668771207
vn -0.08915161473685691 -0.000006646379559616629 0.9960180668771207
vn -0.08926074331339556 -0.00006553999356146784 0.996008290832787
vn -0.08926074331339556 -0.00006553999356146784 0.996008290832787
vn -0.08926074331339556 -0.00006553999356146784 0.996008290832787
vn -0.09705787378775077 -0.000012659899152966811 0.9952787393366381
vn -0.09705787378775077 -0.000012659899152966811 0.9952787393366381
vn -0.09705787378775077 -0.000012659899152966811 0.9952787393366381
vn -0.4539468682344252 0.8908587882368135 0.017402880261427566
vn -0.4539468682344252 0.8908587882368135 0.017402880261427566
vn -0.4539468682344252 0.8908587882368135 0.017402880261427566
vn -0.4539295901618751 0.8908682807683537 0.017367599036995075
vn -0.4539295901618751 0.8908682807683537 0.017367599036995075
vn -0.4539295901618751 0.8908682807683537 0.017367599036995075
vn -0.4539369903381084 0.8908628151973884 0.017454320421149132
vn -0.4539369903381084 0.8908628151973884 0.017454320421149132
vn -0.4539369903381084 0.8908628151973884 0.017454320421149132
vn -0.4539283873658599 0.8908682586472497 0.01740014017894059
vn -0.4539283873658599 0.8908682586472497 0.01740014017894059
vn -0.4539283873658599 0.8908682586472497 0.01740014017894059
vn 0.8908787291065932 0.4539009292578649 0.017579432421673178
vn 0.8908787291065932 0.4539009292578649 0.017579432421673178
vn 0.8908787291065932 0.4539009292578649 0.017579432421673178
vn 0.8908759360467601 0.453914344561572 0.017373381192151087
vn 0.8908759360467601 0.453914344561572 0.017373381192151087
vn 0.8908759360467601 0.453914344561572 0.017373381192151087
vn 0.4539284553035659 -0.8908629105832979 0.017670088080528553
vn 0.4539284553035659 -0.8908629105832979 0.017670088080528553
vn 0.4539284553035659 -0.8908629105832979 0.017670088080528553
vn 0.45391507282436994 -0.890874590668184 0.017423270779124235
vn 0.45391507282436994 -0.890874590668184 0.017423270779124235
vn 0.45391507282436994 -0.890874590668184 0.017423270779124235
vn 0.4539426804569924 -0.8908604864466545 0.017425169943246464
vn 0.4539426804569924 -0.8908604864466545 0.017425169943246464
vn 0.4539426804569924 -0.8908604864466545 0.017425169943246464
vn 0.453944595596755 -0.8908625282946271 0.01727020002788931
vn 0.453944595596755 -0.8908625282946271 0.01727020002788931
vn 0.453944595596755 -0.8908625282946271 0.01727020002788931
vn -0.8908830154150709 -0.4538874559457667 0.01770960699818375
vn -0.8908830154150709 -0.4538874559457667 0.01770960699818375
vn -0.8908830154150709 -0.4538874559457667 0.01770960699818375
vn -0.8908868605782042 -0.4538881867232432 0.01749615964141094
vn -0.8908868605782042 -0.4538881867232432 0.01749615964141094
vn -0.8908868605782042 -0.4538881867232432 0.01749615964141094
vn -0.10039009328369898 0.001279294047393295 0.99494733155943
vn -0.10039009328369898 0.001279294047393295 0.99494733155943
vn -0.10039009328369898 0.001279294047393295 0.99494733155943
vn -0.10734639990829711 0.0012412660207427584 0.9942209058782628
vn -0.10734639990829711 0.0012412660207427584 0.9942209058782628
vn -0.10734639990829711 0.0012412660207427584 0.9942209058782628
vn -0.10818628301389065 -0.0012096158550688291 0.9941299034819955
vn -0.10818628301389065 -0.0012096158550688291 0.9941299034819955
vn -0.10818628301389065 -0.0012096158550688291 0.9941299034819955
vn -0.11503788671886532 -0.0012898439132635895 0.9933602674367124
vn -0.11503788671886532 -0.0012898439132635895 0.9933602674367124
vn -0.11503788671886532 -0.0012898439132635895 0.9933602674367124
vn -0.447100767337201 0.8943199691058977 0.01710838113067115
vn -0.447100767337201 0.8943199691058977 0.01710838113067115
vn -0.447100767337201 0.8943199691058977 0.01710838113067115
vn -0.4470980714962346 0.8943139217692685 0.017490677345905283
vn -0.4470980714962346 0.8943139217692685 0.017490677345905283
vn -0.4470980714962346 0.8943139217692685 0.017490677345905283
vn -0.4470270164728766 0.8943697587412647 0.01641892787152705
vn -0.4470270164728766 0.8943697587412647 0.01641892787152705
vn -0.4470270164728766 0.8943697587412647 0.01641892787152705
vn -0.4470345017223547 0.8943529599684382 0.017115410177356273
vn -0.4470345017223547 0.8943529599684382 0.017115410177356273
vn -0.4470345017223547 0.8943529599684382 0.017115410177356273
vn 0.33989391188315066 0.9402930267047679 0.017920730876715748
vn 0.33989391188315066 0.9402930267047679 0.017920730876715748
vn 0.33989391188315066 0.9402930267047679 0.017920730876715748
vn 0.3398981000314666 0.9403182007968047 0.016460949099584888
vn 0.3398981000314666 0.9403182007968047 0.016460949099584888
vn 0.3398981000314666 0.9403182007968047 0.016460949099584888
vn 0.44450177492015935 -0.8956144796203248 0.017113619933920216
vn 0.44450177492015935 -0.8956144796203248 0.017113619933920216
vn 0.44450177492015935 -0.8956144796203248 0.017113619933920216
vn 0.44450856604006045 -0.895606008527469 0.017378498396133833
vn 0.44450856604006045 -0.895606008527469 0.017378498396133833
vn 0.44450856604006045 -0.895606008527469 0.017378498396133833
vn 0.4445328915431552 -0.8955936836425242 0.017391439155389755
vn 0.4445328915431552 -0.8955936836425242 0.017391439155389755
vn 0.4445328915431552 -0.8955936836425242 0.017391439155389755
vn 0.4445243554911557 -0.8955935991153758 0.0176125693395399
vn 0.4445243554911557 -0.8955935991153758 0.0176125693395399
vn 0.4445243554911557 -0.8955935991153758 0.0176125693395399
vn -0.32630810655656467 -0.9451046734936368 0.017325580393048337
vn -0.32630810655656467 -0.9451046734936368 0.017325580393048337
vn -0.32630810655656467 -0.9451046734936368 0.017325580393048337
vn -0.32631456211991594 -0.9450990968364346 0.01750724728342959
vn -0.32631456211991594 -0.9450990968364346 0.01750724728342959
vn -0.32631456211991594 -0.9450990968364346 0.01750724728342959
f 1//1 2//2 3//3
f 4//4 5//5 6//6
f 7//7 8//8 9//9
f 10//10 11//11 12//12
f 13//13 14//14 15//15
f 16//16 17//17 18//18
f 19//19 20//20 21//21
f 22//22 23//23 24//24
f 25//25 26//26 27//27
f 28//28 29//29 30//30
f 31//31 32//32 33//33
f 34//34 35//35 36//36
f 37//37 38//38 39//39
f 40//40 41//41 42//42
f 43//43 44//44 45//45
f 46//46 47//47 48//48
f 49//49 50//50 51//51
f 52//52 53//53 54//54
f 55//55 56//56 57//57
f 58//58 59//59 60//60
f 61//61 62//62 63//63
f 64//64 65//65 66//66
f 67//67 68//68 69//69
f 70//70 71//71 72//72
f 73//73 74//74 75//75
f 76//76 77//77 78//78
f 79//79 80//80 81//81
f 82//82 83//83 84//84
f 85//85 86//86 87//87
f 88//88 89//89 90//90
f 91//91 92//92 93//93
f 94//94 95//95 96//96
f 97//97 98//98 99//99
f 100//100 101//101 102//102
f 103//103 104//104 105//105
f 106//106 107//107 108//108
f 109//109 110//110 111//111
f 112//112 113//113 114//114
f 115//115 116//116 117//117
f 118//118 119//119 120//120
f 121//121 122//122 123//123
f 124//124 125//125 126//126
f 127//127 128//128 129//129
f 130//130 131//131 132//132
f 133//133 134//134 135//135
f 136//136 137//137 138//138
f 139//139 140//140 141//141
f 142//142 143//143 144//144
f 145//145 146//146 147//147
f 148//148 149//149 150//150
f 151//151 152//152 153//153
f 154//154 155//155 156//156
f 157//157 158//158 159//159
f 160//160 161//161 162//162
f 163//163 164//164 165//165
f 166//166 167//167 168//168
f 169//169 170//170 171//171
f 172//172 173//173 174//174
f 175//175 176//176 177//177
f 178//178 179//179 180//180
f 181//181 182//182 183//183
f 184//184 185//185 186//186
f 187//187 188//188 189//189
f 190//190 191//191 192//192
f 193//193 194//194 195//195
f 196//196 197//197 198//198
f 199//199 200//200 201//201
f 202//202 203//203 204//204
f 205//205 206//206 207//207
f 208//208 209//209 210//210
f 211//211 212//212 213//213
f 214//214 215//215 216//216
f 217//217 218//218 219//219
f 220//220 221//221 222//222
f 223//223 224//224 225//225
f 226//226 227//227 228//228
f 229//229 230//230 231//231
f 232//232 233//233 234//234
f 235//235 236//236 237//237
f 238//238 239//239 240//240
f 241//241 242//242 243//243
f 244//244 245//245 246//246
f 247//247 248//248 249//249
f 250//250 251//251 252//252
f 253//253 254//254 255//255
f 256//256 257//257 258//258
f 259//259 260//260 261//261
f 262//262 263//263 264//264
f 265//265 266//266 267//267
f 268//268 269//269 270//270
f 271//271 272//272 273//273
f 274//274 275//275 276//276
f 277//277 278//278 279//279
f 280//280 281//281 282//282
f 283//283 284//284 285//285
f 286//286 287//287 288//288
f 289//289 290//290 291//291
f 292//292 293//293 294//294
f 295//295 296//296 297//297
f 298//298 299//299 300//300
f 301//301 302//302 303//303
f 304//304 305//305 306//306
f 307//307 308//308 309//309
f 310//310 311//311 312//312
f 313//313 314//314 315//315
f 316//316 317//317 318//318
f 319//319 320//320 321//321
f 322//322 323//323 324//324
f 325//325 326//326 327//327
f 328//328 329//329 330//330
f 331//331 332//332 333//333
f 334//334 335//335 336//336
f 337//337 338//338 339//339
f 340//340 341//341 342//342
f 343//343 344//344 345//345
f 346//346 347//347 348//348
f 349//349 350//350 351//351
