o node12
usemtl Shell004_001_001_002_001
v 0.09868311136960983 0.07611072063446045 -0.0004972703754901886
v 0.09998410195112228 0.07590477913618088 -0.0007284199818968773
v 0.09851664304733276 0.07581371068954468 -0.0008622901514172554
v 0.09715747088193893 0.07595323771238327 -0.0007746098563075066
v 0.09740138053894043 0.07612936943769455 -0.0005808398127555847
v 0.09851664304733276 0.07581371068954468 -0.0008622901514172554
v 0.09715747088193893 0.07595323771238327 -0.0007746098563075066
v 0.09851664304733276 0.07581371068954468 -0.0008622901514172554
v 0.09744446724653244 0.0756106898188591 -0.0010009296238422394
v 0.09728819131851196 0.07624136656522751 -0.00031149014830589294
v 0.09868311136960983 0.07611072063446045 -0.0004972703754901886
v 0.09740138053894043 0.07612936943769455 -0.0005808398127555847
v 0.09868311136960983 0.07611072063446045 -0.0004972703754901886
v 0.09991049021482468 0.07614593952894211 -0.0001917397603392601
v 0.09998410195112228 0.07590477913618088 -0.0007284199818968773
v 0.09995584934949875 0.07549463957548141 -0.0009923502802848816
v 0.09851664304733276 0.07581371068954468 -0.0008622901514172554
v 0.09998410195112228 0.07590477913618088 -0.0007284199818968773
v 0.09851664304733276 0.07581371068954468 -0.0008622901514172554
v 0.09740138053894043 0.07612936943769455 -0.0005808398127555847
v 0.09868311136960983 0.07611072063446045 -0.0004972703754901886
v 0.09744446724653244 0.0756106898188591 -0.0010009296238422394
v 0.09851664304733276 0.07581371068954468 -0.0008622901514172554
v 0.09995584934949875 0.07549463957548141 -0.0009923502802848816
v 0.09991049021482468 0.07614593952894211 -0.0001917397603392601
v 0.09728819131851196 0.07624136656522751 -0.00031149014830589294
v 0.09735029190778732 0.07627540081739426 0.00010676030069589615
v 0.09868311136960983 0.07611072063446045 -0.0004972703754901886
v 0.09728819131851196 0.07624136656522751 -0.00031149014830589294
v 0.09991049021482468 0.07614593952894211 -0.0001917397603392601
v 0.09725207090377808 0.07563447207212448 0.0009998800233006477
v 0.09727417677640915 0.07614772766828537 0.0005564801394939423
v 0.09677010029554367 0.07566647976636887 0.0007510902360081673
v 0.09670066088438034 0.07566636055707932 -0.0006531998515129089
v 0.09715747088193893 0.07595323771238327 -0.0007746098563075066
v 0.09698771685361862 0.07565057277679443 -0.00089292973279953
v 0.09740138053894043 0.07612936943769455 -0.0005808398127555847
v 0.09715747088193893 0.07595323771238327 -0.0007746098563075066
v 0.09728819131851196 0.07624136656522751 -0.00031149014830589294
v 0.09670066088438034 0.07566636055707932 -0.0006531998515129089
v 0.09670025110244751 0.0759478211402893 -0.00032221991568803787
v 0.09715747088193893 0.07595323771238327 -0.0007746098563075066
v 0.09728819131851196 0.07624136656522751 -0.00031149014830589294
v 0.09715747088193893 0.07595323771238327 -0.0007746098563075066
v 0.09698312729597092 0.07619482278823853 -0.0001466795802116394
v 0.09698771685361862 0.07565057277679443 -0.00089292973279953
v 0.09715747088193893 0.07595323771238327 -0.0007746098563075066
v 0.09744446724653244 0.0756106898188591 -0.0010009296238422394
v 0.09670025110244751 0.0759478211402893 -0.00032221991568803787
v 0.09698312729597092 0.07619482278823853 -0.0001466795802116394
v 0.09715747088193893 0.07595323771238327 -0.0007746098563075066
v 0.09650176018476486 0.07567954063415527 0.0003001801669597626
v 0.09679388254880905 0.07602453231811523 0.00038625020533800125
v 0.09646934270858765 0.07568222284317017 -0.0002006804570555687
v 0.09646934270858765 0.07568222284317017 -0.0002006804570555687
v 0.09670025110244751 0.0759478211402893 -0.00032221991568803787
v 0.09670066088438034 0.07566636055707932 -0.0006531998515129089
v 0.09735029190778732 0.07627540081739426 0.00010676030069589615
v 0.09728819131851196 0.07624136656522751 -0.00031149014830589294
v 0.09698312729597092 0.07619482278823853 -0.0001466795802116394
v 0.09727417677640915 0.07614772766828537 0.0005564801394939423
v 0.09679388254880905 0.07602453231811523 0.00038625020533800125
v 0.09677010029554367 0.07566647976636887 0.0007510902360081673
v 0.09698312729597092 0.07619482278823853 -0.0001466795802116394
v 0.09679388254880905 0.07602453231811523 0.00038625020533800125
v 0.09727417677640915 0.07614772766828537 0.0005564801394939423
v 0.09727417677640915 0.07614772766828537 0.0005564801394939423
v 0.09735029190778732 0.07627540081739426 0.00010676030069589615
v 0.09698312729597092 0.07619482278823853 -0.0001466795802116394
v 0.09677010029554367 0.07566647976636887 0.0007510902360081673
v 0.09679388254880905 0.07602453231811523 0.00038625020533800125
v 0.09650176018476486 0.07567954063415527 0.0003001801669597626
v 0.09646934270858765 0.07568222284317017 -0.0002006804570555687
v 0.09679388254880905 0.07602453231811523 0.00038625020533800125
v 0.09670025110244751 0.0759478211402893 -0.00032221991568803787
v 0.09679388254880905 0.07602453231811523 0.00038625020533800125
v 0.09698312729597092 0.07619482278823853 -0.0001466795802116394
v 0.09670025110244751 0.0759478211402893 -0.00032221991568803787
v 0.10003740340471268 0.07549618929624557 0.000993800349533558
v 0.1001209020614624 0.07572317123413086 0.0008611800149083138
v 0.09863454103469849 0.07554744929075241 0.0009981496259570122
v 0.1001209020614624 0.07572317123413086 0.0008611800149083138
v 0.09993904083967209 0.07601433247327805 0.000568700022995472
v 0.09869688004255295 0.07583075016736984 0.0008413894101977348
v 0.09863454103469849 0.07554744929075241 0.0009981496259570122
v 0.09869688004255295 0.07583075016736984 0.0008413894101977348
v 0.09725207090377808 0.07563447207212448 0.0009998800233006477
v 0.09735029190778732 0.07627540081739426 0.00010676030069589615
v 0.09868531674146652 0.0761442705988884 0.00039829034358263016
v 0.09991049021482468 0.07614593952894211 -0.0001917397603392601
v 0.09869688004255295 0.07583075016736984 0.0008413894101977348
v 0.09993904083967209 0.07601433247327805 0.000568700022995472
v 0.09727417677640915 0.07614772766828537 0.0005564801394939423
v 0.09727417677640915 0.07614772766828537 0.0005564801394939423
v 0.09993904083967209 0.07601433247327805 0.000568700022995472
v 0.09868531674146652 0.0761442705988884 0.00039829034358263016
v 0.09868531674146652 0.0761442705988884 0.00039829034358263016
v 0.10010389983654022 0.07609497755765915 0.00034219957888126373
v 0.09991049021482468 0.07614593952894211 -0.0001917397603392601
v 0.09725207090377808 0.07563447207212448 0.0009998800233006477
v 0.09869688004255295 0.07583075016736984 0.0008413894101977348
v 0.09727417677640915 0.07614772766828537 0.0005564801394939423
v 0.1001209020614624 0.07572317123413086 0.0008611800149083138
v 0.09869688004255295 0.07583075016736984 0.0008413894101977348
v 0.09863454103469849 0.07554744929075241 0.0009981496259570122
v 0.09993904083967209 0.07601433247327805 0.000568700022995472
v 0.10010389983654022 0.07609497755765915 0.00034219957888126373
v 0.09868531674146652 0.0761442705988884 0.00039829034358263016
v 0.09735029190778732 0.07627540081739426 0.00010676030069589615
v 0.09727417677640915 0.07614772766828537 0.0005564801394939423
v 0.09868531674146652 0.0761442705988884 0.00039829034358263016
v 0.1001209020614624 0.07572317123413086 0.0008611800149083138
v 0.10003740340471268 0.07549618929624557 0.000993800349533558
v 0.10044019669294357 0.07547473162412643 0.0007646800950169563
v 0.1005512997508049 0.07573019713163376 0.00045573990792036057
v 0.10010389983654022 0.07609497755765915 0.00034219957888126373
v 0.1001209020614624 0.07572317123413086 0.0008611800149083138
v 0.10061290115118027 0.07547097653150558 -0.0005891798064112663
v 0.10059449821710587 0.07576698064804077 -0.00031958986073732376
v 0.10080359876155853 0.07546502351760864 -0.0001554396003484726
v 0.10059449821710587 0.07576698064804077 -0.00031958986073732376
v 0.10061290115118027 0.07547097653150558 -0.0005891798064112663
v 0.10041599720716476 0.0757753774523735 -0.0005971696227788925
v 0.10059449821710587 0.07576698064804077 -0.00031958986073732376
v 0.10021509975194931 0.07606679201126099 -0.00027106981724500656
v 0.10062190145254135 0.07583057135343552 0.00004042033106088638
v 0.10062190145254135 0.07583057135343552 0.00004042033106088638
v 0.10021509975194931 0.07606679201126099 -0.00027106981724500656
v 0.10010389983654022 0.07609497755765915 0.00034219957888126373
v 0.10041599720716476 0.0757753774523735 -0.0005971696227788925
v 0.10021509975194931 0.07606679201126099 -0.00027106981724500656
v 0.10059449821710587 0.07576698064804077 -0.00031958986073732376
v 0.10021509975194931 0.07606679201126099 -0.00027106981724500656
v 0.09991049021482468 0.07614593952894211 -0.0001917397603392601
v 0.10010389983654022 0.07609497755765915 0.00034219957888126373
v 0.10072539746761322 0.07546687126159668 0.00041009020060300827
v 0.1005512997508049 0.07573019713163376 0.00045573990792036057
v 0.10044019669294357 0.07547473162412643 0.0007646800950169563
v 0.10044019669294357 0.07547473162412643 0.0007646800950169563
v 0.1005512997508049 0.07573019713163376 0.00045573990792036057
v 0.1001209020614624 0.07572317123413086 0.0008611800149083138
v 0.09998410195112228 0.07590477913618088 -0.0007284199818968773
v 0.09991049021482468 0.07614593952894211 -0.0001917397603392601
v 0.10021509975194931 0.07606679201126099 -0.00027106981724500656
v 0.1001209020614624 0.07572317123413086 0.0008611800149083138
v 0.10010389983654022 0.07609497755765915 0.00034219957888126373
v 0.09993904083967209 0.07601433247327805 0.000568700022995472
v 0.10062190145254135 0.07583057135343552 0.00004042033106088638
v 0.10080359876155853 0.07546502351760864 -0.0001554396003484726
v 0.10059449821710587 0.07576698064804077 -0.00031958986073732376
v 0.1005512997508049 0.07573019713163376 0.00045573990792036057
v 0.10062190145254135 0.07583057135343552 0.00004042033106088638
v 0.10010389983654022 0.07609497755765915 0.00034219957888126373
v 0.10030840337276459 0.07547949999570847 -0.0008589001372456551
v 0.10041599720716476 0.0757753774523735 -0.0005971696227788925
v 0.10061290115118027 0.07547097653150558 -0.0005891798064112663
v 0.10062190145254135 0.07583057135343552 0.00004042033106088638
v 0.10072539746761322 0.07546687126159668 0.00041009020060300827
v 0.10080359876155853 0.07546502351760864 -0.0001554396003484726
v 0.1005512997508049 0.07573019713163376 0.00045573990792036057
v 0.10072539746761322 0.07546687126159668 0.00041009020060300827
v 0.10062190145254135 0.07583057135343552 0.00004042033106088638
v 0.09995584934949875 0.07549463957548141 -0.0009923502802848816
v 0.09998410195112228 0.07590477913618088 -0.0007284199818968773
v 0.10030840337276459 0.07547949999570847 -0.0008589001372456551
v 0.10030840337276459 0.07547949999570847 -0.0008589001372456551
v 0.09998410195112228 0.07590477913618088 -0.0007284199818968773
v 0.10041599720716476 0.0757753774523735 -0.0005971696227788925
v 0.10041599720716476 0.0757753774523735 -0.0005971696227788925
v 0.09998410195112228 0.07590477913618088 -0.0007284199818968773
v 0.10021509975194931 0.07606679201126099 -0.00027106981724500656
vn 0.009821890005754548 0.7734364337099487 -0.6337977701812706
vn 0.009821890005754548 0.7734364337099487 -0.6337977701812706
vn 0.009821890005754548 0.7734364337099487 -0.6337977701812706
vn 0.029352654986467695 0.721008046449944 -0.692304715136103
vn 0.029352654986467695 0.721008046449944 -0.692304715136103
vn 0.029352654986467695 0.721008046449944 -0.692304715136103
vn 0.003019987846054474 0.5529878749663115 -0.8331838271435977
vn 0.003019987846054474 0.5529878749663115 -0.8331838271435977
vn 0.003019987846054474 0.5529878749663115 -0.8331838271435977
vn 0.037634424346403024 0.9282371869862868 -0.3700802275181695
vn 0.037634424346403024 0.9282371869862868 -0.3700802275181695
vn 0.037634424346403024 0.9282371869862868 -0.3700802275181695
vn 0.07345442569825239 0.9134051919071555 -0.4003690831500261
vn 0.07345442569825239 0.9134051919071555 -0.4003690831500261
vn 0.07345442569825239 0.9134051919071555 -0.4003690831500261
vn 0.043347411359512186 0.5385236206410954 -0.8414946891930067
vn 0.043347411359512186 0.5385236206410954 -0.8414946891930067
vn 0.043347411359512186 0.5385236206410954 -0.8414946891930067
vn 0.053130620127390935 0.7625703940749154 -0.6447197308019254
vn 0.053130620127390935 0.7625703940749154 -0.6447197308019254
vn 0.053130620127390935 0.7625703940749154 -0.6447197308019254
vn 0.024784738014619976 0.4711821640452952 -0.8816876346230218
vn 0.024784738014619976 0.4711821640452952 -0.8816876346230218
vn 0.024784738014619976 0.4711821640452952 -0.8816876346230218
vn 0.04019314133396674 0.9953989591423403 -0.08697944313487775
vn 0.04019314133396674 0.9953989591423403 -0.08697944313487775
vn 0.04019314133396674 0.9953989591423403 -0.08697944313487775
vn 0.04851787481112602 0.951265145245571 -0.304533478068889
vn 0.04851787481112602 0.951265145245571 -0.304533478068889
vn 0.04851787481112602 0.951265145245571 -0.304533478068889
vn -0.3243159768096715 0.6263602600675623 0.708866681255428
vn -0.3243159768096715 0.6263602600675623 0.708866681255428
vn -0.3243159768096715 0.6263602600675623 0.708866681255428
vn -0.5184399893746184 0.5475553075714615 -0.6568128824616397
vn -0.5184399893746184 0.5475553075714615 -0.6568128824616397
vn -0.5184399893746184 0.5475553075714615 -0.6568128824616397
vn -0.2503665709452771 0.8521944365446097 -0.4594357653421406
vn -0.2503665709452771 0.8521944365446097 -0.4594357653421406
vn -0.2503665709452771 0.8521944365446097 -0.4594357653421406
vn -0.5452608668134311 0.6382903693135625 -0.5433930359909129
vn -0.5452608668134311 0.6382903693135625 -0.5433930359909129
vn -0.5452608668134311 0.6382903693135625 -0.5433930359909129
vn -0.35421518486918124 0.8356317516590468 -0.4198227940778408
vn -0.35421518486918124 0.8356317516590468 -0.4198227940778408
vn -0.35421518486918124 0.8356317516590468 -0.4198227940778408
vn -0.1700524875718874 0.44005389029146297 -0.8817225896561584
vn -0.1700524875718874 0.44005389029146297 -0.8817225896561584
vn -0.1700524875718874 0.44005389029146297 -0.8817225896561584
vn -0.43073091696386967 0.7957472946319958 -0.425743021384172
vn -0.43073091696386967 0.7957472946319958 -0.425743021384172
vn -0.43073091696386967 0.7957472946319958 -0.425743021384172
vn -0.7685779902272124 0.6375444509136037 0.05315022151948895
vn -0.7685779902272124 0.6375444509136037 0.05315022151948895
vn -0.7685779902272124 0.6375444509136037 0.05315022151948895
vn -0.772551945247499 0.4832771367024313 -0.41183334133482274
vn -0.772551945247499 0.4832771367024313 -0.41183334133482274
vn -0.772551945247499 0.4832771367024313 -0.41183334133482274
vn -0.17873309103193558 0.9824459901746928 -0.05342619731777136
vn -0.17873309103193558 0.9824459901746928 -0.05342619731777136
vn -0.17873309103193558 0.9824459901746928 -0.05342619731777136
vn -0.39479892861607674 0.6684145232447491 0.6303616668858382
vn -0.39479892861607674 0.6684145232447491 0.6303616668858382
vn -0.39479892861607674 0.6684145232447491 0.6303616668858382
vn -0.3063600114850968 0.9329047359970135 0.18929420729962562
vn -0.3063600114850968 0.9329047359970135 0.18929420729962562
vn -0.3063600114850968 0.9329047359970135 0.18929420729962562
vn -0.3413906597171857 0.9177894333429463 0.20276827538325184
vn -0.3413906597171857 0.9177894333429463 0.20276827538325184
vn -0.3413906597171857 0.9177894333429463 0.20276827538325184
vn -0.7334343729200338 0.5084319667885152 0.451188381684368
vn -0.7334343729200338 0.5084319667885152 0.451188381684368
vn -0.7334343729200338 0.5084319667885152 0.451188381684368
vn -0.7482316088601761 0.662883238994337 0.02711588027133015
vn -0.7482316088601761 0.662883238994337 0.02711588027133015
vn -0.7482316088601761 0.662883238994337 0.02711588027133015
vn -0.6597884921189913 0.7514286668936189 0.005839883374417762
vn -0.6597884921189913 0.7514286668936189 0.005839883374417762
vn -0.6597884921189913 0.7514286668936189 0.005839883374417762
vn 0.020906557814292796 0.49860732683733594 0.8665758186474417
vn 0.020906557814292796 0.49860732683733594 0.8665758186474417
vn 0.020906557814292796 0.49860732683733594 0.8665758186474417
vn 0.044932712999196024 0.721830505399858 0.6906097108908312
vn 0.044932712999196024 0.721830505399858 0.6906097108908312
vn 0.044932712999196024 0.721830505399858 0.6906097108908312
vn 0.031229849709517865 0.47864779530714957 0.8774514143442507
vn 0.031229849709517865 0.47864779530714957 0.8774514143442507
vn 0.031229849709517865 0.47864779530714957 0.8774514143442507
vn 0.06633824289320377 0.9878502755117938 0.14053850255753772
vn 0.06633824289320377 0.9878502755117938 0.14053850255753772
vn 0.06633824289320377 0.9878502755117938 0.14053850255753772
vn 0.03446954162644381 0.7492060166162887 0.6614394873047845
vn 0.03446954162644381 0.7492060166162887 0.6614394873047845
vn 0.03446954162644381 0.7492060166162887 0.6614394873047845
vn 0.04457116088575913 0.9249904075959867 0.3773674038290883
vn 0.04457116088575913 0.9249904075959867 0.3773674038290883
vn 0.04457116088575913 0.9249904075959867 0.3773674038290883
vn 0.037825460370438886 0.9959676570387787 0.0813490054054153
vn 0.037825460370438886 0.9959676570387787 0.0813490054054153
vn 0.037825460370438886 0.9959676570387787 0.0813490054054153
vn -0.005832730861107261 0.6538658815088676 0.7565879910818921
vn -0.005832730861107261 0.6538658815088676 0.7565879910818921
vn -0.005832730861107261 0.6538658815088676 0.7565879910818921
vn 0.02406935575506828 0.4799487283657951 0.8769662959621608
vn 0.02406935575506828 0.4799487283657951 0.8769662959621608
vn 0.02406935575506828 0.4799487283657951 0.8769662959621608
vn 0.04674452166254777 0.9298033705393411 0.36507621372560045
vn 0.04674452166254777 0.9298033705393411 0.36507621372560045
vn 0.04674452166254777 0.9298033705393411 0.36507621372560045
vn 0.03353785747705243 0.959937698631627 0.2781992574786359
vn 0.03353785747705243 0.959937698631627 0.2781992574786359
vn 0.03353785747705243 0.959937698631627 0.2781992574786359
vn 0.483431326842002 0.30216070233224873 0.8215796140325436
vn 0.483431326842002 0.30216070233224873 0.8215796140325436
vn 0.483431326842002 0.30216070233224873 0.8215796140325436
vn 0.4643952896298788 0.7270792204580487 0.5056607777430412
vn 0.4643952896298788 0.7270792204580487 0.5056607777430412
vn 0.4643952896298788 0.7270792204580487 0.5056607777430412
vn 0.8462047992173093 0.386579296674921 -0.3667340796325269
vn 0.8462047992173093 0.386579296674921 -0.3667340796325269
vn 0.8462047992173093 0.386579296674921 -0.3667340796325269
vn 0.7480775616429206 0.4716633794828158 -0.4668121873100911
vn 0.7480775616429206 0.4716633794828158 -0.4668121873100911
vn 0.7480775616429206 0.4716633794828158 -0.4668121873100911
vn 0.5949261279893724 0.782542300324013 -0.1835495857777279
vn 0.5949261279893724 0.782542300324013 -0.1835495857777279
vn 0.5949261279893724 0.782542300324013 -0.1835495857777279
vn 0.47519140756919664 0.8786902898218744 0.04578756103087508
vn 0.47519140756919664 0.8786902898218744 0.04578756103087508
vn 0.47519140756919664 0.8786902898218744 0.04578756103087508
vn 0.5573200549533381 0.7595532490271973 -0.3353702703565664
vn 0.5573200549533381 0.7595532490271973 -0.3353702703565664
vn 0.5573200549533381 0.7595532490271973 -0.3353702703565664
vn 0.2517596814626935 0.9677890667458882 0.0011768929117836609
vn 0.2517596814626935 0.9677890667458882 0.0011768929117836609
vn 0.2517596814626935 0.9677890667458882 0.0011768929117836609
vn 0.7250126850847978 0.37958429575602287 0.5746932824398907
vn 0.7250126850847978 0.37958429575602287 0.5746932824398907
vn 0.7250126850847978 0.37958429575602287 0.5746932824398907
vn 0.5861156944994984 0.5081378614790789 0.6310818539562354
vn 0.5861156944994984 0.5081378614790789 0.6310818539562354
vn 0.5861156944994984 0.5081378614790789 0.6310818539562354
vn 0.13485829918430875 0.910597946500704 -0.3906720094527075
vn 0.13485829918430875 0.910597946500704 -0.3906720094527075
vn 0.13485829918430875 0.910597946500704 -0.3906720094527075
vn 0.3617205858394234 0.7634405964327666 0.5350856693076034
vn 0.3617205858394234 0.7634405964327666 0.5350856693076034
vn 0.3617205858394234 0.7634405964327666 0.5350856693076034
vn 0.8495148322815421 0.5046429576164709 -0.15381818833208216
vn 0.8495148322815421 0.5046429576164709 -0.15381818833208216
vn 0.8495148322815421 0.5046429576164709 -0.15381818833208216
vn 0.5617842278438939 0.7772593179212751 0.2833133142836641
vn 0.5617842278438939 0.7772593179212751 0.2833133142836641
vn 0.5617842278438939 0.7772593179212751 0.2833133142836641
vn 0.6186270817672369 0.3821469013479612 -0.686486911378727
vn 0.6186270817672369 0.3821469013479612 -0.686486911378727
vn 0.6186270817672369 0.3821469013479612 -0.686486911378727
vn 0.9135361436334228 0.3870553724221691 0.1250593977056904
vn 0.9135361436334228 0.3870553724221691 0.1250593977056904
vn 0.9135361436334228 0.3870553724221691 0.1250593977056904
vn 0.8254604337322998 0.5003749130776344 0.2612279056782283
vn 0.8254604337322998 0.5003749130776344 0.2612279056782283
vn 0.8254604337322998 0.5003749130776344 0.2612279056782283
vn 0.32613310940187645 0.4955708494274509 -0.805013495631979
vn 0.32613310940187645 0.4955708494274509 -0.805013495631979
vn 0.32613310940187645 0.4955708494274509 -0.805013495631979
vn 0.3877544615526424 0.5274912002500473 -0.7559097242427728
vn 0.3877544615526424 0.5274912002500473 -0.7559097242427728
vn 0.3877544615526424 0.5274912002500473 -0.7559097242427728
vn 0.38176328099806733 0.7935061487199014 -0.47392487719605975
vn 0.38176328099806733 0.7935061487199014 -0.47392487719605975
vn 0.38176328099806733 0.7935061487199014 -0.47392487719605975
f 1//1 2//2 3//3
f 4//4 5//5 6//6
f 7//7 8//8 9//9
f 10//10 11//11 12//12
f 13//13 14//14 15//15
f 16//16 17//17 18//18
f 19//19 20//20 21//21
f 22//22 23//23 24//24
f 25//25 26//26 27//27
f 28//28 29//29 30//30
f 31//31 32//32 33//33
f 34//34 35//35 36//36
f 37//37 38//38 39//39
f 40//40 41//41 42//42
f 43//43 44//44 45//45
f 46//46 47//47 48//48
f 49//49 50//50 51//51
f 52//52 53//53 54//54
f 55//55 56//56 57//57
f 58//58 59//59 60//60
f 61//61 62//62 63//63
f 64//64 65//65 66//66
f 67//67 68//68 69//69
f 70//70 71//71 72//72
f 73//73 74//74 75//75
f 76//76 77//77 78//78
f 79//79 80//80 81//81
f 82//82 83//83 84//84
f 85//85 86//86 87//87
f 88//88 89//89 90//90
f 91//91 92//92 93//93
f 94//94 95//95 96//96
f 97//97 98//98 99//99
f 100//100 101//101 102//102
f 103//103 104//104 105//105
f 106//106 107//107 108//108
f 109//109 110//110 111//111
f 112//112 113//113 114//114
f 115//115 116//116 117//117
f 118//118 119//119 120//120
f 121//121 122//122 123//123
f 124//124 125//125 126//126
f 127//127 128//128 129//129
f 130//130 131//131 132//132
f 133//133 134//134 135//135
f 136//136 137//137 138//138
f 139//139 140//140 141//141
f 142//142 143//143 144//144
f 145//145 146//146 147//147
f 148//148 149//149 150//150
f 151//151 152//152 153//153
f 154//154 155//155 156//156
f 157//157 158//158 159//159
f 160//160 161//161 162//162
f 163//163 164//164 165//165
f 166//166 167//167 168//168
f 169//169 170//170 171//171
