o node6
usemtl Shell001_001
v -0.06125723943114281 0.05766332149505615 0.04569995030760765
v -0.06065963953733444 0.05773930996656418 0.04775099828839302
v -0.060297008603811264 0.05782394856214523 0.04592406004667282
v -0.06065963953733444 0.05773930996656418 0.04775099828839302
v -0.05920296162366867 0.05800122022628784 0.04684333875775337
v -0.060297008603811264 0.05782394856214523 0.04592406004667282
v -0.06065963953733444 0.05773930996656418 0.04775099828839302
v -0.0591278001666069 0.05804907903075218 0.04870063066482544
v -0.05968451127409935 0.05792706832289696 0.04784679040312767
v -0.05968451127409935 0.05792706832289696 0.04784679040312767
v -0.0591278001666069 0.05804907903075218 0.04870063066482544
v -0.05920296162366867 0.05800122022628784 0.04684333875775337
v -0.05920296162366867 0.05800122022628784 0.04684333875775337
v -0.0591278001666069 0.05804907903075218 0.04870063066482544
v -0.058786921203136444 0.05804795026779175 0.04569995030760765
v -0.060297008603811264 0.05782394856214523 0.04592406004667282
v -0.058786921203136444 0.05804795026779175 0.04569995030760765
v -0.06125723943114281 0.05766332149505615 0.04569995030760765
v -0.05920296162366867 0.05800122022628784 0.04684333875775337
v -0.058786921203136444 0.05804795026779175 0.04569995030760765
v -0.060297008603811264 0.05782394856214523 0.04592406004667282
v -0.06065963953733444 0.05773930996656418 0.04775099828839302
v -0.05968451127409935 0.05792706832289696 0.04784679040312767
v -0.05920296162366867 0.05800122022628784 0.04684333875775337
v -0.06735098361968994 0.05676424130797386 0.04523688182234764
v -0.0713767409324646 0.05605870112776756 0.03469657152891159
v -0.07160872220993042 0.05601567029953003 0.03762418031692505
v -0.06735098361968994 0.05676424130797386 0.04523688182234764
v -0.07160872220993042 0.05601567029953003 0.03762418031692505
v -0.07094275206327438 0.056125640869140625 0.04099160060286522
v -0.052791889756917953 0.05905758962035179 0.028797680512070656
v -0.050213150680065155 0.059497348964214325 0.03071998991072178
v -0.053407251834869385 0.058993931859731674 0.027423910796642303
v -0.05673031881451607 0.05849248170852661 0.027300000190734863
v -0.053407251834869385 0.058993931859731674 0.027423910796642303
v -0.05674545839428902 0.058418210595846176 0.02569698914885521
v -0.05670166015625 0.05831563100218773 0.028855619952082634
v -0.053407251834869385 0.058993931859731674 0.027423910796642303
v -0.05673031881451607 0.05849248170852661 0.027300000190734863
v -0.05670166015625 0.05831563100218773 0.028855619952082634
v -0.052791889756917953 0.05905758962035179 0.028797680512070656
v -0.053407251834869385 0.058993931859731674 0.027423910796642303
v -0.06334661692380905 0.05742083862423897 0.027300000190734863
v -0.060719601809978485 0.05780249089002609 0.025289829820394516
v -0.0641775131225586 0.05721563100814819 0.026011280715465546
v -0.0641775131225586 0.05721563100814819 0.026011280715465546
v -0.06331794708967209 0.057244058698415756 0.028855619952082634
v -0.06334661692380905 0.05742083862423897 0.027300000190734863
v -0.06789790838956833 0.0566214881837368 0.028312619775533676
v -0.06331794708967209 0.057244058698415756 0.028855619952082634
v -0.0641775131225586 0.05721563100814819 0.026011280715465546
v -0.06726866215467453 0.05671525001525879 0.028798749670386314
v -0.06331794708967209 0.057244058698415756 0.028855619952082634
v -0.06789790838956833 0.0566214881837368 0.028312619775533676
v -0.052727460861206055 0.05913347005844116 0.04523884877562523
v -0.05213660001754761 0.05916440114378929 0.045699410140514374
v -0.049480609595775604 0.059602849185466766 0.041899558156728745
v -0.07042545080184937 0.05622737854719162 0.031848009675741196
v -0.06726866215467453 0.05671525001525879 0.028798749670386314
v -0.06789790838956833 0.0566214881837368 0.028312619775533676
v -0.058786921203136444 0.05804795026779175 0.04569995030760765
v -0.05213660001754761 0.05916440114378929 0.045699410140514374
v -0.052727460861206055 0.05913347005844116 0.04523884877562523
v -0.058786921203136444 0.05804795026779175 0.04569995030760765
v -0.055874161422252655 0.058365460485219955 0.04817986115813255
v -0.05213660001754761 0.05916440114378929 0.045699410140514374
v -0.0591278001666069 0.05804907903075218 0.04870063066482544
v -0.055874161422252655 0.058365460485219955 0.04817986115813255
v -0.058786921203136444 0.05804795026779175 0.04569995030760765
v -0.06361991167068481 0.057321421802043915 0.04816722124814987
v -0.0591278001666069 0.05804907903075218 0.04870063066482544
v -0.06065963953733444 0.05773930996656418 0.04775099828839302
v -0.06361991167068481 0.057321421802043915 0.04816722124814987
v -0.06065963953733444 0.05773930996656418 0.04775099828839302
v -0.06125723943114281 0.05766332149505615 0.04569995030760765
v -0.06667488068342209 0.05684477090835571 0.04656362161040306
v -0.06361991167068481 0.057321421802043915 0.04816722124814987
v -0.06125723943114281 0.05766332149505615 0.04569995030760765
v -0.06667488068342209 0.05684477090835571 0.04656362161040306
v -0.06125723943114281 0.05766332149505615 0.04569995030760765
v -0.06735098361968994 0.05676424130797386 0.04523688182234764
v -0.06937377899885178 0.05639028176665306 0.043924618512392044
v -0.06735098361968994 0.05676424130797386 0.04523688182234764
v -0.07094275206327438 0.056125640869140625 0.04099160060286522
v -0.06937377899885178 0.05639028176665306 0.043924618512392044
v -0.06667488068342209 0.05684477090835571 0.04656362161040306
v -0.06735098361968994 0.05676424130797386 0.04523688182234764
v -0.06334661692380905 0.05742083862423897 0.027300000190734863
v -0.05673031881451607 0.05849248170852661 0.027300000190734863
v -0.05674545839428902 0.058418210595846176 0.02569698914885521
v -0.06334661692380905 0.05742083862423897 0.027300000190734863
v -0.05674545839428902 0.058418210595846176 0.02569698914885521
v -0.060719601809978485 0.05780249089002609 0.025289829820394516
v -0.052791889756917953 0.05905758962035179 0.028797680512070656
v -0.052727460861206055 0.05913347005844116 0.04523884877562523
v -0.050213150680065155 0.059497348964214325 0.03071998991072178
v -0.050213150680065155 0.059497348964214325 0.03071998991072178
v -0.052727460861206055 0.05913347005844116 0.04523884877562523
v -0.04886161908507347 0.05949531868100166 0.03314315900206566
v -0.04886161908507347 0.05949531868100166 0.03314315900206566
v -0.052727460861206055 0.05913347005844116 0.04523884877562523
v -0.04847437143325806 0.05977505072951317 0.036260899156332016
v -0.04847437143325806 0.05977505072951317 0.036260899156332016
v -0.052727460861206055 0.05913347005844116 0.04523884877562523
v -0.04857558012008667 0.05973881110548973 0.038816630840301514
v -0.04857558012008667 0.05973881110548973 0.038816630840301514
v -0.052727460861206055 0.05913347005844116 0.04523884877562523
v -0.049480609595775604 0.059602849185466766 0.041899558156728745
v -0.052727460861206055 0.05913347005844116 0.04523884877562523
v -0.06735098361968994 0.05676424130797386 0.04523688182234764
v -0.06125723943114281 0.05766332149505615 0.04569995030760765
v -0.052727460861206055 0.05913347005844116 0.04523884877562523
v -0.06125723943114281 0.05766332149505615 0.04569995030760765
v -0.058786921203136444 0.05804795026779175 0.04569995030760765
v -0.06735098361968994 0.05676424130797386 0.04523688182234764
v -0.06726866215467453 0.05671525001525879 0.028798749670386314
v -0.07042545080184937 0.05622737854719162 0.031848009675741196
v -0.06735098361968994 0.05676424130797386 0.04523688182234764
v -0.07042545080184937 0.05622737854719162 0.031848009675741196
v -0.0713767409324646 0.05605870112776756 0.03469657152891159
v -0.053407251834869385 0.058993931859731674 0.027423910796642303
v -0.05265146121382713 0.05885434150695801 0.02763550914824009
v -0.05674545839428902 0.058418210595846176 0.02569698914885521
v -0.06497453898191452 0.05686593055725098 0.02609162963926792
v -0.0641775131225586 0.05721563100814819 0.026011280715465546
v -0.060719601809978485 0.05780249089002609 0.025289829820394516
v -0.06789790838956833 0.0566214881837368 0.028312619775533676
v -0.0641775131225586 0.05721563100814819 0.026011280715465546
v -0.06497453898191452 0.05686593055725098 0.02609162963926792
v -0.06953500956296921 0.05611829832196236 0.030161259695887566
v -0.07042545080184937 0.05622737854719162 0.031848009675741196
v -0.06789790838956833 0.0566214881837368 0.028312619775533676
v -0.050213150680065155 0.059497348964214325 0.03071998991072178
v -0.04886161908507347 0.05949531868100166 0.03314315900206566
v -0.05265146121382713 0.05885434150695801 0.02763550914824009
v -0.07042545080184937 0.05622737854719162 0.031848009675741196
v -0.07141374796628952 0.055815570056438446 0.034086938947439194
v -0.0713767409324646 0.05605870112776756 0.03469657152891159
v -0.07160872220993042 0.05601567029953003 0.03762418031692505
v -0.07141374796628952 0.055815570056438446 0.034086938947439194
v -0.07128267735242844 0.05583750829100609 0.04061758145689964
v -0.05674545839428902 0.058418210595846176 0.02569698914885521
v -0.05265146121382713 0.05885434150695801 0.02763550914824009
v -0.05845654010772705 0.05791174992918968 0.02522009052336216
v -0.05845654010772705 0.05791174992918968 0.02522009052336216
v -0.060719601809978485 0.05780249089002609 0.025289829820394516
v -0.05674545839428902 0.058418210595846176 0.02569698914885521
v -0.060719601809978485 0.05780249089002609 0.025289829820394516
v -0.05845654010772705 0.05791174992918968 0.02522009052336216
v -0.06497453898191452 0.05686593055725098 0.02609162963926792
v -0.05265146121382713 0.05885434150695801 0.02763550914824009
v -0.053407251834869385 0.058993931859731674 0.027423910796642303
v -0.050213150680065155 0.059497348964214325 0.03071998991072178
v -0.06789790838956833 0.0566214881837368 0.028312619775533676
v -0.06497453898191452 0.05686593055725098 0.02609162963926792
v -0.06953500956296921 0.05611829832196236 0.030161259695887566
v -0.07042545080184937 0.05622737854719162 0.031848009675741196
v -0.06953500956296921 0.05611829832196236 0.030161259695887566
v -0.07141374796628952 0.055815570056438446 0.034086938947439194
v -0.07141374796628952 0.055815570056438446 0.034086938947439194
v -0.07160872220993042 0.05601567029953003 0.03762418031692505
v -0.0713767409324646 0.05605870112776756 0.03469657152891159
v -0.04886161908507347 0.05949531868100166 0.03314315900206566
v -0.04847437143325806 0.05977505072951317 0.036260899156332016
v -0.048288218677043915 0.05956041067838669 0.03591626137495041
v -0.06667488068342209 0.05684477090835571 0.04656362161040306
v -0.0673285722732544 0.056476891040802 0.04636693000793457
v -0.06361991167068481 0.057321421802043915 0.04816722124814987
v -0.05213660001754761 0.05916440114378929 0.045699410140514374
v -0.055874161422252655 0.058365460485219955 0.04817986115813255
v -0.05283087119460106 0.058820899575948715 0.046421341598033905
v -0.04947768896818161 0.05936139076948166 0.0424727201461792
v -0.049480609595775604 0.059602849185466766 0.041899558156728745
v -0.05213660001754761 0.05916440114378929 0.045699410140514374
v -0.06937377899885178 0.05639028176665306 0.043924618512392044
v -0.07128267735242844 0.05583750829100609 0.04061758145689964
v -0.0673285722732544 0.056476891040802 0.04636693000793457
v -0.04857558012008667 0.05973881110548973 0.038816630840301514
v -0.04947768896818161 0.05936139076948166 0.0424727201461792
v -0.048288218677043915 0.05956041067838669 0.03591626137495041
v -0.04847437143325806 0.05977505072951317 0.036260899156332016
v -0.04857558012008667 0.05973881110548973 0.038816630840301514
v -0.048288218677043915 0.05956041067838669 0.03591626137495041
v -0.06361991167068481 0.057321421802043915 0.04816722124814987
v -0.0673285722732544 0.056476891040802 0.04636693000793457
v -0.061357609927654266 0.05744235962629318 0.04878013953566551
v -0.0591278001666069 0.05804907903075218 0.04870063066482544
v -0.061357609927654266 0.05744235962629318 0.04878013953566551
v -0.055874161422252655 0.058365460485219955 0.04817986115813255
v -0.06937377899885178 0.05639028176665306 0.043924618512392044
v -0.07094275206327438 0.056125640869140625 0.04099160060286522
v -0.07128267735242844 0.05583750829100609 0.04061758145689964
v -0.0673285722732544 0.056476891040802 0.04636693000793457
v -0.06667488068342209 0.05684477090835571 0.04656362161040306
v -0.06937377899885178 0.05639028176665306 0.043924618512392044
v -0.05213660001754761 0.05916440114378929 0.045699410140514374
v -0.05283087119460106 0.058820899575948715 0.046421341598033905
v -0.04947768896818161 0.05936139076948166 0.0424727201461792
v -0.061357609927654266 0.05744235962629318 0.04878013953566551
v -0.0591278001666069 0.05804907903075218 0.04870063066482544
v -0.06361991167068481 0.057321421802043915 0.04816722124814987
v -0.049480609595775604 0.059602849185466766 0.041899558156728745
v -0.04947768896818161 0.05936139076948166 0.0424727201461792
v -0.04857558012008667 0.05973881110548973 0.038816630840301514
v -0.07094275206327438 0.056125640869140625 0.04099160060286522
v -0.07160872220993042 0.05601567029953003 0.03762418031692505
v -0.07128267735242844 0.05583750829100609 0.04061758145689964
vn -0.16783709438575123 0.985737420328574 0.012346979878363367
vn -0.16783709438575123 0.985737420328574 0.012346979878363367
vn -0.16783709438575123 0.985737420328574 0.012346979878363367
vn -0.16968299872686407 0.9854259737316766 0.011972060726363256
vn -0.16968299872686407 0.9854259737316766 0.011972060726363256
vn -0.16968299872686407 0.9854259737316766 0.011972060726363256
vn -0.18724080757717163 0.9821442280408184 -0.018264591535363722
vn -0.18724080757717163 0.9821442280408184 -0.018264591535363722
vn -0.18724080757717163 0.9821442280408184 -0.018264591535363722
vn -0.18809990353558062 0.9819905637156088 -0.017690649038581637
vn -0.18809990353558062 0.9819905637156088 -0.017690649038581637
vn -0.18809990353558062 0.9819905637156088 -0.017690649038581637
vn -0.16259079785398978 0.9865136508274867 -0.018842748850065382
vn -0.16259079785398978 0.9865136508274867 -0.018842748850065382
vn -0.16259079785398978 0.9865136508274867 -0.018842748850065382
vn -0.1536604927640312 0.9868995057550949 -0.049171317898389175
vn -0.1536604927640312 0.9868995057550949 -0.049171317898389175
vn -0.1536604927640312 0.9868995057550949 -0.049171317898389175
vn -0.14867399319627425 0.9887915045269442 -0.013689569840434972
vn -0.14867399319627425 0.9887915045269442 -0.013689569840434972
vn -0.14867399319627425 0.9887915045269442 -0.013689569840434972
vn -0.1873369662920175 0.9821431035345014 -0.01731430738209059
vn -0.1873369662920175 0.9821431035345014 -0.01731430738209059
vn -0.1873369662920175 0.9821431035345014 -0.01731430738209059
vn -0.17430500478247538 0.9846914889177854 0.0006610299963814997
vn -0.17430500478247538 0.9846914889177854 0.0006610299963814997
vn -0.17430500478247538 0.9846914889177854 0.0006610299963814997
vn -0.1787327856520022 0.9838923979792692 0.003215669709178263
vn -0.1787327856520022 0.9838923979792692 0.003215669709178263
vn -0.1787327856520022 0.9838923979792692 0.003215669709178263
vn -0.19988188251734326 0.978823547697078 0.04417799808761233
vn -0.19988188251734326 0.978823547697078 0.04417799808761233
vn -0.19988188251734326 0.978823547697078 0.04417799808761233
vn -0.14744117587285033 0.9880742250590908 -0.044389474327909476
vn -0.14744117587285033 0.9880742250590908 -0.044389474327909476
vn -0.14744117587285033 0.9880742250590908 -0.044389474327909476
vn -0.1523994016259715 0.9816738691871832 0.1144151954030183
vn -0.1523994016259715 0.9816738691871832 0.1144151954030183
vn -0.1523994016259715 0.9816738691871832 0.1144151954030183
vn -0.1857686800008093 0.981869465581638 0.03771405691762257
vn -0.1857686800008093 0.981869465581638 0.03771405691762257
vn -0.1857686800008093 0.981869465581638 0.03771405691762257
vn -0.17594148463012244 0.9834518569217409 -0.0432092478912591
vn -0.17594148463012244 0.9834518569217409 -0.0432092478912591
vn -0.17594148463012244 0.9834518569217409 -0.0432092478912591
vn -0.3970480050648599 0.9110755520413186 0.11087930441079379
vn -0.3970480050648599 0.9110755520413186 0.11087930441079379
vn -0.3970480050648599 0.9110755520413186 0.11087930441079379
vn -0.13834038666824647 0.9898703305813317 0.03191654823575011
vn -0.13834038666824647 0.9898703305813317 0.03191654823575011
vn -0.13834038666824647 0.9898703305813317 0.03191654823575011
vn -0.132348405369622 0.991003051736801 -0.019921120562494985
vn -0.132348405369622 0.991003051736801 -0.019921120562494985
vn -0.132348405369622 0.991003051736801 -0.019921120562494985
vn -0.09156415868215396 0.994504062401178 0.05077080570941682
vn -0.09156415868215396 0.994504062401178 0.05077080570941682
vn -0.09156415868215396 0.994504062401178 0.05077080570941682
vn -0.14980100361685966 0.988711315095811 0.003097534001945013
vn -0.14980100361685966 0.988711315095811 0.003097534001945013
vn -0.14980100361685966 0.988711315095811 0.003097534001945013
vn -0.16380688291870002 0.975825354094718 0.14467958879668305
vn -0.16380688291870002 0.975825354094718 0.14467958879668305
vn -0.16380688291870002 0.975825354094718 0.14467958879668305
vn -0.16517409294876662 0.983915365507512 0.06802993853276094
vn -0.16517409294876662 0.983915365507512 0.06802993853276094
vn -0.16517409294876662 0.983915365507512 0.06802993853276094
vn -0.09861176265989234 0.99505863606282 -0.011577178495186243
vn -0.09861176265989234 0.99505863606282 -0.011577178495186243
vn -0.09861176265989234 0.99505863606282 -0.011577178495186243
vn -0.1502355784205162 0.9854842424572315 -0.07905744016314592
vn -0.1502355784205162 0.9854842424572315 -0.07905744016314592
vn -0.1502355784205162 0.9854842424572315 -0.07905744016314592
vn -0.13925038607394075 0.9902497168105557 0.0038507577011132987
vn -0.13925038607394075 0.9902497168105557 0.0038507577011132987
vn -0.13925038607394075 0.9902497168105557 0.0038507577011132987
vn -0.15050559846810962 0.9885832411730249 -0.007158219163547329
vn -0.15050559846810962 0.9885832411730249 -0.007158219163547329
vn -0.15050559846810962 0.9885832411730249 -0.007158219163547329
vn -0.14705309665655644 0.9890162017582892 0.014911050376298354
vn -0.14705309665655644 0.9890162017582892 0.014911050376298354
vn -0.14705309665655644 0.9890162017582892 0.014911050376298354
vn -0.1899442925223966 0.9817083838709523 0.013031299844954476
vn -0.1899442925223966 0.9817083838709523 0.013031299844954476
vn -0.1899442925223966 0.9817083838709523 0.013031299844954476
vn -0.21214089060318866 0.9760167719610069 0.04886208535154788
vn -0.21214089060318866 0.9760167719610069 0.04886208535154788
vn -0.21214089060318866 0.9760167719610069 0.04886208535154788
vn -0.15972340373821187 0.9861725137489192 -0.04418379142194481
vn -0.15972340373821187 0.9861725137489192 -0.04418379142194481
vn -0.15972340373821187 0.9861725137489192 -0.04418379142194481
vn -0.15198298121084297 0.9883222193594409 -0.010971059324153794
vn -0.15198298121084297 0.9883222193594409 -0.010971059324153794
vn -0.15198298121084297 0.9883222193594409 -0.010971059324153794
vn -0.16529978937172718 0.9862356260750055 -0.003907620005158838
vn -0.16529978937172718 0.9862356260750055 -0.003907620005158838
vn -0.16529978937172718 0.9862356260750055 -0.003907620005158838
vn -0.03311793853708297 0.9992648883829507 0.019310230243665762
vn -0.03311793853708297 0.9992648883829507 0.019310230243665762
vn -0.03311793853708297 0.9992648883829507 0.019310230243665762
vn -0.2598581041175876 0.9641240332314457 -0.054208986985027754
vn -0.2598581041175876 0.9641240332314457 -0.054208986985027754
vn -0.2598581041175876 0.9641240332314457 -0.054208986985027754
vn -0.1307972065389803 0.9913694200617021 0.008874893133073861
vn -0.1307972065389803 0.9913694200617021 0.008874893133073861
vn -0.1307972065389803 0.9913694200617021 0.008874893133073861
vn -0.1407397998420779 0.9900438876737916 0.0023257730277259133
vn -0.1407397998420779 0.9900438876737916 0.0023257730277259133
vn -0.1407397998420779 0.9900438876737916 0.0023257730277259133
vn -0.15719300394187466 0.9700602222471174 0.18513110145408496
vn -0.15719300394187466 0.9700602222471174 0.18513110145408496
vn -0.15719300394187466 0.9700602222471174 0.18513110145408496
vn -0.14718678750685424 0.9452687602768529 0.2912095816213363
vn -0.14718678750685424 0.9452687602768529 0.2912095816213363
vn -0.14718678750685424 0.9452687602768529 0.2912095816213363
vn -0.15624070599202491 0.9877119933262044 -0.0037229062155271523
vn -0.15624070599202491 0.9877119933262044 -0.0037229062155271523
vn -0.15624070599202491 0.9877119933262044 -0.0037229062155271523
vn -0.173570783182219 0.9848213265932132 0.0003713659852180604
vn -0.173570783182219 0.9848213265932132 0.0003713659852180604
vn -0.173570783182219 0.9848213265932132 0.0003713659852180604
vn 0.31793576958252606 0.524905451104582 -0.7895512103851544
vn 0.31793576958252606 0.524905451104582 -0.7895512103851544
vn 0.31793576958252606 0.524905451104582 -0.7895512103851544
vn -0.2487764888804854 0.3606192970316445 -0.8989237905343814
vn -0.2487764888804854 0.3606192970316445 -0.8989237905343814
vn -0.2487764888804854 0.3606192970316445 -0.8989237905343814
vn -0.3981507833740229 0.8075191612192771 -0.43518818683687543
vn -0.3981507833740229 0.8075191612192771 -0.43518818683687543
vn -0.3981507833740229 0.8075191612192771 -0.43518818683687543
vn -0.6345608619765264 0.6738123670018819 -0.37856228882831017
vn -0.6345608619765264 0.6738123670018819 -0.37856228882831017
vn -0.6345608619765264 0.6738123670018819 -0.37856228882831017
vn 0.6264502367339847 -0.696456845263621 -0.35001137635993934
vn 0.6264502367339847 -0.696456845263621 -0.35001137635993934
vn 0.6264502367339847 -0.696456845263621 -0.35001137635993934
vn -0.7406687471705834 0.6383636961636026 -0.20952708270078627
vn -0.7406687471705834 0.6383636961636026 -0.20952708270078627
vn -0.7406687471705834 0.6383636961636026 -0.20952708270078627
vn -0.5775340129288622 -0.8162408967964386 0.01432697830075407
vn -0.5775340129288622 -0.8162408967964386 0.01432697830075407
vn -0.5775340129288622 -0.8162408967964386 0.01432697830075407
vn 0.37659398470621963 -0.6640439761683514 -0.6459276804702038
vn 0.37659398470621963 -0.6640439761683514 -0.6459276804702038
vn 0.37659398470621963 -0.6640439761683514 -0.6459276804702038
vn -0.056833494263991584 0.7794589374146862 -0.6238699534471213
vn -0.056833494263991584 0.7794589374146862 -0.6238699534471213
vn -0.056833494263991584 0.7794589374146862 -0.6238699534471213
vn 0.009901164835112006 -0.6758845910891653 -0.7369409653853826
vn 0.009901164835112006 -0.6758845910891653 -0.7369409653853826
vn 0.009901164835112006 -0.6758845910891653 -0.7369409653853826
vn 0.27324780677384736 0.8755130125503664 -0.39851298717640815
vn 0.27324780677384736 0.8755130125503664 -0.39851298717640815
vn 0.27324780677384736 0.8755130125503664 -0.39851298717640815
vn -0.30647089419263823 -0.814253789582033 -0.49301760330039246
vn -0.30647089419263823 -0.814253789582033 -0.49301760330039246
vn -0.30647089419263823 -0.814253789582033 -0.49301760330039246
vn -0.852350593201548 -0.2965174021383387 -0.43078520923785185
vn -0.852350593201548 -0.2965174021383387 -0.43078520923785185
vn -0.852350593201548 -0.2965174021383387 -0.43078520923785185
vn -0.9448561639592722 0.3198790838503869 -0.07017265238827936
vn -0.9448561639592722 0.3198790838503869 -0.07017265238827936
vn -0.9448561639592722 0.3198790838503869 -0.07017265238827936
vn 0.6191135794568416 0.7715900726865059 -0.14610658939202492
vn 0.6191135794568416 0.7715900726865059 -0.14610658939202492
vn 0.6191135794568416 0.7715900726865059 -0.14610658939202492
vn -0.4717885566883428 0.4253817808470449 0.7723120472330643
vn -0.4717885566883428 0.4253817808470449 0.7723120472330643
vn -0.4717885566883428 0.4253817808470449 0.7723120472330643
vn 0.22031620591921536 0.7814986268319482 0.5837128280834176
vn 0.22031620591921536 0.7814986268319482 0.5837128280834176
vn 0.22031620591921536 0.7814986268319482 0.5837128280834176
vn 0.3719373104766156 0.8561266792846799 0.358761405522401
vn 0.3719373104766156 0.8561266792846799 0.358761405522401
vn 0.3719373104766156 0.8561266792846799 0.358761405522401
vn -0.41781549643146165 -0.825624386524237 0.3791761903366408
vn -0.41781549643146165 -0.825624386524237 0.3791761903366408
vn -0.41781549643146165 -0.825624386524237 0.3791761903366408
vn 0.7396326865991969 -0.6632763331085069 0.11405259686735371
vn 0.7396326865991969 -0.6632763331085069 0.11405259686735371
vn 0.7396326865991969 -0.6632763331085069 0.11405259686735371
vn 0.7856640907959561 0.6173672748555705 0.039869592061749136
vn 0.7856640907959561 0.6173672748555705 0.039869592061749136
vn 0.7856640907959561 0.6173672748555705 0.039869592061749136
vn -0.12825100253876545 -0.7697548944293751 0.625323182722201
vn -0.12825100253876545 -0.7697548944293751 0.625323182722201
vn -0.12825100253876545 -0.7697548944293751 0.625323182722201
vn 0.1836118714195262 -0.5698982527082471 0.800938613274392
vn 0.1836118714195262 -0.5698982527082471 0.800938613274392
vn 0.1836118714195262 -0.5698982527082471 0.800938613274392
vn -0.8064109956731618 0.44331057384183054 0.3913783861909686
vn -0.8064109956731618 0.44331057384183054 0.3913783861909686
vn -0.8064109956731618 0.44331057384183054 0.3913783861909686
vn -0.5376910980688591 0.7285237660900319 0.4244306837394078
vn -0.5376910980688591 0.7285237660900319 0.4244306837394078
vn -0.5376910980688591 0.7285237660900319 0.4244306837394078
vn 0.7546253391140669 -0.25035021328738144 0.6065190584589589
vn 0.7546253391140669 -0.25035021328738144 0.6065190584589589
vn 0.7546253391140669 -0.25035021328738144 0.6065190584589589
vn -0.19688668902065282 0.7982700489401626 0.5692104713122862
vn -0.19688668902065282 0.7982700489401626 0.5692104713122862
vn -0.19688668902065282 0.7982700489401626 0.5692104713122862
vn 0.7592067784033939 0.6011728100212557 0.24939190066537273
vn 0.7592067784033939 0.6011728100212557 0.24939190066537273
vn 0.7592067784033939 0.6011728100212557 0.24939190066537273
vn -0.7148753797011356 0.6890731853640097 0.11887529898786499
vn -0.7148753797011356 0.6890731853640097 0.11887529898786499
vn -0.7148753797011356 0.6890731853640097 0.11887529898786499
f 1//1 2//2 3//3
f 4//4 5//5 6//6
f 7//7 8//8 9//9
f 10//10 11//11 12//12
f 13//13 14//14 15//15
f 16//16 17//17 18//18
f 19//19 20//20 21//21
f 22//22 23//23 24//24
f 25//25 26//26 27//27
f 28//28 29//29 30//30
f 31//31 32//32 33//33
f 34//34 35//35 36//36
f 37//37 38//38 39//39
f 40//40 41//41 42//42
f 43//43 44//44 45//45
f 46//46 47//47 48//48
f 49//49 50//50 51//51
f 52//52 53//53 54//54
f 55//55 56//56 57//57
f 58//58 59//59 60//60
f 61//61 62//62 63//63
f 64//64 65//65 66//66
f 67//67 68//68 69//69
f 70//70 71//71 72//72
f 73//73 74//74 75//75
f 76//76 77//77 78//78
f 79//79 80//80 81//81
f 82//82 83//83 84//84
f 85//85 86//86 87//87
f 88//88 89//89 90//90
f 91//91 92//92 93//93
f 94//94 95//95 96//96
f 97//97 98//98 99//99
f 100//100 101//101 102//102
f 103//103 104//104 105//105
f 106//106 107//107 108//108
f 109//109 110//110 111//111
f 112//112 113//113 114//114
f 115//115 116//116 117//117
f 118//118 119//119 120//120
f 121//121 122//122 123//123
f 124//124 125//125 126//126
f 127//127 128//128 129//129
f 130//130 131//131 132//132
f 133//133 134//134 135//135
f 136//136 137//137 138//138
f 139//139 140//140 141//141
f 142//142 143//143 144//144
f 145//145 146//146 147//147
f 148//148 149//149 150//150
f 151//151 152//152 153//153
f 154//154 155//155 156//156
f 157//157 158//158 159//159
f 160//160 161//161 162//162
f 163//163 164//164 165//165
f 166//166 167//167 168//168
f 169//169 170//170 171//171
f 172//172 173//173 174//174
f 175//175 176//176 177//177
f 178//178 179//179 180//180
f 181//181 182//182 183//183
f 184//184 185//185 186//186
f 187//187 188//188 189//189
f 190//190 191//191 192//192
f 193//193 194//194 195//195
f 196//196 197//197 198//198
f 199//199 200//200 201//201
f 202//202 203//203 204//204
f 205//205 206//206 207//207
