o node11
usemtl Shell003_002_001_002_001
v 0.08743982762098312 0.07801944017410278 0.012085209600627422
v 0.08714132755994797 0.07758021354675293 0.010613990016281605
v 0.08720468729734421 0.07775431126356125 0.012031030841171741
v 0.08776473253965378 0.07819241285324097 0.011884880252182484
v 0.0874047800898552 0.07771532982587814 0.009241770021617413
v 0.08743982762098312 0.07801944017410278 0.012085209600627422
v 0.08743982762098312 0.07801944017410278 0.012085209600627422
v 0.0874047800898552 0.07771532982587814 0.009241770021617413
v 0.08714132755994797 0.07758021354675293 0.010613990016281605
v 0.08820556849241257 0.07822275161743164 0.011863780207931995
v 0.08773087710142136 0.07787585258483887 0.009315739385783672
v 0.08776473253965378 0.07819241285324097 0.011884880252182484
v 0.08776473253965378 0.07819241285324097 0.011884880252182484
v 0.08773087710142136 0.07787585258483887 0.009315739385783672
v 0.0874047800898552 0.07771532982587814 0.009241770021617413
v 0.08820556849241257 0.07822275161743164 0.011863780207931995
v 0.08802425116300583 0.07790017127990723 0.009217810817062855
v 0.08773087710142136 0.07787585258483887 0.009315739385783672
v 0.08713804930448532 0.07742226123809814 0.009362819604575634
v 0.08714132755994797 0.07758021354675293 0.010613990016281605
v 0.0874047800898552 0.07771532982587814 0.009241770021617413
v 0.08770918101072311 0.07763910293579102 0.008819290436804295
v 0.08802425116300583 0.07790017127990723 0.009217810817062855
v 0.08814220875501633 0.0776924416422844 0.008818450383841991
v 0.0874047800898552 0.07771532982587814 0.009241770021617413
v 0.08773087710142136 0.07787585258483887 0.009315739385783672
v 0.08770918101072311 0.07763910293579102 0.008819290436804295
v 0.08770918101072311 0.07763910293579102 0.008819290436804295
v 0.08773087710142136 0.07787585258483887 0.009315739385783672
v 0.08802425116300583 0.07790017127990723 0.009217810817062855
v 0.0890948697924614 0.0770692229270935 0.009253929369151592
v 0.08868426084518433 0.07747697085142136 0.008856120519340038
v 0.08890949934720993 0.07751929014921188 0.009258040226995945
v 0.08818458765745163 0.07714831084012985 0.008472449146211147
v 0.08868426084518433 0.07747697085142136 0.008856120519340038
v 0.0885344073176384 0.07708907127380371 0.00858320016413927
v 0.08868426084518433 0.07747697085142136 0.008856120519340038
v 0.08837269991636276 0.07784997671842575 0.00921763014048338
v 0.08890949934720993 0.07751929014921188 0.009258040226995945
v 0.08887553215026855 0.07705812901258469 0.008866620250046253
v 0.08868426084518433 0.07747697085142136 0.008856120519340038
v 0.0890948697924614 0.0770692229270935 0.009253929369151592
v 0.0885344073176384 0.07708907127380371 0.00858320016413927
v 0.08868426084518433 0.07747697085142136 0.008856120519340038
v 0.08887553215026855 0.07705812901258469 0.008866620250046253
v 0.08814220875501633 0.0776924416422844 0.008818450383841991
v 0.08802425116300583 0.07790017127990723 0.009217810817062855
v 0.08837269991636276 0.07784997671842575 0.00921763014048338
v 0.08868426084518433 0.07747697085142136 0.008856120519340038
v 0.08818458765745163 0.07714831084012985 0.008472449146211147
v 0.08814220875501633 0.0776924416422844 0.008818450383841991
v 0.08818458765745163 0.07714831084012985 0.008472449146211147
v 0.08770918101072311 0.07763910293579102 0.008819290436804295
v 0.08814220875501633 0.0776924416422844 0.008818450383841991
v 0.08733998984098434 0.07732491940259933 0.008854399435222149
v 0.08770918101072311 0.07763910293579102 0.008819290436804295
v 0.08780580013990402 0.07721024006605148 0.008538910187780857
v 0.08780580013990402 0.07721024006605148 0.008538910187780857
v 0.08770918101072311 0.07763910293579102 0.008819290436804295
v 0.08818458765745163 0.07714831084012985 0.008472449146211147
v 0.08868426084518433 0.07747697085142136 0.008856120519340038
v 0.08814220875501633 0.0776924416422844 0.008818450383841991
v 0.08837269991636276 0.07784997671842575 0.00921763014048338
v 0.08713804930448532 0.07742226123809814 0.009362819604575634
v 0.0874047800898552 0.07771532982587814 0.009241770021617413
v 0.08733998984098434 0.07732491940259933 0.008854399435222149
v 0.08733998984098434 0.07732491940259933 0.008854399435222149
v 0.0874047800898552 0.07771532982587814 0.009241770021617413
v 0.08770918101072311 0.07763910293579102 0.008819290436804295
v 0.08820556849241257 0.07822275161743164 0.011863780207931995
v 0.0886572003364563 0.0780908390879631 0.01194054912775755
v 0.08802425116300583 0.07790017127990723 0.009217810817062855
v 0.0890948697924614 0.0770692229270935 0.009253929369151592
v 0.08890949934720993 0.07751929014921188 0.009258040226995945
v 0.08915960043668747 0.0773782730102539 0.01186229009181261
v 0.08915960043668747 0.0773782730102539 0.01186229009181261
v 0.08890949934720993 0.07751929014921188 0.009258040226995945
v 0.0890655517578125 0.07767312973737717 0.011932500638067722
v 0.08890949934720993 0.07751929014921188 0.009258040226995945
v 0.0888819620013237 0.07792966812849045 0.011901390738785267
v 0.0890655517578125 0.07767312973737717 0.011932500638067722
v 0.08837269991636276 0.07784997671842575 0.00921763014048338
v 0.0886572003364563 0.0780908390879631 0.01194054912775755
v 0.08890949934720993 0.07751929014921188 0.009258040226995945
v 0.08890949934720993 0.07751929014921188 0.009258040226995945
v 0.0886572003364563 0.0780908390879631 0.01194054912775755
v 0.0888819620013237 0.07792966812849045 0.011901390738785267
v 0.08802425116300583 0.07790017127990723 0.009217810817062855
v 0.0886572003364563 0.0780908390879631 0.01194054912775755
v 0.08837269991636276 0.07784997671842575 0.00921763014048338
v 0.08743464201688766 0.07776807993650436 0.012442720122635365
v 0.08743982762098312 0.07801944017410278 0.012085209600627422
v 0.08720468729734421 0.07775431126356125 0.012031030841171741
v 0.0878477618098259 0.07809340208768845 0.01239520963281393
v 0.08820121735334396 0.07785969227552414 0.012695980258286
v 0.08827316015958786 0.07816213369369507 0.012279580347239971
v 0.08743982762098312 0.07801944017410278 0.012085209600627422
v 0.0878477618098259 0.07809340208768845 0.01239520963281393
v 0.08776473253965378 0.07819241285324097 0.011884880252182484
v 0.08877164125442505 0.07756184786558151 0.012619919143617153
v 0.08873289078474045 0.07784456014633179 0.012475860305130482
v 0.08835058659315109 0.07766079157590866 0.012800940312445164
v 0.08827316015958786 0.07816213369369507 0.012279580347239971
v 0.08820121735334396 0.07785969227552414 0.012695980258286
v 0.08873289078474045 0.07784456014633179 0.012475860305130482
v 0.08776473253965378 0.07819241285324097 0.011884880252182484
v 0.08827316015958786 0.07816213369369507 0.012279580347239971
v 0.08820556849241257 0.07822275161743164 0.011863780207931995
v 0.0878477618098259 0.07809340208768845 0.01239520963281393
v 0.08827316015958786 0.07816213369369507 0.012279580347239971
v 0.08776473253965378 0.07819241285324097 0.011884880252182484
v 0.08873289078474045 0.07784456014633179 0.012475860305130482
v 0.0886572003364563 0.0780908390879631 0.01194054912775755
v 0.08827316015958786 0.07816213369369507 0.012279580347239971
v 0.08779138326644897 0.07774751633405685 0.012724530883133411
v 0.0878477618098259 0.07809340208768845 0.01239520963281393
v 0.08743464201688766 0.07776807993650436 0.012442720122635365
v 0.0888819620013237 0.07792966812849045 0.011901390738785267
v 0.0886572003364563 0.0780908390879631 0.01194054912775755
v 0.08873289078474045 0.07784456014633179 0.012475860305130482
v 0.08743464201688766 0.07776807993650436 0.012442720122635365
v 0.0878477618098259 0.07809340208768845 0.01239520963281393
v 0.08743982762098312 0.07801944017410278 0.012085209600627422
v 0.0886572003364563 0.0780908390879631 0.01194054912775755
v 0.08820556849241257 0.07822275161743164 0.011863780207931995
v 0.08827316015958786 0.07816213369369507 0.012279580347239971
v 0.08820121735334396 0.07785969227552414 0.012695980258286
v 0.08835058659315109 0.07766079157590866 0.012800940312445164
v 0.08873289078474045 0.07784456014633179 0.012475860305130482
v 0.08820121735334396 0.07785969227552414 0.012695980258286
v 0.08779138326644897 0.07774751633405685 0.012724530883133411
v 0.08835058659315109 0.07766079157590866 0.012800940312445164
v 0.0878477618098259 0.07809340208768845 0.01239520963281393
v 0.08779138326644897 0.07774751633405685 0.012724530883133411
v 0.08820121735334396 0.07785969227552414 0.012695980258286
v 0.08903025835752487 0.0774679109454155 0.012309500016272068
v 0.08873289078474045 0.07784456014633179 0.012475860305130482
v 0.08877164125442505 0.07756184786558151 0.012619919143617153
v 0.08915960043668747 0.0773782730102539 0.01186229009181261
v 0.0890655517578125 0.07767312973737717 0.011932500638067722
v 0.08903025835752487 0.0774679109454155 0.012309500016272068
v 0.08903025835752487 0.0774679109454155 0.012309500016272068
v 0.0890655517578125 0.07767312973737717 0.011932500638067722
v 0.08873289078474045 0.07784456014633179 0.012475860305130482
v 0.0890655517578125 0.07767312973737717 0.011932500638067722
v 0.0888819620013237 0.07792966812849045 0.011901390738785267
v 0.08873289078474045 0.07784456014633179 0.012475860305130482
vn -0.7422955196886756 0.6682840134360466 -0.048926872329316515
vn -0.7422955196886756 0.6682840134360466 -0.048926872329316515
vn -0.7422955196886756 0.6682840134360466 -0.048926872329316515
vn -0.5087183571615208 0.8566916941382802 -0.08535206079156409
vn -0.5087183571615208 0.8566916941382802 -0.08535206079156409
vn -0.5087183571615208 0.8566916941382802 -0.08535206079156409
vn -0.7074370608755371 0.7036375626737346 -0.06653559419098862
vn -0.7074370608755371 0.7036375626737346 -0.06653559419098862
vn -0.7074370608755371 0.7036375626737346 -0.06653559419098862
vn -0.07391654669908261 0.9898973663030596 -0.12099400113372855
vn -0.07391654669908261 0.9898973663030596 -0.12099400113372855
vn -0.07391654669908261 0.9898973663030596 -0.12099400113372855
vn -0.4198056975835577 0.9014564581571136 -0.10554349967295341
vn -0.4198056975835577 0.9014564581571136 -0.10554349967295341
vn -0.4198056975835577 0.9014564581571136 -0.10554349967295341
vn -0.11919688078051754 0.9865214530568746 -0.11210497879553832
vn -0.11919688078051754 0.9865214530568746 -0.11210497879553832
vn -0.11919688078051754 0.9865214530568746 -0.11210497879553832
vn -0.7534749361953498 0.6525419228039281 -0.08040248446886471
vn -0.7534749361953498 0.6525419228039281 -0.08040248446886471
vn -0.7534749361953498 0.6525419228039281 -0.08040248446886471
vn -0.10785689271422498 0.8685605579515175 -0.4837038844840722
vn -0.10785689271422498 0.8685605579515175 -0.4837038844840722
vn -0.10785689271422498 0.8685605579515175 -0.4837038844840722
vn -0.33240544511488507 0.8568531797505033 -0.39409294387165406
vn -0.33240544511488507 0.8568531797505033 -0.39409294387165406
vn -0.33240544511488507 0.8568531797505033 -0.39409294387165406
vn -0.21134407633689595 0.8857853335246959 -0.41318037745014913
vn -0.21134407633689595 0.8857853335246959 -0.41318037745014913
vn -0.21134407633689595 0.8857853335246959 -0.41318037745014913
vn 0.8059390735332335 0.33638140358948415 -0.487144497117192
vn 0.8059390735332335 0.33638140358948415 -0.487144497117192
vn 0.8059390735332335 0.33638140358948415 -0.487144497117192
vn 0.3379259974740093 0.4508660993262061 -0.8261511851408115
vn 0.3379259974740093 0.4508660993262061 -0.8261511851408115
vn 0.3379259974740093 0.4508660993262061 -0.8261511851408115
vn 0.5078064838347301 0.7795249879682922 -0.36670610590558983
vn 0.5078064838347301 0.7795249879682922 -0.36670610590558983
vn 0.5078064838347301 0.7795249879682922 -0.36670610590558983
vn 0.8082416084157035 0.3574353468247624 -0.4679588392859551
vn 0.8082416084157035 0.3574353468247624 -0.4679588392859551
vn 0.8082416084157035 0.3574353468247624 -0.4679588392859551
vn 0.6297605666246888 0.26943016191338737 -0.7285664119185544
vn 0.6297605666246888 0.26943016191338737 -0.7285664119185544
vn 0.6297605666246888 0.26943016191338737 -0.7285664119185544
vn 0.12867328361152844 0.8948166256735095 -0.4274884706081571
vn 0.12867328361152844 0.8948166256735095 -0.4274884706081571
vn 0.12867328361152844 0.8948166256735095 -0.4274884706081571
vn 0.26726559054395316 0.5318617870466826 -0.8035497144487707
vn 0.26726559054395316 0.5318617870466826 -0.8035497144487707
vn 0.26726559054395316 0.5318617870466826 -0.8035497144487707
vn -0.06701873240779105 0.5317222474358495 -0.8442629573114186
vn -0.06701873240779105 0.5317222474358495 -0.8442629573114186
vn -0.06701873240779105 0.5317222474358495 -0.8442629573114186
vn -0.4348311846748864 0.42208666817581303 -0.7954650748979971
vn -0.4348311846748864 0.42208666817581303 -0.7954650748979971
vn -0.4348311846748864 0.42208666817581303 -0.7954650748979971
vn -0.05991088161591872 0.536722535046088 -0.8416291384200669
vn -0.05991088161591872 0.536722535046088 -0.8416291384200669
vn -0.05991088161591872 0.536722535046088 -0.8416291384200669
vn 0.3479298159609443 0.7859215972297853 -0.5111478124507298
vn 0.3479298159609443 0.7859215972297853 -0.5111478124507298
vn 0.3479298159609443 0.7859215972297853 -0.5111478124507298
vn -0.7541405569669154 0.5213511593851174 -0.39933067618882534
vn -0.7541405569669154 0.5213511593851174 -0.39933067618882534
vn -0.7541405569669154 0.5213511593851174 -0.39933067618882534
vn -0.5786252432380926 0.6208440462443746 -0.5289097258801078
vn -0.5786252432380926 0.6208440462443746 -0.5289097258801078
vn -0.5786252432380926 0.6208440462443746 -0.5289097258801078
vn 0.2989489782706217 0.9445799742506596 -0.13563989323047387
vn 0.2989489782706217 0.9445799742506596 -0.13563989323047387
vn 0.2989489782706217 0.9445799742506596 -0.13563989323047387
vn 0.922282017476978 0.3804942276049027 -0.06797075104737
vn 0.922282017476978 0.3804942276049027 -0.06797075104737
vn 0.922282017476978 0.3804942276049027 -0.06797075104737
vn 0.9449468811135665 0.31886729463223334 -0.07347816197798876
vn 0.9449468811135665 0.31886729463223334 -0.07347816197798876
vn 0.9449468811135665 0.31886729463223334 -0.07347816197798876
vn 0.8151668369343598 0.5735967200912307 -0.08055948524545846
vn 0.8151668369343598 0.5735967200912307 -0.08055948524545846
vn 0.8151668369343598 0.5735967200912307 -0.08055948524545846
vn 0.5271341284918034 0.8398766645540039 -0.12937078076918396
vn 0.5271341284918034 0.8398766645540039 -0.12937078076918396
vn 0.5271341284918034 0.8398766645540039 -0.12937078076918396
vn 0.5644667221551329 0.8165557490036466 -0.12088849551770306
vn 0.5644667221551329 0.8165557490036466 -0.12088849551770306
vn 0.5644667221551329 0.8165557490036466 -0.12088849551770306
vn 0.14178578312247142 0.9846365878873047 -0.10191948536954967
vn 0.14178578312247142 0.9846365878873047 -0.10191948536954967
vn 0.14178578312247142 0.9846365878873047 -0.10191948536954967
vn -0.727586642647799 0.566110325108627 0.3874748730510257
vn -0.727586642647799 0.566110325108627 0.3874748730510257
vn -0.727586642647799 0.566110325108627 0.3874748730510257
vn 0.03033517879472525 0.80622935815925 0.590824846269701
vn 0.03033517879472525 0.80622935815925 0.590824846269701
vn 0.03033517879472525 0.80622935815925 0.590824846269701
vn -0.3416174029650954 0.9106953078774257 0.23223179412264874
vn -0.3416174029650954 0.9106953078774257 0.23223179412264874
vn -0.3416174029650954 0.9106953078774257 0.23223179412264874
vn 0.4397955729726247 0.45487706765869595 0.7743814998512727
vn 0.4397955729726247 0.45487706765869595 0.7743814998512727
vn 0.4397955729726247 0.45487706765869595 0.7743814998512727
vn 0.2683010019497195 0.7568057544701698 0.5960365948107662
vn 0.2683010019497195 0.7568057544701698 0.5960365948107662
vn 0.2683010019497195 0.7568057544701698 0.5960365948107662
vn -0.0605214793590554 0.986272091142407 0.1536376020698556
vn -0.0605214793590554 0.986272091142407 0.1536376020698556
vn -0.0605214793590554 0.986272091142407 0.1536376020698556
vn -0.10145709722430815 0.9734194335133314 0.2053315949419435
vn -0.10145709722430815 0.9734194335133314 0.2053315949419435
vn -0.10145709722430815 0.9734194335133314 0.2053315949419435
vn 0.44065146961700796 0.8375404348515152 0.32303606967814935
vn 0.44065146961700796 0.8375404348515152 0.32303606967814935
vn 0.44065146961700796 0.8375404348515152 0.32303606967814935
vn -0.44508518749950515 0.6544794886510799 0.6111920932109245
vn -0.44508518749950515 0.6544794886510799 0.6111920932109245
vn -0.44508518749950515 0.6544794886510799 0.6111920932109245
vn 0.5919241372667836 0.7607358179642163 0.26628336596056623
vn 0.5919241372667836 0.7607358179642163 0.26628336596056623
vn 0.5919241372667836 0.7607358179642163 0.26628336596056623
vn -0.5028861673580433 0.7104714985234566 0.49227609373782544
vn -0.5028861673580433 0.7104714985234566 0.49227609373782544
vn -0.5028861673580433 0.7104714985234566 0.49227609373782544
vn 0.2638035959208792 0.9596835776468042 0.09703140509259842
vn 0.2638035959208792 0.9596835776468042 0.09703140509259842
vn 0.2638035959208792 0.9596835776468042 0.09703140509259842
vn 0.31586069387641896 0.6174119216325503 0.7204405187729995
vn 0.31586069387641896 0.6174119216325503 0.7204405187729995
vn 0.31586069387641896 0.6174119216325503 0.7204405187729995
vn -0.05581205796995947 0.4328817792059967 0.899721278739482
vn -0.05581205796995947 0.4328817792059967 0.899721278739482
vn -0.05581205796995947 0.4328817792059967 0.899721278739482
vn -0.14098570167803612 0.6946107354581171 0.7054352968973735
vn -0.14098570167803612 0.6946107354581171 0.7054352968973735
vn -0.14098570167803612 0.6946107354581171 0.7054352968973735
vn 0.7653528907745958 0.3723753920520058 0.5249490641739298
vn 0.7653528907745958 0.3723753920520058 0.5249490641739298
vn 0.7653528907745958 0.3723753920520058 0.5249490641739298
vn 0.9428385335964017 0.2475902843136354 0.22305728116176862
vn 0.9428385335964017 0.2475902843136354 0.22305728116176862
vn 0.9428385335964017 0.2475902843136354 0.22305728116176862
vn 0.8053500716769908 0.4857449868455291 0.3397985723988585
vn 0.8053500716769908 0.4857449868455291 0.3397985723988585
vn 0.8053500716769908 0.4857449868455291 0.3397985723988585
vn 0.7630816671422893 0.5805497745264752 0.2840217043970465
vn 0.7630816671422893 0.5805497745264752 0.2840217043970465
vn 0.7630816671422893 0.5805497745264752 0.2840217043970465
f 1//1 2//2 3//3
f 4//4 5//5 6//6
f 7//7 8//8 9//9
f 10//10 11//11 12//12
f 13//13 14//14 15//15
f 16//16 17//17 18//18
f 19//19 20//20 21//21
f 22//22 23//23 24//24
f 25//25 26//26 27//27
f 28//28 29//29 30//30
f 31//31 32//32 33//33
f 34//34 35//35 36//36
f 37//37 38//38 39//39
f 40//40 41//41 42//42
f 43//43 44//44 45//45
f 46//46 47//47 48//48
f 49//49 50//50 51//51
f 52//52 53//53 54//54
f 55//55 56//56 57//57
f 58//58 59//59 60//60
f 61//61 62//62 63//63
f 64//64 65//65 66//66
f 67//67 68//68 69//69
f 70//70 71//71 72//72
f 73//73 74//74 75//75
f 76//76 77//77 78//78
f 79//79 80//80 81//81
f 82//82 83//83 84//84
f 85//85 86//86 87//87
f 88//88 89//89 90//90
f 91//91 92//92 93//93
f 94//94 95//95 96//96
f 97//97 98//98 99//99
f 100//100 101//101 102//102
f 103//103 104//104 105//105
f 106//106 107//107 108//108
f 109//109 110//110 111//111
f 112//112 113//113 114//114
f 115//115 116//116 117//117
f 118//118 119//119 120//120
f 121//121 122//122 123//123
f 124//124 125//125 126//126
f 127//127 128//128 129//129
f 130//130 131//131 132//132
f 133//133 134//134 135//135
f 136//136 137//137 138//138
f 139//139 140//140 141//141
f 142//142 143//143 144//144
f 145//145 146//146 147//147
