o node9
usemtl Union001_001_001_002_001
v 0.06278795003890991 0.08158916234970093 -0.0005002496764063835
v 0.06196748837828636 0.0815431997179985 -0.0005002496764063835
v 0.061967670917510986 0.08154422044754028 -5.029141902923584e-8
v 0.0638226792216301 0.08162683248519897 -0.0007375404238700867
v 0.0636560320854187 0.08161740750074387 -0.0013504000380635262
v 0.06322454661130905 0.08160585165023804 -0.0009271400049328804
v 0.06319742649793625 0.08160793036222458 -0.00012504030019044876
v 0.06322454661130905 0.08160585165023804 -0.0009271400049328804
v 0.06278795003890991 0.08158916234970093 -0.0005002496764063835
v 0.06319742649793625 0.08160793036222458 -0.00012504030019044876
v 0.0638226792216301 0.08162683248519897 -0.0007375404238700867
v 0.06322454661130905 0.08160585165023804 -0.0009271400049328804
v 0.06319742649793625 0.08160798996686935 -5.029141902923584e-8
v 0.06278795003890991 0.08158916234970093 -0.0005002496764063835
v 0.061967670917510986 0.08154422044754028 -5.029141902923584e-8
v 0.06319742649793625 0.08160798996686935 -5.029141902923584e-8
v 0.06319742649793625 0.08160793036222458 -0.00012504030019044876
v 0.06278795003890991 0.08158916234970093 -0.0005002496764063835
v 0.06422238796949387 0.08163577318191528 -0.0007957099005579948
v 0.0636560320854187 0.08161740750074387 -0.0013504000380635262
v 0.0638226792216301 0.08162683248519897 -0.0007375404238700867
v 0.06431996077299118 0.08163952082395554 -0.0002500303089618683
v 0.06422238796949387 0.08163577318191528 -0.0007957099005579948
v 0.0638226792216301 0.08162683248519897 -0.0007375404238700867
v 0.0647779107093811 0.08164525032043457 -0.0002500303089618683
v 0.06422238796949387 0.08163577318191528 -0.0007957099005579948
v 0.06431996077299118 0.08163952082395554 -0.0002500303089618683
v 0.06278795003890991 0.08158916234970093 0.0004996098577976227
v 0.06319742649793625 0.08160798996686935 -5.029141902923584e-8
v 0.061967670917510986 0.08154422044754028 -5.029141902923584e-8
v 0.06278795003890991 0.08158916234970093 0.0004996098577976227
v 0.061967670917510986 0.08154422044754028 -5.029141902923584e-8
v 0.06196748837828636 0.0815431997179985 0.0004996098577976227
v 0.06319742649793625 0.08160793036222458 0.0001250002533197403
v 0.06319742649793625 0.08160798996686935 -5.029141902923584e-8
v 0.06278795003890991 0.08158916234970093 0.0004996098577976227
v 0.06322454661130905 0.08160585165023804 0.0009271008893847466
v 0.06319742649793625 0.08160793036222458 0.0001250002533197403
v 0.06278795003890991 0.08158916234970093 0.0004996098577976227
v 0.0638226792216301 0.08162683248519897 0.0007375003769993782
v 0.06319742649793625 0.08160793036222458 0.0001250002533197403
v 0.06322454661130905 0.08160585165023804 0.0009271008893847466
v 0.0636560320854187 0.08161740750074387 0.00134964007884264
v 0.0638226792216301 0.08162683248519897 0.0007375003769993782
v 0.06322454661130905 0.08160585165023804 0.0009271008893847466
v 0.06422238796949387 0.08163577318191528 0.000795009545981884
v 0.06431996077299118 0.08163952082395554 0.0002499902620911598
v 0.0638226792216301 0.08162683248519897 0.0007375003769993782
v 0.06422238796949387 0.08163577318191528 0.000795009545981884
v 0.0638226792216301 0.08162683248519897 0.0007375003769993782
v 0.0636560320854187 0.08161740750074387 0.00134964007884264
v 0.0647779107093811 0.08164525032043457 0.0002499902620911598
v 0.06431996077299118 0.08163952082395554 0.0002499902620911598
v 0.06422238796949387 0.08163577318191528 0.000795009545981884
vn -0.055932861014965966 0.9984325801100747 -0.0019743437947083134
vn -0.055932861014965966 0.9984325801100747 -0.0019743437947083134
vn -0.055932861014965966 0.9984325801100747 -0.0019743437947083134
vn -0.03303199932505816 0.9994339123050333 -0.006382942522414578
vn -0.03303199932505816 0.9994339123050333 -0.006382942522414578
vn -0.03303199932505816 0.9994339123050333 -0.006382942522414578
vn -0.04211627711353152 0.9991045640163498 -0.004036008398914765
vn -0.04211627711353152 0.9991045640163498 -0.004036008398914765
vn -0.04211627711353152 0.9991045640163498 -0.004036008398914765
vn -0.033873081687772505 0.9994191669136445 -0.0037340517685509546
vn -0.033873081687772505 0.9994191669136445 -0.0037340517685509546
vn -0.033873081687772505 0.9994191669136445 -0.0037340517685509546
vn -0.051785107369510995 0.9986468489421199 0.004772185317332683
vn -0.051785107369510995 0.9986468489421199 0.004772185317332683
vn -0.051785107369510995 0.9986468489421199 0.004772185317332683
vn -0.04535107572640137 0.9989710198011394 -0.0004260609459153083
vn -0.04535107572640137 0.9989710198011394 -0.0004260609459153083
vn -0.04535107572640137 0.9989710198011394 -0.0004260609459153083
vn -0.023661731196162963 0.9996802969581121 -0.00891214623653213
vn -0.023661731196162963 0.9996802969581121 -0.00891214623653213
vn -0.023661731196162963 0.9996802969581121 -0.00891214623653213
vn -0.022768729697490716 0.9997367595351614 -0.002827822854705532
vn -0.022768729697490716 0.9997367595351614 -0.002827822854705532
vn -0.022768729697490716 0.9997367595351614 -0.002827822854705532
vn -0.012510119159119537 0.999910962896256 -0.0046436191173386526
vn -0.012510119159119537 0.999910962896256 -0.0046436191173386526
vn -0.012510119159119537 0.999910962896256 -0.0046436191173386526
vn -0.05178492418516492 0.9986468365012469 -0.004776774349781868
vn -0.05178492418516492 0.9986468365012469 -0.004776774349781868
vn -0.05178492418516492 0.9986468365012469 -0.004776774349781868
vn -0.055933050199682026 0.998432565738824 0.001976250882071295
vn -0.055933050199682026 0.998432565738824 0.001976250882071295
vn -0.055933050199682026 0.998432565738824 0.001976250882071295
vn -0.04535501336376469 0.9989708411109328 0.00042587895972080145
vn -0.04535501336376469 0.9989708411109328 0.00042587895972080145
vn -0.04535501336376469 0.9989708411109328 0.00042587895972080145
vn -0.04212145980213391 0.999104344805274 0.004036188221767094
vn -0.04212145980213391 0.999104344805274 0.004036188221767094
vn -0.04212145980213391 0.999104344805274 0.004036188221767094
vn -0.033872716205707906 0.999419155005071 0.0037405488631837894
vn -0.033872716205707906 0.999419155005071 0.0037405488631837894
vn -0.033872716205707906 0.999419155005071 0.0037405488631837894
vn -0.03303014839225741 0.9994339285366425 0.0063899755084576085
vn -0.03303014839225741 0.9994339285366425 0.0063899755084576085
vn -0.03303014839225741 0.9994339285366425 0.0063899755084576085
vn -0.02276544781563233 0.9997368234789259 0.002831636632838099
vn -0.02276544781563233 0.9997368234789259 0.002831636632838099
vn -0.02276544781563233 0.9997368234789259 0.002831636632838099
vn -0.023649867878950417 0.9996804702742417 0.008924186325893604
vn -0.023649867878950417 0.9996804702742417 0.008924186325893604
vn -0.023649867878950417 0.9996804702742417 0.008924186325893604
vn -0.012509878624570448 0.9999109426483108 0.004648624416443697
vn -0.012509878624570448 0.9999109426483108 0.004648624416443697
vn -0.012509878624570448 0.9999109426483108 0.004648624416443697
f 1//1 2//2 3//3
f 4//4 5//5 6//6
f 7//7 8//8 9//9
f 10//10 11//11 12//12
f 13//13 14//14 15//15
f 16//16 17//17 18//18
f 19//19 20//20 21//21
f 22//22 23//23 24//24
f 25//25 26//26 27//27
f 28//28 29//29 30//30
f 31//31 32//32 33//33
f 34//34 35//35 36//36
f 37//37 38//38 39//39
f 40//40 41//41 42//42
f 43//43 44//44 45//45
f 46//46 47//47 48//48
f 49//49 50//50 51//51
f 52//52 53//53 54//54
