o node8
usemtl Shell_001
v -0.023052209988236427 -0.07629715651273727 0.06508547067642212
v -0.023396899923682213 -0.0757439136505127 0.06489849090576172
v -0.02408163994550705 -0.07612358778715134 0.06442826241254807
v -0.023396899923682213 -0.0757439136505127 0.06489849090576172
v -0.023052209988236427 -0.07629715651273727 0.06508547067642212
v -0.0233150701969862 -0.07576446980237961 0.0653071403503418
v -0.023052209988236427 -0.07629715651273727 0.06508547067642212
v -0.023625070229172707 -0.07570111006498337 0.06567037105560303
v -0.0233150701969862 -0.07576446980237961 0.0653071403503418
v -0.023516830056905746 -0.07625377178192139 0.06599456071853638
v -0.023625070229172707 -0.07570111006498337 0.06567037105560303
v -0.023052209988236427 -0.07629715651273727 0.06508547067642212
v -0.023857949301600456 -0.075679711997509 0.06475471705198288
v -0.02408163994550705 -0.07612358778715134 0.06442826241254807
v -0.023396899923682213 -0.0757439136505127 0.06489849090576172
v -0.024540899321436882 -0.07606053352355957 0.06544870138168335
v -0.024021919816732407 -0.07564108818769455 0.06556253880262375
v -0.023516830056905746 -0.07625377178192139 0.06599456071853638
v -0.023516830056905746 -0.07625377178192139 0.06599456071853638
v -0.024021919816732407 -0.07564108818769455 0.06556253880262375
v -0.023625070229172707 -0.07570111006498337 0.06567037105560303
v -0.024021919816732407 -0.07564108818769455 0.06556253880262375
v -0.024540899321436882 -0.07606053352355957 0.06544870138168335
v -0.02420240081846714 -0.07563090324401855 0.06519550085067749
v -0.02420240081846714 -0.07563090324401855 0.06519550085067749
v -0.02408163994550705 -0.07612358778715134 0.06442826241254807
v -0.023857949301600456 -0.075679711997509 0.06475471705198288
v -0.02408163994550705 -0.07612358778715134 0.06442826241254807
v -0.02420240081846714 -0.07563090324401855 0.06519550085067749
v -0.024540899321436882 -0.07606053352355957 0.06544870138168335
v -0.022494850680232048 -0.07637857645750046 0.06396137923002243
v -0.021890809759497643 -0.0764315128326416 0.06439507007598877
v -0.023052209988236427 -0.07629715651273727 0.06508547067642212
v -0.02829216979444027 -0.07545769214630127 0.060807760804891586
v -0.02784734033048153 -0.07552056759595871 0.06209981068968773
v -0.029185229912400246 -0.07528989762067795 0.0626407191157341
v -0.026382679119706154 -0.07576452940702438 0.060462649911642075
v -0.027357330545783043 -0.07560676336288452 0.0606422983109951
v -0.02590464986860752 -0.07585179060697556 0.059454020112752914
v -0.02599853090941906 -0.07586067169904709 0.06653677672147751
v -0.02734261006116867 -0.07559633255004883 0.06613433361053467
v -0.026780059561133385 -0.07569605112075806 0.06579089164733887
v -0.026193080469965935 -0.07579510658979416 0.06321024149656296
v -0.02635055035352707 -0.0757703110575676 0.06501448154449463
v -0.027395660057663918 -0.07560031861066818 0.06378275156021118
v -0.02546459063887596 -0.07591301202774048 0.06376361101865768
v -0.02635055035352707 -0.0757703110575676 0.06501448154449463
v -0.026193080469965935 -0.07579510658979416 0.06321024149656296
v -0.02546459063887596 -0.07591301202774048 0.06376361101865768
v -0.025546550750732422 -0.07589846104383469 0.06503456085920334
v -0.02635055035352707 -0.0757703110575676 0.06501448154449463
v -0.026780059561133385 -0.07569605112075806 0.06579089164733887
v -0.02734261006116867 -0.07559633255004883 0.06613433361053467
v -0.027113130316138268 -0.07560843229293823 0.06537377089262009
v -0.02408163994550705 -0.07612358778715134 0.06442826241254807
v -0.024540899321436882 -0.07606053352355957 0.06544870138168335
v -0.025546550750732422 -0.07589846104383469 0.06503456085920334
v -0.026193080469965935 -0.07579510658979416 0.06321024149656296
v -0.027395660057663918 -0.07560031861066818 0.06378275156021118
v -0.027822010219097137 -0.07552295178174973 0.062831811606884
v -0.0283657293766737 -0.07544659823179245 0.06434916704893112
v -0.027679620310664177 -0.07551705092191696 0.06472884863615036
v -0.02851741947233677 -0.07539165019989014 0.06497489660978317
v -0.02546459063887596 -0.07591301202774048 0.06376361101865768
v -0.02408163994550705 -0.07612358778715134 0.06442826241254807
v -0.025546550750732422 -0.07589846104383469 0.06503456085920334
v -0.026193080469965935 -0.07579510658979416 0.06321024149656296
v -0.027822010219097137 -0.07552295178174973 0.062831811606884
v -0.02784734033048153 -0.07552056759595871 0.06209981068968773
v -0.023795360699295998 -0.07616984099149704 0.06182276830077171
v -0.023527320474386215 -0.07622020691633224 0.0632556602358818
v -0.0246846005320549 -0.07603263109922409 0.06293313950300217
v -0.023795360699295998 -0.07616984099149704 0.06182276830077171
v -0.025718210265040398 -0.0758589506149292 0.06222933158278465
v -0.025421729311347008 -0.07591413706541061 0.061022281646728516
v -0.023795360699295998 -0.07616984099149704 0.06182276830077171
v -0.0246846005320549 -0.07603263109922409 0.06293313950300217
v -0.025718210265040398 -0.0758589506149292 0.06222933158278465
v -0.025718210265040398 -0.0758589506149292 0.06222933158278465
v -0.026193080469965935 -0.07579510658979416 0.06321024149656296
v -0.02784734033048153 -0.07552056759595871 0.06209981068968773
v -0.025718210265040398 -0.0758589506149292 0.06222933158278465
v -0.02784734033048153 -0.07552056759595871 0.06209981068968773
v -0.026884490624070168 -0.07567942142486572 0.061439089477062225
v -0.024270350113511086 -0.07610642164945602 0.060842208564281464
v -0.023795360699295998 -0.07616984099149704 0.06182276830077171
v -0.025421729311347008 -0.07591413706541061 0.061022281646728516
v -0.021951310336589813 -0.07651715725660324 0.06288491934537888
v -0.021890809759497643 -0.0764315128326416 0.06439507007598877
v -0.022494850680232048 -0.07637857645750046 0.06396137923002243
v -0.023795360699295998 -0.07616984099149704 0.06182276830077171
v -0.02275240048766136 -0.07635235041379929 0.06242853030562401
v -0.023527320474386215 -0.07622020691633224 0.0632556602358818
v -0.0246846005320549 -0.07603263109922409 0.06293313950300217
v -0.02408163994550705 -0.07612358778715134 0.06442826241254807
v -0.02546459063887596 -0.07591301202774048 0.06376361101865768
v -0.02635055035352707 -0.0757703110575676 0.06501448154449463
v -0.026780059561133385 -0.07569605112075806 0.06579089164733887
v -0.027113130316138268 -0.07560843229293823 0.06537377089262009
v -0.027395660057663918 -0.07560031861066818 0.06378275156021118
v -0.027679620310664177 -0.07551705092191696 0.06472884863615036
v -0.0283657293766737 -0.07544659823179245 0.06434916704893112
v -0.027395660057663918 -0.07560031861066818 0.06378275156021118
v -0.027113130316138268 -0.07560843229293823 0.06537377089262009
v -0.027679620310664177 -0.07551705092191696 0.06472884863615036
v -0.024270350113511086 -0.07610642164945602 0.060842208564281464
v -0.025421729311347008 -0.07591413706541061 0.061022281646728516
v -0.024940840899944305 -0.07599610090255737 0.06000328063964844
v -0.027395660057663918 -0.07560031861066818 0.06378275156021118
v -0.02635055035352707 -0.0757703110575676 0.06501448154449463
v -0.027113130316138268 -0.07560843229293823 0.06537377089262009
v -0.027822010219097137 -0.07552295178174973 0.062831811606884
v -0.02890907973051071 -0.07536237686872482 0.06345701217651367
v -0.029185229912400246 -0.07528989762067795 0.0626407191157341
v -0.022758539766073227 -0.07635437697172165 0.06114310026168823
v -0.02275240048766136 -0.07635235041379929 0.06242853030562401
v -0.023795360699295998 -0.07616984099149704 0.06182276830077171
v -0.021890809759497643 -0.0764315128326416 0.06439507007598877
v -0.023516830056905746 -0.07625377178192139 0.06599456071853638
v -0.023052209988236427 -0.07629715651273727 0.06508547067642212
v -0.023497460409998894 -0.07622402161359787 0.05982869118452072
v -0.024940840899944305 -0.07599610090255737 0.06000328063964844
v -0.02590464986860752 -0.07585179060697556 0.059454020112752914
v -0.02590464986860752 -0.07585179060697556 0.059454020112752914
v -0.027357330545783043 -0.07560676336288452 0.0606422983109951
v -0.02829216979444027 -0.07545769214630127 0.060807760804891586
v -0.023497460409998894 -0.07622402161359787 0.05982869118452072
v -0.024270350113511086 -0.07610642164945602 0.060842208564281464
v -0.024940840899944305 -0.07599610090255737 0.06000328063964844
v -0.021951310336589813 -0.07651715725660324 0.06288491934537888
v -0.02275240048766136 -0.07635235041379929 0.06242853030562401
v -0.022758539766073227 -0.07635437697172165 0.06114310026168823
v -0.023497460409998894 -0.07622402161359787 0.05982869118452072
v -0.023361140862107277 -0.07627575844526291 0.060263991355895996
v -0.024270350113511086 -0.07610642164945602 0.060842208564281464
v -0.023527320474386215 -0.07622020691633224 0.0632556602358818
v -0.023052209988236427 -0.07629715651273727 0.06508547067642212
v -0.02408163994550705 -0.07612358778715134 0.06442826241254807
v -0.024540899321436882 -0.07606053352355957 0.06544870138168335
v -0.02599853090941906 -0.07586067169904709 0.06653677672147751
v -0.025310330092906952 -0.07593642920255661 0.06586509197950363
v -0.025421729311347008 -0.07591413706541061 0.061022281646728516
v -0.026884490624070168 -0.07567942142486572 0.061439089477062225
v -0.026382679119706154 -0.07576452940702438 0.060462649911642075
v -0.02784734033048153 -0.07552056759595871 0.06209981068968773
v -0.027822010219097137 -0.07552295178174973 0.062831811606884
v -0.029185229912400246 -0.07528989762067795 0.0626407191157341
v -0.02195614017546177 -0.07638835161924362 0.061346348375082016
v -0.021951310336589813 -0.07651715725660324 0.06288491934537888
v -0.022758539766073227 -0.07635437697172165 0.06114310026168823
v -0.023527320474386215 -0.07622020691633224 0.0632556602358818
v -0.02408163994550705 -0.07612358778715134 0.06442826241254807
v -0.0246846005320549 -0.07603263109922409 0.06293313950300217
v -0.023516830056905746 -0.07625377178192139 0.06599456071853638
v -0.02599853090941906 -0.07586067169904709 0.06653677672147751
v -0.024540899321436882 -0.07606053352355957 0.06544870138168335
v -0.022494850680232048 -0.07637857645750046 0.06396137923002243
v -0.023052209988236427 -0.07629715651273727 0.06508547067642212
v -0.023527320474386215 -0.07622020691633224 0.0632556602358818
v -0.026382679119706154 -0.07576452940702438 0.060462649911642075
v -0.026884490624070168 -0.07567942142486572 0.061439089477062225
v -0.027357330545783043 -0.07560676336288452 0.0606422983109951
v -0.024540899321436882 -0.07606053352355957 0.06544870138168335
v -0.025310330092906952 -0.07593642920255661 0.06586509197950363
v -0.025546550750732422 -0.07589846104383469 0.06503456085920334
v -0.025421729311347008 -0.07591413706541061 0.061022281646728516
v -0.025718210265040398 -0.0758589506149292 0.06222933158278465
v -0.026884490624070168 -0.07567942142486572 0.061439089477062225
v -0.025546550750732422 -0.07589846104383469 0.06503456085920334
v -0.025598520413041115 -0.07538735121488571 0.06539285182952881
v -0.02595042996108532 -0.07532501220703125 0.06522583216428757
v -0.025598520413041115 -0.07538735121488571 0.06539285182952881
v -0.025310330092906952 -0.07593642920255661 0.06586509197950363
v -0.02554476074874401 -0.07540713995695114 0.0659177303314209
v -0.025546550750732422 -0.07589846104383469 0.06503456085920334
v -0.025310330092906952 -0.07593642920255661 0.06586509197950363
v -0.025598520413041115 -0.07538735121488571 0.06539285182952881
v -0.02599853090941906 -0.07586067169904709 0.06653677672147751
v -0.02554476074874401 -0.07540713995695114 0.0659177303314209
v -0.025310330092906952 -0.07593642920255661 0.06586509197950363
v -0.02554476074874401 -0.07540713995695114 0.0659177303314209
v -0.02599853090941906 -0.07586067169904709 0.06653677672147751
v -0.026080960407853127 -0.07530832290649414 0.06615369766950607
v -0.026780059561133385 -0.07569605112075806 0.06579089164733887
v -0.026080960407853127 -0.07530832290649414 0.06615369766950607
v -0.02599853090941906 -0.07586067169904709 0.06653677672147751
v -0.026080960407853127 -0.07530832290649414 0.06615369766950607
v -0.026780059561133385 -0.07569605112075806 0.06579089164733887
v -0.02638649009168148 -0.0752670094370842 0.06580156087875366
v -0.026780059561133385 -0.07569605112075806 0.06579089164733887
v -0.026303229853510857 -0.07527344673871994 0.06539446115493774
v -0.02638649009168148 -0.0752670094370842 0.06580156087875366
v -0.02635055035352707 -0.0757703110575676 0.06501448154449463
v -0.026303229853510857 -0.07527344673871994 0.06539446115493774
v -0.026780059561133385 -0.07569605112075806 0.06579089164733887
v -0.02635055035352707 -0.0757703110575676 0.06501448154449463
v -0.02595042996108532 -0.07532501220703125 0.06522583216428757
v -0.026303229853510857 -0.07527344673871994 0.06539446115493774
v -0.02595042996108532 -0.07532501220703125 0.06522583216428757
v -0.02635055035352707 -0.0757703110575676 0.06501448154449463
v -0.025546550750732422 -0.07589846104383469 0.06503456085920334
v -0.027687130495905876 -0.07504510134458542 0.06326626986265182
v -0.027395660057663918 -0.07560031861066818 0.06378275156021118
v -0.02764027938246727 -0.07506853342056274 0.06379561871290207
v -0.027395660057663918 -0.07560031861066818 0.06378275156021118
v -0.027687130495905876 -0.07504510134458542 0.06326626986265182
v -0.027822010219097137 -0.07552295178174973 0.062831811606884
v -0.0283657293766737 -0.07544659823179245 0.06434916704893112
v -0.02764027938246727 -0.07506853342056274 0.06379561871290207
v -0.027395660057663918 -0.07560031861066818 0.06378275156021118
v -0.0283657293766737 -0.07544659823179245 0.06434916704893112
v -0.028165990486741066 -0.07496535032987595 0.06404446810483932
v -0.02764027938246727 -0.07506853342056274 0.06379561871290207
v -0.028043560683727264 -0.07498574256896973 0.06310433149337769
v -0.027822010219097137 -0.07552295178174973 0.062831811606884
v -0.027687130495905876 -0.07504510134458542 0.06326626986265182
v -0.028165990486741066 -0.07496535032987595 0.06404446810483932
v -0.02890907973051071 -0.07536237686872482 0.06345701217651367
v -0.02848058007657528 -0.07492785900831223 0.06367999315261841
v -0.0283657293766737 -0.07544659823179245 0.06434916704893112
v -0.02890907973051071 -0.07536237686872482 0.06345701217651367
v -0.028165990486741066 -0.07496535032987595 0.06404446810483932
v -0.02890907973051071 -0.07536237686872482 0.06345701217651367
v -0.028396420180797577 -0.07493417710065842 0.06327134370803833
v -0.02848058007657528 -0.07492785900831223 0.06367999315261841
v -0.027822010219097137 -0.07552295178174973 0.062831811606884
v -0.028396420180797577 -0.07493417710065842 0.06327134370803833
v -0.02890907973051071 -0.07536237686872482 0.06345701217651367
v -0.027822010219097137 -0.07552295178174973 0.062831811606884
v -0.028043560683727264 -0.07498574256896973 0.06310433149337769
v -0.028396420180797577 -0.07493417710065842 0.06327134370803833
v -0.026884490624070168 -0.07567942142486572 0.061439089477062225
v -0.02720361016690731 -0.07512760162353516 0.06104271858930588
v -0.027357330545783043 -0.07560676336288452 0.0606422983109951
v -0.02720361016690731 -0.07512760162353516 0.06104271858930588
v -0.026884490624070168 -0.07567942142486572 0.061439089477062225
v -0.027122490108013153 -0.07514780014753342 0.061449699103832245
v -0.026884490624070168 -0.07567942142486572 0.061439089477062225
v -0.02742552012205124 -0.07509052008390427 0.0618019700050354
v -0.027122490108013153 -0.07514780014753342 0.061449699103832245
v -0.02784734033048153 -0.07552056759595871 0.06209981068968773
v -0.02742552012205124 -0.07509052008390427 0.0618019700050354
v -0.026884490624070168 -0.07567942142486572 0.061439089477062225
v -0.027686109766364098 -0.07504779100418091 0.06088095158338547
v -0.027357330545783043 -0.07560676336288452 0.0606422983109951
v -0.02720361016690731 -0.07512760162353516 0.06104271858930588
v -0.027908319607377052 -0.07501327246427536 0.06164354085922241
v -0.02829216979444027 -0.07545769214630127 0.060807760804891586
v -0.02799241989850998 -0.07500690221786499 0.061234891414642334
v -0.02829216979444027 -0.07545769214630127 0.060807760804891586
v -0.027908319607377052 -0.07501327246427536 0.06164354085922241
v -0.02784734033048153 -0.07552056759595871 0.06209981068968773
v -0.02829216979444027 -0.07545769214630127 0.060807760804891586
v -0.027686109766364098 -0.07504779100418091 0.06088095158338547
v -0.02799241989850998 -0.07500690221786499 0.061234891414642334
v -0.027686109766364098 -0.07504779100418091 0.06088095158338547
v -0.02829216979444027 -0.07545769214630127 0.060807760804891586
v -0.027357330545783043 -0.07560676336288452 0.0606422983109951
v -0.02742552012205124 -0.07509052008390427 0.0618019700050354
v -0.02784734033048153 -0.07552056759595871 0.06209981068968773
v -0.027908319607377052 -0.07501327246427536 0.06164354085922241
v -0.024940840899944305 -0.07599610090255737 0.06000328063964844
v -0.025449329987168312 -0.07540220022201538 0.05977565050125122
v -0.02590464986860752 -0.07585179060697556 0.059454020112752914
v -0.025449329987168312 -0.07540220022201538 0.05977565050125122
v -0.024940840899944305 -0.07599610090255737 0.06000328063964844
v -0.02514082007110119 -0.0754687711596489 0.06014496088027954
v -0.024940840899944305 -0.07599610090255737 0.06000328063964844
v -0.025222590193152428 -0.07544820755720139 0.06055361032485962
v -0.02514082007110119 -0.0754687711596489 0.06014496088027954
v -0.025421729311347008 -0.07591413706541061 0.061022281646728516
v -0.025222590193152428 -0.07544820755720139 0.06055361032485962
v -0.024940840899944305 -0.07599610090255737 0.06000328063964844
v -0.025421729311347008 -0.07591413706541061 0.061022281646728516
v -0.025696570053696632 -0.07536560297012329 0.06072299927473068
v -0.025222590193152428 -0.07544820755720139 0.06055361032485962
v -0.026382679119706154 -0.07576452940702438 0.060462649911642075
v -0.025696570053696632 -0.07536560297012329 0.06072299927473068
v -0.025421729311347008 -0.07591413706541061 0.061022281646728516
v -0.026382679119706154 -0.07576452940702438 0.060462649911642075
v -0.02601253055036068 -0.07532613724470139 0.06036185845732689
v -0.025696570053696632 -0.07536560297012329 0.06072299927473068
v -0.026382679119706154 -0.07576452940702438 0.060462649911642075
v -0.025926530361175537 -0.07533419132232666 0.059951119124889374
v -0.02601253055036068 -0.07532613724470139 0.06036185845732689
v -0.02590464986860752 -0.07585179060697556 0.059454020112752914
v -0.025926530361175537 -0.07533419132232666 0.059951119124889374
v -0.026382679119706154 -0.07576452940702438 0.060462649911642075
v -0.02590464986860752 -0.07585179060697556 0.059454020112752914
v -0.025449329987168312 -0.07540220022201538 0.05977565050125122
v -0.025926530361175537 -0.07533419132232666 0.059951119124889374
v -0.023571429774165154 -0.07572788000106812 0.06149423122406006
v -0.023795360699295998 -0.07616984099149704 0.06182276830077171
v -0.023923510685563087 -0.07567161321640015 0.061052560806274414
v -0.024270350113511086 -0.07610642164945602 0.060842208564281464
v -0.023923510685563087 -0.07567161321640015 0.061052560806274414
v -0.023795360699295998 -0.07616984099149704 0.06182276830077171
v -0.024270350113511086 -0.07610642164945602 0.060842208564281464
v -0.02358441986143589 -0.07570766657590866 0.06058179959654808
v -0.023923510685563087 -0.07567161321640015 0.061052560806274414
v -0.023361140862107277 -0.07627575844526291 0.060263991355895996
v -0.02358441986143589 -0.07570766657590866 0.06058179959654808
v -0.024270350113511086 -0.07610642164945602 0.060842208564281464
v -0.023361140862107277 -0.07627575844526291 0.060263991355895996
v -0.023056799545884132 -0.07581006735563278 0.060828741639852524
v -0.02358441986143589 -0.07570766657590866 0.06058179959654808
v -0.022758539766073227 -0.07635437697172165 0.06114310026168823
v -0.023056799545884132 -0.07581006735563278 0.060828741639852524
v -0.023361140862107277 -0.07627575844526291 0.060263991355895996
v -0.022758539766073227 -0.07635437697172165 0.06114310026168823
v -0.023110440000891685 -0.07579033821821213 0.06135367974638939
v -0.023056799545884132 -0.07581006735563278 0.060828741639852524
v -0.023110440000891685 -0.07579033821821213 0.06135367974638939
v -0.023795360699295998 -0.07616984099149704 0.06182276830077171
v -0.023571429774165154 -0.07572788000106812 0.06149423122406006
v -0.023795360699295998 -0.07616984099149704 0.06182276830077171
v -0.023110440000891685 -0.07579033821821213 0.06135367974638939
v -0.022758539766073227 -0.07635437697172165 0.06114310026168823
v -0.0246846005320549 -0.07603263109922409 0.06293313950300217
v -0.02503311075270176 -0.07547891139984131 0.06269878149032593
v -0.025718210265040398 -0.0758589506149292 0.06222933158278465
v -0.02503311075270176 -0.07547891139984131 0.06269878149032593
v -0.0246846005320549 -0.07603263109922409 0.06293313950300217
v -0.02493535913527012 -0.07549422234296799 0.063059501349926
v -0.02546459063887596 -0.07591301202774048 0.06376361101865768
v -0.02512592077255249 -0.075467050075531 0.06337826699018478
v -0.0246846005320549 -0.07603263109922409 0.06293313950300217
v -0.02512592077255249 -0.075467050075531 0.06337826699018478
v -0.02493535913527012 -0.07549422234296799 0.063059501349926
v -0.0246846005320549 -0.07603263109922409 0.06293313950300217
v -0.02512592077255249 -0.075467050075531 0.06337826699018478
v -0.02546459063887596 -0.07591301202774048 0.06376361101865768
v -0.0255658607929945 -0.07539110630750656 0.06343197077512741
v -0.02549397014081478 -0.07541649788618088 0.06255822628736496
v -0.025718210265040398 -0.0758589506149292 0.06222933158278465
v -0.02503311075270176 -0.07547891139984131 0.06269878149032593
v -0.026193080469965935 -0.07579510658979416 0.06321024149656296
v -0.0255658607929945 -0.07539110630750656 0.06343197077512741
v -0.02546459063887596 -0.07591301202774048 0.06376361101865768
v -0.026193080469965935 -0.07579510658979416 0.06321024149656296
v -0.02584606036543846 -0.07536023110151291 0.0629998967051506
v -0.0255658607929945 -0.07539110630750656 0.06343197077512741
v -0.02584606036543846 -0.07536023110151291 0.0629998967051506
v -0.025718210265040398 -0.0758589506149292 0.06222933158278465
v -0.02549397014081478 -0.07541649788618088 0.06255822628736496
v -0.025718210265040398 -0.0758589506149292 0.06222933158278465
v -0.02584606036543846 -0.07536023110151291 0.0629998967051506
v -0.026193080469965935 -0.07579510658979416 0.06321024149656296
v -0.021951310336589813 -0.07651715725660324 0.06288491934537888
v -0.02254902943968773 -0.07587540149688721 0.06272155046463013
v -0.02275240048766136 -0.07635235041379929 0.06242853030562401
v -0.021951310336589813 -0.07651715725660324 0.06288491934537888
v -0.022236699238419533 -0.0759376809000969 0.0630827471613884
v -0.02254902943968773 -0.07587540149688721 0.06272155046463013
v -0.021951310336589813 -0.07651715725660324 0.06288491934537888
v -0.022348040714859962 -0.07591015100479126 0.06354688853025436
v -0.022236699238419533 -0.0759376809000969 0.0630827471613884
v -0.022494850680232048 -0.07637857645750046 0.06396137923002243
v -0.022348040714859962 -0.07591015100479126 0.06354688853025436
v -0.021951310336589813 -0.07651715725660324 0.06288491934537888
v -0.022348040714859962 -0.07591015100479126 0.06354688853025436
v -0.022494850680232048 -0.07637857645750046 0.06396137923002243
v -0.022852709516882896 -0.0758281871676445 0.06362879276275635
v -0.023527320474386215 -0.07622020691633224 0.0632556602358818
v -0.022852709516882896 -0.0758281871676445 0.06362879276275635
v -0.022494850680232048 -0.07637857645750046 0.06396137923002243
v -0.023527320474386215 -0.07622020691633224 0.0632556602358818
v -0.02311073988676071 -0.07579611986875534 0.063301682472229
v -0.022852709516882896 -0.0758281871676445 0.06362879276275635
v -0.023527320474386215 -0.07622020691633224 0.0632556602358818
v -0.023024730384349823 -0.07580416649580002 0.06289105862379074
v -0.02311073988676071 -0.07579611986875534 0.063301682472229
v -0.02275240048766136 -0.07635235041379929 0.06242853030562401
v -0.023024730384349823 -0.07580416649580002 0.06289105862379074
v -0.023527320474386215 -0.07622020691633224 0.0632556602358818
v -0.02275240048766136 -0.07635235041379929 0.06242853030562401
v -0.02254902943968773 -0.07587540149688721 0.06272155046463013
v -0.023024730384349823 -0.07580416649580002 0.06289105862379074
v -0.028248310089111328 -0.07526402920484543 0.06021188944578171
v -0.02590464986860752 -0.07585179060697556 0.059454020112752914
v -0.02829216979444027 -0.07545769214630127 0.060807760804891586
v -0.023185009136795998 -0.0760299488902092 0.06629115343093872
v -0.023516830056905746 -0.07625377178192139 0.06599456071853638
v -0.021890809759497643 -0.0764315128326416 0.06439507007598877
v -0.023185009136795998 -0.0760299488902092 0.06629115343093872
v -0.021890809759497643 -0.0764315128326416 0.06439507007598877
v -0.02208906039595604 -0.0761570930480957 0.06513386219739914
v -0.02657591924071312 -0.07561551779508591 0.059235330671072006
v -0.02590464986860752 -0.07585179060697556 0.059454020112752914
v -0.028248310089111328 -0.07526402920484543 0.06021188944578171
v -0.02467441000044346 -0.07581853121519089 0.06688886135816574
v -0.02599853090941906 -0.07586067169904709 0.06653677672147751
v -0.023516830056905746 -0.07625377178192139 0.06599456071853638
v -0.02467441000044346 -0.07581853121519089 0.06688886135816574
v -0.023516830056905746 -0.07625377178192139 0.06599456071853638
v -0.023185009136795998 -0.0760299488902092 0.06629115343093872
v -0.02657591924071312 -0.07561551779508591 0.059235330671072006
v -0.023497460409998894 -0.07622402161359787 0.05982869118452072
v -0.02590464986860752 -0.07585179060697556 0.059454020112752914
v -0.025258179754018784 -0.07570481300354004 0.059024628251791
v -0.023497460409998894 -0.07622402161359787 0.05982869118452072
v -0.02657591924071312 -0.07561551779508591 0.059235330671072006
v -0.026279089972376823 -0.07554637640714645 0.06689631193876266
v -0.02599853090941906 -0.07586067169904709 0.06653677672147751
v -0.02467441000044346 -0.07581853121519089 0.06688886135816574
v -0.023968929424881935 -0.07593446224927902 0.059329211711883545
v -0.023497460409998894 -0.07622402161359787 0.05982869118452072
v -0.025258179754018784 -0.07570481300354004 0.059024628251791
v -0.02925115078687668 -0.07498811930418015 0.06400685757398605
v -0.02851741947233677 -0.07539165019989014 0.06497489660978317
v -0.0286366306245327 -0.07512062042951584 0.0651741623878479
v -0.026279089972376823 -0.07554637640714645 0.06689631193876266
v -0.02734261006116867 -0.07559633255004883 0.06613433361053467
v -0.02599853090941906 -0.07586067169904709 0.06653677672147751
v -0.026279089972376823 -0.07554637640714645 0.06689631193876266
v -0.027571260929107666 -0.07532680034637451 0.0662563368678093
v -0.02734261006116867 -0.07559633255004883 0.06613433361053467
v -0.02890907973051071 -0.07536237686872482 0.06345701217651367
v -0.0283657293766737 -0.07544659823179245 0.06434916704893112
v -0.02851741947233677 -0.07539165019989014 0.06497489660978317
v -0.029185229912400246 -0.07528989762067795 0.0626407191157341
v -0.02890907973051071 -0.07536237686872482 0.06345701217651367
v -0.02851741947233677 -0.07539165019989014 0.06497489660978317
v -0.02925115078687668 -0.07498811930418015 0.06400685757398605
v -0.029185229912400246 -0.07528989762067795 0.0626407191157341
v -0.02851741947233677 -0.07539165019989014 0.06497489660978317
v -0.022610660642385483 -0.07611905783414841 0.060218751430511475
v -0.023497460409998894 -0.07622402161359787 0.05982869118452072
v -0.023968929424881935 -0.07593446224927902 0.059329211711883545
v -0.022610660642385483 -0.07611905783414841 0.060218751430511475
v -0.02195614017546177 -0.07638835161924362 0.061346348375082016
v -0.023497460409998894 -0.07622402161359787 0.05982869118452072
v -0.02195614017546177 -0.07638835161924362 0.061346348375082016
v -0.022758539766073227 -0.07635437697172165 0.06114310026168823
v -0.023361140862107277 -0.07627575844526291 0.060263991355895996
v -0.029268139973282814 -0.07498537749052048 0.06206541880965233
v -0.029185229912400246 -0.07528989762067795 0.0626407191157341
v -0.02925115078687668 -0.07498811930418015 0.06400685757398605
v -0.023497460409998894 -0.07622402161359787 0.05982869118452072
v -0.02195614017546177 -0.07638835161924362 0.061346348375082016
v -0.023361140862107277 -0.07627575844526291 0.060263991355895996
v -0.02143614925444126 -0.07621151208877563 0.06299089640378952
v -0.021951310336589813 -0.07651715725660324 0.06288491934537888
v -0.02195614017546177 -0.07638835161924362 0.061346348375082016
v -0.028248310089111328 -0.07526402920484543 0.06021188944578171
v -0.02829216979444027 -0.07545769214630127 0.060807760804891586
v -0.029185229912400246 -0.07528989762067795 0.0626407191157341
v -0.028248310089111328 -0.07526402920484543 0.06021188944578171
v -0.029185229912400246 -0.07528989762067795 0.0626407191157341
v -0.029268139973282814 -0.07498537749052048 0.06206541880965233
v -0.02143614925444126 -0.07621151208877563 0.06299089640378952
v -0.021890809759497643 -0.0764315128326416 0.06439507007598877
v -0.021951310336589813 -0.07651715725660324 0.06288491934537888
v -0.022912800312042236 -0.06843864172697067 0.06687986105680466
v -0.026279089972376823 -0.07554637640714645 0.06689631193876266
v -0.02467441000044346 -0.07581853121519089 0.06688886135816574
v -0.020755289122462273 -0.06878811120986938 0.06089632958173752
v -0.02195614017546177 -0.07638835161924362 0.061346348375082016
v -0.022610660642385483 -0.07611905783414841 0.060218751430511475
v -0.022912800312042236 -0.06843864172697067 0.06687986105680466
v -0.02467441000044346 -0.07581853121519089 0.06688886135816574
v -0.023185009136795998 -0.0760299488902092 0.06629115343093872
v -0.023542160168290138 -0.06833671778440475 0.058901719748973846
v -0.020755289122462273 -0.06878811120986938 0.06089632958173752
v -0.022610660642385483 -0.07611905783414841 0.060218751430511475
v -0.023542160168290138 -0.06833671778440475 0.058901719748973846
v -0.022610660642385483 -0.07611905783414841 0.060218751430511475
v -0.023968929424881935 -0.07593446224927902 0.059329211711883545
v -0.020346220582723618 -0.06885433197021484 0.06440401077270508
v -0.022912800312042236 -0.06843864172697067 0.06687986105680466
v -0.023185009136795998 -0.0760299488902092 0.06629115343093872
v -0.020346220582723618 -0.06885433197021484 0.06440401077270508
v -0.023185009136795998 -0.0760299488902092 0.06629115343093872
v -0.02208906039595604 -0.0761570930480957 0.06513386219739914
v -0.023542160168290138 -0.06833671778440475 0.058901719748973846
v -0.023968929424881935 -0.07593446224927902 0.059329211711883545
v -0.025258179754018784 -0.07570481300354004 0.059024628251791
v -0.020346220582723618 -0.06885433197021484 0.06440401077270508
v -0.02208906039595604 -0.0761570930480957 0.06513386219739914
v -0.021890809759497643 -0.0764315128326416 0.06439507007598877
v -0.020346220582723618 -0.06885433197021484 0.06440401077270508
v -0.021890809759497643 -0.0764315128326416 0.06439507007598877
v -0.02143614925444126 -0.07621151208877563 0.06299089640378952
v -0.020755289122462273 -0.06878811120986938 0.06089632958173752
v -0.020346220582723618 -0.06885433197021484 0.06440401077270508
v -0.02143614925444126 -0.07621151208877563 0.06299089640378952
v -0.020755289122462273 -0.06878811120986938 0.06089632958173752
v -0.02143614925444126 -0.07621151208877563 0.06299089640378952
v -0.02195614017546177 -0.07638835161924362 0.061346348375082016
v -0.026345370337367058 -0.06788551062345505 0.06642644852399826
v -0.027571260929107666 -0.07532680034637451 0.0662563368678093
v -0.026279089972376823 -0.07554637640714645 0.06689631193876266
v -0.022912800312042236 -0.06843864172697067 0.06687986105680466
v -0.026345370337367058 -0.06788551062345505 0.06642644852399826
v -0.026279089972376823 -0.07554637640714645 0.06689631193876266
v -0.027113130316138268 -0.07560843229293823 0.06537377089262009
v -0.027571260929107666 -0.07532680034637451 0.0662563368678093
v -0.027384279295802116 -0.07537031173706055 0.06597273796796799
v -0.027113130316138268 -0.07560843229293823 0.06537377089262009
v -0.02734261006116867 -0.07559633255004883 0.06613433361053467
v -0.027571260929107666 -0.07532680034637451 0.0662563368678093
v -0.026548439636826515 -0.066825270652771 0.06472676247358322
v -0.027679620310664177 -0.07551705092191696 0.06472884863615036
v -0.025738710537552834 -0.06695640087127686 0.06538522243499756
v -0.027679620310664177 -0.07551705092191696 0.06472884863615036
v -0.027113130316138268 -0.07560843229293823 0.06537377089262009
v -0.025738710537552834 -0.06695640087127686 0.06538522243499756
v -0.027113130316138268 -0.07560843229293823 0.06537377089262009
v -0.027384279295802116 -0.07537031173706055 0.06597273796796799
v -0.025738710537552834 -0.06695640087127686 0.06538522243499756
v -0.025738710537552834 -0.06695640087127686 0.06538522243499756
v -0.027384279295802116 -0.07537031173706055 0.06597273796796799
v -0.026008179411292076 -0.06693433970212936 0.06596165150403976
v -0.027068549767136574 -0.06730306148529053 0.06497024744749069
v -0.026548439636826515 -0.066825270652771 0.06472676247358322
v -0.026989629492163658 -0.06675373762845993 0.0649799108505249
v -0.027068549767136574 -0.06730306148529053 0.06497024744749069
v -0.02851741947233677 -0.07539165019989014 0.06497489660978317
v -0.026548439636826515 -0.066825270652771 0.06472676247358322
v -0.02851741947233677 -0.07539165019989014 0.06497489660978317
v -0.027679620310664177 -0.07551705092191696 0.06472884863615036
v -0.026548439636826515 -0.066825270652771 0.06472676247358322
v -0.02812284044921398 -0.06759475916624069 0.06389068812131882
v -0.02925115078687668 -0.07498811930418015 0.06400685757398605
v -0.0286366306245327 -0.07512062042951584 0.0651741623878479
v -0.027479520067572594 -0.0676887035369873 0.0651196762919426
v -0.02812284044921398 -0.06759475916624069 0.06389068812131882
v -0.0286366306245327 -0.07512062042951584 0.0651741623878479
v -0.023542160168290138 -0.06833671778440475 0.058901719748973846
v -0.025258179754018784 -0.07570481300354004 0.059024628251791
v -0.02657591924071312 -0.07561551779508591 0.059235330671072006
v -0.026342859491705894 -0.06788306683301926 0.059584490954875946
v -0.023542160168290138 -0.06833671778440475 0.058901719748973846
v -0.02657591924071312 -0.07561551779508591 0.059235330671072006
v -0.026342859491705894 -0.06788306683301926 0.059584490954875946
v -0.02657591924071312 -0.07561551779508591 0.059235330671072006
v -0.028248310089111328 -0.07526402920484543 0.06021188944578171
v -0.027900870889425278 -0.06763076037168503 0.0613441988825798
v -0.026342859491705894 -0.06788306683301926 0.059584490954875946
v -0.028248310089111328 -0.07526402920484543 0.06021188944578171
v -0.027900870889425278 -0.06763076037168503 0.0613441988825798
v -0.028248310089111328 -0.07526402920484543 0.06021188944578171
v -0.029268139973282814 -0.07498537749052048 0.06206541880965233
v -0.02812284044921398 -0.06759475916624069 0.06389068812131882
v -0.027900870889425278 -0.06763076037168503 0.0613441988825798
v -0.029268139973282814 -0.07498537749052048 0.06206541880965233
v -0.02812284044921398 -0.06759475916624069 0.06389068812131882
v -0.029268139973282814 -0.07498537749052048 0.06206541880965233
v -0.02925115078687668 -0.07498811930418015 0.06400685757398605
v -0.02851741947233677 -0.07539165019989014 0.06497489660978317
v -0.027068549767136574 -0.06730306148529053 0.06497024744749069
v -0.027479520067572594 -0.0676887035369873 0.0651196762919426
v -0.02851741947233677 -0.07539165019989014 0.06497489660978317
v -0.027479520067572594 -0.0676887035369873 0.0651196762919426
v -0.0286366306245327 -0.07512062042951584 0.0651741623878479
v -0.027571260929107666 -0.07532680034637451 0.0662563368678093
v -0.027474990114569664 -0.0751957818865776 0.0660843774676323
v -0.027384279295802116 -0.07537031173706055 0.06597273796796799
v -0.026336070150136948 -0.06774353235960007 0.06606899946928024
v -0.027474990114569664 -0.0751957818865776 0.0660843774676323
v -0.027571260929107666 -0.07532680034637451 0.0662563368678093
v -0.026345370337367058 -0.06788551062345505 0.06642644852399826
v -0.026336070150136948 -0.06774353235960007 0.06606899946928024
v -0.027571260929107666 -0.07532680034637451 0.0662563368678093
vn -0.5439256401403437 -0.055983897007615954 0.8372638182041297
vn -0.5439256401403437 -0.055983897007615954 0.8372638182041297
vn -0.5439256401403437 -0.055983897007615954 0.8372638182041297
vn -0.8610311375644237 -0.4865111835826295 0.148095403012867
vn -0.8610311375644237 -0.4865111835826295 0.148095403012867
vn -0.8610311375644237 -0.4865111835826295 0.148095403012867
vn -0.7654194229110172 -0.11414609094415921 -0.6333275431818304
vn -0.7654194229110172 -0.11414609094415921 -0.6333275431818304
vn -0.7654194229110172 -0.11414609094415921 -0.6333275431818304
vn -0.8245934762020461 -0.39757868252227996 -0.40246340232233974
vn -0.8245934762020461 -0.39757868252227996 -0.40246340232233974
vn -0.8245934762020461 -0.39757868252227996 -0.40246340232233974
vn -0.3224113862797343 -0.4499703023434757 0.8328130792717541
vn -0.3224113862797343 -0.4499703023434757 0.8328130792717541
vn -0.3224113862797343 -0.4499703023434757 0.8328130792717541
vn 0.41175836038440145 -0.2735275607167105 -0.8692742525704505
vn 0.41175836038440145 -0.2735275607167105 -0.8692742525704505
vn 0.41175836038440145 -0.2735275607167105 -0.8692742525704505
vn 0.16303079158919884 -0.4752387798275426 -0.8646207626131978
vn 0.16303079158919884 -0.4752387798275426 -0.8646207626131978
vn 0.16303079158919884 -0.4752387798275426 -0.8646207626131978
vn 0.6359065512039723 -0.6966866567028461 -0.33203999835574116
vn 0.6359065512039723 -0.6966866567028461 -0.33203999835574116
vn 0.6359065512039723 -0.6966866567028461 -0.33203999835574116
vn 0.5581401973472979 -0.6555000894059066 0.5087230610990302
vn 0.5581401973472979 -0.6555000894059066 0.5087230610990302
vn 0.5581401973472979 -0.6555000894059066 0.5087230610990302
vn 0.8203736779242953 -0.41372559662640784 0.3947380894531051
vn 0.8203736779242953 -0.41372559662640784 0.3947380894531051
vn 0.8203736779242953 -0.41372559662640784 0.3947380894531051
vn -0.10242359215696673 -0.9945141552206491 0.021236827338891866
vn -0.10242359215696673 -0.9945141552206491 0.021236827338891866
vn -0.10242359215696673 -0.9945141552206491 0.021236827338891866
vn -0.16626977441237104 -0.9860368086771374 0.009261428111549199
vn -0.16626977441237104 -0.9860368086771374 0.009261428111549199
vn -0.16626977441237104 -0.9860368086771374 0.009261428111549199
vn -0.15786468594541644 -0.9874038453507957 0.010601279065120884
vn -0.15786468594541644 -0.9874038453507957 0.010601279065120884
vn -0.15786468594541644 -0.9874038453507957 0.010601279065120884
vn -0.18688249154085362 -0.9821588765022478 -0.02094935949677715
vn -0.18688249154085362 -0.9821588765022478 -0.02094935949677715
vn -0.18688249154085362 -0.9821588765022478 -0.02094935949677715
vn -0.16008208336236807 -0.9871036190914289 -0.0004144429602737094
vn -0.16008208336236807 -0.9871036190914289 -0.0004144429602737094
vn -0.16008208336236807 -0.9871036190914289 -0.0004144429602737094
vn -0.15950478452936043 -0.9871970911862921 -0.00035618192856487637
vn -0.15950478452936043 -0.9871970911862921 -0.00035618192856487637
vn -0.15950478452936043 -0.9871970911862921 -0.00035618192856487637
vn -0.1574194764045447 -0.9875311473245137 0.0011582367843272138
vn -0.1574194764045447 -0.9875311473245137 0.0011582367843272138
vn -0.1574194764045447 -0.9875311473245137 0.0011582367843272138
vn -0.20097750331335512 -0.9785584761625807 -0.04507052132268082
vn -0.20097750331335512 -0.9785584761625807 -0.04507052132268082
vn -0.20097750331335512 -0.9785584761625807 -0.04507052132268082
vn -0.15551368537504512 -0.9877931250348114 -0.008957443554548153
vn -0.15551368537504512 -0.9877931250348114 -0.008957443554548153
vn -0.15551368537504512 -0.9877931250348114 -0.008957443554548153
vn -0.16318031002912978 -0.986570736915463 -0.007097005063940209
vn -0.16318031002912978 -0.986570736915463 -0.007097005063940209
vn -0.16318031002912978 -0.986570736915463 -0.007097005063940209
vn -0.1320149911916353 -0.9897263150444942 0.05489866491199123
vn -0.1320149911916353 -0.9897263150444942 0.05489866491199123
vn -0.1320149911916353 -0.9897263150444942 0.05489866491199123
vn -0.15127060161977854 -0.9884911404766091 0.001571713982570543
vn -0.15127060161977854 -0.9884911404766091 0.001571713982570543
vn -0.15127060161977854 -0.9884911404766091 0.001571713982570543
vn -0.1653511815055511 -0.9862315612000435 0.0025088777656869115
vn -0.1653511815055511 -0.9862315612000435 0.0025088777656869115
vn -0.1653511815055511 -0.9862315612000435 0.0025088777656869115
vn -0.15862068692556228 -0.9873267510942085 -0.005036293579349102
vn -0.15862068692556228 -0.9873267510942085 -0.005036293579349102
vn -0.15862068692556228 -0.9873267510942085 -0.005036293579349102
vn -0.1583126080255864 -0.9873692058847632 0.006258547006211905
vn -0.1583126080255864 -0.9873692058847632 0.006258547006211905
vn -0.1583126080255864 -0.9873692058847632 0.006258547006211905
vn -0.1610542957723148 -0.9869204605827673 -0.007036923786880426
vn -0.1610542957723148 -0.9869204605827673 -0.007036923786880426
vn -0.1610542957723148 -0.9869204605827673 -0.007036923786880426
vn -0.15627049233601273 -0.9876489247968062 -0.0113637393833442
vn -0.15627049233601273 -0.9876489247968062 -0.0113637393833442
vn -0.15627049233601273 -0.9876489247968062 -0.0113637393833442
vn -0.1574268087213486 -0.9874983706990095 0.0079854719718793
vn -0.1574268087213486 -0.9874983706990095 0.0079854719718793
vn -0.1574268087213486 -0.9874983706990095 0.0079854719718793
vn -0.16243569291849214 -0.9866070588818603 0.014871349319237868
vn -0.16243569291849214 -0.9866070588818603 0.014871349319237868
vn -0.16243569291849214 -0.9866070588818603 0.014871349319237868
vn -0.13078589376993235 -0.9895104493200989 0.06135243008337829
vn -0.13078589376993235 -0.9895104493200989 0.06135243008337829
vn -0.13078589376993235 -0.9895104493200989 0.06135243008337829
vn -0.17086519120243068 -0.9852908149472558 -0.002663909895113675
vn -0.17086519120243068 -0.9852908149472558 -0.002663909895113675
vn -0.17086519120243068 -0.9852908149472558 -0.002663909895113675
vn -0.15086728582654335 -0.9885537787009495 0.0006990589432884391
vn -0.15086728582654335 -0.9885537787009495 0.0006990589432884391
vn -0.15086728582654335 -0.9885537787009495 0.0006990589432884391
vn -0.22049617128660365 -0.9749648288612985 -0.02872317759941646
vn -0.22049617128660365 -0.9749648288612985 -0.02872317759941646
vn -0.22049617128660365 -0.9749648288612985 -0.02872317759941646
vn -0.12859319080494316 -0.9905065244197788 0.04858617458139112
vn -0.12859319080494316 -0.9905065244197788 0.04858617458139112
vn -0.12859319080494316 -0.9905065244197788 0.04858617458139112
vn -0.19124199736583727 -0.9811158923299158 0.028950030417920002
vn -0.19124199736583727 -0.9811158923299158 0.028950030417920002
vn -0.19124199736583727 -0.9811158923299158 0.028950030417920002
vn -0.16445068886856415 -0.9863837880505363 0.0017302028001479214
vn -0.16445068886856415 -0.9863837880505363 0.0017302028001479214
vn -0.16445068886856415 -0.9863837880505363 0.0017302028001479214
vn -0.19424800339669787 -0.9805092096861259 0.029485638827831426
vn -0.19424800339669787 -0.9805092096861259 0.029485638827831426
vn -0.19424800339669787 -0.9805092096861259 0.029485638827831426
vn -0.1640688779368534 -0.9859278216470774 -0.03205828745879617
vn -0.1640688779368534 -0.9859278216470774 -0.03205828745879617
vn -0.1640688779368534 -0.9859278216470774 -0.03205828745879617
vn -0.17371470077260473 -0.984793145923618 0.002379596047270564
vn -0.17371470077260473 -0.984793145923618 0.002379596047270564
vn -0.17371470077260473 -0.984793145923618 0.002379596047270564
vn -0.12443599907599687 -0.9920948193744785 -0.016234269440893595
vn -0.12443599907599687 -0.9920948193744785 -0.016234269440893595
vn -0.12443599907599687 -0.9920948193744785 -0.016234269440893595
vn -0.15458258674712858 -0.9879111448365212 0.011653058927182063
vn -0.15458258674712858 -0.9879111448365212 0.011653058927182063
vn -0.15458258674712858 -0.9879111448365212 0.011653058927182063
vn -0.1550071971296606 -0.9878114973616262 0.014185010334452018
vn -0.1550071971296606 -0.9878114973616262 0.014185010334452018
vn -0.1550071971296606 -0.9878114973616262 0.014185010334452018
vn -0.15652869255865415 -0.9876619333903607 -0.004761694813096087
vn -0.15652869255865415 -0.9876619333903607 -0.004761694813096087
vn -0.15652869255865415 -0.9876619333903607 -0.004761694813096087
vn -0.2028948783704565 -0.9791973088572857 0.002509712670177046
vn -0.2028948783704565 -0.9791973088572857 0.002509712670177046
vn -0.2028948783704565 -0.9791973088572857 0.002509712670177046
vn -0.2130681903026651 -0.9757951638440661 -0.049251847677821974
vn -0.2130681903026651 -0.9757951638440661 -0.049251847677821974
vn -0.2130681903026651 -0.9757951638440661 -0.049251847677821974
vn -0.16751469596755314 -0.9858674958929429 0.00202661705227668
vn -0.16751469596755314 -0.9858674958929429 0.00202661705227668
vn -0.16751469596755314 -0.9858674958929429 0.00202661705227668
vn -0.21805347650608348 -0.9692455596119945 -0.11408648717548707
vn -0.21805347650608348 -0.9692455596119945 -0.11408648717548707
vn -0.21805347650608348 -0.9692455596119945 -0.11408648717548707
vn -0.15692776806312206 -0.987595163888092 0.005428432147459963
vn -0.15692776806312206 -0.987595163888092 0.005428432147459963
vn -0.15692776806312206 -0.987595163888092 0.005428432147459963
vn -0.16887961438385662 -0.9856331412826348 0.002643227361651256
vn -0.16887961438385662 -0.9856331412826348 0.002643227361651256
vn -0.16887961438385662 -0.9856331412826348 0.002643227361651256
vn -0.021072682315702043 -0.9962984475956017 -0.08333873876304938
vn -0.021072682315702043 -0.9962984475956017 -0.08333873876304938
vn -0.021072682315702043 -0.9962984475956017 -0.08333873876304938
vn -0.16135180436711186 -0.9868840844472586 0.005039751201533278
vn -0.16135180436711186 -0.9868840844472586 0.005039751201533278
vn -0.16135180436711186 -0.9868840844472586 0.005039751201533278
vn -0.16478778189119106 -0.9855282763513535 -0.039736676399910305
vn -0.16478778189119106 -0.9855282763513535 -0.039736676399910305
vn -0.16478778189119106 -0.9855282763513535 -0.039736676399910305
vn -0.14982738794921194 -0.9887085361655142 -0.0026803607522901695
vn -0.14982738794921194 -0.9887085361655142 -0.0026803607522901695
vn -0.14982738794921194 -0.9887085361655142 -0.0026803607522901695
vn -0.15899948895661942 -0.9872691109715779 0.004343389566211496
vn -0.15899948895661942 -0.9872691109715779 0.004343389566211496
vn -0.15899948895661942 -0.9872691109715779 0.004343389566211496
vn -0.15915800412430972 -0.9872531159216156 0.00012176299620574468
vn -0.15915800412430972 -0.9872531159216156 0.00012176299620574468
vn -0.15915800412430972 -0.9872531159216156 0.00012176299620574468
vn -0.15657420764588523 -0.9876433805310234 0.006713448690140972
vn -0.15657420764588523 -0.9876433805310234 0.006713448690140972
vn -0.15657420764588523 -0.9876433805310234 0.006713448690140972
vn -0.43623253400385587 -0.545844074275977 0.7153708289092982
vn -0.43623253400385587 -0.545844074275977 0.7153708289092982
vn -0.43623253400385587 -0.545844074275977 0.7153708289092982
vn -0.9087294971973305 -0.4101053492486917 0.07761638642126772
vn -0.9087294971973305 -0.4101053492486917 0.07761638642126772
vn -0.9087294971973305 -0.4101053492486917 0.07761638642126772
vn -0.9290725691698131 -0.27097106280033945 0.2517912713758314
vn -0.9290725691698131 -0.27097106280033945 0.2517912713758314
vn -0.9290725691698131 -0.27097106280033945 0.2517912713758314
vn -0.6916591603183706 -0.23847458035831268 -0.6817165690157554
vn -0.6916591603183706 -0.23847458035831268 -0.6817165690157554
vn -0.6916591603183706 -0.23847458035831268 -0.6817165690157554
vn -0.41812647846639844 -0.558997233327708 -0.7160253774394147
vn -0.41812647846639844 -0.558997233327708 -0.7160253774394147
vn -0.41812647846639844 -0.558997233327708 -0.7160253774394147
vn 0.587109510033591 -0.4003413644227456 -0.7035831259774861
vn 0.587109510033591 -0.4003413644227456 -0.7035831259774861
vn 0.587109510033591 -0.4003413644227456 -0.7035831259774861
vn 0.6037389052680769 -0.5392093073732221 -0.5871564162195573
vn 0.6037389052680769 -0.5392093073732221 -0.5871564162195573
vn 0.6037389052680769 -0.5392093073732221 -0.5871564162195573
vn 0.7255542894228618 -0.6695218700645269 0.15909569009053973
vn 0.7255542894228618 -0.6695218700645269 0.15909569009053973
vn 0.7255542894228618 -0.6695218700645269 0.15909569009053973
vn 0.7713020404104126 -0.43141522780895164 0.46794664618232334
vn 0.7713020404104126 -0.43141522780895164 0.46794664618232334
vn 0.7713020404104126 -0.43141522780895164 0.46794664618232334
vn 0.27152852000822375 -0.6008566789878242 0.7518267846637725
vn 0.27152852000822375 -0.6008566789878242 0.7518267846637725
vn 0.27152852000822375 -0.6008566789878242 0.7518267846637725
vn -0.08156490438603106 -0.36658591538437235 0.9268019923448046
vn -0.08156490438603106 -0.36658591538437235 0.9268019923448046
vn -0.08156490438603106 -0.36658591538437235 0.9268019923448046
vn -0.9061937402560265 -0.4183406862337067 0.06167637604710917
vn -0.9061937402560265 -0.4183406862337067 0.06167637604710917
vn -0.9061937402560265 -0.4183406862337067 0.06167637604710917
vn -0.9105013783961292 -0.1062293967163852 0.39962802105460754
vn -0.9105013783961292 -0.1062293967163852 0.39962802105460754
vn -0.9105013783961292 -0.1062293967163852 0.39962802105460754
vn -0.5176342210785129 -0.21809578283501094 -0.8273385296709111
vn -0.5176342210785129 -0.21809578283501094 -0.8273385296709111
vn -0.5176342210785129 -0.21809578283501094 -0.8273385296709111
vn -0.45603523630661674 -0.33320800180381227 -0.8252298411840661
vn -0.45603523630661674 -0.33320800180381227 -0.8252298411840661
vn -0.45603523630661674 -0.33320800180381227 -0.8252298411840661
vn -0.42065517054790286 -0.5423913719335502 0.727228180933162
vn -0.42065517054790286 -0.5423913719335502 0.727228180933162
vn -0.42065517054790286 -0.5423913719335502 0.727228180933162
vn 0.689103086835228 -0.3555013938164449 -0.6314710561132041
vn 0.689103086835228 -0.3555013938164449 -0.6314710561132041
vn 0.689103086835228 -0.3555013938164449 -0.6314710561132041
vn 0.6741059837800736 -0.5740690077406077 -0.46478586142826406
vn 0.6741059837800736 -0.5740690077406077 -0.46478586142826406
vn 0.6741059837800736 -0.5740690077406077 -0.46478586142826406
vn 0.6650527715785689 -0.7319245338552974 0.14829459786644114
vn 0.6650527715785689 -0.7319245338552974 0.14829459786644114
vn 0.6650527715785689 -0.7319245338552974 0.14829459786644114
vn 0.46884048760917474 -0.18701938104166366 0.8632568263808774
vn 0.46884048760917474 -0.18701938104166366 0.8632568263808774
vn 0.46884048760917474 -0.18701938104166366 0.8632568263808774
vn 0.37392047830839326 -0.2923287810522469 0.8801859801599489
vn 0.37392047830839326 -0.2923287810522469 0.8801859801599489
vn 0.37392047830839326 -0.2923287810522469 0.8801859801599489
vn -0.8570816985766507 -0.13952839167538694 0.4959261939860031
vn -0.8570816985766507 -0.13952839167538694 0.4959261939860031
vn -0.8570816985766507 -0.13952839167538694 0.4959261939860031
vn -0.8998442027215479 -0.4061250567044457 0.1591943753567717
vn -0.8998442027215479 -0.4061250567044457 0.1591943753567717
vn -0.8998442027215479 -0.4061250567044457 0.1591943753567717
vn -0.7431019598580861 -0.321045579858189 -0.5871364516946553
vn -0.7431019598580861 -0.321045579858189 -0.5871364516946553
vn -0.7431019598580861 -0.321045579858189 -0.5871364516946553
vn -0.5672529471347585 -0.01388834821605174 -0.8234265041585439
vn -0.5672529471347585 -0.01388834821605174 -0.8234265041585439
vn -0.5672529471347585 -0.01388834821605174 -0.8234265041585439
vn -0.34689227658118177 -0.5334676644319074 0.7714129889066498
vn -0.34689227658118177 -0.5334676644319074 0.7714129889066498
vn -0.34689227658118177 -0.5334676644319074 0.7714129889066498
vn 0.8909482927134683 -0.4124785350341707 -0.1899278753817361
vn 0.8909482927134683 -0.4124785350341707 -0.1899278753817361
vn 0.8909482927134683 -0.4124785350341707 -0.1899278753817361
vn 0.9266530283210964 -0.18370130673743643 -0.3279756012362804
vn 0.9266530283210964 -0.18370130673743643 -0.3279756012362804
vn 0.9266530283210964 -0.18370130673743643 -0.3279756012362804
vn 0.45171851748474334 -0.7532935876767454 0.47801584882353376
vn 0.45171851748474334 -0.7532935876767454 0.47801584882353376
vn 0.45171851748474334 -0.7532935876767454 0.47801584882353376
vn 0.11248009467654602 -0.333557391663412 0.935995563434067
vn 0.11248009467654602 -0.333557391663412 0.935995563434067
vn 0.11248009467654602 -0.333557391663412 0.935995563434067
vn 0.1398729981141435 -0.652810216486513 -0.7444960481086469
vn 0.1398729981141435 -0.652810216486513 -0.7444960481086469
vn 0.1398729981141435 -0.652810216486513 -0.7444960481086469
vn -0.5041071205990107 -0.10290059507425983 0.8574890544460247
vn -0.5041071205990107 -0.10290059507425983 0.8574890544460247
vn -0.5041071205990107 -0.10290059507425983 0.8574890544460247
vn -0.731928561086795 -0.42136369646227323 0.5354747582931085
vn -0.731928561086795 -0.42136369646227323 0.5354747582931085
vn -0.731928561086795 -0.42136369646227323 0.5354747582931085
vn -0.935568167960014 -0.3085270868552509 -0.17182328065939032
vn -0.935568167960014 -0.3085270868552509 -0.17182328065939032
vn -0.935568167960014 -0.3085270868552509 -0.17182328065939032
vn -0.9048688422981581 -0.039596725304563374 -0.42384487443302415
vn -0.9048688422981581 -0.039596725304563374 -0.42384487443302415
vn -0.9048688422981581 -0.039596725304563374 -0.42384487443302415
vn -0.36204478405434665 -0.579604808690862 -0.7300560526983326
vn -0.36204478405434665 -0.579604808690862 -0.7300560526983326
vn -0.36204478405434665 -0.579604808690862 -0.7300560526983326
vn 0.4615104962118914 -0.2353974961284587 -0.8553339001248026
vn 0.4615104962118914 -0.2353974961284587 -0.8553339001248026
vn 0.4615104962118914 -0.2353974961284587 -0.8553339001248026
vn 0.5648617127007011 -0.6057082987734247 -0.5604004838700929
vn 0.5648617127007011 -0.6057082987734247 -0.5604004838700929
vn 0.5648617127007011 -0.6057082987734247 -0.5604004838700929
vn 0.7718366833782709 -0.6116481903115399 0.1736508723855104
vn 0.7718366833782709 -0.6116481903115399 0.1736508723855104
vn 0.7718366833782709 -0.6116481903115399 0.1736508723855104
vn 0.8259662479235459 -0.37190738723252714 0.4236326859591629
vn 0.8259662479235459 -0.37190738723252714 0.4236326859591629
vn 0.8259662479235459 -0.37190738723252714 0.4236326859591629
vn 0.16602659877152884 -0.6794372467659167 0.7147028726733289
vn 0.16602659877152884 -0.6794372467659167 0.7147028726733289
vn 0.16602659877152884 -0.6794372467659167 0.7147028726733289
vn 0.5438978239201081 -0.6604232986274361 -0.5177028334527709
vn 0.5438978239201081 -0.6604232986274361 -0.5177028334527709
vn 0.5438978239201081 -0.6604232986274361 -0.5177028334527709
vn 0.7984424304908906 -0.43619218859122133 -0.4150012768700832
vn 0.7984424304908906 -0.43619218859122133 -0.4150012768700832
vn 0.7984424304908906 -0.43619218859122133 -0.4150012768700832
vn 0.5702845930834726 -0.6787086583101335 0.46274187191832616
vn 0.5702845930834726 -0.6787086583101335 0.46274187191832616
vn 0.5702845930834726 -0.6787086583101335 0.46274187191832616
vn 0.47805967718262304 -0.27817165730145654 0.8331143223629078
vn 0.47805967718262304 -0.27817165730145654 0.8331143223629078
vn 0.47805967718262304 -0.27817165730145654 0.8331143223629078
vn -0.43733130129506187 -0.5638235369201996 0.7006028490681182
vn -0.43733130129506187 -0.5638235369201996 0.7006028490681182
vn -0.43733130129506187 -0.5638235369201996 0.7006028490681182
vn -0.8230723546795871 -0.1319912939296284 0.5523859133694327
vn -0.8230723546795871 -0.1319912939296284 0.5523859133694327
vn -0.8230723546795871 -0.1319912939296284 0.5523859133694327
vn -0.8576794092249668 -0.5095905557932772 -0.06858204165676826
vn -0.8576794092249668 -0.5095905557932772 -0.06858204165676826
vn -0.8576794092249668 -0.5095905557932772 -0.06858204165676826
vn -0.3154950992350267 -0.4579721029850167 -0.8310983066076851
vn -0.3154950992350267 -0.4579721029850167 -0.8310983066076851
vn -0.3154950992350267 -0.4579721029850167 -0.8310983066076851
vn -0.5520894634531736 -0.03346048732934862 -0.8331132096730127
vn -0.5520894634531736 -0.03346048732934862 -0.8331132096730127
vn -0.5520894634531736 -0.03346048732934862 -0.8331132096730127
vn -0.5633975933569574 -0.004874289096455931 0.8261715276535453
vn -0.5633975933569574 -0.004874289096455931 0.8261715276535453
vn -0.5633975933569574 -0.004874289096455931 0.8261715276535453
vn -0.8650109491791705 -0.4532671724112672 0.21518579928620993
vn -0.8650109491791705 -0.4532671724112672 0.21518579928620993
vn -0.8650109491791705 -0.4532671724112672 0.21518579928620993
vn -0.7309496224393769 -0.03385156310455648 -0.6815913153284088
vn -0.7309496224393769 -0.03385156310455648 -0.6815913153284088
vn -0.7309496224393769 -0.03385156310455648 -0.6815913153284088
vn -0.8348987928248427 -0.2771610991912118 -0.4755267929725302
vn -0.8348987928248427 -0.2771610991912118 -0.4755267929725302
vn -0.8348987928248427 -0.2771610991912118 -0.4755267929725302
vn -0.1943153987577409 -0.5526816108327083 -0.8104224594944187
vn -0.1943153987577409 -0.5526816108327083 -0.8104224594944187
vn -0.1943153987577409 -0.5526816108327083 -0.8104224594944187
vn -0.3154959342831509 -0.45798190879540235 0.8310925860979156
vn -0.3154959342831509 -0.45798190879540235 0.8310925860979156
vn -0.3154959342831509 -0.45798190879540235 0.8310925860979156
vn 0.5179628866111493 -0.38490651070594695 -0.7639119230052759
vn 0.5179628866111493 -0.38490651070594695 -0.7639119230052759
vn 0.5179628866111493 -0.38490651070594695 -0.7639119230052759
vn 0.5913275912476053 -0.6808835079366342 -0.4321218907313174
vn 0.5913275912476053 -0.6808835079366342 -0.4321218907313174
vn 0.5913275912476053 -0.6808835079366342 -0.4321218907313174
vn 0.5439459598121477 -0.6604082483137445 0.5176714579375737
vn 0.5439459598121477 -0.6604082483137445 0.5176714579375737
vn 0.5439459598121477 -0.6604082483137445 0.5176714579375737
vn 0.7983784529941481 -0.43640267052792747 0.4149030669334275
vn 0.7983784529941481 -0.43640267052792747 0.4149030669334275
vn 0.7983784529941481 -0.43640267052792747 0.4149030669334275
vn -0.518073561252778 -0.2764033688240547 0.8094448485434802
vn -0.518073561252778 -0.2764033688240547 0.8094448485434802
vn -0.518073561252778 -0.2764033688240547 0.8094448485434802
vn -0.6907636415433922 -0.513823262778091 0.5087546030747918
vn -0.6907636415433922 -0.513823262778091 0.5087546030747918
vn -0.6907636415433922 -0.513823262778091 0.5087546030747918
vn -0.9046941180241692 -0.3790503350391091 -0.1945492131035477
vn -0.9046941180241692 -0.3790503350391091 -0.1945492131035477
vn -0.9046941180241692 -0.3790503350391091 -0.1945492131035477
vn -0.8930355392084894 -0.10688789286582974 -0.4371069709685554
vn -0.8930355392084894 -0.10688789286582974 -0.4371069709685554
vn -0.8930355392084894 -0.10688789286582974 -0.4371069709685554
vn -0.22236439463601318 -0.6060733761890854 -0.7636944013628244
vn -0.22236439463601318 -0.6060733761890854 -0.7636944013628244
vn -0.22236439463601318 -0.6060733761890854 -0.7636944013628244
vn 0.5427508949611096 -0.14677031336531884 -0.8269703387265839
vn 0.5427508949611096 -0.14677031336531884 -0.8269703387265839
vn 0.5427508949611096 -0.14677031336531884 -0.8269703387265839
vn 0.625728956449815 -0.5550922081254978 -0.5480291174185771
vn 0.625728956449815 -0.5550922081254978 -0.5480291174185771
vn 0.625728956449815 -0.5550922081254978 -0.5480291174185771
vn 0.6956192565200494 -0.7004927704951864 0.15944819987215816
vn 0.6956192565200494 -0.7004927704951864 0.15944819987215816
vn 0.6956192565200494 -0.7004927704951864 0.15944819987215816
vn 0.6904982000887816 -0.23431223051977026 0.684331801323746
vn 0.6904982000887816 -0.23431223051977026 0.684331801323746
vn 0.6904982000887816 -0.23431223051977026 0.684331801323746
vn 0.1976062776178628 -0.5729497589125337 0.7954120522144995
vn 0.1976062776178628 -0.5729497589125337 0.7954120522144995
vn 0.1976062776178628 -0.5729497589125337 0.7954120522144995
vn -0.32521169823261126 -0.8920228925253588 -0.31389888585873205
vn -0.32521169823261126 -0.8920228925253588 -0.31389888585873205
vn -0.32521169823261126 -0.8920228925253588 -0.31389888585873205
vn 0.2679399801242694 -0.8890665018434618 0.3711723620514275
vn 0.2679399801242694 -0.8890665018434618 0.3711723620514275
vn 0.2679399801242694 -0.8890665018434618 0.3711723620514275
vn 0.32878028509800333 -0.8531173250538533 0.40508561295587076
vn 0.32878028509800333 -0.8531173250538533 0.40508561295587076
vn 0.32878028509800333 -0.8531173250538533 0.40508561295587076
vn -0.28523609623250984 -0.9470213844584415 -0.14761729839166843
vn -0.28523609623250984 -0.9470213844584415 -0.14761729839166843
vn -0.28523609623250984 -0.9470213844584415 -0.14761729839166843
vn -0.06742060302214206 -0.9286791844417006 0.3647045854836878
vn -0.06742060302214206 -0.9286791844417006 0.3647045854836878
vn -0.06742060302214206 -0.9286791844417006 0.3647045854836878
vn 0.09352642250358242 -0.842221196198921 0.5309578749457813
vn 0.09352642250358242 -0.842221196198921 0.5309578749457813
vn 0.09352642250358242 -0.842221196198921 0.5309578749457813
vn 0.016933910351641223 -0.6528161688182137 -0.7573270709605672
vn 0.016933910351641223 -0.6528161688182137 -0.7573270709605672
vn 0.016933910351641223 -0.6528161688182137 -0.7573270709605672
vn -0.11802329189858721 -0.9318148546537006 -0.34320777849012085
vn -0.11802329189858721 -0.9318148546537006 -0.34320777849012085
vn -0.11802329189858721 -0.9318148546537006 -0.34320777849012085
vn -0.13209709655375368 -0.7950658280576428 0.5919634162151263
vn -0.13209709655375368 -0.7950658280576428 0.5919634162151263
vn -0.13209709655375368 -0.7950658280576428 0.5919634162151263
vn -0.04678189109718465 -0.8827347348625264 -0.46753699589717646
vn -0.04678189109718465 -0.8827347348625264 -0.46753699589717646
vn -0.04678189109718465 -0.8827347348625264 -0.46753699589717646
vn -0.750373603565967 -0.5727150452828716 0.3300559527990113
vn -0.750373603565967 -0.5727150452828716 0.3300559527990113
vn -0.750373603565967 -0.5727150452828716 0.3300559527990113
vn -0.3054920720610044 -0.8221660819154621 0.4803306440938904
vn -0.3054920720610044 -0.8221660819154621 0.4803306440938904
vn -0.3054920720610044 -0.8221660819154621 0.4803306440938904
vn -0.42395048201971697 -0.6466032690073135 0.6341689059740359
vn -0.42395048201971697 -0.6466032690073135 0.6341689059740359
vn -0.42395048201971697 -0.6466032690073135 0.6341689059740359
vn -0.2091241777658478 -0.9772585633759404 0.035110946756689465
vn -0.2091241777658478 -0.9772585633759404 0.035110946756689465
vn -0.2091241777658478 -0.9772585633759404 0.035110946756689465
vn -0.647443052098068 -0.7466708971525136 0.1526435902204838
vn -0.647443052098068 -0.7466708971525136 0.1526435902204838
vn -0.647443052098068 -0.7466708971525136 0.1526435902204838
vn -0.6140822094547913 -0.7763905427075533 0.14184768318655308
vn -0.6140822094547913 -0.7763905427075533 0.14184768318655308
vn -0.6140822094547913 -0.7763905427075533 0.14184768318655308
vn 0.3810870781427427 -0.5971558900041757 -0.7058168897851257
vn 0.3810870781427427 -0.5971558900041757 -0.7058168897851257
vn 0.3810870781427427 -0.5971558900041757 -0.7058168897851257
vn 0.2671820752750923 -0.8906995431993121 -0.3677880672292558
vn 0.2671820752750923 -0.8906995431993121 -0.3677880672292558
vn 0.2671820752750923 -0.8906995431993121 -0.3677880672292558
vn -0.023754826973878016 -0.9970578255666895 -0.07287935696523357
vn -0.023754826973878016 -0.9970578255666895 -0.07287935696523357
vn -0.023754826973878016 -0.9970578255666895 -0.07287935696523357
vn -0.9686205575366631 -0.24841228610268185 0.00809639614909586
vn -0.9686205575366631 -0.24841228610268185 0.00809639614909586
vn -0.9686205575366631 -0.24841228610268185 0.00809639614909586
vn 0.014953009171251303 -0.9923362347157297 -0.12265889607742553
vn 0.014953009171251303 -0.9923362347157297 -0.12265889607742553
vn 0.014953009171251303 -0.9923362347157297 -0.12265889607742553
vn 0.5198964440562546 -0.8511159361040885 -0.07286529192505137
vn 0.5198964440562546 -0.8511159361040885 -0.07286529192505137
vn 0.5198964440562546 -0.8511159361040885 -0.07286529192505137
vn -0.6831676229521358 -0.678210066325135 -0.2707639283309066
vn -0.6831676229521358 -0.678210066325135 -0.2707639283309066
vn -0.6831676229521358 -0.678210066325135 -0.2707639283309066
vn -0.6740633459325749 -0.6885960912699165 -0.26734627126252286
vn -0.6740633459325749 -0.6885960912699165 -0.26734627126252286
vn -0.6740633459325749 -0.6885960912699165 -0.26734627126252286
vn 0.5056357482194926 -0.8622714448999861 0.028643418661255
vn 0.5056357482194926 -0.8622714448999861 0.028643418661255
vn 0.5056357482194926 -0.8622714448999861 0.028643418661255
vn 0.004656850356334693 0.00010693599315257097 0.9999891510958767
vn 0.004656850356334693 0.00010693599315257097 0.9999891510958767
vn 0.004656850356334693 0.00010693599315257097 0.9999891510958767
vn 0.8358688348941451 -0.1631005852331437 -0.5241388079023634
vn 0.8358688348941451 -0.1631005852331437 -0.5241388079023634
vn 0.8358688348941451 -0.1631005852331437 -0.5241388079023634
vn 0.3606770634753669 -0.08496307581904551 0.9288128614689578
vn 0.3606770634753669 -0.08496307581904551 0.9288128614689578
vn 0.3606770634753669 -0.08496307581904551 0.9288128614689578
vn 0.5731226309823444 -0.06957542277462805 -0.8165106921538794
vn 0.5731226309823444 -0.06957542277462805 -0.8165106921538794
vn 0.5731226309823444 -0.06957542277462805 -0.8165106921538794
vn 0.5388350079671408 -0.07745790008144184 -0.838842719408129
vn 0.5388350079671408 -0.07745790008144184 -0.838842719408129
vn 0.5388350079671408 -0.07745790008144184 -0.838842719408129
vn 0.6852067434373875 -0.08070575867521762 0.7238634534665966
vn 0.6852067434373875 -0.08070575867521762 0.7238634534665966
vn 0.6852067434373875 -0.08070575867521762 0.7238634534665966
vn 0.7166677968798183 -0.10208760565747886 0.6899024493988629
vn 0.7166677968798183 -0.10208760565747886 0.6899024493988629
vn 0.7166677968798183 -0.10208760565747886 0.6899024493988629
vn 0.2180792835433718 -0.06702373912954371 -0.9736268507402127
vn 0.2180792835433718 -0.06702373912954371 -0.9736268507402127
vn 0.2180792835433718 -0.06702373912954371 -0.9736268507402127
vn 0.9284185144583338 -0.1896370792927555 0.31949466375558455
vn 0.9284185144583338 -0.1896370792927555 0.31949466375558455
vn 0.9284185144583338 -0.1896370792927555 0.31949466375558455
vn 0.9420263350965686 -0.192362505888204 0.2749237172616035
vn 0.9420263350965686 -0.192362505888204 0.2749237172616035
vn 0.9420263350965686 -0.192362505888204 0.2749237172616035
vn 0.9853982418369375 -0.12346130721022099 -0.11725020514530297
vn 0.9853982418369375 -0.12346130721022099 -0.11725020514530297
vn 0.9853982418369375 -0.12346130721022099 -0.11725020514530297
vn 0.9452369776332689 -0.16598641814776613 -0.2810259153622634
vn 0.9452369776332689 -0.16598641814776613 -0.2810259153622634
vn 0.9452369776332689 -0.16598641814776613 -0.2810259153622634
vn -0.43621602112239194 0.05132608051874584 0.8983769901186985
vn -0.43621602112239194 0.05132608051874584 0.8983769901186985
vn -0.43621602112239194 0.05132608051874584 0.8983769901186985
vn -0.12125589789814097 0.059720989766180885 0.9908230975336936
vn -0.12125589789814097 0.059720989766180885 0.9908230975336936
vn -0.12125589789814097 0.059720989766180885 0.9908230975336936
vn -0.6537381288942894 0.5536041156743968 -0.5158962511379227
vn -0.6537381288942894 0.5536041156743968 -0.5158962511379227
vn -0.6537381288942894 0.5536041156743968 -0.5158962511379227
vn -0.7910812318215824 -0.5669581165827747 -0.22967145817571866
vn -0.7910812318215824 -0.5669581165827747 -0.22967145817571866
vn -0.7910812318215824 -0.5669581165827747 -0.22967145817571866
vn -0.620916012408626 0.08099471822802604 0.7796814485119763
vn -0.620916012408626 0.08099471822802604 0.7796814485119763
vn -0.620916012408626 0.08099471822802604 0.7796814485119763
vn -0.7380132008388797 0.11636230238012034 0.6646776135634093
vn -0.7380132008388797 0.11636230238012034 0.6646776135634093
vn -0.7380132008388797 0.11636230238012034 0.6646776135634093
vn -0.8798597396066101 0.14037768448700735 -0.4540274708841465
vn -0.8798597396066101 0.14037768448700735 -0.4540274708841465
vn -0.8798597396066101 0.14037768448700735 -0.4540274708841465
vn -0.894105056486438 0.14528800217201654 -0.4236360990168895
vn -0.894105056486438 0.14528800217201654 -0.4236360990168895
vn -0.894105056486438 0.14528800217201654 -0.4236360990168895
vn 0.48543669661299127 -0.08499710812138901 0.870130280585883
vn 0.48543669661299127 -0.08499710812138901 0.870130280585883
vn 0.48543669661299127 -0.08499710812138901 0.870130280585883
vn 0.4865688104601871 -0.08665870909041119 0.8693336878472743
vn 0.4865688104601871 -0.08665870909041119 0.8693336878472743
vn 0.4865688104601871 -0.08665870909041119 0.8693336878472743
vn 0.2766736673850489 -0.03577618580362727 0.9602977383629785
vn 0.2766736673850489 -0.03577618580362727 0.9602977383629785
vn 0.2766736673850489 -0.03577618580362727 0.9602977383629785
vn -0.8694767790170598 0.140140784159226 0.47367783499479477
vn -0.8694767790170598 0.140140784159226 0.47367783499479477
vn -0.8694767790170598 0.140140784159226 0.47367783499479477
vn -0.8729215686719594 0.13932919225095622 0.4675417747474358
vn -0.8729215686719594 0.13932919225095622 0.4675417747474358
vn -0.8729215686719594 0.13932919225095622 0.4675417747474358
vn -0.1565346855311674 0.019993178399106998 -0.9874700831129822
vn -0.1565346855311674 0.019993178399106998 -0.9874700831129822
vn -0.1565346855311674 0.019993178399106998 -0.9874700831129822
vn -0.2287637680373363 0.050798642048054794 -0.9721556646954403
vn -0.2287637680373363 0.050798642048054794 -0.9721556646954403
vn -0.2287637680373363 0.050798642048054794 -0.9721556646954403
vn -0.49503194738258466 0.054081256834524104 -0.8671900534080197
vn -0.49503194738258466 0.054081256834524104 -0.8671900534080197
vn -0.49503194738258466 0.054081256834524104 -0.8671900534080197
vn -0.7326365123138628 0.1323857905265872 -0.667620957798083
vn -0.7326365123138628 0.1323857905265872 -0.667620957798083
vn -0.7326365123138628 0.1323857905265872 -0.667620957798083
vn -0.8633764127379046 0.11227300426590638 -0.49191050247065804
vn -0.8633764127379046 0.11227300426590638 -0.49191050247065804
vn -0.8633764127379046 0.11227300426590638 -0.49191050247065804
vn -0.9808587314290185 0.17372348696293066 -0.08795623375802912
vn -0.9808587314290185 0.17372348696293066 -0.08795623375802912
vn -0.9808587314290185 0.17372348696293066 -0.08795623375802912
vn -0.9884940400845806 0.15100169204779373 0.008832990205305013
vn -0.9884940400845806 0.15100169204779373 0.008832990205305013
vn -0.9884940400845806 0.15100169204779373 0.008832990205305013
vn 0.39892190007891265 -0.07093053934029804 0.9142374834944827
vn 0.39892190007891265 -0.07093053934029804 0.9142374834944827
vn 0.39892190007891265 -0.07093053934029804 0.9142374834944827
vn 0.7748331985024404 -0.11607470305559077 0.6214178769628649
vn 0.7748331985024404 -0.11607470305559077 0.6214178769628649
vn 0.7748331985024404 -0.11607470305559077 0.6214178769628649
vn -0.8377715965157495 -0.0913730787422583 -0.5383211983125069
vn -0.8377715965157495 -0.0913730787422583 -0.5383211983125069
vn -0.8377715965157495 -0.0913730787422583 -0.5383211983125069
vn -0.9053610038101761 0.1375450055637149 -0.4017497034526696
vn -0.9053610038101761 0.1375450055637149 -0.4017497034526696
vn -0.9053610038101761 0.1375450055637149 -0.4017497034526696
vn -0.9861080685913924 0.16157779162113972 0.038516156529295895
vn -0.9861080685913924 0.16157779162113972 0.038516156529295895
vn -0.9861080685913924 0.16157779162113972 0.038516156529295895
f 1//1 2//2 3//3
f 4//4 5//5 6//6
f 7//7 8//8 9//9
f 10//10 11//11 12//12
f 13//13 14//14 15//15
f 16//16 17//17 18//18
f 19//19 20//20 21//21
f 22//22 23//23 24//24
f 25//25 26//26 27//27
f 28//28 29//29 30//30
f 31//31 32//32 33//33
f 34//34 35//35 36//36
f 37//37 38//38 39//39
f 40//40 41//41 42//42
f 43//43 44//44 45//45
f 46//46 47//47 48//48
f 49//49 50//50 51//51
f 52//52 53//53 54//54
f 55//55 56//56 57//57
f 58//58 59//59 60//60
f 61//61 62//62 63//63
f 64//64 65//65 66//66
f 67//67 68//68 69//69
f 70//70 71//71 72//72
f 73//73 74//74 75//75
f 76//76 77//77 78//78
f 79//79 80//80 81//81
f 82//82 83//83 84//84
f 85//85 86//86 87//87
f 88//88 89//89 90//90
f 91//91 92//92 93//93
f 94//94 95//95 96//96
f 97//97 98//98 99//99
f 100//100 101//101 102//102
f 103//103 104//104 105//105
f 106//106 107//107 108//108
f 109//109 110//110 111//111
f 112//112 113//113 114//114
f 115//115 116//116 117//117
f 118//118 119//119 120//120
f 121//121 122//122 123//123
f 124//124 125//125 126//126
f 127//127 128//128 129//129
f 130//130 131//131 132//132
f 133//133 134//134 135//135
f 136//136 137//137 138//138
f 139//139 140//140 141//141
f 142//142 143//143 144//144
f 145//145 146//146 147//147
f 148//148 149//149 150//150
f 151//151 152//152 153//153
f 154//154 155//155 156//156
f 157//157 158//158 159//159
f 160//160 161//161 162//162
f 163//163 164//164 165//165
f 166//166 167//167 168//168
f 169//169 170//170 171//171
f 172//172 173//173 174//174
f 175//175 176//176 177//177
f 178//178 179//179 180//180
f 181//181 182//182 183//183
f 184//184 185//185 186//186
f 187//187 188//188 189//189
f 190//190 191//191 192//192
f 193//193 194//194 195//195
f 196//196 197//197 198//198
f 199//199 200//200 201//201
f 202//202 203//203 204//204
f 205//205 206//206 207//207
f 208//208 209//209 210//210
f 211//211 212//212 213//213
f 214//214 215//215 216//216
f 217//217 218//218 219//219
f 220//220 221//221 222//222
f 223//223 224//224 225//225
f 226//226 227//227 228//228
f 229//229 230//230 231//231
f 232//232 233//233 234//234
f 235//235 236//236 237//237
f 238//238 239//239 240//240
f 241//241 242//242 243//243
f 244//244 245//245 246//246
f 247//247 248//248 249//249
f 250//250 251//251 252//252
f 253//253 254//254 255//255
f 256//256 257//257 258//258
f 259//259 260//260 261//261
f 262//262 263//263 264//264
f 265//265 266//266 267//267
f 268//268 269//269 270//270
f 271//271 272//272 273//273
f 274//274 275//275 276//276
f 277//277 278//278 279//279
f 280//280 281//281 282//282
f 283//283 284//284 285//285
f 286//286 287//287 288//288
f 289//289 290//290 291//291
f 292//292 293//293 294//294
f 295//295 296//296 297//297
f 298//298 299//299 300//300
f 301//301 302//302 303//303
f 304//304 305//305 306//306
f 307//307 308//308 309//309
f 310//310 311//311 312//312
f 313//313 314//314 315//315
f 316//316 317//317 318//318
f 319//319 320//320 321//321
f 322//322 323//323 324//324
f 325//325 326//326 327//327
f 328//328 329//329 330//330
f 331//331 332//332 333//333
f 334//334 335//335 336//336
f 337//337 338//338 339//339
f 340//340 341//341 342//342
f 343//343 344//344 345//345
f 346//346 347//347 348//348
f 349//349 350//350 351//351
f 352//352 353//353 354//354
f 355//355 356//356 357//357
f 358//358 359//359 360//360
f 361//361 362//362 363//363
f 364//364 365//365 366//366
f 367//367 368//368 369//369
f 370//370 371//371 372//372
f 373//373 374//374 375//375
f 376//376 377//377 378//378
f 379//379 380//380 381//381
f 382//382 383//383 384//384
f 385//385 386//386 387//387
f 388//388 389//389 390//390
f 391//391 392//392 393//393
f 394//394 395//395 396//396
f 397//397 398//398 399//399
f 400//400 401//401 402//402
f 403//403 404//404 405//405
f 406//406 407//407 408//408
f 409//409 410//410 411//411
f 412//412 413//413 414//414
f 415//415 416//416 417//417
f 418//418 419//419 420//420
f 421//421 422//422 423//423
f 424//424 425//425 426//426
f 427//427 428//428 429//429
f 430//430 431//431 432//432
f 433//433 434//434 435//435
f 436//436 437//437 438//438
f 439//439 440//440 441//441
f 442//442 443//443 444//444
f 445//445 446//446 447//447
f 448//448 449//449 450//450
f 451//451 452//452 453//453
f 454//454 455//455 456//456
f 457//457 458//458 459//459
f 460//460 461//461 462//462
f 463//463 464//464 465//465
f 466//466 467//467 468//468
f 469//469 470//470 471//471
f 472//472 473//473 474//474
f 475//475 476//476 477//477
f 478//478 479//479 480//480
f 481//481 482//482 483//483
f 484//484 485//485 486//486
f 487//487 488//488 489//489
f 490//490 491//491 492//492
f 493//493 494//494 495//495
f 496//496 497//497 498//498
f 499//499 500//500 501//501
f 502//502 503//503 504//504
f 505//505 506//506 507//507
f 508//508 509//509 510//510
f 511//511 512//512 513//513
f 514//514 515//515 516//516
f 517//517 518//518 519//519
f 520//520 521//521 522//522
f 523//523 524//524 525//525
f 526//526 527//527 528//528
f 529//529 530//530 531//531
f 532//532 533//533 534//534
f 535//535 536//536 537//537
f 538//538 539//539 540//540
f 541//541 542//542 543//543
f 544//544 545//545 546//546
f 547//547 548//548 549//549
f 550//550 551//551 552//552
f 553//553 554//554 555//555
f 556//556 557//557 558//558
f 559//559 560//560 561//561
f 562//562 563//563 564//564
