o node3
usemtl verbindung
v 0.029583090916275978 0.002308726077899337 0.04550004005432129
v 0.02772849053144455 -0.011299840174615383 0.04550004005432129
v 0.02966528944671154 0.004345417022705078 0.05229990929365158
v 0.026016470044851303 0.014061739668250084 0.045499980449676514
v 0.029583090916275978 0.002308726077899337 0.04550004005432129
v 0.02966528944671154 0.004345417022705078 0.05229990929365158
v 0.026016470044851303 0.014061739668250084 0.045499980449676514
v 0.02966528944671154 0.004345417022705078 0.05229990929365158
v 0.02343880943953991 0.017848430201411247 0.05230069160461426
v 0.019448690116405487 0.021993989124894142 0.04550044983625412
v 0.026016470044851303 0.014061739668250084 0.045499980449676514
v 0.02343880943953991 0.017848430201411247 0.05230069160461426
v 0.019448690116405487 0.021993989124894142 0.04550044983625412
v 0.02343880943953991 0.017848430201411247 0.05230069160461426
v 0.015105180442333221 0.025269150733947754 0.052300091832876205
v 0.009109972976148129 0.028131600469350815 0.04550004005432129
v 0.019448690116405487 0.021993989124894142 0.04550044983625412
v 0.015105180442333221 0.025269150733947754 0.052300091832876205
v 0.009109972976148129 0.028131600469350815 0.04550004005432129
v 0.015105180442333221 0.025269150733947754 0.052300091832876205
v 0.004010558128356934 0.029106849804520607 0.052299849689006805
v -0.008324146270751953 0.02851778082549572 0.045499980449676514
v 0.009109972976148129 0.028131600469350815 0.04550004005432129
v 0.004010558128356934 0.029106849804520607 0.052299849689006805
v -0.008324146270751953 0.02851778082549572 0.045499980449676514
v 0.004010558128356934 0.029106849804520607 0.052299849689006805
v -0.007975219748914242 0.028326919302344322 0.05229990929365158
v -0.008324146270751953 0.02851778082549572 0.045499980449676514
v -0.007975219748914242 0.028326919302344322 0.05229990929365158
v -0.02003454975783825 0.021768560633063316 0.05229990929365158
v -0.02139686979353428 0.02029436081647873 0.04549992084503174
v -0.008324146270751953 0.02851778082549572 0.045499980449676514
v -0.02003454975783825 0.021768560633063316 0.05229990929365158
v -0.02139686979353428 0.02029436081647873 0.04549992084503174
v -0.02003454975783825 0.021768560633063316 0.05229990929365158
v -0.028763050213456154 0.008001506328582764 0.05229990929365158
v -0.027319839224219322 0.011165140196681023 0.04549961909651756
v -0.02139686979353428 0.02029436081647873 0.04549992084503174
v -0.028763050213456154 0.008001506328582764 0.05229990929365158
v -0.029780980199575424 -0.0005950849736109376 0.04550004005432129
v -0.027319839224219322 0.011165140196681023 0.04549961909651756
v -0.028763050213456154 0.008001506328582764 0.05229990929365158
v -0.030394069850444794 0.009229898452758789 0.052299968898296356
v -0.03053765930235386 0.008342145942151546 0.04550015181303024
v -0.031331948935985565 -0.0054860711097717285 0.04550004005432129
v -0.03132224082946777 -0.005156754981726408 0.05229990929365158
v -0.030394069850444794 0.009229898452758789 0.052299968898296356
v -0.031331948935985565 -0.0054860711097717285 0.04550004005432129
v -0.026218349114060402 -0.018345769494771957 0.052299730479717255
v -0.031331948935985565 -0.0054860711097717285 0.04550004005432129
v -0.026859870180487633 -0.017028089612722397 0.045499738305807114
v -0.026218349114060402 -0.018345769494771957 0.052299730479717255
v -0.03132224082946777 -0.005156754981726408 0.05229990929365158
v -0.031331948935985565 -0.0054860711097717285 0.04550004005432129
v -0.026218349114060402 -0.018345769494771957 0.052299730479717255
v -0.026859870180487633 -0.017028089612722397 0.045499738305807114
v -0.019164910539984703 -0.025546550750732422 0.045500271022319794
v -0.014464429579675198 -0.028625009581446648 0.05230033025145531
v -0.026218349114060402 -0.018345769494771957 0.052299730479717255
v -0.019164910539984703 -0.025546550750732422 0.045500271022319794
v -0.014464429579675198 -0.028625009581446648 0.05230033025145531
v -0.019164910539984703 -0.025546550750732422 0.045500271022319794
v -0.004613279830664396 -0.031958628445863724 0.045499980449676514
v 0.0028416509740054607 -0.03219711035490036 0.052299968898296356
v -0.014464429579675198 -0.028625009581446648 0.05230033025145531
v -0.004613279830664396 -0.031958628445863724 0.045499980449676514
v 0.0028416509740054607 -0.03219711035490036 0.052299968898296356
v -0.004613279830664396 -0.031958628445863724 0.045499980449676514
v 0.011449810117483139 -0.029877299442887306 0.04549967870116234
v 0.017192600294947624 -0.02686505950987339 0.05229926109313965
v 0.0028416509740054607 -0.03219711035490036 0.052299968898296356
v 0.011449810117483139 -0.029877299442887306 0.04549967870116234
v 0.017192600294947624 -0.02686505950987339 0.05229926109313965
v 0.011449810117483139 -0.029877299442887306 0.04549967870116234
v 0.02451777085661888 -0.02080696076154709 0.04549967870116234
v 0.0265271607786417 -0.01784515008330345 0.05229955166578293
v 0.017192600294947624 -0.02686505950987339 0.05229926109313965
v 0.02451777085661888 -0.02080696076154709 0.04549967870116234
v 0.0265271607786417 -0.01784515008330345 0.05229955166578293
v 0.02451777085661888 -0.02080696076154709 0.04549967870116234
v 0.03106147050857544 -0.006613314151763916 0.045499980449676514
v 0.031236760318279266 -0.005456507205963135 0.052299849689006805
v 0.0265271607786417 -0.01784515008330345 0.05229955166578293
v 0.03106147050857544 -0.006613314151763916 0.045499980449676514
v -0.02139686979353428 0.02029436081647873 0.04549992084503174
v -0.024492740631103516 0.019818779081106186 0.04549944028258324
v -0.011560729704797268 0.029563240706920624 0.04549992084503174
v 0.02451777085661888 -0.02080696076154709 0.04549967870116234
v 0.02772849053144455 -0.011299840174615383 0.04550004005432129
v 0.03106147050857544 -0.006613314151763916 0.045499980449676514
v -0.008324146270751953 0.02851778082549572 0.045499980449676514
v -0.02139686979353428 0.02029436081647873 0.04549992084503174
v -0.011560729704797268 0.029563240706920624 0.04549992084503174
v 0.011449810117483139 -0.029877299442887306 0.04549967870116234
v -0.004613279830664396 -0.031958628445863724 0.045499980449676514
v -0.002026081085205078 -0.030061960220336914 0.04549992084503174
v 0.011449810117483139 -0.029877299442887306 0.04549967870116234
v -0.002026081085205078 -0.030061960220336914 0.04549992084503174
v 0.010663979686796665 -0.027959700673818588 0.04549967870116234
v -0.027319839224219322 0.011165140196681023 0.04549961909651756
v -0.024492740631103516 0.019818779081106186 0.04549944028258324
v -0.02139686979353428 0.02029436081647873 0.04549992084503174
v 0.02451777085661888 -0.02080696076154709 0.04549967870116234
v 0.019949190318584442 -0.022275030612945557 0.0455012284219265
v 0.02772849053144455 -0.011299840174615383 0.04550004005432129
v -0.027319839224219322 0.011165140196681023 0.04549961909651756
v -0.03053765930235386 0.008342145942151546 0.04550015181303024
v -0.024492740631103516 0.019818779081106186 0.04549944028258324
v 0.011449810117483139 -0.029877299442887306 0.04549967870116234
v 0.010663979686796665 -0.027959700673818588 0.04549967870116234
v 0.019949190318584442 -0.022275030612945557 0.0455012284219265
v 0.02451777085661888 -0.02080696076154709 0.04549967870116234
v 0.011449810117483139 -0.029877299442887306 0.04549967870116234
v 0.019949190318584442 -0.022275030612945557 0.0455012284219265
v -0.008324146270751953 0.02851778082549572 0.045499980449676514
v -0.011560729704797268 0.029563240706920624 0.04549992084503174
v 0.006057738792151213 0.03092169016599655 0.045499980449676514
v 0.009109972976148129 0.028131600469350815 0.04550004005432129
v -0.008324146270751953 0.02851778082549572 0.045499980449676514
v 0.006057738792151213 0.03092169016599655 0.045499980449676514
v -0.029780980199575424 -0.0005950849736109376 0.04550004005432129
v -0.03053765930235386 0.008342145942151546 0.04550015181303024
v -0.027319839224219322 0.011165140196681023 0.04549961909651756
v -0.029780980199575424 -0.0005950849736109376 0.04550004005432129
v -0.031331948935985565 -0.0054860711097717285 0.04550004005432129
v -0.03053765930235386 0.008342145942151546 0.04550015181303024
v 0.018198899924755096 0.025605790317058563 0.04549961909651756
v 0.009109972976148129 0.028131600469350815 0.04550004005432129
v 0.006057738792151213 0.03092169016599655 0.045499980449676514
v -0.025347940623760223 -0.016283690929412842 0.04550004005432129
v -0.031331948935985565 -0.0054860711097717285 0.04550004005432129
v -0.029780980199575424 -0.0005950849736109376 0.04550004005432129
v 0.019448690116405487 0.021993989124894142 0.04550044983625412
v 0.009109972976148129 0.028131600469350815 0.04550004005432129
v 0.018198899924755096 0.025605790317058563 0.04549961909651756
v -0.026859870180487633 -0.017028089612722397 0.045499738305807114
v -0.031331948935985565 -0.0054860711097717285 0.04550004005432129
v -0.025347940623760223 -0.016283690929412842 0.04550004005432129
v 0.02696257084608078 0.01648092083632946 0.04549992084503174
v 0.019448690116405487 0.021993989124894142 0.04550044983625412
v 0.018198899924755096 0.025605790317058563 0.04549961909651756
v 0.026016470044851303 0.014061739668250084 0.045499980449676514
v 0.019448690116405487 0.021993989124894142 0.04550044983625412
v 0.02696257084608078 0.01648092083632946 0.04549992084503174
v -0.019164910539984703 -0.025546550750732422 0.045500271022319794
v -0.026859870180487633 -0.017028089612722397 0.045499738305807114
v -0.025347940623760223 -0.016283690929412842 0.04550004005432129
v -0.014575240202248096 -0.026132699102163315 0.04549890011548996
v -0.019164910539984703 -0.025546550750732422 0.045500271022319794
v -0.025347940623760223 -0.016283690929412842 0.04550004005432129
v 0.031216800212860107 0.004875481128692627 0.045499980449676514
v 0.026016470044851303 0.014061739668250084 0.045499980449676514
v 0.02696257084608078 0.01648092083632946 0.04549992084503174
v 0.029583090916275978 0.002308726077899337 0.04550004005432129
v 0.026016470044851303 0.014061739668250084 0.045499980449676514
v 0.031216800212860107 0.004875481128692627 0.045499980449676514
v -0.004613279830664396 -0.031958628445863724 0.045499980449676514
v -0.019164910539984703 -0.025546550750732422 0.045500271022319794
v -0.014575240202248096 -0.026132699102163315 0.04549890011548996
v -0.002026081085205078 -0.030061960220336914 0.04549992084503174
v -0.004613279830664396 -0.031958628445863724 0.045499980449676514
v -0.014575240202248096 -0.026132699102163315 0.04549890011548996
v 0.03106147050857544 -0.006613314151763916 0.045499980449676514
v 0.029583090916275978 0.002308726077899337 0.04550004005432129
v 0.031216800212860107 0.004875481128692627 0.045499980449676514
v 0.03106147050857544 -0.006613314151763916 0.045499980449676514
v 0.02772849053144455 -0.011299840174615383 0.04550004005432129
v 0.029583090916275978 0.002308726077899337 0.04550004005432129
v 0.02966528944671154 0.004345417022705078 0.05229990929365158
v 0.02768944948911667 -0.010984419845044613 0.052300211042165756
v 0.031236760318279266 -0.005456507205963135 0.052299849689006805
v 0.031236760318279266 -0.005456507205963135 0.052299849689006805
v 0.02768944948911667 -0.010984419845044613 0.052300211042165756
v 0.0265271607786417 -0.01784515008330345 0.05229955166578293
v 0.007946968078613281 -0.028826110064983368 0.052300211042165756
v -0.0025675890501588583 -0.029886959120631218 0.052300091832876205
v 0.0028416509740054607 -0.03219711035490036 0.052299968898296356
v -0.00920867919921875 0.030093610286712646 0.05229990929365158
v -0.02195804938673973 0.022707460448145866 0.0522991381585598
v -0.02003454975783825 0.021768560633063316 0.05229990929365158
v -0.00920867919921875 0.030093610286712646 0.05229990929365158
v -0.02003454975783825 0.021768560633063316 0.05229990929365158
v -0.007975219748914242 0.028326919302344322 0.05229990929365158
v -0.02195804938673973 0.022707460448145866 0.0522991381585598
v -0.030394069850444794 0.009229898452758789 0.052299968898296356
v -0.028763050213456154 0.008001506328582764 0.05229990929365158
v -0.02003454975783825 0.021768560633063316 0.05229990929365158
v -0.02195804938673973 0.022707460448145866 0.0522991381585598
v -0.028763050213456154 0.008001506328582764 0.05229990929365158
v 0.02768944948911667 -0.010984419845044613 0.052300211042165756
v 0.019665120169520378 -0.022835789248347282 0.052299849689006805
v 0.0265271607786417 -0.01784515008330345 0.05229955166578293
v 0.007946968078613281 -0.028826110064983368 0.052300211042165756
v 0.0028416509740054607 -0.03219711035490036 0.052299968898296356
v 0.017192600294947624 -0.02686505950987339 0.05229926109313965
v 0.019665120169520378 -0.022835789248347282 0.052299849689006805
v 0.007946968078613281 -0.028826110064983368 0.052300211042165756
v 0.017192600294947624 -0.02686505950987339 0.05229926109313965
v -0.00920867919921875 0.030093610286712646 0.05229990929365158
v -0.007975219748914242 0.028326919302344322 0.05229990929365158
v 0.004010558128356934 0.029106849804520607 0.052299849689006805
v 0.006067097187042236 0.030969729647040367 0.052299968898296356
v -0.00920867919921875 0.030093610286712646 0.05229990929365158
v 0.004010558128356934 0.029106849804520607 0.052299849689006805
v 0.0265271607786417 -0.01784515008330345 0.05229955166578293
v 0.019665120169520378 -0.022835789248347282 0.052299849689006805
v 0.017192600294947624 -0.02686505950987339 0.05229926109313965
v -0.030394069850444794 0.009229898452758789 0.052299968898296356
v -0.03132224082946777 -0.005156754981726408 0.05229990929365158
v -0.028763050213456154 0.008001506328582764 0.05229990929365158
v -0.028763050213456154 0.008001506328582764 0.05229990929365158
v -0.03132224082946777 -0.005156754981726408 0.05229990929365158
v -0.028540730476379395 -0.009153603576123714 0.052299849689006805
v 0.006067097187042236 0.030969729647040367 0.052299968898296356
v 0.004010558128356934 0.029106849804520607 0.052299849689006805
v 0.015105180442333221 0.025269150733947754 0.052300091832876205
v 0.006067097187042236 0.030969729647040367 0.052299968898296356
v 0.015105180442333221 0.025269150733947754 0.052300091832876205
v 0.019671080633997917 0.024605629965662956 0.052299968898296356
v -0.028540730476379395 -0.009153603576123714 0.052299849689006805
v -0.03132224082946777 -0.005156754981726408 0.05229990929365158
v -0.026218349114060402 -0.018345769494771957 0.052299730479717255
v 0.019671080633997917 0.024605629965662956 0.052299968898296356
v 0.015105180442333221 0.025269150733947754 0.052300091832876205
v 0.02343880943953991 0.017848430201411247 0.05230069160461426
v -0.028540730476379395 -0.009153603576123714 0.052299849689006805
v -0.026218349114060402 -0.018345769494771957 0.052299730479717255
v -0.022464150562882423 -0.019532140344381332 0.05229878053069115
v 0.019671080633997917 0.024605629965662956 0.052299968898296356
v 0.02343880943953991 0.017848430201411247 0.05230069160461426
v 0.03013640083372593 0.010717269964516163 0.052299968898296356
v 0.03013640083372593 0.010717269964516163 0.052299968898296356
v 0.02343880943953991 0.017848430201411247 0.05230069160461426
v 0.02966528944671154 0.004345417022705078 0.05229990929365158
v -0.022464150562882423 -0.019532140344381332 0.05229878053069115
v -0.026218349114060402 -0.018345769494771957 0.052299730479717255
v -0.014613620005548 -0.026200709864497185 0.052300091832876205
v -0.014613620005548 -0.026200709864497185 0.052300091832876205
v -0.026218349114060402 -0.018345769494771957 0.052299730479717255
v -0.014464429579675198 -0.028625009581446648 0.05230033025145531
v -0.014613620005548 -0.026200709864497185 0.052300091832876205
v -0.014464429579675198 -0.028625009581446648 0.05230033025145531
v -0.0025675890501588583 -0.029886959120631218 0.052300091832876205
v 0.03013640083372593 0.010717269964516163 0.052299968898296356
v 0.02966528944671154 0.004345417022705078 0.05229990929365158
v 0.031236760318279266 -0.005456507205963135 0.052299849689006805
v -0.0025675890501588583 -0.029886959120631218 0.052300091832876205
v -0.014464429579675198 -0.028625009581446648 0.05230033025145531
v 0.0028416509740054607 -0.03219711035490036 0.052299968898296356
v 0.031236760318279266 -0.005456507205963135 0.052299849689006805
v 0.03106147050857544 -0.006613314151763916 0.045499980449676514
v 0.031216800212860107 0.004875481128692627 0.045499980449676514
v 0.03013640083372593 0.010717269964516163 0.052299968898296356
v 0.031236760318279266 -0.005456507205963135 0.052299849689006805
v 0.031216800212860107 0.004875481128692627 0.045499980449676514
v 0.03013640083372593 0.010717269964516163 0.052299968898296356
v 0.031216800212860107 0.004875481128692627 0.045499980449676514
v 0.02696257084608078 0.01648092083632946 0.04549992084503174
v 0.019671080633997917 0.024605629965662956 0.052299968898296356
v 0.03013640083372593 0.010717269964516163 0.052299968898296356
v 0.02696257084608078 0.01648092083632946 0.04549992084503174
v 0.019671080633997917 0.024605629965662956 0.052299968898296356
v 0.02696257084608078 0.01648092083632946 0.04549992084503174
v 0.018198899924755096 0.025605790317058563 0.04549961909651756
v 0.006067097187042236 0.030969729647040367 0.052299968898296356
v 0.019671080633997917 0.024605629965662956 0.052299968898296356
v 0.018198899924755096 0.025605790317058563 0.04549961909651756
v 0.006067097187042236 0.030969729647040367 0.052299968898296356
v 0.018198899924755096 0.025605790317058563 0.04549961909651756
v 0.006057738792151213 0.03092169016599655 0.045499980449676514
v 0.006067097187042236 0.030969729647040367 0.052299968898296356
v 0.006057738792151213 0.03092169016599655 0.045499980449676514
v -0.011560729704797268 0.029563240706920624 0.04549992084503174
v -0.00920867919921875 0.030093610286712646 0.05229990929365158
v 0.006067097187042236 0.030969729647040367 0.052299968898296356
v -0.011560729704797268 0.029563240706920624 0.04549992084503174
v -0.02195804938673973 0.022707460448145866 0.0522991381585598
v -0.00920867919921875 0.030093610286712646 0.05229990929365158
v -0.011560729704797268 0.029563240706920624 0.04549992084503174
v -0.02195804938673973 0.022707460448145866 0.0522991381585598
v -0.011560729704797268 0.029563240706920624 0.04549992084503174
v -0.024492740631103516 0.019818779081106186 0.04549944028258324
v -0.030394069850444794 0.009229898452758789 0.052299968898296356
v -0.02195804938673973 0.022707460448145866 0.0522991381585598
v -0.024492740631103516 0.019818779081106186 0.04549944028258324
v -0.030394069850444794 0.009229898452758789 0.052299968898296356
v -0.024492740631103516 0.019818779081106186 0.04549944028258324
v -0.03053765930235386 0.008342145942151546 0.04550015181303024
v -0.029780980199575424 -0.0005950849736109376 0.04550004005432129
v -0.028763050213456154 0.008001506328582764 0.05229990929365158
v -0.028540730476379395 -0.009153603576123714 0.052299849689006805
v -0.025347940623760223 -0.016283690929412842 0.04550004005432129
v -0.029780980199575424 -0.0005950849736109376 0.04550004005432129
v -0.028540730476379395 -0.009153603576123714 0.052299849689006805
v -0.025347940623760223 -0.016283690929412842 0.04550004005432129
v -0.028540730476379395 -0.009153603576123714 0.052299849689006805
v -0.022464150562882423 -0.019532140344381332 0.05229878053069115
v -0.025347940623760223 -0.016283690929412842 0.04550004005432129
v -0.022464150562882423 -0.019532140344381332 0.05229878053069115
v -0.014613620005548 -0.026200709864497185 0.052300091832876205
v -0.014575240202248096 -0.026132699102163315 0.04549890011548996
v -0.025347940623760223 -0.016283690929412842 0.04550004005432129
v -0.014613620005548 -0.026200709864497185 0.052300091832876205
v -0.002026081085205078 -0.030061960220336914 0.04549992084503174
v -0.014575240202248096 -0.026132699102163315 0.04549890011548996
v -0.014613620005548 -0.026200709864497185 0.052300091832876205
v -0.002026081085205078 -0.030061960220336914 0.04549992084503174
v -0.014613620005548 -0.026200709864497185 0.052300091832876205
v -0.0025675890501588583 -0.029886959120631218 0.052300091832876205
v -0.002026081085205078 -0.030061960220336914 0.04549992084503174
v -0.0025675890501588583 -0.029886959120631218 0.052300091832876205
v 0.007946968078613281 -0.028826110064983368 0.052300211042165756
v 0.010663979686796665 -0.027959700673818588 0.04549967870116234
v -0.002026081085205078 -0.030061960220336914 0.04549992084503174
v 0.007946968078613281 -0.028826110064983368 0.052300211042165756
v 0.010663979686796665 -0.027959700673818588 0.04549967870116234
v 0.007946968078613281 -0.028826110064983368 0.052300211042165756
v 0.019665120169520378 -0.022835789248347282 0.052299849689006805
v 0.019949190318584442 -0.022275030612945557 0.0455012284219265
v 0.010663979686796665 -0.027959700673818588 0.04549967870116234
v 0.019665120169520378 -0.022835789248347282 0.052299849689006805
v 0.02772849053144455 -0.011299840174615383 0.04550004005432129
v 0.019949190318584442 -0.022275030612945557 0.0455012284219265
v 0.019665120169520378 -0.022835789248347282 0.052299849689006805
v 0.02772849053144455 -0.011299840174615383 0.04550004005432129
v 0.019665120169520378 -0.022835789248347282 0.052299849689006805
v 0.02768944948911667 -0.010984419845044613 0.052300211042165756
v 0.02772849053144455 -0.011299840174615383 0.04550004005432129
v 0.02768944948911667 -0.010984419845044613 0.052300211042165756
v 0.02966528944671154 0.004345417022705078 0.05229990929365158
vn -0.9989086109634763 -0.04004054404355196 0.024048737507714905
vn -0.9315490826650769 0.36318299579752156 -0.017731839988891652
vn -0.989455251892532 -0.14450720373331316 0.009796559164553032
vn -0.8832754457718661 -0.46852478199099845 -0.017578838323353906
vn -0.9989086109634763 -0.04004054404355196 0.024048737507714905
vn -0.989455251892532 -0.14450720373331316 0.009796559164553032
vn -0.8832754457718661 -0.46852478199099845 -0.017578838323353906
vn -0.989455251892532 -0.14450720373331316 0.009796559164553032
vn -0.7941704479580187 -0.6070877380231691 -0.02716206789020261
vn -0.655371356144584 -0.7551694376550853 0.014405067751018217
vn -0.8832754457718661 -0.46852478199099845 -0.017578838323353906
vn -0.7941704479580187 -0.6070877380231691 -0.02716206789020261
vn -0.655371356144584 -0.7551694376550853 0.014405067751018217
vn -0.7941704479580187 -0.6070877380231691 -0.02716206789020261
vn -0.5132957258989869 -0.858188774796335 -0.006286858309013006
vn -0.2892006616270433 -0.9572068388639283 0.010864849129468949
vn -0.655371356144584 -0.7551694376550853 0.014405067751018217
vn -0.5132957258989869 -0.858188774796335 -0.006286858309013006
vn -0.2892006616270433 -0.9572068388639283 0.010864849129468949
vn -0.5132957258989869 -0.858188774796335 -0.006286858309013006
vn -0.09927850214294957 -0.9945552942800702 0.03167878835649186
vn 0.27888425808461953 -0.9603165258568376 0.003967462519682607
vn -0.2892006616270433 -0.9572068388639283 0.010864849129468949
vn -0.09927850214294957 -0.9945552942800702 0.03167878835649186
vn 0.27888425808461953 -0.9603165258568376 0.003967462519682607
vn -0.09927850214294957 -0.9945552942800702 0.03167878835649186
vn 0.2721038696702542 -0.9613972087008775 -0.04092543478858622
vn 0.27888425808461953 -0.9603165258568376 0.003967462519682607
vn 0.2721038696702542 -0.9613972087008775 -0.04092543478858622
vn 0.6698958843841398 -0.7424399819606586 0.004730462075512465
vn 0.7327892950849038 -0.680449442010545 -0.002899288965810258
vn 0.27888425808461953 -0.9603165258568376 0.003967462519682607
vn 0.6698958843841398 -0.7424399819606586 0.004730462075512465
vn 0.7327892950849038 -0.680449442010545 -0.002899288965810258
vn 0.6698958843841398 -0.7424399819606586 0.004730462075512465
vn 0.9588181945634843 -0.2838275722656236 -0.01046799865411829
vn 0.9020768259984179 -0.4314757516637437 -0.009277700298421203
vn 0.7327892950849038 -0.680449442010545 -0.002899288965810258
vn 0.9588181945634843 -0.2838275722656236 -0.01046799865411829
vn 0.999148293447209 0.02218698675154277 -0.03479116727586263
vn 0.9020768259984179 -0.4314757516637437 -0.009277700298421203
vn 0.9588181945634843 -0.2838275722656236 -0.01046799865411829
vn -0.9548126853041187 0.2971925672560108 0.003051876491522237
vn -0.9679995164648528 0.2506519850306954 -0.012268599104349883
vn -0.987176210553393 -0.15924947987094878 0.01107846913049877
vn -0.9893466512971718 -0.1453331898869691 0.008453844353338916
vn -0.9548126853041187 0.2971925672560108 0.003051876491522237
vn -0.987176210553393 -0.15924947987094878 0.01107846913049877
vn -0.8260748350228445 -0.5635144089831129 0.007202625243134653
vn -0.987176210553393 -0.15924947987094878 0.01107846913049877
vn -0.863878262627098 -0.5034457518020697 -0.01602255762465016
vn -0.8260748350228445 -0.5635144089831129 0.007202625243134653
vn -0.9893466512971718 -0.1453331898869691 0.008453844353338916
vn -0.987176210553393 -0.15924947987094878 0.01107846913049877
vn -0.8260748350228445 -0.5635144089831129 0.007202625243134653
vn -0.863878262627098 -0.5034457518020697 -0.01602255762465016
vn -0.6095231889474068 -0.792697504608415 0.010590010527655201
vn -0.4451813080287345 -0.8954285936064191 -0.004608333088572928
vn -0.8260748350228445 -0.5635144089831129 0.007202625243134653
vn -0.6095231889474068 -0.792697504608415 0.010590010527655201
vn -0.4451813080287345 -0.8954285936064191 -0.004608333088572928
vn -0.6095231889474068 -0.792697504608415 0.010590010527655201
vn -0.16300008788262954 -0.9858132357189819 0.04004042496685021
vn 0.09723263133361248 -0.9949107067230927 -0.026429170469352573
vn -0.4451813080287345 -0.8954285936064191 -0.004608333088572928
vn -0.16300008788262954 -0.9858132357189819 0.04004042496685021
vn 0.09723263133361248 -0.9949107067230927 -0.026429170469352573
vn -0.16300008788262954 -0.9858132357189819 0.04004042496685021
vn 0.36479686770098246 -0.9310819271668372 -0.0031129116338178184
vn 0.5428654521318526 -0.8397505832705535 -0.010773057989474246
vn 0.09723263133361248 -0.9949107067230927 -0.026429170469352573
vn 0.36479686770098246 -0.9310819271668372 -0.0031129116338178184
vn 0.5428654521318526 -0.8397505832705535 -0.010773057989474246
vn 0.36479686770098246 -0.9310819271668372 -0.0031129116338178184
vn 0.7609924291699388 -0.6487432900465443 -0.004760920669475359
vn 0.8529237669772949 -0.5220331648184219 0.0015564558855690222
vn 0.5428654521318526 -0.8397505832705535 -0.010773057989474246
vn 0.7609924291699388 -0.6487432900465443 -0.004760920669475359
vn 0.8529237669772949 -0.5220331648184219 0.0015564558855690222
vn 0.7609924291699388 -0.6487432900465443 -0.004760920669475359
vn 0.9761849472603268 -0.2166857830876068 -0.010498578478224137
vn 0.9877505257122428 -0.1537552170853494 0.026612631854535943
vn 0.8529237669772949 -0.5220331648184219 0.0015564558855690222
vn 0.9761849472603268 -0.2166857830876068 -0.010498578478224137
vn 0.00015259299479417483 -0.00015259299479417483 -0.9999999767153777
vn 0.00012207799477415823 -0.00006103890279963101 -0.9999999906856077
vn 0 0 -1
vn -0.0003967529961903778 0.00024415599443415435 -0.9999998914874494
vn -0.00012207399299758154 0.00006103699649879077 -0.9999999906862126
vn -0.00003051849851942606 0 -0.9999999995343107
vn 0 -0.00003051849851942606 -0.9999999995343107
vn 0.00015259299479417483 -0.00015259299479417483 -0.9999999767153777
vn 0 0 -1
vn 0 0.00006103699695357926 -0.9999999981372425
vn 0 -0.00009155549885516555 -0.9999999958087953
vn 0 0 -1
vn 0 0.00006103699695357926 -0.9999999981372425
vn 0 0 -1
vn 0.00003051849851942606 0 -0.9999999995343107
vn -0.0001831109953226913 0.000030518498007788966 -0.9999999827694922
vn 0.00012207799477415823 -0.00006103890279963101 -0.9999999906856077
vn 0.00015259299479417483 -0.00015259299479417483 -0.9999999767153777
vn -0.0003967529961903778 0.00024415599443415435 -0.9999998914874494
vn -0.0005188299766879866 0.0007324659487372865 -0.9999995971544635
vn -0.00012207399299758154 0.00006103699649879077 -0.9999999906862126
vn -0.0001831109953226913 0.000030518498007788966 -0.9999999827694922
vn -0.00015259299657070994 0 -0.9999999883576886
vn 0.00012207799477415823 -0.00006103890279963101 -0.9999999906856077
vn 0 0.00006103699695357926 -0.9999999981372425
vn 0.00003051849851942606 0 -0.9999999995343107
vn -0.0005188299766879866 0.0007324659487372865 -0.9999995971544635
vn -0.0003967529961903778 0.00024415599443415435 -0.9999998914874494
vn 0 0.00006103699695357926 -0.9999999981372425
vn -0.0005188299766879866 0.0007324659487372865 -0.9999995971544635
vn 0 -0.00003051849851942606 -0.9999999995343107
vn 0 0 -1
vn 0 0 -1
vn -0.00006103699669776072 -0.00009155549868461986 -0.9999999939460378
vn 0 -0.00003051849851942606 -0.9999999995343107
vn 0 0 -1
vn -0.00003051940073816896 0 -0.9999999995342832
vn -0.00015259299657070994 0 -0.9999999883576886
vn -0.0001831109953226913 0.000030518498007788966 -0.9999999827694922
vn -0.00003051940073816896 0 -0.9999999995342832
vn 0 0 -1
vn -0.00015259299657070994 0 -0.9999999883576886
vn -0.00015259698713438906 -0.00027467499884744625 -0.9999999506339011
vn -0.00006103699669776072 -0.00009155549868461986 -0.9999999939460378
vn 0 0 -1
vn 0.00012207799477415823 0.00006103890279963101 -0.9999999906856077
vn 0 0 -1
vn -0.00003051940073816896 0 -0.9999999995342832
vn -0.0002746749601495619 -0.00030519396360873376 -0.9999999157051518
vn -0.00006103699669776072 -0.00009155549868461986 -0.9999999939460378
vn -0.00015259698713438906 -0.00027467499884744625 -0.9999999506339011
vn 0.0001831109946405085 0.00009155549732025425 -0.9999999790439771
vn 0 0 -1
vn 0.00012207799477415823 0.00006103890279963101 -0.9999999906856077
vn -0.00006103699695357926 0 -0.9999999981372425
vn -0.0002746749601495619 -0.00030519396360873376 -0.9999999157051518
vn -0.00015259698713438906 -0.00027467499884744625 -0.9999999506339011
vn -0.00003051849851942606 0 -0.9999999995343107
vn -0.0002746749601495619 -0.00030519396360873376 -0.9999999157051518
vn -0.00006103699695357926 0 -0.9999999981372425
vn -0.00030519396360873376 -0.0002746749601495619 -0.9999999157051518
vn 0.0001831109946405085 0.00009155549732025425 -0.9999999790439771
vn 0.00012207799477415823 0.00006103890279963101 -0.9999999906856077
vn -0.0003662329343540684 -0.0007019468940694146 -0.9999996865719488
vn -0.00030519396360873376 -0.0002746749601495619 -0.9999999157051518
vn 0.00012207799477415823 0.00006103890279963101 -0.9999999906856077
vn -0.00003051849851942606 0 -0.9999999995343107
vn -0.00003051849851942606 0 -0.9999999995343107
vn -0.00006103699695357926 0 -0.9999999981372425
vn -0.00003051849851942606 0 -0.9999999995343107
vn -0.00003051849851942606 0 -0.9999999995343107
vn -0.00003051849851942606 0 -0.9999999995343107
vn 0 -0.00009155549885516555 -0.9999999958087953
vn -0.00030519396360873376 -0.0002746749601495619 -0.9999999157051518
vn -0.0003662329343540684 -0.0007019468940694146 -0.9999996865719488
vn 0 0 -1
vn 0 -0.00009155549885516555 -0.9999999958087953
vn -0.0003662329343540684 -0.0007019468940694146 -0.9999996865719488
vn -0.00003051849851942606 0 -0.9999999995343107
vn -0.00003051849851942606 0 -0.9999999995343107
vn -0.00003051849851942606 0 -0.9999999995343107
vn -0.00003051849851942606 0 -0.9999999995343107
vn -0.00012207399299758154 0.00006103699649879077 -0.9999999906862126
vn -0.00003051849851942606 0 -0.9999999995343107
vn 0 0 1
vn 0.0002441559980746102 -0.00009155830282711819 0.9999999660024623
vn 0.00006103699695357926 0 0.9999999981372425
vn 0.00006103699695357926 0 0.9999999981372425
vn 0.0002441559980746102 -0.00009155830282711819 0.9999999660024623
vn 0.00012207399231539885 -0.00012207399231539885 0.9999999850979404
vn 0.00012207399686284473 -0.00024414799372568947 0.9999999627448475
vn 0 0 1
vn 0 -0.00006103699695357926 0.9999999981372425
vn 0 0 1
vn -0.00027467496475465586 0.00024415596078381413 0.999999932470763
vn -0.0002746669590279851 0.0002746669590279851 0.9999999245580588
vn 0 0 1
vn -0.0002746669590279851 0.0002746669590279851 0.9999999245580588
vn 0 0 1
vn -0.00027467496475465586 0.00024415596078381413 0.999999932470763
vn 0.00003051849851942606 0 0.9999999995343107
vn 0 0 1
vn -0.0002746669590279851 0.0002746669590279851 0.9999999245580588
vn -0.00027467496475465586 0.00024415596078381413 0.999999932470763
vn 0 0 1
vn 0.0002441559980746102 -0.00009155830282711819 0.9999999660024623
vn 0.00024415596078381413 -0.00027467496475465586 0.999999932470763
vn 0.00012207399231539885 -0.00012207399231539885 0.9999999850979404
vn 0.00012207399686284473 -0.00024414799372568947 0.9999999627448475
vn 0 -0.00006103699695357926 0.9999999981372425
vn 0.00015259700289443022 -0.0002441559962552912 0.9999999585510011
vn 0.00024415596078381413 -0.00027467496475465586 0.999999932470763
vn 0.00012207399686284473 -0.00024414799372568947 0.9999999627448475
vn 0.00015259700289443022 -0.0002441559962552912 0.9999999585510011
vn 0 0 1
vn 0 0 1
vn 0 -0.00003051940073816896 0.9999999995342832
vn 0 -0.00003051940073816896 0.9999999995342832
vn 0 0 1
vn 0 -0.00003051940073816896 0.9999999995342832
vn 0.00012207399231539885 -0.00012207399231539885 0.9999999850979404
vn 0.00024415596078381413 -0.00027467496475465586 0.999999932470763
vn 0.00015259700289443022 -0.0002441559962552912 0.9999999585510011
vn 0.00003051849851942606 0 0.9999999995343107
vn 0 0 1
vn 0 0 1
vn 0 0 1
vn 0 0 1
vn 0 0 1
vn 0 -0.00003051940073816896 0.9999999995342832
vn 0 -0.00003051940073816896 0.9999999995342832
vn 0 0.00003051849851942606 0.9999999995343107
vn 0 -0.00003051940073816896 0.9999999995342832
vn 0 0.00003051849851942606 0.9999999995343107
vn 0.00003051940061024807 0.00009155830005617155 0.999999995342822
vn 0 0 1
vn 0 0 1
vn 0.00027467499999871944 0.0001220779976728197 0.9999999548253022
vn 0.00003051940061024807 0.00009155830005617155 0.999999995342822
vn 0 0.00003051849851942606 0.9999999995343107
vn 0.0003967529895385699 0.00030519399839568176 0.9999998747218365
vn 0 0 1
vn 0.00027467499999871944 0.0001220779976728197 0.9999999548253022
vn 0.0004577909366044484 0.000640907957351256 0.9999996898321761
vn 0.00003051940061024807 0.00009155830005617155 0.999999995342822
vn 0.0003967529895385699 0.00030519399839568176 0.9999998747218365
vn 0.00009155549885516555 0 0.9999999958087953
vn 0.00009155549885516555 0 0.9999999958087953
vn 0.0003967529895385699 0.00030519399839568176 0.9999998747218365
vn 0 0 1
vn 0.0004577909366044484 0.000640907957351256 0.9999996898321761
vn 0.00027467499999871944 0.0001220779976728197 0.9999999548253022
vn 0.00003051940051075308 0.00012207799494472037 0.9999999920827648
vn 0.00003051940051075308 0.00012207799494472037 0.9999999920827648
vn 0.00027467499999871944 0.0001220779976728197 0.9999999548253022
vn 0.00003051849839151678 0.00009155549881252914 0.999999995343106
vn 0.00003051940051075308 0.00012207799494472037 0.9999999920827648
vn 0.00003051849839151678 0.00009155549881252914 0.999999995343106
vn 0 0 1
vn 0.00009155549885516555 0 0.9999999958087953
vn 0 0 1
vn 0.00006103699695357926 0 0.9999999981372425
vn 0 0 1
vn 0.00003051849839151678 0.00009155549881252914 0.999999995343106
vn 0 -0.00006103699695357926 0.9999999981372425
vn 0.9877505257122428 -0.1537552170853494 0.026612631854535943
vn 0.9761849472603268 -0.2166857830876068 -0.010498578478224137
vn 0.9915208922443318 0.12958218295712062 0.009735404617770617
vn 0.9395207479807428 0.3424512938853348 -0.005279718739252577
vn 0.9877505257122428 -0.1537552170853494 0.026612631854535943
vn 0.9915208922443318 0.12958218295712062 0.009735404617770617
vn 0.9395207479807428 0.3424512938853348 -0.005279718739252577
vn 0.9915208922443318 0.12958218295712062 0.009735404617770617
vn 0.8297464890961205 0.5573352604451273 0.02996950612245297
vn 0.6228359878722542 0.7820851728809253 0.020447850033837155
vn 0.9395207479807428 0.3424512938853348 -0.005279718739252577
vn 0.8297464890961205 0.5573352604451273 0.02996950612245297
vn 0.6228359878722542 0.7820851728809253 0.020447850033837155
vn 0.8297464890961205 0.5573352604451273 0.02996950612245297
vn 0.5546829169722207 0.832039425631314 -0.006103754115434047
vn 0.17307548546975238 0.9848914925732922 -0.005798636577887821
vn 0.6228359878722542 0.7820851728809253 0.020447850033837155
vn 0.5546829169722207 0.832039425631314 -0.006103754115434047
vn 0.17307548546975238 0.9848914925732922 -0.005798636577887821
vn 0.5546829169722207 0.832039425631314 -0.006103754115434047
vn 0.16703200545449254 0.9859253885261323 -0.00717198810968141
vn 0.17307548546975238 0.9848914925732922 -0.005798636577887821
vn 0.16703200545449254 0.9859253885261323 -0.00717198810968141
vn -0.3546975179306599 0.9349037805331231 0.012024637986368165
vn -0.23853539082342978 0.9711101713043216 0.006775139408497148
vn 0.17307548546975238 0.9848914925732922 -0.005798636577887821
vn -0.3546975179306599 0.9349037805331231 0.012024637986368165
vn -0.6816188732548398 0.7316401643238417 -0.009918748458587482
vn -0.23853539082342978 0.9711101713043216 0.006775139408497148
vn -0.3546975179306599 0.9349037805331231 0.012024637986368165
vn -0.6816188732548398 0.7316401643238417 -0.009918748458587482
vn -0.3546975179306599 0.9349037805331231 0.012024637986368165
vn -0.7835440676738485 0.6213357481135576 -0.0007629739742658687
vn -0.9548126853041187 0.2971925672560108 0.003051876491522237
vn -0.6816188732548398 0.7316401643238417 -0.009918748458587482
vn -0.7835440676738485 0.6213357481135576 -0.0007629739742658687
vn -0.9548126853041187 0.2971925672560108 0.003051876491522237
vn -0.7835440676738485 0.6213357481135576 -0.0007629739742658687
vn -0.9679995164648528 0.2506519850306954 -0.012268599104349883
vn 0.999148293447209 0.02218698675154277 -0.03479116727586263
vn 0.9588181945634843 -0.2838275722656236 -0.01046799865411829
vn 0.961308583844459 0.27405789076178294 0.027894069946195893
vn 0.8394815710912802 0.5433878166079751 0.0006103770421233269
vn 0.999148293447209 0.02218698675154277 -0.03479116727586263
vn 0.961308583844459 0.27405789076178294 0.027894069946195893
vn 0.8394815710912802 0.5433878166079751 0.0006103770421233269
vn 0.961308583844459 0.27405789076178294 0.027894069946195893
vn 0.725501533797983 0.6879020299866808 0.020936131375632976
vn 0.8394815710912802 0.5433878166079751 0.0006103770421233269
vn 0.725501533797983 0.6879020299866808 0.020936131375632976
vn 0.49325024272562057 0.8696427798675863 0.020630886439829476
vn 0.4986217252157229 0.8667437316327009 0.011475139141493238
vn 0.8394815710912802 0.5433878166079751 0.0006103770421233269
vn 0.49325024272562057 0.8696427798675863 0.020630886439829476
vn 0.0768154191780368 0.997044209286644 0.0014953609843098722
vn 0.4986217252157229 0.8667437316327009 0.011475139141493238
vn 0.49325024272562057 0.8696427798675863 0.020630886439829476
vn 0.0768154191780368 0.997044209286644 0.0014953609843098722
vn 0.49325024272562057 0.8696427798675863 0.020630886439829476
vn 0.10825149150030142 0.9939792321627702 -0.01693814089768872
vn 0.0768154191780368 0.997044209286644 0.0014953609843098722
vn 0.10825149150030142 0.9939792321627702 -0.01693814089768872
vn -0.2642929524253132 0.9644250165208514 -0.00579851766112951
vn -0.36289786269466523 0.9318275188976728 0.0016174908504265257
vn 0.0768154191780368 0.997044209286644 0.0014953609843098722
vn -0.2642929524253132 0.9644250165208514 -0.00579851766112951
vn -0.36289786269466523 0.9318275188976728 0.0016174908504265257
vn -0.2642929524253132 0.9644250165208514 -0.00579851766112951
vn -0.6665700889460074 0.7454318049038587 0.003967462701409583
vn -0.6907097220343367 0.7224800711311926 0.03070222639347759
vn -0.36289786269466523 0.9318275188976728 0.0016174908504265257
vn -0.6665700889460074 0.7454318049038587 0.003967462701409583
vn -0.9315490826650769 0.36318299579752156 -0.017731839988891652
vn -0.6907097220343367 0.7224800711311926 0.03070222639347759
vn -0.6665700889460074 0.7454318049038587 0.003967462701409583
vn -0.9315490826650769 0.36318299579752156 -0.017731839988891652
vn -0.6665700889460074 0.7454318049038587 0.003967462701409583
vn -0.9372338734136372 0.34803697769591374 -0.021515777521726575
vn -0.9315490826650769 0.36318299579752156 -0.017731839988891652
vn -0.9372338734136372 0.34803697769591374 -0.021515777521726575
vn -0.989455251892532 -0.14450720373331316 0.009796559164553032
f 1//1 2//2 3//3
f 4//4 5//5 6//6
f 7//7 8//8 9//9
f 10//10 11//11 12//12
f 13//13 14//14 15//15
f 16//16 17//17 18//18
f 19//19 20//20 21//21
f 22//22 23//23 24//24
f 25//25 26//26 27//27
f 28//28 29//29 30//30
f 31//31 32//32 33//33
f 34//34 35//35 36//36
f 37//37 38//38 39//39
f 40//40 41//41 42//42
f 43//43 44//44 45//45
f 46//46 47//47 48//48
f 49//49 50//50 51//51
f 52//52 53//53 54//54
f 55//55 56//56 57//57
f 58//58 59//59 60//60
f 61//61 62//62 63//63
f 64//64 65//65 66//66
f 67//67 68//68 69//69
f 70//70 71//71 72//72
f 73//73 74//74 75//75
f 76//76 77//77 78//78
f 79//79 80//80 81//81
f 82//82 83//83 84//84
f 85//85 86//86 87//87
f 88//88 89//89 90//90
f 91//91 92//92 93//93
f 94//94 95//95 96//96
f 97//97 98//98 99//99
f 100//100 101//101 102//102
f 103//103 104//104 105//105
f 106//106 107//107 108//108
f 109//109 110//110 111//111
f 112//112 113//113 114//114
f 115//115 116//116 117//117
f 118//118 119//119 120//120
f 121//121 122//122 123//123
f 124//124 125//125 126//126
f 127//127 128//128 129//129
f 130//130 131//131 132//132
f 133//133 134//134 135//135
f 136//136 137//137 138//138
f 139//139 140//140 141//141
f 142//142 143//143 144//144
f 145//145 146//146 147//147
f 148//148 149//149 150//150
f 151//151 152//152 153//153
f 154//154 155//155 156//156
f 157//157 158//158 159//159
f 160//160 161//161 162//162
f 163//163 164//164 165//165
f 166//166 167//167 168//168
f 169//169 170//170 171//171
f 172//172 173//173 174//174
f 175//175 176//176 177//177
f 178//178 179//179 180//180
f 181//181 182//182 183//183
f 184//184 185//185 186//186
f 187//187 188//188 189//189
f 190//190 191//191 192//192
f 193//193 194//194 195//195
f 196//196 197//197 198//198
f 199//199 200//200 201//201
f 202//202 203//203 204//204
f 205//205 206//206 207//207
f 208//208 209//209 210//210
f 211//211 212//212 213//213
f 214//214 215//215 216//216
f 217//217 218//218 219//219
f 220//220 221//221 222//222
f 223//223 224//224 225//225
f 226//226 227//227 228//228
f 229//229 230//230 231//231
f 232//232 233//233 234//234
f 235//235 236//236 237//237
f 238//238 239//239 240//240
f 241//241 242//242 243//243
f 244//244 245//245 246//246
f 247//247 248//248 249//249
f 250//250 251//251 252//252
f 253//253 254//254 255//255
f 256//256 257//257 258//258
f 259//259 260//260 261//261
f 262//262 263//263 264//264
f 265//265 266//266 267//267
f 268//268 269//269 270//270
f 271//271 272//272 273//273
f 274//274 275//275 276//276
f 277//277 278//278 279//279
f 280//280 281//281 282//282
f 283//283 284//284 285//285
f 286//286 287//287 288//288
f 289//289 290//290 291//291
f 292//292 293//293 294//294
f 295//295 296//296 297//297
f 298//298 299//299 300//300
f 301//301 302//302 303//303
f 304//304 305//305 306//306
f 307//307 308//308 309//309
f 310//310 311//311 312//312
f 313//313 314//314 315//315
f 316//316 317//317 318//318
f 319//319 320//320 321//321
f 322//322 323//323 324//324
f 325//325 326//326 327//327
f 328//328 329//329 330//330
