o node4
usemtl verbindung
v 0.005175768863409758 -0.029653960838913918 0.17219999432563782
v -0.0008662129985168576 -0.03007018007338047 0.17799989879131317
v 0.012012950144708157 -0.02746002934873104 0.17800000309944153
v 0.018240030854940414 -0.023815570399165154 0.17220020294189453
v 0.005175768863409758 -0.029653960838913918 0.17219999432563782
v 0.012012950144708157 -0.02746002934873104 0.17800000309944153
v 0.018240030854940414 -0.023815570399165154 0.17220020294189453
v 0.012012950144708157 -0.02746002934873104 0.17800000309944153
v 0.023030629381537437 -0.019259510561823845 0.17799970507621765
v 0.025502560660243034 -0.015322919934988022 0.17219939827919006
v 0.018240030854940414 -0.023815570399165154 0.17220020294189453
v 0.023030629381537437 -0.019259510561823845 0.17799970507621765
v 0.029198050498962402 -0.0057260990142822266 0.17219999432563782
v 0.025502560660243034 -0.015322919934988022 0.17219939827919006
v 0.029424719512462616 -0.005204141139984131 0.17799989879131317
v 0.025502560660243034 -0.015322919934988022 0.17219939827919006
v 0.023030629381537437 -0.019259510561823845 0.17799970507621765
v 0.029424719512462616 -0.005204141139984131 0.17799989879131317
v 0.02908444032073021 0.005432009231299162 0.17219990491867065
v 0.029198050498962402 -0.0057260990142822266 0.17219999432563782
v 0.029424719512462616 -0.005204141139984131 0.17799989879131317
v 0.02908444032073021 0.005432009231299162 0.17219990491867065
v 0.029424719512462616 -0.005204141139984131 0.17799989879131317
v 0.028739750385284424 0.006776750087738037 0.17800010740756989
v 0.024396350607275963 0.016782039776444435 0.17219999432563782
v 0.02908444032073021 0.005432009231299162 0.17219990491867065
v 0.028739750385284424 0.006776750087738037 0.17800010740756989
v 0.024396350607275963 0.016782039776444435 0.17219999432563782
v 0.028739750385284424 0.006776750087738037 0.17800010740756989
v 0.022955650463700294 0.018961599096655846 0.17799989879131317
v 0.013879469595849514 0.026024989783763885 0.17219999432563782
v 0.024396350607275963 0.016782039776444435 0.17219999432563782
v 0.022955650463700294 0.018961599096655846 0.17799989879131317
v 0.013879469595849514 0.026024989783763885 0.17219999432563782
v 0.022955650463700294 0.018961599096655846 0.17799989879131317
v 0.009623587131500244 0.027860820293426514 0.17799940705299377
v 0.0005884509882889688 0.029453929513692856 0.17219999432563782
v 0.013879469595849514 0.026024989783763885 0.17219999432563782
v 0.009623587131500244 0.027860820293426514 0.17799940705299377
v 0.0005884509882889688 0.029453929513692856 0.17219999432563782
v 0.009623587131500244 0.027860820293426514 0.17799940705299377
v -0.0023171300999820232 0.02925281971693039 0.17800000309944153
v -0.00850438978523016 0.03023391030728817 0.17799970507621765
v 0.0020373458974063396 0.031231459230184555 0.17799989879131317
v 0.0014964339789003134 0.03136080130934715 0.17219999432563782
v -0.00850438978523016 0.03023391030728817 0.17799970507621765
v 0.0014964339789003134 0.03136080130934715 0.17219999432563782
v -0.014144590124487877 0.028395770117640495 0.17219990491867065
v -0.018806690350174904 0.025147490203380585 0.17799989879131317
v -0.00850438978523016 0.03023391030728817 0.17799970507621765
v -0.014144590124487877 0.028395770117640495 0.17219990491867065
v -0.018806690350174904 0.025147490203380585 0.17799989879131317
v -0.014144590124487877 0.028395770117640495 0.17219990491867065
v -0.027628060430288315 0.01565939001739025 0.17219960689544678
v -0.027207789942622185 0.016080260276794434 0.17799970507621765
v -0.018806690350174904 0.025147490203380585 0.17799989879131317
v -0.027628060430288315 0.01565939001739025 0.17219960689544678
v -0.031105389818549156 0.00525474501773715 0.17800000309944153
v -0.027207789942622185 0.016080260276794434 0.17799970507621765
v -0.027628060430288315 0.01565939001739025 0.17219960689544678
v -0.031105389818549156 0.00525474501773715 0.17800000309944153
v -0.027628060430288315 0.01565939001739025 0.17219960689544678
v -0.0312846302986145 0.0038629770278930664 0.1722003072500229
v -0.030966520309448242 -0.0079879155382514 0.17799989879131317
v -0.0312846302986145 0.0038629770278930664 0.1722003072500229
v -0.030964849516749382 -0.00766366720199585 0.1721998006105423
v -0.030966520309448242 -0.0079879155382514 0.17799989879131317
v -0.031105389818549156 0.00525474501773715 0.17800000309944153
v -0.0312846302986145 0.0038629770278930664 0.1722003072500229
v -0.030966520309448242 -0.0079879155382514 0.17799989879131317
v -0.030964849516749382 -0.00766366720199585 0.1721998006105423
v -0.02241414040327072 -0.023128800094127655 0.1722003072500229
v -0.022708889096975327 -0.022601600736379623 0.17799870669841766
v -0.030966520309448242 -0.0079879155382514 0.17799989879131317
v -0.02241414040327072 -0.023128800094127655 0.1722003072500229
v -0.009087920188903809 -0.0308036208152771 0.17799970507621765
v -0.022708889096975327 -0.022601600736379623 0.17799870669841766
v -0.02241414040327072 -0.023128800094127655 0.1722003072500229
v -0.009087920188903809 -0.0308036208152771 0.17799970507621765
v -0.02241414040327072 -0.023128800094127655 0.1722003072500229
v -0.005069911014288664 -0.031888898462057114 0.17219990491867065
v 0.00620001507923007 -0.03147010877728462 0.17799989879131317
v -0.009087920188903809 -0.0308036208152771 0.17799970507621765
v -0.005069911014288664 -0.031888898462057114 0.17219990491867065
v 0.013879469595849514 0.026024989783763885 0.17219999432563782
v 0.014322450384497643 0.028044870123267174 0.17220039665699005
v 0.024189170449972153 0.020125260576605797 0.1722003072500229
v 0.013879469595849514 0.026024989783763885 0.17219999432563782
v 0.024189170449972153 0.020125260576605797 0.1722003072500229
v 0.024396350607275963 0.016782039776444435 0.17219999432563782
v 0.024396350607275963 0.016782039776444435 0.17219999432563782
v 0.024189170449972153 0.020125260576605797 0.1722003072500229
v 0.03152685984969139 0.0056701297871768475 0.17219999432563782
v -0.005069911014288664 -0.031888898462057114 0.17219990491867065
v -0.018959220498800278 -0.023331040516495705 0.17219990491867065
v -0.007413684856146574 -0.029002180323004723 0.17220020294189453
v -0.02241414040327072 -0.023128800094127655 0.1722003072500229
v -0.030964849516749382 -0.00766366720199585 0.1721998006105423
v -0.02830093912780285 -0.009976208209991455 0.17219990491867065
v -0.02241414040327072 -0.023128800094127655 0.1722003072500229
v -0.018959220498800278 -0.023331040516495705 0.17219990491867065
v -0.005069911014288664 -0.031888898462057114 0.17219990491867065
v 0.02908444032073021 0.005432009231299162 0.17219990491867065
v 0.024396350607275963 0.016782039776444435 0.17219999432563782
v 0.03152685984969139 0.0056701297871768475 0.17219999432563782
v -0.02241414040327072 -0.023128800094127655 0.1722003072500229
v -0.02830093912780285 -0.009976208209991455 0.17219990491867065
v -0.018959220498800278 -0.023331040516495705 0.17219990491867065
v 0.0005884509882889688 0.029453929513692856 0.17219999432563782
v 0.0014964339789003134 0.03136080130934715 0.17219999432563782
v 0.014322450384497643 0.028044870123267174 0.17220039665699005
v 0.0005884509882889688 0.029453929513692856 0.17219999432563782
v 0.014322450384497643 0.028044870123267174 0.17220039665699005
v 0.013879469595849514 0.026024989783763885 0.17219999432563782
v 0.029198050498962402 -0.0057260990142822266 0.17219999432563782
v 0.02908444032073021 0.005432009231299162 0.17219990491867065
v 0.03152685984969139 0.0056701297871768475 0.17219999432563782
v -0.014144590124487877 0.028395770117640495 0.17219990491867065
v 0.0014964339789003134 0.03136080130934715 0.17219999432563782
v 0.0005884509882889688 0.029453929513692856 0.17219999432563782
v 0.029567239806056023 -0.011892080307006836 0.17219960689544678
v 0.029198050498962402 -0.0057260990142822266 0.17219999432563782
v 0.03152685984969139 0.0056701297871768475 0.17219999432563782
v -0.011192729696631432 0.0271492600440979 0.1722003072500229
v -0.014144590124487877 0.028395770117640495 0.17219990491867065
v 0.0005884509882889688 0.029453929513692856 0.17219999432563782
v 0.025502560660243034 -0.015322919934988022 0.17219939827919006
v 0.029198050498962402 -0.0057260990142822266 0.17219999432563782
v 0.029567239806056023 -0.011892080307006836 0.17219960689544678
v -0.022529900074005127 0.01937115006148815 0.1721998006105423
v -0.014144590124487877 0.028395770117640495 0.17219990491867065
v -0.011192729696631432 0.0271492600440979 0.1722003072500229
v 0.021803200244903564 -0.02336239069700241 0.1721992939710617
v 0.025502560660243034 -0.015322919934988022 0.17219939827919006
v 0.029567239806056023 -0.011892080307006836 0.17219960689544678
v 0.018240030854940414 -0.023815570399165154 0.17220020294189453
v 0.025502560660243034 -0.015322919934988022 0.17219939827919006
v 0.021803200244903564 -0.02336239069700241 0.1721992939710617
v -0.027628060430288315 0.01565939001739025 0.17219960689544678
v -0.014144590124487877 0.028395770117640495 0.17219990491867065
v -0.022529900074005127 0.01937115006148815 0.1721998006105423
v 0.010733540169894695 -0.03012412041425705 0.17219990491867065
v 0.018240030854940414 -0.023815570399165154 0.17220020294189453
v 0.021803200244903564 -0.02336239069700241 0.1721992939710617
v -0.029200010001659393 0.005445897113531828 0.1721998006105423
v -0.027628060430288315 0.01565939001739025 0.17219960689544678
v -0.022529900074005127 0.01937115006148815 0.1721998006105423
v 0.005175768863409758 -0.029653960838913918 0.17219999432563782
v 0.018240030854940414 -0.023815570399165154 0.17220020294189453
v 0.010733540169894695 -0.03012412041425705 0.17219990491867065
v -0.0312846302986145 0.0038629770278930664 0.1722003072500229
v -0.027628060430288315 0.01565939001739025 0.17219960689544678
v -0.029200010001659393 0.005445897113531828 0.1721998006105423
v -0.005069911014288664 -0.031888898462057114 0.17219990491867065
v 0.005175768863409758 -0.029653960838913918 0.17219999432563782
v 0.010733540169894695 -0.03012412041425705 0.17219990491867065
v -0.030964849516749382 -0.00766366720199585 0.1721998006105423
v -0.0312846302986145 0.0038629770278930664 0.1722003072500229
v -0.029200010001659393 0.005445897113531828 0.1721998006105423
v -0.030964849516749382 -0.00766366720199585 0.1721998006105423
v -0.029200010001659393 0.005445897113531828 0.1721998006105423
v -0.02830093912780285 -0.009976208209991455 0.17219990491867065
v -0.005069911014288664 -0.031888898462057114 0.17219990491867065
v -0.007413684856146574 -0.029002180323004723 0.17220020294189453
v 0.005175768863409758 -0.029653960838913918 0.17219999432563782
v -0.0008662129985168576 -0.03007018007338047 0.17799989879131317
v -0.012521320022642612 -0.027152590453624725 0.17799970507621765
v -0.009087920188903809 -0.0308036208152771 0.17799970507621765
v -0.023483090102672577 -0.01886844076216221 0.17799989879131317
v -0.029292939230799675 -0.0051881070248782635 0.17799989879131317
v -0.030966520309448242 -0.0079879155382514 0.17799989879131317
v 0.024564320221543312 0.020061729475855827 0.1779996007680893
v 0.012389060109853745 0.02887468971312046 0.17800010740756989
v 0.022955650463700294 0.018961599096655846 0.17799989879131317
v 0.022955650463700294 0.018961599096655846 0.17799989879131317
v 0.012389060109853745 0.02887468971312046 0.17800010740756989
v 0.009623587131500244 0.027860820293426514 0.17799940705299377
v -0.023483090102672577 -0.01886844076216221 0.17799989879131317
v -0.030966520309448242 -0.0079879155382514 0.17799989879131317
v -0.022708889096975327 -0.022601600736379623 0.17799870669841766
v -0.009087920188903809 -0.0308036208152771 0.17799970507621765
v -0.012521320022642612 -0.027152590453624725 0.17799970507621765
v -0.022708889096975327 -0.022601600736379623 0.17799870669841766
v 0.03156660869717598 0.00415611220523715 0.17800000309944153
v 0.024564320221543312 0.020061729475855827 0.1779996007680893
v 0.022955650463700294 0.018961599096655846 0.17799989879131317
v -0.012521320022642612 -0.027152590453624725 0.17799970507621765
v -0.023483090102672577 -0.01886844076216221 0.17799989879131317
v -0.022708889096975327 -0.022601600736379623 0.17799870669841766
v 0.03156660869717598 0.00415611220523715 0.17800000309944153
v 0.022955650463700294 0.018961599096655846 0.17799989879131317
v 0.028739750385284424 0.006776750087738037 0.17800010740756989
v 0.012389060109853745 0.02887468971312046 0.17800010740756989
v 0.0020373458974063396 0.031231459230184555 0.17799989879131317
v 0.009623587131500244 0.027860820293426514 0.17799940705299377
v 0.03156660869717598 0.00415611220523715 0.17800000309944153
v 0.028739750385284424 0.006776750087738037 0.17800010740756989
v 0.029424719512462616 -0.005204141139984131 0.17799989879131317
v 0.009623587131500244 0.027860820293426514 0.17799940705299377
v 0.0020373458974063396 0.031231459230184555 0.17799989879131317
v -0.0023171300999820232 0.02925281971693039 0.17800000309944153
v 0.0020373458974063396 0.031231459230184555 0.17799989879131317
v -0.00850438978523016 0.03023391030728817 0.17799970507621765
v -0.0023171300999820232 0.02925281971693039 0.17800000309944153
v 0.03156660869717598 0.00415611220523715 0.17800000309944153
v 0.029424719512462616 -0.005204141139984131 0.17799989879131317
v 0.029770730063319206 -0.01135896984487772 0.17800019681453705
v -0.0023171300999820232 0.02925281971693039 0.17800000309944153
v -0.00850438978523016 0.03023391030728817 0.17799970507621765
v -0.014671919867396355 0.02567267045378685 0.17800019681453705
v 0.029770730063319206 -0.01135896984487772 0.17800019681453705
v 0.029424719512462616 -0.005204141139984131 0.17799989879131317
v 0.023030629381537437 -0.019259510561823845 0.17799970507621765
v -0.014671919867396355 0.02567267045378685 0.17800019681453705
v -0.00850438978523016 0.03023391030728817 0.17799970507621765
v -0.018806690350174904 0.025147490203380585 0.17799989879131317
v 0.029770730063319206 -0.01135896984487772 0.17800019681453705
v 0.023030629381537437 -0.019259510561823845 0.17799970507621765
v 0.020806489512324333 -0.02448946051299572 0.17800000309944153
v -0.014671919867396355 0.02567267045378685 0.17800019681453705
v -0.018806690350174904 0.025147490203380585 0.17799989879131317
v -0.02466106042265892 0.01624624989926815 0.17799970507621765
v -0.02466106042265892 0.01624624989926815 0.17799970507621765
v -0.018806690350174904 0.025147490203380585 0.17799989879131317
v -0.027207789942622185 0.016080260276794434 0.17799970507621765
v 0.020806489512324333 -0.02448946051299572 0.17800000309944153
v 0.023030629381537437 -0.019259510561823845 0.17799970507621765
v 0.012012950144708157 -0.02746002934873104 0.17800000309944153
v 0.020806489512324333 -0.02448946051299572 0.17800000309944153
v 0.012012950144708157 -0.02746002934873104 0.17800000309944153
v 0.00620001507923007 -0.03147010877728462 0.17799989879131317
v -0.02466106042265892 0.01624624989926815 0.17799970507621765
v -0.027207789942622185 0.016080260276794434 0.17799970507621765
v -0.0289763193577528 0.0059556360356509686 0.17799970507621765
v -0.0289763193577528 0.0059556360356509686 0.17799970507621765
v -0.027207789942622185 0.016080260276794434 0.17799970507621765
v -0.031105389818549156 0.00525474501773715 0.17800000309944153
v 0.00620001507923007 -0.03147010877728462 0.17799989879131317
v 0.012012950144708157 -0.02746002934873104 0.17800000309944153
v -0.0008662129985168576 -0.03007018007338047 0.17799989879131317
v -0.029292939230799675 -0.0051881070248782635 0.17799989879131317
v -0.0289763193577528 0.0059556360356509686 0.17799970507621765
v -0.031105389818549156 0.00525474501773715 0.17800000309944153
v -0.029292939230799675 -0.0051881070248782635 0.17799989879131317
v -0.031105389818549156 0.00525474501773715 0.17800000309944153
v -0.030966520309448242 -0.0079879155382514 0.17799989879131317
v 0.00620001507923007 -0.03147010877728462 0.17799989879131317
v -0.0008662129985168576 -0.03007018007338047 0.17799989879131317
v -0.009087920188903809 -0.0308036208152771 0.17799970507621765
v 0.00620001507923007 -0.03147010877728462 0.17799989879131317
v -0.005069911014288664 -0.031888898462057114 0.17219990491867065
v 0.010733540169894695 -0.03012412041425705 0.17219990491867065
v 0.020806489512324333 -0.02448946051299572 0.17800000309944153
v 0.00620001507923007 -0.03147010877728462 0.17799989879131317
v 0.010733540169894695 -0.03012412041425705 0.17219990491867065
v 0.020806489512324333 -0.02448946051299572 0.17800000309944153
v 0.010733540169894695 -0.03012412041425705 0.17219990491867065
v 0.021803200244903564 -0.02336239069700241 0.1721992939710617
v 0.020806489512324333 -0.02448946051299572 0.17800000309944153
v 0.021803200244903564 -0.02336239069700241 0.1721992939710617
v 0.029567239806056023 -0.011892080307006836 0.17219960689544678
v 0.029770730063319206 -0.01135896984487772 0.17800019681453705
v 0.020806489512324333 -0.02448946051299572 0.17800000309944153
v 0.029567239806056023 -0.011892080307006836 0.17219960689544678
v 0.029770730063319206 -0.01135896984487772 0.17800019681453705
v 0.029567239806056023 -0.011892080307006836 0.17219960689544678
v 0.03152685984969139 0.0056701297871768475 0.17219999432563782
v 0.03156660869717598 0.00415611220523715 0.17800000309944153
v 0.029770730063319206 -0.01135896984487772 0.17800019681453705
v 0.03152685984969139 0.0056701297871768475 0.17219999432563782
v 0.024564320221543312 0.020061729475855827 0.1779996007680893
v 0.03156660869717598 0.00415611220523715 0.17800000309944153
v 0.03152685984969139 0.0056701297871768475 0.17219999432563782
v 0.024564320221543312 0.020061729475855827 0.1779996007680893
v 0.03152685984969139 0.0056701297871768475 0.17219999432563782
v 0.024189170449972153 0.020125260576605797 0.1722003072500229
v 0.024564320221543312 0.020061729475855827 0.1779996007680893
v 0.024189170449972153 0.020125260576605797 0.1722003072500229
v 0.014322450384497643 0.028044870123267174 0.17220039665699005
v 0.012389060109853745 0.02887468971312046 0.17800010740756989
v 0.024564320221543312 0.020061729475855827 0.1779996007680893
v 0.014322450384497643 0.028044870123267174 0.17220039665699005
v 0.012389060109853745 0.02887468971312046 0.17800010740756989
v 0.014322450384497643 0.028044870123267174 0.17220039665699005
v 0.0014964339789003134 0.03136080130934715 0.17219999432563782
v 0.0020373458974063396 0.031231459230184555 0.17799989879131317
v 0.012389060109853745 0.02887468971312046 0.17800010740756989
v 0.0014964339789003134 0.03136080130934715 0.17219999432563782
v -0.011192729696631432 0.0271492600440979 0.1722003072500229
v 0.0005884509882889688 0.029453929513692856 0.17219999432563782
v -0.0023171300999820232 0.02925281971693039 0.17800000309944153
v -0.011192729696631432 0.0271492600440979 0.1722003072500229
v -0.0023171300999820232 0.02925281971693039 0.17800000309944153
v -0.014671919867396355 0.02567267045378685 0.17800019681453705
v -0.022529900074005127 0.01937115006148815 0.1721998006105423
v -0.011192729696631432 0.0271492600440979 0.1722003072500229
v -0.014671919867396355 0.02567267045378685 0.17800019681453705
v -0.022529900074005127 0.01937115006148815 0.1721998006105423
v -0.014671919867396355 0.02567267045378685 0.17800019681453705
v -0.02466106042265892 0.01624624989926815 0.17799970507621765
v -0.029200010001659393 0.005445897113531828 0.1721998006105423
v -0.022529900074005127 0.01937115006148815 0.1721998006105423
v -0.02466106042265892 0.01624624989926815 0.17799970507621765
v -0.029200010001659393 0.005445897113531828 0.1721998006105423
v -0.02466106042265892 0.01624624989926815 0.17799970507621765
v -0.0289763193577528 0.0059556360356509686 0.17799970507621765
v -0.029200010001659393 0.005445897113531828 0.1721998006105423
v -0.0289763193577528 0.0059556360356509686 0.17799970507621765
v -0.029292939230799675 -0.0051881070248782635 0.17799989879131317
v -0.02830093912780285 -0.009976208209991455 0.17219990491867065
v -0.029200010001659393 0.005445897113531828 0.1721998006105423
v -0.029292939230799675 -0.0051881070248782635 0.17799989879131317
v -0.02830093912780285 -0.009976208209991455 0.17219990491867065
v -0.029292939230799675 -0.0051881070248782635 0.17799989879131317
v -0.023483090102672577 -0.01886844076216221 0.17799989879131317
v -0.018959220498800278 -0.023331040516495705 0.17219990491867065
v -0.02830093912780285 -0.009976208209991455 0.17219990491867065
v -0.023483090102672577 -0.01886844076216221 0.17799989879131317
v -0.018959220498800278 -0.023331040516495705 0.17219990491867065
v -0.023483090102672577 -0.01886844076216221 0.17799989879131317
v -0.012521320022642612 -0.027152590453624725 0.17799970507621765
v -0.007413684856146574 -0.029002180323004723 0.17220020294189453
v -0.018959220498800278 -0.023331040516495705 0.17219990491867065
v -0.012521320022642612 -0.027152590453624725 0.17799970507621765
v -0.007413684856146574 -0.029002180323004723 0.17220020294189453
v -0.012521320022642612 -0.027152590453624725 0.17799970507621765
v -0.0008662129985168576 -0.03007018007338047 0.17799989879131317
v 0.005175768863409758 -0.029653960838913918 0.17219999432563782
v -0.007413684856146574 -0.029002180323004723 0.17220020294189453
v -0.0008662129985168576 -0.03007018007338047 0.17799989879131317
vn -0.18521870717066521 0.9826145195654803 -0.012756819867350567
vn 0.034700087440136106 0.9993451614037427 0.010254380067766902
vn -0.40764599706456406 0.9129840657248299 0.016877109047378762
vn -0.6001230955670068 0.7996859988399566 -0.018830120191176657
vn -0.18521870717066521 0.9826145195654803 -0.012756819867350567
vn -0.40764599706456406 0.9129840657248299 0.016877109047378762
vn -0.6001230955670068 0.7996859988399566 -0.018830120191176657
vn -0.40764599706456406 0.9129840657248299 0.016877109047378762
vn -0.7784187558301392 0.6277156878401934 -0.006103753858972992
vn -0.878315923064153 0.47741398077557223 -0.025239458234806587
vn -0.6001230955670068 0.7996859988399566 -0.018830120191176657
vn -0.7784187558301392 0.6277156878401934 -0.006103753858972992
vn -0.9817616516401351 0.18891181384433473 0.021363191682829248
vn -0.878315923064153 0.47741398077557223 -0.025239458234806587
vn -0.9857001232555367 0.1683118182035262 -0.008148549996341604
vn -0.878315923064153 0.47741398077557223 -0.025239458234806587
vn -0.7784187558301392 0.6277156878401934 -0.006103753858972992
vn -0.9857001232555367 0.1683118182035262 -0.008148549996341604
vn -0.9816090831577216 -0.1908954933443202 0.0015869729316203894
vn -0.9817616516401351 0.18891181384433473 0.021363191682829248
vn -0.9857001232555367 0.1683118182035262 -0.008148549996341604
vn -0.9816090831577216 -0.1908954933443202 0.0015869729316203894
vn -0.9857001232555367 0.1683118182035262 -0.008148549996341604
vn -0.966955229866793 -0.25446506948536596 -0.01565604819439857
vn -0.8341150387803161 -0.5512648293557185 0.01895230845893119
vn -0.9816090831577216 -0.1908954933443202 0.0015869729316203894
vn -0.966955229866793 -0.25446506948536596 -0.01565604819439857
vn -0.8341150387803161 -0.5512648293557185 0.01895230845893119
vn -0.966955229866793 -0.25446506948536596 -0.01565604819439857
vn -0.7515921779423058 -0.6595162317081152 0.012146529112006962
vn -0.4895788141653542 -0.8715186134227089 -0.027710849467399244
vn -0.8341150387803161 -0.5512648293557185 0.01895230845893119
vn -0.7515921779423058 -0.6595162317081152 0.012146529112006962
vn -0.4895788141653542 -0.8715186134227089 -0.027710849467399244
vn -0.7515921779423058 -0.6595162317081152 0.012146529112006962
vn -0.3185901595429879 -0.9478658895679487 0.007110951830409388
vn -0.031434771206188095 -0.9995050599667954 0.0012207620518391424
vn -0.4895788141653542 -0.8715186134227089 -0.027710849467399244
vn -0.3185901595429879 -0.9478658895679487 0.007110951830409388
vn -0.031434771206188095 -0.9995050599667954 0.0012207620518391424
vn -0.3185901595429879 -0.9478658895679487 0.007110951830409388
vn 0.10007079429746277 -0.9948184826837532 -0.017944989258006794
vn -0.23658427899738396 0.9709965711285701 -0.03454761623973201
vn 0.07419239163054281 0.9971267224797971 0.015290138679487747
vn 0.04419099587191068 0.9988450515736067 -0.01886050982258168
vn -0.23658427899738396 0.9709965711285701 -0.03454761623973201
vn 0.04419099587191068 0.9988450515736067 -0.01886050982258168
vn -0.45052957114183306 0.8927578246693628 0.0025635948165336916
vn -0.635566955179212 0.7704017226989339 -0.05035703671524221
vn -0.23658427899738396 0.9709965711285701 -0.03454761623973201
vn -0.45052957114183306 0.8927578246693628 0.0025635948165336916
vn -0.635566955179212 0.7704017226989339 -0.05035703671524221
vn -0.45052957114183306 0.8927578246693628 0.0025635948165336916
vn -0.8598200256883247 0.5105267270467546 -0.008484361865062264
vn -0.847518271868502 0.5302711170615472 0.022919887855894536
vn -0.635566955179212 0.7704017226989339 -0.05035703671524221
vn -0.8598200256883247 0.5105267270467546 -0.008484361865062264
vn -0.9846488947309927 0.17451018296851423 0.0035707345645351446
vn -0.847518271868502 0.5302711170615472 0.022919887855894536
vn -0.8598200256883247 0.5105267270467546 -0.008484361865062264
vn -0.9846488947309927 0.17451018296851423 0.0035707345645351446
vn -0.8598200256883247 0.5105267270467546 -0.008484361865062264
vn -0.992906743989834 0.11884119298697897 -0.0036011927104748456
vn -0.9629694641187315 -0.2695142576870427 -0.007202505000714684
vn -0.992906743989834 0.11884119298697897 -0.0036011927104748456
vn -0.9667301108537628 -0.255385695053517 -0.014527199685531834
vn -0.9629694641187315 -0.2695142576870427 -0.007202505000714684
vn -0.9846488947309927 0.17451018296851423 0.0035707345645351446
vn -0.992906743989834 0.11884119298697897 -0.0036011927104748456
vn -0.9629694641187315 -0.2695142576870427 -0.007202505000714684
vn -0.9667301108537628 -0.255385695053517 -0.014527199685531834
vn -0.7000817307828279 -0.7140596165229811 0.002105771871180426
vn -0.7278916009399213 -0.6852252862576752 0.025300678927755914
vn -0.9629694641187315 -0.2695142576870427 -0.007202505000714684
vn -0.7000817307828279 -0.7140596165229811 0.002105771871180426
vn -0.34019532552692205 -0.9398633769452893 -0.030396926927380254
vn -0.7278916009399213 -0.6852252862576752 0.025300678927755914
vn -0.7000817307828279 -0.7140596165229811 0.002105771871180426
vn -0.34019532552692205 -0.9398633769452893 -0.030396926927380254
vn -0.7000817307828279 -0.7140596165229811 0.002105771871180426
vn -0.14844389173947142 -0.98875128650922 0.01831131976681423
vn 0.1816804822037507 -0.9831437284409336 -0.020508817944299255
vn -0.34019532552692205 -0.9398633769452893 -0.030396926927380254
vn -0.14844389173947142 -0.98875128650922 0.01831131976681423
vn 0.00009155829903280564 0.0001525969977076536 -0.9999999841656169
vn 0.00006103890254379234 0.00015259699806298904 -0.9999999864942042
vn 0.00009155549847143772 0.00009155549847143772 -0.9999999916175907
vn 0.00009155829903280564 0.0001525969977076536 -0.9999999841656169
vn 0.00009155549847143772 0.00009155549847143772 -0.9999999916175907
vn 0.0001220739927133387 0.00009155549817298279 -0.9999999883577654
vn 0.0001220739927133387 0.00009155549817298279 -0.9999999883577654
vn 0.00009155549847143772 0.00009155549847143772 -0.9999999916175907
vn 0 0 -1
vn 0 0.00009155549885516555 -0.9999999958087953
vn -0.00012207799358022957 -0.00015259699721017865 -0.9999999809055596
vn 0.00009155829903280564 0.0001525969977076536 -0.9999999841656169
vn -0.0001220739927133387 -0.00009155549817298279 -0.9999999883577654
vn 0 0 -1
vn 0 0 -1
vn -0.0001220739927133387 -0.00009155549817298279 -0.9999999883577654
vn -0.00012207799358022957 -0.00015259699721017865 -0.9999999809055596
vn 0 0.00009155549885516555 -0.9999999958087953
vn 0.00003051849851942606 0 -0.9999999995343107
vn 0.0001220739927133387 0.00009155549817298279 -0.9999999883577654
vn 0 0 -1
vn -0.0001220739927133387 -0.00009155549817298279 -0.9999999883577654
vn 0 0 -1
vn -0.00012207799358022957 -0.00015259699721017865 -0.9999999809055596
vn 0 0 -1
vn 0 0 -1
vn 0.00006103890254379234 0.00015259699806298904 -0.9999999864942042
vn 0 0 -1
vn 0.00006103890254379234 0.00015259699806298904 -0.9999999864942042
vn 0.00009155829903280564 0.0001525969977076536 -0.9999999841656169
vn -0.00015259299649964902 0.00003051849816412019 -0.9999999878919993
vn 0.00003051849851942606 0 -0.9999999995343107
vn 0 0 -1
vn 0.00006103699669776072 -0.00009155549868461986 -0.9999999939460378
vn 0 0 -1
vn 0 0 -1
vn 0 0.00003051849851942606 -0.9999999995343107
vn -0.00015259299649964902 0.00003051849816412019 -0.9999999878919993
vn 0 0 -1
vn 0.00003051940022648324 -0.000183116990711456 -0.9999999827683669
vn 0.00006103699669776072 -0.00009155549868461986 -0.9999999939460378
vn 0 0 -1
vn 0.00003051849851942606 0 -0.9999999995343107
vn -0.00015259299649964902 0.00003051849816412019 -0.9999999878919993
vn 0 0.00003051849851942606 -0.9999999995343107
vn 0.00006103699683988214 -0.00006103699683988214 -0.999999996274485
vn 0.00006103699669776072 -0.00009155549868461986 -0.9999999939460378
vn 0.00003051940022648324 -0.000183116990711456 -0.9999999827683669
vn -0.0002441479927023964 0.00015259300111806115 -0.9999999585535659
vn 0.00003051849851942606 0 -0.9999999995343107
vn 0 0.00003051849851942606 -0.9999999995343107
vn -0.0002746749601495619 0.00030519396360873376 -0.9999999157051518
vn 0.00003051849851942606 0 -0.9999999995343107
vn -0.0002441479927023964 0.00015259300111806115 -0.9999999585535659
vn 0.00003051849851942606 0 -0.9999999995343107
vn 0.00006103699669776072 -0.00009155549868461986 -0.9999999939460378
vn 0.00006103699683988214 -0.00006103699683988214 -0.999999996274485
vn 0 0.00006103699695357926 -0.9999999981372425
vn -0.0002746749601495619 0.00030519396360873376 -0.9999999157051518
vn -0.0002441479927023964 0.00015259300111806115 -0.9999999585535659
vn -0.0002441479955448436 0 -0.9999999701958777
vn 0.00003051849851942606 0 -0.9999999995343107
vn 0.00006103699683988214 -0.00006103699683988214 -0.999999996274485
vn 0 0.00006103890325446353 -0.9999999981371261
vn -0.0002746749601495619 0.00030519396360873376 -0.9999999157051518
vn 0 0.00006103699695357926 -0.9999999981372425
vn -0.0002441479954311465 0.00003051849942889331 -0.9999999697301882
vn 0.00003051849851942606 0 -0.9999999995343107
vn -0.0002441479955448436 0 -0.9999999701958777
vn 0 0.00009155549885516555 -0.9999999958087953
vn 0 0.00006103890325446353 -0.9999999981371261
vn 0 0.00006103699695357926 -0.9999999981372425
vn 0 0 -1
vn -0.0002441479954311465 0.00003051849942889331 -0.9999999697301882
vn -0.0002441479955448436 0 -0.9999999701958777
vn 0 0 -1
vn -0.0002441479955448436 0 -0.9999999701958777
vn 0 0 -1
vn 0 0.00009155549885516555 -0.9999999958087953
vn 0.00009155829903280564 0.0001525969977076536 -0.9999999841656169
vn 0 0.00006103890325446353 -0.9999999981371261
vn 0 -0.00006103890325446353 0.9999999981371261
vn -0.00018311699864123556 -0.00018311699864123556 0.9999999664681642
vn -0.000030519400681315164 -0.00006103890322603668 0.9999999976714093
vn -0.0005493499969152773 -0.0003967529663417016 0.9999997704008058
vn 0 0 1
vn 0 0 1
vn 0.00012207399299758154 0.00006103699649879077 0.9999999906862126
vn -0.00012207399117842747 -0.00018311099404359866 0.9999999757841519
vn 0.00009155549868461986 0.00006103699669776072 0.9999999939460378
vn 0.00009155549868461986 0.00006103699669776072 0.9999999939460378
vn -0.00012207399117842747 -0.00018311099404359866 0.9999999757841519
vn -0.00009155830282711819 -0.0002441559980746102 0.9999999660024623
vn -0.0005493499969152773 -0.0003967529663417016 0.9999997704008058
vn 0 0 1
vn -0.00030519400194910554 -0.00036623300024497487 0.999999886364999
vn -0.000030519400681315164 -0.00006103890322603668 0.9999999976714093
vn -0.00018311699864123556 -0.00018311699864123556 0.9999999664681642
vn -0.00030519400194910554 -0.00036623300024497487 0.999999886364999
vn 0.00003051849851942606 0 0.9999999995343107
vn 0.00012207399299758154 0.00006103699649879077 0.9999999906862126
vn 0.00009155549868461986 0.00006103699669776072 0.9999999939460378
vn -0.00018311699864123556 -0.00018311699864123556 0.9999999664681642
vn -0.0005493499969152773 -0.0003967529663417016 0.9999997704008058
vn -0.00030519400194910554 -0.00036623300024497487 0.999999886364999
vn 0.00003051849851942606 0 0.9999999995343107
vn 0.00009155549868461986 0.00006103699669776072 0.9999999939460378
vn 0.000061036996925155 0.0000305184984625775 0.9999999976715532
vn -0.00012207399117842747 -0.00018311099404359866 0.9999999757841519
vn 0 -0.00003051849851942606 0.9999999995343107
vn -0.00009155830282711819 -0.0002441559980746102 0.9999999660024623
vn 0.00003051849851942606 0 0.9999999995343107
vn 0.000061036996925155 0.0000305184984625775 0.9999999976715532
vn -0.00015259299649964902 0.00003051849816412019 0.9999999878919993
vn -0.00009155830282711819 -0.0002441559980746102 0.9999999660024623
vn 0 -0.00003051849851942606 0.9999999995343107
vn 0 0.00009155549885516555 0.9999999958087953
vn 0 -0.00003051849851942606 0.9999999995343107
vn 0 0.00012207399322497578 0.9999999925489701
vn 0 0.00009155549885516555 0.9999999958087953
vn 0.00003051849851942606 0 0.9999999995343107
vn -0.00015259299649964902 0.00003051849816412019 0.9999999878919993
vn -0.00009155549881252914 0.00003051849839151678 0.999999995343106
vn 0 0.00009155549885516555 0.9999999958087953
vn 0 0.00012207399322497578 0.9999999925489701
vn -0.00006103890223109038 0.0001831169904556128 0.9999999813712098
vn -0.00009155549881252914 0.00003051849839151678 0.999999995343106
vn -0.00015259299649964902 0.00003051849816412019 0.9999999878919993
vn -0.0001525969977076536 0.00009155829903280564 0.9999999841656169
vn -0.00006103890223109038 0.0001831169904556128 0.9999999813712098
vn 0 0.00012207399322497578 0.9999999925489701
vn -0.000061036996925155 0.0000305184984625775 0.9999999976715532
vn -0.00009155549881252914 0.00003051849839151678 0.999999995343106
vn -0.0001525969977076536 0.00009155829903280564 0.9999999841656169
vn 0 0.00003051849851942606 0.9999999995343107
vn -0.00006103890223109038 0.0001831169904556128 0.9999999813712098
vn -0.000061036996925155 0.0000305184984625775 0.9999999976715532
vn 0.00003051849851942606 0 0.9999999995343107
vn 0.00003051849851942606 0 0.9999999995343107
vn -0.000061036996925155 0.0000305184984625775 0.9999999976715532
vn 0.00003051849851942606 0 0.9999999995343107
vn 0 0.00003051849851942606 0.9999999995343107
vn -0.0001525969977076536 0.00009155829903280564 0.9999999841656169
vn 0 -0.00003051849851942606 0.9999999995343107
vn 0 0.00003051849851942606 0.9999999995343107
vn 0 -0.00003051849851942606 0.9999999995343107
vn 0 0 1
vn 0.00003051849851942606 0 0.9999999995343107
vn 0.00003051849851942606 0 0.9999999995343107
vn 0.00009155549885516555 0 0.9999999958087953
vn 0.00009155549885516555 0 0.9999999958087953
vn 0.00003051849851942606 0 0.9999999995343107
vn 0.00006103699695357926 0 0.9999999981372425
vn 0 0 1
vn 0 -0.00003051849851942606 0.9999999995343107
vn 0 -0.00006103890325446353 0.9999999981371261
vn 0 0 1
vn 0.00009155549885516555 0 0.9999999958087953
vn 0.00006103699695357926 0 0.9999999981372425
vn 0 0 1
vn 0.00006103699695357926 0 0.9999999981372425
vn 0 0 1
vn 0 0 1
vn 0 -0.00006103890325446353 0.9999999981371261
vn -0.000030519400681315164 -0.00006103890322603668 0.9999999976714093
vn 0.1816804822037507 -0.9831437284409336 -0.020508817944299255
vn -0.14844389173947142 -0.98875128650922 0.01831131976681423
vn 0.3579611984026075 -0.9335250613897156 0.019868069747635594
vn 0.6536291847544193 -0.7568144809686018 -0.0008545370086869182
vn 0.1816804822037507 -0.9831437284409336 -0.020508817944299255
vn 0.3579611984026075 -0.9335250613897156 0.019868069747635594
vn 0.6536291847544193 -0.7568144809686018 -0.0008545370086869182
vn 0.3579611984026075 -0.9335250613897156 0.019868069747635594
vn 0.7147258809703931 -0.6992832705577346 -0.013031599639841955
vn 0.6536291847544193 -0.7568144809686018 -0.0008545370086869182
vn 0.7147258809703931 -0.6992832705577346 -0.013031599639841955
vn 0.9324429631479912 -0.3613128662204968 0.0017700789031109628
vn 0.9426090848847214 -0.3338775979378082 -0.0037232630940019808
vn 0.6536291847544193 -0.7568144809686018 -0.0008545370086869182
vn 0.9324429631479912 -0.3613128662204968 0.0017700789031109628
vn 0.9426090848847214 -0.3338775979378082 -0.0037232630940019808
vn 0.9324429631479912 -0.3613128662204968 0.0017700789031109628
vn 0.9929177991992663 -0.11389830228329641 -0.03378491927278026
vn 0.9926944639679011 -0.11490439929916124 -0.03680598088871755
vn 0.9426090848847214 -0.3338775979378082 -0.0037232630940019808
vn 0.9929177991992663 -0.11389830228329641 -0.03378491927278026
vn 0.7799813027912752 0.6257063647422455 -0.010986920272268644
vn 0.9107937548975217 0.40096532137014723 0.09839485300668815
vn 0.908700670701272 0.41163907620662715 0.0694000144583074
vn 0.7799813027912752 0.6257063647422455 -0.010986920272268644
vn 0.908700670701272 0.41163907620662715 0.0694000144583074
vn 0.7713372662111139 0.6349784098563106 -0.04290968154526843
vn 0.7799813027912752 0.6257063647422455 -0.010986920272268644
vn 0.7713372662111139 0.6349784098563106 -0.04290968154526843
vn 0.46834425634721777 0.8834634109531251 0.01208548938360673
vn 0.3840248608506386 0.9233017620943251 0.006225942672565099
vn 0.7799813027912752 0.6257063647422455 -0.010986920272268644
vn 0.46834425634721777 0.8834634109531251 0.01208548938360673
vn 0.3840248608506386 0.9233017620943251 0.006225942672565099
vn 0.46834425634721777 0.8834634109531251 0.01208548938360673
vn 0.04419099587191068 0.9988450515736067 -0.01886050982258168
vn 0.07419239163054281 0.9971267224797971 0.015290138679487747
vn 0.3840248608506386 0.9233017620943251 0.006225942672565099
vn 0.04419099587191068 0.9988450515736067 -0.01886050982258168
vn 0.35890435583721336 -0.9332733001198222 0.013733559062792581
vn -0.031434771206188095 -0.9995050599667954 0.0012207620518391424
vn 0.10007079429746277 -0.9948184826837532 -0.017944989258006794
vn 0.35890435583721336 -0.9332733001198222 0.013733559062792581
vn 0.10007079429746277 -0.9948184826837532 -0.017944989258006794
vn 0.5017377151529425 -0.8648259662822588 0.01831156020283557
vn 0.7494676629453195 -0.6617851186929218 -0.01840323003922287
vn 0.35890435583721336 -0.9332733001198222 0.013733559062792581
vn 0.5017377151529425 -0.8648259662822588 0.01831156020283557
vn 0.7494676629453195 -0.6617851186929218 -0.01840323003922287
vn 0.5017377151529425 -0.8648259662822588 0.01831156020283557
vn 0.8493365541908213 -0.5277911360320049 0.007995901531890422
vn 0.980783592336505 -0.19400818855687485 0.02060018874623015
vn 0.7494676629453195 -0.6617851186929218 -0.01840323003922287
vn 0.8493365541908213 -0.5277911360320049 0.007995901531890422
vn 0.980783592336505 -0.19400818855687485 0.02060018874623015
vn 0.8493365541908213 -0.5277911360320049 0.007995901531890422
vn 0.974921856751186 -0.2218103947067721 -0.018097569694463644
vn 0.980783592336505 -0.19400818855687485 0.02060018874623015
vn 0.974921856751186 -0.2218103947067721 -0.018097569694463644
vn 0.9900797324867536 0.13950408599714662 0.01675509800206766
vn 0.9423280468612044 0.33387539181496995 -0.023346837883276194
vn 0.980783592336505 -0.19400818855687485 0.02060018874623015
vn 0.9900797324867536 0.13950408599714662 0.01675509800206766
vn 0.9423280468612044 0.33387539181496995 -0.023346837883276194
vn 0.9900797324867536 0.13950408599714662 0.01675509800206766
vn 0.7948188608080393 0.6043467985671781 0.05502658962186567
vn 0.6296347314498589 0.7768272081059121 -0.009979664244746746
vn 0.9423280468612044 0.33387539181496995 -0.023346837883276194
vn 0.7948188608080393 0.6043467985671781 0.05502658962186567
vn 0.6296347314498589 0.7768272081059121 -0.009979664244746746
vn 0.7948188608080393 0.6043467985671781 0.05502658962186567
vn 0.42726569733220315 0.9041246637528081 -0.0016174909884154823
vn 0.2532787859530883 0.9673669706967893 0.007141469809991001
vn 0.6296347314498589 0.7768272081059121 -0.009979664244746746
vn 0.42726569733220315 0.9041246637528081 -0.0016174909884154823
vn 0.2532787859530883 0.9673669706967893 0.007141469809991001
vn 0.42726569733220315 0.9041246637528081 -0.0016174909884154823
vn 0.034700087440136106 0.9993451614037427 0.010254380067766902
vn -0.18521870717066521 0.9826145195654803 -0.012756819867350567
vn 0.2532787859530883 0.9673669706967893 0.007141469809991001
vn 0.034700087440136106 0.9993451614037427 0.010254380067766902
f 1//1 2//2 3//3
f 4//4 5//5 6//6
f 7//7 8//8 9//9
f 10//10 11//11 12//12
f 13//13 14//14 15//15
f 16//16 17//17 18//18
f 19//19 20//20 21//21
f 22//22 23//23 24//24
f 25//25 26//26 27//27
f 28//28 29//29 30//30
f 31//31 32//32 33//33
f 34//34 35//35 36//36
f 37//37 38//38 39//39
f 40//40 41//41 42//42
f 43//43 44//44 45//45
f 46//46 47//47 48//48
f 49//49 50//50 51//51
f 52//52 53//53 54//54
f 55//55 56//56 57//57
f 58//58 59//59 60//60
f 61//61 62//62 63//63
f 64//64 65//65 66//66
f 67//67 68//68 69//69
f 70//70 71//71 72//72
f 73//73 74//74 75//75
f 76//76 77//77 78//78
f 79//79 80//80 81//81
f 82//82 83//83 84//84
f 85//85 86//86 87//87
f 88//88 89//89 90//90
f 91//91 92//92 93//93
f 94//94 95//95 96//96
f 97//97 98//98 99//99
f 100//100 101//101 102//102
f 103//103 104//104 105//105
f 106//106 107//107 108//108
f 109//109 110//110 111//111
f 112//112 113//113 114//114
f 115//115 116//116 117//117
f 118//118 119//119 120//120
f 121//121 122//122 123//123
f 124//124 125//125 126//126
f 127//127 128//128 129//129
f 130//130 131//131 132//132
f 133//133 134//134 135//135
f 136//136 137//137 138//138
f 139//139 140//140 141//141
f 142//142 143//143 144//144
f 145//145 146//146 147//147
f 148//148 149//149 150//150
f 151//151 152//152 153//153
f 154//154 155//155 156//156
f 157//157 158//158 159//159
f 160//160 161//161 162//162
f 163//163 164//164 165//165
f 166//166 167//167 168//168
f 169//169 170//170 171//171
f 172//172 173//173 174//174
f 175//175 176//176 177//177
f 178//178 179//179 180//180
f 181//181 182//182 183//183
f 184//184 185//185 186//186
f 187//187 188//188 189//189
f 190//190 191//191 192//192
f 193//193 194//194 195//195
f 196//196 197//197 198//198
f 199//199 200//200 201//201
f 202//202 203//203 204//204
f 205//205 206//206 207//207
f 208//208 209//209 210//210
f 211//211 212//212 213//213
f 214//214 215//215 216//216
f 217//217 218//218 219//219
f 220//220 221//221 222//222
f 223//223 224//224 225//225
f 226//226 227//227 228//228
f 229//229 230//230 231//231
f 232//232 233//233 234//234
f 235//235 236//236 237//237
f 238//238 239//239 240//240
f 241//241 242//242 243//243
f 244//244 245//245 246//246
f 247//247 248//248 249//249
f 250//250 251//251 252//252
f 253//253 254//254 255//255
f 256//256 257//257 258//258
f 259//259 260//260 261//261
f 262//262 263//263 264//264
f 265//265 266//266 267//267
f 268//268 269//269 270//270
f 271//271 272//272 273//273
f 274//274 275//275 276//276
f 277//277 278//278 279//279
f 280//280 281//281 282//282
f 283//283 284//284 285//285
f 286//286 287//287 288//288
f 289//289 290//290 291//291
f 292//292 293//293 294//294
f 295//295 296//296 297//297
f 298//298 299//299 300//300
f 301//301 302//302 303//303
f 304//304 305//305 306//306
f 307//307 308//308 309//309
f 310//310 311//311 312//312
f 313//313 314//314 315//315
f 316//316 317//317 318//318
f 319//319 320//320 321//321
f 322//322 323//323 324//324
f 325//325 326//326 327//327
f 328//328 329//329 330//330
