o node2
usemtl grey_001
v 0.00041614900692366064 0.05246119946241379 0.03909999132156372
v 0.000334979995386675 0.052478790283203125 0.043449219316244125
v 0.0010902880458161235 0.052102260291576385 0.043470438569784164
v 0.00122487498447299 0.05194658041000366 0.03909986838698387
v 0.00041614900692366064 0.05246119946241379 0.03909999132156372
v 0.0010902880458161235 0.052102260291576385 0.043470438569784164
v -0.0007362280157394707 0.05238395184278488 0.03909986838698387
v -0.001461624982766807 0.051421280950307846 0.03909999132156372
v -0.001519380952231586 0.05127406120300293 0.043456070125103
v -0.0007362280157394707 0.05238395184278488 0.03909986838698387
v -0.001519380952231586 0.05127406120300293 0.043456070125103
v -0.0006971950060687959 0.05240093916654587 0.043452080339193344
v 0.00122487498447299 0.05194658041000366 0.03909986838698387
v 0.0010902880458161235 0.052102260291576385 0.043470438569784164
v 0.001527189975604415 0.05106920003890991 0.04344569891691208
v 0.001515864976681769 0.05084817856550217 0.03909999132156372
v 0.00122487498447299 0.05194658041000366 0.03909986838698387
v 0.001527189975604415 0.05106920003890991 0.04344569891691208
v -0.0007362280157394707 0.05238395184278488 0.03909986838698387
v -0.0006971950060687959 0.05240093916654587 0.043452080339193344
v 0.000334979995386675 0.052478790283203125 0.043449219316244125
v 0.00041614900692366064 0.05246119946241379 0.03909999132156372
v -0.0007362280157394707 0.05238395184278488 0.03909986838698387
v 0.000334979995386675 0.052478790283203125 0.043449219316244125
v -0.0006298120133578777 0.04831039160490036 0.044700559228658676
v -0.0008292049751617014 0.04973965138196945 0.04345421865582466
v 0.000018965500203194097 0.0494769811630249 0.04345262050628662
v -0.0013780590379610658 0.05280900001525879 0.044180918484926224
v -0.0007411440019495785 0.05370020121335983 0.04470539093017578
v -0.0006971950060687959 0.05240093916654587 0.043452080339193344
v -0.001519380952231586 0.05127406120300293 0.043456070125103
v -0.0013780590379610658 0.05280900001525879 0.044180918484926224
v -0.0006971950060687959 0.05240093916654587 0.043452080339193344
v -0.00227028108201921 0.05266027897596359 0.04470121115446091
v -0.0013780590379610658 0.05280900001525879 0.044180918484926224
v -0.001519380952231586 0.05127406120300293 0.043456070125103
v -0.001519380952231586 0.05127406120300293 0.043456070125103
v -0.0027682778891175985 0.051104120910167694 0.04470247030258179
v -0.00227028108201921 0.05266027897596359 0.04470121115446091
v -0.002573430072516203 0.04998521879315376 0.04470108821988106
v -0.0012909770011901855 0.05019420012831688 0.04342864826321602
v -0.0019860859028995037 0.04908490180969238 0.04467188939452171
v -0.002573430072516203 0.04998521879315376 0.04470108821988106
v -0.001519380952231586 0.05127406120300293 0.043456070125103
v -0.0012909770011901855 0.05019420012831688 0.04342864826321602
v -0.0008292049751617014 0.04973965138196945 0.04345421865582466
v -0.001462221029214561 0.04865419119596481 0.044698409736156464
v -0.0012909770011901855 0.05019420012831688 0.04342864826321602
v -0.001462221029214561 0.04865419119596481 0.044698409736156464
v -0.0008292049751617014 0.04973965138196945 0.04345421865582466
v -0.0006298120133578777 0.04831039160490036 0.044700559228658676
v -0.001462221029214561 0.04865419119596481 0.044698409736156464
v -0.0019860859028995037 0.04908490180969238 0.04467188939452171
v -0.0012909770011901855 0.05019420012831688 0.04342864826321602
v -0.0006971950060687959 0.05240093916654587 0.043452080339193344
v -0.0007411440019495785 0.05370020121335983 0.04470539093017578
v 0.000334979995386675 0.052478790283203125 0.043449219316244125
v 0.00013878899335395545 0.048238929361104965 0.0447002612054348
v -0.0006298120133578777 0.04831039160490036 0.044700559228658676
v 0.000018965500203194097 0.0494769811630249 0.04345262050628662
v -0.0013780590379610658 0.05280900001525879 0.044180918484926224
v -0.00227028108201921 0.05266027897596359 0.04470121115446091
v -0.0007411440019495785 0.05370020121335983 0.04470539093017578
v -0.001519380952231586 0.05127406120300293 0.043456070125103
v -0.002573430072516203 0.04998521879315376 0.04470108821988106
v -0.0027682778891175985 0.051104120910167694 0.04470247030258179
v 0.0024489760398864746 0.05224161967635155 0.04469238966703415
v 0.0019319650018587708 0.052990131080150604 0.04470448940992355
v 0.00218385411426425 0.05273865908384323 0.04509960860013962
v 0.002732515102252364 0.05145436152815819 0.044709980487823486
v 0.00218385411426425 0.05273865908384323 0.04509960860013962
v 0.0027953980024904013 0.05117719992995262 0.04509906843304634
v -0.0007411440019495785 0.05370020121335983 0.04470539093017578
v -0.0009575830190442502 0.05360376089811325 0.04509991034865379
v 0.0005554690142162144 0.05375444144010544 0.04509996995329857
v 0.002732515102252364 0.05145436152815819 0.044709980487823486
v 0.0024489760398864746 0.05224161967635155 0.04469238966703415
v 0.00218385411426425 0.05273865908384323 0.04509960860013962
v 0.0007882100180722773 0.053655799478292465 0.04470038041472435
v -0.0007411440019495785 0.05370020121335983 0.04470539093017578
v 0.0005554690142162144 0.05375444144010544 0.04509996995329857
v -0.00227028108201921 0.05266027897596359 0.04470121115446091
v -0.002822935115545988 0.05086689814925194 0.04509996995329857
v -0.002135633956640959 0.052810490131378174 0.04509973153471947
v -0.00227028108201921 0.05266027897596359 0.04470121115446091
v -0.0027682778891175985 0.051104120910167694 0.04470247030258179
v -0.002822935115545988 0.05086689814925194 0.04509996995329857
v 0.0027155280113220215 0.0504915714263916 0.04469037055969238
v 0.002732515102252364 0.05145436152815819 0.044709980487823486
v 0.0027953980024904013 0.05117719992995262 0.04509906843304634
v 0.0019319650018587708 0.052990131080150604 0.04470448940992355
v 0.0007882100180722773 0.053655799478292465 0.04470038041472435
v 0.0005554690142162144 0.05375444144010544 0.04509996995329857
v 0.0019319650018587708 0.052990131080150604 0.04470448940992355
v 0.0005554690142162144 0.05375444144010544 0.04509996995329857
v 0.00218385411426425 0.05273865908384323 0.04509960860013962
v -0.0007411440019495785 0.05370020121335983 0.04470539093017578
v -0.002135633956640959 0.052810490131378174 0.04509973153471947
v -0.0009575830190442502 0.05360376089811325 0.04509991034865379
v -0.0007411440019495785 0.05370020121335983 0.04470539093017578
v -0.00227028108201921 0.05266027897596359 0.04470121115446091
v -0.002135633956640959 0.052810490131378174 0.04509973153471947
v -0.0005734700243920088 0.04959588870406151 0.039100050926208496
v 0.00026452899328432977 0.049497898668050766 0.039099931716918945
v 0.000018965500203194097 0.0494769811630249 0.04345262050628662
v -0.0005734700243920088 0.04959588870406151 0.039100050926208496
v 0.000018965500203194097 0.0494769811630249 0.04345262050628662
v -0.0008292049751617014 0.04973965138196945 0.04345421865582466
v 0.001515864976681769 0.05084817856550217 0.03909999132156372
v 0.001527189975604415 0.05106920003890991 0.04344569891691208
v 0.0012133120326325297 0.0500749908387661 0.04345690831542015
v -0.0013972519664093852 0.0503423810005188 0.039099931716918945
v -0.0008292049751617014 0.04973965138196945 0.04345421865582466
v -0.0012909770011901855 0.05019420012831688 0.04342864826321602
v -0.0013972519664093852 0.0503423810005188 0.039099931716918945
v -0.0005734700243920088 0.04959588870406151 0.039100050926208496
v -0.0008292049751617014 0.04973965138196945 0.04345421865582466
v 0.0010926719987764955 0.04993885010480881 0.03909999132156372
v 0.001515864976681769 0.05084817856550217 0.03909999132156372
v 0.0012133120326325297 0.0500749908387661 0.04345690831542015
v 0.0010926719987764955 0.04993885010480881 0.03909999132156372
v 0.0012133120326325297 0.0500749908387661 0.04345690831542015
v 0.0005613419925794005 0.049588680267333984 0.043447189033031464
v -0.0013972519664093852 0.0503423810005188 0.039099931716918945
v -0.0012909770011901855 0.05019420012831688 0.04342864826321602
v -0.001519380952231586 0.05127406120300293 0.043456070125103
v 0.00026452899328432977 0.049497898668050766 0.039099931716918945
v 0.0010926719987764955 0.04993885010480881 0.03909999132156372
v 0.0005613419925794005 0.049588680267333984 0.043447189033031464
v -0.001461624982766807 0.051421280950307846 0.03909999132156372
v -0.0013972519664093852 0.0503423810005188 0.039099931716918945
v -0.001519380952231586 0.05127406120300293 0.043456070125103
v 0.00026452899328432977 0.049497898668050766 0.039099931716918945
v 0.0005613419925794005 0.049588680267333984 0.043447189033031464
v 0.000018965500203194097 0.0494769811630249 0.04345262050628662
v 0.00026452899328432977 0.049497898668050766 0.039099931716918945
v -0.0005734700243920088 0.04959588870406151 0.039100050926208496
v -0.0013972519664093852 0.0503423810005188 0.039099931716918945
v -0.001461624982766807 0.051421280950307846 0.03909999132156372
v -0.0007362280157394707 0.05238395184278488 0.03909986838698387
v 0.00041614900692366064 0.05246119946241379 0.03909999132156372
v -0.0013972519664093852 0.0503423810005188 0.039099931716918945
v -0.001461624982766807 0.051421280950307846 0.03909999132156372
v 0.00122487498447299 0.05194658041000366 0.03909986838698387
v 0.0010926719987764955 0.04993885010480881 0.03909999132156372
v 0.00026452899328432977 0.049497898668050766 0.039099931716918945
v 0.00122487498447299 0.05194658041000366 0.03909986838698387
v 0.001515864976681769 0.05084817856550217 0.03909999132156372
v 0.0010926719987764955 0.04993885010480881 0.03909999132156372
v 0.00122487498447299 0.05194658041000366 0.03909986838698387
v -0.001461624982766807 0.051421280950307846 0.03909999132156372
v 0.00041614900692366064 0.05246119946241379 0.03909999132156372
v 0.00122487498447299 0.05194658041000366 0.03909986838698387
v 0.00026452899328432977 0.049497898668050766 0.039099931716918945
v -0.0013972519664093852 0.0503423810005188 0.039099931716918945
v 0.00122487498447299 0.05194658041000366 0.03909986838698387
v 0.001248896005563438 0.048523180186748505 0.04470067843794823
v 0.00013878899335395545 0.048238929361104965 0.0447002612054348
v 0.0005613419925794005 0.049588680267333984 0.043447189033031464
v 0.0012133120326325297 0.0500749908387661 0.04345690831542015
v 0.001248896005563438 0.048523180186748505 0.04470067843794823
v 0.0005613419925794005 0.049588680267333984 0.043447189033031464
v 0.002345501910895109 0.04951076954603195 0.0446886382997036
v 0.0012133120326325297 0.0500749908387661 0.04345690831542015
v 0.0027155280113220215 0.0504915714263916 0.04469037055969238
v 0.002732515102252364 0.05145436152815819 0.044709980487823486
v 0.0027155280113220215 0.0504915714263916 0.04469037055969238
v 0.001527189975604415 0.05106920003890991 0.04344569891691208
v 0.0024489760398864746 0.05224161967635155 0.04469238966703415
v 0.002732515102252364 0.05145436152815819 0.044709980487823486
v 0.001527189975604415 0.05106920003890991 0.04344569891691208
v 0.0024489760398864746 0.05224161967635155 0.04469238966703415
v 0.001527189975604415 0.05106920003890991 0.04344569891691208
v 0.0010902880458161235 0.052102260291576385 0.043470438569784164
v 0.0010902880458161235 0.052102260291576385 0.043470438569784164
v 0.0019319650018587708 0.052990131080150604 0.04470448940992355
v 0.0024489760398864746 0.05224161967635155 0.04469238966703415
v 0.0007882100180722773 0.053655799478292465 0.04470038041472435
v 0.0010902880458161235 0.052102260291576385 0.043470438569784164
v 0.000334979995386675 0.052478790283203125 0.043449219316244125
v 0.0007882100180722773 0.053655799478292465 0.04470038041472435
v 0.0019319650018587708 0.052990131080150604 0.04470448940992355
v 0.0010902880458161235 0.052102260291576385 0.043470438569784164
v 0.0005613419925794005 0.049588680267333984 0.043447189033031464
v 0.00013878899335395545 0.048238929361104965 0.0447002612054348
v 0.000018965500203194097 0.0494769811630249 0.04345262050628662
v 0.0007882100180722773 0.053655799478292465 0.04470038041472435
v 0.000334979995386675 0.052478790283203125 0.043449219316244125
v -0.0007411440019495785 0.05370020121335983 0.04470539093017578
v 0.0012133120326325297 0.0500749908387661 0.04345690831542015
v 0.002345501910895109 0.04951076954603195 0.0446886382997036
v 0.001248896005563438 0.048523180186748505 0.04470067843794823
v 0.0027155280113220215 0.0504915714263916 0.04469037055969238
v 0.0012133120326325297 0.0500749908387661 0.04345690831542015
v 0.001527189975604415 0.05106920003890991 0.04344569891691208
v -0.002573430072516203 0.04998521879315376 0.04470108821988106
v -0.0020088551100343466 0.04907798022031784 0.04510020837187767
v -0.002822935115545988 0.05086689814925194 0.04509996995329857
v -0.002573430072516203 0.04998521879315376 0.04470108821988106
v -0.0019860859028995037 0.04908490180969238 0.04467188939452171
v -0.0020088551100343466 0.04907798022031784 0.04510020837187767
v 0.00013878899335395545 0.048238929361104965 0.0447002612054348
v 0.001248896005563438 0.048523180186748505 0.04470067843794823
v 0.0005998589913360775 0.04826145991683006 0.04509991034865379
v 0.0027155280113220215 0.0504915714263916 0.04469037055969238
v 0.0027953980024904013 0.05117719992995262 0.04509906843304634
v 0.002269685035571456 0.04934500902891159 0.04510151967406273
v -0.0006298120133578777 0.04831039160490036 0.044700559228658676
v 0.00013878899335395545 0.048238929361104965 0.0447002612054348
v 0.0005998589913360775 0.04826145991683006 0.04509991034865379
v -0.0006298120133578777 0.04831039160490036 0.044700559228658676
v 0.0005998589913360775 0.04826145991683006 0.04509991034865379
v -0.0008382300147786736 0.048359088599681854 0.04509985074400902
v -0.0027682778891175985 0.051104120910167694 0.04470247030258179
v -0.002573430072516203 0.04998521879315376 0.04470108821988106
v -0.002822935115545988 0.05086689814925194 0.04509996995329857
v 0.002345501910895109 0.04951076954603195 0.0446886382997036
v 0.0027155280113220215 0.0504915714263916 0.04469037055969238
v 0.002269685035571456 0.04934500902891159 0.04510151967406273
v -0.001462221029214561 0.04865419119596481 0.044698409736156464
v -0.0006298120133578777 0.04831039160490036 0.044700559228658676
v -0.0008382300147786736 0.048359088599681854 0.04509985074400902
v -0.001462221029214561 0.04865419119596481 0.044698409736156464
v -0.0008382300147786736 0.048359088599681854 0.04509985074400902
v -0.0020088551100343466 0.04907798022031784 0.04510020837187767
v 0.001248896005563438 0.048523180186748505 0.04470067843794823
v 0.002345501910895109 0.04951076954603195 0.0446886382997036
v 0.002269685035571456 0.04934500902891159 0.04510151967406273
v 0.001248896005563438 0.048523180186748505 0.04470067843794823
v 0.002269685035571456 0.04934500902891159 0.04510151967406273
v 0.0005998589913360775 0.04826145991683006 0.04509991034865379
v -0.0019860859028995037 0.04908490180969238 0.04467188939452171
v -0.001462221029214561 0.04865419119596481 0.044698409736156464
v -0.0020088551100343466 0.04907798022031784 0.04510020837187767
v 0.002269685035571456 0.04934500902891159 0.04510151967406273
v 0.0027953980024904013 0.05117719992995262 0.04509906843304634
v 0.0011903640115633607 0.050087329000234604 0.045100029557943344
v 0.0005998589913360775 0.04826145991683006 0.04509991034865379
v 0.002269685035571456 0.04934500902891159 0.04510151967406273
v 0.0011903640115633607 0.050087329000234604 0.045100029557943344
v 0.0005998589913360775 0.04826145991683006 0.04509991034865379
v 0.0011903640115633607 0.050087329000234604 0.045100029557943344
v 0.00041347899241372943 0.05000317096710205 0.045100029557943344
v 0.0005998589913360775 0.04826145991683006 0.04509991034865379
v 0.00041347899241372943 0.05000317096710205 0.045100029557943344
v -0.00019496999448165298 0.04951256141066551 0.045100029557943344
v -0.0008382300147786736 0.048359088599681854 0.04509985074400902
v 0.0005998589913360775 0.04826145991683006 0.04509991034865379
v -0.00019496999448165298 0.04951256141066551 0.045100029557943344
v 0.0011903640115633607 0.050087329000234604 0.045100029557943344
v 0.0027953980024904013 0.05117719992995262 0.04509906843304634
v 0.0010697840480133891 0.05085957050323486 0.045100029557943344
v -0.0008382300147786736 0.048359088599681854 0.04509985074400902
v -0.00019496999448165298 0.04951256141066551 0.045100029557943344
v -0.0020088551100343466 0.04907798022031784 0.04510020837187767
v 0.0027953980024904013 0.05117719992995262 0.04509906843304634
v 0.00218385411426425 0.05273865908384323 0.04509960860013962
v 0.0013854500139132142 0.05157452076673508 0.045100029557943344
v 0.0010697840480133891 0.05085957050323486 0.045100029557943344
v 0.0027953980024904013 0.05117719992995262 0.04509906843304634
v 0.0013854500139132142 0.05157452076673508 0.045100029557943344
v -0.0020088551100343466 0.04907798022031784 0.04510020837187767
v -0.00019496999448165298 0.04951256141066551 0.045100029557943344
v -0.0012152789859101176 0.05044399946928024 0.045100029557943344
v 0.0013854500139132142 0.05157452076673508 0.045100029557943344
v 0.00218385411426425 0.05273865908384323 0.04509960860013962
v 0.00022080099734012038 0.0523177906870842 0.04509996995329857
v 0.00022080099734012038 0.0523177906870842 0.04509996995329857
v 0.00218385411426425 0.05273865908384323 0.04509960860013962
v 0.0005554690142162144 0.05375444144010544 0.04509996995329857
v -0.0020088551100343466 0.04907798022031784 0.04510020837187767
v -0.0012152789859101176 0.05044399946928024 0.045100029557943344
v -0.002822935115545988 0.05086689814925194 0.04509996995329857
v -0.0012152789859101176 0.05044399946928024 0.045100029557943344
v -0.0010697840480133891 0.051140010356903076 0.045100029557943344
v -0.002822935115545988 0.05086689814925194 0.04509996995329857
v 0.00022080099734012038 0.0523177906870842 0.04509996995329857
v 0.0005554690142162144 0.05375444144010544 0.04509996995329857
v -0.0009575830190442502 0.05360376089811325 0.04509991034865379
v -0.0010697840480133891 0.051140010356903076 0.045100029557943344
v -0.0011903640115633607 0.05191224068403244 0.045100029557943344
v -0.002822935115545988 0.05086689814925194 0.04509996995329857
v -0.00041347899241372943 0.05199639871716499 0.045100029557943344
v 0.00022080099734012038 0.0523177906870842 0.04509996995329857
v -0.0009575830190442502 0.05360376089811325 0.04509991034865379
v -0.002822935115545988 0.05086689814925194 0.04509996995329857
v -0.0011903640115633607 0.05191224068403244 0.045100029557943344
v -0.002135633956640959 0.052810490131378174 0.04509973153471947
v -0.0011903640115633607 0.05191224068403244 0.045100029557943344
v -0.00041347899241372943 0.05199639871716499 0.045100029557943344
v -0.0009575830190442502 0.05360376089811325 0.04509991034865379
v -0.0011903640115633607 0.05191224068403244 0.045100029557943344
v -0.0009575830190442502 0.05360376089811325 0.04509991034865379
v -0.002135633956640959 0.052810490131378174 0.04509973153471947
v 0.00041347899241372943 0.05000317096710205 0.045100029557943344
v 0.0011903640115633607 0.050087329000234604 0.04426990821957588
v -0.00012637699546758085 0.04966944083571434 0.044269971549510956
v 0.00041347899241372943 0.05000317096710205 0.045100029557943344
v 0.0011903640115633607 0.050087329000234604 0.045100029557943344
v 0.0011903640115633607 0.050087329000234604 0.04426990821957588
v -0.00019496999448165298 0.04951256141066551 0.045100029557943344
v 0.00041347899241372943 0.05000317096710205 0.045100029557943344
v -0.00012637699546758085 0.04966944083571434 0.044269971549510956
v -0.00019496999448165298 0.04951256141066551 0.045100029557943344
v -0.00012637699546758085 0.04966944083571434 0.044269971549510956
v -0.0006564049981534481 0.050143420696258545 0.04426990821957588
v -0.0012152789859101176 0.05044399946928024 0.045100029557943344
v -0.00019496999448165298 0.04951256141066551 0.045100029557943344
v -0.0006564049981534481 0.050143420696258545 0.04426990821957588
v -0.0012152789859101176 0.05044399946928024 0.045100029557943344
v -0.0006564049981534481 0.050143420696258545 0.04426990821957588
v -0.0013854500139132142 0.05042504891753197 0.04426990821957588
v -0.0010697840480133891 0.051140010356903076 0.045100029557943344
v -0.0013854500139132142 0.05042504891753197 0.04426990821957588
v -0.0010887980461120605 0.05177450180053711 0.04426990821957588
v -0.0010697840480133891 0.051140010356903076 0.045100029557943344
v -0.0012152789859101176 0.05044399946928024 0.045100029557943344
v -0.0013854500139132142 0.05042504891753197 0.04426990821957588
v -0.0011903640115633607 0.05191224068403244 0.045100029557943344
v -0.0010697840480133891 0.051140010356903076 0.045100029557943344
v -0.0010887980461120605 0.05177450180053711 0.04426990821957588
v -0.0011903640115633607 0.05191224068403244 0.045100029557943344
v -0.0010887980461120605 0.05177450180053711 0.04426990821957588
v -0.00041347899241372943 0.05199639871716499 0.04426990821957588
v -0.00041347899241372943 0.05199639871716499 0.045100029557943344
v -0.0011903640115633607 0.05191224068403244 0.045100029557943344
v -0.00041347899241372943 0.05199639871716499 0.04426990821957588
v -0.00041347899241372943 0.05199639871716499 0.045100029557943344
v -0.00041347899241372943 0.05199639871716499 0.04426990821957588
v 0.00019496999448165298 0.05248713120818138 0.04426990821957588
v 0.00022080099734012038 0.0523177906870842 0.04509996995329857
v -0.00041347899241372943 0.05199639871716499 0.045100029557943344
v 0.00019496999448165298 0.05248713120818138 0.04426990821957588
v 0.00022080099734012038 0.0523177906870842 0.04509996995329857
v 0.00019496999448165298 0.05248713120818138 0.04426990821957588
v 0.0006564049981534481 0.051856160163879395 0.04426990821957588
v 0.0013854500139132142 0.05157452076673508 0.045100029557943344
v 0.0006564049981534481 0.051856160163879395 0.04426990821957588
v 0.0013854500139132142 0.05157452076673508 0.04426990821957588
v 0.0013854500139132142 0.05157452076673508 0.045100029557943344
v 0.00022080099734012038 0.0523177906870842 0.04509996995329857
v 0.0006564049981534481 0.051856160163879395 0.04426990821957588
v 0.0013854500139132142 0.05157452076673508 0.045100029557943344
v 0.0013854500139132142 0.05157452076673508 0.04426990821957588
v 0.0010697840480133891 0.05085957050323486 0.04426990821957588
v 0.0010697840480133891 0.05085957050323486 0.045100029557943344
v 0.0013854500139132142 0.05157452076673508 0.045100029557943344
v 0.0010697840480133891 0.05085957050323486 0.04426990821957588
v 0.0010697840480133891 0.05085957050323486 0.045100029557943344
v 0.0010697840480133891 0.05085957050323486 0.04426990821957588
v 0.0011903640115633607 0.050087329000234604 0.04426990821957588
v 0.0011903640115633607 0.050087329000234604 0.045100029557943344
v 0.0010697840480133891 0.05085957050323486 0.045100029557943344
v 0.0011903640115633607 0.050087329000234604 0.04426990821957588
v -0.0010887980461120605 0.05177450180053711 0.04426990821957588
v -0.0013854500139132142 0.05042504891753197 0.04426990821957588
v -0.0006564049981534481 0.050143420696258545 0.04426990821957588
v -0.00012637699546758085 0.04966944083571434 0.044269971549510956
v -0.0010887980461120605 0.05177450180053711 0.04426990821957588
v -0.0006564049981534481 0.050143420696258545 0.04426990821957588
v 0.0010697840480133891 0.05085957050323486 0.04426990821957588
v -0.00012637699546758085 0.04966944083571434 0.044269971549510956
v 0.0011903640115633607 0.050087329000234604 0.04426990821957588
v 0.0010697840480133891 0.05085957050323486 0.04426990821957588
v -0.0010887980461120605 0.05177450180053711 0.04426990821957588
v -0.00012637699546758085 0.04966944083571434 0.044269971549510956
v 0.0006564049981534481 0.051856160163879395 0.04426990821957588
v -0.00041347899241372943 0.05199639871716499 0.04426990821957588
v -0.0010887980461120605 0.05177450180053711 0.04426990821957588
v 0.0006564049981534481 0.051856160163879395 0.04426990821957588
v -0.0010887980461120605 0.05177450180053711 0.04426990821957588
v 0.0010697840480133891 0.05085957050323486 0.04426990821957588
v 0.00019496999448165298 0.05248713120818138 0.04426990821957588
v -0.00041347899241372943 0.05199639871716499 0.04426990821957588
v 0.0006564049981534481 0.051856160163879395 0.04426990821957588
v 0.0013854500139132142 0.05157452076673508 0.04426990821957588
v 0.0006564049981534481 0.051856160163879395 0.04426990821957588
v 0.0010697840480133891 0.05085957050323486 0.04426990821957588
vn 0.44595133897985134 0.8950447963882969 0.00471335552550168
vn 0.44595133897985134 0.8950447963882969 0.00471335552550168
vn 0.44595133897985134 0.8950447963882969 0.00471335552550168
vn 0.5368511632145011 0.8435683776324471 -0.013535908310802635
vn 0.5368511632145011 0.8435683776324471 -0.013535908310802635
vn 0.5368511632145011 0.8435683776324471 -0.013535908310802635
vn -0.7986253584083237 0.6017497245259087 0.009736834196461158
vn -0.7986253584083237 0.6017497245259087 0.009736834196461158
vn -0.7986253584083237 0.6017497245259087 0.009736834196461158
vn -0.8078112594765519 0.5894204968725195 0.004944383627820515
vn -0.8078112594765519 0.5894204968725195 0.004944383627820515
vn -0.8078112594765519 0.5894204968725195 0.004944383627820515
vn 0.9210547875111235 0.38916361628881235 0.014483030064644548
vn 0.9210547875111235 0.38916361628881235 0.014483030064644548
vn 0.9210547875111235 0.38916361628881235 0.014483030064644548
vn 0.9665336915771151 0.25606789418885406 -0.01555173983836755
vn 0.9665336915771151 0.25606789418885406 -0.01555173983836755
vn 0.9665336915771151 0.25606789418885406 -0.01555173983836755
vn -0.0751619849694745 0.9971661423939133 -0.0032187697479290605
vn -0.0751619849694745 0.9971661423939133 -0.0032187697479290605
vn -0.0751619849694745 0.9971661423939133 -0.0032187697479290605
vn -0.06688158914186451 0.9977469973243759 -0.005270897841035531
vn -0.06688158914186451 0.9977469973243759 -0.005270897841035531
vn -0.06688158914186451 0.9977469973243759 -0.005270897841035531
vn -0.20563560347016951 -0.6593080638097449 -0.7232059703714458
vn -0.20563560347016951 -0.6593080638097449 -0.7232059703714458
vn -0.20563560347016951 -0.6593080638097449 -0.7232059703714458
vn -0.3427768974198445 0.6461724096626549 -0.6818835792024789
vn -0.3427768974198445 0.6461724096626549 -0.6818835792024789
vn -0.3427768974198445 0.6461724096626549 -0.6818835792024789
vn -0.5487849553370453 0.39776759187271066 -0.7352659489269866
vn -0.5487849553370453 0.39776759187271066 -0.7352659489269866
vn -0.5487849553370453 0.39776759187271066 -0.7352659489269866
vn -0.5099480793180187 0.40527946114576874 -0.758749968549099
vn -0.5099480793180187 0.40527946114576874 -0.758749968549099
vn -0.5099480793180187 0.40527946114576874 -0.758749968549099
vn -0.7035063293483874 0.2245650670904865 -0.6742769276858016
vn -0.7035063293483874 0.2245650670904865 -0.6742769276858016
vn -0.7035063293483874 0.2245650670904865 -0.6742769276858016
vn -0.6190295163338823 -0.38146230232827005 -0.686504894235908
vn -0.6190295163338823 -0.38146230232827005 -0.686504894235908
vn -0.6190295163338823 -0.38146230232827005 -0.686504894235908
vn -0.6880693527641022 -0.12739798596917012 -0.7143740749479845
vn -0.6880693527641022 -0.12739798596917012 -0.7143740749479845
vn -0.6880693527641022 -0.12739798596917012 -0.7143740749479845
vn -0.47890843845051223 -0.5261718510364632 -0.7027018505438518
vn -0.47890843845051223 -0.5261718510364632 -0.7027018505438518
vn -0.47890843845051223 -0.5261718510364632 -0.7027018505438518
vn -0.2683877051917295 -0.6540989878329736 -0.7071934345126493
vn -0.2683877051917295 -0.6540989878329736 -0.7071934345126493
vn -0.2683877051917295 -0.6540989878329736 -0.7071934345126493
vn -0.4158449068053669 -0.550593421872537 -0.7238231118683114
vn -0.4158449068053669 -0.550593421872537 -0.7238231118683114
vn -0.4158449068053669 -0.550593421872537 -0.7238231118683114
vn -0.05416762141265204 0.6922969891599274 -0.7195767836656455
vn -0.05416762141265204 0.6922969891599274 -0.7195767836656455
vn -0.05416762141265204 0.6922969891599274 -0.7195767836656455
vn -0.06647489890801152 -0.711442939450682 -0.6995927613411554
vn -0.06647489890801152 -0.711442939450682 -0.6995927613411554
vn -0.06647489890801152 -0.711442939450682 -0.6995927613411554
vn -0.45406779129072794 0.6700285000687671 -0.5872684650208607
vn -0.45406779129072794 0.6700285000687671 -0.5872684650208607
vn -0.45406779129072794 0.6700285000687671 -0.5872684650208607
vn -0.6931095315870848 -0.11983029877300845 -0.7108022768105792
vn -0.6931095315870848 -0.11983029877300845 -0.7108022768105792
vn -0.6931095315870848 -0.11983029877300845 -0.7108022768105792
vn 0.8111817004877162 0.5628197029515092 -0.15880248978977643
vn 0.8111817004877162 0.5628197029515092 -0.15880248978977643
vn 0.8111817004877162 0.5628197029515092 -0.15880248978977643
vn 0.9256468727085722 0.362475682095999 0.10857829863227997
vn 0.9256468727085722 0.362475682095999 0.10857829863227997
vn 0.9256468727085722 0.362475682095999 0.10857829863227997
vn -0.09738211791527787 0.9777903864417292 0.18558740068352933
vn -0.09738211791527787 0.9777903864417292 0.18558740068352933
vn -0.09738211791527787 0.9777903864417292 0.18558740068352933
vn 0.9223575628236302 0.3363612605419843 0.1900463856763934
vn 0.9223575628236302 0.3363612605419843 0.1900463856763934
vn 0.9223575628236302 0.3363612605419843 0.1900463856763934
vn 0.02758120799195336 0.9740752767696423 -0.22453648289721112
vn 0.02758120799195336 0.9740752767696423 -0.22453648289721112
vn 0.02758120799195336 0.9740752767696423 -0.22453648289721112
vn -0.9256918307044678 0.3273638741287067 0.18954558418083864
vn -0.9256918307044678 0.3273638741287067 0.18954558418083864
vn -0.9256918307044678 0.3273638741287067 0.18954558418083864
vn -0.9511805993655255 0.30440328231994473 0.05093239738598196
vn -0.9511805993655255 0.30440328231994473 0.05093239738598196
vn -0.9511805993655255 0.30440328231994473 0.05093239738598196
vn 0.9854954423287702 -0.01388286884177049 -0.16913308103958824
vn 0.9854954423287702 -0.01388286884177049 -0.16913308103958824
vn 0.9854954423287702 -0.01388286884177049 -0.16913308103958824
vn 0.5011761184557199 0.8617277138594273 0.07904331379859744
vn 0.5011761184557199 0.8617277138594273 0.07904331379859744
vn 0.5011761184557199 0.8617277138594273 0.07904331379859744
vn 0.5187386389776405 0.8315419143712938 0.19861588324036128
vn 0.5187386389776405 0.8315419143712938 0.19861588324036128
vn 0.5187386389776405 0.8315419143712938 0.19861588324036128
vn -0.5555583964927555 0.8250650956990876 -0.10306529942446016
vn -0.5555583964927555 0.8250650956990876 -0.10306529942446016
vn -0.5555583964927555 0.8250650956990876 -0.10306529942446016
vn -0.5579923291152948 0.8209981174875811 -0.12085798165754923
vn -0.5579923291152948 0.8209981174875811 -0.12085798165754923
vn -0.5579923291152948 0.8209981174875811 -0.12085798165754923
vn -0.11613609484567271 -0.9931687578215833 -0.01132369026113047
vn -0.11613609484567271 -0.9931687578215833 -0.01132369026113047
vn -0.11613609484567271 -0.9931687578215833 -0.01132369026113047
vn -0.29583495959820816 -0.9551339183210584 0.014173029040685707
vn -0.29583495959820816 -0.9551339183210584 0.014173029040685707
vn -0.29583495959820816 -0.9551339183210584 0.014173029040685707
vn 0.9535685179424349 -0.30090397589437895 0.01280151866081941
vn 0.9535685179424349 -0.30090397589437895 0.01280151866081941
vn 0.9535685179424349 -0.30090397589437895 0.01280151866081941
vn -0.7011996792783637 -0.7129286817542184 -0.00719058496315346
vn -0.7011996792783637 -0.7129286817542184 -0.00719058496315346
vn -0.7011996792783637 -0.7129286817542184 -0.00719058496315346
vn -0.6713865428340048 -0.7409563692603911 -0.014958908845977146
vn -0.6713865428340048 -0.7409563692603911 -0.014958908845977146
vn -0.6713865428340048 -0.7409563692603911 -0.014958908845977146
vn 0.9065613329021176 -0.42190528746326034 -0.011936418947065349
vn 0.9065613329021176 -0.42190528746326034 -0.011936418947065349
vn 0.9065613329021176 -0.42190528746326034 -0.011936418947065349
vn 0.5977616259109514 -0.8016290596265666 0.008478758784300499
vn 0.5977616259109514 -0.8016290596265666 0.008478758784300499
vn 0.5977616259109514 -0.8016290596265666 0.008478758784300499
vn -0.9781276424711478 -0.2073164846583756 0.016917157643286166
vn -0.9781276424711478 -0.2073164846583756 0.016917157643286166
vn -0.9781276424711478 -0.2073164846583756 0.016917157643286166
vn 0.4699933932306423 -0.8825642664435794 -0.013657449119549827
vn 0.4699933932306423 -0.8825642664435794 -0.013657449119549827
vn 0.4699933932306423 -0.8825642664435794 -0.013657449119549827
vn -0.9981118417056084 -0.05949746430770103 -0.015257889368859036
vn -0.9981118417056084 -0.05949746430770103 -0.015257889368859036
vn -0.9981118417056084 -0.05949746430770103 -0.015257889368859036
vn 0.20176938661557023 -0.9794103142800107 0.00667464656048895
vn 0.20176938661557023 -0.9794103142800107 0.00667464656048895
vn 0.20176938661557023 -0.9794103142800107 0.00667464656048895
vn -0.0001869609796549702 -0.0003636069508629632 -0.9999999164177851
vn -0.0001869609796549702 -0.0003636069508629632 -0.9999999164177851
vn -0.0001869609796549702 -0.0003636069508629632 -0.9999999164177851
vn 0.000118716994371538 -0.00021914300203039228 -0.9999999689413096
vn 0.000118716994371538 -0.00021914300203039228 -0.9999999689413096
vn 0.000118716994371538 -0.00021914300203039228 -0.9999999689413096
vn -0.000057070799642366626 0.00005191249859320593 -0.9999999970240081
vn -0.000057070799642366626 0.00005191249859320593 -0.9999999970240081
vn -0.000057070799642366626 0.00005191249859320593 -0.9999999970240081
vn 0.00011791400065312562 -0.00006836910261128631 -0.9999999907109772
vn 0.00011791400065312562 -0.00006836910261128631 -0.9999999907109772
vn 0.00011791400065312562 -0.00006836910261128631 -0.9999999907109772
vn 0.00013965100343936096 -0.00007132419617466626 -0.999999987705228
vn 0.00013965100343936096 -0.00007132419617466626 -0.999999987705228
vn 0.00013965100343936096 -0.00007132419617466626 -0.999999987705228
vn -0.00007044579904331953 0.00012771600314071988 -0.9999999893630059
vn -0.00007044579904331953 0.00012771600314071988 -0.9999999893630059
vn -0.00007044579904331953 0.00012771600314071988 -0.9999999893630059
vn -0.000011927099873007935 -0.000021565099807776296 -0.9999999996963453
vn -0.000011927099873007935 -0.000021565099807776296 -0.9999999996963453
vn -0.000011927099873007935 -0.000021565099807776296 -0.9999999996963453
vn 0.17924329356967986 -0.6988912711050658 -0.6924036632510252
vn 0.17924329356967986 -0.6988912711050658 -0.6924036632510252
vn 0.17924329356967986 -0.6988912711050658 -0.6924036632510252
vn 0.4277007577120929 -0.5593375560113358 -0.7100799675302546
vn 0.4277007577120929 -0.5593375560113358 -0.7100799675302546
vn 0.4277007577120929 -0.5593375560113358 -0.7100799675302546
vn 0.6549178465469779 -0.24587208421461573 -0.7145834678176022
vn 0.6549178465469779 -0.24587208421461573 -0.7145834678176022
vn 0.6549178465469779 -0.24587208421461573 -0.7145834678176022
vn 0.7235748122119399 0.0013366929396467617 -0.6902446699427972
vn 0.7235748122119399 0.0013366929396467617 -0.6902446699427972
vn 0.7235748122119399 0.0013366929396467617 -0.6902446699427972
vn 0.6699197491295684 0.22547692730142568 -0.7073667259497606
vn 0.6699197491295684 0.22547692730142568 -0.7073667259497606
vn 0.6699197491295684 0.22547692730142568 -0.7073667259497606
vn 0.625465470500816 0.2818872114905592 -0.7275524346803258
vn 0.625465470500816 0.2818872114905592 -0.7275524346803258
vn 0.625465470500816 0.2818872114905592 -0.7275524346803258
vn 0.5845346896006847 0.4149841559130635 -0.6972139893852913
vn 0.5845346896006847 0.4149841559130635 -0.6972139893852913
vn 0.5845346896006847 0.4149841559130635 -0.6972139893852913
vn 0.3310961200089071 0.6244667905798348 -0.7074012911904869
vn 0.3310961200089071 0.6244667905798348 -0.7074012911904869
vn 0.3310961200089071 0.6244667905798348 -0.7074012911904869
vn 0.36371659788374194 0.6206768079301073 -0.6946009908728671
vn 0.36371659788374194 0.6206768079301073 -0.6946009908728671
vn 0.36371659788374194 0.6206768079301073 -0.6946009908728671
vn 0.13648140084631757 -0.6966033997459009 -0.7043554008350325
vn 0.13648140084631757 -0.6966033997459009 -0.7043554008350325
vn 0.13648140084631757 -0.6966033997459009 -0.7043554008350325
vn 0.01881586806005112 0.7248234328926118 -0.6886776853063531
vn 0.01881586806005112 0.7248234328926118 -0.6886776853063531
vn 0.01881586806005112 0.7248234328926118 -0.6886776853063531
vn 0.48038917844722506 -0.5417979962981567 -0.6896964320903093
vn 0.48038917844722506 -0.5417979962981567 -0.6896964320903093
vn 0.48038917844722506 -0.5417979962981567 -0.6896964320903093
vn 0.6546655650822858 -0.2148093799652612 -0.7247550815099066
vn 0.6546655650822858 -0.2148093799652612 -0.7247550815099066
vn 0.6546655650822858 -0.2148093799652612 -0.7247550815099066
vn -0.8601673403921231 -0.3913677108874198 0.3270221114809865
vn -0.8601673403921231 -0.3913677108874198 0.3270221114809865
vn -0.8601673403921231 -0.3913677108874198 0.3270221114809865
vn -0.8371784100432371 -0.5443348890718203 -0.05321501946487154
vn -0.8371784100432371 -0.5443348890718203 -0.05321501946487154
vn -0.8371784100432371 -0.5443348890718203 -0.05321501946487154
vn 0.24176552071080848 -0.9437147640242755 -0.2257252249041689
vn 0.24176552071080848 -0.9437147640242755 -0.2257252249041689
vn 0.24176552071080848 -0.9437147640242755 -0.2257252249041689
vn 0.9270624688616392 -0.26564139615486904 0.26455590614661084
vn 0.9270624688616392 -0.26564139615486904 0.26455590614661084
vn 0.9270624688616392 -0.26564139615486904 0.26455590614661084
vn -0.09138546916882322 -0.9827390348444995 0.1608498847301281
vn -0.09138546916882322 -0.9827390348444995 0.1608498847301281
vn -0.09138546916882322 -0.9827390348444995 0.1608498847301281
vn -0.06752603580458869 -0.9940086720011198 0.08594762634935253
vn -0.06752603580458869 -0.9940086720011198 0.08594762634935253
vn -0.06752603580458869 -0.9940086720011198 0.08594762634935253
vn -0.9585053289095985 -0.16663531897160622 -0.2313011131039655
vn -0.9585053289095985 -0.16663531897160622 -0.2313011131039655
vn -0.9585053289095985 -0.16663531897160622 -0.2313011131039655
vn 0.9351688994557273 -0.3529380773059334 0.029897208537829525
vn 0.9351688994557273 -0.3529380773059334 0.029897208537829525
vn 0.9351688994557273 -0.3529380773059334 0.029897208537829525
vn -0.3801389311067883 -0.9209127960374514 -0.08610467554942694
vn -0.3801389311067883 -0.9209127960374514 -0.08610467554942694
vn -0.3801389311067883 -0.9209127960374514 -0.08610467554942694
vn -0.5143464935061101 -0.837671718534092 0.183722008986703
vn -0.5143464935061101 -0.837671718534092 0.183722008986703
vn -0.5143464935061101 -0.837671718534092 0.183722008986703
vn 0.6580355537162034 -0.7327400790023191 -0.1734392881358921
vn 0.6580355537162034 -0.7327400790023191 -0.1734392881358921
vn 0.6580355537162034 -0.7327400790023191 -0.1734392881358921
vn 0.5160123725040445 -0.7956740885740174 0.31722858666055564
vn 0.5160123725040445 -0.7956740885740174 0.31722858666055564
vn 0.5160123725040445 -0.7956740885740174 0.31722858666055564
vn -0.6329248634436652 -0.7728442655795108 -0.04602019551984172
vn -0.6329248634436652 -0.7728442655795108 -0.04602019551984172
vn -0.6329248634436652 -0.7728442655795108 -0.04602019551984172
vn -0.00040564699934830063 0.0014193650331007855 0.9999989104261138
vn -0.00040564699934830063 0.0014193650331007855 0.9999989104261138
vn -0.00040564699934830063 0.0014193650331007855 0.9999989104261138
vn -0.0011658068828386695 0.00031188295867202537 0.9999992718114009
vn -0.0011658068828386695 0.00031188295867202537 0.9999992718114009
vn -0.0011658068828386695 0.00031188295867202537 0.9999992718114009
vn 0.000006976189963330887 -0.0000676595007716175 0.9999999976867624
vn 0.000006976189963330887 -0.0000676595007716175 0.9999999976867624
vn 0.000006976189963330887 -0.0000676595007716175 0.9999999976867624
vn 0.00005372329887678306 -0.00006300689689170843 0.999999996571969
vn 0.00005372329887678306 -0.00006300689689170843 0.999999996571969
vn 0.00005372329887678306 -0.00006300689689170843 0.999999996571969
vn -0.00005071660005148279 -0.00012709999163371284 0.9999999906367093
vn -0.00005071660005148279 -0.00012709999163371284 0.9999999906367093
vn -0.00005071660005148279 -0.00012709999163371284 0.9999999906367093
vn 0.0005055299202478762 0.0000790055919281731 0.9999998690987995
vn 0.0005055299202478762 0.0000790055919281731 0.9999998690987995
vn 0.0005055299202478762 0.0000790055919281731 0.9999998690987995
vn 0.00015854800865640648 -0.00024239099430486648 0.9999999580545665
vn 0.00015854800865640648 -0.00024239099430486648 0.9999999580545665
vn 0.00015854800865640648 -0.00024239099430486648 0.9999999580545665
vn 0.0006055089118220454 -0.00010584499143408846 0.9999998110778799
vn 0.0006055089118220454 -0.00010584499143408846 0.9999998110778799
vn 0.0006055089118220454 -0.00010584499143408846 0.9999998110778799
vn 0.0005712669719228126 -0.00025001400691345235 0.9999998055735028
vn 0.0005712669719228126 -0.00025001400691345235 0.9999998055735028
vn 0.0005712669719228126 -0.00025001400691345235 0.9999998055735028
vn 0.00007504330230026527 0.00008553270107876313 0.99999999352633
vn 0.00007504330230026527 0.00008553270107876313 0.99999999352633
vn 0.00007504330230026527 0.00008553270107876313 0.99999999352633
vn 0.00010265000571367523 0.00024031999667133657 0.999999965854637
vn 0.00010265000571367523 0.00024031999667133657 0.999999965854637
vn 0.00010265000571367523 0.00024031999667133657 0.999999965854637
vn 0.0001629320008713739 -0.00003768979824645715 0.9999999860163209
vn 0.0001629320008713739 -0.00003768979824645715 0.9999999860163209
vn 0.0001629320008713739 -0.00003768979824645715 0.9999999860163209
vn 0.0000014369900201786236 0.00013223499875372359 0.9999999912559202
vn 0.0000014369900201786236 0.00013223499875372359 0.9999999912559202
vn 0.0000014369900201786236 0.00013223499875372359 0.9999999912559202
vn -0.000032361498579491905 0.000007346940033632609 0.999999999449378
vn -0.000032361498579491905 0.000007346940033632609 0.999999999449378
vn -0.000032361498579491905 0.000007346940033632609 0.999999999449378
vn -0.00004026399980117338 0.000009394710096940831 0.9999999991452748
vn -0.00004026399980117338 0.000009394710096940831 0.9999999991452748
vn -0.00004026399980117338 0.000009394710096940831 0.9999999991452748
vn -0.00003147760069840693 -0.0000051847400728539915 0.9999999994911397
vn -0.00003147760069840693 -0.0000051847400728539915 0.9999999994911397
vn -0.00003147760069840693 -0.0000051847400728539915 0.9999999994911397
vn 0.00005482590100906629 0.00009045869905420292 0.9999999944056721
vn 0.00005482590100906629 0.00009045869905420292 0.9999999944056721
vn 0.00005482590100906629 0.00009045869905420292 0.9999999944056721
vn -0.00015117998877708352 0.0001752639899115154 0.999999973213572
vn -0.00015117998877708352 0.0001752639899115154 0.999999973213572
vn -0.00015117998877708352 0.0001752639899115154 0.999999973213572
vn -0.000011240300380078989 0.00007154150061408541 0.9999999973777347
vn -0.000011240300380078989 0.00007154150061408541 0.9999999973777347
vn -0.000011240300380078989 0.00007154150061408541 0.9999999973777347
vn -0.00022133898965391482 0.00010070299752108285 0.9999999704339786
vn -0.00022133898965391482 0.00010070299752108285 0.9999999704339786
vn -0.00022133898965391482 0.00010070299752108285 0.9999999704339786
vn -0.29736477044244014 0.9369940132599958 -0.18334779086381647
vn -0.29736477044244014 0.9369940132599958 -0.18334779086381647
vn -0.29736477044244014 0.9369940132599958 -0.18334779086381647
vn -0.1076899946928778 0.994184522633021 0
vn -0.1076899946928778 0.994184522633021 0
vn -0.1076899946928778 0.994184522633021 0
vn -0.6248664396692866 0.7749509981036924 0.09483081309954378
vn -0.6248664396692866 0.7749509981036924 0.09483081309954378
vn -0.6248664396692866 0.7749509981036924 0.09483081309954378
vn 0.6541383389877368 0.7315150637372364 0.19232458239099845
vn 0.6541383389877368 0.7315150637372364 0.19232458239099845
vn 0.6541383389877368 0.7315150637372364 0.19232458239099845
vn 0.6628090263658892 0.7260021699284186 0.18331678544838534
vn 0.6628090263658892 0.7260021699284186 0.18331678544838534
vn 0.6628090263658892 0.7260021699284186 0.18331678544838534
vn 0.35871970249604557 0.9286185994487128 -0.09480333221495613
vn 0.35871970249604557 0.9286185994487128 -0.09480333221495613
vn 0.35871970249604557 0.9286185994487128 -0.09480333221495613
vn 0.960127329778006 -0.21102508377470125 -0.1833682759673456
vn 0.960127329778006 -0.21102508377470125 -0.1833682759673456
vn 0.960127329778006 -0.21102508377470125 -0.1833682759673456
vn 0.9605643920143209 -0.200813609954345 -0.19232769652668902
vn 0.9605643920143209 -0.200813609954345 -0.19232769652668902
vn 0.9605643920143209 -0.200813609954345 -0.19232769652668902
vn 0.9835646710513275 0.15364080608090536 0.09484218769357651
vn 0.9835646710513275 0.15364080608090536 0.09484218769357651
vn 0.9835646710513275 0.15364080608090536 0.09484218769357651
vn 0.30638588293015584 -0.9322853337342384 0.19228038705273273
vn 0.30638588293015584 -0.9322853337342384 0.19228038705273273
vn 0.30638588293015584 -0.9322853337342384 0.19228038705273273
vn 0.1076899946928778 -0.994184522633021 0
vn 0.1076899946928778 -0.994184522633021 0
vn 0.1076899946928778 -0.994184522633021 0
vn 0.6277426939805916 -0.778420908091496 0
vn 0.6277426939805916 -0.778420908091496 0
vn 0.6277426939805916 -0.778420908091496 0
vn 0.4435361946357694 -0.8753749776695685 -0.19233900415158428
vn 0.4435361946357694 -0.8753749776695685 -0.19233900415158428
vn 0.4435361946357694 -0.8753749776695685 -0.19233900415158428
vn -0.8035232390897796 -0.5876686548280475 -0.0948470156370877
vn -0.8035232390897796 -0.5876686548280475 -0.0948470156370877
vn -0.8035232390897796 -0.5876686548280475 -0.0948470156370877
vn -0.36034257016688764 -0.9328200427336033 0
vn -0.36034257016688764 -0.9328200427336033 0
vn -0.36034257016688764 -0.9328200427336033 0
vn -0.5288591295526733 -0.8286699512652025 0.1833415745512066
vn -0.5288591295526733 -0.8286699512652025 0.1833415745512066
vn -0.5288591295526733 -0.8286699512652025 0.1833415745512066
vn -0.9148117998022264 0.4038803918768666 0
vn -0.9148117998022264 0.4038803918768666 0
vn -0.9148117998022264 0.4038803918768666 0
vn -0.914815517449991 0.4038719710907222 0
vn -0.914815517449991 0.4038719710907222 0
vn -0.914815517449991 0.4038719710907222 0
vn -0.9880166417328053 -0.15434738630449613 0
vn -0.9880166417328053 -0.15434738630449613 0
vn -0.9880166417328053 -0.15434738630449613 0
vn -0.9880166576395587 -0.15434728448131232 0
vn -0.9880166576395587 -0.15434728448131232 0
vn -0.9880166576395587 -0.15434728448131232 0
vn 0 0 1
vn 0 0 1
vn 0 0 1
vn -0.0001544450040864871 -0.00003908179810849605 0.9999999873096767
vn -0.0001544450040864871 -0.00003908179810849605 0.9999999873096767
vn -0.0001544450040864871 -0.00003908179810849605 0.9999999873096767
vn 0.00004431109841886021 0.000006737160213160303 0.9999999989955686
vn 0.00004431109841886021 0.000006737160213160303 0.9999999989955686
vn 0.00004431109841886021 0.000006737160213160303 0.9999999989955686
vn 0.00001588879966859186 0.00003512129839810668 0.9999999992570203
vn 0.00001588879966859186 0.00003512129839810668 0.9999999992570203
vn 0.00001588879966859186 0.00003512129839810668 0.9999999992570203
vn 0 0 1
vn 0 0 1
vn 0 0 1
vn 0 0 1
vn 0 0 1
vn 0 0 1
vn 0.0000014902400380362273 0 0.9999999999988896
vn 0.0000014902400380362273 0 0.9999999999988896
vn 0.0000014902400380362273 0 0.9999999999988896
vn 0 0 1
vn 0 0 1
vn 0 0 1
f 1//1 2//2 3//3
f 4//4 5//5 6//6
f 7//7 8//8 9//9
f 10//10 11//11 12//12
f 13//13 14//14 15//15
f 16//16 17//17 18//18
f 19//19 20//20 21//21
f 22//22 23//23 24//24
f 25//25 26//26 27//27
f 28//28 29//29 30//30
f 31//31 32//32 33//33
f 34//34 35//35 36//36
f 37//37 38//38 39//39
f 40//40 41//41 42//42
f 43//43 44//44 45//45
f 46//46 47//47 48//48
f 49//49 50//50 51//51
f 52//52 53//53 54//54
f 55//55 56//56 57//57
f 58//58 59//59 60//60
f 61//61 62//62 63//63
f 64//64 65//65 66//66
f 67//67 68//68 69//69
f 70//70 71//71 72//72
f 73//73 74//74 75//75
f 76//76 77//77 78//78
f 79//79 80//80 81//81
f 82//82 83//83 84//84
f 85//85 86//86 87//87
f 88//88 89//89 90//90
f 91//91 92//92 93//93
f 94//94 95//95 96//96
f 97//97 98//98 99//99
f 100//100 101//101 102//102
f 103//103 104//104 105//105
f 106//106 107//107 108//108
f 109//109 110//110 111//111
f 112//112 113//113 114//114
f 115//115 116//116 117//117
f 118//118 119//119 120//120
f 121//121 122//122 123//123
f 124//124 125//125 126//126
f 127//127 128//128 129//129
f 130//130 131//131 132//132
f 133//133 134//134 135//135
f 136//136 137//137 138//138
f 139//139 140//140 141//141
f 142//142 143//143 144//144
f 145//145 146//146 147//147
f 148//148 149//149 150//150
f 151//151 152//152 153//153
f 154//154 155//155 156//156
f 157//157 158//158 159//159
f 160//160 161//161 162//162
f 163//163 164//164 165//165
f 166//166 167//167 168//168
f 169//169 170//170 171//171
f 172//172 173//173 174//174
f 175//175 176//176 177//177
f 178//178 179//179 180//180
f 181//181 182//182 183//183
f 184//184 185//185 186//186
f 187//187 188//188 189//189
f 190//190 191//191 192//192
f 193//193 194//194 195//195
f 196//196 197//197 198//198
f 199//199 200//200 201//201
f 202//202 203//203 204//204
f 205//205 206//206 207//207
f 208//208 209//209 210//210
f 211//211 212//212 213//213
f 214//214 215//215 216//216
f 217//217 218//218 219//219
f 220//220 221//221 222//222
f 223//223 224//224 225//225
f 226//226 227//227 228//228
f 229//229 230//230 231//231
f 232//232 233//233 234//234
f 235//235 236//236 237//237
f 238//238 239//239 240//240
f 241//241 242//242 243//243
f 244//244 245//245 246//246
f 247//247 248//248 249//249
f 250//250 251//251 252//252
f 253//253 254//254 255//255
f 256//256 257//257 258//258
f 259//259 260//260 261//261
f 262//262 263//263 264//264
f 265//265 266//266 267//267
f 268//268 269//269 270//270
f 271//271 272//272 273//273
f 274//274 275//275 276//276
f 277//277 278//278 279//279
f 280//280 281//281 282//282
f 283//283 284//284 285//285
f 286//286 287//287 288//288
f 289//289 290//290 291//291
f 292//292 293//293 294//294
f 295//295 296//296 297//297
f 298//298 299//299 300//300
f 301//301 302//302 303//303
f 304//304 305//305 306//306
f 307//307 308//308 309//309
f 310//310 311//311 312//312
f 313//313 314//314 315//315
f 316//316 317//317 318//318
f 319//319 320//320 321//321
f 322//322 323//323 324//324
f 325//325 326//326 327//327
f 328//328 329//329 330//330
f 331//331 332//332 333//333
f 334//334 335//335 336//336
f 337//337 338//338 339//339
f 340//340 341//341 342//342
f 343//343 344//344 345//345
f 346//346 347//347 348//348
f 349//349 350//350 351//351
f 352//352 353//353 354//354
f 355//355 356//356 357//357
f 358//358 359//359 360//360
f 361//361 362//362 363//363
f 364//364 365//365 366//366
f 367//367 368//368 369//369
f 370//370 371//371 372//372
f 373//373 374//374 375//375
f 376//376 377//377 378//378
