o node3
usemtl verbindung_001
v 0.0011689659440889955 -0.03752021864056587 0.03510040044784546
v 0.000049698399379849434 -0.036898430436849594 0.035100460052490234
v 0.0008622410241514444 -0.037221841514110565 0.043445050716400146
v -0.0015419720439240336 -0.037827130407094955 0.035100460052490234
v -0.0016301870346069336 -0.03877449035644531 0.035100460052490234
v -0.001689851051196456 -0.03855770081281662 0.04347902163863182
v -0.0015419720439240336 -0.037827130407094955 0.035100460052490234
v -0.001689851051196456 -0.03855770081281662 0.04347902163863182
v -0.0013934370363131166 -0.03754919022321701 0.04345469921827316
v 0.0011689659440889955 -0.03752021864056587 0.03510040044784546
v 0.0008622410241514444 -0.037221841514110565 0.043445050716400146
v 0.0014072059420868754 -0.03846495971083641 0.043480150401592255
v -0.0009522269829176366 -0.037104781717061996 0.035100340843200684
v -0.0015419720439240336 -0.037827130407094955 0.035100460052490234
v -0.0013934370363131166 -0.03754919022321701 0.04345469921827316
v 0.001298189046792686 -0.03897314891219139 0.035100460052490234
v 0.0011689659440889955 -0.03752021864056587 0.03510040044784546
v 0.0014072059420868754 -0.03846495971083641 0.043480150401592255
v -0.0009522269829176366 -0.037104781717061996 0.035100340843200684
v -0.0013934370363131166 -0.03754919022321701 0.04345469921827316
v -0.0007265139720402658 -0.03700172156095505 0.04345560073852539
v 0.000049698399379849434 -0.036898430436849594 0.035100460052490234
v -0.0009522269829176366 -0.037104781717061996 0.035100340843200684
v -0.0007265139720402658 -0.03700172156095505 0.04345560073852539
v 0.000049698399379849434 -0.036898430436849594 0.035100460052490234
v -0.0007265139720402658 -0.03700172156095505 0.04345560073852539
v -0.000059645601140800864 -0.03689330071210861 0.04345005005598068
v 0.000049698399379849434 -0.036898430436849594 0.035100460052490234
v -0.000059645601140800864 -0.03689330071210861 0.04345005005598068
v 0.0008622410241514444 -0.037221841514110565 0.043445050716400146
v -0.0007265139720402658 -0.03700172156095505 0.04345560073852539
v -0.00223290896974504 -0.03661810979247093 0.04468756169080734
v -0.0011620520381256938 -0.03579562157392502 0.04470282047986984
v -0.0013934370363131166 -0.03754919022321701 0.04345469921827316
v -0.00223290896974504 -0.03661810979247093 0.04468756169080734
v -0.0007265139720402658 -0.03700172156095505 0.04345560073852539
v -0.0028314590454101562 -0.0377153716981411 0.044712599366903305
v -0.0013934370363131166 -0.03754919022321701 0.04345469921827316
v -0.001689851051196456 -0.03855770081281662 0.04347902163863182
v -0.0013934370363131166 -0.03754919022321701 0.04345469921827316
v -0.0028314590454101562 -0.0377153716981411 0.044712599366903305
v -0.00223290896974504 -0.03661810979247093 0.04468756169080734
v -0.0014929770259186625 -0.0391152985394001 0.043475620448589325
v -0.0027045009192079306 -0.0394972488284111 0.04467839002609253
v -0.001689851051196456 -0.03855770081281662 0.04347902163863182
v -0.0009693069732747972 -0.039680298417806625 0.04347354173660278
v -0.0016004439676180482 -0.04081248864531517 0.044705331325531006
v -0.0027045009192079306 -0.0394972488284111 0.04467839002609253
v -0.0009693069732747972 -0.039680298417806625 0.04347354173660278
v -0.0027045009192079306 -0.0394972488284111 0.04467839002609253
v -0.0014929770259186625 -0.0391152985394001 0.043475620448589325
v -0.0016004439676180482 -0.04081248864531517 0.044705331325531006
v -0.0009693069732747972 -0.039680298417806625 0.04347354173660278
v -0.0001254719973076135 -0.03993897885084152 0.04345380887389183
v 0.00014505299623124301 -0.04117327183485031 0.0446963906288147
v -0.0016004439676180482 -0.04081248864531517 0.044705331325531006
v -0.0001254719973076135 -0.03993897885084152 0.04345380887389183
v -0.000059645601140800864 -0.03689330071210861 0.04345005005598068
v -0.0007265139720402658 -0.03700172156095505 0.04345560073852539
v -0.0011620520381256938 -0.03579562157392502 0.04470282047986984
v -0.000059645601140800864 -0.03689330071210861 0.04345005005598068
v -0.0011620520381256938 -0.03579562157392502 0.04470282047986984
v 0.00034665700513869524 -0.03567713126540184 0.04469804838299751
v -0.001689851051196456 -0.03855770081281662 0.04347902163863182
v -0.0027045009192079306 -0.0394972488284111 0.04467839002609253
v -0.0028314590454101562 -0.0377153716981411 0.044712599366903305
v 0.002657890086993575 -0.03843003138899803 0.044709738343954086
v 0.0023030040320008993 -0.03710198029875755 0.04469740018248558
v 0.002635716926306486 -0.038035448640584946 0.045100390911102295
v 0.00034665700513869524 -0.03567713126540184 0.04469804838299751
v -0.001022994052618742 -0.03574657067656517 0.045100510120391846
v 0.0008289010147564113 -0.035771310329437256 0.045100510120391846
v 0.00034665700513869524 -0.03567713126540184 0.04469804838299751
v -0.0011620520381256938 -0.03579562157392502 0.04470282047986984
v -0.001022994052618742 -0.03574657067656517 0.045100510120391846
v -0.0028314590454101562 -0.0377153716981411 0.044712599366903305
v -0.0029647350311279297 -0.03832488879561424 0.04509996995329857
v -0.0022883410565555096 -0.036650650203228 0.04510045051574707
v -0.00223290896974504 -0.03661810979247093 0.04468756169080734
v -0.0028314590454101562 -0.0377153716981411 0.044712599366903305
v -0.0022883410565555096 -0.036650650203228 0.04510045051574707
v 0.0014697900041937828 -0.0361473485827446 0.04467868059873581
v 0.00034665700513869524 -0.03567713126540184 0.04469804838299751
v 0.0008289010147564113 -0.035771310329437256 0.045100510120391846
v 0.0014697900041937828 -0.0361473485827446 0.04467868059873581
v 0.0008289010147564113 -0.035771310329437256 0.045100510120391846
v 0.0020212531089782715 -0.03667312115430832 0.045100558549165726
v -0.0011620520381256938 -0.03579562157392502 0.04470282047986984
v -0.00223290896974504 -0.03661810979247093 0.04468756169080734
v -0.0022883410565555096 -0.036650650203228 0.04510045051574707
v -0.0011620520381256938 -0.03579562157392502 0.04470282047986984
v -0.0022883410565555096 -0.036650650203228 0.04510045051574707
v -0.001022994052618742 -0.03574657067656517 0.045100510120391846
v 0.0023030040320008993 -0.03710198029875755 0.04469740018248558
v 0.0014697900041937828 -0.0361473485827446 0.04467868059873581
v 0.0020212531089782715 -0.03667312115430832 0.045100558549165726
v 0.0023030040320008993 -0.03710198029875755 0.04469740018248558
v 0.0020212531089782715 -0.03667312115430832 0.045100558549165726
v 0.002635716926306486 -0.038035448640584946 0.045100390911102295
v -0.0010316369589418173 -0.039633508771657944 0.03510040044784546
v 0.0002132600056938827 -0.03995424136519432 0.035100460052490234
v -0.0009693069732747972 -0.039680298417806625 0.04347354173660278
v -0.0010316369589418173 -0.039633508771657944 0.03510040044784546
v -0.0009693069732747972 -0.039680298417806625 0.04347354173660278
v -0.0014929770259186625 -0.0391152985394001 0.043475620448589325
v -0.0016301870346069336 -0.03877449035644531 0.035100460052490234
v -0.0010316369589418173 -0.039633508771657944 0.03510040044784546
v -0.0014929770259186625 -0.0391152985394001 0.043475620448589325
v 0.001298189046792686 -0.03897314891219139 0.035100460052490234
v 0.0014072059420868754 -0.03846495971083641 0.043480150401592255
v 0.0009219159837812185 -0.039511438459157944 0.04346394166350365
v -0.0016301870346069336 -0.03877449035644531 0.035100460052490234
v -0.0014929770259186625 -0.0391152985394001 0.043475620448589325
v -0.001689851051196456 -0.03855770081281662 0.04347902163863182
v 0.0002132600056938827 -0.03995424136519432 0.035100460052490234
v 0.001298189046792686 -0.03897314891219139 0.035100460052490234
v 0.0009219159837812185 -0.039511438459157944 0.04346394166350365
v 0.0002132600056938827 -0.03995424136519432 0.035100460052490234
v 0.0009219159837812185 -0.039511438459157944 0.04346394166350365
v -0.0001254719973076135 -0.03993897885084152 0.04345380887389183
v 0.0002132600056938827 -0.03995424136519432 0.035100460052490234
v -0.0001254719973076135 -0.03993897885084152 0.04345380887389183
v -0.0009693069732747972 -0.039680298417806625 0.04347354173660278
v 0.0002132600056938827 -0.03995424136519432 0.035100460052490234
v -0.0010316369589418173 -0.039633508771657944 0.03510040044784546
v 0.001298189046792686 -0.03897314891219139 0.035100460052490234
v -0.0010316369589418173 -0.039633508771657944 0.03510040044784546
v -0.0016301870346069336 -0.03877449035644531 0.035100460052490234
v 0.001298189046792686 -0.03897314891219139 0.035100460052490234
v -0.0016301870346069336 -0.03877449035644531 0.035100460052490234
v -0.0009522269829176366 -0.037104781717061996 0.035100340843200684
v 0.0011689659440889955 -0.03752021864056587 0.03510040044784546
v 0.001298189046792686 -0.03897314891219139 0.035100460052490234
v -0.0016301870346069336 -0.03877449035644531 0.035100460052490234
v 0.0011689659440889955 -0.03752021864056587 0.03510040044784546
v -0.0009522269829176366 -0.037104781717061996 0.035100340843200684
v 0.000049698399379849434 -0.036898430436849594 0.035100460052490234
v 0.0011689659440889955 -0.03752021864056587 0.03510040044784546
v -0.0016301870346069336 -0.03877449035644531 0.035100460052490234
v -0.0015419720439240336 -0.037827130407094955 0.035100460052490234
v -0.0009522269829176366 -0.037104781717061996 0.035100340843200684
v 0.00014505299623124301 -0.04117327183485031 0.0446963906288147
v -0.0001254719973076135 -0.03993897885084152 0.04345380887389183
v 0.0014005890116095543 -0.04071991890668869 0.0446811318397522
v 0.0022651550825685263 -0.039771851152181625 0.04470038041472435
v 0.0009219159837812185 -0.039511438459157944 0.04346394166350365
v 0.0014072059420868754 -0.03846495971083641 0.043480150401592255
v 0.0022651550825685263 -0.039771851152181625 0.04470038041472435
v 0.0014005890116095543 -0.04071991890668869 0.0446811318397522
v 0.0009219159837812185 -0.039511438459157944 0.04346394166350365
v 0.002657890086993575 -0.03843003138899803 0.044709738343954086
v 0.0022651550825685263 -0.039771851152181625 0.04470038041472435
v 0.0014072059420868754 -0.03846495971083641 0.043480150401592255
v 0.0015478129498660564 -0.03755037859082222 0.04380941018462181
v 0.002657890086993575 -0.03843003138899803 0.044709738343954086
v 0.0014072059420868754 -0.03846495971083641 0.043480150401592255
v 0.0014697900041937828 -0.0361473485827446 0.04467868059873581
v 0.0015478129498660564 -0.03755037859082222 0.04380941018462181
v 0.0008622410241514444 -0.037221841514110565 0.043445050716400146
v 0.0014697900041937828 -0.0361473485827446 0.04467868059873581
v 0.0023030040320008993 -0.03710198029875755 0.04469740018248558
v 0.0015478129498660564 -0.03755037859082222 0.04380941018462181
v -0.000059645601140800864 -0.03689330071210861 0.04345005005598068
v 0.0014697900041937828 -0.0361473485827446 0.04467868059873581
v 0.0008622410241514444 -0.037221841514110565 0.043445050716400146
v 0.00034665700513869524 -0.03567713126540184 0.04469804838299751
v 0.0014697900041937828 -0.0361473485827446 0.04467868059873581
v -0.000059645601140800864 -0.03689330071210861 0.04345005005598068
v 0.0014005890116095543 -0.04071991890668869 0.0446811318397522
v -0.0001254719973076135 -0.03993897885084152 0.04345380887389183
v 0.0009219159837812185 -0.039511438459157944 0.04346394166350365
v 0.0015478129498660564 -0.03755037859082222 0.04380941018462181
v 0.0014072059420868754 -0.03846495971083641 0.043480150401592255
v 0.0008622410241514444 -0.037221841514110565 0.043445050716400146
v 0.0015478129498660564 -0.03755037859082222 0.04380941018462181
v 0.0023030040320008993 -0.03710198029875755 0.04469740018248558
v 0.002657890086993575 -0.03843003138899803 0.044709738343954086
v -0.0028314590454101562 -0.0377153716981411 0.044712599366903305
v -0.0027045009192079306 -0.0394972488284111 0.04467839002609253
v -0.0029647350311279297 -0.03832488879561424 0.04509996995329857
v 0.00014505299623124301 -0.04117327183485031 0.0446963906288147
v 0.0006441749865189195 -0.04108715057373047 0.045100390911102295
v -0.0008669309900142252 -0.04108357056975365 0.04510074108839035
v 0.002657890086993575 -0.03843003138899803 0.044709738343954086
v 0.002635716926306486 -0.038035448640584946 0.045100390911102295
v 0.002229154109954834 -0.03994268178939819 0.045100390911102295
v 0.0022651550825685263 -0.039771851152181625 0.04470038041472435
v 0.002657890086993575 -0.03843003138899803 0.044709738343954086
v 0.002229154109954834 -0.03994268178939819 0.045100390911102295
v -0.0016004439676180482 -0.04081248864531517 0.044705331325531006
v 0.00014505299623124301 -0.04117327183485031 0.0446963906288147
v -0.0008669309900142252 -0.04108357056975365 0.04510074108839035
v -0.0016004439676180482 -0.04081248864531517 0.044705331325531006
v -0.0008669309900142252 -0.04108357056975365 0.04510074108839035
v -0.0022508499678224325 -0.040235571563243866 0.04510097950696945
v 0.0014005890116095543 -0.04071991890668869 0.0446811318397522
v 0.0022651550825685263 -0.039771851152181625 0.04470038041472435
v 0.002229154109954834 -0.03994268178939819 0.045100390911102295
v 0.0014005890116095543 -0.04071991890668869 0.0446811318397522
v 0.002229154109954834 -0.03994268178939819 0.045100390911102295
v 0.0006441749865189195 -0.04108715057373047 0.045100390911102295
v -0.0027045009192079306 -0.0394972488284111 0.04467839002609253
v -0.0016004439676180482 -0.04081248864531517 0.044705331325531006
v -0.0022508499678224325 -0.040235571563243866 0.04510097950696945
v -0.0027045009192079306 -0.0394972488284111 0.04467839002609253
v -0.0022508499678224325 -0.040235571563243866 0.04510097950696945
v -0.0029647350311279297 -0.03832488879561424 0.04509996995329857
v 0.00014505299623124301 -0.04117327183485031 0.0446963906288147
v 0.0014005890116095543 -0.04071991890668869 0.0446811318397522
v 0.0006441749865189195 -0.04108715057373047 0.045100390911102295
v -0.0008669309900142252 -0.04108357056975365 0.04510074108839035
v 0.0006441749865189195 -0.04108715057373047 0.045100390911102295
v -0.00008952480129664764 -0.03974181041121483 0.045100390911102295
v 0.002229154109954834 -0.03994268178939819 0.045100390911102295
v 0.001161872991360724 -0.03915619105100632 0.04510045051574707
v -0.00008952480129664764 -0.03974181041121483 0.045100390911102295
v -0.0014361139619722962 -0.03915619105100632 0.04510045051574707
v -0.0013280509738251567 -0.03771417960524559 0.04510045051574707
v -0.0029647350311279297 -0.03832488879561424 0.04509996995329857
v 0.0006441749865189195 -0.04108715057373047 0.045100390911102295
v 0.002229154109954834 -0.03994268178939819 0.045100390911102295
v -0.00008952480129664764 -0.03974181041121483 0.045100390911102295
v -0.0001847569947130978 -0.03707081079483032 0.045100390911102295
v 0.0008289010147564113 -0.035771310329437256 0.045100510120391846
v -0.001022994052618742 -0.03574657067656517 0.045100510120391846
v 0.001161872991360724 -0.03915619105100632 0.04510045051574707
v 0.002635716926306486 -0.038035448640584946 0.045100390911102295
v 0.0009418990230187774 -0.038406308740377426 0.04510045051574707
v 0.002635716926306486 -0.038035448640584946 0.045100390911102295
v 0.0020212531089782715 -0.03667312115430832 0.045100558549165726
v 0.001161872991360724 -0.03765624016523361 0.04510045051574707
v 0.0009418990230187774 -0.038406308740377426 0.04510045051574707
v 0.002635716926306486 -0.038035448640584946 0.045100390911102295
v 0.001161872991360724 -0.03765624016523361 0.04510045051574707
v -0.0008669309900142252 -0.04108357056975365 0.04510074108839035
v -0.00008952480129664764 -0.03974181041121483 0.045100390911102295
v -0.0006766580045223236 -0.039340790361166 0.04510045051574707
v -0.0022508499678224325 -0.040235571563243866 0.04510097950696945
v -0.0008669309900142252 -0.04108357056975365 0.04510074108839035
v -0.0006766580045223236 -0.039340790361166 0.04510045051574707
v -0.0029647350311279297 -0.03832488879561424 0.04509996995329857
v -0.0013280509738251567 -0.03771417960524559 0.04510045051574707
v -0.0022883410565555096 -0.036650650203228 0.04510045051574707
v -0.0013280509738251567 -0.03771417960524559 0.04510045051574707
v -0.0001847569947130978 -0.03707081079483032 0.045100390911102295
v -0.001022994052618742 -0.03574657067656517 0.045100510120391846
v 0.001161872991360724 -0.03765624016523361 0.04510045051574707
v 0.0020212531089782715 -0.03667312115430832 0.045100558549165726
v 0.0008289010147564113 -0.035771310329437256 0.045100510120391846
v -0.0013280509738251567 -0.03771417960524559 0.04510045051574707
v -0.001022994052618742 -0.03574657067656517 0.045100510120391846
v -0.0022883410565555096 -0.036650650203228 0.04510045051574707
v -0.0022508499678224325 -0.040235571563243866 0.04510097950696945
v -0.0006766580045223236 -0.039340790361166 0.04510045051574707
v -0.0014361139619722962 -0.03915619105100632 0.04510045051574707
v 0.0004023800138384104 -0.037471890449523926 0.04510045051574707
v 0.001161872991360724 -0.03765624016523361 0.04510045051574707
v 0.0008289010147564113 -0.035771310329437256 0.045100510120391846
v 0.002229154109954834 -0.03994268178939819 0.045100390911102295
v 0.002635716926306486 -0.038035448640584946 0.045100390911102295
v 0.001161872991360724 -0.03915619105100632 0.04510045051574707
v 0.0004023800138384104 -0.037471890449523926 0.04510045051574707
v 0.0008289010147564113 -0.035771310329437256 0.045100510120391846
v -0.0001847569947130978 -0.03707081079483032 0.045100390911102295
v -0.0022508499678224325 -0.040235571563243866 0.04510097950696945
v -0.0014361139619722962 -0.03915619105100632 0.04510045051574707
v -0.0029647350311279297 -0.03832488879561424 0.04509996995329857
v -0.0006766580045223236 -0.039340790361166 0.04510045051574707
v -0.00013713899534195662 -0.03990631923079491 0.04427032917737961
v -0.0006766580045223236 -0.039340790361166 0.04427032917737961
v -0.0006766580045223236 -0.039340790361166 0.04510045051574707
v -0.00008952480129664764 -0.03974181041121483 0.045100390911102295
v -0.00013713899534195662 -0.03990631923079491 0.04427032917737961
v -0.0014361139619722962 -0.03915619105100632 0.04510045051574707
v -0.0006766580045223236 -0.039340790361166 0.04427032917737961
v -0.0013175009516999125 -0.03903274983167648 0.04427032917737961
v -0.0014361139619722962 -0.03915619105100632 0.04510045051574707
v -0.0006766580045223236 -0.039340790361166 0.04510045051574707
v -0.0006766580045223236 -0.039340790361166 0.04427032917737961
v -0.0013280509738251567 -0.03771417960524559 0.04510045051574707
v -0.0014361139619722962 -0.03915619105100632 0.04510045051574707
v -0.0013175009516999125 -0.03903274983167648 0.04427032917737961
v -0.0013280509738251567 -0.03771417960524559 0.04510045051574707
v -0.0013175009516999125 -0.03903274983167648 0.04427032917737961
v -0.0014361139619722962 -0.03765624016523361 0.04427032917737961
v -0.0013280509738251567 -0.03771417960524559 0.04510045051574707
v -0.0014361139619722962 -0.03765624016523361 0.04427032917737961
v -0.0006766580045223236 -0.037471890449523926 0.04427032917737961
v -0.0001847569947130978 -0.03707081079483032 0.045100390911102295
v -0.0013280509738251567 -0.03771417960524559 0.04510045051574707
v -0.0006766580045223236 -0.037471890449523926 0.04427032917737961
v -0.0001847569947130978 -0.03707081079483032 0.045100390911102295
v -0.0006766580045223236 -0.037471890449523926 0.04427032917737961
v -0.00013713899534195662 -0.03690636157989502 0.04427032917737961
v 0.0004023800138384104 -0.037471890449523926 0.04510045051574707
v -0.00013713899534195662 -0.03690636157989502 0.04427032917737961
v 0.0004023800138384104 -0.037471890449523926 0.04427032917737961
v 0.0004023800138384104 -0.037471890449523926 0.04510045051574707
v -0.0001847569947130978 -0.03707081079483032 0.045100390911102295
v -0.00013713899534195662 -0.03690636157989502 0.04427032917737961
v 0.001161872991360724 -0.03765624016523361 0.04510045051574707
v 0.0004023800138384104 -0.037471890449523926 0.04427032917737961
v 0.0010432599810883403 -0.037779681384563446 0.04427032917737961
v 0.001161872991360724 -0.03765624016523361 0.04510045051574707
v 0.0004023800138384104 -0.037471890449523926 0.04510045051574707
v 0.0004023800138384104 -0.037471890449523926 0.04427032917737961
v 0.0009418990230187774 -0.038406308740377426 0.04510045051574707
v 0.001161872991360724 -0.03765624016523361 0.04510045051574707
v 0.0010432599810883403 -0.037779681384563446 0.04427032917737961
v 0.0009418990230187774 -0.038406308740377426 0.04510045051574707
v 0.0010432599810883403 -0.037779681384563446 0.04427032917737961
v 0.001161872991360724 -0.03915619105100632 0.04427032917737961
v 0.001161872991360724 -0.03915619105100632 0.04510045051574707
v 0.0009418990230187774 -0.038406308740377426 0.04510045051574707
v 0.001161872991360724 -0.03915619105100632 0.04427032917737961
v 0.001161872991360724 -0.03915619105100632 0.04510045051574707
v 0.001161872991360724 -0.03915619105100632 0.04427032917737961
v 0.0004023800138384104 -0.039340790361166 0.04427032917737961
v -0.00008952480129664764 -0.03974181041121483 0.045100390911102295
v 0.001161872991360724 -0.03915619105100632 0.04510045051574707
v 0.0004023800138384104 -0.039340790361166 0.04427032917737961
v -0.00008952480129664764 -0.03974181041121483 0.045100390911102295
v 0.0004023800138384104 -0.039340790361166 0.04427032917737961
v -0.00013713899534195662 -0.03990631923079491 0.04427032917737961
v 0.0004023800138384104 -0.039340790361166 0.04427032917737961
v -0.0006766580045223236 -0.039340790361166 0.04427032917737961
v -0.00013713899534195662 -0.03990631923079491 0.04427032917737961
v 0.0004023800138384104 -0.039340790361166 0.04427032917737961
v -0.0013175009516999125 -0.03903274983167648 0.04427032917737961
v -0.0006766580045223236 -0.039340790361166 0.04427032917737961
v -0.0006766580045223236 -0.037471890449523926 0.04427032917737961
v -0.0014361139619722962 -0.03765624016523361 0.04427032917737961
v -0.0013175009516999125 -0.03903274983167648 0.04427032917737961
v -0.0006766580045223236 -0.037471890449523926 0.04427032917737961
v -0.0013175009516999125 -0.03903274983167648 0.04427032917737961
v 0.0004023800138384104 -0.039340790361166 0.04427032917737961
v 0.0010432599810883403 -0.037779681384563446 0.04427032917737961
v 0.0004023800138384104 -0.039340790361166 0.04427032917737961
v 0.001161872991360724 -0.03915619105100632 0.04427032917737961
v 0.0004023800138384104 -0.037471890449523926 0.04427032917737961
v -0.0006766580045223236 -0.037471890449523926 0.04427032917737961
v 0.0004023800138384104 -0.039340790361166 0.04427032917737961
v 0.0004023800138384104 -0.037471890449523926 0.04427032917737961
v 0.0004023800138384104 -0.039340790361166 0.04427032917737961
v 0.0010432599810883403 -0.037779681384563446 0.04427032917737961
v -0.00013713899534195662 -0.03690636157989502 0.04427032917737961
v -0.0006766580045223236 -0.037471890449523926 0.04427032917737961
v 0.0004023800138384104 -0.037471890449523926 0.04427032917737961
vn 0.4855987337273017 0.8740790916159468 -0.013401917858368747
vn 0.4855987337273017 0.8740790916159468 -0.013401917858368747
vn 0.4855987337273017 0.8740790916159468 -0.013401917858368747
vn -0.9956483334023464 0.09270649486321808 -0.009481666694521999
vn -0.9956483334023464 0.09270649486321808 -0.009481666694521999
vn -0.9956483334023464 0.09270649486321808 -0.009481666694521999
vn -0.9593403803652684 0.2821472546444118 0.00767862599971191
vn -0.9593403803652684 0.2821472546444118 0.00767862599971191
vn -0.9593403803652684 0.2821472546444118 0.00767862599971191
vn 0.9154811477556335 0.4018983830429744 0.019286207804299963
vn 0.9154811477556335 0.4018983830429744 0.019286207804299963
vn 0.9154811477556335 0.4018983830429744 0.019286207804299963
vn -0.7745722755866273 0.6324437443193777 -0.007259487849670546
vn -0.7745722755866273 0.6324437443193777 -0.007259487849670546
vn -0.7745722755866273 0.6324437443193777 -0.007259487849670546
vn 0.9959007501406089 0.08857785165135504 -0.018321027978893997
vn 0.9959007501406089 0.08857785165135504 -0.018321027978893997
vn 0.9959007501406089 0.08857785165135504 -0.018321027978893997
vn -0.6344771317672158 0.7729041494133456 0.007612166845256494
vn -0.6344771317672158 0.7729041494133456 0.007612166845256494
vn -0.6344771317672158 0.7729041494133456 0.007612166845256494
vn -0.20171569890371294 0.9794217044639342 -0.006625831325103177
vn -0.20171569890371294 0.9794217044639342 -0.006625831325103177
vn -0.20171569890371294 0.9794217044639342 -0.006625831325103177
vn -0.16049600034559275 0.9870327949129042 -0.002701044147777483
vn -0.16049600034559275 0.9870327949129042 -0.002701044147777483
vn -0.16049600034559275 0.9870327949129042 -0.002701044147777483
vn 0.3357141994518241 0.9419561260058802 0.003825306055116928
vn 0.3357141994518241 0.9419561260058802 0.003825306055116928
vn 0.3357141994518241 0.9419561260058802 0.003825306055116928
vn -0.42806756353661995 0.5703758578351007 -0.7010203576549648
vn -0.42806756353661995 0.5703758578351007 -0.7010203576549648
vn -0.42806756353661995 0.5703758578351007 -0.7010203576549648
vn -0.4445889198315814 0.5426952125872649 -0.7126167262967176
vn -0.4445889198315814 0.5426952125872649 -0.7126167262967176
vn -0.4445889198315814 0.5426952125872649 -0.7126167262967176
vn -0.6595252484160973 0.17626389144470972 -0.7307239473798931
vn -0.6595252484160973 0.17626389144470972 -0.7307239473798931
vn -0.6595252484160973 0.17626389144470972 -0.7307239473798931
vn -0.642044563123611 0.3345285752562836 -0.68983288650253
vn -0.642044563123611 0.3345285752562836 -0.68983288650253
vn -0.642044563123611 0.3345285752562836 -0.68983288650253
vn -0.6497924755114085 -0.2250717968891196 -0.726025085664303
vn -0.6497924755114085 -0.2250717968891196 -0.726025085664303
vn -0.6497924755114085 -0.2250717968891196 -0.726025085664303
vn -0.5373826612134636 -0.4654976716198482 -0.7032295451299212
vn -0.5373826612134636 -0.4654976716198482 -0.7032295451299212
vn -0.5373826612134636 -0.4654976716198482 -0.7032295451299212
vn -0.5314642130141012 -0.49002369677784247 -0.6909577171444568
vn -0.5314642130141012 -0.49002369677784247 -0.6909577171444568
vn -0.5314642130141012 -0.49002369677784247 -0.6909577171444568
vn -0.219119557455364 -0.6598255446302833 -0.7187606487516657
vn -0.219119557455364 -0.6598255446302833 -0.7187606487516657
vn -0.219119557455364 -0.6598255446302833 -0.7187606487516657
vn -0.15181839449307136 -0.7175722114257584 -0.6797361962431402
vn -0.15181839449307136 -0.7175722114257584 -0.6797361962431402
vn -0.15181839449307136 -0.7175722114257584 -0.6797361962431402
vn -0.11850039500015198 0.6928115989066064 -0.7113155029979873
vn -0.11850039500015198 0.6928115989066064 -0.7113155029979873
vn -0.11850039500015198 0.6928115989066064 -0.7113155029979873
vn -0.05909591083638955 0.7244607702584446 -0.6867781779286225
vn -0.05909591083638955 0.7244607702584446 -0.6867781779286225
vn -0.05909591083638955 0.7244607702584446 -0.6867781779286225
vn -0.7469629645100495 -0.040478821842523466 -0.6636322736520578
vn -0.7469629645100495 -0.040478821842523466 -0.6636322736520578
vn -0.7469629645100495 -0.040478821842523466 -0.6636322736520578
vn 0.9470381033843837 0.2511671753197866 -0.20008468402151366
vn 0.9470381033843837 0.2511671753197866 -0.20008468402151366
vn 0.9470381033843837 0.2511671753197866 -0.20008468402151366
vn 0.013051150244280859 0.9769604710520244 0.213020903854781
vn 0.013051150244280859 0.9769604710520244 0.213020903854781
vn 0.013051150244280859 0.9769604710520244 0.213020903854781
vn -0.07827836163257533 0.9923775054285744 -0.0951808006873209
vn -0.07827836163257533 0.9923775054285744 -0.0951808006873209
vn -0.07827836163257533 0.9923775054285744 -0.0951808006873209
vn -0.8951036382072397 0.36158904627292665 0.2608502223184755
vn -0.8951036382072397 0.36158904627292665 0.2608502223184755
vn -0.8951036382072397 0.36158904627292665 0.2608502223184755
vn -0.8758355098388477 0.4759296026276412 -0.08001982909267497
vn -0.8758355098388477 0.4759296026276412 -0.08001982909267497
vn -0.8758355098388477 0.4759296026276412 -0.08001982909267497
vn 0.3718850657223844 0.8979038703798518 -0.23552099152631883
vn 0.3718850657223844 0.8979038703798518 -0.23552099152631883
vn 0.3718850657223844 0.8979038703798518 -0.23552099152631883
vn 0.5908693697616197 0.7812569176280816 0.2012734869171183
vn 0.5908693697616197 0.7812569176280816 0.2012734869171183
vn 0.5908693697616197 0.7812569176280816 0.2012734869171183
vn -0.6088152473491485 0.7930816341214394 -0.019118478351132243
vn -0.6088152473491485 0.7930816341214394 -0.019118478351132243
vn -0.6088152473491485 0.7930816341214394 -0.019118478351132243
vn -0.5783230624880629 0.8093700952548916 0.10228628598945126
vn -0.5783230624880629 0.8093700952548916 0.10228628598945126
vn -0.5783230624880629 0.8093700952548916 0.10228628598945126
vn 0.7443752295159753 0.6464567189955461 -0.1673296989435902
vn 0.7443752295159753 0.6464567189955461 -0.1673296989435902
vn 0.7443752295159753 0.6464567189955461 -0.1673296989435902
vn 0.8939075118893217 0.40318680914474936 0.19588199794651256
vn 0.8939075118893217 0.40318680914474936 0.19588199794651256
vn 0.8939075118893217 0.40318680914474936 0.19588199794651256
vn -0.24947779983073376 -0.96837399885415 -0.0035532710055987257
vn -0.24947779983073376 -0.96837399885415 -0.0035532710055987257
vn -0.24947779983073376 -0.96837399885415 -0.0035532710055987257
vn -0.7333827850972277 -0.6798138837405255 0.0016655319441057446
vn -0.7333827850972277 -0.6798138837405255 0.0016655319441057446
vn -0.7333827850972277 -0.6798138837405255 0.0016655319441057446
vn -0.8204154859084273 -0.5716835184313994 -0.009817598256950518
vn -0.8204154859084273 -0.5716835184313994 -0.009817598256950518
vn -0.8204154859084273 -0.5716835184313994 -0.009817598256950518
vn 0.9070323502233082 -0.4208370948814851 0.013727899332892713
vn 0.9070323502233082 -0.4208370948814851 0.013727899332892713
vn 0.9070323502233082 -0.4208370948814851 0.013727899332892713
vn -0.9429452944694393 -0.33294224489678165 0.0019060957568410358
vn -0.9429452944694393 -0.33294224489678165 0.0019060957568410358
vn -0.9429452944694393 -0.33294224489678165 0.0019060957568410358
vn 0.6705981544926628 -0.7416130361766278 -0.017556188764030776
vn 0.6705981544926628 -0.7416130361766278 -0.017556188764030776
vn 0.6705981544926628 -0.7416130361766278 -0.017556188764030776
vn 0.3777728152412006 -0.925742166914109 0.01700413073073166
vn 0.3777728152412006 -0.925742166914109 0.01700413073073166
vn 0.3777728152412006 -0.925742166914109 0.01700413073073166
vn -0.29335495787227284 -0.9559496627356944 -0.010154359027983518
vn -0.29335495787227284 -0.9559496627356944 -0.010154359027983518
vn -0.29335495787227284 -0.9559496627356944 -0.010154359027983518
vn 0.000039406899240540824 -0.00004120680016636022 -0.999999998374548
vn 0.000039406899240540824 -0.00004120680016636022 -0.999999998374548
vn 0.000039406899240540824 -0.00004120680016636022 -0.999999998374548
vn 0.0000037949200658686756 0.00007283269932215811 -0.9999999973404983
vn 0.0000037949200658686756 0.00007283269932215811 -0.9999999973404983
vn 0.0000037949200658686756 0.00007283269932215811 -0.9999999973404983
vn 0.00001332000006697788 -0.00007670230092520495 -0.9999999969696673
vn 0.00001332000006697788 -0.00007670230092520495 -0.9999999969696673
vn 0.00001332000006697788 -0.00007670230092520495 -0.9999999969696673
vn -0.0000017204699801240031 -0.000041274499345742684 -0.9999999991467279
vn -0.0000017204699801240031 -0.000041274499345742684 -0.9999999991467279
vn -0.0000017204699801240031 -0.000041274499345742684 -0.9999999991467279
vn 0.00007241749495251639 0.0002261709969276007 -0.9999999718011928
vn 0.00007241749495251639 0.0002261709969276007 -0.9999999718011928
vn 0.00007241749495251639 0.0002261709969276007 -0.9999999718011928
vn -0.00022780399871806517 0.000021241799357735696 -0.9999999738270617
vn -0.00022780399871806517 0.000021241799357735696 -0.9999999738270617
vn -0.00022780399871806517 0.000021241799357735696 -0.9999999738270617
vn 0.23132019312499258 -0.6645794673898711 -0.7105104501528543
vn 0.23132019312499258 -0.6645794673898711 -0.7105104501528543
vn 0.23132019312499258 -0.6645794673898711 -0.7105104501528543
vn 0.6212243611594834 -0.276687301986888 -0.7331605758776236
vn 0.6212243611594834 -0.276687301986888 -0.7331605758776236
vn 0.6212243611594834 -0.276687301986888 -0.7331605758776236
vn 0.5418967641586759 -0.48010146945249976 -0.6898191618271463
vn 0.5418967641586759 -0.48010146945249976 -0.6898191618271463
vn 0.5418967641586759 -0.48010146945249976 -0.6898191618271463
vn 0.6900884159821987 -0.19712381769824322 -0.6963621030923851
vn 0.6900884159821987 -0.19712381769824322 -0.6963621030923851
vn 0.6900884159821987 -0.19712381769824322 -0.6963621030923851
vn 0.6911829806618519 0.14833399860772256 -0.7072928050676339
vn 0.6911829806618519 0.14833399860772256 -0.7072928050676339
vn 0.6911829806618519 0.14833399860772256 -0.7072928050676339
vn 0.5778582105965889 0.4528194077593557 -0.6789951932102132
vn 0.5778582105965889 0.4528194077593557 -0.6789951932102132
vn 0.5778582105965889 0.4528194077593557 -0.6789951932102132
vn 0.5460314607551667 0.4629643438108785 -0.6982217844104707
vn 0.5460314607551667 0.4629643438108785 -0.6982217844104707
vn 0.5460314607551667 0.4629643438108785 -0.6982217844104707
vn 0.235756380434301 0.6723416393116323 -0.701694840462907
vn 0.235756380434301 0.6723416393116323 -0.701694840462907
vn 0.235756380434301 0.6723416393116323 -0.701694840462907
vn 0.25905000308710047 0.6482068682408492 -0.7160453560117288
vn 0.25905000308710047 0.6482068682408492 -0.7160453560117288
vn 0.25905000308710047 0.6482068682408492 -0.7160453560117288
vn 0.26441381176629664 -0.6303653906580723 -0.7298799972651074
vn 0.26441381176629664 -0.6303653906580723 -0.7298799972651074
vn 0.26441381176629664 -0.6303653906580723 -0.7298799972651074
vn 0.5358722299144615 0.21181409413591792 -0.8172978298832579
vn 0.5358722299144615 0.21181409413591792 -0.8172978298832579
vn 0.5358722299144615 0.21181409413591792 -0.8172978298832579
vn 0.7020956347890835 0.18118669273413437 -0.6886458465613368
vn 0.7020956347890835 0.18118669273413437 -0.6886458465613368
vn 0.7020956347890835 0.18118669273413437 -0.6886458465613368
vn -0.9128237312303894 -0.05727385695436085 -0.40431737658948225
vn -0.9128237312303894 -0.05727385695436085 -0.40431737658948225
vn -0.9128237312303894 -0.05727385695436085 -0.40431737658948225
vn -0.0022576449349773777 -0.9774300619052229 0.21124719435604303
vn -0.0022576449349773777 -0.9774300619052229 0.21124719435604303
vn -0.0022576449349773777 -0.9774300619052229 0.21124719435604303
vn 0.9451567111988362 -0.2015131004725122 0.2570433068837915
vn 0.9451567111988362 -0.2015131004725122 0.2570433068837915
vn 0.9451567111988362 -0.2015131004725122 0.2570433068837915
vn 0.9592622582409597 -0.2805276829801155 -0.03346847765080124
vn 0.9592622582409597 -0.2805276829801155 -0.03346847765080124
vn 0.9592622582409597 -0.2805276829801155 -0.03346847765080124
vn -0.19566220604279216 -0.9395318299822947 -0.28106270043637727
vn -0.19566220604279216 -0.9395318299822947 -0.28106270043637727
vn -0.19566220604279216 -0.9395318299822947 -0.28106270043637727
vn -0.4875934841688865 -0.7958979805196676 0.35888577402950994
vn -0.4875934841688865 -0.7958979805196676 0.35888577402950994
vn -0.4875934841688865 -0.7958979805196676 0.35888577402950994
vn 0.7238479831082588 -0.6556473354807516 -0.2148736112860224
vn 0.7238479831082588 -0.6556473354807516 -0.2148736112860224
vn 0.7238479831082588 -0.6556473354807516 -0.2148736112860224
vn 0.5531863556482491 -0.7661120872555116 0.32719585218277486
vn 0.5531863556482491 -0.7661120872555116 0.32719585218277486
vn 0.5531863556482491 -0.7661120872555116 0.32719585218277486
vn -0.7283759109584772 -0.6175042980476098 -0.2969124016071698
vn -0.7283759109584772 -0.6175042980476098 -0.2969124016071698
vn -0.7283759109584772 -0.6175042980476098 -0.2969124016071698
vn -0.8714677677317317 -0.32542666740058734 0.36693516314087427
vn -0.8714677677317317 -0.32542666740058734 0.36693516314087427
vn -0.8714677677317317 -0.32542666740058734 0.36693516314087427
vn 0.3296923884254839 -0.9202045655513124 -0.21101300090947062
vn 0.3296923884254839 -0.9202045655513124 -0.21101300090947062
vn 0.3296923884254839 -0.9202045655513124 -0.21101300090947062
vn 0.0002723550164403569 0.00014808200820048305 0.9999999519472309
vn 0.0002723550164403569 0.00014808200820048305 0.9999999519472309
vn 0.0002723550164403569 0.00014808200820048305 0.9999999519472309
vn -0.000006782599914296761 -0.00008588869936784997 0.999999996288564
vn -0.000006782599914296761 -0.00008588869936784997 0.999999996288564
vn -0.000006782599914296761 -0.00008588869936784997 0.999999996288564
vn -0.00029969701859785327 0.000022622998912242153 0.9999999548349474
vn -0.00029969701859785327 0.000022622998912242153 0.9999999548349474
vn -0.00029969701859785327 0.000022622998912242153 0.9999999548349474
vn 6.120370130701067e-7 0 0.9999999999998128
vn 6.120370130701067e-7 0 0.9999999999998128
vn 6.120370130701067e-7 0 0.9999999999998128
vn -0.0000023376699022265965 -0.000090788300065771 0.99999999587601
vn -0.0000023376699022265965 -0.000090788300065771 0.99999999587601
vn -0.0000023376699022265965 -0.000090788300065771 0.99999999587601
vn 0.00003229239880949295 0.000009698629577486272 0.9999999994315689
vn 0.00003229239880949295 0.000009698629577486272 0.9999999994315689
vn 0.00003229239880949295 0.000009698629577486272 0.9999999994315689
vn 0 -0.00016807399278133232 0.9999999858755664
vn 0 -0.00016807399278133232 0.9999999858755664
vn 0 -0.00016807399278133232 0.9999999858755664
vn 0.00003672080126336683 -0.000011028600048200178 0.9999999992649764
vn 0.00003672080126336683 -0.000011028600048200178 0.9999999992649764
vn 0.00003672080126336683 -0.000011028600048200178 0.9999999992649764
vn 0.0002150599947850331 0.00017667199795559272 0.9999999612681011
vn 0.0002150599947850331 0.00017667199795559272 0.9999999612681011
vn 0.0002150599947850331 0.00017667199795559272 0.9999999612681011
vn 0.00027710298493155227 0.00017070198486784132 0.9999999470373826
vn 0.00027710298493155227 0.00017070198486784132 0.9999999470373826
vn 0.00027710298493155227 0.00017070198486784132 0.9999999470373826
vn -0.00021887298848744422 -0.0001983029828683213 0.9999999563852701
vn -0.00021887298848744422 -0.0001983029828683213 0.9999999563852701
vn -0.00021887298848744422 -0.0001983029828683213 0.9999999563852701
vn 0.00007795530078855965 -0.00004204579801686692 0.999999996077561
vn 0.00007795530078855965 -0.00004204579801686692 0.999999996077561
vn 0.00007795530078855965 -0.00004204579801686692 0.999999996077561
vn -0.000130768994998473 -0.000054968698706873825 0.9999999899389561
vn -0.000130768994998473 -0.000054968698706873825 0.9999999899389561
vn -0.000130768994998473 -0.000054968698706873825 0.9999999899389561
vn -0.00003286579882879525 -0.000025852899830304963 0.9999999991257336
vn -0.00003286579882879525 -0.000025852899830304963 0.9999999991257336
vn -0.00003286579882879525 -0.000025852899830304963 0.9999999991257336
vn 0.00010875398661727835 0.00046079195782374035 0.9999998879216647
vn 0.00010875398661727835 0.00046079195782374035 0.9999998879216647
vn 0.00010875398661727835 0.00046079195782374035 0.9999998879216647
vn 0 -0.00003303770061409126 0.9999999994542552
vn 0 -0.00003303770061409126 0.9999999994542552
vn 0 -0.00003303770061409126 0.9999999994542552
vn 0.0000494261984665556 -0.000010290100349794675 0.9999999987255823
vn 0.0000494261984665556 -0.000010290100349794675 0.9999999987255823
vn 0.0000494261984665556 -0.000010290100349794675 0.9999999987255823
vn -0.00011198099602907022 -0.00000818563962026777 0.999999993696626
vn -0.00011198099602907022 -0.00000818563962026777 0.999999993696626
vn -0.00011198099602907022 -0.00000818563962026777 0.999999993696626
vn -0.0000187575010475284 0.0005548340405574742 0.9999998459036599
vn -0.0000187575010475284 0.0005548340405574742 0.9999998459036599
vn -0.0000187575010475284 0.0005548340405574742 0.9999998459036599
vn 0.7235491079844818 0.6902729085911317 0
vn 0.7235491079844818 0.6902729085911317 0
vn 0.7235491079844818 0.6902729085911317 0
vn 0.5534662566411127 0.8103535119801966 -0.19235978888799884
vn 0.5534662566411127 0.8103535119801966 -0.19235978888799884
vn 0.5534662566411127 0.8103535119801966 -0.19235978888799884
vn 0.4250781941605682 0.8844996914394083 0.1922727871873232
vn 0.4250781941605682 0.8844996914394083 0.1922727871873232
vn 0.4250781941605682 0.8844996914394083 0.1922727871873232
vn 0.23612068639132963 0.9717237372103696 0
vn 0.23612068639132963 0.9717237372103696 0
vn 0.23612068639132963 0.9717237372103696 0
vn 0.9887092561300111 -0.07404976972180338 0.1302714030284009
vn 0.9887092561300111 -0.07404976972180338 0.1302714030284009
vn 0.9887092561300111 -0.07404976972180338 0.1302714030284009
vn 0.9887779076953791 0.0852026840922895 -0.12271410626744604
vn 0.9887779076953791 0.0852026840922895 -0.12271410626744604
vn 0.9887779076953791 0.0852026840922895 -0.12271410626744604
vn 0.2348233969291865 -0.9670856249705991 -0.0979967664255481
vn 0.2348233969291865 -0.9670856249705991 -0.0979967664255481
vn 0.2348233969291865 -0.9670856249705991 -0.0979967664255481
vn 0.48627940910076956 -0.8641701534342139 0.12939197115004236
vn 0.48627940910076956 -0.8641701534342139 0.12939197115004236
vn 0.48627940910076956 -0.8641701534342139 0.12939197115004236
vn 0.7202897768294791 -0.6871621704526035 -0.09481977058507578
vn 0.7202897768294791 -0.6871621704526035 -0.09481977058507578
vn 0.7202897768294791 -0.6871621704526035 -0.09481977058507578
vn -0.7235491079844818 -0.6902729085911317 0
vn -0.7235491079844818 -0.6902729085911317 0
vn -0.7235491079844818 -0.6902729085911317 0
vn -0.5535261214236041 -0.810324754732913 -0.19230867055020107
vn -0.5535261214236041 -0.810324754732913 -0.19230867055020107
vn -0.5535261214236041 -0.810324754732913 -0.19230867055020107
vn -0.4249112772294518 -0.8845810615863555 0.19226739704378498
vn -0.4249112772294518 -0.8845810615863555 0.19226739704378498
vn -0.4249112772294518 -0.8845810615863555 0.19226739704378498
vn -0.23595090116612108 -0.9717649778824587 0
vn -0.23595090116612108 -0.9717649778824587 0
vn -0.23595090116612108 -0.9717649778824587 0
vn -0.9552536728399158 0.28017247079854346 0.09483568491074763
vn -0.9552536728399158 0.28017247079854346 0.09483568491074763
vn -0.9552536728399158 0.28017247079854346 0.09483568491074763
vn -0.9794262048343992 -0.08439659324478138 -0.183307185708473
vn -0.9794262048343992 -0.08439659324478138 -0.183307185708473
vn -0.9794262048343992 -0.08439659324478138 -0.183307185708473
vn -0.9595716094716688 -0.2814646093134109 0
vn -0.9595716094716688 -0.2814646093134109 0
vn -0.9595716094716688 -0.2814646093134109 0
vn -0.23610708793725665 0.9717270414194455 0
vn -0.23610708793725665 0.9717270414194455 0
vn -0.23610708793725665 0.9717270414194455 0
vn -0.41665053334349533 0.8904011838479756 0.18327046916157705
vn -0.41665053334349533 0.8904011838479756 0.18327046916157705
vn -0.41665053334349533 0.8904011838479756 0.18327046916157705
vn -0.7202859901663605 0.6871585044507681 -0.09487508698836317
vn -0.7202859901663605 0.6871585044507681 -0.09487508698836317
vn -0.7202859901663605 0.6871585044507681 -0.09487508698836317
vn 0 0 1
vn 0 0 1
vn 0 0 1
vn 0 0 1
vn 0 0 1
vn 0 0 1
vn 0 0 1
vn 0 0 1
vn 0 0 1
vn 0.0000025246699806222326 0 0.999999999996813
vn 0.0000025246699806222326 0 0.999999999996813
vn 0.0000025246699806222326 0 0.999999999996813
vn -0.000005112699909592747 0 0.9999999999869302
vn -0.000005112699909592747 0 0.9999999999869302
vn -0.000005112699909592747 0 0.9999999999869302
vn 0 0 1
vn 0 0 1
vn 0 0 1
vn 0 0 1
vn 0 0 1
vn 0 0 1
vn 0 0 1
vn 0 0 1
vn 0 0 1
f 1//1 2//2 3//3
f 4//4 5//5 6//6
f 7//7 8//8 9//9
f 10//10 11//11 12//12
f 13//13 14//14 15//15
f 16//16 17//17 18//18
f 19//19 20//20 21//21
f 22//22 23//23 24//24
f 25//25 26//26 27//27
f 28//28 29//29 30//30
f 31//31 32//32 33//33
f 34//34 35//35 36//36
f 37//37 38//38 39//39
f 40//40 41//41 42//42
f 43//43 44//44 45//45
f 46//46 47//47 48//48
f 49//49 50//50 51//51
f 52//52 53//53 54//54
f 55//55 56//56 57//57
f 58//58 59//59 60//60
f 61//61 62//62 63//63
f 64//64 65//65 66//66
f 67//67 68//68 69//69
f 70//70 71//71 72//72
f 73//73 74//74 75//75
f 76//76 77//77 78//78
f 79//79 80//80 81//81
f 82//82 83//83 84//84
f 85//85 86//86 87//87
f 88//88 89//89 90//90
f 91//91 92//92 93//93
f 94//94 95//95 96//96
f 97//97 98//98 99//99
f 100//100 101//101 102//102
f 103//103 104//104 105//105
f 106//106 107//107 108//108
f 109//109 110//110 111//111
f 112//112 113//113 114//114
f 115//115 116//116 117//117
f 118//118 119//119 120//120
f 121//121 122//122 123//123
f 124//124 125//125 126//126
f 127//127 128//128 129//129
f 130//130 131//131 132//132
f 133//133 134//134 135//135
f 136//136 137//137 138//138
f 139//139 140//140 141//141
f 142//142 143//143 144//144
f 145//145 146//146 147//147
f 148//148 149//149 150//150
f 151//151 152//152 153//153
f 154//154 155//155 156//156
f 157//157 158//158 159//159
f 160//160 161//161 162//162
f 163//163 164//164 165//165
f 166//166 167//167 168//168
f 169//169 170//170 171//171
f 172//172 173//173 174//174
f 175//175 176//176 177//177
f 178//178 179//179 180//180
f 181//181 182//182 183//183
f 184//184 185//185 186//186
f 187//187 188//188 189//189
f 190//190 191//191 192//192
f 193//193 194//194 195//195
f 196//196 197//197 198//198
f 199//199 200//200 201//201
f 202//202 203//203 204//204
f 205//205 206//206 207//207
f 208//208 209//209 210//210
f 211//211 212//212 213//213
f 214//214 215//215 216//216
f 217//217 218//218 219//219
f 220//220 221//221 222//222
f 223//223 224//224 225//225
f 226//226 227//227 228//228
f 229//229 230//230 231//231
f 232//232 233//233 234//234
f 235//235 236//236 237//237
f 238//238 239//239 240//240
f 241//241 242//242 243//243
f 244//244 245//245 246//246
f 247//247 248//248 249//249
f 250//250 251//251 252//252
f 253//253 254//254 255//255
f 256//256 257//257 258//258
f 259//259 260//260 261//261
f 262//262 263//263 264//264
f 265//265 266//266 267//267
f 268//268 269//269 270//270
f 271//271 272//272 273//273
f 274//274 275//275 276//276
f 277//277 278//278 279//279
f 280//280 281//281 282//282
f 283//283 284//284 285//285
f 286//286 287//287 288//288
f 289//289 290//290 291//291
f 292//292 293//293 294//294
f 295//295 296//296 297//297
f 298//298 299//299 300//300
f 301//301 302//302 303//303
f 304//304 305//305 306//306
f 307//307 308//308 309//309
f 310//310 311//311 312//312
f 313//313 314//314 315//315
f 316//316 317//317 318//318
f 319//319 320//320 321//321
f 322//322 323//323 324//324
f 325//325 326//326 327//327
f 328//328 329//329 330//330
f 331//331 332//332 333//333
f 334//334 335//335 336//336
f 337//337 338//338 339//339
f 340//340 341//341 342//342
f 343//343 344//344 345//345
f 346//346 347//347 348//348
