o node4
usemtl grey_001
v -0.031788170337677 0.019506750628352165 0.043600380420684814
v -0.03316408023238182 0.020146310329437256 0.04360044002532959
v -0.03248118981719017 0.020045749843120575 0.05197453126311302
v -0.03434174880385399 0.019422169774770737 0.04360044002532959
v -0.03456360101699829 0.01821373961865902 0.05197715014219284
v -0.03443913906812668 0.019192449748516083 0.05195754021406174
v -0.03434174880385399 0.019422169774770737 0.04360044002532959
v -0.034554000943899155 0.018306370824575424 0.04360044002532959
v -0.03456360101699829 0.01821373961865902 0.05197715014219284
v -0.031788170337677 0.019506750628352165 0.043600380420684814
v -0.03248118981719017 0.020045749843120575 0.05197453126311302
v -0.03166728839278221 0.019226189702749252 0.05194782838225365
v -0.031788170337677 0.019506750628352165 0.043600380420684814
v -0.03166728839278221 0.019226189702749252 0.05194782838225365
v -0.03152792900800705 0.018476899713277817 0.05194966867566109
v -0.03434174880385399 0.019422169774770737 0.04360044002532959
v -0.03443913906812668 0.019192449748516083 0.05195754021406174
v -0.033773768693208694 0.01995307020843029 0.051956649869680405
v -0.03154081106185913 0.01836656965315342 0.04360044002532959
v -0.031788170337677 0.019506750628352165 0.043600380420684814
v -0.03152792900800705 0.018476899713277817 0.05194966867566109
v -0.03316408023238182 0.020146310329437256 0.04360044002532959
v -0.03434174880385399 0.019422169774770737 0.04360044002532959
v -0.033773768693208694 0.01995307020843029 0.051956649869680405
v -0.03316408023238182 0.020146310329437256 0.04360044002532959
v -0.033773768693208694 0.01995307020843029 0.051956649869680405
v -0.03248118981719017 0.020045749843120575 0.05197453126311302
v -0.03539501875638962 0.020116619765758514 0.05322097986936569
v -0.033773768693208694 0.01995307020843029 0.051956649869680405
v -0.03443913906812668 0.019192449748516083 0.05195754021406174
v -0.03539501875638962 0.020116619765758514 0.05322097986936569
v -0.03453462943434715 0.020915500819683075 0.053198330104351044
v -0.033773768693208694 0.01995307020843029 0.051956649869680405
v -0.03580480068922043 0.018706850707530975 0.0531960092484951
v -0.03443913906812668 0.019192449748516083 0.05195754021406174
v -0.03456360101699829 0.01821373961865902 0.05197715014219284
v -0.03456360101699829 0.01821373961865902 0.05197715014219284
v -0.03558783978223801 0.017465880140662193 0.053198810666799545
v -0.03580480068922043 0.018706850707530975 0.0531960092484951
v -0.03470170125365257 0.016350260004401207 0.05319422110915184
v -0.03558783978223801 0.017465880140662193 0.053198810666799545
v -0.03456360101699829 0.01821373961865902 0.05197715014219284
v -0.03470170125365257 0.016350260004401207 0.05319422110915184
v -0.03456360101699829 0.01821373961865902 0.05197715014219284
v -0.03372114151716232 0.0172115508466959 0.05196797102689743
v -0.033162228763103485 0.015815669670701027 0.0531960092484951
v -0.03470170125365257 0.016350260004401207 0.05319422110915184
v -0.03372114151716232 0.0172115508466959 0.05196797102689743
v -0.03323096036911011 0.021372370421886444 0.05320841073989868
v -0.03248118981719017 0.020045749843120575 0.05197453126311302
v -0.033773768693208694 0.01995307020843029 0.051956649869680405
v -0.033162228763103485 0.015815669670701027 0.0531960092484951
v -0.03372114151716232 0.0172115508466959 0.05196797102689743
v -0.0328369103372097 0.017088649794459343 0.051961299031972885
v -0.033773768693208694 0.01995307020843029 0.051956649869680405
v -0.03453462943434715 0.020915500819683075 0.053198330104351044
v -0.03323096036911011 0.021372370421886444 0.05320841073989868
v -0.03443913906812668 0.019192449748516083 0.05195754021406174
v -0.03580480068922043 0.018706850707530975 0.0531960092484951
v -0.03539501875638962 0.020116619765758514 0.05322097986936569
v -0.03323096036911011 0.021372370421886444 0.05320841073989868
v -0.03406095132231712 0.021170850843191147 0.0536002516746521
v -0.032762400805950165 0.021360090002417564 0.05360037088394165
v -0.03539501875638962 0.020116619765758514 0.05322097986936569
v -0.03580480068922043 0.018706850707530975 0.0531960092484951
v -0.035795681178569794 0.018986940383911133 0.0536004900932312
v -0.03178089112043381 0.0210685096681118 0.05320924147963524
v -0.03323096036911011 0.021372370421886444 0.05320841073989868
v -0.032762400805950165 0.021360090002417564 0.05360037088394165
v -0.03539501875638962 0.020116619765758514 0.05322097986936569
v -0.035795681178569794 0.018986940383911133 0.0536004900932312
v -0.03514957055449486 0.02043336071074009 0.0536004900932312
v -0.03178089112043381 0.0210685096681118 0.05320924147963524
v -0.032762400805950165 0.021360090002417564 0.05360037088394165
v -0.03146671876311302 0.020871810615062714 0.0536004900932312
v -0.030880920588970184 0.02029990963637829 0.05319463834166527
v -0.03178089112043381 0.0210685096681118 0.05320924147963524
v -0.03146671876311302 0.020871810615062714 0.0536004900932312
v -0.03453462943434715 0.020915500819683075 0.053198330104351044
v -0.03539501875638962 0.020116619765758514 0.05322097986936569
v -0.03514957055449486 0.02043336071074009 0.0536004900932312
v -0.030880920588970184 0.02029990963637829 0.05319463834166527
v -0.03146671876311302 0.020871810615062714 0.0536004900932312
v -0.030355390161275864 0.019484160467982292 0.05360066145658493
v -0.03453462943434715 0.020915500819683075 0.053198330104351044
v -0.03514957055449486 0.02043336071074009 0.0536004900932312
v -0.03406095132231712 0.021170850843191147 0.0536002516746521
v -0.030297990888357162 0.019074849784374237 0.053205251693725586
v -0.030880920588970184 0.02029990963637829 0.05319463834166527
v -0.030355390161275864 0.019484160467982292 0.05360066145658493
v -0.03323096036911011 0.021372370421886444 0.05320841073989868
v -0.03453462943434715 0.020915500819683075 0.053198330104351044
v -0.03406095132231712 0.021170850843191147 0.0536002516746521
v -0.03390014171600342 0.01730000041425228 0.04360032081604004
v -0.03372114151716232 0.0172115508466959 0.05196797102689743
v -0.03456360101699829 0.01821373961865902 0.05197715014219284
v -0.03154081106185913 0.01836656965315342 0.04360044002532959
v -0.03152792900800705 0.018476899713277817 0.05194966867566109
v -0.03180009126663208 0.017720580101013184 0.051942579448223114
v -0.034554000943899155 0.018306370824575424 0.04360044002532959
v -0.03390014171600342 0.01730000041425228 0.04360032081604004
v -0.03456360101699829 0.01821373961865902 0.05197715014219284
v -0.03201382979750633 0.017459509894251823 0.04360044002532959
v -0.03154081106185913 0.01836656965315342 0.04360044002532959
v -0.03180009126663208 0.017720580101013184 0.051942579448223114
v -0.03201382979750633 0.017459509894251823 0.04360044002532959
v -0.03180009126663208 0.017720580101013184 0.051942579448223114
v -0.03223896026611328 0.01731199026107788 0.05194509029388428
v -0.03201382979750633 0.017459509894251823 0.04360044002532959
v -0.03223896026611328 0.01731199026107788 0.05194509029388428
v -0.0328369103372097 0.017088649794459343 0.051961299031972885
v -0.03288530930876732 0.017087450250983238 0.04360044002532959
v -0.03201382979750633 0.017459509894251823 0.04360044002532959
v -0.0328369103372097 0.017088649794459343 0.051961299031972885
v -0.03288530930876732 0.017087450250983238 0.04360044002532959
v -0.0328369103372097 0.017088649794459343 0.051961299031972885
v -0.03372114151716232 0.0172115508466959 0.05196797102689743
v -0.03390014171600342 0.01730000041425228 0.04360032081604004
v -0.03288530930876732 0.017087450250983238 0.04360044002532959
v -0.03372114151716232 0.0172115508466959 0.05196797102689743
v -0.03288530930876732 0.017087450250983238 0.04360044002532959
v -0.03390014171600342 0.01730000041425228 0.04360032081604004
v -0.034554000943899155 0.018306370824575424 0.04360044002532959
v -0.03201382979750633 0.017459509894251823 0.04360044002532959
v -0.03288530930876732 0.017087450250983238 0.04360044002532959
v -0.031788170337677 0.019506750628352165 0.043600380420684814
v -0.03288530930876732 0.017087450250983238 0.04360044002532959
v -0.03434174880385399 0.019422169774770737 0.04360044002532959
v -0.031788170337677 0.019506750628352165 0.043600380420684814
v -0.03434174880385399 0.019422169774770737 0.04360044002532959
v -0.03316408023238182 0.020146310329437256 0.04360044002532959
v -0.031788170337677 0.019506750628352165 0.043600380420684814
v -0.03154081106185913 0.01836656965315342 0.04360044002532959
v -0.03201382979750633 0.017459509894251823 0.04360044002532959
v -0.031788170337677 0.019506750628352165 0.043600380420684814
v -0.03288530930876732 0.017087450250983238 0.04360044002532959
v -0.034554000943899155 0.018306370824575424 0.04360044002532959
v -0.03434174880385399 0.019422169774770737 0.04360044002532959
v -0.03223896026611328 0.01731199026107788 0.05194509029388428
v -0.033162228763103485 0.015815669670701027 0.0531960092484951
v -0.0328369103372097 0.017088649794459343 0.051961299031972885
v -0.03223896026611328 0.01731199026107788 0.05194509029388428
v -0.031609710305929184 0.016202619299292564 0.053217820823192596
v -0.033162228763103485 0.015815669670701027 0.0531960092484951
v -0.03180009126663208 0.017720580101013184 0.051942579448223114
v -0.03045761026442051 0.01751583069562912 0.05321257933974266
v -0.031609710305929184 0.016202619299292564 0.053217820823192596
v -0.03180009126663208 0.017720580101013184 0.051942579448223114
v -0.031609710305929184 0.016202619299292564 0.053217820823192596
v -0.03223896026611328 0.01731199026107788 0.05194509029388428
v -0.031038880348205566 0.018030399456620216 0.0525057315826416
v -0.03180009126663208 0.017720580101013184 0.051942579448223114
v -0.03152792900800705 0.018476899713277817 0.05194966867566109
v -0.031038880348205566 0.018030399456620216 0.0525057315826416
v -0.03045761026442051 0.01751583069562912 0.05321257933974266
v -0.03180009126663208 0.017720580101013184 0.051942579448223114
v -0.030297990888357162 0.019074849784374237 0.053205251693725586
v -0.03152792900800705 0.018476899713277817 0.05194966867566109
v -0.03166728839278221 0.019226189702749252 0.05194782838225365
v -0.030297990888357162 0.019074849784374237 0.053205251693725586
v -0.031038880348205566 0.018030399456620216 0.0525057315826416
v -0.03152792900800705 0.018476899713277817 0.05194966867566109
v -0.03248118981719017 0.020045749843120575 0.05197453126311302
v -0.03178089112043381 0.0210685096681118 0.05320924147963524
v -0.030880920588970184 0.02029990963637829 0.05319463834166527
v -0.03323096036911011 0.021372370421886444 0.05320841073989868
v -0.03178089112043381 0.0210685096681118 0.05320924147963524
v -0.03248118981719017 0.020045749843120575 0.05197453126311302
v -0.030297990888357162 0.019074849784374237 0.053205251693725586
v -0.03045761026442051 0.01751583069562912 0.05321257933974266
v -0.031038880348205566 0.018030399456620216 0.0525057315826416
v -0.030880920588970184 0.02029990963637829 0.05319463834166527
v -0.03166728839278221 0.019226189702749252 0.05194782838225365
v -0.03248118981719017 0.020045749843120575 0.05197453126311302
v -0.030880920588970184 0.02029990963637829 0.05319463834166527
v -0.030297990888357162 0.019074849784374237 0.053205251693725586
v -0.03166728839278221 0.019226189702749252 0.05194782838225365
v -0.033162228763103485 0.015815669670701027 0.0531960092484951
v -0.031609710305929184 0.016202619299292564 0.053217820823192596
v -0.031782619655132294 0.01607179082930088 0.05360095947980881
v -0.03045761026442051 0.01751583069562912 0.05321257933974266
v -0.030355390161275864 0.019484160467982292 0.05360066145658493
v -0.030507320538163185 0.017450569197535515 0.05360101908445358
v -0.03045761026442051 0.01751583069562912 0.05321257933974266
v -0.030297990888357162 0.019074849784374237 0.053205251693725586
v -0.030355390161275864 0.019484160467982292 0.05360066145658493
v -0.03580480068922043 0.018706850707530975 0.0531960092484951
v -0.03567320108413696 0.017693040892481804 0.05360095947980881
v -0.035795681178569794 0.018986940383911133 0.0536004900932312
v -0.03580480068922043 0.018706850707530975 0.0531960092484951
v -0.03558783978223801 0.017465880140662193 0.053198810666799545
v -0.03567320108413696 0.017693040892481804 0.05360095947980881
v -0.033162228763103485 0.015815669670701027 0.0531960092484951
v -0.031782619655132294 0.01607179082930088 0.05360095947980881
v -0.03354156017303467 0.015871159732341766 0.05360037088394165
v -0.03470170125365257 0.016350260004401207 0.05319422110915184
v -0.033162228763103485 0.015815669670701027 0.0531960092484951
v -0.03354156017303467 0.015871159732341766 0.05360037088394165
v -0.03470170125365257 0.016350260004401207 0.05319422110915184
v -0.03354156017303467 0.015871159732341766 0.05360037088394165
v -0.034832168370485306 0.01645326055586338 0.0535997711122036
v -0.03045761026442051 0.01751583069562912 0.05321257933974266
v -0.030507320538163185 0.017450569197535515 0.05360101908445358
v -0.031782619655132294 0.01607179082930088 0.05360095947980881
v -0.031609710305929184 0.016202619299292564 0.053217820823192596
v -0.03045761026442051 0.01751583069562912 0.05321257933974266
v -0.031782619655132294 0.01607179082930088 0.05360095947980881
v -0.03558783978223801 0.017465880140662193 0.053198810666799545
v -0.03470170125365257 0.016350260004401207 0.05319422110915184
v -0.034832168370485306 0.01645326055586338 0.0535997711122036
v -0.03558783978223801 0.017465880140662193 0.053198810666799545
v -0.034832168370485306 0.01645326055586338 0.0535997711122036
v -0.03567320108413696 0.017693040892481804 0.05360095947980881
v -0.03354156017303467 0.015871159732341766 0.05360037088394165
v -0.031782619655132294 0.01607179082930088 0.05360095947980881
v -0.03299843892455101 0.01725797913968563 0.053600430488586426
v -0.03434509038925171 0.01784360036253929 0.0536004900932312
v -0.03412503004074097 0.01859349012374878 0.0536004900932312
v -0.035795681178569794 0.018986940383911133 0.0536004900932312
v -0.031782619655132294 0.01607179082930088 0.05360095947980881
v -0.031747039407491684 0.01784360036253929 0.0536004900932312
v -0.03299843892455101 0.01725797913968563 0.053600430488586426
v -0.03567320108413696 0.017693040892481804 0.05360095947980881
v -0.03434509038925171 0.01784360036253929 0.0536004900932312
v -0.035795681178569794 0.018986940383911133 0.0536004900932312
v -0.03354156017303467 0.015871159732341766 0.05360037088394165
v -0.03299843892455101 0.01725797913968563 0.053600430488586426
v -0.034832168370485306 0.01645326055586338 0.0535997711122036
v -0.031747039407491684 0.01784360036253929 0.0536004900932312
v -0.030355390161275864 0.019484160467982292 0.05360066145658493
v -0.03196704015135765 0.01859349012374878 0.0536004900932312
v -0.03412503004074097 0.01859349012374878 0.0536004900932312
v -0.034178849309682846 0.01930253952741623 0.0536004900932312
v -0.035795681178569794 0.018986940383911133 0.0536004900932312
v -0.033049941062927246 0.019971130415797234 0.0536004900932312
v -0.032762400805950165 0.021360090002417564 0.05360037088394165
v -0.03406095132231712 0.021170850843191147 0.0536002516746521
v -0.03196704015135765 0.01859349012374878 0.0536004900932312
v -0.030355390161275864 0.019484160467982292 0.05360066145658493
v -0.031747039407491684 0.019343610852956772 0.0536004900932312
v -0.034832168370485306 0.01645326055586338 0.0535997711122036
v -0.03299843892455101 0.01725797913968563 0.053600430488586426
v -0.033585481345653534 0.01765899918973446 0.0536004900932312
v -0.034178849309682846 0.01930253952741623 0.0536004900932312
v -0.033049941062927246 0.019971130415797234 0.0536004900932312
v -0.03406095132231712 0.021170850843191147 0.0536002516746521
v -0.031747039407491684 0.019343610852956772 0.0536004900932312
v -0.030355390161275864 0.019484160467982292 0.05360066145658493
v -0.03146671876311302 0.020871810615062714 0.0536004900932312
v -0.035795681178569794 0.018986940383911133 0.0536004900932312
v -0.034178849309682846 0.01930253952741623 0.0536004900932312
v -0.03514957055449486 0.02043336071074009 0.0536004900932312
v -0.034178849309682846 0.01930253952741623 0.0536004900932312
v -0.03406095132231712 0.021170850843191147 0.0536002516746521
v -0.03514957055449486 0.02043336071074009 0.0536004900932312
v -0.034832168370485306 0.01645326055586338 0.0535997711122036
v -0.033585481345653534 0.01765899918973446 0.0536004900932312
v -0.03434509038925171 0.01784360036253929 0.0536004900932312
v -0.033049941062927246 0.019971130415797234 0.0536004900932312
v -0.031747039407491684 0.019343610852956772 0.0536004900932312
v -0.03146671876311302 0.020871810615062714 0.0536004900932312
v -0.034832168370485306 0.01645326055586338 0.0535997711122036
v -0.03434509038925171 0.01784360036253929 0.0536004900932312
v -0.03567320108413696 0.017693040892481804 0.05360095947980881
v -0.030507320538163185 0.017450569197535515 0.05360101908445358
v -0.030355390161275864 0.019484160467982292 0.05360066145658493
v -0.031747039407491684 0.01784360036253929 0.0536004900932312
v -0.031782619655132294 0.01607179082930088 0.05360095947980881
v -0.030507320538163185 0.017450569197535515 0.05360101908445358
v -0.031747039407491684 0.01784360036253929 0.0536004900932312
v -0.033049941062927246 0.019971130415797234 0.0536004900932312
v -0.03146671876311302 0.020871810615062714 0.0536004900932312
v -0.032762400805950165 0.021360090002417564 0.05360037088394165
v -0.033585481345653534 0.01765899918973446 0.0536004900932312
v -0.0330459401011467 0.017093470320105553 0.05277049168944359
v -0.034178849309682846 0.017884550616145134 0.05277036875486374
v -0.033585481345653534 0.01765899918973446 0.0536004900932312
v -0.03299843892455101 0.01725797913968563 0.053600430488586426
v -0.0330459401011467 0.017093470320105553 0.05277049168944359
v -0.03434509038925171 0.01784360036253929 0.0536004900932312
v -0.033585481345653534 0.01765899918973446 0.0536004900932312
v -0.034178849309682846 0.017884550616145134 0.05277036875486374
v -0.03434509038925171 0.01784360036253929 0.0536004900932312
v -0.034178849309682846 0.017884550616145134 0.05277036875486374
v -0.03412503004074097 0.01859349012374878 0.05277049168944359
v -0.03412503004074097 0.01859349012374878 0.0536004900932312
v -0.03434509038925171 0.01784360036253929 0.0536004900932312
v -0.03412503004074097 0.01859349012374878 0.05277049168944359
v -0.03412503004074097 0.01859349012374878 0.0536004900932312
v -0.03412503004074097 0.01859349012374878 0.05277049168944359
v -0.03434509038925171 0.019343610852956772 0.05277049168944359
v -0.034178849309682846 0.01930253952741623 0.0536004900932312
v -0.03412503004074097 0.01859349012374878 0.0536004900932312
v -0.03434509038925171 0.019343610852956772 0.05277049168944359
v -0.034178849309682846 0.01930253952741623 0.0536004900932312
v -0.03434509038925171 0.019343610852956772 0.05277049168944359
v -0.03304212912917137 0.019971130415797234 0.05277049168944359
v -0.033049941062927246 0.019971130415797234 0.0536004900932312
v -0.034178849309682846 0.01930253952741623 0.0536004900932312
v -0.03304212912917137 0.019971130415797234 0.05277049168944359
v -0.033049941062927246 0.019971130415797234 0.0536004900932312
v -0.03304212912917137 0.019971130415797234 0.05277049168944359
v -0.03250658139586449 0.019528089091181755 0.05277049168944359
v -0.031747039407491684 0.019343610852956772 0.0536004900932312
v -0.03250658139586449 0.019528089091181755 0.05277049168944359
v -0.031747039407491684 0.019343610852956772 0.05277049168944359
v -0.031747039407491684 0.019343610852956772 0.0536004900932312
v -0.033049941062927246 0.019971130415797234 0.0536004900932312
v -0.03250658139586449 0.019528089091181755 0.05277049168944359
v -0.03196704015135765 0.01859349012374878 0.0536004900932312
v -0.031747039407491684 0.019343610852956772 0.05277049168944359
v -0.03186558932065964 0.017967039719223976 0.05277049168944359
v -0.03196704015135765 0.01859349012374878 0.0536004900932312
v -0.031747039407491684 0.019343610852956772 0.0536004900932312
v -0.031747039407491684 0.019343610852956772 0.05277049168944359
v -0.031747039407491684 0.01784360036253929 0.0536004900932312
v -0.03196704015135765 0.01859349012374878 0.0536004900932312
v -0.03186558932065964 0.017967039719223976 0.05277049168944359
v -0.031747039407491684 0.01784360036253929 0.0536004900932312
v -0.03186558932065964 0.017967039719223976 0.05277049168944359
v -0.03250658139586449 0.01765899918973446 0.05277049168944359
v -0.03299843892455101 0.01725797913968563 0.053600430488586426
v -0.031747039407491684 0.01784360036253929 0.0536004900932312
v -0.03250658139586449 0.01765899918973446 0.05277049168944359
v -0.03299843892455101 0.01725797913968563 0.053600430488586426
v -0.03250658139586449 0.01765899918973446 0.05277049168944359
v -0.0330459401011467 0.017093470320105553 0.05277049168944359
v -0.03250658139586449 0.01765899918973446 0.05277049168944359
v -0.034178849309682846 0.017884550616145134 0.05277036875486374
v -0.0330459401011467 0.017093470320105553 0.05277049168944359
v -0.03250658139586449 0.01765899918973446 0.05277049168944359
v -0.03412503004074097 0.01859349012374878 0.05277049168944359
v -0.034178849309682846 0.017884550616145134 0.05277036875486374
v -0.03304212912917137 0.019971130415797234 0.05277049168944359
v -0.03434509038925171 0.019343610852956772 0.05277049168944359
v -0.03412503004074097 0.01859349012374878 0.05277049168944359
v -0.03250658139586449 0.019528089091181755 0.05277049168944359
v -0.03304212912917137 0.019971130415797234 0.05277049168944359
v -0.03412503004074097 0.01859349012374878 0.05277049168944359
v -0.03250658139586449 0.019528089091181755 0.05277049168944359
v -0.03412503004074097 0.01859349012374878 0.05277049168944359
v -0.03250658139586449 0.01765899918973446 0.05277049168944359
v -0.03250658139586449 0.019528089091181755 0.05277049168944359
v -0.03250658139586449 0.01765899918973446 0.05277049168944359
v -0.03186558932065964 0.017967039719223976 0.05277049168944359
v -0.031747039407491684 0.019343610852956772 0.05277049168944359
v -0.03250658139586449 0.019528089091181755 0.05277049168944359
v -0.03186558932065964 0.017967039719223976 0.05277049168944359
vn 0.4214083782453084 0.9065668436778451 -0.02348481825879778
vn 0.4214083782453084 0.9065668436778451 -0.02348481825879778
vn 0.4214083782453084 0.9065668436778451 -0.02348481825879778
vn -0.9920050154733362 0.12593779283914408 -0.0081068866126758
vn -0.9920050154733362 0.12593779283914408 -0.0081068866126758
vn -0.9920050154733362 0.12593779283914408 -0.0081068866126758
vn -0.9823840494599797 0.18687080292156888 0.0009393519363688569
vn -0.9823840494599797 0.18687080292156888 0.0009393519363688569
vn -0.9823840494599797 0.18687080292156888 0.0009393519363688569
vn 0.7097316913604278 0.7043448024302317 0.013391249687180782
vn 0.7097316913604278 0.7043448024302317 0.013391249687180782
vn 0.7097316913604278 0.7043448024302317 0.013391249687180782
vn 0.9831275747650577 0.1827417725344786 -0.0081003893445063
vn 0.9831275747650577 0.1827417725344786 -0.0081003893445063
vn 0.9831275747650577 0.1827417725344786 -0.0081003893445063
vn -0.7525990628487789 0.6584131141873817 0.009317814401121125
vn -0.7525990628487789 0.6584131141873817 0.009317814401121125
vn -0.7525990628487789 0.6584131141873817 0.009317814401121125
vn 0.9772475732044305 0.21205816672958291 -0.004302858275580748
vn 0.9772475732044305 0.21205816672958291 -0.004302858275580748
vn 0.9772475732044305 0.21205816672958291 -0.004302858275580748
vn -0.5237044738274398 0.8516987041324783 -0.018518679007466017
vn -0.5237044738274398 0.8516987041324783 -0.018518679007466017
vn -0.5237044738274398 0.8516987041324783 -0.018518679007466017
vn -0.07179414532170794 0.9972602200166322 0.017822858073375844
vn -0.07179414532170794 0.9972602200166322 0.017822858073375844
vn -0.07179414532170794 0.9972602200166322 0.017822858073375844
vn -0.5192488326457284 0.4533548263014108 -0.7244653554624031
vn -0.5192488326457284 0.4533548263014108 -0.7244653554624031
vn -0.5192488326457284 0.4533548263014108 -0.7244653554624031
vn -0.49498776027505065 0.5132616802531501 -0.7011059582984599
vn -0.49498776027505065 0.5132616802531501 -0.7011059582984599
vn -0.49498776027505065 0.5132616802531501 -0.7011059582984599
vn -0.6839926091081514 0.072396440687973 -0.7258876401077073
vn -0.6839926091081514 0.072396440687973 -0.7258876401077073
vn -0.6839926091081514 0.072396440687973 -0.7258876401077073
vn -0.7202296950949896 -0.12745599621902762 -0.6819267961674432
vn -0.7202296950949896 -0.12745599621902762 -0.6819267961674432
vn -0.7202296950949896 -0.12745599621902762 -0.6819267961674432
vn -0.5448435511304427 -0.42983615132832204 -0.71999054702324
vn -0.5448435511304427 -0.42983615132832204 -0.71999054702324
vn -0.5448435511304427 -0.42983615132832204 -0.71999054702324
vn -0.527576281610879 -0.43676347690492884 -0.7286294890570628
vn -0.527576281610879 -0.43676347690492884 -0.7286294890570628
vn -0.527576281610879 -0.43676347690492884 -0.7286294890570628
vn -0.24010438557554903 -0.6936051058979734 -0.6791626028423893
vn -0.24010438557554903 -0.6936051058979734 -0.6791626028423893
vn -0.24010438557554903 -0.6936051058979734 -0.6791626028423893
vn -0.037732829840532216 0.6690457717183583 -0.7422627492323804
vn -0.037732829840532216 0.6690457717183583 -0.7422627492323804
vn -0.037732829840532216 0.6690457717183583 -0.7422627492323804
vn -0.09996337078416694 -0.6794656177288111 -0.7268657364505996
vn -0.09996337078416694 -0.6794656177288111 -0.7268657364505996
vn -0.09996337078416694 -0.6794656177288111 -0.7268657364505996
vn -0.23728009324764518 0.6920153880734089 -0.6817718533483162
vn -0.23728009324764518 0.6920153880734089 -0.6817718533483162
vn -0.23728009324764518 0.6920153880734089 -0.6817718533483162
vn -0.6968768342502977 0.21471290609190377 -0.6842960220860943
vn -0.6968768342502977 0.21471290609190377 -0.6842960220860943
vn -0.6968768342502977 0.21471290609190377 -0.6842960220860943
vn -0.14138248654373725 0.969666189274512 0.19939527044680896
vn -0.14138248654373725 0.969666189274512 0.19939527044680896
vn -0.14138248654373725 0.969666189274512 0.19939527044680896
vn -0.9452971766537877 0.2778021976698568 -0.17099469810545417
vn -0.9452971766537877 0.2778021976698568 -0.17099469810545417
vn -0.9452971766537877 0.2778021976698568 -0.17099469810545417
vn 0.20067566252345648 0.956903677898319 -0.2099157680962575
vn 0.20067566252345648 0.956903677898319 -0.2099157680962575
vn 0.20067566252345648 0.956903677898319 -0.2099157680962575
vn -0.8857091715528034 0.3956821583312898 0.24280628699755433
vn -0.8857091715528034 0.3956821583312898 0.24280628699755433
vn -0.8857091715528034 0.3956821583312898 0.24280628699755433
vn 0.346591414031551 0.9198098805541093 0.1839134996530847
vn 0.346591414031551 0.9198098805541093 0.1839134996530847
vn 0.346591414031551 0.9198098805541093 0.1839134996530847
vn 0.6420636708430312 0.7543979807198702 -0.13652080159944077
vn 0.6420636708430312 0.7543979807198702 -0.13652080159944077
vn 0.6420636708430312 0.7543979807198702 -0.13652080159944077
vn -0.6733429541924442 0.7205317734181462 -0.16565998169229953
vn -0.6733429541924442 0.7205317734181462 -0.16565998169229953
vn -0.6733429541924442 0.7205317734181462 -0.16565998169229953
vn 0.7580244400973714 0.6070820576923227 0.23843305862049022
vn 0.7580244400973714 0.6070820576923227 0.23843305862049022
vn 0.7580244400973714 0.6070820576923227 0.23843305862049022
vn -0.5557871525182208 0.8204714750750122 0.13389249300809183
vn -0.5557871525182208 0.8204714750750122 0.13389249300809183
vn -0.5557871525182208 0.8204714750750122 0.13389249300809183
vn 0.8631667830609399 0.4082146759950158 -0.297159692627571
vn 0.8631667830609399 0.4082146759950158 -0.297159692627571
vn 0.8631667830609399 0.4082146759950158 -0.297159692627571
vn -0.32214620504540525 0.9237554014584692 -0.20711779462698496
vn -0.32214620504540525 0.9237554014584692 -0.20711779462698496
vn -0.32214620504540525 0.9237554014584692 -0.20711779462698496
vn -0.7654363584580539 -0.6434405506230535 0.009562372319425737
vn -0.7654363584580539 -0.6434405506230535 0.009562372319425737
vn -0.7654363584580539 -0.6434405506230535 0.009562372319425737
vn 0.9409422115716192 -0.33855366121491975 0.0030286895984529406
vn 0.9409422115716192 -0.33855366121491975 0.0030286895984529406
vn 0.9409422115716192 -0.33855366121491975 0.0030286895984529406
vn -0.8385148793754326 -0.5448339678503376 -0.00698172918845428
vn -0.8385148793754326 -0.5448339678503376 -0.00698172918845428
vn -0.8385148793754326 -0.5448339678503376 -0.00698172918845428
vn 0.8866441368357164 -0.4623788060955156 -0.008247077575288647
vn 0.8866441368357164 -0.4623788060955156 -0.008247077575288647
vn 0.8866441368357164 -0.4623788060955156 -0.008247077575288647
vn 0.6813698282906612 -0.7319190364583462 0.005448042312672281
vn 0.6813698282906612 -0.7319190364583462 0.005448042312672281
vn 0.6813698282906612 -0.7319190364583462 0.005448042312672281
vn 0.34979191920286706 -0.9368003740121796 -0.007118462686222815
vn 0.34979191920286706 -0.9368003740121796 -0.007118462686222815
vn 0.34979191920286706 -0.9368003740121796 -0.007118462686222815
vn 0.3925886757514286 -0.9197116511264053 -0.0021471967960548974
vn 0.3925886757514286 -0.9197116511264053 -0.0021471967960548974
vn 0.3925886757514286 -0.9197116511264053 -0.0021471967960548974
vn -0.137653500080179 -0.9904800074571565 0.0009320640254150238
vn -0.137653500080179 -0.9904800074571565 0.0009320640254150238
vn -0.137653500080179 -0.9904800074571565 0.0009320640254150238
vn -0.20498989714294052 -0.9787458869022239 -0.005969165880215299
vn -0.20498989714294052 -0.9787458869022239 -0.005969165880215299
vn -0.20498989714294052 -0.9787458869022239 -0.005969165880215299
vn 0.00018143399276695146 0.00028117897556286653 -0.9999999440100436
vn 0.00018143399276695146 0.00028117897556286653 -0.9999999440100436
vn 0.00018143399276695146 0.00028117897556286653 -0.9999999440100436
vn 0.000017117899904822873 -0.000030551800572903413 -0.9999999993867825
vn 0.000017117899904822873 -0.000030551800572903413 -0.9999999993867825
vn 0.000017117899904822873 -0.000030551800572903413 -0.9999999993867825
vn -0.00004095469918097108 -0.00000553512017613943 -0.9999999991460375
vn -0.00004095469918097108 -0.00000553512017613943 -0.9999999991460375
vn -0.00004095469918097108 -0.00000553512017613943 -0.9999999991460375
vn -0.00004366790013056963 0.0000020367799587440046 -0.999999999044483
vn -0.00004366790013056963 0.0000020367799587440046 -0.999999999044483
vn -0.00004366790013056963 0.0000020367799587440046 -0.999999999044483
vn 0.000057160501323325295 -0.00003691609882119558 -0.9999999976849394
vn 0.000057160501323325295 -0.00003691609882119558 -0.9999999976849394
vn 0.000057160501323325295 -0.00003691609882119558 -0.9999999976849394
vn -0.000027448300887296336 0.00000484720021443511 -0.9999999996115478
vn -0.000027448300887296336 0.00000484720021443511 -0.9999999996115478
vn -0.000027448300887296336 0.00000484720021443511 -0.9999999996115478
vn 0.24601746709808603 -0.7065027245362143 -0.6635731354610042
vn 0.24601746709808603 -0.7065027245362143 -0.6635731354610042
vn 0.24601746709808603 -0.7065027245362143 -0.6635731354610042
vn 0.18292738858070076 -0.6945318716665838 -0.6958182591354996
vn 0.18292738858070076 -0.6945318716665838 -0.6958182591354996
vn 0.18292738858070076 -0.6945318716665838 -0.6958182591354996
vn 0.5575742080867215 -0.49187504851373326 -0.6687076634270598
vn 0.5575742080867215 -0.49187504851373326 -0.6687076634270598
vn 0.5575742080867215 -0.49187504851373326 -0.6687076634270598
vn 0.4855256719227779 -0.5258461879087963 -0.6983914436515682
vn 0.4855256719227779 -0.5258461879087963 -0.6983914436515682
vn 0.4855256719227779 -0.5258461879087963 -0.6983914436515682
vn 0.6366832395369141 -0.22214499601109916 -0.7384348672970481
vn 0.6366832395369141 -0.22214499601109916 -0.7384348672970481
vn 0.6366832395369141 -0.22214499601109916 -0.7384348672970481
vn 0.6408941145869986 -0.2654251752692904 -0.7202806468460843
vn 0.6408941145869986 -0.2654251752692904 -0.7202806468460843
vn 0.6408941145869986 -0.2654251752692904 -0.7202806468460843
vn 0.6785467124698321 0.12431409694252188 -0.723961576534106
vn 0.6785467124698321 0.12431409694252188 -0.723961576534106
vn 0.6785467124698321 0.12431409694252188 -0.723961576534106
vn 0.726575606956604 -0.0568377296352264 -0.6847315969528174
vn 0.726575606956604 -0.0568377296352264 -0.6847315969528174
vn 0.726575606956604 -0.0568377296352264 -0.6847315969528174
vn 0.45268407761451984 0.5434873735850365 -0.7068936275196787
vn 0.45268407761451984 0.5434873735850365 -0.7068936275196787
vn 0.45268407761451984 0.5434873735850365 -0.7068936275196787
vn 0.15079230126214233 0.7176187065119598 -0.6799154902957932
vn 0.15079230126214233 0.7176187065119598 -0.6799154902957932
vn 0.15079230126214233 0.7176187065119598 -0.6799154902957932
vn 0.7409660046675831 -0.07899904066150996 -0.6668796979227365
vn 0.7409660046675831 -0.07899904066150996 -0.6668796979227365
vn 0.7409660046675831 -0.07899904066150996 -0.6668796979227365
vn 0.47540989628040536 0.4957726013197612 -0.7267702238667262
vn 0.47540989628040536 0.4957726013197612 -0.7267702238667262
vn 0.47540989628040536 0.4957726013197612 -0.7267702238667262
vn 0.6615838554009237 0.30893398010848816 -0.683276370297684
vn 0.6615838554009237 0.30893398010848816 -0.683276370297684
vn 0.6615838554009237 0.30893398010848816 -0.683276370297684
vn 0.2390454908110453 -0.9467861848701798 -0.2155299827445731
vn 0.2390454908110453 -0.9467861848701798 -0.2155299827445731
vn 0.2390454908110453 -0.9467861848701798 -0.2155299827445731
vn 0.990684485041138 -0.07399313715876893 0.1143208937691562
vn 0.990684485041138 -0.07399313715876893 0.1143208937691562
vn 0.990684485041138 -0.07399313715876893 0.1143208937691562
vn 0.9655256034853593 -0.0977227514886568 0.2412686735896697
vn 0.9655256034853593 -0.0977227514886568 0.2412686735896697
vn 0.9655256034853593 -0.0977227514886568 0.2412686735896697
vn -0.9917426982418796 -0.09389250987810721 0.08735340332640879
vn -0.9917426982418796 -0.09389250987810721 0.08735340332640879
vn -0.9917426982418796 -0.09389250987810721 0.08735340332640879
vn -0.9789460363006368 -0.1714032899199246 -0.11084029148237713
vn -0.9789460363006368 -0.1714032899199246 -0.11084029148237713
vn -0.9789460363006368 -0.1714032899199246 -0.11084029148237713
vn 0.11001709173255737 -0.9655459584346929 0.23583308011629794
vn 0.11001709173255737 -0.9655459584346929 0.23583308011629794
vn 0.11001709173255737 -0.9655459584346929 0.23583308011629794
vn -0.3228391916166573 -0.9301302773218687 -0.17502149458122845
vn -0.3228391916166573 -0.9301302773218687 -0.17502149458122845
vn -0.3228391916166573 -0.9301302773218687 -0.17502149458122845
vn -0.4091254527964761 -0.907138717500036 0.09856830670387075
vn -0.4091254527964761 -0.907138717500036 0.09856830670387075
vn -0.4091254527964761 -0.907138717500036 0.09856830670387075
vn 0.7339607869994538 -0.6788905671002925 -0.0202277297140773
vn 0.7339607869994538 -0.6788905671002925 -0.0202277297140773
vn 0.7339607869994538 -0.6788905671002925 -0.0202277297140773
vn 0.7470821066886646 -0.654968016697731 0.11351309602274026
vn 0.7470821066886646 -0.654968016697731 0.11351309602274026
vn 0.7470821066886646 -0.654968016697731 0.11351309602274026
vn -0.7797505272387282 -0.6190165887561986 -0.0938486979961086
vn -0.7797505272387282 -0.6190165887561986 -0.0938486979961086
vn -0.7797505272387282 -0.6190165887561986 -0.0938486979961086
vn -0.8193376712783618 -0.555923346262616 0.14012499243292367
vn -0.8193376712783618 -0.555923346262616 0.14012499243292367
vn -0.8193376712783618 -0.555923346262616 0.14012499243292367
vn -0.0003871649597138745 0.00010608698862949358 0.999999919424419
vn -0.0003871649597138745 0.00010608698862949358 0.999999919424419
vn -0.0003871649597138745 0.00010608698862949358 0.999999919424419
vn 0.000019011300533348656 -0.000007956079569469037 0.9999999997876357
vn 0.000019011300533348656 -0.000007956079569469037 0.9999999997876357
vn 0.000019011300533348656 -0.000007956079569469037 0.9999999997876357
vn -0.0001821989858016712 0.0003023649615901566 0.9999999376894778
vn -0.0001821989858016712 0.0003023649615901566 0.9999999376894778
vn -0.0001821989858016712 0.0003023649615901566 0.9999999376894778
vn 0.00036025998002860746 0.0004047829895282531 0.9999998531817283
vn 0.00036025998002860746 0.0004047829895282531 0.9999998531817283
vn 0.00036025998002860746 0.0004047829895282531 0.9999998531817283
vn -0.00040766499028823663 0.00011814599909910527 0.9999999099253852
vn -0.00040766499028823663 0.00011814599909910527 0.9999999099253852
vn -0.00040766499028823663 0.00011814599909910527 0.9999999099253852
vn -0.0001191440014595008 -0.00003617699957580688 0.9999999922479658
vn -0.0001191440014595008 -0.00003617699957580688 0.9999999922479658
vn -0.0001191440014595008 -0.00003617699957580688 0.9999999922479658
vn 0.000025014900521751486 0.0000022401800372091948 0.9999999996846183
vn 0.000025014900521751486 0.0000022401800372091948 0.9999999996846183
vn 0.000025014900521751486 0.0000022401800372091948 0.9999999996846183
vn -0.00011126799520576684 0.00010808499661850139 0.9999999879685332
vn -0.00011126799520576684 0.00010808499661850139 0.9999999879685332
vn -0.00011126799520576684 0.00010808499661850139 0.9999999879685332
vn -0.0001652140029293405 0.00005016599896207958 0.9999999850938528
vn -0.0001652140029293405 0.00005016599896207958 0.9999999850938528
vn -0.0001652140029293405 0.00005016599896207958 0.9999999850938528
vn -0.00018071198761482926 -0.0004109879740336912 0.9999998992160264
vn -0.00018071198761482926 -0.0004109879740336912 0.9999998992160264
vn -0.00018071198761482926 -0.0004109879740336912 0.9999998992160264
vn -0.00007884269777496086 0.0001325699979734844 0.9999999881045122
vn -0.00007884269777496086 0.0001325699979734844 0.9999999881045122
vn -0.00007884269777496086 0.0001325699979734844 0.9999999881045122
vn -0.00016731099216186758 0.00003101679931775728 0.9999999855224948
vn -0.00016731099216186758 0.00003101679931775728 0.9999999855224948
vn -0.00016731099216186758 0.00003101679931775728 0.9999999855224948
vn 0.00003749210006080657 -0.000014659100076587615 0.9999999991897266
vn 0.00003749210006080657 -0.000014659100076587615 0.9999999991897266
vn 0.00003749210006080657 -0.000014659100076587615 0.9999999991897266
vn 0.00018312599720092757 0.0001159439971211864 0.999999976510929
vn 0.00018312599720092757 0.0001159439971211864 0.999999976510929
vn 0.00018312599720092757 0.0001159439971211864 0.999999976510929
vn -0.00011746298681782327 -0.0004765569459312436 0.9999998795479547
vn -0.00011746298681782327 -0.0004765569459312436 0.9999998795479547
vn -0.00011746298681782327 -0.0004765569459312436 0.9999998795479547
vn 0 0 1
vn 0 0 1
vn 0 0 1
vn 0.00046983297846931864 -0.0006838459613397537 0.9999996558057774
vn 0.00046983297846931864 -0.0006838459613397537 0.9999996558057774
vn 0.00046983297846931864 -0.0006838459613397537 0.9999996558057774
vn -0.00041161297664832005 0.00020644197047056323 0.9999998939782295
vn -0.00041161297664832005 0.00020644197047056323 0.9999998939782295
vn -0.00041161297664832005 0.00020644197047056323 0.9999998939782295
vn -0.0003818109978697426 0.0003061569876226768 0.9999998802441233
vn -0.0003818109978697426 0.0003061569876226768 0.9999998802441233
vn -0.0003818109978697426 0.0003061569876226768 0.9999998802441233
vn -0.00005062689857849316 0.00009727710071899324 0.9999999939870414
vn -0.00005062689857849316 0.00009727710071899324 0.9999999939870414
vn -0.00005062689857849316 0.00009727710071899324 0.9999999939870414
vn 0.5628093561479434 0.8060003634221551 -0.18332769238631522
vn 0.5628093561479434 0.8060003634221551 -0.18332769238631522
vn 0.5628093561479434 0.8060003634221551 -0.18332769238631522
vn 0.5534806900122341 0.8103479223895573 -0.19234180633057651
vn 0.5534806900122341 0.8103479223895573 -0.19234180633057651
vn 0.5534806900122341 0.8103479223895573 -0.19234180633057651
vn 0.23502498283532944 0.967355942629729 0.09479313109187544
vn 0.23502498283532944 0.967355942629729 0.09479313109187544
vn 0.23502498283532944 0.967355942629729 0.09479313109187544
vn 0.9785177138790178 -0.07430439463023714 0.19230689161757808
vn 0.9785177138790178 -0.07430439463023714 0.19230689161757808
vn 0.9785177138790178 -0.07430439463023714 0.19230689161757808
vn 0.9595428338926877 -0.2815626927083736 0
vn 0.9595428338926877 -0.2815626927083736 0
vn 0.9595428338926877 -0.2815626927083736 0
vn 0.9595561782353403 0.281517212280862 0
vn 0.9595561782353403 0.281517212280862 0
vn 0.9595561782353403 0.281517212280862 0
vn 0.9785174332325604 0.07427853498397097 -0.19231830932232286
vn 0.9785174332325604 0.07427853498397097 -0.19231830932232286
vn 0.9785174332325604 0.07427853498397097 -0.19231830932232286
vn 0.4302059633749877 -0.8932770332267528 -0.1303033805632443
vn 0.4302059633749877 -0.8932770332267528 -0.1303033805632443
vn 0.4302059633749877 -0.8932770332267528 -0.1303033805632443
vn 0.5095419325407329 -0.8604324523734779 0.004797278938943101
vn 0.5095419325407329 -0.8604324523734779 0.004797278938943101
vn 0.5095419325407329 -0.8604324523734779 0.004797278938943101
vn -0.6374110944027881 -0.7705005723532178 -0.005997060580293908
vn -0.6374110944027881 -0.7705005723532178 -0.005997060580293908
vn -0.6374110944027881 -0.7705005723532178 -0.005997060580293908
vn -0.23601987821212697 -0.9717482272115204 0
vn -0.23601987821212697 -0.9717482272115204 0
vn -0.23601987821212697 -0.9717482272115204 0
vn -0.42575086804627976 -0.8839878161944271 0.19313658166605088
vn -0.42575086804627976 -0.8839878161944271 0.19313658166605088
vn -0.42575086804627976 -0.8839878161944271 0.19313658166605088
vn -0.9794199617715276 0.08438866715606105 -0.183344188179182
vn -0.9794199617715276 0.08438866715606105 -0.183344188179182
vn -0.9794199617715276 0.08438866715606105 -0.183344188179182
vn -0.9595758773433447 0.28145005883948593 0
vn -0.9595758773433447 0.28145005883948593 0
vn -0.9595758773433447 0.28145005883948593 0
vn -0.9552373082129482 -0.2802298902070526 0.0948308685641142
vn -0.9552373082129482 -0.2802298902070526 0.0948308685641142
vn -0.9552373082129482 -0.2802298902070526 0.0948308685641142
vn -0.4250274570768532 0.8845218362111965 0.19228307776909842
vn -0.4250274570768532 0.8845218362111965 0.19228307776909842
vn -0.4250274570768532 0.8845218362111965 0.19228307776909842
vn -0.4166451171095686 0.8903954784470913 0.18331049710730926
vn -0.4166451171095686 0.8903954784470913 0.18331049710730926
vn -0.4166451171095686 0.8903954784470913 0.18331049710730926
vn -0.7203511832145275 0.6870848761992654 -0.09491335912120197
vn -0.7203511832145275 0.6870848761992654 -0.09491335912120197
vn -0.7203511832145275 0.6870848761992654 -0.09491335912120197
vn -0.00003408409971510768 0.00003200539864477445 0.9999999989069643
vn -0.00003408409971510768 0.00003200539864477445 0.9999999989069643
vn -0.00003408409971510768 0.00003200539864477445 0.9999999989069643
vn -0.00004859720114951673 -0.00008557349751244758 0.9999999951577443
vn -0.00004859720114951673 -0.00008557349751244758 0.9999999951577443
vn -0.00004859720114951673 -0.00008557349751244758 0.9999999951577443
vn 0 0 1
vn 0 0 1
vn 0 0 1
vn 0 0 1
vn 0 0 1
vn 0 0 1
vn 0 0 1
vn 0 0 1
vn 0 0 1
vn -0.0000030369099022069367 0 0.9999999999953886
vn -0.0000030369099022069367 0 0.9999999999953886
vn -0.0000030369099022069367 0 0.9999999999953886
vn 0 0 1
vn 0 0 1
vn 0 0 1
f 1//1 2//2 3//3
f 4//4 5//5 6//6
f 7//7 8//8 9//9
f 10//10 11//11 12//12
f 13//13 14//14 15//15
f 16//16 17//17 18//18
f 19//19 20//20 21//21
f 22//22 23//23 24//24
f 25//25 26//26 27//27
f 28//28 29//29 30//30
f 31//31 32//32 33//33
f 34//34 35//35 36//36
f 37//37 38//38 39//39
f 40//40 41//41 42//42
f 43//43 44//44 45//45
f 46//46 47//47 48//48
f 49//49 50//50 51//51
f 52//52 53//53 54//54
f 55//55 56//56 57//57
f 58//58 59//59 60//60
f 61//61 62//62 63//63
f 64//64 65//65 66//66
f 67//67 68//68 69//69
f 70//70 71//71 72//72
f 73//73 74//74 75//75
f 76//76 77//77 78//78
f 79//79 80//80 81//81
f 82//82 83//83 84//84
f 85//85 86//86 87//87
f 88//88 89//89 90//90
f 91//91 92//92 93//93
f 94//94 95//95 96//96
f 97//97 98//98 99//99
f 100//100 101//101 102//102
f 103//103 104//104 105//105
f 106//106 107//107 108//108
f 109//109 110//110 111//111
f 112//112 113//113 114//114
f 115//115 116//116 117//117
f 118//118 119//119 120//120
f 121//121 122//122 123//123
f 124//124 125//125 126//126
f 127//127 128//128 129//129
f 130//130 131//131 132//132
f 133//133 134//134 135//135
f 136//136 137//137 138//138
f 139//139 140//140 141//141
f 142//142 143//143 144//144
f 145//145 146//146 147//147
f 148//148 149//149 150//150
f 151//151 152//152 153//153
f 154//154 155//155 156//156
f 157//157 158//158 159//159
f 160//160 161//161 162//162
f 163//163 164//164 165//165
f 166//166 167//167 168//168
f 169//169 170//170 171//171
f 172//172 173//173 174//174
f 175//175 176//176 177//177
f 178//178 179//179 180//180
f 181//181 182//182 183//183
f 184//184 185//185 186//186
f 187//187 188//188 189//189
f 190//190 191//191 192//192
f 193//193 194//194 195//195
f 196//196 197//197 198//198
f 199//199 200//200 201//201
f 202//202 203//203 204//204
f 205//205 206//206 207//207
f 208//208 209//209 210//210
f 211//211 212//212 213//213
f 214//214 215//215 216//216
f 217//217 218//218 219//219
f 220//220 221//221 222//222
f 223//223 224//224 225//225
f 226//226 227//227 228//228
f 229//229 230//230 231//231
f 232//232 233//233 234//234
f 235//235 236//236 237//237
f 238//238 239//239 240//240
f 241//241 242//242 243//243
f 244//244 245//245 246//246
f 247//247 248//248 249//249
f 250//250 251//251 252//252
f 253//253 254//254 255//255
f 256//256 257//257 258//258
f 259//259 260//260 261//261
f 262//262 263//263 264//264
f 265//265 266//266 267//267
f 268//268 269//269 270//270
f 271//271 272//272 273//273
f 274//274 275//275 276//276
f 277//277 278//278 279//279
f 280//280 281//281 282//282
f 283//283 284//284 285//285
f 286//286 287//287 288//288
f 289//289 290//290 291//291
f 292//292 293//293 294//294
f 295//295 296//296 297//297
f 298//298 299//299 300//300
f 301//301 302//302 303//303
f 304//304 305//305 306//306
f 307//307 308//308 309//309
f 310//310 311//311 312//312
f 313//313 314//314 315//315
f 316//316 317//317 318//318
f 319//319 320//320 321//321
f 322//322 323//323 324//324
f 325//325 326//326 327//327
f 328//328 329//329 330//330
f 331//331 332//332 333//333
f 334//334 335//335 336//336
f 337//337 338//338 339//339
f 340//340 341//341 342//342
f 343//343 344//344 345//345
f 346//346 347//347 348//348
