o node5
usemtl verbindung_001
v 0.032754119485616684 0.02014290913939476 0.04360044002532959
v 0.03276102989912033 0.020121749490499496 0.05191415175795555
v 0.03367406129837036 0.019827060401439667 0.051975421607494354
v 0.033863600343465805 0.01966398023068905 0.04360044002532959
v 0.032754119485616684 0.02014290913939476 0.04360044002532959
v 0.03367406129837036 0.019827060401439667 0.051975421607494354
v 0.033863600343465805 0.01966398023068905 0.04360044002532959
v 0.03367406129837036 0.019827060401439667 0.051975421607494354
v 0.0340840183198452 0.01936911977827549 0.051963210105895996
v 0.03137803077697754 0.0193442702293396 0.04360044002532959
v 0.03125040978193283 0.018700240179896355 0.05194246023893356
v 0.03168553113937378 0.019682880491018295 0.05196379870176315
v 0.03432542085647583 0.01848565973341465 0.04360044002532959
v 0.033863600343465805 0.01966398023068905 0.04360044002532959
v 0.0340840183198452 0.01936911977827549 0.051963210105895996
v 0.03432542085647583 0.01848565973341465 0.04360044002532959
v 0.0340840183198452 0.01936911977827549 0.051963210105895996
v 0.03429567068815231 0.018580550327897072 0.05195659026503563
v 0.032754119485616684 0.02014290913939476 0.04360044002532959
v 0.03137803077697754 0.0193442702293396 0.04360044002532959
v 0.03168553113937378 0.019682880491018295 0.05196379870176315
v 0.032754119485616684 0.02014290913939476 0.04360044002532959
v 0.03168553113937378 0.019682880491018295 0.05196379870176315
v 0.03276102989912033 0.020121749490499496 0.05191415175795555
v 0.03168553113937378 0.019682880491018295 0.05196379870176315
v 0.03186618909239769 0.021207090467214584 0.05319314822554588
v 0.03276102989912033 0.020121749490499496 0.05191415175795555
v 0.03186618909239769 0.021207090467214584 0.05319314822554588
v 0.03316301107406616 0.02133697085082531 0.05318969115614891
v 0.03276102989912033 0.020121749490499496 0.05191415175795555
v 0.03168553113937378 0.019682880491018295 0.05196379870176315
v 0.031001150608062744 0.020719820633530617 0.05319761857390404
v 0.03186618909239769 0.021207090467214584 0.05319314822554588
v 0.03125040978193283 0.018700240179896355 0.05194246023893356
v 0.03008436970412731 0.019388189539313316 0.053226288408041
v 0.03168553113937378 0.019682880491018295 0.05196379870176315
v 0.03154623135924339 0.017661800608038902 0.05193442106246948
v 0.03097343072295189 0.017564229667186737 0.0525054894387722
v 0.03125040978193283 0.018700240179896355 0.05194246023893356
v 0.03097343072295189 0.017564229667186737 0.0525054894387722
v 0.030150650069117546 0.017610250040888786 0.05320268124341965
v 0.03125040978193283 0.018700240179896355 0.05194246023893356
v 0.03166532143950462 0.016784600913524628 0.05254404991865158
v 0.03097343072295189 0.017564229667186737 0.0525054894387722
v 0.03154623135924339 0.017661800608038902 0.05193442106246948
v 0.03166532143950462 0.016784600913524628 0.05254404991865158
v 0.03092128038406372 0.016543319448828697 0.05320065841078758
v 0.03097343072295189 0.017564229667186737 0.0525054894387722
v 0.031937889754772186 0.015946680679917336 0.05319792032241821
v 0.03255258873105049 0.01708447001874447 0.05193597078323364
v 0.033590249717235565 0.015913719311356544 0.053210608661174774
v 0.031937889754772186 0.015946680679917336 0.05319792032241821
v 0.03166532143950462 0.016784600913524628 0.05254404991865158
v 0.03255258873105049 0.01708447001874447 0.05193597078323364
v 0.03168553113937378 0.019682880491018295 0.05196379870176315
v 0.03008436970412731 0.019388189539313316 0.053226288408041
v 0.031001150608062744 0.020719820633530617 0.05319761857390404
v 0.03125040978193283 0.018700240179896355 0.05194246023893356
v 0.030150650069117546 0.017610250040888786 0.05320268124341965
v 0.03008436970412731 0.019388189539313316 0.053226288408041
v 0.03097343072295189 0.017564229667186737 0.0525054894387722
v 0.03092128038406372 0.016543319448828697 0.05320065841078758
v 0.030150650069117546 0.017610250040888786 0.05320268124341965
v 0.03166532143950462 0.016784600913524628 0.05254404991865158
v 0.03154623135924339 0.017661800608038902 0.05193442106246948
v 0.03255258873105049 0.01708447001874447 0.05193597078323364
v 0.03166532143950462 0.016784600913524628 0.05254404991865158
v 0.031937889754772186 0.015946680679917336 0.05319792032241821
v 0.03092128038406372 0.016543319448828697 0.05320065841078758
v 0.03556019067764282 0.0185850802809 0.0532025583088398
v 0.035054441541433334 0.0201906505972147 0.05319947004318237
v 0.03560096025466919 0.018557719886302948 0.05360120162367821
v 0.03186618909239769 0.021207090467214584 0.05319314822554588
v 0.0313529297709465 0.020991800352931023 0.053600601851940155
v 0.033338841050863266 0.021357709541916847 0.05360066145658493
v 0.03316301107406616 0.02133697085082531 0.05318969115614891
v 0.03186618909239769 0.021207090467214584 0.05319314822554588
v 0.033338841050863266 0.021357709541916847 0.05360066145658493
v 0.03008436970412731 0.019388189539313316 0.053226288408041
v 0.029981430619955063 0.018360670655965805 0.05360089987516403
v 0.03031538985669613 0.01989305019378662 0.05360012874007225
v 0.03403215855360031 0.02105432003736496 0.0531991682946682
v 0.03316301107406616 0.02133697085082531 0.05318969115614891
v 0.033338841050863266 0.021357709541916847 0.05360066145658493
v 0.03403215855360031 0.02105432003736496 0.0531991682946682
v 0.033338841050863266 0.021357709541916847 0.05360066145658493
v 0.034844450652599335 0.020443139597773552 0.053600311279296875
v 0.031001150608062744 0.020719820633530617 0.05319761857390404
v 0.03031538985669613 0.01989305019378662 0.05360012874007225
v 0.0313529297709465 0.020991800352931023 0.053600601851940155
v 0.031001150608062744 0.020719820633530617 0.05319761857390404
v 0.03008436970412731 0.019388189539313316 0.053226288408041
v 0.03031538985669613 0.01989305019378662 0.05360012874007225
v 0.035054441541433334 0.0201906505972147 0.05319947004318237
v 0.03403215855360031 0.02105432003736496 0.0531991682946682
v 0.034844450652599335 0.020443139597773552 0.053600311279296875
v 0.03186618909239769 0.021207090467214584 0.05319314822554588
v 0.031001150608062744 0.020719820633530617 0.05319761857390404
v 0.0313529297709465 0.020991800352931023 0.053600601851940155
v 0.035054441541433334 0.0201906505972147 0.05319947004318237
v 0.034844450652599335 0.020443139597773552 0.053600311279296875
v 0.03560096025466919 0.018557719886302948 0.05360120162367821
v 0.03198099136352539 0.017303520813584328 0.04360044002532959
v 0.03255258873105049 0.01708447001874447 0.05193597078323364
v 0.03154623135924339 0.017661800608038902 0.05193442106246948
v 0.03136003017425537 0.018002450466156006 0.04360044002532959
v 0.03198099136352539 0.017303520813584328 0.04360044002532959
v 0.03154623135924339 0.017661800608038902 0.05193442106246948
v 0.03432542085647583 0.01848565973341465 0.04360044002532959
v 0.03429567068815231 0.018580550327897072 0.05195659026503563
v 0.034001171588897705 0.017699530348181725 0.051948901265859604
v 0.03136003017425537 0.018002450466156006 0.04360044002532959
v 0.03154623135924339 0.017661800608038902 0.05193442106246948
v 0.03125040978193283 0.018700240179896355 0.05194246023893356
v 0.033802330493927 0.017479360103607178 0.04360061138868332
v 0.03432542085647583 0.01848565973341465 0.04360044002532959
v 0.034001171588897705 0.017699530348181725 0.051948901265859604
v 0.03137803077697754 0.0193442702293396 0.04360044002532959
v 0.03136003017425537 0.018002450466156006 0.04360044002532959
v 0.03125040978193283 0.018700240179896355 0.05194246023893356
v 0.033802330493927 0.017479360103607178 0.04360061138868332
v 0.034001171588897705 0.017699530348181725 0.051948901265859604
v 0.03336364030838013 0.017195940017700195 0.051961060613393784
v 0.03292768821120262 0.017067130655050278 0.04360044002532959
v 0.033802330493927 0.017479360103607178 0.04360061138868332
v 0.03336364030838013 0.017195940017700195 0.051961060613393784
v 0.03292768821120262 0.017067130655050278 0.04360044002532959
v 0.03336364030838013 0.017195940017700195 0.051961060613393784
v 0.03255258873105049 0.01708447001874447 0.05193597078323364
v 0.03198099136352539 0.017303520813584328 0.04360044002532959
v 0.03292768821120262 0.017067130655050278 0.04360044002532959
v 0.03255258873105049 0.01708447001874447 0.05193597078323364
v 0.03198099136352539 0.017303520813584328 0.04360044002532959
v 0.03136003017425537 0.018002450466156006 0.04360044002532959
v 0.03137803077697754 0.0193442702293396 0.04360044002532959
v 0.03292768821120262 0.017067130655050278 0.04360044002532959
v 0.03198099136352539 0.017303520813584328 0.04360044002532959
v 0.03137803077697754 0.0193442702293396 0.04360044002532959
v 0.033802330493927 0.017479360103607178 0.04360061138868332
v 0.03292768821120262 0.017067130655050278 0.04360044002532959
v 0.03432542085647583 0.01848565973341465 0.04360044002532959
v 0.03292768821120262 0.017067130655050278 0.04360044002532959
v 0.03137803077697754 0.0193442702293396 0.04360044002532959
v 0.03432542085647583 0.01848565973341465 0.04360044002532959
v 0.03137803077697754 0.0193442702293396 0.04360044002532959
v 0.032754119485616684 0.02014290913939476 0.04360044002532959
v 0.03432542085647583 0.01848565973341465 0.04360044002532959
v 0.03432542085647583 0.01848565973341465 0.04360044002532959
v 0.032754119485616684 0.02014290913939476 0.04360044002532959
v 0.033863600343465805 0.01966398023068905 0.04360044002532959
v 0.03255258873105049 0.01708447001874447 0.05193597078323364
v 0.03336364030838013 0.017195940017700195 0.051961060613393784
v 0.033590249717235565 0.015913719311356544 0.053210608661174774
v 0.03450839966535568 0.016457369551062584 0.053200241178274155
v 0.03336364030838013 0.017195940017700195 0.051961060613393784
v 0.034001171588897705 0.017699530348181725 0.051948901265859604
v 0.033590249717235565 0.015913719311356544 0.053210608661174774
v 0.03336364030838013 0.017195940017700195 0.051961060613393784
v 0.03450839966535568 0.016457369551062584 0.053200241178274155
v 0.03517919033765793 0.017237599939107895 0.05319076031446457
v 0.03450839966535568 0.016457369551062584 0.053200241178274155
v 0.034001171588897705 0.017699530348181725 0.051948901265859604
v 0.03556019067764282 0.0185850802809 0.0532025583088398
v 0.03517919033765793 0.017237599939107895 0.05319076031446457
v 0.03429567068815231 0.018580550327897072 0.05195659026503563
v 0.03556019067764282 0.0185850802809 0.0532025583088398
v 0.03429567068815231 0.018580550327897072 0.05195659026503563
v 0.0340840183198452 0.01936911977827549 0.051963210105895996
v 0.0340840183198452 0.01936911977827549 0.051963210105895996
v 0.035054441541433334 0.0201906505972147 0.05319947004318237
v 0.03556019067764282 0.0185850802809 0.0532025583088398
v 0.03367406129837036 0.019827060401439667 0.051975421607494354
v 0.035054441541433334 0.0201906505972147 0.05319947004318237
v 0.0340840183198452 0.01936911977827549 0.051963210105895996
v 0.03367406129837036 0.019827060401439667 0.051975421607494354
v 0.03403215855360031 0.02105432003736496 0.0531991682946682
v 0.035054441541433334 0.0201906505972147 0.05319947004318237
v 0.03367406129837036 0.019827060401439667 0.051975421607494354
v 0.03316301107406616 0.02133697085082531 0.05318969115614891
v 0.03403215855360031 0.02105432003736496 0.0531991682946682
v 0.03316301107406616 0.02133697085082531 0.05318969115614891
v 0.03367406129837036 0.019827060401439667 0.051975421607494354
v 0.03276102989912033 0.020121749490499496 0.05191415175795555
v 0.03429567068815231 0.018580550327897072 0.05195659026503563
v 0.03517919033765793 0.017237599939107895 0.05319076031446457
v 0.034001171588897705 0.017699530348181725 0.051948901265859604
v 0.03008436970412731 0.019388189539313316 0.053226288408041
v 0.030150650069117546 0.017610250040888786 0.05320268124341965
v 0.029981430619955063 0.018360670655965805 0.05360089987516403
v 0.031937889754772186 0.015946680679917336 0.05319792032241821
v 0.033590249717235565 0.015913719311356544 0.053210608661174774
v 0.0324859581887722 0.01577037014067173 0.053600311279296875
v 0.03517919033765793 0.017237599939107895 0.05319076031446457
v 0.03556019067764282 0.0185850802809 0.0532025583088398
v 0.03560096025466919 0.018557719886302948 0.05360120162367821
v 0.03517919033765793 0.017237599939107895 0.05319076031446457
v 0.03560096025466919 0.018557719886302948 0.05360120162367821
v 0.0346565805375576 0.016512030735611916 0.053600311279296875
v 0.031937889754772186 0.015946680679917336 0.05319792032241821
v 0.0324859581887722 0.01577037014067173 0.053600311279296875
v 0.030761949717998505 0.01666831038892269 0.05360053852200508
v 0.03092128038406372 0.016543319448828697 0.05320065841078758
v 0.031937889754772186 0.015946680679917336 0.05319792032241821
v 0.030761949717998505 0.01666831038892269 0.05360053852200508
v 0.03450839966535568 0.016457369551062584 0.053200241178274155
v 0.03517919033765793 0.017237599939107895 0.05319076031446457
v 0.0346565805375576 0.016512030735611916 0.053600311279296875
v 0.030150650069117546 0.017610250040888786 0.05320268124341965
v 0.03092128038406372 0.016543319448828697 0.05320065841078758
v 0.030761949717998505 0.01666831038892269 0.05360053852200508
v 0.033590249717235565 0.015913719311356544 0.053210608661174774
v 0.03450839966535568 0.016457369551062584 0.053200241178274155
v 0.0346565805375576 0.016512030735611916 0.053600311279296875
v 0.030150650069117546 0.017610250040888786 0.05320268124341965
v 0.030761949717998505 0.01666831038892269 0.05360053852200508
v 0.029981430619955063 0.018360670655965805 0.05360089987516403
v 0.033590249717235565 0.015913719311356544 0.053210608661174774
v 0.0346565805375576 0.016512030735611916 0.053600311279296875
v 0.0324859581887722 0.01577037014067173 0.053600311279296875
v 0.0324859581887722 0.01577037014067173 0.053600311279296875
v 0.0346565805375576 0.016512030735611916 0.053600311279296875
v 0.032819390296936035 0.01725797913968563 0.0536004900932312
v 0.031472738832235336 0.01784360036253929 0.0536004900932312
v 0.03159128874540329 0.019220110028982162 0.0536004900932312
v 0.029981430619955063 0.018360670655965805 0.05360089987516403
v 0.0346565805375576 0.016512030735611916 0.053600311279296875
v 0.034070730209350586 0.01784360036253929 0.0536004900932312
v 0.032819390296936035 0.01725797913968563 0.0536004900932312
v 0.034070730209350586 0.01784360036253929 0.0536004900932312
v 0.03560096025466919 0.018557719886302948 0.05360120162367821
v 0.033850718289613724 0.01859349012374878 0.0536004900932312
v 0.033850718289613724 0.01859349012374878 0.0536004900932312
v 0.03560096025466919 0.018557719886302948 0.05360120162367821
v 0.034070730209350586 0.019343610852956772 0.0536004900932312
v 0.03560096025466919 0.018557719886302948 0.05360120162367821
v 0.034844450652599335 0.020443139597773552 0.053600311279296875
v 0.034070730209350586 0.019343610852956772 0.0536004900932312
v 0.0327678881585598 0.019971130415797234 0.0536004900932312
v 0.033338841050863266 0.021357709541916847 0.05360066145658493
v 0.0313529297709465 0.020991800352931023 0.053600601851940155
v 0.029981430619955063 0.018360670655965805 0.05360089987516403
v 0.03159128874540329 0.019220110028982162 0.0536004900932312
v 0.03031538985669613 0.01989305019378662 0.05360012874007225
v 0.0324859581887722 0.01577037014067173 0.053600311279296875
v 0.032819390296936035 0.01725797913968563 0.0536004900932312
v 0.03223228082060814 0.01765899918973446 0.0536004900932312
v 0.030761949717998505 0.01666831038892269 0.05360053852200508
v 0.0324859581887722 0.01577037014067173 0.053600311279296875
v 0.03223228082060814 0.01765899918973446 0.0536004900932312
v 0.03223228082060814 0.019528089091181755 0.0536004900932312
v 0.0327678881585598 0.019971130415797234 0.0536004900932312
v 0.0313529297709465 0.020991800352931023 0.053600601851940155
v 0.03159128874540329 0.019220110028982162 0.0536004900932312
v 0.03223228082060814 0.019528089091181755 0.0536004900932312
v 0.0313529297709465 0.020991800352931023 0.053600601851940155
v 0.030761949717998505 0.01666831038892269 0.05360053852200508
v 0.03223228082060814 0.01765899918973446 0.0536004900932312
v 0.031472738832235336 0.01784360036253929 0.0536004900932312
v 0.03031538985669613 0.01989305019378662 0.05360012874007225
v 0.03159128874540329 0.019220110028982162 0.0536004900932312
v 0.0313529297709465 0.020991800352931023 0.053600601851940155
v 0.0327678881585598 0.019971130415797234 0.0536004900932312
v 0.034070730209350586 0.019343610852956772 0.0536004900932312
v 0.034844450652599335 0.020443139597773552 0.053600311279296875
v 0.0327678881585598 0.019971130415797234 0.0536004900932312
v 0.034844450652599335 0.020443139597773552 0.053600311279296875
v 0.033338841050863266 0.021357709541916847 0.05360066145658493
v 0.030761949717998505 0.01666831038892269 0.05360053852200508
v 0.031472738832235336 0.01784360036253929 0.0536004900932312
v 0.029981430619955063 0.018360670655965805 0.05360089987516403
v 0.0346565805375576 0.016512030735611916 0.053600311279296875
v 0.03560096025466919 0.018557719886302948 0.05360120162367821
v 0.034070730209350586 0.01784360036253929 0.0536004900932312
v 0.03223228082060814 0.01765899918973446 0.0536004900932312
v 0.032771699130535126 0.017093470320105553 0.05277049168944359
v 0.031638920307159424 0.01788461022078991 0.05277049168944359
v 0.03223228082060814 0.01765899918973446 0.0536004900932312
v 0.032819390296936035 0.01725797913968563 0.0536004900932312
v 0.032771699130535126 0.017093470320105553 0.05277049168944359
v 0.031472738832235336 0.01784360036253929 0.0536004900932312
v 0.03223228082060814 0.01765899918973446 0.0536004900932312
v 0.031638920307159424 0.01788461022078991 0.05277049168944359
v 0.031472738832235336 0.01784360036253929 0.0536004900932312
v 0.031638920307159424 0.01788461022078991 0.05277049168944359
v 0.0316927395761013 0.01859349012374878 0.05277049168944359
v 0.03159128874540329 0.019220110028982162 0.0536004900932312
v 0.031472738832235336 0.01784360036253929 0.0536004900932312
v 0.0316927395761013 0.01859349012374878 0.05277049168944359
v 0.03159128874540329 0.019220110028982162 0.0536004900932312
v 0.0316927395761013 0.01859349012374878 0.05277049168944359
v 0.031472738832235336 0.019343610852956772 0.05277049168944359
v 0.03223228082060814 0.019528089091181755 0.0536004900932312
v 0.031472738832235336 0.019343610852956772 0.05277049168944359
v 0.032775700092315674 0.019971130415797234 0.05277049168944359
v 0.03223228082060814 0.019528089091181755 0.0536004900932312
v 0.03159128874540329 0.019220110028982162 0.0536004900932312
v 0.031472738832235336 0.019343610852956772 0.05277049168944359
v 0.0327678881585598 0.019971130415797234 0.0536004900932312
v 0.03223228082060814 0.019528089091181755 0.0536004900932312
v 0.032775700092315674 0.019971130415797234 0.05277049168944359
v 0.0327678881585598 0.019971130415797234 0.0536004900932312
v 0.032775700092315674 0.019971130415797234 0.05277049168944359
v 0.033311180770397186 0.019528089091181755 0.05277049168944359
v 0.034070730209350586 0.019343610852956772 0.0536004900932312
v 0.033311180770397186 0.019528089091181755 0.05277049168944359
v 0.03395210951566696 0.019220110028982162 0.05277049168944359
v 0.034070730209350586 0.019343610852956772 0.0536004900932312
v 0.0327678881585598 0.019971130415797234 0.0536004900932312
v 0.033311180770397186 0.019528089091181755 0.05277049168944359
v 0.033850718289613724 0.01859349012374878 0.0536004900932312
v 0.034070730209350586 0.019343610852956772 0.0536004900932312
v 0.03395210951566696 0.019220110028982162 0.05277049168944359
v 0.033850718289613724 0.01859349012374878 0.0536004900932312
v 0.03395210951566696 0.019220110028982162 0.05277049168944359
v 0.034070730209350586 0.01784360036253929 0.05277049168944359
v 0.034070730209350586 0.01784360036253929 0.0536004900932312
v 0.033850718289613724 0.01859349012374878 0.0536004900932312
v 0.034070730209350586 0.01784360036253929 0.05277049168944359
v 0.034070730209350586 0.01784360036253929 0.0536004900932312
v 0.034070730209350586 0.01784360036253929 0.05277049168944359
v 0.033311180770397186 0.01765899918973446 0.05277049168944359
v 0.032819390296936035 0.01725797913968563 0.0536004900932312
v 0.034070730209350586 0.01784360036253929 0.0536004900932312
v 0.033311180770397186 0.01765899918973446 0.05277049168944359
v 0.032819390296936035 0.01725797913968563 0.0536004900932312
v 0.033311180770397186 0.01765899918973446 0.05277049168944359
v 0.032771699130535126 0.017093470320105553 0.05277049168944359
v 0.033311180770397186 0.01765899918973446 0.05277049168944359
v 0.031638920307159424 0.01788461022078991 0.05277049168944359
v 0.032771699130535126 0.017093470320105553 0.05277049168944359
v 0.033311180770397186 0.01765899918973446 0.05277049168944359
v 0.0316927395761013 0.01859349012374878 0.05277049168944359
v 0.031638920307159424 0.01788461022078991 0.05277049168944359
v 0.032775700092315674 0.019971130415797234 0.05277049168944359
v 0.031472738832235336 0.019343610852956772 0.05277049168944359
v 0.0316927395761013 0.01859349012374878 0.05277049168944359
v 0.03395210951566696 0.019220110028982162 0.05277049168944359
v 0.033311180770397186 0.01765899918973446 0.05277049168944359
v 0.034070730209350586 0.01784360036253929 0.05277049168944359
v 0.033311180770397186 0.019528089091181755 0.05277049168944359
v 0.032775700092315674 0.019971130415797234 0.05277049168944359
v 0.0316927395761013 0.01859349012374878 0.05277049168944359
v 0.033311180770397186 0.019528089091181755 0.05277049168944359
v 0.0316927395761013 0.01859349012374878 0.05277049168944359
v 0.033311180770397186 0.01765899918973446 0.05277049168944359
v 0.033311180770397186 0.019528089091181755 0.05277049168944359
v 0.033311180770397186 0.01765899918973446 0.05277049168944359
v 0.03395210951566696 0.019220110028982162 0.05277049168944359
vn 0.30698427374694987 0.9517121258191226 0.002164541730774786
vn 0.30698427374694987 0.9517121258191226 0.002164541730774786
vn 0.30698427374694987 0.9517121258191226 0.002164541730774786
vn 0.39626269305631745 0.9180939509310788 -0.008909284792647458
vn 0.39626269305631745 0.9180939509310788 -0.008909284792647458
vn 0.39626269305631745 0.9180939509310788 -0.008909284792647458
vn 0.7451580130144995 0.6668766704165023 0.0038784139133109905
vn 0.7451580130144995 0.6668766704165023 0.0038784139133109905
vn 0.7451580130144995 0.6668766704165023 0.0038784139133109905
vn -0.9143885778199827 0.4044701372131677 0.017246357734625555
vn -0.9143885778199827 0.4044701372131677 0.017246357734625555
vn -0.9143885778199827 0.4044701372131677 0.017246357734625555
vn 0.9309860924989732 0.364868039406857 -0.011670877982809438
vn 0.9309860924989732 0.364868039406857 -0.011670877982809438
vn 0.9309860924989732 0.364868039406857 -0.011670877982809438
vn 0.9658007619539637 0.25928488367781694 0.00048713994317638724
vn 0.9658007619539637 0.25928488367781694 0.00048713994317638724
vn 0.9658007619539637 0.25928488367781694 0.00048713994317638724
vn -0.5018637272194542 0.8647882500638081 -0.01655541763211993
vn -0.5018637272194542 0.8647882500638081 -0.01655541763211993
vn -0.5018637272194542 0.8647882500638081 -0.01655541763211993
vn -0.3776923965804885 0.9259272695420545 0.0026730289341008852
vn -0.3776923965804885 0.9259272695420545 0.0026730289341008852
vn -0.3776923965804885 0.9259272695420545 0.0026730289341008852
vn -0.287356100250897 0.6217061700356449 -0.7286342771158973
vn -0.287356100250897 0.6217061700356449 -0.7286342771158973
vn -0.287356100250897 0.6217061700356449 -0.7286342771158973
vn -0.07528703566205407 0.7337039617905738 -0.6752853905676004
vn -0.07528703566205407 0.7337039617905738 -0.6752853905676004
vn -0.07528703566205407 0.7337039617905738 -0.6752853905676004
vn -0.34897470273991366 0.613027986346617 -0.7088112194395633
vn -0.34897470273991366 0.613027986346617 -0.7088112194395633
vn -0.34897470273991366 0.613027986346617 -0.7088112194395633
vn -0.6246930863131993 0.2923069850465631 -0.724096108541869
vn -0.6246930863131993 0.2923069850465631 -0.724096108541869
vn -0.6246930863131993 0.2923069850465631 -0.724096108541869
vn -0.6773343815384492 -0.18737969170650862 -0.7114119669515692
vn -0.6773343815384492 -0.18737969170650862 -0.7114119669515692
vn -0.6773343815384492 -0.18737969170650862 -0.7114119669515692
vn -0.6388056731144665 -0.21089699391852554 -0.7398984862485548
vn -0.6388056731144665 -0.21089699391852554 -0.7398984862485548
vn -0.6388056731144665 -0.21089699391852554 -0.7398984862485548
vn -0.5547453251496206 -0.5243232331915056 -0.646020720534758
vn -0.5547453251496206 -0.5243232331915056 -0.646020720534758
vn -0.5547453251496206 -0.5243232331915056 -0.646020720534758
vn -0.49189069087509685 -0.4727477952415371 -0.7311313632478679
vn -0.49189069087509685 -0.4727477952415371 -0.7311313632478679
vn -0.49189069087509685 -0.4727477952415371 -0.7311313632478679
vn -0.009599207545749276 -0.740329297842067 -0.6721758594082098
vn -0.009599207545749276 -0.740329297842067 -0.6721758594082098
vn -0.009599207545749276 -0.740329297842067 -0.6721758594082098
vn -0.27127298035351477 -0.6454092103014284 -0.7140433610000222
vn -0.27127298035351477 -0.6454092103014284 -0.7140433610000222
vn -0.27127298035351477 -0.6454092103014284 -0.7140433610000222
vn -0.610751200426122 0.40585627406495295 -0.6798997396529615
vn -0.610751200426122 0.40585627406495295 -0.6798997396529615
vn -0.610751200426122 0.40585627406495295 -0.6798997396529615
vn -0.7451172454909804 -0.01894520777831389 -0.6666643605099726
vn -0.7451172454909804 -0.01894520777831389 -0.6666643605099726
vn -0.7451172454909804 -0.01894520777831389 -0.6666643605099726
vn -0.5974655179443036 -0.430281670923405 -0.6766776474325922
vn -0.5974655179443036 -0.430281670923405 -0.6766776474325922
vn -0.5974655179443036 -0.430281670923405 -0.6766776474325922
vn -0.3252816006017713 -0.5690683904063416 -0.7552172186532067
vn -0.3252816006017713 -0.5690683904063416 -0.7552172186532067
vn -0.3252816006017713 -0.5690683904063416 -0.7552172186532067
vn -0.37902575128737304 -0.642765452180437 -0.6657267107036647
vn -0.37902575128737304 -0.642765452180437 -0.6657267107036647
vn -0.37902575128737304 -0.642765452180437 -0.6657267107036647
vn 0.9510224219030403 0.2994086666047392 -0.07688174945751301
vn 0.9510224219030403 0.2994086666047392 -0.07688174945751301
vn 0.9510224219030403 0.2994086666047392 -0.07688174945751301
vn -0.17398508370773197 0.9441876074624581 0.27971226744912764
vn -0.17398508370773197 0.9441876074624581 0.27971226744912764
vn -0.17398508370773197 0.9441876074624581 0.27971226744912764
vn -0.09966772274956472 0.9949919806323353 -0.007569908801214686
vn -0.09966772274956472 0.9949919806323353 -0.007569908801214686
vn -0.09966772274956472 0.9949919806323353 -0.007569908801214686
vn -0.9315803805771425 0.20322919238184864 0.3014231077531514
vn -0.9315803805771425 0.20322919238184864 0.3014231077531514
vn -0.9315803805771425 0.20322919238184864 0.3014231077531514
vn 0.3059923699557054 0.9352306282576724 -0.17807959315331426
vn 0.3059923699557054 0.9352306282576724 -0.17807959315331426
vn 0.3059923699557054 0.9352306282576724 -0.17807959315331426
vn 0.5035937509848976 0.8289498820738561 0.24338329231625822
vn 0.5035937509848976 0.8289498820738561 0.24338329231625822
vn 0.5035937509848976 0.8289498820738561 0.24338329231625822
vn -0.7166531876183053 0.6766459529146673 0.1689924941549887
vn -0.7166531876183053 0.6766459529146673 0.1689924941549887
vn -0.7166531876183053 0.6766459529146673 0.1689924941549887
vn -0.8014731428149788 0.5465909256940911 -0.24265028599850708
vn -0.8014731428149788 0.5465909256940911 -0.24265028599850708
vn -0.8014731428149788 0.5465909256940911 -0.24265028599850708
vn 0.6389116621209877 0.7561241956379289 -0.14166188187614853
vn 0.6389116621209877 0.7561241956379289 -0.14166188187614853
vn 0.6389116621209877 0.7561241956379289 -0.14166188187614853
vn -0.48532886752236015 0.8601616280044708 -0.15677328872662444
vn -0.48532886752236015 0.8601616280044708 -0.15677328872662444
vn -0.48532886752236015 0.8601616280044708 -0.15677328872662444
vn 0.900026022912149 0.3612562714097607 0.24381768690572322
vn 0.900026022912149 0.3612562714097607 0.24381768690572322
vn 0.900026022912149 0.3612562714097607 0.24381768690572322
vn -0.49757401019083314 -0.8673474343230475 0.011337219934336099
vn -0.49757401019083314 -0.8673474343230475 0.011337219934336099
vn -0.49757401019083314 -0.8673474343230475 0.011337219934336099
vn -0.7475325944962652 -0.6641430751483305 -0.010440110066549452
vn -0.7475325944962652 -0.6641430751483305 -0.010440110066549452
vn -0.7475325944962652 -0.6641430751483305 -0.010440110066549452
vn 0.9483504533399334 -0.3171479483581526 0.006971119146691001
vn 0.9483504533399334 -0.3171479483581526 0.006971119146691001
vn 0.9483504533399334 -0.3171479483581526 0.006971119146691001
vn -0.9616742267440749 -0.2740015127505138 0.010288470567372452
vn -0.9616742267440749 -0.2740015127505138 0.010288470567372452
vn -0.9616742267440749 -0.2740015127505138 0.010288470567372452
vn 0.8872474037396402 -0.46120674465224054 -0.00896567033471422
vn 0.8872474037396402 -0.46120674465224054 -0.00896567033471422
vn 0.8872474037396402 -0.46120674465224054 -0.00896567033471422
vn -0.9998084539468964 0.013413128755315432 -0.014252838079136711
vn -0.9998084539468964 0.013413128755315432 -0.014252838079136711
vn -0.9998084539468964 0.013413128755315432 -0.014252838079136711
vn 0.6199485550379594 -0.7846200327925226 0.005932389654013143
vn 0.6199485550379594 -0.7846200327925226 0.005932389654013143
vn 0.6199485550379594 -0.7846200327925226 0.005932389654013143
vn 0.4263203108967385 -0.9045342728515927 -0.008291064693304796
vn 0.4263203108967385 -0.9045342728515927 -0.008291064693304796
vn 0.4263203108967385 -0.9045342728515927 -0.008291064693304796
vn 0.13589649989403024 -0.9906892482606864 0.008182584996678618
vn 0.13589649989403024 -0.9906892482606864 0.008182584996678618
vn 0.13589649989403024 -0.9906892482606864 0.008182584996678618
vn -0.24225207929554887 -0.970172753511294 -0.008874594148314723
vn -0.24225207929554887 -0.970172753511294 -0.008874594148314723
vn -0.24225207929554887 -0.970172753511294 -0.008874594148314723
vn 0.00006881720020900653 -0.0000010306399620422676 -0.9999999976315654
vn 0.00006881720020900653 -0.0000010306399620422676 -0.9999999976315654
vn 0.00006881720020900653 -0.0000010306399620422676 -0.9999999976315654
vn -0.000056923399682598734 -0.00004193849953002503 -0.9999999975004445
vn -0.000056923399682598734 -0.00004193849953002503 -0.9999999975004445
vn -0.000056923399682598734 -0.00004193849953002503 -0.9999999975004445
vn 0.0004817639874693663 -0.00042206699781024406 -0.9999997948814339
vn 0.0004817639874693663 -0.00042206699781024406 -0.9999997948814339
vn 0.0004817639874693663 -0.00042206699781024406 -0.9999997948814339
vn 0.00001757760036992723 0.000013946500072179112 -0.9999999997482616
vn 0.00001757760036992723 0.000013946500072179112 -0.9999999997482616
vn 0.00001757760036992723 0.000013946500072179112 -0.9999999997482616
vn 0.000012348399647228357 -0.000018850299961502483 -0.9999999997460918
vn 0.000012348399647228357 -0.000018850299961502483 -0.9999999997460918
vn 0.000012348399647228357 -0.000018850299961502483 -0.9999999997460918
vn -0.000030142600684846516 -0.000049465299442776105 -0.999999998322304
vn -0.000030142600684846516 -0.000049465299442776105 -0.999999998322304
vn -0.000030142600684846516 -0.000049465299442776105 -0.999999998322304
vn 0.11612679635323792 -0.6826028125522704 -0.7215039621959562
vn 0.11612679635323792 -0.6826028125522704 -0.7215039621959562
vn 0.11612679635323792 -0.6826028125522704 -0.7215039621959562
vn 0.4222910028592242 -0.5519164103190826 -0.7190678583587566
vn 0.4222910028592242 -0.5519164103190826 -0.7190678583587566
vn 0.4222910028592242 -0.5519164103190826 -0.7190678583587566
vn 0.3582393937331577 -0.6183622673242462 -0.6994945626145472
vn 0.3582393937331577 -0.6183622673242462 -0.6994945626145472
vn 0.3582393937331577 -0.6183622673242462 -0.6994945626145472
vn 0.5431705631311861 -0.4753766882214497 -0.6920857921120452
vn 0.5431705631311861 -0.4753766882214497 -0.6920857921120452
vn 0.5431705631311861 -0.4753766882214497 -0.6920857921120452
vn 0.6896112038581054 -0.18883380494839172 -0.6991267278699103
vn 0.6896112038581054 -0.18883380494839172 -0.6991267278699103
vn 0.6896112038581054 -0.18883380494839172 -0.6991267278699103
vn 0.6886598393544932 0.19075567814586225 -0.6995426340941315
vn 0.6886598393544932 0.19075567814586225 -0.6995426340941315
vn 0.6886598393544932 0.19075567814586225 -0.6995426340941315
vn 0.6927014977301358 0.21685019974275793 -0.68785218318615
vn 0.6927014977301358 0.21685019974275793 -0.68785218318615
vn 0.6927014977301358 0.21685019974275793 -0.68785218318615
vn 0.5100855277974492 0.4757700606025529 -0.7165581649565097
vn 0.5100855277974492 0.4757700606025529 -0.7165581649565097
vn 0.5100855277974492 0.4757700606025529 -0.7165581649565097
vn 0.46690449010167917 0.5523346053646031 -0.690598784273198
vn 0.46690449010167917 0.5523346053646031 -0.690598784273198
vn 0.46690449010167917 0.5523346053646031 -0.690598784273198
vn 0.22099229274809803 0.6555209631728927 -0.7221181851932702
vn 0.22099229274809803 0.6555209631728927 -0.7221181851932702
vn 0.22099229274809803 0.6555209631728927 -0.7221181851932702
vn 0.2595782075443125 0.6570382950931719 -0.7077569024383584
vn 0.2595782075443125 0.6570382950931719 -0.7077569024383584
vn 0.2595782075443125 0.6570382950931719 -0.7077569024383584
vn 0.6667434959045938 -0.2167055985565915 -0.7130861057566263
vn 0.6667434959045938 -0.2167055985565915 -0.7130861057566263
vn 0.6667434959045938 -0.2167055985565915 -0.7130861057566263
vn -0.9393150437279815 -0.030491408697198314 -0.34169799914831334
vn -0.9393150437279815 -0.030491408697198314 -0.34169799914831334
vn -0.9393150437279815 -0.030491408697198314 -0.34169799914831334
vn -0.015469719015268764 -0.9233840281483442 -0.38356567150114784
vn -0.015469719015268764 -0.9233840281483442 -0.38356567150114784
vn -0.015469719015268764 -0.9233840281483442 -0.38356567150114784
vn 0.9560179293564977 -0.26924580840368123 -0.11634609321315087
vn 0.9560179293564977 -0.26924580840368123 -0.11634609321315087
vn 0.9560179293564977 -0.26924580840368123 -0.11634609321315087
vn 0.8382649188144464 -0.3871581446547431 0.3839537692385722
vn 0.8382649188144464 -0.3871581446547431 0.3839537692385722
vn 0.8382649188144464 -0.3871581446547431 0.3839537692385722
vn -0.4491353539484978 -0.8623124781343781 0.23386881768911652
vn -0.4491353539484978 -0.8623124781343781 0.23386881768911652
vn -0.4491353539484978 -0.8623124781343781 0.23386881768911652
vn -0.5049053863040514 -0.8605081756304632 0.06779550541362109
vn -0.5049053863040514 -0.8605081756304632 0.06779550541362109
vn -0.5049053863040514 -0.8605081756304632 0.06779550541362109
vn 0.7436590014381181 -0.641656562028366 -0.18774489603181968
vn 0.7436590014381181 -0.641656562028366 -0.18774489603181968
vn 0.7436590014381181 -0.641656562028366 -0.18774489603181968
vn -0.8029193170995208 -0.5797329464780141 -0.13867328869093454
vn -0.8029193170995208 -0.5797329464780141 -0.13867328869093454
vn -0.8029193170995208 -0.5797329464780141 -0.13867328869093454
vn 0.5076647327774904 -0.8586433406247416 -0.07076816158940027
vn 0.5076647327774904 -0.8586433406247416 -0.07076816158940027
vn 0.5076647327774904 -0.8586433406247416 -0.07076816158940027
vn -0.8420419941496508 -0.388474088450956 0.3742367735681228
vn -0.8420419941496508 -0.388474088450956 0.3742367735681228
vn -0.8420419941496508 -0.388474088450956 0.3742367735681228
vn 0.28111436383913196 -0.8227293321860043 0.4940558272139815
vn 0.28111436383913196 -0.8227293321860043 0.4940558272139815
vn 0.28111436383913196 -0.8227293321860043 0.4940558272139815
vn 0.00004148109981031692 -0.00013016599283621213 0.9999999906680662
vn 0.00004148109981031692 -0.00013016599283621213 0.9999999906680662
vn 0.00004148109981031692 -0.00013016599283621213 0.9999999906680662
vn 0.0003063009973252509 -0.000026333599050775223 0.9999999527431193
vn 0.0003063009973252509 -0.000026333599050775223 0.9999999527431193
vn 0.0003063009973252509 -0.000026333599050775223 0.9999999527431193
vn 0.00005793699847170744 -0.00011136200103942745 0.9999999921209045
vn 0.00005793699847170744 -0.00011136200103942745 0.9999999921209045
vn 0.00005793699847170744 -0.00011136200103942745 0.9999999921209045
vn -0.00040884497573871645 -0.00011997399610752863 0.9999999092260089
vn -0.00040884497573871645 -0.00011997399610752863 0.9999999092260089
vn -0.00040884497573871645 -0.00011997399610752863 0.9999999092260089
vn -0.0004076899904569844 0.00011852299557141475 0.9999999098705815
vn -0.0004076899904569844 0.00011852299557141475 0.9999999098705815
vn -0.0004076899904569844 0.00011852299557141475 0.9999999098705815
vn -0.00027953298261841896 0.0003598089734586183 0.9999998961994018
vn -0.00027953298261841896 0.0003598089734586183 0.9999998961994018
vn -0.00027953298261841896 0.0003598089734586183 0.9999998961994018
vn -0.000001429669944728662 -0.00016687599185847353 0.9999999860751796
vn -0.000001429669944728662 -0.00016687599185847353 0.9999999860751796
vn -0.000001429669944728662 -0.00016687599185847353 0.9999999860751796
vn -0.0000033376999447049563 0.00054159497053527 0.999999853331863
vn -0.0000033376999447049563 0.00054159497053527 0.999999853331863
vn -0.0000033376999447049563 0.00054159497053527 0.999999853331863
vn -0.00006501939738926556 -0.00010424000277911875 0.99999999245325
vn -0.00006501939738926556 -0.00010424000277911875 0.99999999245325
vn -0.00006501939738926556 -0.00010424000277911875 0.99999999245325
vn 0.00012974699927442907 -0.00007745699897684805 0.9999999885830647
vn 0.00012974699927442907 -0.00007745699897684805 0.9999999885830647
vn 0.00012974699927442907 -0.00007745699897684805 0.9999999885830647
vn 0.00005580010085108254 -0.00007821080326094865 0.9999999953847094
vn 0.00005580010085108254 -0.00007821080326094865 0.9999999953847094
vn 0.00005580010085108254 -0.00007821080326094865 0.9999999953847094
vn 0.000048147401430629465 -0.000090848603096678 0.9999999947141796
vn 0.000048147401430629465 -0.000090848603096678 0.9999999947141796
vn 0.000048147401430629465 -0.000090848603096678 0.9999999947141796
vn 0.000024874099742676727 0.0000829123961543235 0.999999996253407
vn 0.000024874099742676727 0.0000829123961543235 0.999999996253407
vn 0.000024874099742676727 0.0000829123961543235 0.999999996253407
vn -0.00036031595093376684 -0.00014512298864481697 0.9999999245558641
vn -0.00036031595093376684 -0.00014512298864481697 0.9999999245558641
vn -0.00036031595093376684 -0.00014512298864481697 0.9999999245558641
vn 0.000056899697881124084 0.00012146199769512193 0.9999999910047038
vn 0.000056899697881124084 0.00012146199769512193 0.9999999910047038
vn 0.000056899697881124084 0.00012146199769512193 0.9999999910047038
vn 0.0001393910095785998 -0.0002228919967264027 0.9999999654446515
vn 0.0001393910095785998 -0.0002228919967264027 0.9999999654446515
vn 0.0001393910095785998 -0.0002228919967264027 0.9999999654446515
vn 0.0002831270149844037 -0.0000787406037688385 0.9999999568195045
vn 0.0002831270149844037 -0.0000787406037688385 0.9999999568195045
vn 0.0002831270149844037 -0.0000787406037688385 0.9999999568195045
vn -0.00034069398690245276 -0.0002811269720898056 0.9999999024476117
vn -0.00034069398690245276 -0.0002811269720898056 0.9999999024476117
vn -0.00034069398690245276 -0.0002811269720898056 0.9999999024476117
vn 0.5628346077072809 0.8059789355538785 -0.18334437490806324
vn 0.5628346077072809 0.8059789355538785 -0.18334437490806324
vn 0.5628346077072809 0.8059789355538785 -0.18334437490806324
vn 0.5534860938488118 0.8103365679532205 -0.19237409013112966
vn 0.5534860938488118 0.8103365679532205 -0.19237409013112966
vn 0.5534860938488118 0.8103365679532205 -0.19237409013112966
vn 0.23502680906789075 0.9673491818251579 0.09485757450811386
vn 0.23502680906789075 0.9673491818251579 0.09485757450811386
vn 0.23502680906789075 0.9673491818251579 0.09485757450811386
vn 0.978530749915061 -0.07428125925799506 0.19224948892965935
vn 0.978530749915061 -0.07428125925799506 0.19224948892965935
vn 0.978530749915061 -0.07428125925799506 0.19224948892965935
vn 0.9794182791860092 -0.08438861382541647 0.18335320082546006
vn 0.9794182791860092 -0.08438861382541647 0.18335320082546006
vn 0.9794182791860092 -0.08438861382541647 0.18335320082546006
vn 0.9552540274567975 0.2801769104615091 -0.09481899531112553
vn 0.9552540274567975 0.2801769104615091 -0.09481899531112553
vn 0.9552540274567975 0.2801769104615091 -0.09481899531112553
vn 0.42574178829052217 -0.8839952874393643 -0.19312240027553532
vn 0.42574178829052217 -0.8839952874393643 -0.19312240027553532
vn 0.42574178829052217 -0.8839952874393643 -0.19312240027553532
vn 0.4250207617661386 -0.8845107709990752 -0.19234876670868634
vn 0.4250207617661386 -0.8845107709990752 -0.19234876670868634
vn 0.4250207617661386 -0.8845107709990752 -0.19234876670868634
vn 0.6373676455111202 -0.7705365174499155 0.005996643375012362
vn 0.6373676455111202 -0.7705365174499155 0.005996643375012362
vn 0.6373676455111202 -0.7705365174499155 0.005996643375012362
vn -0.6374203554869142 -0.7704929103878242 -0.005997120395351399
vn -0.6374203554869142 -0.7704929103878242 -0.005997120395351399
vn -0.6374203554869142 -0.7704929103878242 -0.005997120395351399
vn -0.4250242879535397 -0.8845091790552171 0.19234829559071331
vn -0.4250242879535397 -0.8845091790552171 0.19234829559071331
vn -0.4250242879535397 -0.8845091790552171 0.19234829559071331
vn -0.42575320691017443 -0.8839867729661226 0.19313620071504786
vn -0.42575320691017443 -0.8839867729661226 0.19313620071504786
vn -0.42575320691017443 -0.8839867729661226 0.19313620071504786
vn -0.9552521898371581 0.28018311231418275 0.09481918258059584
vn -0.9552521898371581 0.28018311231418275 0.09481918258059584
vn -0.9552521898371581 0.28018311231418275 0.09481918258059584
vn -0.9794184735579637 -0.08439486620315531 -0.18334928473255574
vn -0.9794184735579637 -0.08439486620315531 -0.18334928473255574
vn -0.9794184735579637 -0.08439486620315531 -0.18334928473255574
vn -0.9595655703480326 -0.2814851971288275 0
vn -0.9595655703480326 -0.2814851971288275 0
vn -0.9595655703480326 -0.2814851971288275 0
vn -0.23609660834781965 0.9717295876562865 0
vn -0.23609660834781965 0.9717295876562865 0
vn -0.23609660834781965 0.9717295876562865 0
vn -0.41664137998468964 0.8903987314112313 0.1833031903315477
vn -0.41664137998468964 0.8903987314112313 0.1833031903315477
vn -0.41664137998468964 0.8903987314112313 0.1833031903315477
vn -0.7203119411016947 0.6871339095933348 -0.09485619533424013
vn -0.7203119411016947 0.6871339095933348 -0.09485619533424013
vn -0.7203119411016947 0.6871339095933348 -0.09485619533424013
vn 0 0 1
vn 0 0 1
vn 0 0 1
vn 0 0 1
vn 0 0 1
vn 0 0 1
vn 0 0 1
vn 0 0 1
vn 0 0 1
vn 0 0 1
vn 0 0 1
vn 0 0 1
vn 0 0 1
vn 0 0 1
vn 0 0 1
vn 0 0 1
vn 0 0 1
vn 0 0 1
vn 0 0 1
vn 0 0 1
vn 0 0 1
f 1//1 2//2 3//3
f 4//4 5//5 6//6
f 7//7 8//8 9//9
f 10//10 11//11 12//12
f 13//13 14//14 15//15
f 16//16 17//17 18//18
f 19//19 20//20 21//21
f 22//22 23//23 24//24
f 25//25 26//26 27//27
f 28//28 29//29 30//30
f 31//31 32//32 33//33
f 34//34 35//35 36//36
f 37//37 38//38 39//39
f 40//40 41//41 42//42
f 43//43 44//44 45//45
f 46//46 47//47 48//48
f 49//49 50//50 51//51
f 52//52 53//53 54//54
f 55//55 56//56 57//57
f 58//58 59//59 60//60
f 61//61 62//62 63//63
f 64//64 65//65 66//66
f 67//67 68//68 69//69
f 70//70 71//71 72//72
f 73//73 74//74 75//75
f 76//76 77//77 78//78
f 79//79 80//80 81//81
f 82//82 83//83 84//84
f 85//85 86//86 87//87
f 88//88 89//89 90//90
f 91//91 92//92 93//93
f 94//94 95//95 96//96
f 97//97 98//98 99//99
f 100//100 101//101 102//102
f 103//103 104//104 105//105
f 106//106 107//107 108//108
f 109//109 110//110 111//111
f 112//112 113//113 114//114
f 115//115 116//116 117//117
f 118//118 119//119 120//120
f 121//121 122//122 123//123
f 124//124 125//125 126//126
f 127//127 128//128 129//129
f 130//130 131//131 132//132
f 133//133 134//134 135//135
f 136//136 137//137 138//138
f 139//139 140//140 141//141
f 142//142 143//143 144//144
f 145//145 146//146 147//147
f 148//148 149//149 150//150
f 151//151 152//152 153//153
f 154//154 155//155 156//156
f 157//157 158//158 159//159
f 160//160 161//161 162//162
f 163//163 164//164 165//165
f 166//166 167//167 168//168
f 169//169 170//170 171//171
f 172//172 173//173 174//174
f 175//175 176//176 177//177
f 178//178 179//179 180//180
f 181//181 182//182 183//183
f 184//184 185//185 186//186
f 187//187 188//188 189//189
f 190//190 191//191 192//192
f 193//193 194//194 195//195
f 196//196 197//197 198//198
f 199//199 200//200 201//201
f 202//202 203//203 204//204
f 205//205 206//206 207//207
f 208//208 209//209 210//210
f 211//211 212//212 213//213
f 214//214 215//215 216//216
f 217//217 218//218 219//219
f 220//220 221//221 222//222
f 223//223 224//224 225//225
f 226//226 227//227 228//228
f 229//229 230//230 231//231
f 232//232 233//233 234//234
f 235//235 236//236 237//237
f 238//238 239//239 240//240
f 241//241 242//242 243//243
f 244//244 245//245 246//246
f 247//247 248//248 249//249
f 250//250 251//251 252//252
f 253//253 254//254 255//255
f 256//256 257//257 258//258
f 259//259 260//260 261//261
f 262//262 263//263 264//264
f 265//265 266//266 267//267
f 268//268 269//269 270//270
f 271//271 272//272 273//273
f 274//274 275//275 276//276
f 277//277 278//278 279//279
f 280//280 281//281 282//282
f 283//283 284//284 285//285
f 286//286 287//287 288//288
f 289//289 290//290 291//291
f 292//292 293//293 294//294
f 295//295 296//296 297//297
f 298//298 299//299 300//300
f 301//301 302//302 303//303
f 304//304 305//305 306//306
f 307//307 308//308 309//309
f 310//310 311//311 312//312
f 313//313 314//314 315//315
f 316//316 317//317 318//318
f 319//319 320//320 321//321
f 322//322 323//323 324//324
f 325//325 326//326 327//327
f 328//328 329//329 330//330
f 331//331 332//332 333//333
f 334//334 335//335 336//336
f 337//337 338//338 339//339
f 340//340 341//341 342//342
f 343//343 344//344 345//345
f 346//346 347//347 348//348
