o node7
usemtl verbindung
v -0.008333384059369564 0.03520971164107323 0.19814999401569366
v -0.007236659061163664 0.035097651183605194 0.18965010344982147
v 0.011331669986248016 0.03424720838665962 0.18965010344982147
v 0.010243169963359833 0.03426516056060791 0.1981499046087265
v -0.008333384059369564 0.03520971164107323 0.19814999401569366
v 0.011331669986248016 0.03424720838665962 0.18965010344982147
v 0.0218727495521307 0.028230419382452965 0.1981499046087265
v 0.010243169963359833 0.03426516056060791 0.1981499046087265
v 0.011331669986248016 0.03424720838665962 0.18965010344982147
v 0.0218727495521307 0.028230419382452965 0.1981499046087265
v 0.011331669986248016 0.03424720838665962 0.18965010344982147
v 0.026973780244588852 0.023607850074768066 0.18965019285678864
v 0.031926628202199936 0.016461489722132683 0.19815020263195038
v 0.0218727495521307 0.028230419382452965 0.1981499046087265
v 0.026973780244588852 0.023607850074768066 0.18965019285678864
v 0.031926628202199936 0.016461489722132683 0.19815020263195038
v 0.026973780244588852 0.023607850074768066 0.18965019285678864
v 0.035217221826314926 0.007321298122406006 0.18965010344982147
v 0.03573662042617798 0.0003785029985010624 0.19814999401569366
v 0.031926628202199936 0.016461489722132683 0.19815020263195038
v 0.035217221826314926 0.007321298122406006 0.18965010344982147
v 0.03573662042617798 0.0003785029985010624 0.19814999401569366
v 0.035217221826314926 0.007321298122406006 0.18965010344982147
v 0.03402078151702881 -0.01122330967336893 0.18965010344982147
v 0.032229360193014145 -0.01575911045074463 0.1981499046087265
v 0.03573662042617798 0.0003785029985010624 0.19814999401569366
v 0.03402078151702881 -0.01122330967336893 0.18965010344982147
v 0.032229360193014145 -0.01575911045074463 0.1981499046087265
v 0.03402078151702881 -0.01122330967336893 0.18965010344982147
v 0.026433700695633888 -0.023905029520392418 0.1896498054265976
v 0.02160412073135376 -0.02841901034116745 0.19814980030059814
v 0.032229360193014145 -0.01575911045074463 0.1981499046087265
v 0.026433700695633888 -0.023905029520392418 0.1896498054265976
v 0.02160412073135376 -0.02841901034116745 0.19814980030059814
v 0.026433700695633888 -0.023905029520392418 0.1896498054265976
v 0.012971630319952965 -0.033523790538311005 0.18965019285678864
v 0.005221306812018156 -0.03559594973921776 0.19814999401569366
v 0.02160412073135376 -0.02841901034116745 0.19814980030059814
v 0.012971630319952965 -0.033523790538311005 0.18965019285678864
v 0.005221306812018156 -0.03559594973921776 0.19814999401569366
v 0.012971630319952965 -0.033523790538311005 0.18965019285678864
v -0.00656545115634799 -0.03524243086576462 0.18964989483356476
v -0.014431949704885483 -0.03479135036468506 0.18965019285678864
v 0.002847433090209961 -0.037827249616384506 0.18964989483356476
v -0.003892064094543457 -0.037482790648937225 0.19814999401569366
v -0.014431949704885483 -0.03479135036468506 0.18965019285678864
v -0.003892064094543457 -0.037482790648937225 0.19814999401569366
v -0.017298810184001923 -0.0334356389939785 0.1981499046087265
v -0.028275249525904655 -0.025218119844794273 0.18965019285678864
v -0.014431949704885483 -0.03479135036468506 0.18965019285678864
v -0.017298810184001923 -0.0334356389939785 0.1981499046087265
v -0.028275249525904655 -0.025218119844794273 0.18965019285678864
v -0.017298810184001923 -0.0334356389939785 0.1981499046087265
v -0.029837189242243767 -0.02330535091459751 0.19815020263195038
v -0.03635035827755928 -0.010074010118842125 0.18964989483356476
v -0.028275249525904655 -0.025218119844794273 0.18965019285678864
v -0.029837189242243767 -0.02330535091459751 0.19815020263195038
v -0.03635035827755928 -0.010074010118842125 0.18964989483356476
v -0.029837189242243767 -0.02330535091459751 0.19815020263195038
v -0.03802561014890671 -0.0031575560569763184 0.19814999401569366
v -0.03750795125961304 0.003542423015460372 0.18965010344982147
v -0.03635035827755928 -0.010074010118842125 0.18964989483356476
v -0.03802561014890671 -0.0031575560569763184 0.19814999401569366
v -0.03750795125961304 0.003542423015460372 0.18965010344982147
v -0.03802561014890671 -0.0031575560569763184 0.19814999401569366
v -0.03401792049407959 0.01643179915845394 0.19815020263195038
v -0.032538771629333496 0.0196458101272583 0.18965010344982147
v -0.03750795125961304 0.003542423015460372 0.18965010344982147
v -0.03401792049407959 0.01643179915845394 0.19815020263195038
v -0.032538771629333496 0.0196458101272583 0.18965010344982147
v -0.03401792049407959 0.01643179915845394 0.19815020263195038
v -0.022019140422344208 0.03108322061598301 0.19814999401569366
v -0.019791480153799057 0.032176971435546875 0.18965010344982147
v -0.032538771629333496 0.0196458101272583 0.18965010344982147
v -0.022019140422344208 0.03108322061598301 0.19814999401569366
v -0.0039013619534671307 0.037739090621471405 0.18965010344982147
v -0.022019140422344208 0.03108322061598301 0.19814999401569366
v -0.00526881217956543 0.03736947849392891 0.19814999401569366
v -0.0039013619534671307 0.037739090621471405 0.18965010344982147
v -0.019791480153799057 0.032176971435546875 0.18965010344982147
v -0.022019140422344208 0.03108322061598301 0.19814999401569366
v 0.02160412073135376 -0.02841901034116745 0.19814980030059814
v 0.020358199253678322 -0.031721170991659164 0.1981499046087265
v 0.029605859890580177 -0.0231550894677639 0.19814999401569366
v -0.03401792049407959 0.01643179915845394 0.19815020263195038
v -0.03541218861937523 0.0038756129797548056 0.19814999401569366
v -0.032082971185445786 0.01579469069838524 0.19814999401569366
v -0.03401792049407959 0.01643179915845394 0.19815020263195038
v -0.03802561014890671 -0.0031575560569763184 0.19814999401569366
v -0.03541218861937523 0.0038756129797548056 0.19814999401569366
v 0.032229360193014145 -0.01575911045074463 0.1981499046087265
v 0.02160412073135376 -0.02841901034116745 0.19814980030059814
v 0.029605859890580177 -0.0231550894677639 0.19814999401569366
v -0.022019140422344208 0.03108322061598301 0.19814999401569366
v -0.008333384059369564 0.03520971164107323 0.19814999401569366
v -0.00526881217956543 0.03736947849392891 0.19814999401569366
v 0.032229360193014145 -0.01575911045074463 0.1981499046087265
v 0.029605859890580177 -0.0231550894677639 0.19814999401569366
v 0.03612374886870384 -0.011107499711215496 0.19814999401569366
v 0.005221306812018156 -0.03559594973921776 0.19814999401569366
v 0.020358199253678322 -0.031721170991659164 0.1981499046087265
v 0.02160412073135376 -0.02841901034116745 0.19814980030059814
v 0.005221306812018156 -0.03559594973921776 0.19814999401569366
v 0.008679269813001156 -0.036551471799612045 0.1981499046087265
v 0.020358199253678322 -0.031721170991659164 0.1981499046087265
v -0.022019140422344208 0.03108322061598301 0.19814999401569366
v -0.023954860866069794 0.026483289897441864 0.19814980030059814
v -0.008333384059369564 0.03520971164107323 0.19814999401569366
v -0.022019140422344208 0.03108322061598301 0.19814999401569366
v -0.03401792049407959 0.01643179915845394 0.19815020263195038
v -0.032082971185445786 0.01579469069838524 0.19814999401569366
v -0.022019140422344208 0.03108322061598301 0.19814999401569366
v -0.032082971185445786 0.01579469069838524 0.19814999401569366
v -0.023954860866069794 0.026483289897441864 0.19814980030059814
v 0.03573662042617798 0.0003785029985010624 0.19814999401569366
v 0.032229360193014145 -0.01575911045074463 0.1981499046087265
v 0.03612374886870384 -0.011107499711215496 0.19814999401569366
v 0.03573662042617798 0.0003785029985010624 0.19814999401569366
v 0.03612374886870384 -0.011107499711215496 0.19814999401569366
v 0.03705257177352905 0.008864580653607845 0.19814999401569366
v 0.005221306812018156 -0.03559594973921776 0.19814999401569366
v -0.003892064094543457 -0.037482790648937225 0.19814999401569366
v 0.008679269813001156 -0.036551471799612045 0.1981499046087265
v -0.013531800359487534 -0.03310834988951683 0.19815020263195038
v -0.003892064094543457 -0.037482790648937225 0.19814999401569366
v 0.005221306812018156 -0.03559594973921776 0.19814999401569366
v 0.031926628202199936 0.016461489722132683 0.19815020263195038
v 0.03573662042617798 0.0003785029985010624 0.19814999401569366
v 0.03705257177352905 0.008864580653607845 0.19814999401569366
v -0.017298810184001923 -0.0334356389939785 0.1981499046087265
v -0.003892064094543457 -0.037482790648937225 0.19814999401569366
v -0.013531800359487534 -0.03310834988951683 0.19815020263195038
v 0.02745497040450573 0.026005979627370834 0.19814980030059814
v 0.031926628202199936 0.016461489722132683 0.19815020263195038
v 0.03705257177352905 0.008864580653607845 0.19814999401569366
v -0.02771490067243576 -0.022765329107642174 0.19815030694007874
v -0.017298810184001923 -0.0334356389939785 0.1981499046087265
v -0.013531800359487534 -0.03310834988951683 0.19815020263195038
v -0.029837189242243767 -0.02330535091459751 0.19815020263195038
v -0.017298810184001923 -0.0334356389939785 0.1981499046087265
v -0.02771490067243576 -0.022765329107642174 0.19815030694007874
v 0.0218727495521307 0.028230419382452965 0.1981499046087265
v 0.031926628202199936 0.016461489722132683 0.19815020263195038
v 0.02745497040450573 0.026005979627370834 0.19814980030059814
v 0.01186436042189598 0.03613317012786865 0.19814999401569366
v 0.0218727495521307 0.028230419382452965 0.1981499046087265
v 0.02745497040450573 0.026005979627370834 0.19814980030059814
v 0.010243169963359833 0.03426516056060791 0.1981499046087265
v 0.0218727495521307 0.028230419382452965 0.1981499046087265
v 0.01186436042189598 0.03613317012786865 0.19814999401569366
v -0.03475308045744896 -0.008186817169189453 0.19815020263195038
v -0.029837189242243767 -0.02330535091459751 0.19815020263195038
v -0.02771490067243576 -0.022765329107642174 0.19815030694007874
v -0.03802561014890671 -0.0031575560569763184 0.19814999401569366
v -0.029837189242243767 -0.02330535091459751 0.19815020263195038
v -0.03475308045744896 -0.008186817169189453 0.19815020263195038
v -0.008333384059369564 0.03520971164107323 0.19814999401569366
v 0.010243169963359833 0.03426516056060791 0.1981499046087265
v 0.01186436042189598 0.03613317012786865 0.19814999401569366
v -0.03541218861937523 0.0038756129797548056 0.19814999401569366
v -0.03802561014890671 -0.0031575560569763184 0.19814999401569366
v -0.03475308045744896 -0.008186817169189453 0.19815020263195038
v -0.00526881217956543 0.03736947849392891 0.19814999401569366
v -0.008333384059369564 0.03520971164107323 0.19814999401569366
v 0.01186436042189598 0.03613317012786865 0.19814999401569366
v -0.035136640071868896 0.006579101085662842 0.18965010344982147
v -0.03750795125961304 0.003542423015460372 0.18965010344982147
v -0.032538771629333496 0.0196458101272583 0.18965010344982147
v 0.02890663966536522 -0.02435952052474022 0.18964989483356476
v 0.017917750403285027 -0.033024661242961884 0.18965010344982147
v 0.012971630319952965 -0.033523790538311005 0.18965019285678864
v 0.026433700695633888 -0.023905029520392418 0.1896498054265976
v 0.02890663966536522 -0.02435952052474022 0.18964989483356476
v 0.012971630319952965 -0.033523790538311005 0.18965019285678864
v -0.03068971075117588 0.018127670511603355 0.18964989483356476
v -0.035136640071868896 0.006579101085662842 0.18965010344982147
v -0.032538771629333496 0.0196458101272583 0.18965010344982147
v -0.0039013619534671307 0.037739090621471405 0.18965010344982147
v -0.007236659061163664 0.035097651183605194 0.18965010344982147
v -0.019791480153799057 0.032176971435546875 0.18965010344982147
v 0.02890663966536522 -0.02435952052474022 0.18964989483356476
v 0.026433700695633888 -0.023905029520392418 0.1896498054265976
v 0.03402078151702881 -0.01122330967336893 0.18965010344982147
v 0.037015609443187714 -0.008046627044677734 0.18964989483356476
v 0.02890663966536522 -0.02435952052474022 0.18964989483356476
v 0.03402078151702881 -0.01122330967336893 0.18965010344982147
v -0.007236659061163664 0.035097651183605194 0.18965010344982147
v -0.021950000897049904 0.02834773063659668 0.18964989483356476
v -0.019791480153799057 0.032176971435546875 0.18965010344982147
v 0.017917750403285027 -0.033024661242961884 0.18965010344982147
v 0.002847433090209961 -0.037827249616384506 0.18964989483356476
v 0.012971630319952965 -0.033523790538311005 0.18965019285678864
v -0.021950000897049904 0.02834773063659668 0.18964989483356476
v -0.03068971075117588 0.018127670511603355 0.18964989483356476
v -0.032538771629333496 0.0196458101272583 0.18965010344982147
v -0.019791480153799057 0.032176971435546875 0.18965010344982147
v -0.021950000897049904 0.02834773063659668 0.18964989483356476
v -0.032538771629333496 0.0196458101272583 0.18965010344982147
v 0.037015609443187714 -0.008046627044677734 0.18964989483356476
v 0.03402078151702881 -0.01122330967336893 0.18965010344982147
v 0.035217221826314926 0.007321298122406006 0.18965010344982147
v 0.012971630319952965 -0.033523790538311005 0.18965019285678864
v 0.002847433090209961 -0.037827249616384506 0.18964989483356476
v -0.00656545115634799 -0.03524243086576462 0.18964989483356476
v 0.037015609443187714 -0.008046627044677734 0.18964989483356476
v 0.035217221826314926 0.007321298122406006 0.18965010344982147
v 0.03638242930173874 0.01053117960691452 0.18965010344982147
v -0.00656545115634799 -0.03524243086576462 0.18964989483356476
v 0.002847433090209961 -0.037827249616384506 0.18964989483356476
v -0.014431949704885483 -0.03479135036468506 0.18965019285678864
v -0.00656545115634799 -0.03524243086576462 0.18964989483356476
v -0.014431949704885483 -0.03479135036468506 0.18965019285678864
v -0.023331940174102783 -0.02723151072859764 0.18964989483356476
v 0.03638242930173874 0.01053117960691452 0.18965010344982147
v 0.035217221826314926 0.007321298122406006 0.18965010344982147
v 0.026973780244588852 0.023607850074768066 0.18965019285678864
v 0.03638242930173874 0.01053117960691452 0.18965010344982147
v 0.026973780244588852 0.023607850074768066 0.18965019285678864
v 0.026345130056142807 0.027412349358201027 0.18965010344982147
v -0.023331940174102783 -0.02723151072859764 0.18964989483356476
v -0.014431949704885483 -0.03479135036468506 0.18965019285678864
v -0.028275249525904655 -0.025218119844794273 0.18965019285678864
v 0.026345130056142807 0.027412349358201027 0.18965010344982147
v 0.026973780244588852 0.023607850074768066 0.18965019285678864
v 0.011331669986248016 0.03424720838665962 0.18965010344982147
v -0.023331940174102783 -0.02723151072859764 0.18964989483356476
v -0.028275249525904655 -0.025218119844794273 0.18965019285678864
v -0.034271180629730225 -0.01094788033515215 0.18965010344982147
v 0.026345130056142807 0.027412349358201027 0.18965010344982147
v 0.011331669986248016 0.03424720838665962 0.18965010344982147
v 0.01175117027014494 0.035840269178152084 0.18965010344982147
v -0.034271180629730225 -0.01094788033515215 0.18965010344982147
v -0.028275249525904655 -0.025218119844794273 0.18965019285678864
v -0.03635035827755928 -0.010074010118842125 0.18964989483356476
v 0.01175117027014494 0.035840269178152084 0.18965010344982147
v 0.011331669986248016 0.03424720838665962 0.18965010344982147
v -0.0039013619534671307 0.037739090621471405 0.18965010344982147
v -0.034271180629730225 -0.01094788033515215 0.18965010344982147
v -0.03635035827755928 -0.010074010118842125 0.18964989483356476
v -0.03750795125961304 0.003542423015460372 0.18965010344982147
v -0.0039013619534671307 0.037739090621471405 0.18965010344982147
v 0.011331669986248016 0.03424720838665962 0.18965010344982147
v -0.007236659061163664 0.035097651183605194 0.18965010344982147
v -0.034271180629730225 -0.01094788033515215 0.18965010344982147
v -0.03750795125961304 0.003542423015460372 0.18965010344982147
v -0.035136640071868896 0.006579101085662842 0.18965010344982147
v -0.0039013619534671307 0.037739090621471405 0.18965010344982147
v -0.00526881217956543 0.03736947849392891 0.19814999401569366
v 0.01186436042189598 0.03613317012786865 0.19814999401569366
v 0.01175117027014494 0.035840269178152084 0.18965010344982147
v -0.0039013619534671307 0.037739090621471405 0.18965010344982147
v 0.01186436042189598 0.03613317012786865 0.19814999401569366
v 0.026345130056142807 0.027412349358201027 0.18965010344982147
v 0.01175117027014494 0.035840269178152084 0.18965010344982147
v 0.01186436042189598 0.03613317012786865 0.19814999401569366
v 0.026345130056142807 0.027412349358201027 0.18965010344982147
v 0.01186436042189598 0.03613317012786865 0.19814999401569366
v 0.02745497040450573 0.026005979627370834 0.19814980030059814
v 0.026345130056142807 0.027412349358201027 0.18965010344982147
v 0.02745497040450573 0.026005979627370834 0.19814980030059814
v 0.03705257177352905 0.008864580653607845 0.19814999401569366
v 0.03638242930173874 0.01053117960691452 0.18965010344982147
v 0.026345130056142807 0.027412349358201027 0.18965010344982147
v 0.03705257177352905 0.008864580653607845 0.19814999401569366
v 0.037015609443187714 -0.008046627044677734 0.18964989483356476
v 0.03638242930173874 0.01053117960691452 0.18965010344982147
v 0.03705257177352905 0.008864580653607845 0.19814999401569366
v 0.037015609443187714 -0.008046627044677734 0.18964989483356476
v 0.03705257177352905 0.008864580653607845 0.19814999401569366
v 0.03612374886870384 -0.011107499711215496 0.19814999401569366
v 0.02890663966536522 -0.02435952052474022 0.18964989483356476
v 0.03612374886870384 -0.011107499711215496 0.19814999401569366
v 0.029605859890580177 -0.0231550894677639 0.19814999401569366
v 0.02890663966536522 -0.02435952052474022 0.18964989483356476
v 0.037015609443187714 -0.008046627044677734 0.18964989483356476
v 0.03612374886870384 -0.011107499711215496 0.19814999401569366
v 0.02890663966536522 -0.02435952052474022 0.18964989483356476
v 0.029605859890580177 -0.0231550894677639 0.19814999401569366
v 0.020358199253678322 -0.031721170991659164 0.1981499046087265
v 0.017917750403285027 -0.033024661242961884 0.18965010344982147
v 0.02890663966536522 -0.02435952052474022 0.18964989483356476
v 0.020358199253678322 -0.031721170991659164 0.1981499046087265
v 0.017917750403285027 -0.033024661242961884 0.18965010344982147
v 0.020358199253678322 -0.031721170991659164 0.1981499046087265
v 0.008679269813001156 -0.036551471799612045 0.1981499046087265
v 0.002847433090209961 -0.037827249616384506 0.18964989483356476
v 0.017917750403285027 -0.033024661242961884 0.18965010344982147
v 0.008679269813001156 -0.036551471799612045 0.1981499046087265
v 0.002847433090209961 -0.037827249616384506 0.18964989483356476
v 0.008679269813001156 -0.036551471799612045 0.1981499046087265
v -0.003892064094543457 -0.037482790648937225 0.19814999401569366
v -0.013531800359487534 -0.03310834988951683 0.19815020263195038
v 0.005221306812018156 -0.03559594973921776 0.19814999401569366
v -0.00656545115634799 -0.03524243086576462 0.18964989483356476
v -0.013531800359487534 -0.03310834988951683 0.19815020263195038
v -0.00656545115634799 -0.03524243086576462 0.18964989483356476
v -0.023331940174102783 -0.02723151072859764 0.18964989483356476
v -0.02771490067243576 -0.022765329107642174 0.19815030694007874
v -0.013531800359487534 -0.03310834988951683 0.19815020263195038
v -0.023331940174102783 -0.02723151072859764 0.18964989483356476
v -0.02771490067243576 -0.022765329107642174 0.19815030694007874
v -0.023331940174102783 -0.02723151072859764 0.18964989483356476
v -0.034271180629730225 -0.01094788033515215 0.18965010344982147
v -0.03475308045744896 -0.008186817169189453 0.19815020263195038
v -0.02771490067243576 -0.022765329107642174 0.19815030694007874
v -0.034271180629730225 -0.01094788033515215 0.18965010344982147
v -0.03541218861937523 0.0038756129797548056 0.19814999401569366
v -0.03475308045744896 -0.008186817169189453 0.19815020263195038
v -0.034271180629730225 -0.01094788033515215 0.18965010344982147
v -0.03541218861937523 0.0038756129797548056 0.19814999401569366
v -0.034271180629730225 -0.01094788033515215 0.18965010344982147
v -0.035136640071868896 0.006579101085662842 0.18965010344982147
v -0.032082971185445786 0.01579469069838524 0.19814999401569366
v -0.03541218861937523 0.0038756129797548056 0.19814999401569366
v -0.035136640071868896 0.006579101085662842 0.18965010344982147
v -0.032082971185445786 0.01579469069838524 0.19814999401569366
v -0.035136640071868896 0.006579101085662842 0.18965010344982147
v -0.03068971075117588 0.018127670511603355 0.18964989483356476
v -0.023954860866069794 0.026483289897441864 0.19814980030059814
v -0.032082971185445786 0.01579469069838524 0.19814999401569366
v -0.03068971075117588 0.018127670511603355 0.18964989483356476
v -0.023954860866069794 0.026483289897441864 0.19814980030059814
v -0.03068971075117588 0.018127670511603355 0.18964989483356476
v -0.021950000897049904 0.02834773063659668 0.18964989483356476
v -0.008333384059369564 0.03520971164107323 0.19814999401569366
v -0.023954860866069794 0.026483289897441864 0.19814980030059814
v -0.021950000897049904 0.02834773063659668 0.18964989483356476
v -0.008333384059369564 0.03520971164107323 0.19814999401569366
v -0.021950000897049904 0.02834773063659668 0.18964989483356476
v -0.007236659061163664 0.035097651183605194 0.18965010344982147
vn 0.22092902744938667 -0.9751825966016786 0.01446610229039359
vn 0.1725264742903597 -0.9843750340602648 0.03521942628423295
vn -0.29911890417396914 -0.9542139702069137 0.0018921489695407257
vn -0.24528081134880686 -0.9690074095383411 -0.029359220763925314
vn 0.22092902744938667 -0.9751825966016786 0.01446610229039359
vn -0.29911890417396914 -0.9542139702069137 0.0018921489695407257
vn -0.6050406702073412 -0.7959984551018469 0.01767050849648641
vn -0.24528081134880686 -0.9690074095383411 -0.029359220763925314
vn -0.29911890417396914 -0.9542139702069137 0.0018921489695407257
vn -0.6050406702073412 -0.7959984551018469 0.01767050849648641
vn -0.29911890417396914 -0.9542139702069137 0.0018921489695407257
vn -0.7491579285291811 -0.6621167266553546 0.019074548620211778
vn -0.8899084940577887 -0.4558037527100102 0.017487458914047557
vn -0.6050406702073412 -0.7959984551018469 0.01767050849648641
vn -0.7491579285291811 -0.6621167266553546 0.019074548620211778
vn -0.8899084940577887 -0.4558037527100102 0.017487458914047557
vn -0.7491579285291811 -0.6621167266553546 0.019074548620211778
vn -0.9795071848784127 -0.20139479164409976 0.002410947987096707
vn -0.999940198055244 0.01043729930446962 0.0032654397051591648
vn -0.8899084940577887 -0.4558037527100102 0.017487458914047557
vn -0.9795071848784127 -0.20139479164409976 0.002410947987096707
vn -0.999940198055244 0.01043729930446962 0.0032654397051591648
vn -0.9795071848784127 -0.20139479164409976 0.002410947987096707
vn -0.9573121537451322 0.2888294717354211 0.011444498630076606
vn -0.8933314889890523 0.4492446885226343 -0.011749919778609392
vn -0.999940198055244 0.01043729930446962 0.0032654397051591648
vn -0.9573121537451322 0.2888294717354211 0.011444498630076606
vn -0.8933314889890523 0.4492446885226343 -0.011749919778609392
vn -0.9573121537451322 0.2888294717354211 0.011444498630076606
vn -0.7413653224248701 0.6710801801135408 0.005371272162717567
vn -0.6028199258098718 0.7978085957879274 -0.010468119863463254
vn -0.8933314889890523 0.4492446885226343 -0.011749919778609392
vn -0.7413653224248701 0.6710801801135408 0.005371272162717567
vn -0.6028199258098718 0.7978085957879274 -0.010468119863463254
vn -0.7413653224248701 0.6710801801135408 0.005371272162717567
vn -0.36611337039439545 0.9305433179719096 -0.007080494070724657
vn -0.1283022043632065 0.9915036770425382 0.021424349854040826
vn -0.6028199258098718 0.7978085957879274 -0.010468119863463254
vn -0.36611337039439545 0.9305433179719096 -0.007080494070724657
vn -0.1283022043632065 0.9915036770425382 0.021424349854040826
vn -0.36611337039439545 0.9305433179719096 -0.007080494070724657
vn 0.17371298213972206 0.9847806602114664 -0.005554377516256143
vn -0.3787738970155786 -0.9252203085611903 -0.022309539788341826
vn 0.0744672288274 -0.9971896673053345 -0.008209704638037829
vn -0.12760168146912815 -0.9917899836386105 -0.008392808849002056
vn -0.3787738970155786 -0.9252203085611903 -0.022309539788341826
vn -0.12760168146912815 -0.9917899836386105 -0.008392808849002056
vn -0.47728495891678685 -0.8787306381787208 0.005615471290911685
vn -0.7387129742408253 -0.67395157333435 -0.009613453512056698
vn -0.3787738970155786 -0.9252203085611903 -0.022309539788341826
vn -0.47728495891678685 -0.8787306381787208 0.005615471290911685
vn -0.7387129742408253 -0.67395157333435 -0.009613453512056698
vn -0.47728495891678685 -0.8787306381787208 0.005615471290911685
vn -0.8034728208153273 -0.5949369101578724 0.021943088726624902
vn -0.9492367653140408 -0.3137061942558314 0.02319454810207547
vn -0.7387129742408253 -0.67395157333435 -0.009613453512056698
vn -0.8034728208153273 -0.5949369101578724 0.021943088726624902
vn -0.9492367653140408 -0.3137061942558314 0.02319454810207547
vn -0.8034728208153273 -0.5949369101578724 0.021943088726624902
vn -0.9962391827801108 -0.08618627466525489 0.00891160776417457
vn -0.9906283990570577 0.13648259333199556 0.00527983892026349
vn -0.9492367653140408 -0.3137061942558314 0.02319454810207547
vn -0.9962391827801108 -0.08618627466525489 0.00891160776417457
vn -0.9906283990570577 0.13648259333199556 0.00527983892026349
vn -0.9962391827801108 -0.08618627466525489 0.00891160776417457
vn -0.9097815548957757 0.4137201216857942 0.03366278781854264
vn -0.8482786541795901 0.5293844420108361 0.013245279164255545
vn -0.9906283990570577 0.13648259333199556 0.00527983892026349
vn -0.9097815548957757 0.4137201216857942 0.03366278781854264
vn -0.8482786541795901 0.5293844420108361 0.013245279164255545
vn -0.9097815548957757 0.4137201216857942 0.03366278781854264
vn -0.577696261964256 0.8161114428475282 -0.015137429301280871
vn -0.49447568248646173 0.8690099540018504 -0.017762299266983583
vn -0.8482786541795901 0.5293844420108361 0.013245279164255545
vn -0.577696261964256 0.8161114428475282 -0.015137429301280871
vn -0.11041740338093352 0.9937571296173021 0.015961339711725933
vn -0.577696261964256 0.8161114428475282 -0.015137429301280871
vn -0.1651095784493023 0.986140571010113 0.016297279286500224
vn -0.11041740338093352 0.9937571296173021 0.015961339711725933
vn -0.49447568248646173 0.8690099540018504 -0.017762299266983583
vn -0.577696261964256 0.8161114428475282 -0.015137429301280871
vn -0.00003051940072395555 0.00003051940072395555 0.9999999990685662
vn 0 0.00003051849851942606 0.9999999995343107
vn -0.00003051940073816896 0 0.9999999995342832
vn 0.00009155549881252914 -0.00003051849839151678 0.999999995343106
vn 0.00003051849851942606 0 0.9999999995343107
vn 0.00009155549881252914 -0.00003051849839151678 0.999999995343106
vn 0.00009155549881252914 -0.00003051849839151678 0.999999995343106
vn -0.00003051849851942606 0 0.9999999995343107
vn 0.00003051849851942606 0 0.9999999995343107
vn -0.00003051940073816896 0 0.9999999995342832
vn -0.00003051940072395555 0.00003051940072395555 0.9999999990685662
vn -0.00003051940073816896 0 0.9999999995342832
vn 0.00003051849850521391 -0.00003051849850521391 0.9999999990686212
vn 0 0 1
vn 0 0 1
vn -0.00003051940073816896 0 0.9999999995342832
vn -0.00003051940073816896 0 0.9999999995342832
vn -0.00003051849851942606 0 0.9999999995343107
vn 0 -0.00003051849851942606 0.9999999995343107
vn 0 0.00003051849851942606 0.9999999995343107
vn -0.00003051940072395555 0.00003051940072395555 0.9999999990685662
vn 0 -0.00003051849851942606 0.9999999995343107
vn 0 -0.00003051849851942606 0.9999999995343107
vn 0 0.00003051849851942606 0.9999999995343107
vn 0.00003051849850521391 -0.00003051849850521391 0.9999999990686212
vn 0.0001525929959311615 -0.00009155549778924795 0.9999999841664842
vn 0 0 1
vn 0.00003051849850521391 -0.00003051849850521391 0.9999999990686212
vn 0.00009155549881252914 -0.00003051849839151678 0.999999995343106
vn 0.00009155549881252914 -0.00003051849839151678 0.999999995343106
vn 0.00003051849850521391 -0.00003051849850521391 0.9999999990686212
vn 0.00009155549881252914 -0.00003051849839151678 0.999999995343106
vn 0.0001525929959311615 -0.00009155549778924795 0.9999999841664842
vn 0 0 1
vn -0.00003051940073816896 0 0.9999999995342832
vn -0.00003051849851942606 0 0.9999999995343107
vn 0 0 1
vn -0.00003051849851942606 0 0.9999999995343107
vn 0.00003051849851942606 0 0.9999999995343107
vn 0 -0.00003051849851942606 0.9999999995343107
vn 0 -0.00003051849851942606 0.9999999995343107
vn 0 -0.00003051849851942606 0.9999999995343107
vn -0.00003051849816412019 -0.00015259299649964902 0.9999999878919993
vn 0 -0.00003051849851942606 0.9999999995343107
vn 0 -0.00003051849851942606 0.9999999995343107
vn 0.0003051939715682682 0.0001525969857841341 0.9999999417853981
vn 0 0 1
vn 0.00003051849851942606 0 0.9999999995343107
vn -0.00003051849839151678 -0.00009155549881252914 0.999999995343106
vn 0 -0.00003051849851942606 0.9999999995343107
vn -0.00003051849816412019 -0.00015259299649964902 0.9999999878919993
vn 0.000030519400681315164 0.00006103890322603668 0.9999999976714093
vn 0.0003051939715682682 0.0001525969857841341 0.9999999417853981
vn 0.00003051849851942606 0 0.9999999995343107
vn -0.00003051849850521391 -0.00003051849850521391 0.9999999990686212
vn -0.00003051849839151678 -0.00009155549881252914 0.999999995343106
vn -0.00003051849816412019 -0.00015259299649964902 0.9999999878919993
vn -0.00003051849850521391 -0.00003051849850521391 0.9999999990686212
vn -0.00003051849839151678 -0.00009155549881252914 0.999999995343106
vn -0.00003051849850521391 -0.00003051849850521391 0.9999999990686212
vn 0.00003051849851942606 0 0.9999999995343107
vn 0.0003051939715682682 0.0001525969857841341 0.9999999417853981
vn 0.000030519400681315164 0.00006103890322603668 0.9999999976714093
vn 0 -0.00003051849851942606 0.9999999995343107
vn 0.00003051849851942606 0 0.9999999995343107
vn 0.000030519400681315164 0.00006103890322603668 0.9999999976714093
vn 0 -0.00003051940073816896 0.9999999995342832
vn 0.00003051849851942606 0 0.9999999995343107
vn 0 -0.00003051849851942606 0.9999999995343107
vn -0.00012207399316812724 -0.00003051849829203181 0.9999999920832808
vn -0.00003051849850521391 -0.00003051849850521391 0.9999999990686212
vn -0.00003051849850521391 -0.00003051849850521391 0.9999999990686212
vn -0.00003051849851942606 0 0.9999999995343107
vn -0.00003051849850521391 -0.00003051849850521391 0.9999999990686212
vn -0.00012207399316812724 -0.00003051849829203181 0.9999999920832808
vn 0 0 1
vn 0 -0.00003051940073816896 0.9999999995342832
vn 0 -0.00003051849851942606 0.9999999995343107
vn 0.00003051849851942606 0 0.9999999995343107
vn -0.00003051849851942606 0 0.9999999995343107
vn -0.00012207399316812724 -0.00003051849829203181 0.9999999920832808
vn 0 0 1
vn 0 0 1
vn 0 -0.00003051849851942606 0.9999999995343107
vn 0 0 -1
vn 0 0 -1
vn -0.000061036996925155 0.0000305184984625775 -0.9999999976715532
vn 0 0 -1
vn 0 0 -1
vn 0 0.00009155549885516555 -0.9999999958087953
vn 0 -0.00003051940073816896 -0.9999999995342832
vn 0 0 -1
vn 0 0.00009155549885516555 -0.9999999958087953
vn -0.000061036996925155 0.0000305184984625775 -0.9999999976715532
vn 0 0 -1
vn -0.000061036996925155 0.0000305184984625775 -0.9999999976715532
vn 0 0 -1
vn 0 0 -1
vn 0 0.00006103699695357926 -0.9999999981372425
vn 0 0 -1
vn 0 -0.00003051940073816896 -0.9999999995342832
vn -0.00009155549881252914 0.00003051849839151678 -0.999999995343106
vn -0.00006103890325446353 0 -0.9999999981371261
vn 0 0 -1
vn -0.00009155549881252914 0.00003051849839151678 -0.999999995343106
vn 0 0 -1
vn -0.00009155549847143772 0.00009155549847143772 -0.9999999916175907
vn 0 0.00006103699695357926 -0.9999999981372425
vn 0 0 -1
vn 0 0.00003051849851942606 -0.9999999995343107
vn 0 0.00009155549885516555 -0.9999999958087953
vn -0.00009155549847143772 0.00009155549847143772 -0.9999999916175907
vn -0.000061036996925155 0.0000305184984625775 -0.9999999976715532
vn -0.000061036996925155 0.0000305184984625775 -0.9999999976715532
vn 0 0.00006103699695357926 -0.9999999981372425
vn -0.00009155549847143772 0.00009155549847143772 -0.9999999916175907
vn -0.000061036996925155 0.0000305184984625775 -0.9999999976715532
vn -0.00006103890325446353 0 -0.9999999981371261
vn -0.00009155549881252914 0.00003051849839151678 -0.999999995343106
vn -0.00003051849851942606 0 -0.9999999995343107
vn 0 0.00009155549885516555 -0.9999999958087953
vn 0 0.00003051849851942606 -0.9999999995343107
vn -0.00003051849829203181 -0.00012207399316812724 -0.9999999920832808
vn -0.00006103890325446353 0 -0.9999999981371261
vn -0.00003051849851942606 0 -0.9999999995343107
vn 0 0 -1
vn -0.00003051849829203181 -0.00012207399316812724 -0.9999999920832808
vn 0 0.00003051849851942606 -0.9999999995343107
vn -0.00003051849839151678 -0.00009155549881252914 -0.999999995343106
vn -0.00003051849829203181 -0.00012207399316812724 -0.9999999920832808
vn -0.00003051849839151678 -0.00009155549881252914 -0.999999995343106
vn -0.00012207399180375237 -0.000152592995433735 -0.999999980906659
vn 0 0 -1
vn -0.00003051849851942606 0 -0.9999999995343107
vn -0.00003051849851942606 0 -0.9999999995343107
vn 0 0 -1
vn -0.00003051849851942606 0 -0.9999999995343107
vn 0 0 -1
vn -0.00012207399180375237 -0.000152592995433735 -0.999999980906659
vn -0.00003051849839151678 -0.00009155549881252914 -0.999999995343106
vn -0.000061036996925155 -0.0000305184984625775 -0.9999999976715532
vn 0 0 -1
vn -0.00003051849851942606 0 -0.9999999995343107
vn 0 0 -1
vn -0.00012207399180375237 -0.000152592995433735 -0.999999980906659
vn -0.000061036996925155 -0.0000305184984625775 -0.9999999976715532
vn 0.00009155549881252914 0.00003051849839151678 -0.999999995343106
vn 0 0 -1
vn 0 0 -1
vn 0 0 -1
vn 0.00009155549881252914 0.00003051849839151678 -0.999999995343106
vn -0.000061036996925155 -0.0000305184984625775 -0.9999999976715532
vn 0.00009155549885516555 0 -0.9999999958087953
vn 0 0 -1
vn 0 0 -1
vn 0 0 -1
vn 0.00009155549881252914 0.00003051849839151678 -0.999999995343106
vn 0.00009155549885516555 0 -0.9999999958087953
vn 0 0 -1
vn 0 0 -1
vn 0 0 -1
vn 0 0 -1
vn 0.00009155549881252914 0.00003051849839151678 -0.999999995343106
vn 0 0 -1
vn 0 0 -1
vn -0.11041740338093352 0.9937571296173021 0.015961339711725933
vn -0.1651095784493023 0.986140571010113 0.016297279286500224
vn 0.31699928376473396 0.9484037081636385 -0.0064699639957014115
vn 0.3162416745173006 0.9479620245111621 -0.03686737559404641
vn -0.11041740338093352 0.9937571296173021 0.015961339711725933
vn 0.31699928376473396 0.9484037081636385 -0.0064699639957014115
vn 0.7002175444577282 0.7137371891838743 0.01657151802014019
vn 0.3162416745173006 0.9479620245111621 -0.03686737559404641
vn 0.31699928376473396 0.9484037081636385 -0.0064699639957014115
vn 0.7002175444577282 0.7137371891838743 0.01657151802014019
vn 0.31699928376473396 0.9484037081636385 -0.0064699639957014115
vn 0.7511864276107654 0.6599966262629863 0.011108748572737774
vn 0.7002175444577282 0.7137371891838743 0.01657151802014019
vn 0.7511864276107654 0.6599966262629863 0.011108748572737774
vn 0.9718765417318944 0.23524018640212224 -0.010864728839148637
vn 0.9497257946347298 0.31279086668850814 -0.013519937931911478
vn 0.7002175444577282 0.7137371891838743 0.01657151802014019
vn 0.9718765417318944 0.23524018640212224 -0.010864728839148637
vn 0.9810383209169536 -0.19376608510746787 0.004303156349686587
vn 0.9497257946347298 0.31279086668850814 -0.013519937931911478
vn 0.9718765417318944 0.23524018640212224 -0.010864728839148637
vn 0.9810383209169536 -0.19376608510746787 0.004303156349686587
vn 0.9718765417318944 0.23524018640212224 -0.010864728839148637
vn 0.9533534830708807 -0.30183318842014384 0.003723262648509834
vn 0.7730443485429792 -0.6343053585729895 -0.007690726321499121
vn 0.9533534830708807 -0.30183318842014384 0.003723262648509834
vn 0.8001541574564294 -0.599490052438048 0.01910500806118674
vn 0.7730443485429792 -0.6343053585729895 -0.007690726321499121
vn 0.9810383209169536 -0.19376608510746787 0.004303156349686587
vn 0.9533534830708807 -0.30183318842014384 0.003723262648509834
vn 0.7730443485429792 -0.6343053585729895 -0.007690726321499121
vn 0.8001541574564294 -0.599490052438048 0.01910500806118674
vn 0.5427766414948754 -0.8398770647643475 0.00018311299116747948
vn 0.46471094583233924 -0.8850778841747124 -0.02609359631072215
vn 0.7730443485429792 -0.6343053585729895 -0.007690726321499121
vn 0.5427766414948754 -0.8398770647643475 0.00018311299116747948
vn 0.46471094583233924 -0.8850778841747124 -0.02609359631072215
vn 0.5427766414948754 -0.8398770647643475 0.00018311299116747948
vn 0.2529708195364522 -0.9674477761984903 0.0071108924651778465
vn 0.0744672288274 -0.9971896673053345 -0.008209704638037829
vn 0.46471094583233924 -0.8850778841747124 -0.02609359631072215
vn 0.2529708195364522 -0.9674477761984903 0.0071108924651778465
vn 0.0744672288274 -0.9971896673053345 -0.008209704638037829
vn 0.2529708195364522 -0.9674477761984903 0.0071108924651778465
vn -0.12760168146912815 -0.9917899836386105 -0.008392808849002056
vn 0.38655789668812524 0.9222637768149534 0.001586972926868344
vn -0.1283022043632065 0.9915036770425382 0.021424349854040826
vn 0.17371298213972206 0.9847806602114664 -0.005554377516256143
vn 0.38655789668812524 0.9222637768149534 0.001586972926868344
vn 0.17371298213972206 0.9847806602114664 -0.005554377516256143
vn 0.6418169064216643 0.7668232230220944 0.0072940568500459305
vn 0.7832471781560408 0.6214644355098097 0.017487518608219472
vn 0.38655789668812524 0.9222637768149534 0.001586972926868344
vn 0.6418169064216643 0.7668232230220944 0.0072940568500459305
vn 0.7832471781560408 0.6214644355098097 0.017487518608219472
vn 0.6418169064216643 0.7668232230220944 0.0072940568500459305
vn 0.9504168743315224 0.310956064605387 0.0037537808978981135
vn 0.9774569007518465 0.21073249900197805 -0.01303154008459722
vn 0.7832471781560408 0.6214644355098097 0.017487518608219472
vn 0.9504168743315224 0.310956064605387 0.0037537808978981135
vn 0.9968593085027152 -0.0790126320882377 0.005340694896458455
vn 0.9774569007518465 0.21073249900197805 -0.01303154008459722
vn 0.9504168743315224 0.310956064605387 0.0037537808978981135
vn 0.9968593085027152 -0.0790126320882377 0.005340694896458455
vn 0.9504168743315224 0.310956064605387 0.0037537808978981135
vn 0.9863704051783058 -0.16410008413659793 0.012024399142843301
vn 0.8963201866719672 -0.44335327663757834 -0.0069278466389221735
vn 0.9968593085027152 -0.0790126320882377 0.005340694896458455
vn 0.9863704051783058 -0.16410008413659793 0.012024399142843301
vn 0.8963201866719672 -0.44335327663757834 -0.0069278466389221735
vn 0.9863704051783058 -0.16410008413659793 0.012024399142843301
vn 0.8530151609599466 -0.5216363525085935 0.01614468686617372
vn 0.6693046686121831 -0.7425797578442223 -0.02462851627589741
vn 0.8963201866719672 -0.44335327663757834 -0.0069278466389221735
vn 0.8530151609599466 -0.5216363525085935 0.01614468686617372
vn 0.6693046686121831 -0.7425797578442223 -0.02462851627589741
vn 0.8530151609599466 -0.5216363525085935 0.01614468686617372
vn 0.5961904602601585 -0.8028047188284222 -0.007843374375766647
vn 0.22092902744938667 -0.9751825966016786 0.01446610229039359
vn 0.6693046686121831 -0.7425797578442223 -0.02462851627589741
vn 0.5961904602601585 -0.8028047188284222 -0.007843374375766647
vn 0.22092902744938667 -0.9751825966016786 0.01446610229039359
vn 0.5961904602601585 -0.8028047188284222 -0.007843374375766647
vn 0.1725264742903597 -0.9843750340602648 0.03521942628423295
f 1//1 2//2 3//3
f 4//4 5//5 6//6
f 7//7 8//8 9//9
f 10//10 11//11 12//12
f 13//13 14//14 15//15
f 16//16 17//17 18//18
f 19//19 20//20 21//21
f 22//22 23//23 24//24
f 25//25 26//26 27//27
f 28//28 29//29 30//30
f 31//31 32//32 33//33
f 34//34 35//35 36//36
f 37//37 38//38 39//39
f 40//40 41//41 42//42
f 43//43 44//44 45//45
f 46//46 47//47 48//48
f 49//49 50//50 51//51
f 52//52 53//53 54//54
f 55//55 56//56 57//57
f 58//58 59//59 60//60
f 61//61 62//62 63//63
f 64//64 65//65 66//66
f 67//67 68//68 69//69
f 70//70 71//71 72//72
f 73//73 74//74 75//75
f 76//76 77//77 78//78
f 79//79 80//80 81//81
f 82//82 83//83 84//84
f 85//85 86//86 87//87
f 88//88 89//89 90//90
f 91//91 92//92 93//93
f 94//94 95//95 96//96
f 97//97 98//98 99//99
f 100//100 101//101 102//102
f 103//103 104//104 105//105
f 106//106 107//107 108//108
f 109//109 110//110 111//111
f 112//112 113//113 114//114
f 115//115 116//116 117//117
f 118//118 119//119 120//120
f 121//121 122//122 123//123
f 124//124 125//125 126//126
f 127//127 128//128 129//129
f 130//130 131//131 132//132
f 133//133 134//134 135//135
f 136//136 137//137 138//138
f 139//139 140//140 141//141
f 142//142 143//143 144//144
f 145//145 146//146 147//147
f 148//148 149//149 150//150
f 151//151 152//152 153//153
f 154//154 155//155 156//156
f 157//157 158//158 159//159
f 160//160 161//161 162//162
f 163//163 164//164 165//165
f 166//166 167//167 168//168
f 169//169 170//170 171//171
f 172//172 173//173 174//174
f 175//175 176//176 177//177
f 178//178 179//179 180//180
f 181//181 182//182 183//183
f 184//184 185//185 186//186
f 187//187 188//188 189//189
f 190//190 191//191 192//192
f 193//193 194//194 195//195
f 196//196 197//197 198//198
f 199//199 200//200 201//201
f 202//202 203//203 204//204
f 205//205 206//206 207//207
f 208//208 209//209 210//210
f 211//211 212//212 213//213
f 214//214 215//215 216//216
f 217//217 218//218 219//219
f 220//220 221//221 222//222
f 223//223 224//224 225//225
f 226//226 227//227 228//228
f 229//229 230//230 231//231
f 232//232 233//233 234//234
f 235//235 236//236 237//237
f 238//238 239//239 240//240
f 241//241 242//242 243//243
f 244//244 245//245 246//246
f 247//247 248//248 249//249
f 250//250 251//251 252//252
f 253//253 254//254 255//255
f 256//256 257//257 258//258
f 259//259 260//260 261//261
f 262//262 263//263 264//264
f 265//265 266//266 267//267
f 268//268 269//269 270//270
f 271//271 272//272 273//273
f 274//274 275//275 276//276
f 277//277 278//278 279//279
f 280//280 281//281 282//282
f 283//283 284//284 285//285
f 286//286 287//287 288//288
f 289//289 290//290 291//291
f 292//292 293//293 294//294
f 295//295 296//296 297//297
f 298//298 299//299 300//300
f 301//301 302//302 303//303
f 304//304 305//305 306//306
f 307//307 308//308 309//309
f 310//310 311//311 312//312
f 313//313 314//314 315//315
f 316//316 317//317 318//318
f 319//319 320//320 321//321
f 322//322 323//323 324//324
f 325//325 326//326 327//327
f 328//328 329//329 330//330
