o node1
usemtl verbindung
v 0.031746018677949905 0.04365025833249092 0.019428610801696777
v 0.03272140026092529 0.04365025833249092 0.020089799538254738
v 0.032363589853048325 0.05200409144163132 0.019948480650782585
v 0.031746018677949905 0.04365025833249092 0.019428610801696777
v 0.032363589853048325 0.05200409144163132 0.019948480650782585
v 0.031756870448589325 0.052001770585775375 0.01940041035413742
v 0.034584760665893555 0.04365025833249092 0.018511589616537094
v 0.0345645509660244 0.05200070142745972 0.01856333017349243
v 0.03427565097808838 0.05199861153960228 0.019501090049743652
v 0.03403102979063988 0.04365025833249092 0.019816869869828224
v 0.034584760665893555 0.04365025833249092 0.018511589616537094
v 0.03427565097808838 0.05199861153960228 0.019501090049743652
v 0.031746018677949905 0.04365025833249092 0.019428610801696777
v 0.031756870448589325 0.052001770585775375 0.01940041035413742
v 0.031523220241069794 0.052010711282491684 0.018595870584249496
v 0.031572580337524414 0.04365025833249092 0.0181044302880764
v 0.031746018677949905 0.04365025833249092 0.019428610801696777
v 0.031523220241069794 0.052010711282491684 0.018595870584249496
v 0.03403102979063988 0.04365025833249092 0.019816869869828224
v 0.03427565097808838 0.05199861153960228 0.019501090049743652
v 0.03334242105484009 0.05201280117034912 0.020115070044994354
v 0.03272140026092529 0.04365025833249092 0.020089799538254738
v 0.03403102979063988 0.04365025833249092 0.019816869869828224
v 0.03334242105484009 0.05201280117034912 0.020115070044994354
v 0.03272140026092529 0.04365025833249092 0.020089799538254738
v 0.03334242105484009 0.05201280117034912 0.020115070044994354
v 0.032363589853048325 0.05200409144163132 0.019948480650782585
v 0.03468436002731323 0.05324624851346016 0.020821569487452507
v 0.03334242105484009 0.05201280117034912 0.020115070044994354
v 0.03427565097808838 0.05199861153960228 0.019501090049743652
v 0.03468436002731323 0.05324624851346016 0.020821569487452507
v 0.033521950244903564 0.05326097831130028 0.02133828029036522
v 0.03334242105484009 0.05201280117034912 0.020115070044994354
v 0.03427565097808838 0.05199861153960228 0.019501090049743652
v 0.03552573174238205 0.05325675010681152 0.019853349775075912
v 0.03468436002731323 0.05324624851346016 0.020821569487452507
v 0.03552573174238205 0.05325675010681152 0.019853349775075912
v 0.03427565097808838 0.05199861153960228 0.019501090049743652
v 0.03579330071806908 0.05323534831404686 0.01891487091779709
v 0.0345645509660244 0.05200070142745972 0.01856333017349243
v 0.03579330071806908 0.05323534831404686 0.01891487091779709
v 0.03427565097808838 0.05199861153960228 0.019501090049743652
v 0.03441410884261131 0.05201143026351929 0.017930500209331512
v 0.03579330071806908 0.05323534831404686 0.01891487091779709
v 0.0345645509660244 0.05200070142745972 0.01856333017349243
v 0.03441410884261131 0.05201143026351929 0.017930500209331512
v 0.03554946184158325 0.05322587117552757 0.017379099503159523
v 0.03579330071806908 0.05323534831404686 0.01891487091779709
v 0.03554946184158325 0.05322587117552757 0.017379099503159523
v 0.03441410884261131 0.05201143026351929 0.017930500209331512
v 0.03386294096708298 0.05200241878628731 0.017316099256277084
v 0.03459881991147995 0.0532534085214138 0.016274210065603256
v 0.03554946184158325 0.05322587117552757 0.017379099503159523
v 0.03386294096708298 0.05200241878628731 0.017316099256277084
v 0.03386294096708298 0.05200241878628731 0.017316099256277084
v 0.03336232155561447 0.053253110498189926 0.015850359573960304
v 0.03459881991147995 0.0532534085214138 0.016274210065603256
v 0.03386294096708298 0.05200241878628731 0.017316099256277084
v 0.033248718827962875 0.05200260132551193 0.017093529924750328
v 0.03336232155561447 0.053253110498189926 0.015850359573960304
v 0.030403969809412956 0.05323547124862671 0.019379790872335434
v 0.03053312934935093 0.05365024879574776 0.0197866503149271
v 0.03027760051190853 0.05365024879574776 0.01848888024687767
v 0.030292630195617676 0.053245659917593 0.018308039754629135
v 0.030403969809412956 0.05323547124862671 0.019379790872335434
v 0.03027760051190853 0.05365024879574776 0.01848888024687767
v 0.03552573174238205 0.05325675010681152 0.019853349775075912
v 0.03579330071806908 0.05323534831404686 0.01891487091779709
v 0.03575325012207031 0.05365024879574776 0.01921975053846836
v 0.03241086006164551 0.0532526895403862 0.02128303050994873
v 0.033521950244903564 0.05326097831130028 0.02133828029036522
v 0.03347349166870117 0.05365030840039253 0.02138531021773815
v 0.03241086006164551 0.0532526895403862 0.02128303050994873
v 0.03347349166870117 0.05365030840039253 0.02138531021773815
v 0.031569600105285645 0.05365020036697388 0.02096300944685936
v 0.03552573174238205 0.05325675010681152 0.019853349775075912
v 0.03575325012207031 0.05365024879574776 0.01921975053846836
v 0.035086389631032944 0.05365020036697388 0.020484380424022675
v 0.031062480062246323 0.05325841158628464 0.02057415060698986
v 0.03241086006164551 0.0532526895403862 0.02128303050994873
v 0.031569600105285645 0.05365020036697388 0.02096300944685936
v 0.03468436002731323 0.05324624851346016 0.020821569487452507
v 0.03552573174238205 0.05325675010681152 0.019853349775075912
v 0.035086389631032944 0.05365020036697388 0.020484380424022675
v 0.031062480062246323 0.05325841158628464 0.02057415060698986
v 0.031569600105285645 0.05365020036697388 0.02096300944685936
v 0.03053312934935093 0.05365024879574776 0.0197866503149271
v 0.03468436002731323 0.05324624851346016 0.020821569487452507
v 0.035086389631032944 0.05365020036697388 0.020484380424022675
v 0.03347349166870117 0.05365030840039253 0.02138531021773815
v 0.033521950244903564 0.05326097831130028 0.02133828029036522
v 0.03468436002731323 0.05324624851346016 0.020821569487452507
v 0.03347349166870117 0.05365030840039253 0.02138531021773815
v 0.030403969809412956 0.05323547124862671 0.019379790872335434
v 0.031062480062246323 0.05325841158628464 0.02057415060698986
v 0.03053312934935093 0.05365024879574776 0.0197866503149271
v 0.033851321786642075 0.04365025833249092 0.017234500497579575
v 0.033248718827962875 0.05200260132551193 0.017093529924750328
v 0.03386294096708298 0.05200241878628731 0.017316099256277084
v 0.033851321786642075 0.04365025833249092 0.017234500497579575
v 0.03386294096708298 0.05200241878628731 0.017316099256277084
v 0.03441410884261131 0.05201143026351929 0.017930500209331512
v 0.031572580337524414 0.04365025833249092 0.0181044302880764
v 0.031523220241069794 0.052010711282491684 0.018595870584249496
v 0.03174746036529541 0.052003320306539536 0.01778417080640793
v 0.034584760665893555 0.04365025833249092 0.018511589616537094
v 0.033851321786642075 0.04365025833249092 0.017234500497579575
v 0.03441410884261131 0.05201143026351929 0.017930500209331512
v 0.034584760665893555 0.04365025833249092 0.018511589616537094
v 0.03441410884261131 0.05201143026351929 0.017930500209331512
v 0.0345645509660244 0.05200070142745972 0.01856333017349243
v 0.03243451938033104 0.04365025833249092 0.017186760902404785
v 0.031572580337524414 0.04365025833249092 0.0181044302880764
v 0.03174746036529541 0.052003320306539536 0.01778417080640793
v 0.03243451938033104 0.04365025833249092 0.017186760902404785
v 0.03174746036529541 0.052003320306539536 0.01778417080640793
v 0.03250633925199509 0.05200349912047386 0.017174359411001205
v 0.03243451938033104 0.04365025833249092 0.017186760902404785
v 0.03250633925199509 0.05200349912047386 0.017174359411001205
v 0.033248718827962875 0.05200260132551193 0.017093529924750328
v 0.033851321786642075 0.04365025833249092 0.017234500497579575
v 0.03243451938033104 0.04365025833249092 0.017186760902404785
v 0.033248718827962875 0.05200260132551193 0.017093529924750328
v 0.031572580337524414 0.04365025833249092 0.0181044302880764
v 0.03243451938033104 0.04365025833249092 0.017186760902404785
v 0.031746018677949905 0.04365025833249092 0.019428610801696777
v 0.033851321786642075 0.04365025833249092 0.017234500497579575
v 0.03403102979063988 0.04365025833249092 0.019816869869828224
v 0.031746018677949905 0.04365025833249092 0.019428610801696777
v 0.03403102979063988 0.04365025833249092 0.019816869869828224
v 0.03272140026092529 0.04365025833249092 0.020089799538254738
v 0.031746018677949905 0.04365025833249092 0.019428610801696777
v 0.03243451938033104 0.04365025833249092 0.017186760902404785
v 0.033851321786642075 0.04365025833249092 0.017234500497579575
v 0.031746018677949905 0.04365025833249092 0.019428610801696777
v 0.033851321786642075 0.04365025833249092 0.017234500497579575
v 0.034584760665893555 0.04365025833249092 0.018511589616537094
v 0.03403102979063988 0.04365025833249092 0.019816869869828224
v 0.03250633925199509 0.05200349912047386 0.017174359411001205
v 0.03155802935361862 0.05324267968535423 0.016272060573101044
v 0.032320380210876465 0.05324171856045723 0.015925880521535873
v 0.03155802935361862 0.05324267968535423 0.016272060573101044
v 0.03250633925199509 0.05200349912047386 0.017174359411001205
v 0.03174746036529541 0.052003320306539536 0.01778417080640793
v 0.03069216012954712 0.053247690200805664 0.017111890017986298
v 0.03155802935361862 0.05324267968535423 0.016272060573101044
v 0.03174746036529541 0.052003320306539536 0.01778417080640793
v 0.030292630195617676 0.053245659917593 0.018308039754629135
v 0.03069216012954712 0.053247690200805664 0.017111890017986298
v 0.03174746036529541 0.052003320306539536 0.01778417080640793
v 0.030292630195617676 0.053245659917593 0.018308039754629135
v 0.03174746036529541 0.052003320306539536 0.01778417080640793
v 0.031523220241069794 0.052010711282491684 0.018595870584249496
v 0.031756870448589325 0.052001770585775375 0.01940041035413742
v 0.030403969809412956 0.05323547124862671 0.019379790872335434
v 0.031523220241069794 0.052010711282491684 0.018595870584249496
v 0.031523220241069794 0.052010711282491684 0.018595870584249496
v 0.030403969809412956 0.05323547124862671 0.019379790872335434
v 0.030292630195617676 0.053245659917593 0.018308039754629135
v 0.031756870448589325 0.052001770585775375 0.01940041035413742
v 0.031062480062246323 0.05325841158628464 0.02057415060698986
v 0.030403969809412956 0.05323547124862671 0.019379790872335434
v 0.031062480062246323 0.05325841158628464 0.02057415060698986
v 0.031756870448589325 0.052001770585775375 0.01940041035413742
v 0.032363589853048325 0.05200409144163132 0.019948480650782585
v 0.032320380210876465 0.05324171856045723 0.015925880521535873
v 0.03336232155561447 0.053253110498189926 0.015850359573960304
v 0.033248718827962875 0.05200260132551193 0.017093529924750328
v 0.03241086006164551 0.0532526895403862 0.02128303050994873
v 0.03334242105484009 0.05201280117034912 0.020115070044994354
v 0.033521950244903564 0.05326097831130028 0.02133828029036522
v 0.03241086006164551 0.0532526895403862 0.02128303050994873
v 0.032363589853048325 0.05200409144163132 0.019948480650782585
v 0.03334242105484009 0.05201280117034912 0.020115070044994354
v 0.032363589853048325 0.05200409144163132 0.019948480650782585
v 0.03241086006164551 0.0532526895403862 0.02128303050994873
v 0.031062480062246323 0.05325841158628464 0.02057415060698986
v 0.032320380210876465 0.05324171856045723 0.015925880521535873
v 0.033248718827962875 0.05200260132551193 0.017093529924750328
v 0.03250633925199509 0.05200349912047386 0.017174359411001205
v 0.03579330071806908 0.05323534831404686 0.01891487091779709
v 0.03554946184158325 0.05322587117552757 0.017379099503159523
v 0.03560196980834007 0.05365024879574776 0.017381129786372185
v 0.03579330071806908 0.05323534831404686 0.01891487091779709
v 0.03560196980834007 0.05365024879574776 0.017381129786372185
v 0.03575325012207031 0.05365024879574776 0.01921975053846836
v 0.03336232155561447 0.053253110498189926 0.015850359573960304
v 0.032320380210876465 0.05324171856045723 0.015925880521535873
v 0.032408591359853745 0.05365030840039253 0.015842489898204803
v 0.030292630195617676 0.053245659917593 0.018308039754629135
v 0.03027760051190853 0.05365024879574776 0.01848888024687767
v 0.030725300312042236 0.05365024879574776 0.01702236942946911
v 0.03336232155561447 0.053253110498189926 0.015850359573960304
v 0.032408591359853745 0.05365030840039253 0.015842489898204803
v 0.034238509833812714 0.05365024879574776 0.016080670058727264
v 0.03069216012954712 0.053247690200805664 0.017111890017986298
v 0.030292630195617676 0.053245659917593 0.018308039754629135
v 0.030725300312042236 0.05365024879574776 0.01702236942946911
v 0.03459881991147995 0.0532534085214138 0.016274210065603256
v 0.03336232155561447 0.053253110498189926 0.015850359573960304
v 0.034238509833812714 0.05365024879574776 0.016080670058727264
v 0.03459881991147995 0.0532534085214138 0.016274210065603256
v 0.034238509833812714 0.05365024879574776 0.016080670058727264
v 0.03560196980834007 0.05365024879574776 0.017381129786372185
v 0.03155802935361862 0.05324267968535423 0.016272060573101044
v 0.03069216012954712 0.053247690200805664 0.017111890017986298
v 0.030725300312042236 0.05365024879574776 0.01702236942946911
v 0.03155802935361862 0.05324267968535423 0.016272060573101044
v 0.030725300312042236 0.05365024879574776 0.01702236942946911
v 0.032408591359853745 0.05365030840039253 0.015842489898204803
v 0.03554946184158325 0.05322587117552757 0.017379099503159523
v 0.03459881991147995 0.0532534085214138 0.016274210065603256
v 0.03560196980834007 0.05365024879574776 0.017381129786372185
v 0.032320380210876465 0.05324171856045723 0.015925880521535873
v 0.03155802935361862 0.05324267968535423 0.016272060573101044
v 0.032408591359853745 0.05365030840039253 0.015842489898204803
v 0.03305000066757202 0.05365024879574776 0.01997130922973156
v 0.031569600105285645 0.05365020036697388 0.02096300944685936
v 0.03347349166870117 0.05365030840039253 0.02138531021773815
v 0.034238509833812714 0.05365024879574776 0.016080670058727264
v 0.032408591359853745 0.05365030840039253 0.015842489898204803
v 0.03299843892455101 0.05365024879574776 0.01725834049284458
v 0.03434509038925171 0.05365024879574776 0.017843779176473618
v 0.034226350486278534 0.05365024879574776 0.019220350310206413
v 0.03560196980834007 0.05365024879574776 0.017381129786372185
v 0.032408591359853745 0.05365030840039253 0.015842489898204803
v 0.031747039407491684 0.05365024879574776 0.017843779176473618
v 0.03299843892455101 0.05365024879574776 0.01725834049284458
v 0.03560196980834007 0.05365024879574776 0.017381129786372185
v 0.034226350486278534 0.05365024879574776 0.019220350310206413
v 0.03575325012207031 0.05365024879574776 0.01921975053846836
v 0.031747039407491684 0.05365024879574776 0.017843779176473618
v 0.03027760051190853 0.05365024879574776 0.01848888024687767
v 0.03196704015135765 0.05365024879574776 0.01859365962445736
v 0.03027760051190853 0.05365024879574776 0.01848888024687767
v 0.03053312934935093 0.05365024879574776 0.0197866503149271
v 0.031747039407491684 0.05365024879574776 0.019343789666891098
v 0.03196704015135765 0.05365024879574776 0.01859365962445736
v 0.03027760051190853 0.05365024879574776 0.01848888024687767
v 0.031747039407491684 0.05365024879574776 0.019343789666891098
v 0.034238509833812714 0.05365024879574776 0.016080670058727264
v 0.03299843892455101 0.05365024879574776 0.01725834049284458
v 0.033585481345653534 0.05365024879574776 0.01765936054289341
v 0.033585481345653534 0.05365024879574776 0.019528210163116455
v 0.03305000066757202 0.05365024879574776 0.01997130922973156
v 0.03347349166870117 0.05365030840039253 0.02138531021773815
v 0.031747039407491684 0.05365024879574776 0.019343789666891098
v 0.03053312934935093 0.05365024879574776 0.0197866503149271
v 0.031569600105285645 0.05365020036697388 0.02096300944685936
v 0.03575325012207031 0.05365024879574776 0.01921975053846836
v 0.034226350486278534 0.05365024879574776 0.019220350310206413
v 0.035086389631032944 0.05365020036697388 0.020484380424022675
v 0.034226350486278534 0.05365024879574776 0.019220350310206413
v 0.033585481345653534 0.05365024879574776 0.019528210163116455
v 0.035086389631032944 0.05365020036697388 0.020484380424022675
v 0.033585481345653534 0.05365024879574776 0.019528210163116455
v 0.03347349166870117 0.05365030840039253 0.02138531021773815
v 0.035086389631032944 0.05365020036697388 0.020484380424022675
v 0.034238509833812714 0.05365024879574776 0.016080670058727264
v 0.033585481345653534 0.05365024879574776 0.01765936054289341
v 0.03434509038925171 0.05365024879574776 0.017843779176473618
v 0.03560196980834007 0.05365024879574776 0.017381129786372185
v 0.034238509833812714 0.05365024879574776 0.016080670058727264
v 0.03434509038925171 0.05365024879574776 0.017843779176473618
v 0.03305000066757202 0.05365024879574776 0.01997130922973156
v 0.031747039407491684 0.05365024879574776 0.019343789666891098
v 0.031569600105285645 0.05365020036697388 0.02096300944685936
v 0.030725300312042236 0.05365024879574776 0.01702236942946911
v 0.03027760051190853 0.05365024879574776 0.01848888024687767
v 0.031747039407491684 0.05365024879574776 0.017843779176473618
v 0.032408591359853745 0.05365030840039253 0.015842489898204803
v 0.030725300312042236 0.05365024879574776 0.01702236942946911
v 0.031747039407491684 0.05365024879574776 0.017843779176473618
v 0.033585481345653534 0.05365024879574776 0.01765936054289341
v 0.0330459401011467 0.05282038077712059 0.01709364913403988
v 0.03417878970503807 0.05282038077712059 0.017884790897369385
v 0.033585481345653534 0.05365024879574776 0.01765936054289341
v 0.03299843892455101 0.05365024879574776 0.01725834049284458
v 0.0330459401011467 0.05282038077712059 0.01709364913403988
v 0.03434509038925171 0.05365024879574776 0.017843779176473618
v 0.033585481345653534 0.05365024879574776 0.01765936054289341
v 0.03417878970503807 0.05282038077712059 0.017884790897369385
v 0.03434509038925171 0.05365024879574776 0.017843779176473618
v 0.03417878970503807 0.05282038077712059 0.017884790897369385
v 0.03412503004074097 0.05282038077712059 0.01859365962445736
v 0.034226350486278534 0.05365024879574776 0.019220350310206413
v 0.03434509038925171 0.05365024879574776 0.017843779176473618
v 0.03412503004074097 0.05282038077712059 0.01859365962445736
v 0.034226350486278534 0.05365024879574776 0.019220350310206413
v 0.03412503004074097 0.05282038077712059 0.01859365962445736
v 0.03434509038925171 0.05282038077712059 0.019343789666891098
v 0.033585481345653534 0.05365024879574776 0.019528210163116455
v 0.03434509038925171 0.05282038077712059 0.019343789666891098
v 0.03304218873381615 0.05282038077712059 0.01997130922973156
v 0.033585481345653534 0.05365024879574776 0.019528210163116455
v 0.034226350486278534 0.05365024879574776 0.019220350310206413
v 0.03434509038925171 0.05282038077712059 0.019343789666891098
v 0.03305000066757202 0.05365024879574776 0.01997130922973156
v 0.033585481345653534 0.05365024879574776 0.019528210163116455
v 0.03304218873381615 0.05282038077712059 0.01997130922973156
v 0.03305000066757202 0.05365024879574776 0.01997130922973156
v 0.03304218873381615 0.05282038077712059 0.01997130922973156
v 0.03250658139586449 0.05282038077712059 0.019528210163116455
v 0.031747039407491684 0.05365024879574776 0.019343789666891098
v 0.03250658139586449 0.05282038077712059 0.019528210163116455
v 0.03186552971601486 0.05282038077712059 0.019220350310206413
v 0.031747039407491684 0.05365024879574776 0.019343789666891098
v 0.03305000066757202 0.05365024879574776 0.01997130922973156
v 0.03250658139586449 0.05282038077712059 0.019528210163116455
v 0.03196704015135765 0.05365024879574776 0.01859365962445736
v 0.031747039407491684 0.05365024879574776 0.019343789666891098
v 0.03186552971601486 0.05282038077712059 0.019220350310206413
v 0.03196704015135765 0.05365024879574776 0.01859365962445736
v 0.03186552971601486 0.05282038077712059 0.019220350310206413
v 0.031747039407491684 0.05282038077712059 0.017843779176473618
v 0.031747039407491684 0.05365024879574776 0.017843779176473618
v 0.03196704015135765 0.05365024879574776 0.01859365962445736
v 0.031747039407491684 0.05282038077712059 0.017843779176473618
v 0.031747039407491684 0.05365024879574776 0.017843779176473618
v 0.031747039407491684 0.05282038077712059 0.017843779176473618
v 0.03250658139586449 0.05282038077712059 0.01765936054289341
v 0.03299843892455101 0.05365024879574776 0.01725834049284458
v 0.031747039407491684 0.05365024879574776 0.017843779176473618
v 0.03250658139586449 0.05282038077712059 0.01765936054289341
v 0.03299843892455101 0.05365024879574776 0.01725834049284458
v 0.03250658139586449 0.05282038077712059 0.01765936054289341
v 0.0330459401011467 0.05282038077712059 0.01709364913403988
v 0.03250658139586449 0.05282038077712059 0.01765936054289341
v 0.03417878970503807 0.05282038077712059 0.017884790897369385
v 0.0330459401011467 0.05282038077712059 0.01709364913403988
v 0.03250658139586449 0.05282038077712059 0.01765936054289341
v 0.03412503004074097 0.05282038077712059 0.01859365962445736
v 0.03417878970503807 0.05282038077712059 0.017884790897369385
v 0.03304218873381615 0.05282038077712059 0.01997130922973156
v 0.03434509038925171 0.05282038077712059 0.019343789666891098
v 0.03412503004074097 0.05282038077712059 0.01859365962445736
v 0.03186552971601486 0.05282038077712059 0.019220350310206413
v 0.03250658139586449 0.05282038077712059 0.01765936054289341
v 0.031747039407491684 0.05282038077712059 0.017843779176473618
v 0.03250658139586449 0.05282038077712059 0.019528210163116455
v 0.03304218873381615 0.05282038077712059 0.01997130922973156
v 0.03412503004074097 0.05282038077712059 0.01859365962445736
v 0.03250658139586449 0.05282038077712059 0.019528210163116455
v 0.03412503004074097 0.05282038077712059 0.01859365962445736
v 0.03250658139586449 0.05282038077712059 0.01765936054289341
v 0.03250658139586449 0.05282038077712059 0.019528210163116455
v 0.03250658139586449 0.05282038077712059 0.01765936054289341
v 0.03186552971601486 0.05282038077712059 0.019220350310206413
vn -0.5610828465037726 -0.010033719358535852 0.8276988364345199
vn -0.5610828465037726 -0.010033719358535852 0.8276988364345199
vn -0.5610828465037726 -0.010033719358535852 0.8276988364345199
vn -0.6703293984832983 0.0033707020666828547 0.7420560193789935
vn -0.6703293984832983 0.0033707020666828547 0.7420560193789935
vn -0.6703293984832983 0.0033707020666828547 0.7420560193789935
vn 0.9556756169113608 0.00048660694335091924 0.29442126019493303
vn 0.9556756169113608 0.00048660694335091924 0.29442126019493303
vn 0.9556756169113608 0.00048660694335091924 0.29442126019493303
vn 0.9205197844766246 -0.012204279394439453 0.3905052905551612
vn 0.9205197844766246 -0.012204279394439453 0.3905052905551612
vn 0.9205197844766246 -0.012204279394439453 0.3905052905551612
vn -0.9603193752727164 0.0021873108948882924 0.2788940894799831
vn -0.9603193752727164 0.0021873108948882924 0.2788940894799831
vn -0.9603193752727164 0.0021873108948882924 0.2788940894799831
vn -0.9914353636453712 -0.013481549186645824 0.12990060640696993
vn -0.9914353636453712 -0.013481549186645824 0.12990060640696993
vn -0.9914353636453712 -0.013481549186645824 0.12990060640696993
vn 0.5497270341810142 0.015479198050403941 0.835200923322204
vn 0.5497270341810142 0.015479198050403941 0.835200923322204
vn 0.5497270341810142 0.015479198050403941 0.835200923322204
vn 0.20399367461798878 -0.018112828646507973 0.9788046312488884
vn 0.20399367461798878 -0.018112828646507973 0.9788046312488884
vn 0.20399367461798878 -0.018112828646507973 0.9788046312488884
vn -0.16791290147099922 0.009482800087000311 0.9857562244399477
vn -0.16791290147099922 0.009482800087000311 0.9857562244399477
vn -0.16791290147099922 0.009482800087000311 0.9857562244399477
vn 0.36784272328646217 -0.7300345091781387 0.5759699179073794
vn 0.36784272328646217 -0.7300345091781387 0.5759699179073794
vn 0.36784272328646217 -0.7300345091781387 0.5759699179073794
vn 0.28619389829581526 -0.6913196824000627 0.6634532005383055
vn 0.28619389829581526 -0.6913196824000627 0.6634532005383055
vn 0.28619389829581526 -0.6913196824000627 0.6634532005383055
vn 0.5544577950628861 -0.6837236425341751 0.47444550175315425
vn 0.5544577950628861 -0.6837236425341751 0.47444550175315425
vn 0.5544577950628861 -0.6837236425341751 0.47444550175315425
vn 0.6647440128215546 -0.7181342767955985 0.20590910108385085
vn 0.6647440128215546 -0.7181342767955985 0.20590910108385085
vn 0.6647440128215546 -0.7181342767955985 0.20590910108385085
vn 0.6644993405994171 -0.7191564420790598 0.20311237815339558
vn 0.6644993405994171 -0.7191564420790598 0.20311237815339558
vn 0.6644993405994171 -0.7191564420790598 0.20311237815339558
vn 0.7223907110400639 -0.6668022272502205 -0.18310229473487297
vn 0.7223907110400639 -0.6668022272502205 -0.18310229473487297
vn 0.7223907110400639 -0.6668022272502205 -0.18310229473487297
vn 0.701569121916121 -0.7045167503383982 -0.10703698270441778
vn 0.701569121916121 -0.7045167503383982 -0.10703698270441778
vn 0.701569121916121 -0.7045167503383982 -0.10703698270441778
vn 0.5309259934601219 -0.7079067883726446 -0.46581709762986384
vn 0.5309259934601219 -0.7079067883726446 -0.46581709762986384
vn 0.5309259934601219 -0.7079067883726446 -0.46581709762986384
vn 0.5289609990003641 -0.7048389860665921 -0.47265448824395495
vn 0.5289609990003641 -0.7048389860665921 -0.47265448824395495
vn 0.5289609990003641 -0.7048389860665921 -0.47265448824395495
vn 0.23189180134946152 -0.6994534892482286 -0.676011101125847
vn 0.23189180134946152 -0.6994534892482286 -0.676011101125847
vn 0.23189180134946152 -0.6994534892482286 -0.676011101125847
vn 0.24478939479671788 -0.6947086539731286 -0.676356443223468
vn 0.24478939479671788 -0.6947086539731286 -0.676356443223468
vn 0.24478939479671788 -0.6947086539731286 -0.676356443223468
vn -0.9746280009074402 0.11528160024056958 0.1918603984493418
vn -0.9746280009074402 0.11528160024056958 0.1918603984493418
vn -0.9746280009074402 0.11528160024056958 0.1918603984493418
vn -0.9913482703960836 -0.08236115457349978 0.10220199117440668
vn -0.9913482703960836 -0.08236115457349978 0.10220199117440668
vn -0.9913482703960836 -0.08236115457349978 0.10220199117440668
vn 0.9552236279956975 -0.10968379023807849 0.2748040878112011
vn 0.9552236279956975 -0.10968379023807849 0.2748040878112011
vn 0.9552236279956975 -0.10968379023807849 0.2748040878112011
vn -0.04833852848017272 -0.12569099601671185 0.9908910940081651
vn -0.04833852848017272 -0.12569099601671185 0.9908910940081651
vn -0.04833852848017272 -0.12569099601671185 0.9908910940081651
vn -0.20580039432822275 0.3113561795200934 0.9277410884341598
vn -0.20580039432822275 0.3113561795200934 0.9277410884341598
vn -0.20580039432822275 0.3113561795200934 0.9277410884341598
vn 0.8601932290465019 0.23309167582312895 0.4535811717482527
vn 0.8601932290465019 0.23309167582312895 0.4535811717482527
vn 0.8601932290465019 0.23309167582312895 0.4535811717482527
vn -0.44960701391892616 -0.2647413011025108 0.8530917749723392
vn -0.44960701391892616 -0.2647413011025108 0.8530917749723392
vn -0.44960701391892616 -0.2647413011025108 0.8530917749723392
vn 0.7403671846915377 -0.20169280756632202 0.6412304135082342
vn 0.7403671846915377 -0.20169280756632202 0.6412304135082342
vn 0.7403671846915377 -0.20169280756632202 0.6412304135082342
vn -0.7156348122924433 0.3004669800796245 0.6305445339680534
vn -0.7156348122924433 0.3004669800796245 0.6305445339680534
vn -0.7156348122924433 0.3004669800796245 0.6305445339680534
vn 0.4738228886871754 0.23639599828002208 0.8482975905620224
vn 0.4738228886871754 0.23639599828002208 0.8482975905620224
vn 0.4738228886871754 0.23639599828002208 0.8482975905620224
vn 0.40482573783150916 -0.05981634794110718 0.9124352725032953
vn 0.40482573783150916 -0.05981634794110718 0.9124352725032953
vn 0.40482573783150916 -0.05981634794110718 0.9124352725032953
vn -0.8563450569539968 -0.20022398220940021 0.4760078784838187
vn -0.8563450569539968 -0.20022398220940021 0.4760078784838187
vn -0.8563450569539968 -0.20022398220940021 0.4760078784838187
vn 0.3405616041366 0.008709251092462728 -0.9401818668392378
vn 0.3405616041366 0.008709251092462728 -0.9401818668392378
vn 0.3405616041366 0.008709251092462728 -0.9401818668392378
vn 0.7443919015682733 0.005482255824486224 -0.6677204817516419
vn 0.7443919015682733 0.005482255824486224 -0.6677204817516419
vn 0.7443919015682733 0.005482255824486224 -0.6677204817516419
vn -0.9638363012634472 0.00997114076974893 -0.2663083940069239
vn -0.9638363012634472 0.00997114076974893 -0.2663083940069239
vn -0.9638363012634472 0.00997114076974893 -0.2663083940069239
vn 0.8670422587913282 -0.016906731129216528 -0.4979476718617689
vn 0.8670422587913282 -0.016906731129216528 -0.4979476718617689
vn 0.8670422587913282 -0.016906731129216528 -0.4979476718617689
vn 0.9728931355284725 0.0037892461472331263 -0.23122410872401003
vn 0.9728931355284725 0.0037892461472331263 -0.23122410872401003
vn 0.9728931355284725 0.0037892461472331263 -0.23122410872401003
vn -0.7288488376774878 -0.010983280248486405 -0.6845865462972217
vn -0.7288488376774878 -0.010983280248486405 -0.6845865462972217
vn -0.7288488376774878 -0.010983280248486405 -0.6845865462972217
vn -0.6263920685483475 0.004232524442501015 -0.7794966723447676
vn -0.6263920685483475 0.004232524442501015 -0.7794966723447676
vn -0.6263920685483475 0.004232524442501015 -0.7794966723447676
vn -0.1081682878603037 -0.000545122945661826 -0.994132448088455
vn -0.1081682878603037 -0.000545122945661826 -0.994132448088455
vn -0.1081682878603037 -0.000545122945661826 -0.994132448088455
vn 0.03367142708495415 -0.014430037514000672 -0.9993287792390486
vn 0.03367142708495415 -0.014430037514000672 -0.9993287792390486
vn 0.03367142708495415 -0.014430037514000672 -0.9993287792390486
vn 0 -1 0
vn 0 -1 0
vn 0 -1 0
vn 0 -1 0
vn 0 -1 0
vn 0 -1 0
vn 0 -1 0
vn 0 -1 0
vn 0 -1 0
vn 0 -0.9999999999897189 0.000004534550043853179
vn 0 -0.9999999999897189 0.000004534550043853179
vn 0 -0.9999999999897189 0.000004534550043853179
vn 0 -1 0
vn 0 -1 0
vn 0 -1 0
vn -0.2960619697721645 -0.6998560592418162 -0.6500375422982438
vn -0.2960619697721645 -0.6998560592418162 -0.6500375422982438
vn -0.2960619697721645 -0.6998560592418162 -0.6500375422982438
vn -0.4325684263258535 -0.7231144232569368 -0.538507277038818
vn -0.4325684263258535 -0.7231144232569368 -0.538507277038818
vn -0.4325684263258535 -0.7231144232569368 -0.538507277038818
vn -0.49952418184439973 -0.6996309241351241 -0.5108739196186427
vn -0.49952418184439973 -0.6996309241351241 -0.5108739196186427
vn -0.49952418184439973 -0.6996309241351241 -0.5108739196186427
vn -0.6784452711237531 -0.6984361918945536 -0.2278133006249879
vn -0.6784452711237531 -0.6984361918945536 -0.2278133006249879
vn -0.6784452711237531 -0.6984361918945536 -0.2278133006249879
vn -0.6754616638086569 -0.7150752691702571 -0.18005249275121213
vn -0.6754616638086569 -0.7150752691702571 -0.18005249275121213
vn -0.6754616638086569 -0.7150752691702571 -0.18005249275121213
vn -0.6637387425795529 -0.7248056694862027 0.18468249261792863
vn -0.6637387425795529 -0.7248056694862027 0.18468249261792863
vn -0.6637387425795529 -0.7248056694862027 0.18468249261792863
vn -0.7145520664527163 -0.696306786112616 0.06761807407544614
vn -0.7145520664527163 -0.696306786112616 0.06761807407544614
vn -0.7145520664527163 -0.696306786112616 0.06761807407544614
vn -0.6312914453350872 -0.6862575371195732 0.3612778761470375
vn -0.6312914453350872 -0.6862575371195732 0.3612778761470375
vn -0.6312914453350872 -0.6862575371195732 0.3612778761470375
vn -0.4574646027109595 -0.728724296307268 0.5095949737173445
vn -0.4574646027109595 -0.728724296307268 0.5095949737173445
vn -0.4574646027109595 -0.728724296307268 0.5095949737173445
vn -0.04385225448155556 -0.7023718314355202 -0.7104581551244227
vn -0.04385225448155556 -0.7023718314355202 -0.7104581551244227
vn -0.04385225448155556 -0.7023718314355202 -0.7104581551244227
vn -0.03044270746119374 -0.6973489573469447 0.7160849623121276
vn -0.03044270746119374 -0.6973489573469447 0.7160849623121276
vn -0.03044270746119374 -0.6973489573469447 0.7160849623121276
vn -0.10957020076374403 -0.7238934238446882 0.6811554022534119
vn -0.10957020076374403 -0.7238934238446882 0.6811554022534119
vn -0.10957020076374403 -0.7238934238446882 0.6811554022534119
vn -0.3435921927099137 -0.6796736042189666 0.6480649634386917
vn -0.3435921927099137 -0.6796736042189666 0.6480649634386917
vn -0.3435921927099137 -0.6796736042189666 0.6480649634386917
vn -0.07657658162571751 -0.713591442791928 -0.6963643298738488
vn -0.07657658162571751 -0.713591442791928 -0.6963643298738488
vn -0.07657658162571751 -0.713591442791928 -0.6963643298738488
vn 0.980542206289791 -0.12054838527427049 -0.1549356914726727
vn 0.980542206289791 -0.12054838527427049 -0.1549356914726727
vn 0.980542206289791 -0.12054838527427049 -0.1549356914726727
vn 0.9846583532077233 0.15454508250040216 -0.08101694226023472
vn 0.9846583532077233 0.15454508250040216 -0.08101694226023472
vn 0.9846583532077233 0.15454508250040216 -0.08101694226023472
vn -0.0690406408029338 -0.18503178552735317 -0.9803043549133502
vn -0.0690406408029338 -0.18503178552735317 -0.9803043549133502
vn -0.0690406408029338 -0.18503178552735317 -0.9803043549133502
vn -0.9521406256357792 0.09465444051639493 -0.290635107831857
vn -0.9521406256357792 0.09465444051639493 -0.290635107831857
vn -0.9521406256357792 0.09465444051639493 -0.290635107831857
vn 0.1239535934761914 0.278880650632899 -0.9522925440046823
vn 0.1239535934761914 0.278880650632899 -0.9522925440046823
vn 0.1239535934761914 0.278880650632899 -0.9522925440046823
vn -0.9484628505290144 0.007583557681138604 -0.3167975865111244
vn -0.9484628505290144 0.007583557681138604 -0.3167975865111244
vn -0.9484628505290144 0.007583557681138604 -0.3167975865111244
vn 0.31988757170709514 -0.16446718224967455 -0.9330715339298431
vn 0.31988757170709514 -0.16446718224967455 -0.9330715339298431
vn 0.31988757170709514 -0.16446718224967455 -0.9330715339298431
vn 0.6656812636526224 0.26409111248508793 -0.6979429342920783
vn 0.6656812636526224 0.26409111248508793 -0.6979429342920783
vn 0.6656812636526224 0.26409111248508793 -0.6979429342920783
vn -0.6928971671717771 -0.1017888971897115 -0.7138154776510723
vn -0.6928971671717771 -0.1017888971897115 -0.7138154776510723
vn -0.6928971671717771 -0.1017888971897115 -0.7138154776510723
vn -0.5443062236038806 0.3172631888805231 -0.7765789103030314
vn -0.5443062236038806 0.3172631888805231 -0.7765789103030314
vn -0.5443062236038806 0.3172631888805231 -0.7765789103030314
vn 0.7538606374945577 -0.09014425992986105 -0.6508211364407249
vn 0.7538606374945577 -0.09014425992986105 -0.6508211364407249
vn 0.7538606374945577 -0.09014425992986105 -0.6508211364407249
vn -0.41171706271157577 -0.09599756577316126 -0.906241429001003
vn -0.41171706271157577 -0.09599756577316126 -0.906241429001003
vn -0.41171706271157577 -0.09599756577316126 -0.906241429001003
vn -0.00005852349919481652 0.9999999978684431 -0.000028950200368990624
vn -0.00005852349919481652 0.9999999978684431 -0.000028950200368990624
vn -0.00005852349919481652 0.9999999978684431 -0.000028950200368990624
vn 0.00003043539979139521 0.9999999990034172 0.00003266270138211412
vn 0.00003043539979139521 0.9999999990034172 0.00003266270138211412
vn 0.00003043539979139521 0.9999999990034172 0.00003266270138211412
vn 0 1 0
vn 0 1 0
vn 0 1 0
vn 0.00001751310081151196 0.9999999989961861 0.000041242201363712206
vn 0.00001751310081151196 0.9999999989961861 0.000041242201363712206
vn 0.00001751310081151196 0.9999999989961861 0.000041242201363712206
vn 0 1 0
vn 0 1 0
vn 0 1 0
vn 0 1 0
vn 0 1 0
vn 0 1 0
vn 0 1 0
vn 0 1 0
vn 0 1 0
vn 0 1 0
vn 0 1 0
vn 0 1 0
vn 0 1 0
vn 0 1 0
vn 0 1 0
vn -0.000029695100207393086 0.9999999989587234 -0.00003465190089657625
vn -0.000029695100207393086 0.9999999989587234 -0.00003465190089657625
vn -0.000029695100207393086 0.9999999989587234 -0.00003465190089657625
vn 0.000013988599666148813 0.9999999993000346 0.0000347023014667615
vn 0.000013988599666148813 0.9999999993000346 0.0000347023014667615
vn 0.000013988599666148813 0.9999999993000346 0.0000347023014667615
vn 0 0.999999998977336 0.00004522530066346669
vn 0 0.999999998977336 0.00004522530066346669
vn 0 0.999999998977336 0.00004522530066346669
vn 0.000017073900364067493 0.9999999990295128 0.000040613500420170456
vn 0.000017073900364067493 0.9999999990295128 0.000040613500420170456
vn 0.000017073900364067493 0.9999999990295128 0.000040613500420170456
vn 0.000059165998988224236 0.9999999977946774 -0.00003016670045949691
vn 0.000059165998988224236 0.9999999977946774 -0.00003016670045949691
vn 0.000059165998988224236 0.9999999977946774 -0.00003016670045949691
vn 0 1 0
vn 0 1 0
vn 0 1 0
vn 0 0.9999999999919398 0.000004015029844562758
vn 0 0.9999999999919398 0.000004015029844562758
vn 0 0.9999999999919398 0.000004015029844562758
vn -0.000016839700025613755 0.9999999992666733 0.00003439589997675879
vn -0.000016839700025613755 0.9999999992666733 0.00003439589997675879
vn -0.000016839700025613755 0.9999999992666733 0.00003439589997675879
vn 0 1 0
vn 0 1 0
vn 0 1 0
vn -0.000020099299933284066 0.9999999994028443 0.000028112799538159114
vn -0.000020099299933284066 0.9999999994028443 0.000028112799538159114
vn -0.000020099299933284066 0.9999999994028443 0.000028112799538159114
vn -0.5628371079606828 -0.1834050961148273 0.8059633742432505
vn -0.5628371079606828 -0.1834050961148273 0.8059633742432505
vn -0.5628371079606828 -0.1834050961148273 0.8059633742432505
vn -0.55348645529775 -0.1924598774424849 0.8103159503408258
vn -0.55348645529775 -0.1924598774424849 0.8103159503408258
vn -0.55348645529775 -0.1924598774424849 0.8103159503408258
vn -0.2348811880516457 0.09487025262257896 0.9673833070023358
vn -0.2348811880516457 0.09487025262257896 0.9673833070023358
vn -0.2348811880516457 0.09487025262257896 0.9673833070023358
vn -0.9785078799684646 0.19239619444514203 -0.0742026495662252
vn -0.9785078799684646 0.19239619444514203 -0.0742026495662252
vn -0.9785078799684646 0.19239619444514203 -0.0742026495662252
vn -0.979406453117444 0.1833931015758867 -0.08443914901445053
vn -0.979406453117444 0.1833931015758867 -0.08443914901445053
vn -0.979406453117444 0.1833931015758867 -0.08443914901445053
vn -0.9552233218194818 -0.094912692895014 0.28024986383506356
vn -0.9552233218194818 -0.094912692895014 0.28024986383506356
vn -0.9552233218194818 -0.094912692895014 0.28024986383506356
vn -0.4257564608979115 -0.19316907518779788 -0.8839780225745298
vn -0.4257564608979115 -0.19316907518779788 -0.8839780225745298
vn -0.4257564608979115 -0.19316907518779788 -0.8839780225745298
vn -0.42497724937532805 -0.19233116798472846 -0.8845355048470416
vn -0.42497724937532805 -0.19233116798472846 -0.8845355048470416
vn -0.42497724937532805 -0.19233116798472846 -0.8845355048470416
vn -0.6374219705498936 0.006000696728047073 -0.7704915464163565
vn -0.6374219705498936 0.006000696728047073 -0.7704915464163565
vn -0.6374219705498936 0.006000696728047073 -0.7704915464163565
vn 0.6373724243812425 -0.00600021928675856 -0.7705325366309252
vn 0.6373724243812425 -0.00600021928675856 -0.7705325366309252
vn 0.6373724243812425 -0.00600021928675856 -0.7705325366309252
vn 0.42492098818210117 0.1922648901490918 -0.8845769417175109
vn 0.42492098818210117 0.1922648901490918 -0.8845769417175109
vn 0.42492098818210117 0.1922648901490918 -0.8845769417175109
vn 0.4257422761353194 0.19314468250513078 -0.8839901842956797
vn 0.4257422761353194 0.19314468250513078 -0.8839901842956797
vn 0.4257422761353194 0.19314468250513078 -0.8839901842956797
vn 0.9552563944344449 0.09477780679384616 0.280182776471811
vn 0.9552563944344449 0.09477780679384616 0.280182776471811
vn 0.9552563944344449 0.09477780679384616 0.280182776471811
vn 0.979411389602803 -0.18340960631906938 -0.08434599116846365
vn 0.979411389602803 -0.18340960631906938 -0.08434599116846365
vn 0.979411389602803 -0.18340960631906938 -0.08434599116846365
vn 0.9595624590112325 0 -0.28149580326590395
vn 0.9595624590112325 0 -0.28149580326590395
vn 0.9595624590112325 0 -0.28149580326590395
vn 0.23594257048201772 0 0.971767000589307
vn 0.23594257048201772 0 0.971767000589307
vn 0.23594257048201772 0 0.971767000589307
vn 0.4165672763362311 0.18337329187570348 0.8904189688638053
vn 0.4165672763362311 0.18337329187570348 0.8904189688638053
vn 0.4165672763362311 0.18337329187570348 0.8904189688638053
vn 0.720415847507943 -0.09499727412335959 0.6870054763744926
vn 0.720415847507943 -0.09499727412335959 0.6870054763744926
vn 0.720415847507943 -0.09499727412335959 0.6870054763744926
vn 0 1 0
vn 0 1 0
vn 0 1 0
vn 0 0.9999999999837792 -0.00000569576013722182
vn 0 0.9999999999837792 -0.00000569576013722182
vn 0 0.9999999999837792 -0.00000569576013722182
vn 0 0.9999999999946807 0.000003261709935014481
vn 0 0.9999999999946807 0.000003261709935014481
vn 0 0.9999999999946807 0.000003261709935014481
vn 0 0.9999999999767684 -0.000006816389941219209
vn 0 0.9999999999767684 -0.000006816389941219209
vn 0 0.9999999999767684 -0.000006816389941219209
vn 0 1 0
vn 0 1 0
vn 0 1 0
vn 0 1 0
vn 0 1 0
vn 0 1 0
vn 0 1 0
vn 0 1 0
vn 0 1 0
f 1//1 2//2 3//3
f 4//4 5//5 6//6
f 7//7 8//8 9//9
f 10//10 11//11 12//12
f 13//13 14//14 15//15
f 16//16 17//17 18//18
f 19//19 20//20 21//21
f 22//22 23//23 24//24
f 25//25 26//26 27//27
f 28//28 29//29 30//30
f 31//31 32//32 33//33
f 34//34 35//35 36//36
f 37//37 38//38 39//39
f 40//40 41//41 42//42
f 43//43 44//44 45//45
f 46//46 47//47 48//48
f 49//49 50//50 51//51
f 52//52 53//53 54//54
f 55//55 56//56 57//57
f 58//58 59//59 60//60
f 61//61 62//62 63//63
f 64//64 65//65 66//66
f 67//67 68//68 69//69
f 70//70 71//71 72//72
f 73//73 74//74 75//75
f 76//76 77//77 78//78
f 79//79 80//80 81//81
f 82//82 83//83 84//84
f 85//85 86//86 87//87
f 88//88 89//89 90//90
f 91//91 92//92 93//93
f 94//94 95//95 96//96
f 97//97 98//98 99//99
f 100//100 101//101 102//102
f 103//103 104//104 105//105
f 106//106 107//107 108//108
f 109//109 110//110 111//111
f 112//112 113//113 114//114
f 115//115 116//116 117//117
f 118//118 119//119 120//120
f 121//121 122//122 123//123
f 124//124 125//125 126//126
f 127//127 128//128 129//129
f 130//130 131//131 132//132
f 133//133 134//134 135//135
f 136//136 137//137 138//138
f 139//139 140//140 141//141
f 142//142 143//143 144//144
f 145//145 146//146 147//147
f 148//148 149//149 150//150
f 151//151 152//152 153//153
f 154//154 155//155 156//156
f 157//157 158//158 159//159
f 160//160 161//161 162//162
f 163//163 164//164 165//165
f 166//166 167//167 168//168
f 169//169 170//170 171//171
f 172//172 173//173 174//174
f 175//175 176//176 177//177
f 178//178 179//179 180//180
f 181//181 182//182 183//183
f 184//184 185//185 186//186
f 187//187 188//188 189//189
f 190//190 191//191 192//192
f 193//193 194//194 195//195
f 196//196 197//197 198//198
f 199//199 200//200 201//201
f 202//202 203//203 204//204
f 205//205 206//206 207//207
f 208//208 209//209 210//210
f 211//211 212//212 213//213
f 214//214 215//215 216//216
f 217//217 218//218 219//219
f 220//220 221//221 222//222
f 223//223 224//224 225//225
f 226//226 227//227 228//228
f 229//229 230//230 231//231
f 232//232 233//233 234//234
f 235//235 236//236 237//237
f 238//238 239//239 240//240
f 241//241 242//242 243//243
f 244//244 245//245 246//246
f 247//247 248//248 249//249
f 250//250 251//251 252//252
f 253//253 254//254 255//255
f 256//256 257//257 258//258
f 259//259 260//260 261//261
f 262//262 263//263 264//264
f 265//265 266//266 267//267
f 268//268 269//269 270//270
f 271//271 272//272 273//273
f 274//274 275//275 276//276
f 277//277 278//278 279//279
f 280//280 281//281 282//282
f 283//283 284//284 285//285
f 286//286 287//287 288//288
f 289//289 290//290 291//291
f 292//292 293//293 294//294
f 295//295 296//296 297//297
f 298//298 299//299 300//300
f 301//301 302//302 303//303
f 304//304 305//305 306//306
f 307//307 308//308 309//309
f 310//310 311//311 312//312
f 313//313 314//314 315//315
f 316//316 317//317 318//318
f 319//319 320//320 321//321
f 322//322 323//323 324//324
f 325//325 326//326 327//327
f 328//328 329//329 330//330
f 331//331 332//332 333//333
f 334//334 335//335 336//336
f 337//337 338//338 339//339
f 340//340 341//341 342//342
f 343//343 344//344 345//345
f 346//346 347//347 348//348
