o node9
usemtl verbindung
v -0.03285299986600876 -0.042200081050395966 0.23023730516433716
v -0.03481864184141159 -0.042200081050395966 0.2504971921443939
v -0.035153210163116455 -0.0503002405166626 0.24569739401340485
v -0.03285299986600876 -0.042200081050395966 0.23023730516433716
v -0.035153210163116455 -0.0503002405166626 0.24569739401340485
v -0.03293401002883911 -0.0503002405166626 0.2309200018644333
v -0.03285299986600876 -0.042200081050395966 0.23023730516433716
v -0.03293401002883911 -0.0503002405166626 0.2309200018644333
v -0.022029630839824677 -0.05030018091201782 0.2157886028289795
v -0.022400250658392906 -0.042200081050395966 0.21645179390907288
v -0.03285299986600876 -0.042200081050395966 0.23023730516433716
v -0.022029630839824677 -0.05030018091201782 0.2157886028289795
v -0.009131193161010742 -0.042200081050395966 0.20956869423389435
v -0.022400250658392906 -0.042200081050395966 0.21645179390907288
v -0.022029630839824677 -0.05030018091201782 0.2157886028289795
v -0.009131193161010742 -0.042200081050395966 0.20956869423389435
v -0.022029630839824677 -0.05030018091201782 0.2157886028289795
v -0.0037786359898746014 -0.05030018091201782 0.2084600031375885
v 0.009882806800305843 -0.042200081050395966 0.2094610035419464
v -0.009131193161010742 -0.042200081050395966 0.20956869423389435
v -0.0037786359898746014 -0.05030018091201782 0.2084600031375885
v 0.009882806800305843 -0.042200081050395966 0.2094610035419464
v -0.0037786359898746014 -0.05030018091201782 0.2084600031375885
v 0.010365360416471958 -0.0503002405166626 0.210097998380661
v 0.009882806800305843 -0.042200081050395966 0.2094610035419464
v 0.010365360416471958 -0.0503002405166626 0.210097998380661
v 0.022731060162186623 -0.05030018091201782 0.21655979752540588
v 0.024109840393066406 -0.042200200259685516 0.2180953025817871
v 0.009882806800305843 -0.042200081050395966 0.2094610035419464
v 0.022731060162186623 -0.05030018091201782 0.21655979752540588
v 0.032137978821992874 -0.04220014065504074 0.2290268987417221
v 0.024109840393066406 -0.042200200259685516 0.2180953025817871
v 0.022731060162186623 -0.05030018091201782 0.21655979752540588
v 0.032137978821992874 -0.04220014065504074 0.2290268987417221
v 0.022731060162186623 -0.05030018091201782 0.21655979752540588
v 0.03222363814711571 -0.05030018091201782 0.2293975055217743
v 0.032137978821992874 -0.04220014065504074 0.2290268987417221
v 0.03222363814711571 -0.05030018091201782 0.2293975055217743
v 0.03530174121260643 -0.0503002405166626 0.2443481981754303
v 0.03531146049499512 -0.042200081050395966 0.24603979289531708
v 0.032137978821992874 -0.04220014065504074 0.2290268987417221
v 0.03530174121260643 -0.0503002405166626 0.2443481981754303
v 0.0376436710357666 -0.0503002405166626 0.24013400077819824
v 0.037482261657714844 -0.042200081050395966 0.23870129883289337
v 0.03616505116224289 -0.042200081050395966 0.25441721081733704
v 0.035136401653289795 -0.0503002405166626 0.25783270597457886
v 0.0376436710357666 -0.0503002405166626 0.24013400077819824
v 0.03616505116224289 -0.042200081050395966 0.25441721081733704
v 0.035136401653289795 -0.0503002405166626 0.25783270597457886
v 0.03616505116224289 -0.042200081050395966 0.25441721081733704
v 0.028022760525345802 -0.042200200259685516 0.2691541016101837
v 0.022323479875922203 -0.0503002405166626 0.2745085060596466
v 0.035136401653289795 -0.0503002405166626 0.25783270597457886
v 0.028022760525345802 -0.042200200259685516 0.2691541016101837
v 0.022323479875922203 -0.0503002405166626 0.2745085060596466
v 0.028022760525345802 -0.042200200259685516 0.2691541016101837
v 0.015087000094354153 -0.04220014065504074 0.2781665027141571
v 0.004557787906378508 -0.0503002405166626 0.28110769391059875
v 0.022323479875922203 -0.0503002405166626 0.2745085060596466
v 0.015087000094354153 -0.04220014065504074 0.2781665027141571
v 0.004557787906378508 -0.0503002405166626 0.28110769391059875
v 0.015087000094354153 -0.04220014065504074 0.2781665027141571
v 0.001059353002347052 -0.04220014065504074 0.28141748905181885
v -0.011157509870827198 -0.0503002405166626 0.2797737121582031
v 0.004557787906378508 -0.0503002405166626 0.28110769391059875
v 0.001059353002347052 -0.04220014065504074 0.28141748905181885
v -0.011157509870827198 -0.0503002405166626 0.2797737121582031
v 0.001059353002347052 -0.04220014065504074 0.28141748905181885
v -0.016452550888061523 -0.04220014065504074 0.27781549096107483
v -0.023462289944291115 -0.05030030012130737 0.2730731964111328
v -0.011157509870827198 -0.0503002405166626 0.2797737121582031
v -0.016452550888061523 -0.04220014065504074 0.27781549096107483
v -0.023462289944291115 -0.05030030012130737 0.2730731964111328
v -0.016452550888061523 -0.04220014065504074 0.27781549096107483
v -0.030411720275878906 -0.042200081050395966 0.2661122977733612
v -0.03212666139006615 -0.0503002405166626 0.2634415924549103
v -0.023462289944291115 -0.05030030012130737 0.2730731964111328
v -0.030411720275878906 -0.042200081050395966 0.2661122977733612
v -0.03212666139006615 -0.0503002405166626 0.2634415924549103
v -0.030411720275878906 -0.042200081050395966 0.2661122977733612
v -0.03788464888930321 -0.042200081050395966 0.24756750464439392
v -0.03804469108581543 -0.0503002405166626 0.24543729424476624
v -0.03212666139006615 -0.0503002405166626 0.2634415924549103
v -0.03788464888930321 -0.042200081050395966 0.24756750464439392
v -0.016452550888061523 -0.04220014065504074 0.27781549096107483
v 0.001059353002347052 -0.04220014065504074 0.28141748905181885
v -0.006150722038000822 -0.04220014065504074 0.2785339951515198
v 0.024109840393066406 -0.042200200259685516 0.2180953025817871
v 0.03109990991652012 -0.042200081050395966 0.22200480103492737
v 0.017654530704021454 -0.04220014065504074 0.21021750569343567
v 0.032137978821992874 -0.04220014065504074 0.2290268987417221
v 0.03109990991652012 -0.042200081050395966 0.22200480103492737
v 0.024109840393066406 -0.042200200259685516 0.2180953025817871
v 0.009882806800305843 -0.042200081050395966 0.2094610035419464
v 0.024109840393066406 -0.042200200259685516 0.2180953025817871
v 0.017654530704021454 -0.04220014065504074 0.21021750569343567
v -0.030411720275878906 -0.042200081050395966 0.2661122977733612
v -0.03481864184141159 -0.042200081050395966 0.2504971921443939
v -0.03788464888930321 -0.042200081050395966 0.24756750464439392
v -0.016452550888061523 -0.04220014065504074 0.27781549096107483
v -0.006150722038000822 -0.04220014065504074 0.2785339951515198
v -0.02466725930571556 -0.04220014065504074 0.2693031132221222
v -0.030411720275878906 -0.042200081050395966 0.2661122977733612
v -0.02466725930571556 -0.04220014065504074 0.2693031132221222
v -0.03481864184141159 -0.042200081050395966 0.2504971921443939
v 0.032137978821992874 -0.04220014065504074 0.2290268987417221
v 0.037482261657714844 -0.042200081050395966 0.23870129883289337
v 0.03109990991652012 -0.042200081050395966 0.22200480103492737
v 0.009882806800305843 -0.042200081050395966 0.2094610035419464
v 0.017654530704021454 -0.04220014065504074 0.21021750569343567
v 0.0024501080624759197 -0.042200081050395966 0.20599569380283356
v -0.030411720275878906 -0.042200081050395966 0.2661122977733612
v -0.016452550888061523 -0.04220014065504074 0.27781549096107483
v -0.02466725930571556 -0.04220014065504074 0.2693031132221222
v 0.03531146049499512 -0.042200081050395966 0.24603979289531708
v 0.037482261657714844 -0.042200081050395966 0.23870129883289337
v 0.032137978821992874 -0.04220014065504074 0.2290268987417221
v -0.009131193161010742 -0.042200081050395966 0.20956869423389435
v 0.009882806800305843 -0.042200081050395966 0.2094610035419464
v 0.0024501080624759197 -0.042200081050395966 0.20599569380283356
v 0.03531146049499512 -0.042200081050395966 0.24603979289531708
v 0.03616505116224289 -0.042200081050395966 0.25441721081733704
v 0.037482261657714844 -0.042200081050395966 0.23870129883289337
v -0.015198229812085629 -0.042200081050395966 0.20883910357952118
v -0.009131193161010742 -0.042200081050395966 0.20956869423389435
v 0.0024501080624759197 -0.042200081050395966 0.20599569380283356
v 0.030804870650172234 -0.04220014065504074 0.2606216073036194
v 0.03616505116224289 -0.042200081050395966 0.25441721081733704
v 0.03531146049499512 -0.042200081050395966 0.24603979289531708
v 0.028022760525345802 -0.042200200259685516 0.2691541016101837
v 0.03616505116224289 -0.042200081050395966 0.25441721081733704
v 0.030804870650172234 -0.04220014065504074 0.2606216073036194
v -0.022400250658392906 -0.042200081050395966 0.21645179390907288
v -0.009131193161010742 -0.042200081050395966 0.20956869423389435
v -0.015198229812085629 -0.042200081050395966 0.20883910357952118
v 0.023143639788031578 -0.04220002144575119 0.2701326012611389
v 0.028022760525345802 -0.042200200259685516 0.2691541016101837
v 0.030804870650172234 -0.04220014065504074 0.2606216073036194
v -0.028061330318450928 -0.04220014065504074 0.21857500076293945
v -0.022400250658392906 -0.042200081050395966 0.21645179390907288
v -0.015198229812085629 -0.042200081050395966 0.20883910357952118
v -0.03285299986600876 -0.042200081050395966 0.23023730516433716
v -0.022400250658392906 -0.042200081050395966 0.21645179390907288
v -0.028061330318450928 -0.04220014065504074 0.21857500076293945
v -0.034841228276491165 -0.042200081050395966 0.22921830415725708
v -0.03285299986600876 -0.042200081050395966 0.23023730516433716
v -0.028061330318450928 -0.04220014065504074 0.21857500076293945
v 0.015087000094354153 -0.04220014065504074 0.2781665027141571
v 0.028022760525345802 -0.042200200259685516 0.2691541016101837
v 0.023143639788031578 -0.04220002144575119 0.2701326012611389
v 0.011097780428826809 -0.04220014065504074 0.2771424949169159
v 0.015087000094354153 -0.04220014065504074 0.2781665027141571
v 0.023143639788031578 -0.04220002144575119 0.2701326012611389
v 0.001059353002347052 -0.04220014065504074 0.28141748905181885
v 0.015087000094354153 -0.04220014065504074 0.2781665027141571
v 0.011097780428826809 -0.04220014065504074 0.2771424949169159
v -0.03788464888930321 -0.042200081050395966 0.24756750464439392
v -0.03285299986600876 -0.042200081050395966 0.23023730516433716
v -0.034841228276491165 -0.042200081050395966 0.22921830415725708
v -0.03788464888930321 -0.042200081050395966 0.24756750464439392
v -0.03481864184141159 -0.042200081050395966 0.2504971921443939
v -0.03285299986600876 -0.042200081050395966 0.23023730516433716
v 0.001059353002347052 -0.04220014065504074 0.28141748905181885
v 0.011097780428826809 -0.04220014065504074 0.2771424949169159
v -0.006150722038000822 -0.04220014065504074 0.2785339951515198
v -0.007168889045715332 -0.0503002405166626 0.27837130427360535
v 0.004557787906378508 -0.0503002405166626 0.28110769391059875
v -0.011157509870827198 -0.0503002405166626 0.2797737121582031
v -0.035153210163116455 -0.0503002405166626 0.24569739401340485
v -0.03225969895720482 -0.05030030012130737 0.25756651163101196
v -0.03804469108581543 -0.0503002405166626 0.24543729424476624
v 0.024376150220632553 -0.05030012130737305 0.21478310227394104
v 0.033316489309072495 -0.05030018091201782 0.2260695993900299
v 0.022731060162186623 -0.05030018091201782 0.21655979752540588
v 0.022731060162186623 -0.05030018091201782 0.21655979752540588
v 0.033316489309072495 -0.05030018091201782 0.2260695993900299
v 0.03222363814711571 -0.05030018091201782 0.2293975055217743
v -0.03804469108581543 -0.0503002405166626 0.24543729424476624
v -0.03225969895720482 -0.05030030012130737 0.25756651163101196
v -0.03212666139006615 -0.0503002405166626 0.2634415924549103
v 0.006386280059814453 -0.05030018091201782 0.2060658037662506
v 0.024376150220632553 -0.05030012130737305 0.21478310227394104
v 0.022731060162186623 -0.05030018091201782 0.21655979752540588
v 0.006386280059814453 -0.05030018091201782 0.2060658037662506
v 0.022731060162186623 -0.05030018091201782 0.21655979752540588
v 0.010365360416471958 -0.0503002405166626 0.210097998380661
v -0.02404475025832653 -0.0503002405166626 0.2696208953857422
v -0.007168889045715332 -0.0503002405166626 0.27837130427360535
v -0.011157509870827198 -0.0503002405166626 0.2797737121582031
v -0.02404475025832653 -0.0503002405166626 0.2696208953857422
v -0.011157509870827198 -0.0503002405166626 0.2797737121582031
v -0.023462289944291115 -0.05030030012130737 0.2730731964111328
v -0.03225969895720482 -0.05030030012130737 0.25756651163101196
v -0.02404475025832653 -0.0503002405166626 0.2696208953857422
v -0.03212666139006615 -0.0503002405166626 0.2634415924549103
v 0.033316489309072495 -0.05030018091201782 0.2260695993900299
v 0.0376436710357666 -0.0503002405166626 0.24013400077819824
v 0.03222363814711571 -0.05030018091201782 0.2293975055217743
v -0.03212666139006615 -0.0503002405166626 0.2634415924549103
v -0.02404475025832653 -0.0503002405166626 0.2696208953857422
v -0.023462289944291115 -0.05030030012130737 0.2730731964111328
v 0.03222363814711571 -0.05030018091201782 0.2293975055217743
v 0.0376436710357666 -0.0503002405166626 0.24013400077819824
v 0.03530174121260643 -0.0503002405166626 0.2443481981754303
v 0.006386280059814453 -0.05030018091201782 0.2060658037662506
v 0.010365360416471958 -0.0503002405166626 0.210097998380661
v -0.0037786359898746014 -0.05030018091201782 0.2084600031375885
v 0.03530174121260643 -0.0503002405166626 0.2443481981754303
v 0.0376436710357666 -0.0503002405166626 0.24013400077819824
v 0.035136401653289795 -0.0503002405166626 0.25783270597457886
v 0.006386280059814453 -0.05030018091201782 0.2060658037662506
v -0.0037786359898746014 -0.05030018091201782 0.2084600031375885
v -0.013474100269377232 -0.0503002405166626 0.2083519995212555
v 0.03530174121260643 -0.0503002405166626 0.2443481981754303
v 0.035136401653289795 -0.0503002405166626 0.25783270597457886
v 0.03236448019742966 -0.0503002405166626 0.2572770118713379
v -0.013474100269377232 -0.0503002405166626 0.2083519995212555
v -0.0037786359898746014 -0.05030018091201782 0.2084600031375885
v -0.022029630839824677 -0.05030018091201782 0.2157886028289795
v 0.03236448019742966 -0.0503002405166626 0.2572770118713379
v 0.035136401653289795 -0.0503002405166626 0.25783270597457886
v 0.025850290432572365 -0.05030018091201782 0.2675929069519043
v -0.013474100269377232 -0.0503002405166626 0.2083519995212555
v -0.022029630839824677 -0.05030018091201782 0.2157886028289795
v -0.024828430265188217 -0.05030018091201782 0.21539099514484406
v 0.025850290432572365 -0.05030018091201782 0.2675929069519043
v 0.035136401653289795 -0.0503002405166626 0.25783270597457886
v 0.022323479875922203 -0.0503002405166626 0.2745085060596466
v -0.024828430265188217 -0.05030018091201782 0.21539099514484406
v -0.022029630839824677 -0.05030018091201782 0.2157886028289795
v -0.03343253955245018 -0.0503002405166626 0.22599579393863678
v -0.03343253955245018 -0.0503002405166626 0.22599579393863678
v -0.022029630839824677 -0.05030018091201782 0.2157886028289795
v -0.03293401002883911 -0.0503002405166626 0.2309200018644333
v 0.025850290432572365 -0.05030018091201782 0.2675929069519043
v 0.022323479875922203 -0.0503002405166626 0.2745085060596466
v 0.012115240097045898 -0.0503002405166626 0.27693578600883484
v 0.012115240097045898 -0.0503002405166626 0.27693578600883484
v 0.022323479875922203 -0.0503002405166626 0.2745085060596466
v 0.004557787906378508 -0.0503002405166626 0.28110769391059875
v -0.03343253955245018 -0.0503002405166626 0.22599579393863678
v -0.03293401002883911 -0.0503002405166626 0.2309200018644333
v -0.03804469108581543 -0.0503002405166626 0.24543729424476624
v -0.03804469108581543 -0.0503002405166626 0.24543729424476624
v -0.03293401002883911 -0.0503002405166626 0.2309200018644333
v -0.035153210163116455 -0.0503002405166626 0.24569739401340485
v -0.007168889045715332 -0.0503002405166626 0.27837130427360535
v 0.012115240097045898 -0.0503002405166626 0.27693578600883484
v 0.004557787906378508 -0.0503002405166626 0.28110769391059875
v -0.03804469108581543 -0.0503002405166626 0.24543729424476624
v -0.03788464888930321 -0.042200081050395966 0.24756750464439392
v -0.034841228276491165 -0.042200081050395966 0.22921830415725708
v -0.03343253955245018 -0.0503002405166626 0.22599579393863678
v -0.03804469108581543 -0.0503002405166626 0.24543729424476624
v -0.034841228276491165 -0.042200081050395966 0.22921830415725708
v -0.03343253955245018 -0.0503002405166626 0.22599579393863678
v -0.034841228276491165 -0.042200081050395966 0.22921830415725708
v -0.028061330318450928 -0.04220014065504074 0.21857500076293945
v -0.024828430265188217 -0.05030018091201782 0.21539099514484406
v -0.03343253955245018 -0.0503002405166626 0.22599579393863678
v -0.028061330318450928 -0.04220014065504074 0.21857500076293945
v -0.024828430265188217 -0.05030018091201782 0.21539099514484406
v -0.028061330318450928 -0.04220014065504074 0.21857500076293945
v -0.015198229812085629 -0.042200081050395966 0.20883910357952118
v -0.013474100269377232 -0.0503002405166626 0.2083519995212555
v -0.024828430265188217 -0.05030018091201782 0.21539099514484406
v -0.015198229812085629 -0.042200081050395966 0.20883910357952118
v 0.006386280059814453 -0.05030018091201782 0.2060658037662506
v -0.013474100269377232 -0.0503002405166626 0.2083519995212555
v -0.015198229812085629 -0.042200081050395966 0.20883910357952118
v 0.006386280059814453 -0.05030018091201782 0.2060658037662506
v -0.015198229812085629 -0.042200081050395966 0.20883910357952118
v 0.0024501080624759197 -0.042200081050395966 0.20599569380283356
v 0.006386280059814453 -0.05030018091201782 0.2060658037662506
v 0.0024501080624759197 -0.042200081050395966 0.20599569380283356
v 0.017654530704021454 -0.04220014065504074 0.21021750569343567
v 0.024376150220632553 -0.05030012130737305 0.21478310227394104
v 0.006386280059814453 -0.05030018091201782 0.2060658037662506
v 0.017654530704021454 -0.04220014065504074 0.21021750569343567
v 0.024376150220632553 -0.05030012130737305 0.21478310227394104
v 0.017654530704021454 -0.04220014065504074 0.21021750569343567
v 0.03109990991652012 -0.042200081050395966 0.22200480103492737
v 0.033316489309072495 -0.05030018091201782 0.2260695993900299
v 0.024376150220632553 -0.05030012130737305 0.21478310227394104
v 0.03109990991652012 -0.042200081050395966 0.22200480103492737
v 0.033316489309072495 -0.05030018091201782 0.2260695993900299
v 0.03109990991652012 -0.042200081050395966 0.22200480103492737
v 0.037482261657714844 -0.042200081050395966 0.23870129883289337
v 0.0376436710357666 -0.0503002405166626 0.24013400077819824
v 0.033316489309072495 -0.05030018091201782 0.2260695993900299
v 0.037482261657714844 -0.042200081050395966 0.23870129883289337
v 0.03531146049499512 -0.042200081050395966 0.24603979289531708
v 0.03530174121260643 -0.0503002405166626 0.2443481981754303
v 0.03236448019742966 -0.0503002405166626 0.2572770118713379
v 0.030804870650172234 -0.04220014065504074 0.2606216073036194
v 0.03531146049499512 -0.042200081050395966 0.24603979289531708
v 0.03236448019742966 -0.0503002405166626 0.2572770118713379
v 0.030804870650172234 -0.04220014065504074 0.2606216073036194
v 0.03236448019742966 -0.0503002405166626 0.2572770118713379
v 0.025850290432572365 -0.05030018091201782 0.2675929069519043
v 0.023143639788031578 -0.04220002144575119 0.2701326012611389
v 0.030804870650172234 -0.04220014065504074 0.2606216073036194
v 0.025850290432572365 -0.05030018091201782 0.2675929069519043
v 0.023143639788031578 -0.04220002144575119 0.2701326012611389
v 0.025850290432572365 -0.05030018091201782 0.2675929069519043
v 0.012115240097045898 -0.0503002405166626 0.27693578600883484
v 0.011097780428826809 -0.04220014065504074 0.2771424949169159
v 0.023143639788031578 -0.04220002144575119 0.2701326012611389
v 0.012115240097045898 -0.0503002405166626 0.27693578600883484
v -0.006150722038000822 -0.04220014065504074 0.2785339951515198
v 0.011097780428826809 -0.04220014065504074 0.2771424949169159
v 0.012115240097045898 -0.0503002405166626 0.27693578600883484
v -0.006150722038000822 -0.04220014065504074 0.2785339951515198
v 0.012115240097045898 -0.0503002405166626 0.27693578600883484
v -0.007168889045715332 -0.0503002405166626 0.27837130427360535
v -0.02466725930571556 -0.04220014065504074 0.2693031132221222
v -0.006150722038000822 -0.04220014065504074 0.2785339951515198
v -0.007168889045715332 -0.0503002405166626 0.27837130427360535
v -0.02466725930571556 -0.04220014065504074 0.2693031132221222
v -0.007168889045715332 -0.0503002405166626 0.27837130427360535
v -0.02404475025832653 -0.0503002405166626 0.2696208953857422
v -0.02466725930571556 -0.04220014065504074 0.2693031132221222
v -0.02404475025832653 -0.0503002405166626 0.2696208953857422
v -0.03225969895720482 -0.05030030012130737 0.25756651163101196
v -0.03481864184141159 -0.042200081050395966 0.2504971921443939
v -0.02466725930571556 -0.04220014065504074 0.2693031132221222
v -0.03225969895720482 -0.05030030012130737 0.25756651163101196
v -0.03481864184141159 -0.042200081050395966 0.2504971921443939
v -0.03225969895720482 -0.05030030012130737 0.25756651163101196
v -0.035153210163116455 -0.0503002405166626 0.24569739401340485
vn 0.9232871754330573 0.00012207500115048948 0.38411037056885233
vn 0.9805739254067527 -0.02890138807904478 -0.19400898582152534
vn 0.9998328016872008 -0.017182167494287436 -0.006256340025978873
vn 0.9232871754330573 0.00012207500115048948 0.38411037056885233
vn 0.9998328016872008 -0.017182167494287436 -0.006256340025978873
vn 0.9304926389495053 0.021515838788169164 0.3656781611499752
vn 0.9232871754330573 0.00012207500115048948 0.38411037056885233
vn 0.9304926389495053 0.021515838788169164 0.3656781611499752
vn 0.625288886065729 0.0021668669621785278 0.7803903597881306
vn 0.6534786754770266 -0.03201466021565816 0.7562675996154185
vn 0.9232871754330573 0.00012207500115048948 0.38411037056885233
vn 0.625288886065729 0.0021668669621785278 0.7803903597881306
vn 0.27653550974424934 0.011810949949211223 0.9609311178808737
vn 0.6534786754770266 -0.03201466021565816 0.7562675996154185
vn 0.625288886065729 0.0021668669621785278 0.7803903597881306
vn 0.27653550974424934 0.011810949949211223 0.9609311178808737
vn 0.625288886065729 0.0021668669621785278 0.7803903597881306
vn 0.1024527935303506 -0.018891331048677237 0.9945584662095218
vn -0.2753117744920685 0.003662227505763429 0.9613480196659919
vn 0.27653550974424934 0.011810949949211223 0.9609311178808737
vn 0.1024527935303506 -0.018891331048677237 0.9945584662095218
vn -0.2753117744920685 0.003662227505763429 0.9613480196659919
vn 0.1024527935303506 -0.018891331048677237 0.9945584662095218
vn -0.3024106617750475 0.05679540701164175 0.9514841424780341
vn -0.2753117744920685 0.003662227505763429 0.9613480196659919
vn -0.3024106617750475 0.05679540701164175 0.9514841424780341
vn -0.6441333360274836 -0.014557540566692532 0.7647746880165123
vn -0.6976811222504733 -0.016999479219291635 0.7162067225051668
vn -0.2753117744920685 0.003662227505763429 0.9613480196659919
vn -0.6441333360274836 -0.014557540566692532 0.7647746880165123
vn -0.9119231230669943 0.00463890942626014 0.41033486097951083
vn -0.6976811222504733 -0.016999479219291635 0.7162067225051668
vn -0.6441333360274836 -0.014557540566692532 0.7647746880165123
vn -0.9119231230669943 0.00463890942626014 0.41033486097951083
vn -0.6441333360274836 -0.014557540566692532 0.7647746880165123
vn -0.9156661123817065 0.008697925221161746 0.4018456379415099
vn -0.9119231230669943 0.00463890942626014 0.41033486097951083
vn -0.9156661123817065 0.008697925221161746 0.4018456379415099
vn -0.9999370095306848 0.005310355747468865 0.009888230006766177
vn -0.9980924097074626 -0.01092575859455765 -0.0607632247620546
vn -0.9119231230669943 0.00463890942626014 0.41033486097951083
vn -0.9999370095306848 0.005310355747468865 0.009888230006766177
vn 0.9969794598962478 -0.012238260172906109 -0.07669538143152131
vn 0.9900372101650666 0.016480259719317134 -0.13983820482313014
vn 0.9649082018089856 0.009094536485326123 0.2624298982354469
vn 0.9223654096239091 -0.009735762889377523 0.38619589077342625
vn 0.9969794598962478 -0.012238260172906109 -0.07669538143152131
vn 0.9649082018089856 0.009094536485326123 0.2624298982354469
vn 0.9223654096239091 -0.009735762889377523 0.38619589077342625
vn 0.9649082018089856 0.009094536485326123 0.2624298982354469
vn 0.7591911934694477 -0.0354325686759481 0.6499025041000073
vn 0.5842049892099436 -0.0001220779995513217 0.8116061333425049
vn 0.9223654096239091 -0.009735762889377523 0.38619589077342625
vn 0.7591911934694477 -0.0354325686759481 0.6499025041000073
vn 0.5842049892099436 -0.0001220779995513217 0.8116061333425049
vn 0.7591911934694477 -0.0354325686759481 0.6499025041000073
vn 0.3829198843061595 -0.013489299684133189 0.923683063067083
vn 0.13755098163438603 -0.025300558984174392 0.9901715049255382
vn 0.5842049892099436 -0.0001220779995513217 0.8116061333425049
vn 0.3829198843061595 -0.013489299684133189 0.923683063067083
vn 0.13755098163438603 -0.025300558984174392 0.9901715049255382
vn 0.3829198843061595 -0.013489299684133189 0.923683063067083
vn 0.009155630039374228 0.00900304215032703 0.9999175564368402
vn -0.2684498943552002 0.008301316507551153 0.963257879472015
vn 0.13755098163438603 -0.025300558984174392 0.9901715049255382
vn 0.009155630039374228 0.00900304215032703 0.9999175564368402
vn -0.2684498943552002 0.008301316507551153 0.963257879472015
vn 0.009155630039374228 0.00900304215032703 0.9999175564368402
vn -0.44060168874663436 0.014099709143719342 0.8975919730454792
vn -0.6287490536554804 0.01901321987290368 0.7773757939358561
vn -0.2684498943552002 0.008301316507551153 0.963257879472015
vn -0.44060168874663436 0.014099709143719342 0.8975919730454792
vn -0.6287490536554804 0.01901321987290368 0.7773757939358561
vn -0.44060168874663436 0.014099709143719342 0.8975919730454792
vn -0.8077277548282382 0.027070697420862082 0.5889338260121264
vn -0.8741002069745837 0.0014649027703762811 0.4857434325102741
vn -0.6287490536554804 0.01901321987290368 0.7773757939358561
vn -0.8077277548282382 0.027070697420862082 0.5889338260121264
vn -0.8741002069745837 0.0014649027703762811 0.4857434325102741
vn -0.8077277548282382 0.027070697420862082 0.5889338260121264
vn -0.9921430615726202 0.009308276016584606 0.12476177848566933
vn -0.999561652813319 -0.011047889316814177 0.027467187092045764
vn -0.8741002069745837 0.0014649027703762811 0.4857434325102741
vn -0.9921430615726202 0.009308276016584606 0.12476177848566933
vn 0 1 0
vn 0 1 0
vn 0 1 0
vn -0.00003051849850521391 0.9999999990686212 0.00003051849850521391
vn 0 1 0
vn 0 1 0
vn -0.00003051849851942606 0.9999999995343107 0
vn 0 1 0
vn -0.00003051849850521391 0.9999999990686212 0.00003051849850521391
vn 0 1 0
vn -0.00003051849850521391 0.9999999990686212 0.00003051849850521391
vn 0 1 0
vn 0 1 0
vn 0 1 0
vn 0 1 0
vn 0 1 0
vn 0 1 0
vn 0 1 0
vn 0 1 0
vn 0 1 0
vn 0 1 0
vn -0.00003051849851942606 0.9999999995343107 0
vn 0 1 0
vn 0 1 0
vn 0 1 0
vn 0 1 0
vn 0 1 0
vn 0 1 0
vn 0 1 0
vn 0 1 0
vn 0 1 0
vn 0 1 0
vn -0.00003051849851942606 0.9999999995343107 0
vn 0 1 0
vn 0 1 0
vn 0 1 0
vn 0 1 0
vn 0 1 0
vn 0 1 0
vn 0 1 0
vn 0 1 0
vn 0 1 0
vn 0 1 0
vn 0 1 0
vn 0 1 0
vn 0.00003051849851942606 0.9999999995343107 0
vn 0 1 0
vn 0 1 0
vn 0 1 0
vn 0 1 0
vn 0 1 0
vn 0.00003051849850521391 0.9999999990686212 0.00003051849850521391
vn 0.00003051849851942606 0.9999999995343107 0
vn 0 1 0
vn 0 1 0
vn 0 1 0
vn 0 1 0
vn 0 1 0
vn 0 1 0
vn 0 1 0
vn 0 1 0
vn 0 1 0
vn 0 1 0
vn 0 1 0
vn 0.00003051849851942606 0.9999999995343107 0
vn 0.00003051849850521391 0.9999999990686212 0.00003051849850521391
vn 0 1 0
vn 0 1 0
vn 0.00003051849850521391 0.9999999990686212 0.00003051849850521391
vn 0 1 0
vn 0 1 0
vn 0 1 0
vn 0 1 0
vn 0 1 0
vn 0 1 0
vn 0 1 0
vn 0 1 0
vn 0 1 0
vn 0 1 0
vn 0 1 0
vn 0 1 0
vn 0 -1 0
vn 0 -1 0
vn 0 -1 0
vn 0 -1 0
vn 0 -1 0
vn 0 -1 0
vn 0 -1 0
vn 0 -1 0
vn 0 -1 0
vn 0 -1 0
vn 0 -1 0
vn 0 -1 0
vn 0 -1 0
vn 0 -1 0
vn 0 -1 0
vn 0 -1 0
vn 0 -1 0
vn 0 -1 0
vn 0 -1 0
vn 0 -1 0
vn 0 -0.9999999995343107 -0.00003051849851942606
vn 0 -1 0
vn 0 -1 0
vn 0 -1 0
vn 0 -1 0
vn 0 -1 0
vn 0 -1 0
vn 0 -1 0
vn 0 -1 0
vn 0 -1 0
vn 0 -1 0
vn 0 -1 0
vn 0 -1 0
vn 0 -1 0
vn 0 -1 0
vn 0 -1 0
vn 0 -1 0
vn 0 -1 0
vn 0 -1 0
vn 0 -1 0
vn 0 -0.9999999995343107 -0.00003051849851942606
vn 0 -1 0
vn 0 -1 0
vn 0 -1 0
vn 0 -1 0
vn 0 -1 0
vn 0 -1 0
vn 0 -1 0
vn 0 -1 0
vn 0 -1 0
vn 0 -1 0
vn 0 -1 0
vn 0 -1 0
vn 0 -1 0
vn 0 -1 0
vn 0 -1 0
vn 0 -1 0
vn 0 -1 0
vn 0 -1 0
vn 0 -1 0
vn 0 -1 0
vn 0 -1 0
vn 0 -1 0
vn 0 -1 0
vn 0 -1 0
vn 0 -1 0
vn 0 -1 0
vn 0 -1 0
vn 0 -1 0
vn 0 -1 0
vn 0 -1 0
vn 0 -1 0
vn 0 -1 0
vn 0 -1 0
vn 0 -1 0
vn 0 -1 0
vn 0 -1 0
vn 0 -1 0
vn 0 -1 0
vn 0 -1 0
vn 0 -1 0
vn 0 -1 0
vn 0 -1 0
vn 0 -1 0
vn -0.999561652813319 -0.011047889316814177 0.027467187092045764
vn -0.9921430615726202 0.009308276016584606 0.12476177848566933
vn -0.9404704769461663 -0.0033875697542411582 -0.3398585093297076
vn -0.8915070800866802 -0.016755219378827183 -0.45269679563576426
vn -0.999561652813319 -0.011047889316814177 0.027467187092045764
vn -0.9404704769461663 -0.0033875697542411582 -0.3398585093297076
vn -0.8915070800866802 -0.016755219378827183 -0.45269679563576426
vn -0.9404704769461663 -0.0033875697542411582 -0.3398585093297076
vn -0.7406012704638213 0.013367229662468536 -0.6718117856650958
vn -0.6529248199435617 0.0009460908831221792 -0.7574221309241684
vn -0.8915070800866802 -0.016755219378827183 -0.45269679563576426
vn -0.7406012704638213 0.013367229662468536 -0.6718117856650958
vn -0.6529248199435617 0.0009460908831221792 -0.7574221309241684
vn -0.7406012704638213 0.013367229662468536 -0.6718117856650958
vn -0.37834215616489636 -0.007355033042293855 -0.9256366005930426
vn -0.2998220066876254 -0.006439565767655922 -0.9539734253628502
vn -0.6529248199435617 0.0009460908831221792 -0.7574221309241684
vn -0.37834215616489636 -0.007355033042293855 -0.9256366005930426
vn 0.155435784231367 0.010132429097424588 -0.9877940326105263
vn -0.2998220066876254 -0.006439565767655922 -0.9539734253628502
vn -0.37834215616489636 -0.007355033042293855 -0.9256366005930426
vn 0.155435784231367 0.010132429097424588 -0.9877940326105263
vn -0.37834215616489636 -0.007355033042293855 -0.9256366005930426
vn -0.005951106256689613 -0.011536060238493214 -0.999915748275071
vn 0.155435784231367 0.010132429097424588 -0.9877940326105263
vn -0.005951106256689613 -0.011536060238493214 -0.999915748275071
vn 0.4654764981861407 -0.02676516112966602 -0.8846554446710148
vn 0.638272758644268 0.006958304398901494 -0.7697788432871666
vn 0.155435784231367 0.010132429097424588 -0.9877940326105263
vn 0.4654764981861407 -0.02676516112966602 -0.8846554446710148
vn 0.638272758644268 0.006958304398901494 -0.7697788432871666
vn 0.4654764981861407 -0.02676516112966602 -0.8846554446710148
vn 0.821138388739523 0.010071149179067257 -0.5706402706543525
vn 0.8979568697608614 -0.0010681150272568688 -0.4400821732126443
vn 0.638272758644268 0.006958304398901494 -0.7697788432871666
vn 0.821138388739523 0.010071149179067257 -0.5706402706543525
vn 0.8979568697608614 -0.0010681150272568688 -0.4400821732126443
vn 0.821138388739523 0.010071149179067257 -0.5706402706543525
vn 0.9900372101650666 0.016480259719317134 -0.13983820482313014
vn 0.9969794598962478 -0.012238260172906109 -0.07669538143152131
vn 0.8979568697608614 -0.0010681150272568688 -0.4400821732126443
vn 0.9900372101650666 0.016480259719317134 -0.13983820482313014
vn -0.9980924097074626 -0.01092575859455765 -0.0607632247620546
vn -0.9999370095306848 0.005310355747468865 0.009888230006766177
vn -0.9283125882115275 0.002960382924230943 -0.37178888458499765
vn -0.8798655734452241 -0.01553422002832795 -0.47496869441471445
vn -0.9980924097074626 -0.01092575859455765 -0.0607632247620546
vn -0.9283125882115275 0.002960382924230943 -0.37178888458499765
vn -0.8798655734452241 -0.01553422002832795 -0.47496869441471445
vn -0.9283125882115275 0.002960382924230943 -0.37178888458499765
vn -0.726287704497972 0.015167829202820626 -0.6872234769362443
vn -0.6383050080039104 0.0020752539844973487 -0.769780754551598
vn -0.8798655734452241 -0.01553422002832795 -0.47496869441471445
vn -0.726287704497972 0.015167829202820626 -0.6872234769362443
vn -0.6383050080039104 0.0020752539844973487 -0.769780754551598
vn -0.726287704497972 0.015167829202820626 -0.6872234769362443
vn -0.3271308816003022 0.0069887618967425765 -0.9449531964656025
vn -0.2819363717231843 -0.010925818950394765 -0.9593708921891625
vn -0.6383050080039104 0.0020752539844973487 -0.769780754551598
vn -0.3271308816003022 0.0069887618967425765 -0.9449531964656025
vn -0.07571852088391533 0.025880390372154977 -0.9967933140773653
vn -0.2819363717231843 -0.010925818950394765 -0.9593708921891625
vn -0.3271308816003022 0.0069887618967425765 -0.9449531964656025
vn -0.07571852088391533 0.025880390372154977 -0.9967933140773653
vn -0.3271308816003022 0.0069887618967425765 -0.9449531964656025
vn -0.07419173300927118 0.029328757428385182 -0.9968126256929073
vn 0.6842740083052143 -0.013123269941894817 -0.7291068929477676
vn 0.44582725790674194 -0.038057678488766095 -0.8943096047876268
vn 0.44924367302529017 -0.02917640896296833 -0.8929327294968933
vn 0.6842740083052143 -0.013123269941894817 -0.7291068929477676
vn 0.44924367302529017 -0.02917640896296833 -0.8929327294968933
vn 0.6535447324790477 0.020539578317244518 -0.7566091516572079
vn 0.6842740083052143 -0.013123269941894817 -0.7291068929477676
vn 0.6535447324790477 0.020539578317244518 -0.7566091516572079
vn 0.9017744724030853 -0.04409985647931835 -0.4299511641810505
vn 0.9805739254067527 -0.02890138807904478 -0.19400898582152534
vn 0.6842740083052143 -0.013123269941894817 -0.7291068929477676
vn 0.9017744724030853 -0.04409985647931835 -0.4299511641810505
vn 0.9805739254067527 -0.02890138807904478 -0.19400898582152534
vn 0.9017744724030853 -0.04409985647931835 -0.4299511641810505
vn 0.9998328016872008 -0.017182167494287436 -0.006256340025978873
f 1//1 2//2 3//3
f 4//4 5//5 6//6
f 7//7 8//8 9//9
f 10//10 11//11 12//12
f 13//13 14//14 15//15
f 16//16 17//17 18//18
f 19//19 20//20 21//21
f 22//22 23//23 24//24
f 25//25 26//26 27//27
f 28//28 29//29 30//30
f 31//31 32//32 33//33
f 34//34 35//35 36//36
f 37//37 38//38 39//39
f 40//40 41//41 42//42
f 43//43 44//44 45//45
f 46//46 47//47 48//48
f 49//49 50//50 51//51
f 52//52 53//53 54//54
f 55//55 56//56 57//57
f 58//58 59//59 60//60
f 61//61 62//62 63//63
f 64//64 65//65 66//66
f 67//67 68//68 69//69
f 70//70 71//71 72//72
f 73//73 74//74 75//75
f 76//76 77//77 78//78
f 79//79 80//80 81//81
f 82//82 83//83 84//84
f 85//85 86//86 87//87
f 88//88 89//89 90//90
f 91//91 92//92 93//93
f 94//94 95//95 96//96
f 97//97 98//98 99//99
f 100//100 101//101 102//102
f 103//103 104//104 105//105
f 106//106 107//107 108//108
f 109//109 110//110 111//111
f 112//112 113//113 114//114
f 115//115 116//116 117//117
f 118//118 119//119 120//120
f 121//121 122//122 123//123
f 124//124 125//125 126//126
f 127//127 128//128 129//129
f 130//130 131//131 132//132
f 133//133 134//134 135//135
f 136//136 137//137 138//138
f 139//139 140//140 141//141
f 142//142 143//143 144//144
f 145//145 146//146 147//147
f 148//148 149//149 150//150
f 151//151 152//152 153//153
f 154//154 155//155 156//156
f 157//157 158//158 159//159
f 160//160 161//161 162//162
f 163//163 164//164 165//165
f 166//166 167//167 168//168
f 169//169 170//170 171//171
f 172//172 173//173 174//174
f 175//175 176//176 177//177
f 178//178 179//179 180//180
f 181//181 182//182 183//183
f 184//184 185//185 186//186
f 187//187 188//188 189//189
f 190//190 191//191 192//192
f 193//193 194//194 195//195
f 196//196 197//197 198//198
f 199//199 200//200 201//201
f 202//202 203//203 204//204
f 205//205 206//206 207//207
f 208//208 209//209 210//210
f 211//211 212//212 213//213
f 214//214 215//215 216//216
f 217//217 218//218 219//219
f 220//220 221//221 222//222
f 223//223 224//224 225//225
f 226//226 227//227 228//228
f 229//229 230//230 231//231
f 232//232 233//233 234//234
f 235//235 236//236 237//237
f 238//238 239//239 240//240
f 241//241 242//242 243//243
f 244//244 245//245 246//246
f 247//247 248//248 249//249
f 250//250 251//251 252//252
f 253//253 254//254 255//255
f 256//256 257//257 258//258
f 259//259 260//260 261//261
f 262//262 263//263 264//264
f 265//265 266//266 267//267
f 268//268 269//269 270//270
f 271//271 272//272 273//273
f 274//274 275//275 276//276
f 277//277 278//278 279//279
f 280//280 281//281 282//282
f 283//283 284//284 285//285
f 286//286 287//287 288//288
f 289//289 290//290 291//291
f 292//292 293//293 294//294
f 295//295 296//296 297//297
f 298//298 299//299 300//300
f 301//301 302//302 303//303
f 304//304 305//305 306//306
f 307//307 308//308 309//309
f 310//310 311//311 312//312
f 313//313 314//314 315//315
f 316//316 317//317 318//318
f 319//319 320//320 321//321
f 322//322 323//323 324//324
f 325//325 326//326 327//327
f 328//328 329//329 330//330
