o node8
usemtl verbindung
v -0.03922063112258911 -0.01729756034910679 0.054000020027160645
v -0.042883988469839096 -0.0003445610054768622 0.054000020027160645
v -0.043075498193502426 0.0004545919946394861 0.06265007704496384
v -0.03922063112258911 -0.01729756034910679 0.054000020027160645
v -0.043075498193502426 0.0004545919946394861 0.06265007704496384
v -0.03895866125822067 -0.017690420150756836 0.06265007704496384
v -0.03922063112258911 -0.01729756034910679 0.054000020027160645
v -0.03895866125822067 -0.017690420150756836 0.06265007704496384
v -0.02710776962339878 -0.03357493132352829 0.06265007704496384
v -0.02646714076399803 -0.034081511199474335 0.054000020027160645
v -0.03922063112258911 -0.01729756034910679 0.054000020027160645
v -0.02710776962339878 -0.03357493132352829 0.06265007704496384
v -0.008277833461761475 -0.04194992035627365 0.054000020027160645
v -0.02646714076399803 -0.034081511199474335 0.054000020027160645
v -0.009034276008605957 -0.04179387912154198 0.06265007704496384
v -0.02646714076399803 -0.034081511199474335 0.054000020027160645
v -0.02710776962339878 -0.03357493132352829 0.06265007704496384
v -0.009034276008605957 -0.04179387912154198 0.06265007704496384
v -0.008277833461761475 -0.04194992035627365 0.054000020027160645
v -0.009034276008605957 -0.04179387912154198 0.06265007704496384
v 0.007451951038092375 -0.042211998254060745 0.06265001744031906
v 0.011572480201721191 -0.041561901569366455 0.054000020027160645
v -0.008277833461761475 -0.04194992035627365 0.054000020027160645
v 0.007451951038092375 -0.042211998254060745 0.06265001744031906
v 0.011572480201721191 -0.041561901569366455 0.054000020027160645
v 0.007451951038092375 -0.042211998254060745 0.06265001744031906
v 0.025703130289912224 -0.03447556123137474 0.06265007704496384
v 0.03130805119872093 -0.029487550258636475 0.054000020027160645
v 0.011572480201721191 -0.041561901569366455 0.054000020027160645
v 0.025703130289912224 -0.03447556123137474 0.06265007704496384
v 0.03130805119872093 -0.029487550258636475 0.054000020027160645
v 0.025703130289912224 -0.03447556123137474 0.06265007704496384
v 0.039986781775951385 -0.01627534069120884 0.06265001744031906
v 0.04065781086683273 -0.013422779738903046 0.054000020027160645
v 0.03130805119872093 -0.029487550258636475 0.054000020027160645
v 0.039986781775951385 -0.01627534069120884 0.06265001744031906
v 0.042740341275930405 0.0004233230138197541 0.054000020027160645
v 0.04065781086683273 -0.013422779738903046 0.054000020027160645
v 0.039986781775951385 -0.01627534069120884 0.06265001744031906
v 0.042740341275930405 0.0004233230138197541 0.054000020027160645
v 0.039986781775951385 -0.01627534069120884 0.06265001744031906
v 0.04237930849194527 0.008383630774915218 0.06265007704496384
v 0.04372601956129074 0.012647329829633236 0.06265007704496384
v 0.04457186907529831 -0.007930636405944824 0.06265007704496384
v 0.04506777971982956 -0.0037513969000428915 0.054000020027160645
v 0.04372601956129074 0.012647329829633236 0.06265007704496384
v 0.04506777971982956 -0.0037513969000428915 0.054000020027160645
v 0.04254800081253052 0.016291199252009392 0.054000020027160645
v 0.032686710357666016 0.031512729823589325 0.06265007704496384
v 0.04372601956129074 0.012647329829633236 0.06265007704496384
v 0.04254800081253052 0.016291199252009392 0.054000020027160645
v 0.032686710357666016 0.031512729823589325 0.06265007704496384
v 0.04254800081253052 0.016291199252009392 0.054000020027160645
v 0.02773897908627987 0.03621792048215866 0.054000020027160645
v 0.018104789778590202 0.04147017002105713 0.06265007704496384
v 0.032686710357666016 0.031512729823589325 0.06265007704496384
v 0.02773897908627987 0.03621792048215866 0.054000020027160645
v 0.018104789778590202 0.04147017002105713 0.06265007704496384
v 0.02773897908627987 0.03621792048215866 0.054000020027160645
v 0.007980406284332275 0.044621821492910385 0.054000020027160645
v -0.0004120639932807535 0.04551684111356735 0.06265013664960861
v 0.018104789778590202 0.04147017002105713 0.06265007704496384
v 0.007980406284332275 0.044621821492910385 0.054000020027160645
v -0.0004120639932807535 0.04551684111356735 0.06265013664960861
v 0.007980406284332275 0.044621821492910385 0.054000020027160645
v -0.0075653791427612305 0.044570740312337875 0.054000020027160645
v -0.020007960498332977 0.04067039117217064 0.06265007704496384
v -0.0004120639932807535 0.04551684111356735 0.06265013664960861
v -0.0075653791427612305 0.044570740312337875 0.054000020027160645
v -0.020007960498332977 0.04067039117217064 0.06265007704496384
v -0.0075653791427612305 0.044570740312337875 0.054000020027160645
v -0.022253509610891342 0.039484910666942596 0.054000020027160645
v -0.0319054089486599 0.03195511922240257 0.06264983862638474
v -0.020007960498332977 0.04067039117217064 0.06265007704496384
v -0.022253509610891342 0.039484910666942596 0.054000020027160645
v -0.0319054089486599 0.03195511922240257 0.06264983862638474
v -0.022253509610891342 0.039484910666942596 0.054000020027160645
v -0.03866297006607056 0.024343369528651237 0.054000020027160645
v -0.04082154855132103 0.019708510488271713 0.06265007704496384
v -0.0319054089486599 0.03195511922240257 0.06264983862638474
v -0.03866297006607056 0.024343369528651237 0.054000020027160645
v -0.04082154855132103 0.019708510488271713 0.06265007704496384
v -0.03866297006607056 0.024343369528651237 0.054000020027160645
v -0.04560232162475586 -0.0012294650077819824 0.054000020027160645
v -0.045467011630535126 -0.0003620329953264445 0.06265007704496384
v -0.04082154855132103 0.019708510488271713 0.06265007704496384
v -0.04560232162475586 -0.0012294650077819824 0.054000020027160645
v -0.0075653791427612305 0.044570740312337875 0.054000020027160645
v 0.007980406284332275 0.044621821492910385 0.054000020027160645
v -0.009081900119781494 0.042054951190948486 0.054000020027160645
v 0.03130805119872093 -0.029487550258636475 0.054000020027160645
v 0.03922634944319725 -0.023089049383997917 0.054000020027160645
v 0.02235363982617855 -0.03954482078552246 0.054000020027160645
v -0.04560232162475586 -0.0012294650077819824 0.054000020027160645
v -0.03852760046720505 0.019399339333176613 0.054000020027160645
v -0.042883988469839096 -0.0003445610054768622 0.054000020027160645
v -0.03866297006607056 0.024343369528651237 0.054000020027160645
v -0.03852760046720505 0.019399339333176613 0.054000020027160645
v -0.04560232162475586 -0.0012294650077819824 0.054000020027160645
v -0.022253509610891342 0.039484910666942596 0.054000020027160645
v -0.0075653791427612305 0.044570740312337875 0.054000020027160645
v -0.009081900119781494 0.042054951190948486 0.054000020027160645
v 0.011572480201721191 -0.041561901569366455 0.054000020027160645
v 0.03130805119872093 -0.029487550258636475 0.054000020027160645
v 0.02235363982617855 -0.03954482078552246 0.054000020027160645
v 0.04065781086683273 -0.013422779738903046 0.054000020027160645
v 0.03922634944319725 -0.023089049383997917 0.054000020027160645
v 0.03130805119872093 -0.029487550258636475 0.054000020027160645
v -0.022253509610891342 0.039484910666942596 0.054000020027160645
v -0.009081900119781494 0.042054951190948486 0.054000020027160645
v -0.025593340396881104 0.03442810848355293 0.054000020027160645
v 0.011572480201721191 -0.041561901569366455 0.054000020027160645
v 0.02235363982617855 -0.03954482078552246 0.054000020027160645
v -0.002144574886187911 -0.045603811740875244 0.054000020027160645
v 0.04065781086683273 -0.013422779738903046 0.054000020027160645
v 0.04506777971982956 -0.0037513969000428915 0.054000020027160645
v 0.03922634944319725 -0.023089049383997917 0.054000020027160645
v -0.03866297006607056 0.024343369528651237 0.054000020027160645
v -0.022253509610891342 0.039484910666942596 0.054000020027160645
v -0.025593340396881104 0.03442810848355293 0.054000020027160645
v -0.03866297006607056 0.024343369528651237 0.054000020027160645
v -0.025593340396881104 0.03442810848355293 0.054000020027160645
v -0.03852760046720505 0.019399339333176613 0.054000020027160645
v 0.042740341275930405 0.0004233230138197541 0.054000020027160645
v 0.04506777971982956 -0.0037513969000428915 0.054000020027160645
v 0.04065781086683273 -0.013422779738903046 0.054000020027160645
v -0.008277833461761475 -0.04194992035627365 0.054000020027160645
v 0.011572480201721191 -0.041561901569366455 0.054000020027160645
v -0.002144574886187911 -0.045603811740875244 0.054000020027160645
v 0.04254800081253052 0.016291199252009392 0.054000020027160645
v 0.04506777971982956 -0.0037513969000428915 0.054000020027160645
v 0.042740341275930405 0.0004233230138197541 0.054000020027160645
v 0.03939228877425194 0.017482690513134003 0.054000020027160645
v 0.04254800081253052 0.016291199252009392 0.054000020027160645
v 0.042740341275930405 0.0004233230138197541 0.054000020027160645
v -0.025974569842219353 -0.037269771099090576 0.05399996042251587
v -0.008277833461761475 -0.04194992035627365 0.054000020027160645
v -0.002144574886187911 -0.045603811740875244 0.054000020027160645
v -0.02646714076399803 -0.034081511199474335 0.054000020027160645
v -0.008277833461761475 -0.04194992035627365 0.054000020027160645
v -0.025974569842219353 -0.037269771099090576 0.05399996042251587
v 0.02773897908627987 0.03621792048215866 0.054000020027160645
v 0.04254800081253052 0.016291199252009392 0.054000020027160645
v 0.03939228877425194 0.017482690513134003 0.054000020027160645
v 0.02905857004225254 0.031394001096487045 0.053999900817871094
v 0.02773897908627987 0.03621792048215866 0.054000020027160645
v 0.03939228877425194 0.017482690513134003 0.054000020027160645
v -0.039434898644685745 -0.02220386080443859 0.054000020027160645
v -0.02646714076399803 -0.034081511199474335 0.054000020027160645
v -0.025974569842219353 -0.037269771099090576 0.05399996042251587
v -0.03922063112258911 -0.01729756034910679 0.054000020027160645
v -0.02646714076399803 -0.034081511199474335 0.054000020027160645
v -0.039434898644685745 -0.02220386080443859 0.054000020027160645
v 0.013197359628975391 0.04117511957883835 0.054000020027160645
v 0.02773897908627987 0.03621792048215866 0.054000020027160645
v 0.02905857004225254 0.031394001096487045 0.053999900817871094
v 0.007980406284332275 0.044621821492910385 0.054000020027160645
v 0.02773897908627987 0.03621792048215866 0.054000020027160645
v 0.013197359628975391 0.04117511957883835 0.054000020027160645
v -0.04560232162475586 -0.0012294650077819824 0.054000020027160645
v -0.03922063112258911 -0.01729756034910679 0.054000020027160645
v -0.039434898644685745 -0.02220386080443859 0.054000020027160645
v -0.042883988469839096 -0.0003445610054768622 0.054000020027160645
v -0.03922063112258911 -0.01729756034910679 0.054000020027160645
v -0.04560232162475586 -0.0012294650077819824 0.054000020027160645
v -0.009081900119781494 0.042054951190948486 0.054000020027160645
v 0.007980406284332275 0.044621821492910385 0.054000020027160645
v 0.013197359628975391 0.04117511957883835 0.054000020027160645
v -0.043075498193502426 0.0004545919946394861 0.06265007704496384
v -0.03780006989836693 0.02043144963681698 0.06265007704496384
v -0.04082154855132103 0.019708510488271713 0.06265007704496384
v -0.045467011630535126 -0.0003620329953264445 0.06265007704496384
v -0.043075498193502426 0.0004545919946394861 0.06265007704496384
v -0.04082154855132103 0.019708510488271713 0.06265007704496384
v 0.025703130289912224 -0.03447556123137474 0.06265007704496384
v 0.03616786003112793 -0.02768957056105137 0.06265013664960861
v 0.039986781775951385 -0.01627534069120884 0.06265001744031906
v 0.019283950328826904 -0.04091930016875267 0.06265007704496384
v 0.03616786003112793 -0.02768957056105137 0.06265013664960861
v 0.025703130289912224 -0.03447556123137474 0.06265007704496384
v -0.002521336078643799 0.04333728179335594 0.06265007704496384
v -0.0004120639932807535 0.04551684111356735 0.06265013664960861
v -0.020007960498332977 0.04067039117217064 0.06265007704496384
v -0.02497619017958641 0.035022489726543427 0.06265013664960861
v -0.002521336078643799 0.04333728179335594 0.06265007704496384
v -0.020007960498332977 0.04067039117217064 0.06265007704496384
v 0.019283950328826904 -0.04091930016875267 0.06265007704496384
v 0.025703130289912224 -0.03447556123137474 0.06265007704496384
v 0.007451951038092375 -0.042211998254060745 0.06265001744031906
v 0.03616786003112793 -0.02768957056105137 0.06265013664960861
v 0.04457186907529831 -0.007930636405944824 0.06265007704496384
v 0.039986781775951385 -0.01627534069120884 0.06265001744031906
v 0.005051970016211271 -0.0447874590754509 0.06265001744031906
v 0.019283950328826904 -0.04091930016875267 0.06265007704496384
v 0.007451951038092375 -0.042211998254060745 0.06265001744031906
v -0.02497619017958641 0.035022489726543427 0.06265013664960861
v -0.020007960498332977 0.04067039117217064 0.06265007704496384
v -0.0319054089486599 0.03195511922240257 0.06264983862638474
v -0.04082154855132103 0.019708510488271713 0.06265007704496384
v -0.03780006989836693 0.02043144963681698 0.06265007704496384
v -0.0319054089486599 0.03195511922240257 0.06264983862638474
v -0.03780006989836693 0.02043144963681698 0.06265007704496384
v -0.02497619017958641 0.035022489726543427 0.06265013664960861
v -0.0319054089486599 0.03195511922240257 0.06264983862638474
v 0.039986781775951385 -0.01627534069120884 0.06265001744031906
v 0.04457186907529831 -0.007930636405944824 0.06265007704496384
v 0.04237930849194527 0.008383630774915218 0.06265007704496384
v 0.005051970016211271 -0.0447874590754509 0.06265001744031906
v 0.007451951038092375 -0.042211998254060745 0.06265001744031906
v -0.00968390703201294 -0.04418325051665306 0.06265007704496384
v 0.04237930849194527 0.008383630774915218 0.06265007704496384
v 0.04457186907529831 -0.007930636405944824 0.06265007704496384
v 0.04372601956129074 0.012647329829633236 0.06265007704496384
v -0.00968390703201294 -0.04418325051665306 0.06265007704496384
v 0.007451951038092375 -0.042211998254060745 0.06265001744031906
v -0.009034276008605957 -0.04179387912154198 0.06265007704496384
v -0.00968390703201294 -0.04418325051665306 0.06265007704496384
v -0.009034276008605957 -0.04179387912154198 0.06265007704496384
v -0.02710776962339878 -0.03357493132352829 0.06265007704496384
v -0.00968390703201294 -0.04418325051665306 0.06265007704496384
v -0.02710776962339878 -0.03357493132352829 0.06265007704496384
v -0.0251271091401577 -0.03755586966872215 0.06265013664960861
v 0.04237930849194527 0.008383630774915218 0.06265007704496384
v 0.04372601956129074 0.012647329829633236 0.06265007704496384
v 0.032368600368499756 0.028319349512457848 0.06265007704496384
v 0.032368600368499756 0.028319349512457848 0.06265007704496384
v 0.04372601956129074 0.012647329829633236 0.06265007704496384
v 0.032686710357666016 0.031512729823589325 0.06265007704496384
v -0.0251271091401577 -0.03755586966872215 0.06265013664960861
v -0.02710776962339878 -0.03357493132352829 0.06265007704496384
v -0.039226289838552475 -0.023088930174708366 0.06265007704496384
v -0.039226289838552475 -0.023088930174708366 0.06265007704496384
v -0.02710776962339878 -0.03357493132352829 0.06265007704496384
v -0.03895866125822067 -0.017690420150756836 0.06265007704496384
v 0.032368600368499756 0.028319349512457848 0.06265007704496384
v 0.032686710357666016 0.031512729823589325 0.06265007704496384
v 0.018440959975123405 0.03868209943175316 0.06265020370483398
v 0.018440959975123405 0.03868209943175316 0.06265020370483398
v 0.032686710357666016 0.031512729823589325 0.06265007704496384
v 0.018104789778590202 0.04147017002105713 0.06265007704496384
v -0.039226289838552475 -0.023088930174708366 0.06265007704496384
v -0.03895866125822067 -0.017690420150756836 0.06265007704496384
v -0.043075498193502426 0.0004545919946394861 0.06265007704496384
v 0.018440959975123405 0.03868209943175316 0.06265020370483398
v 0.018104789778590202 0.04147017002105713 0.06265007704496384
v -0.002521336078643799 0.04333728179335594 0.06265007704496384
v -0.039226289838552475 -0.023088930174708366 0.06265007704496384
v -0.043075498193502426 0.0004545919946394861 0.06265007704496384
v -0.045467011630535126 -0.0003620329953264445 0.06265007704496384
v -0.002521336078643799 0.04333728179335594 0.06265007704496384
v 0.018104789778590202 0.04147017002105713 0.06265007704496384
v -0.0004120639932807535 0.04551684111356735 0.06265013664960861
v -0.039226289838552475 -0.023088930174708366 0.06265007704496384
v -0.045467011630535126 -0.0003620329953264445 0.06265007704496384
v -0.04560232162475586 -0.0012294650077819824 0.054000020027160645
v -0.039226289838552475 -0.023088930174708366 0.06265007704496384
v -0.04560232162475586 -0.0012294650077819824 0.054000020027160645
v -0.039434898644685745 -0.02220386080443859 0.054000020027160645
v -0.039226289838552475 -0.023088930174708366 0.06265007704496384
v -0.039434898644685745 -0.02220386080443859 0.054000020027160645
v -0.025974569842219353 -0.037269771099090576 0.05399996042251587
v -0.0251271091401577 -0.03755586966872215 0.06265013664960861
v -0.039226289838552475 -0.023088930174708366 0.06265007704496384
v -0.025974569842219353 -0.037269771099090576 0.05399996042251587
v -0.00968390703201294 -0.04418325051665306 0.06265007704496384
v -0.0251271091401577 -0.03755586966872215 0.06265013664960861
v -0.025974569842219353 -0.037269771099090576 0.05399996042251587
v -0.00968390703201294 -0.04418325051665306 0.06265007704496384
v -0.025974569842219353 -0.037269771099090576 0.05399996042251587
v -0.002144574886187911 -0.045603811740875244 0.054000020027160645
v 0.005051970016211271 -0.0447874590754509 0.06265001744031906
v -0.00968390703201294 -0.04418325051665306 0.06265007704496384
v -0.002144574886187911 -0.045603811740875244 0.054000020027160645
v 0.019283950328826904 -0.04091930016875267 0.06265007704496384
v -0.002144574886187911 -0.045603811740875244 0.054000020027160645
v 0.02235363982617855 -0.03954482078552246 0.054000020027160645
v 0.019283950328826904 -0.04091930016875267 0.06265007704496384
v 0.005051970016211271 -0.0447874590754509 0.06265001744031906
v -0.002144574886187911 -0.045603811740875244 0.054000020027160645
v 0.03616786003112793 -0.02768957056105137 0.06265013664960861
v 0.019283950328826904 -0.04091930016875267 0.06265007704496384
v 0.02235363982617855 -0.03954482078552246 0.054000020027160645
v 0.03616786003112793 -0.02768957056105137 0.06265013664960861
v 0.02235363982617855 -0.03954482078552246 0.054000020027160645
v 0.03922634944319725 -0.023089049383997917 0.054000020027160645
v 0.04457186907529831 -0.007930636405944824 0.06265007704496384
v 0.03616786003112793 -0.02768957056105137 0.06265013664960861
v 0.03922634944319725 -0.023089049383997917 0.054000020027160645
v 0.04457186907529831 -0.007930636405944824 0.06265007704496384
v 0.03922634944319725 -0.023089049383997917 0.054000020027160645
v 0.04506777971982956 -0.0037513969000428915 0.054000020027160645
v 0.03939228877425194 0.017482690513134003 0.054000020027160645
v 0.042740341275930405 0.0004233230138197541 0.054000020027160645
v 0.04237930849194527 0.008383630774915218 0.06265007704496384
v 0.03939228877425194 0.017482690513134003 0.054000020027160645
v 0.04237930849194527 0.008383630774915218 0.06265007704496384
v 0.032368600368499756 0.028319349512457848 0.06265007704496384
v 0.02905857004225254 0.031394001096487045 0.053999900817871094
v 0.03939228877425194 0.017482690513134003 0.054000020027160645
v 0.032368600368499756 0.028319349512457848 0.06265007704496384
v 0.02905857004225254 0.031394001096487045 0.053999900817871094
v 0.032368600368499756 0.028319349512457848 0.06265007704496384
v 0.018440959975123405 0.03868209943175316 0.06265020370483398
v 0.013197359628975391 0.04117511957883835 0.054000020027160645
v 0.02905857004225254 0.031394001096487045 0.053999900817871094
v 0.018440959975123405 0.03868209943175316 0.06265020370483398
v 0.013197359628975391 0.04117511957883835 0.054000020027160645
v 0.018440959975123405 0.03868209943175316 0.06265020370483398
v -0.002521336078643799 0.04333728179335594 0.06265007704496384
v -0.009081900119781494 0.042054951190948486 0.054000020027160645
v 0.013197359628975391 0.04117511957883835 0.054000020027160645
v -0.002521336078643799 0.04333728179335594 0.06265007704496384
v -0.009081900119781494 0.042054951190948486 0.054000020027160645
v -0.002521336078643799 0.04333728179335594 0.06265007704496384
v -0.02497619017958641 0.035022489726543427 0.06265013664960861
v -0.025593340396881104 0.03442810848355293 0.054000020027160645
v -0.009081900119781494 0.042054951190948486 0.054000020027160645
v -0.02497619017958641 0.035022489726543427 0.06265013664960861
v -0.03852760046720505 0.019399339333176613 0.054000020027160645
v -0.025593340396881104 0.03442810848355293 0.054000020027160645
v -0.02497619017958641 0.035022489726543427 0.06265013664960861
v -0.03852760046720505 0.019399339333176613 0.054000020027160645
v -0.02497619017958641 0.035022489726543427 0.06265013664960861
v -0.03780006989836693 0.02043144963681698 0.06265007704496384
v -0.03852760046720505 0.019399339333176613 0.054000020027160645
v -0.03780006989836693 0.02043144963681698 0.06265007704496384
v -0.043075498193502426 0.0004545919946394861 0.06265007704496384
v -0.042883988469839096 -0.0003445610054768622 0.054000020027160645
v -0.03852760046720505 0.019399339333176613 0.054000020027160645
v -0.043075498193502426 0.0004545919946394861 0.06265007704496384
vn 0.9112039020707391 0.41194455967128385 -0.0030213586829337
vn 0.9997224663942865 0.01037656966572728 0.021149869704018283
vn 0.9997968848545102 -0.018616428924315555 0.007721244026889936
vn 0.9112039020707391 0.41194455967128385 -0.0030213586829337
vn 0.9997968848545102 -0.018616428924315555 0.007721244026889936
vn 0.9050801021684263 0.42516420331345434 -0.008087575633441034
vn 0.9112039020707391 0.41194455967128385 -0.0030213586829337
vn 0.9050801021684263 0.42516420331345434 -0.008087575633441034
vn 0.6363005596864136 0.7714407393979186 -0.0008850649407486883
vn 0.6105368688119575 0.791973525371732 0.004760980105103307
vn 0.9112039020707391 0.41194455967128385 -0.0030213586829337
vn 0.6363005596864136 0.7714407393979186 -0.0008850649407486883
vn 0.1975181650863332 0.9802055717046492 0.013550338006481293
vn 0.6105368688119575 0.791973525371732 0.004760980105103307
vn 0.2280664835544913 0.9736393453346288 -0.0034791227981059757
vn 0.6105368688119575 0.791973525371732 0.004760980105103307
vn 0.6363005596864136 0.7714407393979186 -0.0008850649407486883
vn 0.2280664835544913 0.9736393453346288 -0.0034791227981059757
vn 0.1975181650863332 0.9802055717046492 0.013550338006481293
vn 0.2280664835544913 0.9736393453346288 -0.0034791227981059757
vn -0.1481993972359843 0.9888712360623978 -0.013062049889536248
vn -0.28382670536937094 0.9588459614466928 -0.007538138797831313
vn 0.1975181650863332 0.9802055717046492 0.013550338006481293
vn -0.1481993972359843 0.9888712360623978 -0.013062049889536248
vn -0.28382670536937094 0.9588459614466928 -0.007538138797831313
vn -0.1481993972359843 0.9888712360623978 -0.013062049889536248
vn -0.5833934963314453 0.8117945542256636 0.02533041980954563
vn -0.7374573774744912 0.6748021684344914 -0.028260394274569455
vn -0.28382670536937094 0.9588459614466928 -0.007538138797831313
vn -0.5833934963314453 0.8117945542256636 0.02533041980954563
vn -0.7374573774744912 0.6748021684344914 -0.028260394274569455
vn -0.5833934963314453 0.8117945542256636 0.02533041980954563
vn -0.924499942637271 0.38109830586024207 -0.007996082424279701
vn -0.9553337067993529 0.29462957292226755 0.023041775379744354
vn -0.7374573774744912 0.6748021684344914 -0.028260394274569455
vn -0.924499942637271 0.38109830586024207 -0.007996082424279701
vn -0.9986356468332057 0.027772057722285363 -0.044221687935842226
vn -0.9553337067993529 0.29462957292226755 0.023041775379744354
vn -0.924499942637271 0.38109830586024207 -0.007996082424279701
vn -0.9986356468332057 0.027772057722285363 -0.044221687935842226
vn -0.924499942637271 0.38109830586024207 -0.007996082424279701
vn -0.9836887379329159 -0.1797875064105546 -0.005737543256637295
vn 0.9661016878335182 0.258036072162993 0.008056936633843497
vn 0.9817684191157399 -0.19001179736841553 0.0051271910248394574
vn 0.997859283811262 -0.0651587088799456 -0.005585012871418801
vn 0.9661016878335182 0.258036072162993 0.008056936633843497
vn 0.997859283811262 -0.0651587088799456 -0.005585012871418801
vn 0.922618447513344 0.3856984669826464 -0.0034486048343589375
vn 0.7518022091322017 0.6588721898480802 -0.026093596699889664
vn 0.9661016878335182 0.258036072162993 0.008056936633843497
vn 0.922618447513344 0.3856984669826464 -0.0034486048343589375
vn 0.7518022091322017 0.6588721898480802 -0.026093596699889664
vn 0.922618447513344 0.3856984669826464 -0.0034486048343589375
vn 0.6076073616942308 0.7942324838089655 -0.002838252564102502
vn 0.3923583710057673 0.9196127252339423 -0.019166227837067045
vn 0.7518022091322017 0.6588721898480802 -0.026093596699889664
vn 0.6076073616942308 0.7942324838089655 -0.002838252564102502
vn 0.3923583710057673 0.9196127252339423 -0.019166227837067045
vn 0.6076073616942308 0.7942324838089655 -0.002838252564102502
vn 0.1990143634460068 0.9799954781539022 0.001464902756175259
vn -0.014496438747109769 0.9998882144284881 0.0036622275545791774
vn 0.3923583710057673 0.9196127252339423 -0.019166227837067045
vn 0.1990143634460068 0.9799954781539022 0.001464902756175259
vn -0.014496438747109769 0.9998882144284881 0.0036622275545791774
vn 0.1990143634460068 0.9799954781539022 0.001464902756175259
vn -0.19141279503354353 0.9814481314733582 0.010986679430128146
vn -0.4247676648765368 0.9051416342868027 0.017060268343425316
vn -0.014496438747109769 0.9998882144284881 0.0036622275545791774
vn -0.19141279503354353 0.9814481314733582 0.010986679430128146
vn -0.4247676648765368 0.9051416342868027 0.017060268343425316
vn -0.19141279503354353 0.9814481314733582 0.010986679430128146
vn -0.5070726952304005 0.8615504640557716 -0.02465927081367188
vn -0.6937302029782797 0.7194578336590773 -0.03344893215489156
vn -0.4247676648765368 0.9051416342868027 0.017060268343425316
vn -0.5070726952304005 0.8615504640557716 -0.02465927081367188
vn -0.6937302029782797 0.7194578336590773 -0.03344893215489156
vn -0.5070726952304005 0.8615504640557716 -0.02465927081367188
vn -0.8510506043594833 0.524986498752979 -0.010101729873965506
vn -0.9281187253129555 0.37184567043182787 -0.018067349129279944
vn -0.6937302029782797 0.7194578336590773 -0.03344893215489156
vn -0.8510506043594833 0.524986498752979 -0.010101729873965506
vn -0.9281187253129555 0.37184567043182787 -0.018067349129279944
vn -0.8510506043594833 0.524986498752979 -0.010101729873965506
vn -0.9994449135678045 -0.03326593750664028 0.0018005958036400277
vn -0.9998598926740011 -0.004638850330880998 0.016083410382830555
vn -0.9281187253129555 0.37184567043182787 -0.018067349129279944
vn -0.9994449135678045 -0.03326593750664028 0.0018005958036400277
vn 0 0 -1
vn 0 0 -1
vn 0 0 -1
vn 0 0 -1
vn 0 0 -1
vn 0 0 -1
vn 0 0 -1
vn 0 0 -1
vn 0 0 -1
vn 0 0 -1
vn 0 0 -1
vn 0 0 -1
vn 0 0 -1
vn 0 0 -1
vn 0 0 -1
vn 0 0 -1
vn 0 0 -1
vn 0 0 -1
vn 0 0 -1
vn 0 0 -1
vn 0 0 -1
vn 0 0 -1
vn 0 0 -1
vn 0 0 -1
vn 0 0 -1
vn 0 0 -1
vn 0 0 -1
vn 0 0 -1
vn 0 0 -1
vn 0 0 -1
vn 0 0 -1
vn 0 0 -1
vn 0 0 -1
vn 0 0 -1
vn 0 0 -1
vn 0 0 -1
vn 0 0 -1
vn 0 0 -1
vn 0 0 -1
vn 0 0 -1
vn 0 0 -1
vn 0 0 -1
vn 0 0 -1
vn 0 0 -1
vn 0 0 -1
vn 0 0 -1
vn 0 0 -1
vn 0 0 -1
vn 0 0 -1
vn 0 0 -1
vn 0 0 -1
vn 0 0 -1
vn 0 0 -1
vn 0 0 -1
vn 0 0 -1
vn 0 0 -1
vn 0 0 -1
vn 0.00003051940072395555 0.00003051940072395555 -0.9999999990685662
vn 0 0 -1
vn 0 0 -1
vn 0 0 -1
vn 0 0 -1
vn 0 0 -1
vn 0 0 -1
vn 0 0 -1
vn 0 0 -1
vn 0 0 -1
vn 0 0 -1
vn 0.00003051940072395555 0.00003051940072395555 -0.9999999990685662
vn 0 0 -1
vn 0 0 -1
vn 0 0 -1
vn 0 0 -1
vn 0 0 -1
vn 0 0 -1
vn 0 0 -1
vn 0 0 -1
vn 0 0 -1
vn 0 0 -1
vn 0 0 -1
vn 0 0 -1
vn 0 0 1
vn 0 0 1
vn 0 0 1
vn 0 0 1
vn 0 0 1
vn 0 0 1
vn 0 0 1
vn 0 0 1
vn -0.000061036996925155 0.0000305184984625775 0.9999999976715532
vn 0 0 1
vn 0 0 1
vn 0 0 1
vn 0 0 1
vn 0 0 1
vn 0 0 1
vn -0.00006103699683988214 0.00006103699683988214 0.999999996274485
vn 0 0 1
vn 0 0 1
vn 0 0 1
vn 0 0 1
vn 0 0 1
vn 0 0 1
vn 0 0 1
vn -0.000061036996925155 0.0000305184984625775 0.9999999976715532
vn 0 0 1
vn 0 0 1
vn 0 0 1
vn -0.00006103699683988214 0.00006103699683988214 0.999999996274485
vn 0 0 1
vn -0.000061036996925155 0.0000305184984625775 0.9999999976715532
vn 0 0 1
vn 0 0 1
vn -0.000061036996925155 0.0000305184984625775 0.9999999976715532
vn 0 0 1
vn -0.00006103699683988214 0.00006103699683988214 0.999999996274485
vn -0.000061036996925155 0.0000305184984625775 0.9999999976715532
vn -0.000061036996925155 0.0000305184984625775 0.9999999976715532
vn 0 0 1
vn 0 0 1
vn 0 0 1
vn 0 0 1
vn 0 0 1
vn 0 0 1
vn 0 0 1
vn 0 0 1
vn 0 0 1
vn 0 0 1
vn 0 0 1
vn 0 0 1
vn 0 0 1
vn 0 0 1
vn 0 0 1
vn 0 0 1
vn 0 0 1
vn 0 0 1
vn 0 0 1
vn 0 0 1
vn 0 0 1
vn 0 0 1
vn 0 0 1
vn 0 0 1
vn 0 0 1
vn 0 0 1
vn 0 0 1
vn 0 0 1
vn 0 0 1
vn 0 0 1
vn 0 0 1
vn 0 0.00003051849851942606 0.9999999995343107
vn 0 0.00003051849851942606 0.9999999995343107
vn 0 0 1
vn 0 0.00003051849851942606 0.9999999995343107
vn 0 0 1
vn 0 0 1
vn 0 0 1
vn 0 0.00003051849851942606 0.9999999995343107
vn 0 0.00003051849851942606 0.9999999995343107
vn 0 0 1
vn 0 0 1
vn 0 0 1
vn 0 0 1
vn 0 0 1
vn 0 0.00003051849851942606 0.9999999995343107
vn 0 0 1
vn -0.8651139701076829 -0.501452980391235 -0.011078230060394777
vn -0.9998598926740011 -0.004638850330880998 0.016083410382830555
vn -0.9994449135678045 -0.03326593750664028 0.0018005958036400277
vn -0.8651139701076829 -0.501452980391235 -0.011078230060394777
vn -0.9994449135678045 -0.03326593750664028 0.0018005958036400277
vn -0.8804070194417075 -0.4734385524075686 -0.02719222705103258
vn -0.8651139701076829 -0.501452980391235 -0.011078230060394777
vn -0.8804070194417075 -0.4734385524075686 -0.02719222705103258
vn -0.5727878784616477 -0.8196898067901663 -0.004760980120170967
vn -0.5556954230045911 -0.8309490807221179 0.026948508285542478
vn -0.8651139701076829 -0.501452980391235 -0.011078230060394777
vn -0.5727878784616477 -0.8196898067901663 -0.004760980120170967
vn -0.26310337200453077 -0.9638783559393441 -0.041414135165573414
vn -0.5556954230045911 -0.8309490807221179 0.026948508285542478
vn -0.5727878784616477 -0.8196898067901663 -0.004760980120170967
vn -0.26310337200453077 -0.9638783559393441 -0.041414135165573414
vn -0.5727878784616477 -0.8196898067901663 -0.004760980120170967
vn -0.03793501177974053 -0.9992508474187008 -0.007660209806449365
vn 0.1784140951301358 -0.9823761187978948 -0.055727658074598035
vn -0.26310337200453077 -0.9638783559393441 -0.041414135165573414
vn -0.03793501177974053 -0.9992508474187008 -0.007660209806449365
vn 0.39567916947307913 -0.9182870239949715 -0.013672468963322864
vn -0.03793501177974053 -0.9992508474187008 -0.007660209806449365
vn 0.49529360547996404 -0.8687247427518093 -0.0012512799287924007
vn 0.39567916947307913 -0.9182870239949715 -0.013672468963322864
vn 0.1784140951301358 -0.9823761187978948 -0.055727658074598035
vn -0.03793501177974053 -0.9992508474187008 -0.007660209806449365
vn 0.7734783930597869 -0.633486810846361 -0.020630946496866268
vn 0.39567916947307913 -0.9182870239949715 -0.013672468963322864
vn 0.49529360547996404 -0.8687247427518093 -0.0012512799287924007
vn 0.7734783930597869 -0.633486810846361 -0.020630946496866268
vn 0.49529360547996404 -0.8687247427518093 -0.0012512799287924007
vn 0.8718406037600414 -0.4897713405645864 0.004242121744437684
vn 0.9817684191157399 -0.19001179736841553 0.0051271910248394574
vn 0.7734783930597869 -0.633486810846361 -0.020630946496866268
vn 0.8718406037600414 -0.4897713405645864 0.004242121744437684
vn 0.9817684191157399 -0.19001179736841553 0.0051271910248394574
vn 0.8718406037600414 -0.4897713405645864 0.004242121744437684
vn 0.997859283811262 -0.0651587088799456 -0.005585012871418801
vn -0.9063578822592779 -0.42027923365182945 -0.043367672608843895
vn -0.9986356468332057 0.027772057722285363 -0.044221687935842226
vn -0.9836887379329159 -0.1797875064105546 -0.005737543256637295
vn -0.9063578822592779 -0.42027923365182945 -0.043367672608843895
vn -0.9836887379329159 -0.1797875064105546 -0.005737543256637295
vn -0.759719069613905 -0.6502155029945216 -0.006836295090448364
vn -0.6627881082592924 -0.7485168151507176 0.02084468725347208
vn -0.9063578822592779 -0.42027923365182945 -0.043367672608843895
vn -0.759719069613905 -0.6502155029945216 -0.006836295090448364
vn -0.6627881082592924 -0.7485168151507176 0.02084468725347208
vn -0.759719069613905 -0.6502155029945216 -0.006836295090448364
vn -0.44798552804923025 -0.8937737308778916 -0.021851422174916525
vn -0.2905081778847069 -0.9564886591334042 -0.02710061865142231
vn -0.6627881082592924 -0.7485168151507176 0.02084468725347208
vn -0.44798552804923025 -0.8937737308778916 -0.021851422174916525
vn -0.2905081778847069 -0.9564886591334042 -0.02710061865142231
vn -0.44798552804923025 -0.8937737308778916 -0.021851422174916525
vn 0.047487731415786716 -0.9982191196594173 0.03610407887427394
vn 0.24839409750074304 -0.9685813614688159 -0.01226859983886618
vn -0.2905081778847069 -0.9564886591334042 -0.02710061865142231
vn 0.047487731415786716 -0.9982191196594173 0.03610407887427394
vn 0.24839409750074304 -0.9685813614688159 -0.01226859983886618
vn 0.047487731415786716 -0.9982191196594173 0.03610407887427394
vn 0.5813816240610569 -0.8135985803231688 -0.007263422075851245
vn 0.6128472556957933 -0.7901308370398299 0.010559429192550002
vn 0.24839409750074304 -0.9685813614688159 -0.01226859983886618
vn 0.5813816240610569 -0.8135985803231688 -0.007263422075851245
vn 0.895152102183164 -0.44560754807079245 -0.011688757821038677
vn 0.6128472556957933 -0.7901308370398299 0.010559429192550002
vn 0.5813816240610569 -0.8135985803231688 -0.007263422075851245
vn 0.895152102183164 -0.44560754807079245 -0.011688757821038677
vn 0.5813816240610569 -0.8135985803231688 -0.007263422075851245
vn 0.872322421556983 -0.48869951517983773 -0.015045820414747375
vn 0.895152102183164 -0.44560754807079245 -0.011688757821038677
vn 0.872322421556983 -0.48869951517983773 -0.015045820414747375
vn 0.9997968848545102 -0.018616428924315555 0.007721244026889936
vn 0.9997224663942865 0.01037656966572728 0.021149869704018283
vn 0.895152102183164 -0.44560754807079245 -0.011688757821038677
vn 0.9997968848545102 -0.018616428924315555 0.007721244026889936
f 1//1 2//2 3//3
f 4//4 5//5 6//6
f 7//7 8//8 9//9
f 10//10 11//11 12//12
f 13//13 14//14 15//15
f 16//16 17//17 18//18
f 19//19 20//20 21//21
f 22//22 23//23 24//24
f 25//25 26//26 27//27
f 28//28 29//29 30//30
f 31//31 32//32 33//33
f 34//34 35//35 36//36
f 37//37 38//38 39//39
f 40//40 41//41 42//42
f 43//43 44//44 45//45
f 46//46 47//47 48//48
f 49//49 50//50 51//51
f 52//52 53//53 54//54
f 55//55 56//56 57//57
f 58//58 59//59 60//60
f 61//61 62//62 63//63
f 64//64 65//65 66//66
f 67//67 68//68 69//69
f 70//70 71//71 72//72
f 73//73 74//74 75//75
f 76//76 77//77 78//78
f 79//79 80//80 81//81
f 82//82 83//83 84//84
f 85//85 86//86 87//87
f 88//88 89//89 90//90
f 91//91 92//92 93//93
f 94//94 95//95 96//96
f 97//97 98//98 99//99
f 100//100 101//101 102//102
f 103//103 104//104 105//105
f 106//106 107//107 108//108
f 109//109 110//110 111//111
f 112//112 113//113 114//114
f 115//115 116//116 117//117
f 118//118 119//119 120//120
f 121//121 122//122 123//123
f 124//124 125//125 126//126
f 127//127 128//128 129//129
f 130//130 131//131 132//132
f 133//133 134//134 135//135
f 136//136 137//137 138//138
f 139//139 140//140 141//141
f 142//142 143//143 144//144
f 145//145 146//146 147//147
f 148//148 149//149 150//150
f 151//151 152//152 153//153
f 154//154 155//155 156//156
f 157//157 158//158 159//159
f 160//160 161//161 162//162
f 163//163 164//164 165//165
f 166//166 167//167 168//168
f 169//169 170//170 171//171
f 172//172 173//173 174//174
f 175//175 176//176 177//177
f 178//178 179//179 180//180
f 181//181 182//182 183//183
f 184//184 185//185 186//186
f 187//187 188//188 189//189
f 190//190 191//191 192//192
f 193//193 194//194 195//195
f 196//196 197//197 198//198
f 199//199 200//200 201//201
f 202//202 203//203 204//204
f 205//205 206//206 207//207
f 208//208 209//209 210//210
f 211//211 212//212 213//213
f 214//214 215//215 216//216
f 217//217 218//218 219//219
f 220//220 221//221 222//222
f 223//223 224//224 225//225
f 226//226 227//227 228//228
f 229//229 230//230 231//231
f 232//232 233//233 234//234
f 235//235 236//236 237//237
f 238//238 239//239 240//240
f 241//241 242//242 243//243
f 244//244 245//245 246//246
f 247//247 248//248 249//249
f 250//250 251//251 252//252
f 253//253 254//254 255//255
f 256//256 257//257 258//258
f 259//259 260//260 261//261
f 262//262 263//263 264//264
f 265//265 266//266 267//267
f 268//268 269//269 270//270
f 271//271 272//272 273//273
f 274//274 275//275 276//276
f 277//277 278//278 279//279
f 280//280 281//281 282//282
f 283//283 284//284 285//285
f 286//286 287//287 288//288
f 289//289 290//290 291//291
f 292//292 293//293 294//294
f 295//295 296//296 297//297
f 298//298 299//299 300//300
f 301//301 302//302 303//303
f 304//304 305//305 306//306
f 307//307 308//308 309//309
f 310//310 311//311 312//312
f 313//313 314//314 315//315
f 316//316 317//317 318//318
f 319//319 320//320 321//321
f 322//322 323//323 324//324
f 325//325 326//326 327//327
f 328//328 329//329 330//330
