o node3
usemtl verbindung
v -0.0009551789844408631 0.035150278359651566 -0.03731358051300049
v -0.000010043399925052654 0.04351036995649338 -0.03689301013946533
v -0.0009253019816242158 0.04350094869732857 -0.03729652985930443
v -0.0009551789844408631 0.035150278359651566 -0.03731358051300049
v 0.00047294399701058865 0.035150278359651566 -0.03686261177062988
v -0.000010043399925052654 0.04351036995649338 -0.03689301013946533
v 0.0015718339709565043 0.035150278359651566 -0.03784364089369774
v 0.0016678570536896586 0.04350142925977707 -0.038358621299266815
v 0.0013613699702546 0.04350398853421211 -0.03751717880368233
v -0.0009551789844408631 0.035150278359651566 -0.03731358051300049
v -0.0009253019816242158 0.04350094869732857 -0.03729652985930443
v -0.0013731119688600302 0.04350382089614868 -0.03820544108748436
v -0.0014081000117585063 0.035150278359651566 -0.038656290620565414
v -0.0009551789844408631 0.035150278359651566 -0.03731358051300049
v -0.0013731119688600302 0.04350382089614868 -0.03820544108748436
v 0.00047294399701058865 0.035150278359651566 -0.03686261177062988
v 0.0013613699702546 0.04350398853421211 -0.03751717880368233
v 0.0008051099721342325 0.043483249843120575 -0.037043750286102295
v 0.00047294399701058865 0.035150278359651566 -0.03686261177062988
v 0.0015718339709565043 0.035150278359651566 -0.03784364089369774
v 0.0013613699702546 0.04350398853421211 -0.03751717880368233
v 0.00047294399701058865 0.035150278359651566 -0.03686261177062988
v 0.0008051099721342325 0.043483249843120575 -0.037043750286102295
v -0.000010043399925052654 0.04351036995649338 -0.03689301013946533
v 0.0008051099721342325 0.043483249843120575 -0.037043750286102295
v 0.0017320510232821107 0.04474151134490967 -0.036131199449300766
v 0.0005396010237745941 0.04475843161344528 -0.03566734865307808
v 0.0013613699702546 0.04350398853421211 -0.03751717880368233
v 0.0017320510232821107 0.04474151134490967 -0.036131199449300766
v 0.0008051099721342325 0.043483249843120575 -0.037043750286102295
v 0.0017320510232821107 0.04474151134490967 -0.036131199449300766
v 0.0013613699702546 0.04350398853421211 -0.03751717880368233
v 0.002638279926031828 0.04475228860974312 -0.03721261024475098
v 0.0016678570536896586 0.04350142925977707 -0.038358621299266815
v 0.002638279926031828 0.04475228860974312 -0.03721261024475098
v 0.0013613699702546 0.04350398853421211 -0.03751717880368233
v 0.0016678570536896586 0.04350142925977707 -0.038358621299266815
v 0.002688824897632003 0.044755809009075165 -0.03947383165359497
v 0.002904831897467375 0.04474914073944092 -0.038486298173666
v 0.0013613699702546 0.043518420308828354 -0.03933823108673096
v 0.002688824897632003 0.044755809009075165 -0.03947383165359497
v 0.0016678570536896586 0.04350142925977707 -0.038358621299266815
v 0.0005559180281125009 0.04350142925977707 -0.039856910705566406
v 0.0012832880020141602 0.04474920034408569 -0.04092574119567871
v 0.001914680004119873 0.04475228860974312 -0.04054151847958565
v 0.000023394799427478574 0.04476922005414963 -0.04119914025068283
v 0.0012832880020141602 0.04474920034408569 -0.04092574119567871
v 0.0005559180281125009 0.04350142925977707 -0.039856910705566406
v 0.0005396010237745941 0.04475843161344528 -0.03566734865307808
v -0.000010043399925052654 0.04351036995649338 -0.03689301013946533
v 0.0008051099721342325 0.043483249843120575 -0.037043750286102295
v 0.000023394799427478574 0.04476922005414963 -0.04119914025068283
v 0.0005559180281125009 0.04350142925977707 -0.039856910705566406
v -0.0002865610003937036 0.043526820838451385 -0.03989791125059128
v 0.0016678570536896586 0.04350142925977707 -0.038358621299266815
v 0.002904831897467375 0.04474914073944092 -0.038486298173666
v 0.002638279926031828 0.04475228860974312 -0.03721261024475098
v 0.001914680004119873 0.04475228860974312 -0.04054151847958565
v 0.0013613699702546 0.043518420308828354 -0.03933823108673096
v 0.0005559180281125009 0.04350142925977707 -0.039856910705566406
v 0.0013613699702546 0.043518420308828354 -0.03933823108673096
v 0.001914680004119873 0.04475228860974312 -0.04054151847958565
v 0.002688824897632003 0.044755809009075165 -0.03947383165359497
v -0.002621293067932129 0.04475193843245506 -0.038178738206624985
v -0.0021978020668029785 0.0447225496172905 -0.03690844029188156
v -0.0024788971059024334 0.0451502688229084 -0.03740048035979271
v -0.002621293067932129 0.04475193843245506 -0.038178738206624985
v -0.0024788971059024334 0.0451502688229084 -0.03740048035979271
v -0.0025838608853518963 0.0451502688229084 -0.038926951587200165
v -0.0005247590015642345 0.04475110024213791 -0.035721831023693085
v 0.0005396010237745941 0.04475843161344528 -0.03566734865307808
v 0.0006674380274489522 0.0451502688229084 -0.035645898431539536
v 0.002638279926031828 0.04475228860974312 -0.03721261024475098
v 0.002904831897467375 0.04474914073944092 -0.038486298173666
v 0.002875149017199874 0.0451502688229084 -0.03788071125745773
v -0.0005247590015642345 0.04475110024213791 -0.035721831023693085
v 0.0006674380274489522 0.0451502688229084 -0.035645898431539536
v -0.0012534259585663676 0.0451502688229084 -0.03597265109419823
v 0.002638279926031828 0.04475228860974312 -0.03721261024475098
v 0.002875149017199874 0.0451502688229084 -0.03788071125745773
v 0.0021774170454591513 0.0451502688229084 -0.036515410989522934
v -0.001387714990414679 0.0447506308555603 -0.036096569150686264
v -0.0005247590015642345 0.04475110024213791 -0.035721831023693085
v -0.0012534259585663676 0.0451502688229084 -0.03597265109419823
v 0.0017320510232821107 0.04474151134490967 -0.036131199449300766
v 0.002638279926031828 0.04475228860974312 -0.03721261024475098
v 0.0021774170454591513 0.0451502688229084 -0.036515410989522934
v -0.0021978020668029785 0.0447225496172905 -0.03690844029188156
v -0.001387714990414679 0.0447506308555603 -0.036096569150686264
v -0.0012534259585663676 0.0451502688229084 -0.03597265109419823
v -0.0021978020668029785 0.0447225496172905 -0.03690844029188156
v -0.0012534259585663676 0.0451502688229084 -0.03597265109419823
v -0.0024788971059024334 0.0451502688229084 -0.03740048035979271
v 0.0017320510232821107 0.04474151134490967 -0.036131199449300766
v 0.0021774170454591513 0.0451502688229084 -0.036515410989522934
v 0.0006674380274489522 0.0451502688229084 -0.035645898431539536
v 0.0005396010237745941 0.04475843161344528 -0.03566734865307808
v 0.0017320510232821107 0.04474151134490967 -0.036131199449300766
v 0.0006674380274489522 0.0451502688229084 -0.035645898431539536
v 0.001034199958667159 0.035150278359651566 -0.03965073078870773
v 0.0005559180281125009 0.04350142925977707 -0.039856910705566406
v 0.0013613699702546 0.043518420308828354 -0.03933823108673096
v -0.0014081000117585063 0.035150278359651566 -0.038656290620565414
v -0.0013731119688600302 0.04350382089614868 -0.03820544108748436
v -0.0012161730555817485 0.04350363835692406 -0.039120789617300034
v 0.0015849469928070903 0.035150278359651566 -0.038859058171510696
v 0.001034199958667159 0.035150278359651566 -0.03965073078870773
v 0.0013613699702546 0.043518420308828354 -0.03933823108673096
v 0.0015849469928070903 0.035150278359651566 -0.038859058171510696
v 0.0013613699702546 0.043518420308828354 -0.03933823108673096
v 0.0016678570536896586 0.04350142925977707 -0.038358621299266815
v -0.000687032996211201 0.035150278359651566 -0.039689239114522934
v -0.0014081000117585063 0.035150278359651566 -0.038656290620565414
v -0.0012161730555817485 0.04350363835692406 -0.039120789617300034
v -0.000687032996211201 0.035150278359651566 -0.039689239114522934
v -0.0012161730555817485 0.04350363835692406 -0.039120789617300034
v -0.0002865610003937036 0.043526820838451385 -0.03989791125059128
v 0.0015718339709565043 0.035150278359651566 -0.03784364089369774
v 0.0015849469928070903 0.035150278359651566 -0.038859058171510696
v 0.0016678570536896586 0.04350142925977707 -0.038358621299266815
v 0.00013715399836655706 0.035150278359651566 -0.039920561015605927
v -0.000687032996211201 0.035150278359651566 -0.039689239114522934
v -0.0002865610003937036 0.043526820838451385 -0.03989791125059128
v 0.00013715399836655706 0.035150278359651566 -0.039920561015605927
v -0.0002865610003937036 0.043526820838451385 -0.03989791125059128
v 0.0005559180281125009 0.04350142925977707 -0.039856910705566406
v 0.001034199958667159 0.035150278359651566 -0.03965073078870773
v 0.00013715399836655706 0.035150278359651566 -0.039920561015605927
v 0.0005559180281125009 0.04350142925977707 -0.039856910705566406
v 0.001034199958667159 0.035150278359651566 -0.03965073078870773
v 0.0015849469928070903 0.035150278359651566 -0.038859058171510696
v -0.000687032996211201 0.035150278359651566 -0.039689239114522934
v 0.00013715399836655706 0.035150278359651566 -0.039920561015605927
v 0.001034199958667159 0.035150278359651566 -0.03965073078870773
v -0.000687032996211201 0.035150278359651566 -0.039689239114522934
v -0.000687032996211201 0.035150278359651566 -0.039689239114522934
v 0.0015718339709565043 0.035150278359651566 -0.03784364089369774
v -0.0014081000117585063 0.035150278359651566 -0.038656290620565414
v 0.0015718339709565043 0.035150278359651566 -0.03784364089369774
v 0.00047294399701058865 0.035150278359651566 -0.03686261177062988
v -0.0009551789844408631 0.035150278359651566 -0.03731358051300049
v -0.0014081000117585063 0.035150278359651566 -0.038656290620565414
v 0.0015718339709565043 0.035150278359651566 -0.03784364089369774
v -0.0009551789844408631 0.035150278359651566 -0.03731358051300049
v 0.0015849469928070903 0.035150278359651566 -0.038859058171510696
v 0.0015718339709565043 0.035150278359651566 -0.03784364089369774
v -0.000687032996211201 0.035150278359651566 -0.039689239114522934
v -0.0002865610003937036 0.043526820838451385 -0.03989791125059128
v -0.0014730689581483603 0.04475622996687889 -0.040672000497579575
v 0.000023394799427478574 0.04476922005414963 -0.04119914025068283
v -0.0013731119688600302 0.04350382089614868 -0.03820544108748436
v -0.002621293067932129 0.04475193843245506 -0.038178738206624985
v -0.0012161730555817485 0.04350363835692406 -0.039120789617300034
v -0.0021978020668029785 0.0447225496172905 -0.03690844029188156
v -0.002621293067932129 0.04475193843245506 -0.038178738206624985
v -0.0013731119688600302 0.04350382089614868 -0.03820544108748436
v -0.0021978020668029785 0.0447225496172905 -0.03690844029188156
v -0.0013731119688600302 0.04350382089614868 -0.03820544108748436
v -0.0009253019816242158 0.04350094869732857 -0.03729652985930443
v -0.0009253019816242158 0.04350094869732857 -0.03729652985930443
v -0.001387714990414679 0.0447506308555603 -0.036096569150686264
v -0.0021978020668029785 0.0447225496172905 -0.03690844029188156
v -0.0009253019816242158 0.04350094869732857 -0.03729652985930443
v -0.0005247590015642345 0.04475110024213791 -0.035721831023693085
v -0.001387714990414679 0.0447506308555603 -0.036096569150686264
v -0.0005247590015642345 0.04475110024213791 -0.035721831023693085
v -0.0009253019816242158 0.04350094869732857 -0.03729652985930443
v -0.000010043399925052654 0.04351036995649338 -0.03689301013946533
v -0.000010043399925052654 0.04351036995649338 -0.03689301013946533
v 0.0005396010237745941 0.04475843161344528 -0.03566734865307808
v -0.0005247590015642345 0.04475110024213791 -0.035721831023693085
v -0.0012161730555817485 0.04350363835692406 -0.039120789617300034
v -0.0014730689581483603 0.04475622996687889 -0.040672000497579575
v -0.0002865610003937036 0.043526820838451385 -0.03989791125059128
v -0.0012161730555817485 0.04350363835692406 -0.039120789617300034
v -0.002429068088531494 0.04475146159529686 -0.03948158025741577
v -0.0014730689581483603 0.04475622996687889 -0.040672000497579575
v -0.0012161730555817485 0.04350363835692406 -0.039120789617300034
v -0.002621293067932129 0.04475193843245506 -0.038178738206624985
v -0.002429068088531494 0.04475146159529686 -0.03948158025741577
v 0.000023394799427478574 0.04476922005414963 -0.04119914025068283
v -0.0009512900141999125 0.0451502688229084 -0.040942251682281494
v 0.00024269100686069578 0.04515032842755318 -0.04119205102324486
v 0.002904831897467375 0.04474914073944092 -0.038486298173666
v 0.002688824897632003 0.044755809009075165 -0.03947383165359497
v 0.0026692149695008993 0.0451502688229084 -0.0396076999604702
v 0.002904831897467375 0.04474914073944092 -0.038486298173666
v 0.0026692149695008993 0.0451502688229084 -0.0396076999604702
v 0.002875149017199874 0.0451502688229084 -0.03788071125745773
v -0.002429068088531494 0.04475146159529686 -0.03948158025741577
v -0.002621293067932129 0.04475193843245506 -0.038178738206624985
v -0.0025838608853518963 0.0451502688229084 -0.038926951587200165
v -0.002429068088531494 0.04475146159529686 -0.03948158025741577
v -0.0025838608853518963 0.0451502688229084 -0.038926951587200165
v -0.001981079112738371 0.0451502688229084 -0.04022448882460594
v 0.0012832880020141602 0.04474920034408569 -0.04092574119567871
v 0.00024269100686069578 0.04515032842755318 -0.04119205102324486
v 0.0016039010370150208 0.0451502688229084 -0.04075955972075462
v 0.0012832880020141602 0.04474920034408569 -0.04092574119567871
v 0.000023394799427478574 0.04476922005414963 -0.04119914025068283
v 0.00024269100686069578 0.04515032842755318 -0.04119205102324486
v -0.0014730689581483603 0.04475622996687889 -0.040672000497579575
v -0.002429068088531494 0.04475146159529686 -0.03948158025741577
v -0.001981079112738371 0.0451502688229084 -0.04022448882460594
v 0.001914680004119873 0.04475228860974312 -0.04054151847958565
v 0.0012832880020141602 0.04474920034408569 -0.04092574119567871
v 0.0016039010370150208 0.0451502688229084 -0.04075955972075462
v 0.001914680004119873 0.04475228860974312 -0.04054151847958565
v 0.0016039010370150208 0.0451502688229084 -0.04075955972075462
v 0.0026692149695008993 0.0451502688229084 -0.0396076999604702
v -0.0014730689581483603 0.04475622996687889 -0.040672000497579575
v -0.001981079112738371 0.0451502688229084 -0.04022448882460594
v -0.0009512900141999125 0.0451502688229084 -0.040942251682281494
v 0.002688824897632003 0.044755809009075165 -0.03947383165359497
v 0.001914680004119873 0.04475228860974312 -0.04054151847958565
v 0.0026692149695008993 0.0451502688229084 -0.0396076999604702
v 0.000023394799427478574 0.04476922005414963 -0.04119914025068283
v -0.0014730689581483603 0.04475622996687889 -0.040672000497579575
v -0.0009512900141999125 0.0451502688229084 -0.040942251682281494
v 0.00024269100686069578 0.04515032842755318 -0.04119205102324486
v -0.0009512900141999125 0.0451502688229084 -0.040942251682281494
v 0.00008949449693318456 0.0451502688229084 -0.0397416315972805
v 0.00014102799468673766 0.0451502688229084 -0.037028610706329346
v -0.0012534259585663676 0.0451502688229084 -0.03597265109419823
v 0.0006674380274489522 0.0451502688229084 -0.035645898431539536
v 0.0016039010370150208 0.0451502688229084 -0.04075955972075462
v 0.00024269100686069578 0.04515032842755318 -0.04119205102324486
v 0.00008949449693318456 0.0451502688229084 -0.0397416315972805
v -0.001981079112738371 0.0451502688229084 -0.04022448882460594
v -0.001161872991360724 0.0451502688229084 -0.03915600851178169
v 0.00008949449693318456 0.0451502688229084 -0.0397416315972805
v 0.0014361139619722962 0.0451502688229084 -0.03915600851178169
v 0.0012161730555817485 0.0451502688229084 -0.0384061299264431
v 0.002875149017199874 0.0451502688229084 -0.03788071125745773
v 0.0026692149695008993 0.0451502688229084 -0.0396076999604702
v 0.0014361139619722962 0.0451502688229084 -0.03915600851178169
v 0.002875149017199874 0.0451502688229084 -0.03788071125745773
v -0.0009512900141999125 0.0451502688229084 -0.040942251682281494
v -0.001981079112738371 0.0451502688229084 -0.04022448882460594
v 0.00008949449693318456 0.0451502688229084 -0.0397416315972805
v -0.001161872991360724 0.0451502688229084 -0.03915600851178169
v -0.0025838608853518963 0.0451502688229084 -0.038926951587200165
v -0.0009419000125490129 0.0451502688229084 -0.0384061299264431
v 0.0012161730555817485 0.0451502688229084 -0.0384061299264431
v 0.0012698170030489564 0.0451502688229084 -0.03769700974225998
v 0.002875149017199874 0.0451502688229084 -0.03788071125745773
v -0.0025838608853518963 0.0451502688229084 -0.038926951587200165
v -0.0024788971059024334 0.0451502688229084 -0.03740048035979271
v -0.0009419000125490129 0.0451502688229084 -0.0384061299264431
v -0.0009419000125490129 0.0451502688229084 -0.0384061299264431
v -0.0024788971059024334 0.0451502688229084 -0.03740048035979271
v -0.001161872991360724 0.0451502688229084 -0.037656061351299286
v 0.0016039010370150208 0.0451502688229084 -0.04075955972075462
v 0.00008949449693318456 0.0451502688229084 -0.0397416315972805
v 0.0006766570149920881 0.0451502688229084 -0.03934042900800705
v 0.0012698170030489564 0.0451502688229084 -0.03769700974225998
v 0.00014102799468673766 0.0451502688229084 -0.037028610706329346
v 0.0006674380274489522 0.0451502688229084 -0.035645898431539536
v -0.001161872991360724 0.0451502688229084 -0.037656061351299286
v -0.0024788971059024334 0.0451502688229084 -0.03740048035979271
v -0.0012534259585663676 0.0451502688229084 -0.03597265109419823
v 0.002875149017199874 0.0451502688229084 -0.03788071125745773
v 0.0012698170030489564 0.0451502688229084 -0.03769700974225998
v 0.0021774170454591513 0.0451502688229084 -0.036515410989522934
v 0.0012698170030489564 0.0451502688229084 -0.03769700974225998
v 0.0006674380274489522 0.0451502688229084 -0.035645898431539536
v 0.0021774170454591513 0.0451502688229084 -0.036515410989522934
v 0.0016039010370150208 0.0451502688229084 -0.04075955972075462
v 0.0006766570149920881 0.0451502688229084 -0.03934042900800705
v 0.0014361139619722962 0.0451502688229084 -0.03915600851178169
v 0.0026692149695008993 0.0451502688229084 -0.0396076999604702
v 0.0016039010370150208 0.0451502688229084 -0.04075955972075462
v 0.0014361139619722962 0.0451502688229084 -0.03915600851178169
v 0.00014102799468673766 0.0451502688229084 -0.037028610706329346
v -0.001161872991360724 0.0451502688229084 -0.037656061351299286
v -0.0012534259585663676 0.0451502688229084 -0.03597265109419823
v -0.001981079112738371 0.0451502688229084 -0.04022448882460594
v -0.0025838608853518963 0.0451502688229084 -0.038926951587200165
v -0.001161872991360724 0.0451502688229084 -0.03915600851178169
v 0.0006766570149920881 0.0451502688229084 -0.03934042900800705
v 0.0001371380058117211 0.044320400804281235 -0.03990614041686058
v 0.0012698170030489564 0.044320400804281235 -0.03911513090133667
v 0.0006766570149920881 0.0451502688229084 -0.03934042900800705
v 0.00008949449693318456 0.0451502688229084 -0.0397416315972805
v 0.0001371380058117211 0.044320400804281235 -0.03990614041686058
v 0.0014361139619722962 0.0451502688229084 -0.03915600851178169
v 0.0006766570149920881 0.0451502688229084 -0.03934042900800705
v 0.0012698170030489564 0.044320400804281235 -0.03911513090133667
v 0.0014361139619722962 0.0451502688229084 -0.03915600851178169
v 0.0012698170030489564 0.044320400804281235 -0.03911513090133667
v 0.001260638004168868 0.044320400804281235 -0.03783868998289108
v 0.0012161730555817485 0.0451502688229084 -0.0384061299264431
v 0.0014361139619722962 0.0451502688229084 -0.03915600851178169
v 0.001260638004168868 0.044320400804281235 -0.03783868998289108
v 0.0012698170030489564 0.0451502688229084 -0.03769700974225998
v 0.0012161730555817485 0.0451502688229084 -0.0384061299264431
v 0.001260638004168868 0.044320400804281235 -0.03783868998289108
v 0.0012698170030489564 0.0451502688229084 -0.03769700974225998
v 0.001260638004168868 0.044320400804281235 -0.03783868998289108
v 0.0006766570149920881 0.044320400804281235 -0.037471648305654526
v 0.00014102799468673766 0.0451502688229084 -0.037028610706329346
v 0.0006766570149920881 0.044320400804281235 -0.037471648305654526
v 0.00006672369636362419 0.044320400804281235 -0.03714931011199951
v 0.00014102799468673766 0.0451502688229084 -0.037028610706329346
v 0.0012698170030489564 0.0451502688229084 -0.03769700974225998
v 0.0006766570149920881 0.044320400804281235 -0.037471648305654526
v -0.001161872991360724 0.0451502688229084 -0.037656061351299286
v 0.00006672369636362419 0.044320400804281235 -0.03714931011199951
v -0.0010432599810883403 0.044320400804281235 -0.03777951002120972
v -0.001161872991360724 0.0451502688229084 -0.037656061351299286
v 0.00014102799468673766 0.0451502688229084 -0.037028610706329346
v 0.00006672369636362419 0.044320400804281235 -0.03714931011199951
v -0.0009419000125490129 0.0451502688229084 -0.0384061299264431
v -0.001161872991360724 0.0451502688229084 -0.037656061351299286
v -0.0010432599810883403 0.044320400804281235 -0.03777951002120972
v -0.0009419000125490129 0.0451502688229084 -0.0384061299264431
v -0.0010432599810883403 0.044320400804281235 -0.03777951002120972
v -0.001161872991360724 0.044320400804281235 -0.03915600851178169
v -0.001161872991360724 0.0451502688229084 -0.03915600851178169
v -0.0009419000125490129 0.0451502688229084 -0.0384061299264431
v -0.001161872991360724 0.044320400804281235 -0.03915600851178169
v -0.001161872991360724 0.0451502688229084 -0.03915600851178169
v -0.001161872991360724 0.044320400804281235 -0.03915600851178169
v -0.0004023810033686459 0.044320400804281235 -0.03934042900800705
v 0.00008949449693318456 0.0451502688229084 -0.0397416315972805
v -0.001161872991360724 0.0451502688229084 -0.03915600851178169
v -0.0004023810033686459 0.044320400804281235 -0.03934042900800705
v 0.00008949449693318456 0.0451502688229084 -0.0397416315972805
v -0.0004023810033686459 0.044320400804281235 -0.03934042900800705
v 0.0001371380058117211 0.044320400804281235 -0.03990614041686058
v -0.0004023810033686459 0.044320400804281235 -0.03934042900800705
v 0.0012698170030489564 0.044320400804281235 -0.03911513090133667
v 0.0001371380058117211 0.044320400804281235 -0.03990614041686058
v -0.0004023810033686459 0.044320400804281235 -0.03934042900800705
v 0.001260638004168868 0.044320400804281235 -0.03783868998289108
v 0.0012698170030489564 0.044320400804281235 -0.03911513090133667
v 0.0006766570149920881 0.044320400804281235 -0.037471648305654526
v 0.001260638004168868 0.044320400804281235 -0.03783868998289108
v -0.0004023810033686459 0.044320400804281235 -0.03934042900800705
v -0.0010432599810883403 0.044320400804281235 -0.03777951002120972
v -0.0004023810033686459 0.044320400804281235 -0.03934042900800705
v -0.001161872991360724 0.044320400804281235 -0.03915600851178169
v 0.00006672369636362419 0.044320400804281235 -0.03714931011199951
v 0.0006766570149920881 0.044320400804281235 -0.037471648305654526
v -0.0004023810033686459 0.044320400804281235 -0.03934042900800705
v 0.00006672369636362419 0.044320400804281235 -0.03714931011199951
v -0.0004023810033686459 0.044320400804281235 -0.03934042900800705
v -0.0010432599810883403 0.044320400804281235 -0.03777951002120972
vn -0.4033776885478132 -0.000425174984795837 0.9150334745833378
vn -0.4033776885478132 -0.000425174984795837 0.9150334745833378
vn -0.4033776885478132 -0.000425174984795837 0.9150334745833378
vn -0.30108946780522244 -0.01392238876650917 0.9534942577004867
vn -0.30108946780522244 -0.01392238876650917 0.9534942577004867
vn -0.30108946780522244 -0.01392238876650917 0.9534942577004867
vn 0.9395707688102521 0.01030098815866835 0.34219973705464335
vn 0.9395707688102521 0.01030098815866835 0.34219973705464335
vn 0.9395707688102521 0.01030098815866835 0.34219973705464335
vn -0.8970294434387936 0.0023069376644804956 0.4419647674221335
vn -0.8970294434387936 0.0023069376644804956 0.4419647674221335
vn -0.8970294434387936 0.0023069376644804956 0.4419647674221335
vn -0.9474604869258801 -0.013280680604148635 0.3195970106819911
vn -0.9474604869258801 -0.013280680604148635 0.3195970106819911
vn -0.9474604869258801 -0.013280680604148635 0.3195970106819911
vn 0.648346526293495 -0.009295939223836378 0.7612886229000834
vn 0.648346526293495 -0.009295939223836378 0.7612886229000834
vn 0.648346526293495 -0.009295939223836378 0.7612886229000834
vn 0.6659210678208679 -0.012367959615911148 0.7459196773160327
vn 0.6659210678208679 -0.012367959615911148 0.7459196773160327
vn 0.6659210678208679 -0.012367959615911148 0.7459196773160327
vn 0.1822213953531103 0.014107879996410116 0.9831563104601284
vn 0.1822213953531103 0.014107879996410116 0.9831563104601284
vn 0.1822213953531103 0.014107879996410116 0.9831563104601284
vn 0.2559494056185899 -0.6840006650376886 0.6831054032808481
vn 0.2559494056185899 -0.6840006650376886 0.6831054032808481
vn 0.2559494056185899 -0.6840006650376886 0.6831054032808481
vn 0.4663785468337149 -0.7181670177995375 0.5164563733735806
vn 0.4663785468337149 -0.7181670177995375 0.5164563733735806
vn 0.4663785468337149 -0.7181670177995375 0.5164563733735806
vn 0.5606775739178105 -0.6865124530198069 0.4629700961772429
vn 0.5606775739178105 -0.6865124530198069 0.4629700961772429
vn 0.5606775739178105 -0.6865124530198069 0.4629700961772429
vn 0.6491481094663775 -0.7222579153759691 0.23864248501259677
vn 0.6491481094663775 -0.7222579153759691 0.23864248501259677
vn 0.6491481094663775 -0.7222579153759691 0.23864248501259677
vn 0.6933469966731336 -0.703415413550879 -0.1564503057951372
vn 0.6933469966731336 -0.703415413550879 -0.1564503057951372
vn 0.6933469966731336 -0.703415413550879 -0.1564503057951372
vn 0.6536632142283879 -0.724992867077576 -0.21704779439388217
vn 0.6536632142283879 -0.724992867077576 -0.21704779439388217
vn 0.6536632142283879 -0.724992867077576 -0.21704779439388217
vn 0.3637358789971366 -0.7191659104734808 -0.5920275361358035
vn 0.3637358789971366 -0.7191659104734808 -0.5920275361358035
vn 0.3637358789971366 -0.7191659104734808 -0.5920275361358035
vn 0.1429013926027443 -0.690608569794995 -0.7089703768973058
vn 0.1429013926027443 -0.690608569794995 -0.7089703768973058
vn 0.1429013926027443 -0.690608569794995 -0.7089703768973058
vn 0.10298529678853241 -0.7196663905675472 0.6866398728102356
vn 0.10298529678853241 -0.7196663905675472 0.6866398728102356
vn 0.10298529678853241 -0.7196663905675472 0.6866398728102356
vn 0.01174240993650702 -0.7246143028396264 -0.6890545899485218
vn 0.01174240993650702 -0.7246143028396264 -0.6890545899485218
vn 0.01174240993650702 -0.7246143028396264 -0.6890545899485218
vn 0.709717135770848 -0.6882759150995773 0.1502592821993476
vn 0.709717135770848 -0.6882759150995773 0.1502592821993476
vn 0.709717135770848 -0.6882759150995773 0.1502592821993476
vn 0.38233217819934545 -0.7272906345811967 -0.5699740681503186
vn 0.38233217819934545 -0.7272906345811967 -0.5699740681503186
vn 0.38233217819934545 -0.7272906345811967 -0.5699740681503186
vn 0.5926865266477405 -0.6826379215313002 -0.4274671323244204
vn 0.5926865266477405 -0.6826379215313002 -0.4274671323244204
vn 0.5926865266477405 -0.6826379215313002 -0.4274671323244204
vn -0.9182701107680868 -0.2581969796723004 0.3001904784600391
vn -0.9182701107680868 -0.2581969796723004 0.3001904784600391
vn -0.9182701107680868 -0.2581969796723004 0.3001904784600391
vn -0.9738136182289293 0.21726400214336222 0.06695812366345111
vn -0.9738136182289293 0.21726400214336222 0.06695812366345111
vn -0.9738136182289293 0.21726400214336222 0.06695812366345111
vn -0.05081462456318499 -0.038203652713121726 0.9979771314263056
vn -0.05081462456318499 -0.038203652713121726 0.9979771314263056
vn -0.05081462456318499 -0.038203652713121726 0.9979771314263056
vn 0.9521619901416771 -0.23118807919002424 0.19984898441039878
vn 0.9521619901416771 -0.23118807919002424 0.19984898441039878
vn 0.9521619901416771 -0.23118807919002424 0.19984898441039878
vn -0.1600362834523082 0.2988722672837989 0.9407782713410284
vn -0.1600362834523082 0.2988722672837989 0.9407782713410284
vn -0.1600362834523082 0.2988722672837989 0.9407782713410284
vn 0.867048758374131 0.22783431883438132 0.44307784165217673
vn 0.867048758374131 0.22783431883438132 0.44307784165217673
vn 0.867048758374131 0.22783431883438132 0.44307784165217673
vn -0.39374475846238277 -0.14893118725108223 0.9070747304645758
vn -0.39374475846238277 -0.14893118725108223 0.9070747304645758
vn -0.39374475846238277 -0.14893118725108223 0.9070747304645758
vn 0.7474366421566181 -0.2277455775436292 0.6240756507595523
vn 0.7474366421566181 -0.2277455775436292 0.6240756507595523
vn 0.7474366421566181 -0.2277455775436292 0.6240756507595523
vn -0.7081086342672887 0.01907520848582163 0.7058458036266402
vn -0.7081086342672887 0.01907520848582163 0.7058458036266402
vn -0.7081086342672887 0.01907520848582163 0.7058458036266402
vn -0.7361023979676853 0.2429354921882809 0.6317717992609841
vn -0.7361023979676853 0.2429354921882809 0.6317717992609841
vn -0.7361023979676853 0.2429354921882809 0.6317717992609841
vn 0.4816703206147154 0.2613836231998672 0.8364641676496533
vn 0.4816703206147154 0.2613836231998672 0.8364641676496533
vn 0.4816703206147154 0.2613836231998672 0.8364641676496533
vn 0.3553756691706442 -0.16643468652689927 0.9197867301076972
vn 0.3553756691706442 -0.16643468652689927 0.9197867301076972
vn 0.3553756691706442 -0.16643468652689927 0.9197867301076972
vn 0.5412309112514603 0.01024459757249316 -0.8408116013272483
vn 0.5412309112514603 0.01024459757249316 -0.8408116013272483
vn 0.5412309112514603 0.01024459757249316 -0.8408116013272483
vn -0.9855314971913491 0.013247538200281652 -0.16897387601463604
vn -0.9855314971913491 0.013247538200281652 -0.16897387601463604
vn -0.9855314971913491 0.013247538200281652 -0.16897387601463604
vn 0.8208468892057912 -0.01076363924273481 -0.5710468707132784
vn 0.8208468892057912 -0.01076363924273481 -0.5710468707132784
vn 0.8208468892057912 -0.01076363924273481 -0.5710468707132784
vn 0.9543830235546571 0.00841045293487662 -0.2984665955045905
vn 0.9543830235546571 0.00841045293487662 -0.2984665955045905
vn 0.9543830235546571 0.00841045293487662 -0.2984665955045905
vn -0.8199053449113054 -0.012988149255621202 -0.5723517566713562
vn -0.8199053449113054 -0.012988149255621202 -0.5723517566713562
vn -0.8199053449113054 -0.012988149255621202 -0.5723517566713562
vn -0.6415308303936201 0.011557929553041739 -0.7670101745863084
vn -0.6415308303936201 0.011557929553041739 -0.7670101745863084
vn -0.6415308303936201 0.011557929553041739 -0.7670101745863084
vn 0.9998593924391523 -0.010700220239961426 0.012911260125389266
vn 0.9998593924391523 -0.010700220239961426 0.012911260125389266
vn 0.9998593924391523 -0.010700220239961426 0.012911260125389266
vn -0.2702760649512513 -0.011068158590962603 -0.9627192449410535
vn -0.2702760649512513 -0.011068158590962603 -0.9627192449410535
vn -0.2702760649512513 -0.011068158590962603 -0.9627192449410535
vn 0.04883634972523169 0.005170880741092272 -0.9987934085374592
vn 0.04883634972523169 0.005170880741092272 -0.9987934085374592
vn 0.04883634972523169 0.005170880741092272 -0.9987934085374592
vn 0.2880422854742121 -0.007138370743857537 -0.9575910846712785
vn 0.2880422854742121 -0.007138370743857537 -0.9575910846712785
vn 0.2880422854742121 -0.007138370743857537 -0.9575910846712785
vn 0 -0.9999999999411637 0.000010847699740496182
vn 0 -0.9999999999411637 0.000010847699740496182
vn 0 -0.9999999999411637 0.000010847699740496182
vn 0 -0.9999999998568094 -0.000016922800566440564
vn 0 -0.9999999998568094 -0.000016922800566440564
vn 0 -0.9999999998568094 -0.000016922800566440564
vn 0 -0.9999999999921136 -0.000003971490059453174
vn 0 -0.9999999999921136 -0.000003971490059453174
vn 0 -0.9999999999921136 -0.000003971490059453174
vn 0 -0.9999999999926414 -0.00000383633005182579
vn 0 -0.9999999999926414 -0.00000383633005182579
vn 0 -0.9999999999926414 -0.00000383633005182579
vn 0 -1 0
vn 0 -1 0
vn 0 -1 0
vn 0 -1 0
vn 0 -1 0
vn 0 -1 0
vn -0.24061866826596845 -0.6727490210349559 -0.6996509209444521
vn -0.24061866826596845 -0.6727490210349559 -0.6996509209444521
vn -0.24061866826596845 -0.6727490210349559 -0.6996509209444521
vn -0.7032297676231019 -0.7006899541672122 -0.12042209954118875
vn -0.7032297676231019 -0.7006899541672122 -0.12042209954118875
vn -0.7032297676231019 -0.7006899541672122 -0.12042209954118875
vn -0.6884941476098457 -0.6930952685702629 0.2135292893082986
vn -0.6884941476098457 -0.6930952685702629 0.2135292893082986
vn -0.6884941476098457 -0.6930952685702629 0.2135292893082986
vn -0.6117731811088736 -0.7322851874565945 0.2991521002894507
vn -0.6117731811088736 -0.7322851874565945 0.2991521002894507
vn -0.6117731811088736 -0.7322851874565945 0.2991521002894507
vn -0.5013032733427323 -0.6886140352407876 0.5239329523949237
vn -0.5013032733427323 -0.6886140352407876 0.5239329523949237
vn -0.5013032733427323 -0.6886140352407876 0.5239329523949237
vn -0.27730217435715737 -0.7168729268994525 0.6396848527012382
vn -0.27730217435715737 -0.7168729268994525 0.6396848527012382
vn -0.27730217435715737 -0.7168729268994525 0.6396848527012382
vn -0.27463049443392074 -0.7178284721089042 0.6397658760490249
vn -0.27463049443392074 -0.7178284721089042 0.6397658760490249
vn -0.27463049443392074 -0.7178284721089042 0.6397658760490249
vn -0.03209060102121721 -0.6930798983503762 0.720146129496458
vn -0.03209060102121721 -0.6930798983503762 0.720146129496458
vn -0.03209060102121721 -0.6930798983503762 0.720146129496458
vn -0.42161367889069085 -0.7383495914030963 -0.5263855874234573
vn -0.42161367889069085 -0.7383495914030963 -0.5263855874234573
vn -0.42161367889069085 -0.7383495914030963 -0.5263855874234573
vn -0.5673806212012933 -0.6840599944986655 -0.4584115559316979
vn -0.5673806212012933 -0.6840599944986655 -0.4584115559316979
vn -0.5673806212012933 -0.6840599944986655 -0.4584115559316979
vn -0.6982595663696296 -0.7084305025799473 -0.1027608923064617
vn -0.6982595663696296 -0.7084305025799473 -0.1027608923064617
vn -0.6982595663696296 -0.7084305025799473 -0.1027608923064617
vn -0.20291106195001757 0.13495299081832554 -0.9698529740159099
vn -0.20291106195001757 0.13495299081832554 -0.9698529740159099
vn -0.20291106195001757 0.13495299081832554 -0.9698529740159099
vn 0.9765889620661324 -0.02400099852752766 -0.21377079136373137
vn 0.9765889620661324 -0.02400099852752766 -0.21377079136373137
vn 0.9765889620661324 -0.02400099852752766 -0.21377079136373137
vn 0.9628199106365255 0.24452958410457543 -0.1148176910563708
vn 0.9628199106365255 0.24452958410457543 -0.1148176910563708
vn 0.9628199106365255 0.24452958410457543 -0.1148176910563708
vn -0.9734716879393022 -0.17816959079798525 -0.14355650349421456
vn -0.9734716879393022 -0.17816959079798525 -0.14355650349421456
vn -0.9734716879393022 -0.17816959079798525 -0.14355650349421456
vn -0.8830708730542626 0.2277536954521439 -0.4102609990860384
vn -0.8830708730542626 0.2277536954521439 -0.4102609990860384
vn -0.8830708730542626 0.2277536954521439 -0.4102609990860384
vn 0.29934170486323736 0.15106530307956217 -0.9421113617482014
vn 0.29934170486323736 0.15106530307956217 -0.9421113617482014
vn 0.29934170486323736 0.15106530307956217 -0.9421113617482014
vn 0.20943919358874868 -0.10227539651425231 -0.9724582085913754
vn 0.20943919358874868 -0.10227539651425231 -0.9724582085913754
vn 0.20943919358874868 -0.10227539651425231 -0.9724582085913754
vn -0.7477901668930204 -0.2807030711947446 -0.6016773654708534
vn -0.7477901668930204 -0.2807030711947446 -0.6016773654708534
vn -0.7477901668930204 -0.2807030711947446 -0.6016773654708534
vn 0.5190105394616674 -0.06165020116019032 -0.8525416779399217
vn 0.5190105394616674 -0.06165020116019032 -0.8525416779399217
vn 0.5190105394616674 -0.06165020116019032 -0.8525416779399217
vn 0.7196958405328674 0.19743526770414271 -0.6656254293416702
vn 0.7196958405328674 0.19743526770414271 -0.6656254293416702
vn 0.7196958405328674 0.19743526770414271 -0.6656254293416702
vn -0.5612897327120626 0.19091119043054455 -0.8052991700730938
vn -0.5612897327120626 0.19091119043054455 -0.8052991700730938
vn -0.5612897327120626 0.19091119043054455 -0.8052991700730938
vn 0.7998317444136034 -0.15686228800838256 -0.5793646547978807
vn 0.7998317444136034 -0.15686228800838256 -0.5793646547978807
vn 0.7998317444136034 -0.15686228800838256 -0.5793646547978807
vn -0.32363766495484625 -0.20494738261492196 -0.9237181562478175
vn -0.32363766495484625 -0.20494738261492196 -0.9237181562478175
vn -0.32363766495484625 -0.20494738261492196 -0.9237181562478175
vn -0.000044898100816988204 0.9999999982444927 0.00003866749823406641
vn -0.000044898100816988204 0.9999999982444927 0.00003866749823406641
vn -0.000044898100816988204 0.9999999982444927 0.00003866749823406641
vn 0 1 0
vn 0 1 0
vn 0 1 0
vn 0.00003159160035812376 0.9999999980944336 0.0000530387004699821
vn 0.00003159160035812376 0.9999999980944336 0.0000530387004699821
vn 0.00003159160035812376 0.9999999980944336 0.0000530387004699821
vn 0 0.9999999999919797 -0.000004005089976967321
vn 0 0.9999999999919797 -0.000004005089976967321
vn 0 0.9999999999919797 -0.000004005089976967321
vn 0 1 0
vn 0 1 0
vn 0 1 0
vn 0 1 0
vn 0 1 0
vn 0 1 0
vn 0 1 0
vn 0 1 0
vn 0 1 0
vn 0 1 0
vn 0 1 0
vn 0 1 0
vn 0 1 0
vn 0 1 0
vn 0 1 0
vn 0 0.9999999999823872 -0.000005935120043327573
vn 0 0.9999999999823872 -0.000005935120043327573
vn 0 0.9999999999823872 -0.000005935120043327573
vn 0 1 0
vn 0 1 0
vn 0 1 0
vn 0 0.9999999999954441 -0.0000030186099593128156
vn 0 0.9999999999954441 -0.0000030186099593128156
vn 0 0.9999999999954441 -0.0000030186099593128156
vn 0 0.9999999999981912 0.000001901959990387893
vn 0 0.9999999999981912 0.000001901959990387893
vn 0 0.9999999999981912 0.000001901959990387893
vn 0 1 0
vn 0 1 0
vn 0 1 0
vn 0 1 0
vn 0 1 0
vn 0 1 0
vn 0 0.9999999999840119 -0.000005654750111626158
vn 0 0.9999999999840119 -0.000005654750111626158
vn 0 0.9999999999840119 -0.000005654750111626158
vn 0 0.9999999999830247 0.000005826720098312987
vn 0 0.9999999999830247 0.000005826720098312987
vn 0 0.9999999999830247 0.000005826720098312987
vn 0 0.9999999999981699 0.000001913230107671689
vn 0 0.9999999999981699 0.000001913230107671689
vn 0 0.9999999999981699 0.000001913230107671689
vn 0 0.9999999999959999 -0.000002828480091909623
vn 0 0.9999999999959999 -0.000002828480091909623
vn 0 0.9999999999959999 -0.000002828480091909623
vn 0 0.9999999999636602 0.000008525230441281897
vn 0 0.9999999999636602 0.000008525230441281897
vn 0 0.9999999999636602 0.000008525230441281897
vn -0.5628355201036493 -0.18342188181814897 0.8059606631715616
vn -0.5628355201036493 -0.18342188181814897 0.8059606631715616
vn -0.5628355201036493 -0.18342188181814897 0.8059606631715616
vn -0.5535794942684318 -0.19239130095230436 0.810268678182359
vn -0.5535794942684318 -0.19239130095230436 0.810268678182359
vn -0.5535794942684318 -0.19239130095230436 0.810268678182359
vn -0.23490437774304124 0.09479199313177498 0.9673853479122269
vn -0.23490437774304124 0.09479199313177498 0.9673853479122269
vn -0.23490437774304124 0.09479199313177498 0.9673853479122269
vn -0.9805524919693733 0.19613030501728188 -0.007050811760370835
vn -0.9805524919693733 0.19613030501728188 -0.007050811760370835
vn -0.9805524919693733 0.19613030501728188 -0.007050811760370835
vn -0.9322756120010705 -0.23686796902408627 -0.27341497493450156
vn -0.9322756120010705 -0.23686796902408627 -0.27341497493450156
vn -0.9322756120010705 -0.23686796902408627 -0.27341497493450156
vn -0.9971424741913673 -0.0017930856787452916 0.07552265227907991
vn -0.9971424741913673 -0.0017930856787452916 0.07552265227907991
vn -0.9971424741913673 -0.0017930856787452916 0.07552265227907991
vn -0.5262840437963848 0.14877818659848574 -0.8371918277418808
vn -0.5262840437963848 0.14877818659848574 -0.8371918277418808
vn -0.5262840437963848 0.14877818659848574 -0.8371918277418808
vn -0.46056188906715667 0.16804179101757397 -0.8715759879726483
vn -0.46056188906715667 0.16804179101757397 -0.8715759879726483
vn -0.46056188906715667 0.16804179101757397 -0.8715759879726483
vn -0.5052351473187827 0.1293919861641016 -0.8532263239201406
vn -0.5052351473187827 0.1293919861641016 -0.8532263239201406
vn -0.5052351473187827 0.1293919861641016 -0.8532263239201406
vn 0.484152705477897 0.19602470140437953 -0.8527429121474753
vn 0.484152705477897 0.19602470140437953 -0.8527429121474753
vn 0.484152705477897 0.19602470140437953 -0.8527429121474753
vn 0.43209140342461344 0.09184235089879085 -0.897141015486379
vn 0.43209140342461344 0.09184235089879085 -0.897141015486379
vn 0.43209140342461344 0.09184235089879085 -0.897141015486379
vn 0.9552522675049077 0.0948542706909394 0.2801709705847884
vn 0.9552522675049077 0.0948542706909394 0.2801709705847884
vn 0.9552522675049077 0.0948542706909394 0.2801709705847884
vn 0.9794208431282787 -0.18333558782933496 -0.08439712246968985
vn 0.9794208431282787 -0.18333558782933496 -0.08439712246968985
vn 0.9794208431282787 -0.18333558782933496 -0.08439712246968985
vn 0.9595729898360132 0 -0.28145990332048104
vn 0.9595729898360132 0 -0.28145990332048104
vn 0.9595729898360132 0 -0.28145990332048104
vn 0.23596600297393955 0 0.9717613109403475
vn 0.23596600297393955 0 0.9717613109403475
vn 0.23596600297393955 0 0.9717613109403475
vn 0.4166341667979837 0.18342928350507762 0.8903761390611071
vn 0.4166341667979837 0.18342928350507762 0.8903761390611071
vn 0.4166341667979837 0.18342928350507762 0.8903761390611071
vn 0.7203611613167165 -0.09483957134819133 0.687084603941118
vn 0.7203611613167165 -0.09483957134819133 0.687084603941118
vn 0.7203611613167165 -0.09483957134819133 0.687084603941118
vn 0 0.9999999999767704 -0.000006816099812409364
vn 0 0.9999999999767704 -0.000006816099812409364
vn 0 0.9999999999767704 -0.000006816099812409364
vn 0 0.9999999999940181 0.0000034588699690878007
vn 0 0.9999999999940181 0.0000034588699690878007
vn 0 0.9999999999940181 0.0000034588699690878007
vn 0 1 0
vn 0 1 0
vn 0 1 0
vn 0 1 0
vn 0 1 0
vn 0 1 0
vn 0 0.9999999999880393 -0.000004890970103529689
vn 0 0.9999999999880393 -0.000004890970103529689
vn 0 0.9999999999880393 -0.000004890970103529689
vn 0 1 0
vn 0 1 0
vn 0 1 0
f 1//1 2//2 3//3
f 4//4 5//5 6//6
f 7//7 8//8 9//9
f 10//10 11//11 12//12
f 13//13 14//14 15//15
f 16//16 17//17 18//18
f 19//19 20//20 21//21
f 22//22 23//23 24//24
f 25//25 26//26 27//27
f 28//28 29//29 30//30
f 31//31 32//32 33//33
f 34//34 35//35 36//36
f 37//37 38//38 39//39
f 40//40 41//41 42//42
f 43//43 44//44 45//45
f 46//46 47//47 48//48
f 49//49 50//50 51//51
f 52//52 53//53 54//54
f 55//55 56//56 57//57
f 58//58 59//59 60//60
f 61//61 62//62 63//63
f 64//64 65//65 66//66
f 67//67 68//68 69//69
f 70//70 71//71 72//72
f 73//73 74//74 75//75
f 76//76 77//77 78//78
f 79//79 80//80 81//81
f 82//82 83//83 84//84
f 85//85 86//86 87//87
f 88//88 89//89 90//90
f 91//91 92//92 93//93
f 94//94 95//95 96//96
f 97//97 98//98 99//99
f 100//100 101//101 102//102
f 103//103 104//104 105//105
f 106//106 107//107 108//108
f 109//109 110//110 111//111
f 112//112 113//113 114//114
f 115//115 116//116 117//117
f 118//118 119//119 120//120
f 121//121 122//122 123//123
f 124//124 125//125 126//126
f 127//127 128//128 129//129
f 130//130 131//131 132//132
f 133//133 134//134 135//135
f 136//136 137//137 138//138
f 139//139 140//140 141//141
f 142//142 143//143 144//144
f 145//145 146//146 147//147
f 148//148 149//149 150//150
f 151//151 152//152 153//153
f 154//154 155//155 156//156
f 157//157 158//158 159//159
f 160//160 161//161 162//162
f 163//163 164//164 165//165
f 166//166 167//167 168//168
f 169//169 170//170 171//171
f 172//172 173//173 174//174
f 175//175 176//176 177//177
f 178//178 179//179 180//180
f 181//181 182//182 183//183
f 184//184 185//185 186//186
f 187//187 188//188 189//189
f 190//190 191//191 192//192
f 193//193 194//194 195//195
f 196//196 197//197 198//198
f 199//199 200//200 201//201
f 202//202 203//203 204//204
f 205//205 206//206 207//207
f 208//208 209//209 210//210
f 211//211 212//212 213//213
f 214//214 215//215 216//216
f 217//217 218//218 219//219
f 220//220 221//221 222//222
f 223//223 224//224 225//225
f 226//226 227//227 228//228
f 229//229 230//230 231//231
f 232//232 233//233 234//234
f 235//235 236//236 237//237
f 238//238 239//239 240//240
f 241//241 242//242 243//243
f 244//244 245//245 246//246
f 247//247 248//248 249//249
f 250//250 251//251 252//252
f 253//253 254//254 255//255
f 256//256 257//257 258//258
f 259//259 260//260 261//261
f 262//262 263//263 264//264
f 265//265 266//266 267//267
f 268//268 269//269 270//270
f 271//271 272//272 273//273
f 274//274 275//275 276//276
f 277//277 278//278 279//279
f 280//280 281//281 282//282
f 283//283 284//284 285//285
f 286//286 287//287 288//288
f 289//289 290//290 291//291
f 292//292 293//293 294//294
f 295//295 296//296 297//297
f 298//298 299//299 300//300
f 301//301 302//302 303//303
f 304//304 305//305 306//306
f 307//307 308//308 309//309
f 310//310 311//311 312//312
f 313//313 314//314 315//315
f 316//316 317//317 318//318
f 319//319 320//320 321//321
f 322//322 323//323 324//324
f 325//325 326//326 327//327
f 328//328 329//329 330//330
f 331//331 332//332 333//333
f 334//334 335//335 336//336
f 337//337 338//338 339//339
f 340//340 341//341 342//342
f 343//343 344//344 345//345
f 346//346 347//347 348//348
