o node4
usemtl verbindung
v 0.00014688799274154007 0.03914982080459595 0.05255502089858055
v 0.000018502500097383745 0.04350537061691284 0.05251543968915939
v -0.0007223489810712636 0.0435057207942009 0.05233144015073776
v -0.001197934034280479 0.03914982080459595 0.051990680396556854
v 0.00014688799274154007 0.03914982080459595 0.05255502089858055
v -0.0007223489810712636 0.0435057207942009 0.05233144015073776
v -0.001197934034280479 0.03914982080459595 0.051990680396556854
v -0.0007223489810712636 0.0435057207942009 0.05233144015073776
v -0.0012409089831635356 0.04350036010146141 0.05186771973967552
v 0.001170814037322998 0.03914982080459595 0.05196845158934593
v 0.001511693000793457 0.04350243881344795 0.05118386819958687
v 0.0011752840364351869 0.043497081845998764 0.051949791610240936
v 0.001170814037322998 0.03914982080459595 0.05196845158934593
v 0.0015549060190096498 0.03914982080459595 0.0508531890809536
v 0.001511693000793457 0.04350243881344795 0.05118386819958687
v -0.001197934034280479 0.03914982080459595 0.051990680396556854
v -0.0012409089831635356 0.04350036010146141 0.05186771973967552
v -0.0015081759775057435 0.04351108893752098 0.05117778852581978
v 0.001170814037322998 0.03914982080459595 0.05196845158934593
v 0.0011752840364351869 0.043497081845998764 0.051949791610240936
v 0.00078941899118945 0.043501969426870346 0.05229771137237549
v 0.00014688799274154007 0.03914982080459595 0.05255502089858055
v 0.001170814037322998 0.03914982080459595 0.05196845158934593
v 0.00078941899118945 0.043501969426870346 0.05229771137237549
v -0.0015000100247561932 0.03914982080459595 0.05056452006101608
v -0.001197934034280479 0.03914982080459595 0.051990680396556854
v -0.0015081759775057435 0.04351108893752098 0.05117778852581978
v 0.00014688799274154007 0.03914982080459595 0.05255502089858055
v 0.00078941899118945 0.043501969426870346 0.05229771137237549
v 0.000018502500097383745 0.04350537061691284 0.05251543968915939
v 0.00078941899118945 0.043501969426870346 0.05229771137237549
v 0.0005059990216977894 0.04475224018096924 0.05372457951307297
v 0.000018502500097383745 0.04350537061691284 0.05251543968915939
v 0.0011752840364351869 0.043497081845998764 0.051949791610240936
v 0.0023173089139163494 0.044746629893779755 0.05249648913741112
v 0.00078941899118945 0.043501969426870346 0.05229771137237549
v 0.002659142017364502 0.044746749103069305 0.05173521861433983
v 0.0023173089139163494 0.044746629893779755 0.05249648913741112
v 0.0011752840364351869 0.043497081845998764 0.051949791610240936
v 0.0027679800987243652 0.04474978893995285 0.05076657980680466
v 0.001511693000793457 0.04350243881344795 0.05118386819958687
v 0.0013176200445741415 0.043501731008291245 0.050224900245666504
v 0.0027679800987243652 0.04474978893995285 0.05076657980680466
v 0.002659142017364502 0.044746749103069305 0.05173521861433983
v 0.001511693000793457 0.04350243881344795 0.05118386819958687
v 0.0022527570836246014 0.04475212097167969 0.049348291009664536
v 0.0027679800987243652 0.04474978893995285 0.05076657980680466
v 0.0013176200445741415 0.043501731008291245 0.050224900245666504
v 0.0005078610265627503 0.04351000860333443 0.04954737052321434
v 0.0013043880462646484 0.044744670391082764 0.048570871353149414
v 0.0013176200445741415 0.043501731008291245 0.050224900245666504
v 0.0013043880462646484 0.044744670391082764 0.048570871353149414
v 0.0022527570836246014 0.04475212097167969 0.049348291009664536
v 0.0013176200445741415 0.043501731008291245 0.050224900245666504
v 0.0005078610265627503 0.04351000860333443 0.04954737052321434
v 0.00011569300113478675 0.04475373029708862 0.04822266101837158
v 0.0013043880462646484 0.044744670391082764 0.048570871353149414
v 0.00078941899118945 0.043501969426870346 0.05229771137237549
v 0.0015814299695193768 0.0447496697306633 0.05327378958463669
v 0.0005059990216977894 0.04475224018096924 0.05372457951307297
v 0.00078941899118945 0.043501969426870346 0.05229771137237549
v 0.0023173089139163494 0.044746629893779755 0.05249648913741112
v 0.0015814299695193768 0.0447496697306633 0.05327378958463669
v 0.002659142017364502 0.044746749103069305 0.05173521861433983
v 0.0011752840364351869 0.043497081845998764 0.051949791610240936
v 0.001511693000793457 0.04350243881344795 0.05118386819958687
v -0.002164781093597412 0.04474920034408569 0.052713390439748764
v -0.0017596479738131166 0.045149799436330795 0.05317014083266258
v -0.0025821919552981853 0.04514985904097557 0.05200039967894554
v 0.0005059990216977894 0.04475224018096924 0.05372457951307297
v 0.0015814299695193768 0.0447496697306633 0.05327378958463669
v 0.0006663799867965281 0.04514985904097557 0.05370074138045311
v -0.002596199046820402 0.044747818261384964 0.051953788846731186
v -0.002164781093597412 0.04474920034408569 0.052713390439748764
v -0.0025821919552981853 0.04514985904097557 0.05200039967894554
v 0.0027679800987243652 0.04474978893995285 0.05076657980680466
v 0.002763747936114669 0.04514985904097557 0.050615131855010986
v 0.002520859008654952 0.045149799436330795 0.05218273028731346
v 0.002659142017364502 0.044746749103069305 0.05173521861433983
v 0.0027679800987243652 0.04474978893995285 0.05076657980680466
v 0.002520859008654952 0.045149799436330795 0.05218273028731346
v 0.0005059990216977894 0.04475224018096924 0.05372457951307297
v 0.0006663799867965281 0.04514985904097557 0.05370074138045311
v -0.0005391240119934082 0.04514985904097557 0.05371003970503807
v -0.002596199046820402 0.044747818261384964 0.051953788846731186
v -0.0025821919552981853 0.04514985904097557 0.05200039967894554
v -0.0027586219366639853 0.04514985904097557 0.05051790922880173
v -0.0007391570252366364 0.04475665092468262 0.053676001727581024
v 0.0005059990216977894 0.04475224018096924 0.05372457951307297
v -0.0005391240119934082 0.04514985904097557 0.05371003970503807
v -0.002727984916418791 0.04474937170743942 0.05037808045744896
v -0.002596199046820402 0.044747818261384964 0.051953788846731186
v -0.0027586219366639853 0.04514985904097557 0.05051790922880173
v 0.0023173089139163494 0.044746629893779755 0.05249648913741112
v 0.002659142017364502 0.044746749103069305 0.05173521861433983
v 0.002520859008654952 0.045149799436330795 0.05218273028731346
v -0.0007391570252366364 0.04475665092468262 0.053676001727581024
v -0.0005391240119934082 0.04514985904097557 0.05371003970503807
v -0.0017596479738131166 0.045149799436330795 0.05317014083266258
v 0.0023173089139163494 0.044746629893779755 0.05249648913741112
v 0.002520859008654952 0.045149799436330795 0.05218273028731346
v 0.001740931998938322 0.045149918645620346 0.053145881742239
v 0.0015814299695193768 0.0447496697306633 0.05327378958463669
v 0.0023173089139163494 0.044746629893779755 0.05249648913741112
v 0.001740931998938322 0.045149918645620346 0.053145881742239
v -0.0016300079878419638 0.04474413022398949 0.05322730168700218
v -0.0007391570252366364 0.04475665092468262 0.053676001727581024
v -0.0017596479738131166 0.045149799436330795 0.05317014083266258
v 0.0015814299695193768 0.0447496697306633 0.05327378958463669
v 0.001740931998938322 0.045149918645620346 0.053145881742239
v 0.0006663799867965281 0.04514985904097557 0.05370074138045311
v -0.002164781093597412 0.04474920034408569 0.052713390439748764
v -0.0016300079878419638 0.04474413022398949 0.05322730168700218
v -0.0017596479738131166 0.045149799436330795 0.05317014083266258
v 0.0007483210065402091 0.03914982080459595 0.049637310206890106
v -0.0005659909802488983 0.03914988040924072 0.04956686124205589
v 0.0005078610265627503 0.04351000860333443 0.04954737052321434
v -0.0015000100247561932 0.03914982080459595 0.05056452006101608
v -0.0015081759775057435 0.04351108893752098 0.05117778852581978
v -0.0014588830526918173 0.04350239038467407 0.05060594901442528
v 0.0007483210065402091 0.03914982080459595 0.049637310206890106
v 0.0005078610265627503 0.04351000860333443 0.04954737052321434
v 0.0013176200445741415 0.043501731008291245 0.050224900245666504
v -0.0015000100247561932 0.03914982080459595 0.05056452006101608
v -0.0014588830526918173 0.04350239038467407 0.05060594901442528
v -0.0012277959613129497 0.04350334033370018 0.05012089014053345
v 0.0015549060190096498 0.03914982080459595 0.0508531890809536
v 0.0007483210065402091 0.03914982080459595 0.049637310206890106
v 0.0013176200445741415 0.043501731008291245 0.050224900245666504
v -0.0005659909802488983 0.03914988040924072 0.04956686124205589
v -0.0012277959613129497 0.04350334033370018 0.05012089014053345
v -0.0006015900289639831 0.0435057207942009 0.049595169723033905
v -0.0005659909802488983 0.03914988040924072 0.04956686124205589
v -0.0015000100247561932 0.03914982080459595 0.05056452006101608
v -0.0012277959613129497 0.04350334033370018 0.05012089014053345
v 0.0015549060190096498 0.03914982080459595 0.0508531890809536
v 0.0013176200445741415 0.043501731008291245 0.050224900245666504
v 0.001511693000793457 0.04350243881344795 0.05118386819958687
v -0.0005659909802488983 0.03914988040924072 0.04956686124205589
v -0.0006015900289639831 0.0435057207942009 0.049595169723033905
v 0.0005078610265627503 0.04351000860333443 0.04954737052321434
v 0.0015549060190096498 0.03914982080459595 0.0508531890809536
v 0.001170814037322998 0.03914982080459595 0.05196845158934593
v -0.001197934034280479 0.03914982080459595 0.051990680396556854
v -0.0005659909802488983 0.03914988040924072 0.04956686124205589
v 0.0007483210065402091 0.03914982080459595 0.049637310206890106
v -0.001197934034280479 0.03914982080459595 0.051990680396556854
v -0.0015000100247561932 0.03914982080459595 0.05056452006101608
v -0.0005659909802488983 0.03914988040924072 0.04956686124205589
v -0.001197934034280479 0.03914982080459595 0.051990680396556854
v 0.001170814037322998 0.03914982080459595 0.05196845158934593
v 0.00014688799274154007 0.03914982080459595 0.05255502089858055
v -0.001197934034280479 0.03914982080459595 0.051990680396556854
v 0.0007483210065402091 0.03914982080459595 0.049637310206890106
v 0.0015549060190096498 0.03914982080459595 0.0508531890809536
v -0.001197934034280479 0.03914982080459595 0.051990680396556854
v -0.0007391570252366364 0.04475665092468262 0.053676001727581024
v -0.0007223489810712636 0.0435057207942009 0.05233144015073776
v 0.000018502500097383745 0.04350537061691284 0.05251543968915939
v 0.00011569300113478675 0.04475373029708862 0.04822266101837158
v 0.0005078610265627503 0.04351000860333443 0.04954737052321434
v -0.0006015900289639831 0.0435057207942009 0.049595169723033905
v -0.0020666120108217 0.04473692178726196 0.0491713210940361
v -0.001599431037902832 0.044754739850759506 0.04873979091644287
v -0.0006015900289639831 0.0435057207942009 0.049595169723033905
v -0.0012277959613129497 0.04350334033370018 0.05012089014053345
v -0.0020666120108217 0.04473692178726196 0.0491713210940361
v -0.0006015900289639831 0.0435057207942009 0.049595169723033905
v -0.0020666120108217 0.04473692178726196 0.0491713210940361
v -0.0012277959613129497 0.04350334033370018 0.05012089014053345
v -0.0014588830526918173 0.04350239038467407 0.05060594901442528
v -0.0014588830526918173 0.04350239038467407 0.05060594901442528
v -0.002727984916418791 0.04474937170743942 0.05037808045744896
v -0.0020666120108217 0.04473692178726196 0.0491713210940361
v -0.0015081759775057435 0.04351108893752098 0.05117778852581978
v -0.002727984916418791 0.04474937170743942 0.05037808045744896
v -0.0014588830526918173 0.04350239038467407 0.05060594901442528
v -0.002596199046820402 0.044747818261384964 0.051953788846731186
v -0.0015081759775057435 0.04351108893752098 0.05117778852581978
v -0.0012409089831635356 0.04350036010146141 0.05186771973967552
v -0.0012409089831635356 0.04350036010146141 0.05186771973967552
v -0.002164781093597412 0.04474920034408569 0.052713390439748764
v -0.002596199046820402 0.044747818261384964 0.051953788846731186
v -0.0007223489810712636 0.0435057207942009 0.05233144015073776
v -0.002164781093597412 0.04474920034408569 0.052713390439748764
v -0.0012409089831635356 0.04350036010146141 0.05186771973967552
v -0.0016300079878419638 0.04474413022398949 0.05322730168700218
v -0.002164781093597412 0.04474920034408569 0.052713390439748764
v -0.0007223489810712636 0.0435057207942009 0.05233144015073776
v -0.0016300079878419638 0.04474413022398949 0.05322730168700218
v -0.0007223489810712636 0.0435057207942009 0.05233144015073776
v -0.0007391570252366364 0.04475665092468262 0.053676001727581024
v -0.0007391570252366364 0.04475665092468262 0.053676001727581024
v 0.000018502500097383745 0.04350537061691284 0.05251543968915939
v 0.0005059990216977894 0.04475224018096924 0.05372457951307297
v -0.0006015900289639831 0.0435057207942009 0.049595169723033905
v -0.0007693769875913858 0.044748660176992416 0.0483550988137722
v 0.00011569300113478675 0.04475373029708862 0.04822266101837158
v -0.0006015900289639831 0.0435057207942009 0.049595169723033905
v -0.001599431037902832 0.044754739850759506 0.04873979091644287
v -0.0007693769875913858 0.044748660176992416 0.0483550988137722
v -0.0015081759775057435 0.04351108893752098 0.05117778852581978
v -0.002596199046820402 0.044747818261384964 0.051953788846731186
v -0.002727984916418791 0.04474937170743942 0.05037808045744896
v -0.0007693769875913858 0.044748660176992416 0.0483550988137722
v -0.001599431037902832 0.044754739850759506 0.04873979091644287
v -0.000908612972125411 0.045149799436330795 0.04839044064283371
v 0.0022527570836246014 0.04475212097167969 0.049348291009664536
v 0.0019206999568268657 0.04514985904097557 0.04894113168120384
v 0.002763747936114669 0.04514985904097557 0.050615131855010986
v 0.00011569300113478675 0.04475373029708862 0.04822266101837158
v -0.000908612972125411 0.045149799436330795 0.04839044064283371
v 0.0002877709921449423 0.04514985904097557 0.04823333024978638
v 0.00011569300113478675 0.04475373029708862 0.04822266101837158
v -0.0007693769875913858 0.044748660176992416 0.0483550988137722
v -0.000908612972125411 0.045149799436330795 0.04839044064283371
v 0.0027679800987243652 0.04474978893995285 0.05076657980680466
v 0.0022527570836246014 0.04475212097167969 0.049348291009664536
v 0.002763747936114669 0.04514985904097557 0.050615131855010986
v -0.002727984916418791 0.04474937170743942 0.05037808045744896
v -0.0027586219366639853 0.04514985904097557 0.05051790922880173
v -0.001968919998034835 0.04514985904097557 0.04903094843029976
v 0.0013043880462646484 0.044744670391082764 0.048570871353149414
v 0.00011569300113478675 0.04475373029708862 0.04822266101837158
v 0.0002877709921449423 0.04514985904097557 0.04823333024978638
v -0.0020666120108217 0.04473692178726196 0.0491713210940361
v -0.002727984916418791 0.04474937170743942 0.05037808045744896
v -0.001968919998034835 0.04514985904097557 0.04903094843029976
v 0.0013043880462646484 0.044744670391082764 0.048570871353149414
v 0.0002877709921449423 0.04514985904097557 0.04823333024978638
v 0.0019206999568268657 0.04514985904097557 0.04894113168120384
v -0.001599431037902832 0.044754739850759506 0.04873979091644287
v -0.0020666120108217 0.04473692178726196 0.0491713210940361
v -0.001968919998034835 0.04514985904097557 0.04903094843029976
v 0.0022527570836246014 0.04475212097167969 0.049348291009664536
v 0.0013043880462646484 0.044744670391082764 0.048570871353149414
v 0.0019206999568268657 0.04514985904097557 0.04894113168120384
v -0.001599431037902832 0.044754739850759506 0.04873979091644287
v -0.001968919998034835 0.04514985904097557 0.04903094843029976
v -0.000908612972125411 0.045149799436330795 0.04839044064283371
v -0.001968919998034835 0.04514985904097557 0.04903094843029976
v -0.0027586219366639853 0.04514985904097557 0.05051790922880173
v -0.0010889170225709677 0.04514985904097557 0.050225310027599335
v -0.000908612972125411 0.045149799436330795 0.04839044064283371
v -0.001968919998034835 0.04514985904097557 0.04903094843029976
v -0.0010889170225709677 0.04514985904097557 0.050225310027599335
v -0.000908612972125411 0.045149799436330795 0.04839044064283371
v -0.0010889170225709677 0.04514985904097557 0.050225310027599335
v -0.0004134800110477954 0.04514985904097557 0.0500032901763916
v -0.000908612972125411 0.045149799436330795 0.04839044064283371
v -0.0004134800110477954 0.04514985904097557 0.0500032901763916
v 0.0001949680008692667 0.04514985904097557 0.049512799829244614
v 0.0002877709921449423 0.04514985904097557 0.04823333024978638
v -0.000908612972125411 0.045149799436330795 0.04839044064283371
v 0.0001949680008692667 0.04514985904097557 0.049512799829244614
v 0.0019206999568268657 0.04514985904097557 0.04894113168120384
v 0.0002877709921449423 0.04514985904097557 0.04823333024978638
v 0.0001949680008692667 0.04514985904097557 0.049512799829244614
v -0.0027586219366639853 0.04514985904097557 0.05051790922880173
v -0.0025821919552981853 0.04514985904097557 0.05200039967894554
v -0.0013854500139132142 0.04514985904097557 0.05157475918531418
v -0.0010889170225709677 0.04514985904097557 0.050225310027599335
v -0.0027586219366639853 0.04514985904097557 0.05051790922880173
v -0.0013854500139132142 0.04514985904097557 0.05157475918531418
v -0.0013854500139132142 0.04514985904097557 0.05157475918531418
v -0.0025821919552981853 0.04514985904097557 0.05200039967894554
v -0.0017596479738131166 0.045149799436330795 0.05317014083266258
v 0.0019206999568268657 0.04514985904097557 0.04894113168120384
v 0.0001949680008692667 0.04514985904097557 0.049512799829244614
v 0.0012152789859101176 0.04514985904097557 0.050444360822439194
v -0.0013854500139132142 0.04514985904097557 0.05157475918531418
v -0.0017596479738131166 0.045149799436330795 0.05317014083266258
v -0.0006564059876836836 0.04514985904097557 0.0518563911318779
v -0.0006564059876836836 0.04514985904097557 0.0518563911318779
v -0.0017596479738131166 0.045149799436330795 0.05317014083266258
v -0.000126351005746983 0.04514985904097557 0.052330370992422104
v 0.0019206999568268657 0.04514985904097557 0.04894113168120384
v 0.0012152789859101176 0.04514985904097557 0.050444360822439194
v 0.002763747936114669 0.04514985904097557 0.050615131855010986
v -0.000126351005746983 0.04514985904097557 0.052330370992422104
v -0.0017596479738131166 0.045149799436330795 0.05317014083266258
v -0.0005391240119934082 0.04514985904097557 0.05371003970503807
v -0.000126351005746983 0.04514985904097557 0.052330370992422104
v -0.0005391240119934082 0.04514985904097557 0.05371003970503807
v 0.0006663799867965281 0.04514985904097557 0.05370074138045311
v 0.0012152789859101176 0.04514985904097557 0.050444360822439194
v 0.0010697840480133891 0.04514985904097557 0.051140181720256805
v 0.002763747936114669 0.04514985904097557 0.050615131855010986
v 0.0010697840480133891 0.04514985904097557 0.051140181720256805
v 0.0011903640115633607 0.04514985904097557 0.05191247910261154
v 0.002520859008654952 0.045149799436330795 0.05218273028731346
v 0.002763747936114669 0.04514985904097557 0.050615131855010986
v 0.0010697840480133891 0.04514985904097557 0.051140181720256805
v 0.002520859008654952 0.045149799436330795 0.05218273028731346
v 0.0011903640115633607 0.04514985904097557 0.05191247910261154
v -0.000126351005746983 0.04514985904097557 0.052330370992422104
v 0.0006663799867965281 0.04514985904097557 0.05370074138045311
v 0.0011903640115633607 0.04514985904097557 0.05191247910261154
v 0.0006663799867965281 0.04514985904097557 0.05370074138045311
v 0.001740931998938322 0.045149918645620346 0.053145881742239
v 0.002520859008654952 0.045149799436330795 0.05218273028731346
v 0.0011903640115633607 0.04514985904097557 0.05191247910261154
v 0.001740931998938322 0.045149918645620346 0.053145881742239
v -0.0004134800110477954 0.04514985904097557 0.0500032901763916
v -0.0011903640115633607 0.04431974142789841 0.05008763074874878
v 0.0001263919984921813 0.04431974142789841 0.04966967925429344
v -0.0004134800110477954 0.04514985904097557 0.0500032901763916
v -0.0010889170225709677 0.04514985904097557 0.050225310027599335
v -0.0011903640115633607 0.04431974142789841 0.05008763074874878
v 0.0001949680008692667 0.04514985904097557 0.049512799829244614
v -0.0004134800110477954 0.04514985904097557 0.0500032901763916
v 0.0001263919984921813 0.04431974142789841 0.04966967925429344
v 0.0001949680008692667 0.04514985904097557 0.049512799829244614
v 0.0001263919984921813 0.04431974142789841 0.04966967925429344
v 0.0006564040086232126 0.04431974142789841 0.050143588334321976
v 0.0012152789859101176 0.04514985904097557 0.050444360822439194
v 0.0001949680008692667 0.04514985904097557 0.049512799829244614
v 0.0006564040086232126 0.04431974142789841 0.050143588334321976
v 0.0012152789859101176 0.04514985904097557 0.050444360822439194
v 0.0006564040086232126 0.04431974142789841 0.050143588334321976
v 0.0013854500139132142 0.04431974142789841 0.05042529106140137
v 0.0010697840480133891 0.04514985904097557 0.051140181720256805
v 0.0013854500139132142 0.04431974142789841 0.05042529106140137
v 0.0010697840480133891 0.04431974142789841 0.051140181720256805
v 0.0010697840480133891 0.04514985904097557 0.051140181720256805
v 0.0012152789859101176 0.04514985904097557 0.050444360822439194
v 0.0013854500139132142 0.04431974142789841 0.05042529106140137
v 0.0011903640115633607 0.04514985904097557 0.05191247910261154
v 0.0010697840480133891 0.04431974142789841 0.051140181720256805
v 0.0010308619821444154 0.04431974142789841 0.05185018852353096
v 0.0011903640115633607 0.04514985904097557 0.05191247910261154
v 0.0010697840480133891 0.04514985904097557 0.051140181720256805
v 0.0010697840480133891 0.04431974142789841 0.051140181720256805
v -0.000126351005746983 0.04514985904097557 0.052330370992422104
v 0.0011903640115633607 0.04514985904097557 0.05191247910261154
v 0.0010308619821444154 0.04431974142789841 0.05185018852353096
v -0.000126351005746983 0.04514985904097557 0.052330370992422104
v 0.0010308619821444154 0.04431974142789841 0.05185018852353096
v -0.00019497099856380373 0.04431974142789841 0.05248731002211571
v -0.0006564059876836836 0.04514985904097557 0.0518563911318779
v -0.00019497099856380373 0.04431974142789841 0.05248731002211571
v -0.0006564059876836836 0.04431974142789841 0.0518563911318779
v -0.0006564059876836836 0.04514985904097557 0.0518563911318779
v -0.000126351005746983 0.04514985904097557 0.052330370992422104
v -0.00019497099856380373 0.04431974142789841 0.05248731002211571
v -0.0013854500139132142 0.04514985904097557 0.05157475918531418
v -0.0006564059876836836 0.04431974142789841 0.0518563911318779
v -0.0012517570285126567 0.04431974142789841 0.0514678917825222
v -0.0013854500139132142 0.04514985904097557 0.05157475918531418
v -0.0006564059876836836 0.04514985904097557 0.0518563911318779
v -0.0006564059876836836 0.04431974142789841 0.0518563911318779
v -0.0010889170225709677 0.04514985904097557 0.050225310027599335
v -0.0013854500139132142 0.04514985904097557 0.05157475918531418
v -0.0012517570285126567 0.04431974142789841 0.0514678917825222
v -0.0010889170225709677 0.04514985904097557 0.050225310027599335
v -0.0012517570285126567 0.04431974142789841 0.0514678917825222
v -0.0011903640115633607 0.04431974142789841 0.05008763074874878
v 0.0010697840480133891 0.04431974142789841 0.051140181720256805
v 0.0013854500139132142 0.04431974142789841 0.05042529106140137
v 0.0006564040086232126 0.04431974142789841 0.050143588334321976
v 0.0001263919984921813 0.04431974142789841 0.04966967925429344
v 0.0010697840480133891 0.04431974142789841 0.051140181720256805
v 0.0006564040086232126 0.04431974142789841 0.050143588334321976
v -0.0012517570285126567 0.04431974142789841 0.0514678917825222
v 0.0001263919984921813 0.04431974142789841 0.04966967925429344
v -0.0011903640115633607 0.04431974142789841 0.05008763074874878
v -0.0012517570285126567 0.04431974142789841 0.0514678917825222
v 0.0010697840480133891 0.04431974142789841 0.051140181720256805
v 0.0001263919984921813 0.04431974142789841 0.04966967925429344
v -0.0006564059876836836 0.04431974142789841 0.0518563911318779
v 0.0010308619821444154 0.04431974142789841 0.05185018852353096
v 0.0010697840480133891 0.04431974142789841 0.051140181720256805
v -0.0006564059876836836 0.04431974142789841 0.0518563911318779
v 0.0010697840480133891 0.04431974142789841 0.051140181720256805
v -0.0012517570285126567 0.04431974142789841 0.0514678917825222
v -0.00019497099856380373 0.04431974142789841 0.05248731002211571
v 0.0010308619821444154 0.04431974142789841 0.05185018852353096
v -0.0006564059876836836 0.04431974142789841 0.0518563911318779
vn -0.24104008751833875 0.0017013540966673794 0.9705136689420658
vn -0.24104008751833875 0.0017013540966673794 0.9705136689420658
vn -0.24104008751833875 0.0017013540966673794 0.9705136689420658
vn -0.38673927933342606 -0.029878727746628246 0.9217049373030964
vn -0.38673927933342606 -0.029878727746628246 0.9217049373030964
vn -0.38673927933342606 -0.029878727746628246 0.9217049373030964
vn -0.6666568011071612 0.01448743996087765 0.745224009020742
vn -0.6666568011071612 0.01448743996087765 0.745224009020742
vn -0.6666568011071612 0.01448743996087765 0.745224009020742
vn 0.9156007456381766 0.0007665070245805155 0.4020879096090758
vn 0.9156007456381766 0.0007665070245805155 0.4020879096090758
vn 0.9156007456381766 0.0007665070245805155 0.4020879096090758
vn 0.9453872080652629 -0.015354328238277742 0.325587578741755
vn 0.9453872080652629 -0.015354328238277742 0.325587578741755
vn 0.9453872080652629 -0.015354328238277742 0.325587578741755
vn -0.9324607875113794 0.0010046360576590268 0.36126980286214067
vn -0.9324607875113794 0.0010046360576590268 0.36126980286214067
vn -0.9324607875113794 0.0010046360576590268 0.36126980286214067
vn 0.6695549740365856 0.002480506059119223 0.7427583616712489
vn 0.6695549740365856 0.002480506059119223 0.7427583616712489
vn 0.6695549740365856 0.002480506059119223 0.7427583616712489
vn 0.4969563528036959 -0.022079818145529593 0.8674945907835442
vn 0.4969563528036959 -0.022079818145529593 0.8674945907835442
vn 0.4969563528036959 -0.022079818145529593 0.8674945907835442
vn -0.9778268969317587 -0.03095476713258839 0.20711436944011136
vn -0.9778268969317587 -0.03095476713258839 0.20711436944011136
vn -0.9778268969317587 -0.03095476713258839 0.20711436944011136
vn 0.27188191265405187 0.016745200656342583 0.9621849218453559
vn 0.27188191265405187 0.016745200656342583 0.9621849218453559
vn 0.27188191265405187 0.016745200656342583 0.9621849218453559
vn 0.1855862898462964 -0.7204998185063529 0.6681599662905575
vn 0.1855862898462964 -0.7204998185063529 0.6681599662905575
vn 0.1855862898462964 -0.7204998185063529 0.6681599662905575
vn 0.4846762424136235 -0.6823401458698022 0.5472667223339891
vn 0.4846762424136235 -0.6823401458698022 0.5472667223339891
vn 0.4846762424136235 -0.6823401458698022 0.5472667223339891
vn 0.6409756614642074 -0.7116219482838301 0.2876532706771257
vn 0.6409756614642074 -0.7116219482838301 0.2876532706771257
vn 0.6409756614642074 -0.7116219482838301 0.2876532706771257
vn 0.6749159053838834 -0.7252544117555664 -0.1359947016943681
vn 0.6749159053838834 -0.7252544117555664 -0.1359947016943681
vn 0.6749159053838834 -0.7252544117555664 -0.1359947016943681
vn 0.7153827708436851 -0.6943425691847682 0.0782041418206669
vn 0.7153827708436851 -0.6943425691847682 0.0782041418206669
vn 0.7153827708436851 -0.6943425691847682 0.0782041418206669
vn 0.6835084528016038 -0.6860191196379906 -0.24938717376776645
vn 0.6835084528016038 -0.6860191196379906 -0.24938717376776645
vn 0.6835084528016038 -0.6860191196379906 -0.24938717376776645
vn 0.4447405686640755 -0.7143132767452037 -0.5403354229086641
vn 0.4447405686640755 -0.7143132767452037 -0.5403354229086641
vn 0.4447405686640755 -0.7143132767452037 -0.5403354229086641
vn 0.4478032824524754 -0.7130793829643534 -0.5394349022968068
vn 0.4478032824524754 -0.7130793829643534 -0.5394349022968068
vn 0.4478032824524754 -0.7130793829643534 -0.5394349022968068
vn 0.20026626717823376 -0.6840070327201696 -0.7014469341438774
vn 0.20026626717823376 -0.6840070327201696 -0.7014469341438774
vn 0.20026626717823376 -0.6840070327201696 -0.7014469341438774
vn 0.2766168033004359 -0.6948798682565251 0.663795987351266
vn 0.2766168033004359 -0.6948798682565251 0.663795987351266
vn 0.2766168033004359 -0.6948798682565251 0.663795987351266
vn 0.512327425892247 -0.7068049218650351 0.48779853536679024
vn 0.512327425892247 -0.7068049218650351 0.48779853536679024
vn 0.512327425892247 -0.7068049218650351 0.48779853536679024
vn 0.6421219146079692 -0.7148361841722259 0.27692720447490765
vn 0.6421219146079692 -0.7148361841722259 0.27692720447490765
vn 0.6421219146079692 -0.7148361841722259 0.27692720447490765
vn -0.8062672861127961 0.16890779653126187 0.5669243508751942
vn -0.8062672861127961 0.16890779653126187 0.5669243508751942
vn -0.8062672861127961 0.16890779653126187 0.5669243508751942
vn 0.38446471823653283 -0.09991466443336133 0.9177166993481554
vn 0.38446471823653283 -0.09991466443336133 0.9177166993481554
vn 0.38446471823653283 -0.09991466443336133 0.9177166993481554
vn -0.8692071324067268 -0.026960366983991495 0.4937125677814608
vn -0.8692071324067268 -0.026960366983991495 0.4937125677814608
vn -0.8692071324067268 -0.026960366983991495 0.4937125677814608
vn 0.9859005138316502 0.06829065032875914 0.1527630973244628
vn 0.9859005138316502 0.06829065032875914 0.1527630973244628
vn 0.9859005138316502 0.06829065032875914 0.1527630973244628
vn 0.9712266992403282 0.21133807454724599 0.10979488571604584
vn 0.9712266992403282 0.21133807454724599 0.10979488571604584
vn 0.9712266992403282 0.21133807454724599 0.10979488571604584
vn 0.00769847597536546 0.05689758155842522 0.9983503386489431
vn 0.00769847597536546 0.05689758155842522 0.9983503386489431
vn 0.00769847597536546 0.05689758155842522 0.9983503386489431
vn -0.9927755161159574 0.020893268630120403 0.11815348461490353
vn -0.9927755161159574 0.020893268630120403 0.11815348461490353
vn -0.9927755161159574 0.020893268630120403 0.11815348461490353
vn -0.03913479693652748 -0.06624966153306712 0.997035330374752
vn -0.03913479693652748 -0.06624966153306712 0.997035330374752
vn -0.03913479693652748 -0.06624966153306712 0.997035330374752
vn -0.9910475163082698 -0.10474640286832473 0.08278291795627925
vn -0.9910475163082698 -0.10474640286832473 0.08278291795627925
vn -0.9910475163082698 -0.10474640286832473 0.08278291795627925
vn 0.9032580293981292 -0.14034989534501935 0.4054957943116679
vn 0.9032580293981292 -0.14034989534501935 0.4054957943116679
vn 0.9032580293981292 -0.14034989534501935 0.4054957943116679
vn -0.4013161876025358 0.12575819833813737 0.9072652275486547
vn -0.4013161876025358 0.12575819833813737 0.9072652275486547
vn -0.4013161876025358 0.12575819833813737 0.9072652275486547
vn 0.7734890927479982 0.09704427854069593 0.6263361967844382
vn 0.7734890927479982 0.09704427854069593 0.6263361967844382
vn 0.7734890927479982 0.09704427854069593 0.6263361967844382
vn 0.7243145422229916 -0.06933020530388499 0.6859750480570115
vn 0.7243145422229916 -0.06933020530388499 0.6859750480570115
vn 0.7243145422229916 -0.06933020530388499 0.6859750480570115
vn -0.44960307292170326 -0.01791380873426112 0.8930488073313766
vn -0.44960307292170326 -0.01791380873426112 0.8930488073313766
vn -0.44960307292170326 -0.01791380873426112 0.8930488073313766
vn 0.4564514054472073 0.10074400668537457 0.884026447331892
vn 0.4564514054472073 0.10074400668537457 0.884026447331892
vn 0.4564514054472073 0.10074400668537457 0.884026447331892
vn -0.688547039417714 -0.1193483960899832 0.7153033865849159
vn -0.688547039417714 -0.1193483960899832 0.7153033865849159
vn -0.688547039417714 -0.1193483960899832 0.7153033865849159
vn 0.05355965842698439 -0.01765423867769516 -0.9984085791127276
vn 0.05355965842698439 -0.01765423867769516 -0.9984085791127276
vn 0.05355965842698439 -0.01765423867769516 -0.9984085791127276
vn -0.9962408000237863 0.010230719166956007 -0.08602093206477891
vn -0.9962408000237863 0.010230719166956007 -0.08602093206477891
vn -0.9962408000237863 0.010230719166956007 -0.08602093206477891
vn 0.6417070038520023 0.019563430942662906 -0.7667003282750295
vn 0.6417070038520023 0.019563430942662906 -0.7667003282750295
vn 0.6417070038520023 0.019563430942662906 -0.7667003282750295
vn -0.90271871366333 0.012617169751391486 -0.43004619638997765
vn -0.90271871366333 0.012617169751391486 -0.43004619638997765
vn -0.90271871366333 0.012617169751391486 -0.43004619638997765
vn 0.8328093205046584 -0.03435527498111846 -0.5524928513216628
vn 0.8328093205046584 -0.03435527498111846 -0.5524928513216628
vn 0.8328093205046584 -0.03435527498111846 -0.5524928513216628
vn -0.642946103959158 -0.00026641500047333284 -0.7659113763528959
vn -0.642946103959158 -0.00026641500047333284 -0.7659113763528959
vn -0.642946103959158 -0.00026641500047333284 -0.7659113763528959
vn -0.7298146106729914 -0.023997236755074768 -0.6832238042371992
vn -0.7298146106729914 -0.023997236755074768 -0.6832238042371992
vn -0.7298146106729914 -0.023997236755074768 -0.6832238042371992
vn 0.9798272126625952 0.024795937965718357 -0.1983022813440365
vn 0.9798272126625952 0.024795937965718357 -0.1983022813440365
vn 0.9798272126625952 0.024795937965718357 -0.1983022813440365
vn -0.04311645057250744 0.0061539411919824365 -0.9990511001434481
vn -0.04311645057250744 0.0061539411919824365 -0.9990511001434481
vn -0.04311645057250744 0.0061539411919824365 -0.9990511001434481
vn 0 -0.9999999999847302 0.000005526289896722316
vn 0 -0.9999999999847302 0.000005526289896722316
vn 0 -0.9999999999847302 0.000005526289896722316
vn -0.000043423900864563374 -0.9999999984077885 -0.000036038698396540594
vn -0.000043423900864563374 -0.9999999984077885 -0.000036038698396540594
vn -0.000043423900864563374 -0.9999999984077885 -0.000036038698396540594
vn 0.00005204070104716306 -0.9999999985838786 -0.000011135900406462439
vn 0.00005204070104716306 -0.9999999985838786 -0.000011135900406462439
vn 0.00005204070104716306 -0.9999999985838786 -0.000011135900406462439
vn 0 -0.999999999943308 -0.000010648200258707458
vn 0 -0.999999999943308 -0.000010648200258707458
vn 0 -0.999999999943308 -0.000010648200258707458
vn 0 -0.999999999994178 -0.0000034123499972139655
vn 0 -0.999999999994178 -0.0000034123499972139655
vn 0 -0.999999999994178 -0.0000034123499972139655
vn -0.16691949497826614 -0.7229232586374048 0.6704624108160551
vn -0.16691949497826614 -0.7229232586374048 0.6704624108160551
vn -0.16691949497826614 -0.7229232586374048 0.6704624108160551
vn -0.02650064011670059 -0.7327043921602274 -0.6800308741391943
vn -0.02650064011670059 -0.7327043921602274 -0.6800308741391943
vn -0.02650064011670059 -0.7327043921602274 -0.6800308741391943
vn -0.4549950960898176 -0.7212414747222538 -0.5222932104428376
vn -0.4549950960898176 -0.7212414747222538 -0.5222932104428376
vn -0.4549950960898176 -0.7212414747222538 -0.5222932104428376
vn -0.4469741965332463 -0.7163391844652712 -0.5357912284025275
vn -0.4469741965332463 -0.7163391844652712 -0.5357912284025275
vn -0.4469741965332463 -0.7163391844652712 -0.5357912284025275
vn -0.6554663382303156 -0.687056741325345 -0.3135552800485733
vn -0.6554663382303156 -0.687056741325345 -0.3135552800485733
vn -0.6554663382303156 -0.687056741325345 -0.3135552800485733
vn -0.6283496624792082 -0.701091707480392 -0.33711588417707883
vn -0.6283496624792082 -0.701091707480392 -0.33711588417707883
vn -0.6283496624792082 -0.701091707480392 -0.33711588417707883
vn -0.6955253638638882 -0.7168207330153108 -0.049117257063055406
vn -0.6955253638638882 -0.7168207330153108 -0.049117257063055406
vn -0.6955253638638882 -0.7168207330153108 -0.049117257063055406
vn -0.6491122252191486 -0.7217569358315775 0.24025037908410768
vn -0.6491122252191486 -0.7217569358315775 0.24025037908410768
vn -0.6491122252191486 -0.7217569358315775 0.24025037908410768
vn -0.6211137417264619 -0.6991995845135326 0.3540305931055355
vn -0.6211137417264619 -0.6991995845135326 0.3540305931055355
vn -0.6211137417264619 -0.6991995845135326 0.3540305931055355
vn -0.4679604757276402 -0.706065951046248 0.5314921127636024
vn -0.4679604757276402 -0.706065951046248 0.5314921127636024
vn -0.4679604757276402 -0.706065951046248 0.5314921127636024
vn -0.4863131860378478 -0.717355477932131 0.49889939202857486
vn -0.4863131860378478 -0.717355477932131 0.49889939202857486
vn -0.4863131860378478 -0.717355477932131 0.49889939202857486
vn -0.31481903437390246 -0.6968843262503904 0.6443921255124265
vn -0.31481903437390246 -0.6968843262503904 0.6443921255124265
vn -0.31481903437390246 -0.6968843262503904 0.6443921255124265
vn -0.030670640361200256 -0.6896288253511422 0.7235132307460851
vn -0.030670640361200256 -0.6896288253511422 0.7235132307460851
vn -0.030670640361200256 -0.6896288253511422 0.7235132307460851
vn -0.100306596862808 -0.7095134608906832 -0.697516476823829
vn -0.100306596862808 -0.7095134608906832 -0.697516476823829
vn -0.100306596862808 -0.7095134608906832 -0.697516476823829
vn -0.3074842874347956 -0.6925863960418258 -0.6525162810217927
vn -0.3074842874347956 -0.6925863960418258 -0.6525162810217927
vn -0.3074842874347956 -0.6925863960418258 -0.6525162810217927
vn -0.7303477545834398 -0.6803987641008137 0.060412574725905464
vn -0.7303477545834398 -0.6803987641008137 0.060412574725905464
vn -0.7303477545834398 -0.6803987641008137 0.060412574725905464
vn -0.4199718637747445 -0.06589197528720567 -0.9051419122051071
vn -0.4199718637747445 -0.06589197528720567 -0.9051419122051071
vn -0.4199718637747445 -0.06589197528720567 -0.9051419122051071
vn 0.8588863934010057 0.2742604824070432 -0.43254520112985717
vn 0.8588863934010057 0.2742604824070432 -0.43254520112985717
vn 0.8588863934010057 0.2742604824070432 -0.43254520112985717
vn -0.1297707845198129 0.08310418508739703 -0.9880552807945879
vn -0.1297707845198129 0.08310418508739703 -0.9880552807945879
vn -0.1297707845198129 0.08310418508739703 -0.9880552807945879
vn -0.14808879570846495 0.03581844961629725 -0.9883252234222808
vn -0.14808879570846495 0.03581844961629725 -0.9883252234222808
vn -0.14808879570846495 0.03581844961629725 -0.9883252234222808
vn 0.9332121374809814 -0.1185959920119109 -0.3391903553123063
vn 0.9332121374809814 -0.1185959920119109 -0.3391903553123063
vn 0.9332121374809814 -0.1185959920119109 -0.3391903553123063
vn -0.8791083670942608 0.09584253256757562 -0.4668861615596416
vn -0.8791083670942608 0.09584253256757562 -0.4668861615596416
vn -0.8791083670942608 0.09584253256757562 -0.4668861615596416
vn 0.27916809334244735 -0.0954195166594452 -0.9554895559345589
vn 0.27916809334244735 -0.0954195166594452 -0.9554895559345589
vn 0.27916809334244735 -0.0954195166594452 -0.9554895559345589
vn -0.8758898548448274 0.04387586649499379 -0.48051209195942296
vn -0.8758898548448274 0.04387586649499379 -0.48051209195942296
vn -0.8758898548448274 0.04387586649499379 -0.48051209195942296
vn 0.3872622773797393 0.22742208405304737 -0.8934803434903459
vn 0.3872622773797393 0.22742208405304737 -0.8934803434903459
vn 0.3872622773797393 0.22742208405304737 -0.8934803434903459
vn -0.6739762072550516 -0.08981090363057459 -0.7332735326214601
vn -0.6739762072550516 -0.08981090363057459 -0.7332735326214601
vn -0.6739762072550516 -0.08981090363057459 -0.7332735326214601
vn 0.6146851610993364 -0.25196700603517935 -0.7474455034274746
vn 0.6146851610993364 -0.25196700603517935 -0.7474455034274746
vn 0.6146851610993364 -0.25196700603517935 -0.7474455034274746
vn -0.511541550711392 0.14578588458529054 -0.8468008725500161
vn -0.511541550711392 0.14578588458529054 -0.8468008725500161
vn -0.511541550711392 0.14578588458529054 -0.8468008725500161
vn 0 1 0
vn 0 1 0
vn 0 1 0
vn 0.000038900401656067425 0.9999999987375432 -0.00003180680137652364
vn 0.000038900401656067425 0.9999999987375432 -0.00003180680137652364
vn 0.000038900401656067425 0.9999999987375432 -0.00003180680137652364
vn -0.000011034599986039385 0.9999999993824271 -0.000033367399716864914
vn -0.000011034599986039385 0.9999999993824271 -0.000033367399716864914
vn -0.000011034599986039385 0.9999999993824271 -0.000033367399716864914
vn -0.000023883800143188656 0.9999999989685664 -0.00003863199886490155
vn -0.000023883800143188656 0.9999999989685664 -0.00003863199886490155
vn -0.000023883800143188656 0.9999999989685664 -0.00003863199886490155
vn -0.00005029949891653654 0.9999999987349804 0
vn -0.00005029949891653654 0.9999999987349804 0
vn -0.00005029949891653654 0.9999999987349804 0
vn 0 1 0
vn 0 1 0
vn 0 1 0
vn 0 0.9999999999922591 0.000003934710093714339
vn 0 0.9999999999922591 0.000003934710093714339
vn 0 0.9999999999922591 0.000003934710093714339
vn 0 0.9999999999774407 -0.000006717039923235815
vn 0 0.9999999999774407 -0.000006717039923235815
vn 0 0.9999999999774407 -0.000006717039923235815
vn 0.000014496100433960143 0.999999999030525 0.00004157899816680484
vn 0.000014496100433960143 0.999999999030525 0.00004157899816680484
vn 0.000014496100433960143 0.999999999030525 0.00004157899816680484
vn 0 1 0
vn 0 1 0
vn 0 1 0
vn -0.00001323380000950084 0.9999999993201925 0.00003441630176373594
vn -0.00001323380000950084 0.9999999993201925 0.00003441630176373594
vn -0.00001323380000950084 0.9999999993201925 0.00003441630176373594
vn -0.00002316929929830084 0.9999999994466748 0.00002387120001501631
vn -0.00002316929929830084 0.9999999994466748 0.00002387120001501631
vn -0.00002316929929830084 0.9999999994466748 0.00002387120001501631
vn 0 1 0
vn 0 1 0
vn 0 1 0
vn -0.000043125801267145 0.9999999989536077 -0.00001526269987374685
vn -0.000043125801267145 0.9999999989536077 -0.00001526269987374685
vn -0.000043125801267145 0.9999999989536077 -0.00001526269987374685
vn 0 0.999999999961547 0.000008769609848631467
vn 0 0.999999999961547 0.000008769609848631467
vn 0 0.999999999961547 0.000008769609848631467
vn 0 1 0
vn 0 1 0
vn 0 1 0
vn 0.000046268698446679377 0.9999999989028618 -0.000007313280085489052
vn 0.000046268698446679377 0.9999999989028618 -0.000007313280085489052
vn 0.000046268698446679377 0.9999999989028618 -0.000007313280085489052
vn 0.00001238119965628763 0.9999999991114894 0.00004029550105827567
vn 0.00001238119965628763 0.9999999991114894 0.00004029550105827567
vn 0.00001238119965628763 0.9999999991114894 0.00004029550105827567
vn 0 1 0
vn 0 1 0
vn 0 1 0
vn -0.00006535989798850915 0.9999999976152028 -0.000022308700810303053
vn -0.00006535989798850915 0.9999999976152028 -0.000022308700810303053
vn -0.00006535989798850915 0.9999999976152028 -0.000022308700810303053
vn 0.00006006010125227375 0.9999999953401557 -0.0000755809011141148
vn 0.00006006010125227375 0.9999999953401557 -0.0000755809011141148
vn 0.00006006010125227375 0.9999999953401557 -0.0000755809011141148
vn 0.29739946694202035 -0.18322038999989992 0.9370079219253629
vn 0.29739946694202035 -0.18322038999989992 0.9370079219253629
vn 0.29739946694202035 -0.18322038999989992 0.9370079219253629
vn 0.30646147642774935 -0.1921768741803724 0.9322818310446607
vn 0.30646147642774935 -0.1921768741803724 0.9322818310446607
vn 0.30646147642774935 -0.1921768741803724 0.9322818310446607
vn 0.6248096209335748 0.09485268565037773 0.7749941326318239
vn 0.6248096209335748 0.09485268565037773 0.7749941326318239
vn 0.6248096209335748 0.09485268565037773 0.7749941326318239
vn -0.6541565041130657 0.1922989034885307 0.7315055706169856
vn -0.6541565041130657 0.1922989034885307 0.7315055706169856
vn -0.6541565041130657 0.1922989034885307 0.7315055706169856
vn -0.6628338789560885 0.18327768409640655 0.7259893521397427
vn -0.6628338789560885 0.18327768409640655 0.7259893521397427
vn -0.6628338789560885 0.18327768409640655 0.7259893521397427
vn -0.35874187641233246 -0.09487759241240883 0.9286024491493567
vn -0.35874187641233246 -0.09487759241240883 0.9286024491493567
vn -0.35874187641233246 -0.09487759241240883 0.9286024491493567
vn -0.9148015067244648 0 -0.403903705472788
vn -0.9148015067244648 0 -0.403903705472788
vn -0.9148015067244648 0 -0.403903705472788
vn -0.9605625485606244 -0.19231340717181206 -0.20083611160517664
vn -0.9605625485606244 -0.19231340717181206 -0.20083611160517664
vn -0.9605625485606244 -0.19231340717181206 -0.20083611160517664
vn -0.9798663896754958 0.19231519185788362 -0.053635113172014894
vn -0.9798663896754958 0.19231519185788362 -0.053635113172014894
vn -0.9798663896754958 0.19231519185788362 -0.053635113172014894
vn -0.988018340279789 0 0.15433651308349242
vn -0.988018340279789 0 0.15433651308349242
vn -0.988018340279789 0 0.15433651308349242
vn -0.2999414873890507 0.12856728148393445 -0.9452542294402468
vn -0.2999414873890507 0.12856728148393445 -0.9452542294402468
vn -0.2999414873890507 0.12856728148393445 -0.9452542294402468
vn -0.4572979191653526 -0.12857161405643763 -0.8799704274496736
vn -0.4572979191653526 -0.12857161405643763 -0.8799704274496736
vn -0.4572979191653526 -0.12857161405643763 -0.8799704274496736
vn 0.8071304893359713 0 -0.5903730796574954
vn 0.8071304893359713 0 -0.5903730796574954
vn 0.8071304893359713 0 -0.5903730796574954
vn 0.6540863699479708 -0.19238499352658098 -0.7315456478676255
vn 0.6540863699479708 -0.19238499352658098 -0.7315456478676255
vn 0.6540863699479708 -0.19238499352658098 -0.7315456478676255
vn 0.5363690097727174 0.1922509911166592 -0.8217954987526379
vn 0.5363690097727174 0.1922509911166592 -0.8217954987526379
vn 0.5363690097727174 0.1922509911166592 -0.8217954987526379
vn 0.3603441968105493 0 -0.9328194143696624
vn 0.3603441968105493 0 -0.9328194143696624
vn 0.3603441968105493 0 -0.9328194143696624
vn 0.968588028165192 0.12858788323739828 0.21284357631742287
vn 0.968588028165192 0.12858788323739828 0.21284357631742287
vn 0.968588028165192 0.12858788323739828 0.21284357631742287
vn 0.9907369080211189 -0.12846109352231208 0.044024158547380086
vn 0.9907369080211189 -0.12846109352231208 0.044024158547380086
vn 0.9907369080211189 -0.12846109352231208 0.044024158547380086
vn 0 1 0
vn 0 1 0
vn 0 1 0
vn 0 1 0
vn 0 1 0
vn 0 1 0
vn 0 1 0
vn 0 1 0
vn 0 1 0
vn 0 1 0
vn 0 1 0
vn 0 1 0
vn 0 0.9999999999493883 0.000010060999556517458
vn 0 0.9999999999493883 0.000010060999556517458
vn 0 0.9999999999493883 0.000010060999556517458
vn 0 1 0
vn 0 1 0
vn 0 1 0
vn 0 1 0
vn 0 1 0
vn 0 1 0
f 1//1 2//2 3//3
f 4//4 5//5 6//6
f 7//7 8//8 9//9
f 10//10 11//11 12//12
f 13//13 14//14 15//15
f 16//16 17//17 18//18
f 19//19 20//20 21//21
f 22//22 23//23 24//24
f 25//25 26//26 27//27
f 28//28 29//29 30//30
f 31//31 32//32 33//33
f 34//34 35//35 36//36
f 37//37 38//38 39//39
f 40//40 41//41 42//42
f 43//43 44//44 45//45
f 46//46 47//47 48//48
f 49//49 50//50 51//51
f 52//52 53//53 54//54
f 55//55 56//56 57//57
f 58//58 59//59 60//60
f 61//61 62//62 63//63
f 64//64 65//65 66//66
f 67//67 68//68 69//69
f 70//70 71//71 72//72
f 73//73 74//74 75//75
f 76//76 77//77 78//78
f 79//79 80//80 81//81
f 82//82 83//83 84//84
f 85//85 86//86 87//87
f 88//88 89//89 90//90
f 91//91 92//92 93//93
f 94//94 95//95 96//96
f 97//97 98//98 99//99
f 100//100 101//101 102//102
f 103//103 104//104 105//105
f 106//106 107//107 108//108
f 109//109 110//110 111//111
f 112//112 113//113 114//114
f 115//115 116//116 117//117
f 118//118 119//119 120//120
f 121//121 122//122 123//123
f 124//124 125//125 126//126
f 127//127 128//128 129//129
f 130//130 131//131 132//132
f 133//133 134//134 135//135
f 136//136 137//137 138//138
f 139//139 140//140 141//141
f 142//142 143//143 144//144
f 145//145 146//146 147//147
f 148//148 149//149 150//150
f 151//151 152//152 153//153
f 154//154 155//155 156//156
f 157//157 158//158 159//159
f 160//160 161//161 162//162
f 163//163 164//164 165//165
f 166//166 167//167 168//168
f 169//169 170//170 171//171
f 172//172 173//173 174//174
f 175//175 176//176 177//177
f 178//178 179//179 180//180
f 181//181 182//182 183//183
f 184//184 185//185 186//186
f 187//187 188//188 189//189
f 190//190 191//191 192//192
f 193//193 194//194 195//195
f 196//196 197//197 198//198
f 199//199 200//200 201//201
f 202//202 203//203 204//204
f 205//205 206//206 207//207
f 208//208 209//209 210//210
f 211//211 212//212 213//213
f 214//214 215//215 216//216
f 217//217 218//218 219//219
f 220//220 221//221 222//222
f 223//223 224//224 225//225
f 226//226 227//227 228//228
f 229//229 230//230 231//231
f 232//232 233//233 234//234
f 235//235 236//236 237//237
f 238//238 239//239 240//240
f 241//241 242//242 243//243
f 244//244 245//245 246//246
f 247//247 248//248 249//249
f 250//250 251//251 252//252
f 253//253 254//254 255//255
f 256//256 257//257 258//258
f 259//259 260//260 261//261
f 262//262 263//263 264//264
f 265//265 266//266 267//267
f 268//268 269//269 270//270
f 271//271 272//272 273//273
f 274//274 275//275 276//276
f 277//277 278//278 279//279
f 280//280 281//281 282//282
f 283//283 284//284 285//285
f 286//286 287//287 288//288
f 289//289 290//290 291//291
f 292//292 293//293 294//294
f 295//295 296//296 297//297
f 298//298 299//299 300//300
f 301//301 302//302 303//303
f 304//304 305//305 306//306
f 307//307 308//308 309//309
f 310//310 311//311 312//312
f 313//313 314//314 315//315
f 316//316 317//317 318//318
f 319//319 320//320 321//321
f 322//322 323//323 324//324
f 325//325 326//326 327//327
f 328//328 329//329 330//330
f 331//331 332//332 333//333
f 334//334 335//335 336//336
f 337//337 338//338 339//339
f 340//340 341//341 342//342
f 343//343 344//344 345//345
f 346//346 347//347 348//348
f 349//349 350//350 351//351
f 352//352 353//353 354//354
f 355//355 356//356 357//357
f 358//358 359//359 360//360
f 361//361 362//362 363//363
f 364//364 365//365 366//366
f 367//367 368//368 369//369
f 370//370 371//371 372//372
f 373//373 374//374 375//375
f 376//376 377//377 378//378
