o node1
usemtl verbindung
v -0.015459470450878143 0.04229956120252609 -0.025854339823126793
v -0.0017266270006075501 0.04229956120252609 -0.02987891063094139
v -0.0008667709771543741 0.04809951037168503 -0.030019700527191162
v -0.015459470450878143 0.04229956120252609 -0.025854339823126793
v -0.0008667709771543741 0.04809951037168503 -0.030019700527191162
v -0.013571670278906822 0.0480995699763298 -0.026664789766073227
v -0.015459470450878143 0.04229956120252609 -0.025854339823126793
v -0.013571670278906822 0.0480995699763298 -0.026664789766073227
v -0.021707529202103615 0.04809951037168503 -0.02037142962217331
v -0.026986530050635338 0.04229950159788132 -0.013145740143954754
v -0.015459470450878143 0.04229956120252609 -0.025854339823126793
v -0.021707529202103615 0.04809951037168503 -0.02037142962217331
v -0.026986530050635338 0.04229950159788132 -0.013145740143954754
v -0.021707529202103615 0.04809951037168503 -0.02037142962217331
v -0.027758650481700897 0.0480995699763298 -0.010978929698467255
v -0.02966230921447277 0.04229950159788132 0.0012039539869874716
v -0.026986530050635338 0.04229950159788132 -0.013145740143954754
v -0.027758650481700897 0.0480995699763298 -0.010978929698467255
v -0.02966230921447277 0.04229950159788132 0.0012039539869874716
v -0.027758650481700897 0.0480995699763298 -0.010978929698467255
v -0.02948969043791294 0.04809951037168503 0.005238949786871672
v -0.025480270385742188 0.04229956120252609 0.015466630458831787
v -0.02966230921447277 0.04229950159788132 0.0012039539869874716
v -0.02948969043791294 0.04809951037168503 0.005238949786871672
v -0.025480270385742188 0.04229956120252609 0.015466630458831787
v -0.02948969043791294 0.04809951037168503 0.005238949786871672
v -0.01998423971235752 0.04809945076704025 0.02220386080443859
v -0.012383869849145412 0.04229950159788132 0.026974789798259735
v -0.025480270385742188 0.04229956120252609 0.015466630458831787
v -0.01998423971235752 0.04809945076704025 0.02220386080443859
v -0.012383869849145412 0.04229950159788132 0.026974789798259735
v -0.01998423971235752 0.04809945076704025 0.02220386080443859
v -0.004588127136230469 0.04809945076704025 0.02915436029434204
v 0.0037414429243654013 0.04229950159788132 0.029345089569687843
v -0.012383869849145412 0.04229950159788132 0.026974789798259735
v -0.004588127136230469 0.04809945076704025 0.02915436029434204
v 0.00415611220523715 0.04809951037168503 0.03123527020215988
v -0.005031585227698088 0.04229950159788132 0.03104466013610363
v 0.007328032981604338 0.04229950159788132 0.030587850138545036
v 0.017404550686478615 0.04809951037168503 0.026315150782465935
v 0.00415611220523715 0.04809951037168503 0.03123527020215988
v 0.007328032981604338 0.04229950159788132 0.030587850138545036
v 0.017404550686478615 0.04809951037168503 0.026315150782465935
v 0.007328032981604338 0.04229950159788132 0.030587850138545036
v 0.019321439787745476 0.04229956120252609 0.024952759966254234
v 0.028212780132889748 0.04809951037168503 0.014652599580585957
v 0.017404550686478615 0.04809951037168503 0.026315150782465935
v 0.019321439787745476 0.04229956120252609 0.024952759966254234
v 0.028212780132889748 0.04809951037168503 0.014652599580585957
v 0.019321439787745476 0.04229956120252609 0.024952759966254234
v 0.028800010681152344 0.04229950159788132 0.013299340382218361
v 0.03179305046796799 0.04809951037168503 -0.0017465349519625306
v 0.028212780132889748 0.04809951037168503 0.014652599580585957
v 0.028800010681152344 0.04229950159788132 0.013299340382218361
v 0.03179305046796799 0.04809951037168503 -0.0017465349519625306
v 0.028800010681152344 0.04229950159788132 0.013299340382218361
v 0.031760748475790024 0.04229950159788132 -0.002322315936908126
v 0.027497699484229088 0.04809962958097458 -0.016138609498739243
v 0.031760748475790024 0.04229950159788132 -0.002322315936908126
v 0.026796339079737663 0.04229950159788132 -0.01742606982588768
v 0.027497699484229088 0.04809962958097458 -0.016138609498739243
v 0.03179305046796799 0.04809951037168503 -0.0017465349519625306
v 0.031760748475790024 0.04229950159788132 -0.002322315936908126
v 0.01990693062543869 0.04809962958097458 -0.024788910523056984
v 0.027497699484229088 0.04809962958097458 -0.016138609498739243
v 0.026796339079737663 0.04229950159788132 -0.01742606982588768
v 0.01990693062543869 0.04809962958097458 -0.024788910523056984
v 0.026796339079737663 0.04229950159788132 -0.01742606982588768
v 0.018068309873342514 0.04229950159788132 -0.026171740144491196
v 0.010735509917140007 0.04809951037168503 -0.030072679743170738
v 0.01990693062543869 0.04809962958097458 -0.024788910523056984
v 0.018068309873342514 0.04229950159788132 -0.026171740144491196
v 0.010735509917140007 0.04809951037168503 -0.030072679743170738
v 0.018068309873342514 0.04229950159788132 -0.026171740144491196
v 0.00593829108402133 0.04229950159788132 -0.03159916028380394
v -0.0023853180464357138 0.04809951037168503 -0.03191870078444481
v 0.010735509917140007 0.04809951037168503 -0.030072679743170738
v 0.00593829108402133 0.04229950159788132 -0.03159916028380394
v 0.00593829108402133 0.04229950159788132 -0.03159916028380394
v 0.009070396423339844 0.04229943826794624 -0.028472479432821274
v -0.0017266270006075501 0.04229956120252609 -0.02987891063094139
v -0.025480270385742188 0.04229956120252609 0.015466630458831787
v -0.018179889768362045 0.04229943826794624 0.02587503008544445
v -0.026612279936671257 0.04229937866330147 0.01678556017577648
v 0.026796339079737663 0.04229950159788132 -0.01742606982588768
v 0.031760748475790024 0.04229950159788132 -0.002322315936908126
v 0.028161099180579185 0.04229950159788132 -0.009873688220977783
v -0.012383869849145412 0.04229950159788132 0.026974789798259735
v -0.018179889768362045 0.04229943826794624 0.02587503008544445
v -0.025480270385742188 0.04229956120252609 0.015466630458831787
v -0.025480270385742188 0.04229956120252609 0.015466630458831787
v -0.026612279936671257 0.04229937866330147 0.01678556017577648
v -0.03092068061232567 0.04229950159788132 0.006807744037359953
v 0.018068309873342514 0.04229950159788132 -0.026171740144491196
v 0.009070396423339844 0.04229943826794624 -0.028472479432821274
v 0.00593829108402133 0.04229950159788132 -0.03159916028380394
v 0.018068309873342514 0.04229950159788132 -0.026171740144491196
v 0.02026510052382946 0.04229950159788132 -0.022139130160212517
v 0.009070396423339844 0.04229943826794624 -0.028472479432821274
v -0.012383869849145412 0.04229950159788132 0.026974789798259735
v -0.005031585227698088 0.04229950159788132 0.03104466013610363
v -0.018179889768362045 0.04229943826794624 0.02587503008544445
v 0.026796339079737663 0.04229950159788132 -0.01742606982588768
v 0.028161099180579185 0.04229950159788132 -0.009873688220977783
v 0.02026510052382946 0.04229950159788132 -0.022139130160212517
v -0.02966230921447277 0.04229950159788132 0.0012039539869874716
v -0.025480270385742188 0.04229956120252609 0.015466630458831787
v -0.03092068061232567 0.04229950159788132 0.006807744037359953
v 0.026796339079737663 0.04229950159788132 -0.01742606982588768
v 0.02026510052382946 0.04229950159788132 -0.022139130160212517
v 0.018068309873342514 0.04229950159788132 -0.026171740144491196
v 0.0037414429243654013 0.04229950159788132 0.029345089569687843
v -0.005031585227698088 0.04229950159788132 0.03104466013610363
v -0.012383869849145412 0.04229950159788132 0.026974789798259735
v 0.0037414429243654013 0.04229950159788132 0.029345089569687843
v 0.007328032981604338 0.04229950159788132 0.030587850138545036
v -0.005031585227698088 0.04229950159788132 0.03104466013610363
v -0.02966230921447277 0.04229950159788132 0.0012039539869874716
v -0.03092068061232567 0.04229950159788132 0.006807744037359953
v -0.030660150572657585 0.04229950159788132 -0.009387551806867123
v -0.026986530050635338 0.04229950159788132 -0.013145740143954754
v -0.02966230921447277 0.04229950159788132 0.0012039539869874716
v -0.030660150572657585 0.04229950159788132 -0.009387551806867123
v 0.017295770347118378 0.04229950159788132 0.02396911010146141
v 0.007328032981604338 0.04229950159788132 0.030587850138545036
v 0.0037414429243654013 0.04229950159788132 0.029345089569687843
v 0.019321439787745476 0.04229956120252609 0.024952759966254234
v 0.007328032981604338 0.04229950159788132 0.030587850138545036
v 0.017295770347118378 0.04229950159788132 0.02396911010146141
v -0.02180187962949276 0.04229937866330147 -0.023312559351325035
v -0.026986530050635338 0.04229950159788132 -0.013145740143954754
v -0.030660150572657585 0.04229950159788132 -0.009387551806867123
v -0.015459470450878143 0.04229956120252609 -0.025854339823126793
v -0.026986530050635338 0.04229950159788132 -0.013145740143954754
v -0.02180187962949276 0.04229937866330147 -0.023312559351325035
v 0.026782510802149773 0.04229943826794624 0.012886459939181805
v 0.019321439787745476 0.04229956120252609 0.024952759966254234
v 0.017295770347118378 0.04229950159788132 0.02396911010146141
v 0.028800010681152344 0.04229950159788132 0.013299340382218361
v 0.019321439787745476 0.04229956120252609 0.024952759966254234
v 0.026782510802149773 0.04229943826794624 0.012886459939181805
v -0.009916304610669613 0.04229950159788132 -0.030420120805501938
v -0.015459470450878143 0.04229956120252609 -0.025854339823126793
v -0.02180187962949276 0.04229937866330147 -0.023312559351325035
v -0.0017266270006075501 0.04229956120252609 -0.02987891063094139
v -0.015459470450878143 0.04229956120252609 -0.025854339823126793
v -0.009916304610669613 0.04229950159788132 -0.030420120805501938
v 0.02956211008131504 0.04229950159788132 0.00121313298586756
v 0.028800010681152344 0.04229950159788132 0.013299340382218361
v 0.026782510802149773 0.04229943826794624 0.012886459939181805
v 0.031760748475790024 0.04229950159788132 -0.002322315936908126
v 0.028800010681152344 0.04229950159788132 0.013299340382218361
v 0.02956211008131504 0.04229950159788132 0.00121313298586756
v 0.00593829108402133 0.04229950159788132 -0.03159916028380394
v -0.0017266270006075501 0.04229956120252609 -0.02987891063094139
v -0.009916304610669613 0.04229950159788132 -0.030420120805501938
v 0.031760748475790024 0.04229950159788132 -0.002322315936908126
v 0.02956211008131504 0.04229950159788132 0.00121313298586756
v 0.028161099180579185 0.04229950159788132 -0.009873688220977783
v -0.0008667709771543741 0.04809951037168503 -0.030019700527191162
v 0.0111923199146986 0.04809951037168503 -0.027700480073690414
v 0.010735509917140007 0.04809951037168503 -0.030072679743170738
v 0.027758529409766197 0.04809951037168503 -0.010979950428009033
v 0.03179305046796799 0.04809951037168503 -0.0017465349519625306
v 0.027497699484229088 0.04809962958097458 -0.016138609498739243
v -0.029577970504760742 0.0480995699763298 0.011040559969842434
v -0.02129833959043026 0.04809951037168503 0.023582329973578453
v -0.01998423971235752 0.04809945076704025 0.02220386080443859
v -0.029577970504760742 0.0480995699763298 0.011040559969842434
v -0.01998423971235752 0.04809945076704025 0.02220386080443859
v -0.02948969043791294 0.04809951037168503 0.005238949786871672
v 0.010735509917140007 0.04809951037168503 -0.030072679743170738
v 0.0111923199146986 0.04809951037168503 -0.027700480073690414
v 0.01990693062543869 0.04809962958097458 -0.024788910523056984
v 0.0111923199146986 0.04809951037168503 -0.027700480073690414
v 0.020575519651174545 0.04809951037168503 -0.021663719788193703
v 0.01990693062543869 0.04809962958097458 -0.024788910523056984
v 0.020575519651174545 0.04809951037168503 -0.021663719788193703
v 0.027758529409766197 0.04809951037168503 -0.010979950428009033
v 0.027497699484229088 0.04809962958097458 -0.016138609498739243
v -0.02129833959043026 0.04809951037168503 0.023582329973578453
v -0.008172035217285156 0.04809951037168503 0.030320579186081886
v -0.01998423971235752 0.04809945076704025 0.02220386080443859
v -0.01998423971235752 0.04809945076704025 0.02220386080443859
v -0.008172035217285156 0.04809951037168503 0.030320579186081886
v -0.004588127136230469 0.04809945076704025 0.02915436029434204
v 0.020575519651174545 0.04809951037168503 -0.021663719788193703
v 0.027497699484229088 0.04809962958097458 -0.016138609498739243
v 0.01990693062543869 0.04809962958097458 -0.024788910523056984
v -0.031614840030670166 0.04809951037168503 0.0006372929783537984
v -0.029577970504760742 0.0480995699763298 0.011040559969842434
v -0.02948969043791294 0.04809951037168503 0.005238949786871672
v -0.008172035217285156 0.04809951037168503 0.030320579186081886
v 0.00415611220523715 0.04809951037168503 0.03123527020215988
v -0.004588127136230469 0.04809945076704025 0.02915436029434204
v -0.004588127136230469 0.04809945076704025 0.02915436029434204
v 0.00415611220523715 0.04809951037168503 0.03123527020215988
v 0.0065765380859375 0.04809945076704025 0.028608260676264763
v -0.031614840030670166 0.04809951037168503 0.0006372929783537984
v -0.02948969043791294 0.04809951037168503 0.005238949786871672
v -0.029514839872717857 0.04809951037168503 -0.012161970138549805
v -0.029514839872717857 0.04809951037168503 -0.012161970138549805
v -0.02948969043791294 0.04809951037168503 0.005238949786871672
v -0.027758650481700897 0.0480995699763298 -0.010978929698467255
v 0.0065765380859375 0.04809945076704025 0.028608260676264763
v 0.00415611220523715 0.04809951037168503 0.03123527020215988
v 0.017404550686478615 0.04809951037168503 0.026315150782465935
v 0.0065765380859375 0.04809945076704025 0.028608260676264763
v 0.017404550686478615 0.04809951037168503 0.026315150782465935
v 0.01684092916548252 0.0480995699763298 0.02428518980741501
v -0.029514839872717857 0.04809951037168503 -0.012161970138549805
v -0.027758650481700897 0.0480995699763298 -0.010978929698467255
v -0.021707529202103615 0.04809951037168503 -0.02037142962217331
v -0.029514839872717857 0.04809951037168503 -0.012161970138549805
v -0.021707529202103615 0.04809951037168503 -0.02037142962217331
v -0.01853029988706112 0.04809951037168503 -0.02636747993528843
v 0.01684092916548252 0.0480995699763298 0.02428518980741501
v 0.017404550686478615 0.04809951037168503 0.026315150782465935
v 0.028212780132889748 0.04809951037168503 0.014652599580585957
v 0.01684092916548252 0.0480995699763298 0.02428518980741501
v 0.028212780132889748 0.04809951037168503 0.014652599580585957
v 0.02653026022017002 0.04809951037168503 0.013388030230998993
v -0.01853029988706112 0.04809951037168503 -0.02636747993528843
v -0.021707529202103615 0.04809951037168503 -0.02037142962217331
v -0.013571670278906822 0.0480995699763298 -0.026664789766073227
v -0.01853029988706112 0.04809951037168503 -0.02636747993528843
v -0.013571670278906822 0.0480995699763298 -0.026664789766073227
v -0.0023853180464357138 0.04809951037168503 -0.03191870078444481
v -0.0023853180464357138 0.04809951037168503 -0.03191870078444481
v -0.013571670278906822 0.0480995699763298 -0.026664789766073227
v -0.0008667709771543741 0.04809951037168503 -0.030019700527191162
v 0.02653026022017002 0.04809951037168503 0.013388030230998993
v 0.028212780132889748 0.04809951037168503 0.014652599580585957
v 0.029622429981827736 0.04809951037168503 0.0008796449983492494
v 0.029622429981827736 0.04809951037168503 0.0008796449983492494
v 0.028212780132889748 0.04809951037168503 0.014652599580585957
v 0.03179305046796799 0.04809951037168503 -0.0017465349519625306
v -0.0023853180464357138 0.04809951037168503 -0.03191870078444481
v -0.0008667709771543741 0.04809951037168503 -0.030019700527191162
v 0.010735509917140007 0.04809951037168503 -0.030072679743170738
v 0.027758529409766197 0.04809951037168503 -0.010979950428009033
v 0.029622429981827736 0.04809951037168503 0.0008796449983492494
v 0.03179305046796799 0.04809951037168503 -0.0017465349519625306
v -0.0023853180464357138 0.04809951037168503 -0.03191870078444481
v 0.00593829108402133 0.04229950159788132 -0.03159916028380394
v -0.009916304610669613 0.04229950159788132 -0.030420120805501938
v -0.01853029988706112 0.04809951037168503 -0.02636747993528843
v -0.0023853180464357138 0.04809951037168503 -0.03191870078444481
v -0.009916304610669613 0.04229950159788132 -0.030420120805501938
v -0.01853029988706112 0.04809951037168503 -0.02636747993528843
v -0.009916304610669613 0.04229950159788132 -0.030420120805501938
v -0.02180187962949276 0.04229937866330147 -0.023312559351325035
v -0.029514839872717857 0.04809951037168503 -0.012161970138549805
v -0.02180187962949276 0.04229937866330147 -0.023312559351325035
v -0.030660150572657585 0.04229950159788132 -0.009387551806867123
v -0.029514839872717857 0.04809951037168503 -0.012161970138549805
v -0.01853029988706112 0.04809951037168503 -0.02636747993528843
v -0.02180187962949276 0.04229937866330147 -0.023312559351325035
v -0.031614840030670166 0.04809951037168503 0.0006372929783537984
v -0.029514839872717857 0.04809951037168503 -0.012161970138549805
v -0.030660150572657585 0.04229950159788132 -0.009387551806867123
v -0.031614840030670166 0.04809951037168503 0.0006372929783537984
v -0.030660150572657585 0.04229950159788132 -0.009387551806867123
v -0.03092068061232567 0.04229950159788132 0.006807744037359953
v -0.029577970504760742 0.0480995699763298 0.011040559969842434
v -0.031614840030670166 0.04809951037168503 0.0006372929783537984
v -0.03092068061232567 0.04229950159788132 0.006807744037359953
v -0.029577970504760742 0.0480995699763298 0.011040559969842434
v -0.03092068061232567 0.04229950159788132 0.006807744037359953
v -0.026612279936671257 0.04229937866330147 0.01678556017577648
v -0.02129833959043026 0.04809951037168503 0.023582329973578453
v -0.029577970504760742 0.0480995699763298 0.011040559969842434
v -0.026612279936671257 0.04229937866330147 0.01678556017577648
v -0.02129833959043026 0.04809951037168503 0.023582329973578453
v -0.026612279936671257 0.04229937866330147 0.01678556017577648
v -0.018179889768362045 0.04229943826794624 0.02587503008544445
v -0.008172035217285156 0.04809951037168503 0.030320579186081886
v -0.02129833959043026 0.04809951037168503 0.023582329973578453
v -0.018179889768362045 0.04229943826794624 0.02587503008544445
v -0.008172035217285156 0.04809951037168503 0.030320579186081886
v -0.018179889768362045 0.04229943826794624 0.02587503008544445
v -0.005031585227698088 0.04229950159788132 0.03104466013610363
v 0.00415611220523715 0.04809951037168503 0.03123527020215988
v -0.008172035217285156 0.04809951037168503 0.030320579186081886
v -0.005031585227698088 0.04229950159788132 0.03104466013610363
v 0.0037414429243654013 0.04229950159788132 0.029345089569687843
v -0.004588127136230469 0.04809945076704025 0.02915436029434204
v 0.0065765380859375 0.04809945076704025 0.028608260676264763
v 0.017295770347118378 0.04229950159788132 0.02396911010146141
v 0.0037414429243654013 0.04229950159788132 0.029345089569687843
v 0.01684092916548252 0.0480995699763298 0.02428518980741501
v 0.0037414429243654013 0.04229950159788132 0.029345089569687843
v 0.0065765380859375 0.04809945076704025 0.028608260676264763
v 0.01684092916548252 0.0480995699763298 0.02428518980741501
v 0.017295770347118378 0.04229950159788132 0.02396911010146141
v 0.01684092916548252 0.0480995699763298 0.02428518980741501
v 0.02653026022017002 0.04809951037168503 0.013388030230998993
v 0.026782510802149773 0.04229943826794624 0.012886459939181805
v 0.017295770347118378 0.04229950159788132 0.02396911010146141
v 0.02653026022017002 0.04809951037168503 0.013388030230998993
v 0.026782510802149773 0.04229943826794624 0.012886459939181805
v 0.02653026022017002 0.04809951037168503 0.013388030230998993
v 0.029622429981827736 0.04809951037168503 0.0008796449983492494
v 0.02956211008131504 0.04229950159788132 0.00121313298586756
v 0.026782510802149773 0.04229943826794624 0.012886459939181805
v 0.029622429981827736 0.04809951037168503 0.0008796449983492494
v 0.028161099180579185 0.04229950159788132 -0.009873688220977783
v 0.02956211008131504 0.04229950159788132 0.00121313298586756
v 0.029622429981827736 0.04809951037168503 0.0008796449983492494
v 0.028161099180579185 0.04229950159788132 -0.009873688220977783
v 0.029622429981827736 0.04809951037168503 0.0008796449983492494
v 0.027758529409766197 0.04809951037168503 -0.010979950428009033
v 0.02026510052382946 0.04229950159788132 -0.022139130160212517
v 0.028161099180579185 0.04229950159788132 -0.009873688220977783
v 0.027758529409766197 0.04809951037168503 -0.010979950428009033
v 0.02026510052382946 0.04229950159788132 -0.022139130160212517
v 0.027758529409766197 0.04809951037168503 -0.010979950428009033
v 0.020575519651174545 0.04809951037168503 -0.021663719788193703
v 0.02026510052382946 0.04229950159788132 -0.022139130160212517
v 0.020575519651174545 0.04809951037168503 -0.021663719788193703
v 0.0111923199146986 0.04809951037168503 -0.027700480073690414
v 0.009070396423339844 0.04229943826794624 -0.028472479432821274
v 0.02026510052382946 0.04229950159788132 -0.022139130160212517
v 0.0111923199146986 0.04809951037168503 -0.027700480073690414
v 0.009070396423339844 0.04229943826794624 -0.028472479432821274
v 0.0111923199146986 0.04809951037168503 -0.027700480073690414
v -0.0008667709771543741 0.04809951037168503 -0.030019700527191162
v -0.0017266270006075501 0.04229956120252609 -0.02987891063094139
v 0.009070396423339844 0.04229943826794624 -0.028472479432821274
v -0.0008667709771543741 0.04809951037168503 -0.030019700527191162
vn 0.5127508756189616 0.007873892030774618 0.8585013345221286
vn 0.09711156582867905 0.009735522588614666 0.9952258856069957
vn 0.045106407872510045 0.006073175546976529 0.9989637273232769
vn 0.5127508756189616 0.007873892030774618 0.8585013345221286
vn 0.045106407872510045 0.006073175546976529 0.9989637273232769
vn 0.4033364830224179 -0.0034180869250977253 0.915045353053541
vn 0.5127508756189616 0.007873892030774618 0.8585013345221286
vn 0.4033364830224179 -0.0034180869250977253 0.915045353053541
vn 0.7363599383871583 0.06656168261194269 0.6733079410985193
vn 0.8983066663004515 0.01501547915209227 0.43911236451050006
vn 0.5127508756189616 0.007873892030774618 0.8585013345221286
vn 0.7363599383871583 0.06656168261194269 0.6733079410985193
vn 0.8983066663004515 0.01501547915209227 0.43911236451050006
vn 0.7363599383871583 0.06656168261194269 0.6733079410985193
vn 0.9487298229662818 -0.01959352960699446 0.3154802951246036
vn 0.9999881091638726 0.0037538396483721616 -0.0031129116205094926
vn 0.8983066663004515 0.01501547915209227 0.43911236451050006
vn 0.9487298229662818 -0.01959352960699446 0.3154802951246036
vn 0.9999881091638726 0.0037538396483721616 -0.0031129116205094926
vn 0.9487298229662818 -0.01959352960699446 0.3154802951246036
vn 0.9800866066399431 0.016113990622146093 -0.19791559511880497
vn 0.8799444589918725 -0.17236939372103507 -0.44270367199487254
vn 0.9999881091638726 0.0037538396483721616 -0.0031129116205094926
vn 0.9800866066399431 0.016113990622146093 -0.19791559511880497
vn 0.8799444589918725 -0.17236939372103507 -0.44270367199487254
vn 0.9800866066399431 0.016113990622146093 -0.19791559511880497
vn 0.8445541849843187 -0.2506226000549726 -0.4731982047378862
vn 0.6408172427448859 0.23985249469039552 -0.7292626702304429
vn 0.6408172427448859 0.23985249469039552 -0.7292626702304429
vn 0.6408172427448859 0.23985249469039552 -0.7292626702304429
vn 0.34532887207708973 -0.11411259476739556 -0.9315182691849995
vn 0.40264219074455243 -0.2060362996145424 -0.8918678766911464
vn 0.16251369844539587 0.04379474991084755 -0.9857338980160139
vn -0.13129238630161272 0.007416068489203373 -0.9913159492449375
vn 0.34532887207708973 -0.11411259476739556 -0.9315182691849995
vn 0.16251369844539587 0.04379474991084755 -0.9857338980160139
vn 0.12463938103071592 0.0005493409548190927 0.9922019567209064
vn -0.15546298310258325 -0.003906368814793809 0.9878339947417929
vn 0.25770050518579357 0.0009460820086477933 0.9662243810605379
vn 0.5408545886407785 0.011475020414797145 0.8410378337819854
vn 0.12463938103071592 0.0005493409548190927 0.9922019567209064
vn 0.25770050518579357 0.0009460820086477933 0.9662243810605379
vn 0.5408545886407785 0.011475020414797145 0.8410378337819854
vn 0.25770050518579357 0.0009460820086477933 0.9662243810605379
vn 0.6336982078612696 0.004516779788461884 0.7735671787593872
vn 0.8805307003372425 0.000671414938293629 0.47398864434244203
vn 0.5408545886407785 0.011475020414797145 0.8410378337819854
vn 0.6336982078612696 0.004516779788461884 0.7735671787593872
vn 0.8805307003372425 0.000671414938293629 0.47398864434244203
vn 0.6336982078612696 0.004516779788461884 0.7735671787593872
vn 0.9175078131812551 -0.009338915204528083 0.39760809525731994
vn 0.9994252247649168 0.006683587511163964 -0.03323476736155212
vn 0.8805307003372425 0.000671414938293629 0.47398864434244203
vn 0.9175078131812551 -0.009338915204528083 0.39760809525731994
vn 0.9994252247649168 0.006683587511163964 -0.03323476736155212
vn 0.9175078131812551 -0.009338915204528083 0.39760809525731994
vn 0.9975495354406901 -0.0075687174806445675 -0.06955313693688955
vn 0.8851207968684575 0.005585012880411518 -0.46532782270359957
vn 0.9975495354406901 -0.0075687174806445675 -0.06955313693688955
vn 0.8466743668726443 -0.00592076581088693 -0.5320784350197061
vn 0.8851207968684575 0.005585012880411518 -0.46532782270359957
vn 0.9994252247649168 0.006683587511163964 -0.03323476736155212
vn 0.9975495354406901 -0.0075687174806445675 -0.06955313693688955
vn 0.641751297906912 0.0023193946416844033 -0.7669093114855823
vn 0.8851207968684575 0.005585012880411518 -0.46532782270359957
vn 0.8466743668726443 -0.00592076581088693 -0.5320784350197061
vn 0.641751297906912 0.0023193946416844033 -0.7669093114855823
vn 0.8466743668726443 -0.00592076581088693 -0.5320784350197061
vn 0.5671051730087688 -0.01992892842754634 -0.8234042509960853
vn 0.355820417323179 -0.0024109482759709683 -0.9345512388009388
vn 0.641751297906912 0.0023193946416844033 -0.7669093114855823
vn 0.5671051730087688 -0.01992892842754634 -0.8234042509960853
vn 0.355820417323179 -0.0024109482759709683 -0.9345512388009388
vn 0.5671051730087688 -0.01992892842754634 -0.8234042509960853
vn 0.17420148847923173 0.018433328716291903 -0.9845374821732574
vn -0.08563584018515083 -0.030488310129833846 -0.9958599127493839
vn 0.355820417323179 -0.0024109482759709683 -0.9345512388009388
vn 0.17420148847923173 0.018433328716291903 -0.9845374821732574
vn 0 -1 0
vn 0 -1 0
vn 0 -0.9999999995343107 0.00003051849851942606
vn 0.000061036996925155 -0.9999999976715532 -0.0000305184984625775
vn 0 -1 0
vn 0.00006103699683988214 -0.999999996274485 -0.00006103699683988214
vn 0 -1 0
vn 0 -1 0
vn 0 -1 0
vn 0 -1 0
vn 0 -1 0
vn 0.000061036996925155 -0.9999999976715532 -0.0000305184984625775
vn 0.000061036996925155 -0.9999999976715532 -0.0000305184984625775
vn 0.00006103699683988214 -0.999999996274485 -0.00006103699683988214
vn 0 -1 0
vn 0 -1 0
vn 0 -1 0
vn 0 -1 0
vn 0 -1 0
vn 0 -1 0
vn 0 -1 0
vn 0 -1 0
vn 0 -1 0
vn 0 -1 0
vn 0 -1 0
vn 0 -1 0
vn 0 -1 0
vn 0 -1 0
vn 0.000061036996925155 -0.9999999976715532 -0.0000305184984625775
vn 0 -1 0
vn 0 -1 0
vn 0 -1 0
vn 0 -1 0
vn 0 -1 0
vn 0 -1 0
vn 0 -1 0
vn 0 -1 0
vn 0 -1 0
vn 0 -1 0
vn 0 -1 0
vn 0 -1 0
vn 0 -1 0
vn 0 -1 0
vn 0 -1 0
vn 0 -1 0
vn 0 -1 0
vn 0 -1 0
vn 0 -1 0
vn 0 -1 0
vn 0 -1 0
vn 0 -1 0
vn 0.00003051849850521391 -0.9999999990686212 0.00003051849850521391
vn 0 -1 0
vn 0 -1 0
vn 0.000030519400681315164 -0.9999999976714093 0.00006103890322603668
vn 0 -1 0
vn 0.00003051849850521391 -0.9999999990686212 0.00003051849850521391
vn 0 -1 0
vn 0 -1 0
vn 0 -1 0
vn 0 -1 0
vn 0 -1 0
vn 0 -1 0
vn 0 -1 0
vn 0.000030519400681315164 -0.9999999976714093 0.00006103890322603668
vn 0.00003051849850521391 -0.9999999990686212 0.00003051849850521391
vn 0 -0.9999999995343107 0.00003051849851942606
vn 0.000030519400681315164 -0.9999999976714093 0.00006103890322603668
vn 0 -1 0
vn 0 -1 0
vn 0 -1 0
vn 0 -1 0
vn 0 -1 0
vn 0 -1 0
vn 0 -1 0
vn 0 -1 0
vn 0 -0.9999999995343107 0.00003051849851942606
vn 0 -1 0
vn 0 -1 0
vn 0 -1 0
vn 0 -1 0
vn 0 1 0
vn 0 1 0
vn 0 1 0
vn -0.00003051940073816896 0.9999999995342832 0
vn 0 1 0
vn -0.00003051849851942606 0.9999999995343107 0
vn 0 1 0
vn 0 1 0
vn 0 1 0
vn 0 1 0
vn 0 1 0
vn 0 1 0
vn 0 1 0
vn 0 1 0
vn -0.00003051849850521391 0.9999999990686212 0.00003051849850521391
vn 0 1 0
vn -0.00003051849850521391 0.9999999990686212 0.00003051849850521391
vn -0.00003051849850521391 0.9999999990686212 0.00003051849850521391
vn -0.00003051849850521391 0.9999999990686212 0.00003051849850521391
vn -0.00003051940073816896 0.9999999995342832 0
vn -0.00003051849851942606 0.9999999995343107 0
vn 0 1 0
vn 0 1 0
vn 0 1 0
vn 0 1 0
vn 0 1 0
vn 0 0.9999999995343107 -0.00003051849851942606
vn -0.00003051849850521391 0.9999999990686212 0.00003051849850521391
vn -0.00003051849851942606 0.9999999995343107 0
vn -0.00003051849850521391 0.9999999990686212 0.00003051849850521391
vn 0 1 0
vn 0 1 0
vn 0 1 0
vn 0 1 0
vn 0 1 0
vn 0 0.9999999995343107 -0.00003051849851942606
vn 0 0.9999999995343107 -0.00003051849851942606
vn 0 1 0
vn 0 1 0
vn 0 1 0
vn 0 1 0
vn 0 1 0
vn 0 1 0
vn 0 1 0
vn 0 1 0
vn 0 1 0
vn 0 1 0
vn 0 1 0
vn 0 1 0
vn 0 1 0
vn 0 1 0
vn 0 1 0
vn 0 1 0
vn 0 1 0
vn 0 1 0
vn 0 1 0
vn 0 1 0
vn 0 1 0
vn 0 1 0
vn 0 1 0
vn 0 1 0
vn 0 1 0
vn 0 1 0
vn 0 1 0
vn 0 1 0
vn 0 0.9999999995343107 -0.00003051849851942606
vn 0 1 0
vn 0 0.9999999995343107 -0.00003051849851942606
vn 0 1 0
vn 0 1 0
vn 0 0.9999999995343107 -0.00003051849851942606
vn 0 1 0
vn 0 1 0
vn 0 1 0
vn 0 1 0
vn 0 1 0
vn 0 1 0
vn 0 1 0
vn 0 1 0
vn 0 1 0
vn 0 1 0
vn -0.00003051940073816896 0.9999999995342832 0
vn 0 1 0
vn 0 1 0
vn -0.08563584018515083 -0.030488310129833846 -0.9958599127493839
vn 0.17420148847923173 0.018433328716291903 -0.9845374821732574
vn -0.30876668351202735 0.04684757671724196 -0.9499833891751506
vn -0.5744387409779925 -0.01794545694479411 -0.8183508376232419
vn -0.08563584018515083 -0.030488310129833846 -0.9958599127493839
vn -0.30876668351202735 0.04684757671724196 -0.9499833891751506
vn -0.5744387409779925 -0.01794545694479411 -0.8183508376232419
vn -0.30876668351202735 0.04684757671724196 -0.9499833891751506
vn -0.7278298399935795 0.012055210269100114 -0.6856518037023518
vn -0.9058010134352554 0.010559489196694864 -0.42357174273972653
vn -0.7278298399935795 0.012055210269100114 -0.6856518037023518
vn -0.9612305406819451 0.0017700790641318874 -0.275740302604465
vn -0.9058010134352554 0.010559489196694864 -0.42357174273972653
vn -0.5744387409779925 -0.01794545694479411 -0.8183508376232419
vn -0.7278298399935795 0.012055210269100114 -0.6856518037023518
vn -0.9991441647126793 -0.040194031969758896 0.009766161713603344
vn -0.9058010134352554 0.010559489196694864 -0.42357174273972653
vn -0.9612305406819451 0.0017700790641318874 -0.275740302604465
vn -0.9991441647126793 -0.040194031969758896 0.009766161713603344
vn -0.9612305406819451 0.0017700790641318874 -0.275740302604465
vn -0.978774356334318 -0.015076328808852287 0.20438557603703011
vn -0.9263143295499425 0.017151707331680068 0.3763609727456462
vn -0.9991441647126793 -0.040194031969758896 0.009766161713603344
vn -0.978774356334318 -0.015076328808852287 0.20438557603703011
vn -0.9263143295499425 0.017151707331680068 0.3763609727456462
vn -0.978774356334318 -0.015076328808852287 0.20438557603703011
vn -0.8397259545789878 0.026764979055537107 0.5423504006659944
vn -0.6775547307725059 -0.0057985769010484 0.7354494974596962
vn -0.9263143295499425 0.017151707331680068 0.3763609727456462
vn -0.8397259545789878 0.026764979055537107 0.5423504006659944
vn -0.6775547307725059 -0.0057985769010484 0.7354494974596962
vn -0.8397259545789878 0.026764979055537107 0.5423504006659944
vn -0.5380855694309153 0.0037843581951705644 0.842881722783961
vn -0.2841296731824694 0.003997920461966777 0.9587775265666186
vn -0.6775547307725059 -0.0057985769010484 0.7354494974596962
vn -0.5380855694309153 0.0037843581951705644 0.842881722783961
vn -0.2841296731824694 0.003997920461966777 0.9587775265666186
vn -0.5380855694309153 0.0037843581951705644 0.842881722783961
vn -0.15546298310258325 -0.003906368814793809 0.9878339947417929
vn 0.12463938103071592 0.0005493409548190927 0.9922019567209064
vn -0.2841296731824694 0.003997920461966777 0.9587775265666186
vn -0.15546298310258325 -0.003906368814793809 0.9878339947417929
vn -0.13129238630161272 0.007416068489203373 -0.9913159492449375
vn 0.16251369844539587 0.04379474991084755 -0.9857338980160139
vn -0.2720440002826294 0.01071201999177798 -0.9622251890996829
vn -0.5868228839530679 0.004150569090398085 -0.8097046842184069
vn -0.13129238630161272 0.007416068489203373 -0.9913159492449375
vn -0.5641493187177491 0.007507740501205338 -0.8256386497874637
vn -0.13129238630161272 0.007416068489203373 -0.9913159492449375
vn -0.2720440002826294 0.01071201999177798 -0.9622251890996829
vn -0.5641493187177491 0.007507740501205338 -0.8256386497874637
vn -0.5868228839530679 0.004150569090398085 -0.8097046842184069
vn -0.5641493187177491 0.007507740501205338 -0.8256386497874637
vn -0.8815392151549479 -0.003570674876372152 -0.47209730186151855
vn -0.896151912607 0.002136289869922547 -0.4437422515339364
vn -0.5868228839530679 0.004150569090398085 -0.8097046842184069
vn -0.8815392151549479 -0.003570674876372152 -0.47209730186151855
vn -0.896151912607 0.002136289869922547 -0.4437422515339364
vn -0.8815392151549479 -0.003570674876372152 -0.47209730186151855
vn -0.9990275777305889 -0.003906368851197462 -0.04391627507144055
vn -0.998139769442979 0.006866632759869598 -0.06057928697878269
vn -0.896151912607 0.002136289869922547 -0.4437422515339364
vn -0.9990275777305889 -0.003906368851197462 -0.04391627507144055
vn -0.9450908096053672 0.0066837066250449466 0.32673948286857213
vn -0.998139769442979 0.006866632759869598 -0.06057928697878269
vn -0.9990275777305889 -0.003906368851197462 -0.04391627507144055
vn -0.9450908096053672 0.0066837066250449466 0.32673948286857213
vn -0.9990275777305889 -0.003906368851197462 -0.04391627507144055
vn -0.923830399184773 0.0022278418986531956 0.3827955462940727
vn -0.6864574610184014 0.0008545239761777811 0.7271694603054668
vn -0.9450908096053672 0.0066837066250449466 0.32673948286857213
vn -0.923830399184773 0.0022278418986531956 0.3827955462940727
vn -0.6864574610184014 0.0008545239761777811 0.7271694603054668
vn -0.923830399184773 0.0022278418986531956 0.3827955462940727
vn -0.708521584570089 -0.019898170044522653 0.7054085532704928
vn -0.6864574610184014 0.0008545239761777811 0.7271694603054668
vn -0.708521584570089 -0.019898170044522653 0.7054085532704928
vn -0.3890922158335952 -0.0005798690386188179 0.9211986275117875
vn -0.299457304120945 0.004211664094215828 0.9541004060863685
vn -0.6864574610184014 0.0008545239761777811 0.7271694603054668
vn -0.3890922158335952 -0.0005798690386188179 0.9211986275117875
vn -0.299457304120945 0.004211664094215828 0.9541004060863685
vn -0.3890922158335952 -0.0005798690386188179 0.9211986275117875
vn 0.045106407872510045 0.006073175546976529 0.9989637273232769
vn 0.09711156582867905 0.009735522588614666 0.9952258856069957
vn -0.299457304120945 0.004211664094215828 0.9541004060863685
vn 0.045106407872510045 0.006073175546976529 0.9989637273232769
f 1//1 2//2 3//3
f 4//4 5//5 6//6
f 7//7 8//8 9//9
f 10//10 11//11 12//12
f 13//13 14//14 15//15
f 16//16 17//17 18//18
f 19//19 20//20 21//21
f 22//22 23//23 24//24
f 25//25 26//26 27//27
f 28//28 29//29 30//30
f 31//31 32//32 33//33
f 34//34 35//35 36//36
f 37//37 38//38 39//39
f 40//40 41//41 42//42
f 43//43 44//44 45//45
f 46//46 47//47 48//48
f 49//49 50//50 51//51
f 52//52 53//53 54//54
f 55//55 56//56 57//57
f 58//58 59//59 60//60
f 61//61 62//62 63//63
f 64//64 65//65 66//66
f 67//67 68//68 69//69
f 70//70 71//71 72//72
f 73//73 74//74 75//75
f 76//76 77//77 78//78
f 79//79 80//80 81//81
f 82//82 83//83 84//84
f 85//85 86//86 87//87
f 88//88 89//89 90//90
f 91//91 92//92 93//93
f 94//94 95//95 96//96
f 97//97 98//98 99//99
f 100//100 101//101 102//102
f 103//103 104//104 105//105
f 106//106 107//107 108//108
f 109//109 110//110 111//111
f 112//112 113//113 114//114
f 115//115 116//116 117//117
f 118//118 119//119 120//120
f 121//121 122//122 123//123
f 124//124 125//125 126//126
f 127//127 128//128 129//129
f 130//130 131//131 132//132
f 133//133 134//134 135//135
f 136//136 137//137 138//138
f 139//139 140//140 141//141
f 142//142 143//143 144//144
f 145//145 146//146 147//147
f 148//148 149//149 150//150
f 151//151 152//152 153//153
f 154//154 155//155 156//156
f 157//157 158//158 159//159
f 160//160 161//161 162//162
f 163//163 164//164 165//165
f 166//166 167//167 168//168
f 169//169 170//170 171//171
f 172//172 173//173 174//174
f 175//175 176//176 177//177
f 178//178 179//179 180//180
f 181//181 182//182 183//183
f 184//184 185//185 186//186
f 187//187 188//188 189//189
f 190//190 191//191 192//192
f 193//193 194//194 195//195
f 196//196 197//197 198//198
f 199//199 200//200 201//201
f 202//202 203//203 204//204
f 205//205 206//206 207//207
f 208//208 209//209 210//210
f 211//211 212//212 213//213
f 214//214 215//215 216//216
f 217//217 218//218 219//219
f 220//220 221//221 222//222
f 223//223 224//224 225//225
f 226//226 227//227 228//228
f 229//229 230//230 231//231
f 232//232 233//233 234//234
f 235//235 236//236 237//237
f 238//238 239//239 240//240
f 241//241 242//242 243//243
f 244//244 245//245 246//246
f 247//247 248//248 249//249
f 250//250 251//251 252//252
f 253//253 254//254 255//255
f 256//256 257//257 258//258
f 259//259 260//260 261//261
f 262//262 263//263 264//264
f 265//265 266//266 267//267
f 268//268 269//269 270//270
f 271//271 272//272 273//273
f 274//274 275//275 276//276
f 277//277 278//278 279//279
f 280//280 281//281 282//282
f 283//283 284//284 285//285
f 286//286 287//287 288//288
f 289//289 290//290 291//291
f 292//292 293//293 294//294
f 295//295 296//296 297//297
f 298//298 299//299 300//300
f 301//301 302//302 303//303
f 304//304 305//305 306//306
f 307//307 308//308 309//309
f 310//310 311//311 312//312
f 313//313 314//314 315//315
f 316//316 317//317 318//318
f 319//319 320//320 321//321
f 322//322 323//323 324//324
f 325//325 326//326 327//327
f 328//328 329//329 330//330
