o node1
usemtl verbindung
v 0.007414102088660002 -0.03065221942961216 0.0423504114151001
v -0.004310131072998047 -0.031375110149383545 0.0423501692712307
v 0.0008627030183561146 -0.03159844130277634 0.04815018177032471
v 0.007414102088660002 -0.03065221942961216 0.0423504114151001
v 0.0008627030183561146 -0.03159844130277634 0.04815018177032471
v 0.011192729696631432 -0.0294000506401062 0.048149820417165756
v 0.01824020966887474 -0.02546541951596737 0.04235028848052025
v 0.007414102088660002 -0.03065221942961216 0.0423504114151001
v 0.011192729696631432 -0.0294000506401062 0.048149820417165756
v 0.01824020966887474 -0.02546541951596737 0.04235028848052025
v 0.011192729696631432 -0.0294000506401062 0.048149820417165756
v 0.01990615949034691 -0.02391647920012474 0.04815042018890381
v 0.02685355953872204 -0.014778129756450653 0.04235022887587547
v 0.01824020966887474 -0.02546541951596737 0.04235028848052025
v 0.01990615949034691 -0.02391647920012474 0.04815042018890381
v 0.02685355953872204 -0.014778129756450653 0.04235022887587547
v 0.01990615949034691 -0.02391647920012474 0.04815042018890381
v 0.027500679716467857 -0.013507779687643051 0.04815046861767769
v 0.029818769544363022 0.0003745559952221811 0.0423501692712307
v 0.02685355953872204 -0.014778129756450653 0.04235022887587547
v 0.027500679716467857 -0.013507779687643051 0.04815046861767769
v 0.029818769544363022 0.0003745559952221811 0.0423501692712307
v 0.027500679716467857 -0.013507779687643051 0.04815046861767769
v 0.029621420428156853 0.000919416022952646 0.04815018177032471
v 0.029818769544363022 0.0003745559952221811 0.0423501692712307
v 0.029621420428156853 0.000919416022952646 0.04815018177032471
v 0.024036940187215805 0.01594417914748192 0.04815011844038963
v 0.024828549474477768 0.014379439875483513 0.04234987124800682
v 0.029818769544363022 0.0003745559952221811 0.0423501692712307
v 0.024036940187215805 0.01594417914748192 0.04815011844038963
v 0.016784189268946648 0.02248423919081688 0.0423504114151001
v 0.024828549474477768 0.014379439875483513 0.04234987124800682
v 0.024036940187215805 0.01594417914748192 0.04815011844038963
v 0.016784189268946648 0.02248423919081688 0.0423504114151001
v 0.024036940187215805 0.01594417914748192 0.04815011844038963
v 0.013514329679310322 0.024382049217820168 0.048149820417165756
v 0.0065825581550598145 0.02700871042907238 0.04235005006194115
v 0.016784189268946648 0.02248423919081688 0.0423504114151001
v 0.013514329679310322 0.024382049217820168 0.048149820417165756
v 0.0065825581550598145 0.02700871042907238 0.04235005006194115
v 0.013514329679310322 0.024382049217820168 0.048149820417165756
v 0.0028696060180664062 0.02767097018659115 0.04815005883574486
v -0.004560648929327726 0.027340589091181755 0.0423501692712307
v 0.0065825581550598145 0.02700871042907238 0.04235005006194115
v 0.0028696060180664062 0.02767097018659115 0.04815005883574486
v -0.005030632019042969 0.029244059696793556 0.04815018177032471
v 0.0064750309102237225 0.029140710830688477 0.04815005883574486
v -0.001162349944934249 0.02967113070189953 0.04235010966658592
v -0.005030632019042969 0.029244059696793556 0.04815018177032471
v -0.001162349944934249 0.02967113070189953 0.04235010966658592
v -0.012388460338115692 0.027224479243159294 0.04234914854168892
v -0.015889160335063934 0.025547320023179054 0.04814976081252098
v -0.005030632019042969 0.029244059696793556 0.04815018177032471
v -0.012388460338115692 0.027224479243159294 0.04234914854168892
v -0.015889160335063934 0.025547320023179054 0.04814976081252098
v -0.012388460338115692 0.027224479243159294 0.04234914854168892
v -0.024564379826188087 0.01841180957853794 0.04235010966658592
v -0.025116439908742905 0.01729648932814598 0.048149701207876205
v -0.015889160335063934 0.025547320023179054 0.04814976081252098
v -0.024564379826188087 0.01841180957853794 0.04235010966658592
v -0.03149038180708885 0.0036972160451114178 0.04815011844038963
v -0.025116439908742905 0.01729648932814598 0.048149701207876205
v -0.024564379826188087 0.01841180957853794 0.04235010966658592
v -0.03149038180708885 0.0036972160451114178 0.04815011844038963
v -0.024564379826188087 0.01841180957853794 0.04235010966658592
v -0.031202489510178566 0.003965318202972412 0.04234999045729637
v -0.03149038180708885 0.0036972160451114178 0.04815011844038963
v -0.031202489510178566 0.003965318202972412 0.04234999045729637
v -0.03083801083266735 -0.009277342818677425 0.04235010966658592
v -0.029514670372009277 -0.013863679952919483 0.04814999923110008
v -0.03149038180708885 0.0036972160451114178 0.04815011844038963
v -0.03083801083266735 -0.009277342818677425 0.04235010966658592
v -0.029514670372009277 -0.013863679952919483 0.04814999923110008
v -0.03083801083266735 -0.009277342818677425 0.04235010966658592
v -0.02520274929702282 -0.021274259313941002 0.042349930852651596
v -0.018751440569758415 -0.02787178009748459 0.04815042018890381
v -0.029514670372009277 -0.013863679952919483 0.04814999923110008
v -0.02520274929702282 -0.021274259313941002 0.042349930852651596
v -0.018751440569758415 -0.02787178009748459 0.04815042018890381
v -0.02520274929702282 -0.021274259313941002 0.042349930852651596
v -0.01276587974280119 -0.031191639602184296 0.042349930852651596
v -0.0038281080778688192 -0.03341490030288696 0.04815018177032471
v -0.018751440569758415 -0.02787178009748459 0.04815042018890381
v -0.01276587974280119 -0.031191639602184296 0.042349930852651596
v -0.0038281080778688192 -0.03341490030288696 0.04815018177032471
v -0.01276587974280119 -0.031191639602184296 0.042349930852651596
v 0.0011624690378084779 -0.03357195109128952 0.04235005006194115
v -0.01276587974280119 -0.031191639602184296 0.042349930852651596
v -0.004310131072998047 -0.031375110149383545 0.0423501692712307
v 0.0011624690378084779 -0.03357195109128952 0.04235005006194115
v -0.03083801083266735 -0.009277342818677425 0.04235010966658592
v -0.029669759795069695 0.00036713501322083175 0.04234999045729637
v -0.028054049238562584 -0.011528070084750652 0.0423501692712307
v 0.024828549474477768 0.014379439875483513 0.04234987124800682
v 0.014464669860899448 0.026691550388932228 0.04234999045729637
v 0.026156120002269745 0.015857569873332977 0.04235165938735008
v 0.016784189268946648 0.02248423919081688 0.0423504114151001
v 0.014464669860899448 0.026691550388932228 0.04234999045729637
v 0.024828549474477768 0.014379439875483513 0.04234987124800682
v -0.01276587974280119 -0.031191639602184296 0.042349930852651596
v -0.01978939026594162 -0.02461891993880272 0.0423504114151001
v -0.004310131072998047 -0.031375110149383545 0.0423501692712307
v -0.02520274929702282 -0.021274259313941002 0.042349930852651596
v -0.03083801083266735 -0.009277342818677425 0.04235010966658592
v -0.028054049238562584 -0.011528070084750652 0.0423501692712307
v 0.0065825581550598145 0.02700871042907238 0.04235005006194115
v 0.014464669860899448 0.026691550388932228 0.04234999045729637
v 0.016784189268946648 0.02248423919081688 0.0423504114151001
v 0.024828549474477768 0.014379439875483513 0.04234987124800682
v 0.026156120002269745 0.015857569873332977 0.04235165938735008
v 0.03132890909910202 0.0036651489790529013 0.04235005006194115
v -0.02520274929702282 -0.021274259313941002 0.042349930852651596
v -0.028054049238562584 -0.011528070084750652 0.0423501692712307
v -0.01978939026594162 -0.02461891993880272 0.0423504114151001
v 0.029818769544363022 0.0003745559952221811 0.0423501692712307
v 0.024828549474477768 0.014379439875483513 0.04234987124800682
v 0.03132890909910202 0.0036651489790529013 0.04235005006194115
v -0.02520274929702282 -0.021274259313941002 0.042349930852651596
v -0.01978939026594162 -0.02461891993880272 0.0423504114151001
v -0.01276587974280119 -0.031191639602184296 0.042349930852651596
v 0.0065825581550598145 0.02700871042907238 0.04235005006194115
v -0.001162349944934249 0.02967113070189953 0.04235010966658592
v 0.014464669860899448 0.026691550388932228 0.04234999045729637
v -0.004560648929327726 0.027340589091181755 0.0423501692712307
v -0.001162349944934249 0.02967113070189953 0.04235010966658592
v 0.0065825581550598145 0.02700871042907238 0.04235005006194115
v 0.029818769544363022 0.0003745559952221811 0.0423501692712307
v 0.03132890909910202 0.0036651489790529013 0.04235005006194115
v 0.03034389019012451 -0.011322489939630032 0.04235010966658592
v -0.012388460338115692 0.027224479243159294 0.04234914854168892
v -0.001162349944934249 0.02967113070189953 0.04235010966658592
v -0.004560648929327726 0.027340589091181755 0.0423501692712307
v 0.02685355953872204 -0.014778129756450653 0.04235022887587547
v 0.029818769544363022 0.0003745559952221811 0.0423501692712307
v 0.03034389019012451 -0.011322489939630032 0.04235010966658592
v -0.014303799718618393 0.024014469236135483 0.0423501692712307
v -0.012388460338115692 0.027224479243159294 0.04234914854168892
v -0.004560648929327726 0.027340589091181755 0.0423501692712307
v 0.024352839216589928 -0.022154860198497772 0.04234914854168892
v 0.02685355953872204 -0.014778129756450653 0.04235022887587547
v 0.03034389019012451 -0.011322489939630032 0.04235010966658592
v -0.024564379826188087 0.01841180957853794 0.04235010966658592
v -0.012388460338115692 0.027224479243159294 0.04234914854168892
v -0.014303799718618393 0.024014469236135483 0.0423501692712307
v -0.024661239236593246 0.014972439967095852 0.0423504114151001
v -0.024564379826188087 0.01841180957853794 0.04235010966658592
v -0.014303799718618393 0.024014469236135483 0.0423501692712307
v 0.01824020966887474 -0.02546541951596737 0.04235028848052025
v 0.02685355953872204 -0.014778129756450653 0.04235022887587547
v 0.024352839216589928 -0.022154860198497772 0.04234914854168892
v 0.014069080352783203 -0.030500469729304314 0.042350590229034424
v 0.01824020966887474 -0.02546541951596737 0.04235028848052025
v 0.024352839216589928 -0.022154860198497772 0.04234914854168892
v 0.007414102088660002 -0.03065221942961216 0.0423504114151001
v 0.01824020966887474 -0.02546541951596737 0.04235028848052025
v 0.014069080352783203 -0.030500469729304314 0.042350590229034424
v -0.031202489510178566 0.003965318202972412 0.04234999045729637
v -0.024564379826188087 0.01841180957853794 0.04235010966658592
v -0.024661239236593246 0.014972439967095852 0.0423504114151001
v -0.029669759795069695 0.00036713501322083175 0.04234999045729637
v -0.031202489510178566 0.003965318202972412 0.04234999045729637
v -0.024661239236593246 0.014972439967095852 0.0423504114151001
v 0.0011624690378084779 -0.03357195109128952 0.04235005006194115
v 0.007414102088660002 -0.03065221942961216 0.0423504114151001
v 0.014069080352783203 -0.030500469729304314 0.042350590229034424
v 0.0011624690378084779 -0.03357195109128952 0.04235005006194115
v -0.004310131072998047 -0.031375110149383545 0.0423501692712307
v 0.007414102088660002 -0.03065221942961216 0.0423504114151001
v -0.03083801083266735 -0.009277342818677425 0.04235010966658592
v -0.031202489510178566 0.003965318202972412 0.04234999045729637
v -0.029669759795069695 0.00036713501322083175 0.04234999045729637
v -0.0038281080778688192 -0.03341490030288696 0.04815018177032471
v -0.009577988646924496 -0.030004439875483513 0.048149820417165756
v -0.018751440569758415 -0.02787178009748459 0.04815042018890381
v 0.024036940187215805 0.01594417914748192 0.04815011844038963
v 0.022021649405360222 0.02134281024336815 0.04815005883574486
v 0.013514329679310322 0.024382049217820168 0.048149820417165756
v 0.03132050856947899 0.00427961302921176 0.04815005883574486
v 0.022021649405360222 0.02134281024336815 0.04815005883574486
v 0.024036940187215805 0.01594417914748192 0.04815011844038963
v -0.009577988646924496 -0.030004439875483513 0.048149820417165756
v -0.019077710807323456 -0.024685800075531006 0.048151008784770966
v -0.018751440569758415 -0.02787178009748459 0.04815042018890381
v 0.022021649405360222 0.02134281024336815 0.04815005883574486
v 0.0064750309102237225 0.029140710830688477 0.04815005883574486
v 0.013514329679310322 0.024382049217820168 0.048149820417165756
v -0.027822010219097137 -0.013003280386328697 0.04815005883574486
v -0.029514670372009277 -0.013863679952919483 0.04814999923110008
v -0.018751440569758415 -0.02787178009748459 0.04815042018890381
v -0.019077710807323456 -0.024685800075531006 0.048151008784770966
v -0.027822010219097137 -0.013003280386328697 0.04815005883574486
v -0.018751440569758415 -0.02787178009748459 0.04815042018890381
v 0.03132050856947899 0.00427961302921176 0.04815005883574486
v 0.024036940187215805 0.01594417914748192 0.04815011844038963
v 0.029621420428156853 0.000919416022952646 0.04815018177032471
v 0.013514329679310322 0.024382049217820168 0.048149820417165756
v 0.0064750309102237225 0.029140710830688477 0.04815005883574486
v 0.0028696060180664062 0.02767097018659115 0.04815005883574486
v 0.0064750309102237225 0.029140710830688477 0.04815005883574486
v -0.005030632019042969 0.029244059696793556 0.04815018177032471
v 0.0028696060180664062 0.02767097018659115 0.04815005883574486
v 0.02944408915936947 -0.014463660307228565 0.04815005883574486
v 0.03132050856947899 0.00427961302921176 0.04815005883574486
v 0.029621420428156853 0.000919416022952646 0.04815018177032471
v 0.02944408915936947 -0.014463660307228565 0.04815005883574486
v 0.029621420428156853 0.000919416022952646 0.04815018177032471
v 0.027500679716467857 -0.013507779687643051 0.04815046861767769
v 0.0028696060180664062 0.02767097018659115 0.04815005883574486
v -0.005030632019042969 0.029244059696793556 0.04815018177032471
v -0.010729840025305748 0.025808149948716164 0.04815024137496948
v -0.010729840025305748 0.025808149948716164 0.04815024137496948
v -0.005030632019042969 0.029244059696793556 0.04815018177032471
v -0.015889160335063934 0.025547320023179054 0.04814976081252098
v -0.010729840025305748 0.025808149948716164 0.04815024137496948
v -0.015889160335063934 0.025547320023179054 0.04814976081252098
v -0.02077198028564453 0.0191988293081522 0.04814910143613815
v 0.02944408915936947 -0.014463660307228565 0.04815005883574486
v 0.027500679716467857 -0.013507779687643051 0.04815046861767769
v 0.01990615949034691 -0.02391647920012474 0.04815042018890381
v 0.02944408915936947 -0.014463660307228565 0.04815005883574486
v 0.01990615949034691 -0.02391647920012474 0.04815042018890381
v 0.018182089552283287 -0.028074020519852638 0.04814964160323143
v -0.02077198028564453 0.0191988293081522 0.04814910143613815
v -0.015889160335063934 0.025547320023179054 0.04814976081252098
v -0.025116439908742905 0.01729648932814598 0.048149701207876205
v -0.02077198028564453 0.0191988293081522 0.04814910143613815
v -0.025116439908742905 0.01729648932814598 0.048149701207876205
v -0.02899032086133957 0.006114363204687834 0.04814999923110008
v 0.018182089552283287 -0.028074020519852638 0.04814964160323143
v 0.01990615949034691 -0.02391647920012474 0.04815042018890381
v 0.011192729696631432 -0.0294000506401062 0.048149820417165756
v -0.02899032086133957 0.006114363204687834 0.04814999923110008
v -0.025116439908742905 0.01729648932814598 0.048149701207876205
v -0.03149038180708885 0.0036972160451114178 0.04815011844038963
v 0.018182089552283287 -0.028074020519852638 0.04814964160323143
v 0.011192729696631432 -0.0294000506401062 0.048149820417165756
v 0.006771087180823088 -0.0328138992190361 0.048149701207876205
v 0.006771087180823088 -0.0328138992190361 0.048149701207876205
v 0.011192729696631432 -0.0294000506401062 0.048149820417165756
v 0.0008627030183561146 -0.03159844130277634 0.04815018177032471
v 0.006771087180823088 -0.0328138992190361 0.048149701207876205
v 0.0008627030183561146 -0.03159844130277634 0.04815018177032471
v -0.0038281080778688192 -0.03341490030288696 0.04815018177032471
v -0.027822010219097137 -0.013003280386328697 0.04815005883574486
v -0.02899032086133957 0.006114363204687834 0.04814999923110008
v -0.03149038180708885 0.0036972160451114178 0.04815011844038963
v 0.0008627030183561146 -0.03159844130277634 0.04815018177032471
v -0.009577988646924496 -0.030004439875483513 0.048149820417165756
v -0.0038281080778688192 -0.03341490030288696 0.04815018177032471
v -0.027822010219097137 -0.013003280386328697 0.04815005883574486
v -0.03149038180708885 0.0036972160451114178 0.04815011844038963
v -0.029514670372009277 -0.013863679952919483 0.04814999923110008
v 0.006771087180823088 -0.0328138992190361 0.048149701207876205
v -0.0038281080778688192 -0.03341490030288696 0.04815018177032471
v 0.0011624690378084779 -0.03357195109128952 0.04235005006194115
v 0.006771087180823088 -0.0328138992190361 0.048149701207876205
v 0.0011624690378084779 -0.03357195109128952 0.04235005006194115
v 0.014069080352783203 -0.030500469729304314 0.042350590229034424
v 0.018182089552283287 -0.028074020519852638 0.04814964160323143
v 0.006771087180823088 -0.0328138992190361 0.048149701207876205
v 0.014069080352783203 -0.030500469729304314 0.042350590229034424
v 0.018182089552283287 -0.028074020519852638 0.04814964160323143
v 0.014069080352783203 -0.030500469729304314 0.042350590229034424
v 0.024352839216589928 -0.022154860198497772 0.04234914854168892
v 0.02944408915936947 -0.014463660307228565 0.04815005883574486
v 0.018182089552283287 -0.028074020519852638 0.04814964160323143
v 0.024352839216589928 -0.022154860198497772 0.04234914854168892
v 0.02944408915936947 -0.014463660307228565 0.04815005883574486
v 0.024352839216589928 -0.022154860198497772 0.04234914854168892
v 0.03034389019012451 -0.011322489939630032 0.04235010966658592
v 0.03132050856947899 0.00427961302921176 0.04815005883574486
v 0.02944408915936947 -0.014463660307228565 0.04815005883574486
v 0.03034389019012451 -0.011322489939630032 0.04235010966658592
v 0.03132050856947899 0.00427961302921176 0.04815005883574486
v 0.03034389019012451 -0.011322489939630032 0.04235010966658592
v 0.03132890909910202 0.0036651489790529013 0.04235005006194115
v 0.03132050856947899 0.00427961302921176 0.04815005883574486
v 0.03132890909910202 0.0036651489790529013 0.04235005006194115
v 0.026156120002269745 0.015857569873332977 0.04235165938735008
v 0.022021649405360222 0.02134281024336815 0.04815005883574486
v 0.03132050856947899 0.00427961302921176 0.04815005883574486
v 0.026156120002269745 0.015857569873332977 0.04235165938735008
v 0.022021649405360222 0.02134281024336815 0.04815005883574486
v 0.026156120002269745 0.015857569873332977 0.04235165938735008
v 0.014464669860899448 0.026691550388932228 0.04234999045729637
v 0.0064750309102237225 0.029140710830688477 0.04815005883574486
v 0.022021649405360222 0.02134281024336815 0.04815005883574486
v 0.014464669860899448 0.026691550388932228 0.04234999045729637
v 0.0064750309102237225 0.029140710830688477 0.04815005883574486
v 0.014464669860899448 0.026691550388932228 0.04234999045729637
v -0.001162349944934249 0.02967113070189953 0.04235010966658592
v -0.004560648929327726 0.027340589091181755 0.0423501692712307
v 0.0028696060180664062 0.02767097018659115 0.04815005883574486
v -0.010729840025305748 0.025808149948716164 0.04815024137496948
v -0.014303799718618393 0.024014469236135483 0.0423501692712307
v -0.004560648929327726 0.027340589091181755 0.0423501692712307
v -0.010729840025305748 0.025808149948716164 0.04815024137496948
v -0.014303799718618393 0.024014469236135483 0.0423501692712307
v -0.010729840025305748 0.025808149948716164 0.04815024137496948
v -0.02077198028564453 0.0191988293081522 0.04814910143613815
v -0.024661239236593246 0.014972439967095852 0.0423504114151001
v -0.014303799718618393 0.024014469236135483 0.0423501692712307
v -0.02077198028564453 0.0191988293081522 0.04814910143613815
v -0.024661239236593246 0.014972439967095852 0.0423504114151001
v -0.02077198028564453 0.0191988293081522 0.04814910143613815
v -0.02899032086133957 0.006114363204687834 0.04814999923110008
v -0.029669759795069695 0.00036713501322083175 0.04234999045729637
v -0.024661239236593246 0.014972439967095852 0.0423504114151001
v -0.02899032086133957 0.006114363204687834 0.04814999923110008
v -0.029669759795069695 0.00036713501322083175 0.04234999045729637
v -0.02899032086133957 0.006114363204687834 0.04814999923110008
v -0.027822010219097137 -0.013003280386328697 0.04815005883574486
v -0.028054049238562584 -0.011528070084750652 0.0423501692712307
v -0.029669759795069695 0.00036713501322083175 0.04234999045729637
v -0.027822010219097137 -0.013003280386328697 0.04815005883574486
v -0.01978939026594162 -0.02461891993880272 0.0423504114151001
v -0.028054049238562584 -0.011528070084750652 0.0423501692712307
v -0.027822010219097137 -0.013003280386328697 0.04815005883574486
v -0.01978939026594162 -0.02461891993880272 0.0423504114151001
v -0.027822010219097137 -0.013003280386328697 0.04815005883574486
v -0.019077710807323456 -0.024685800075531006 0.048151008784770966
v -0.01978939026594162 -0.02461891993880272 0.0423504114151001
v -0.019077710807323456 -0.024685800075531006 0.048151008784770966
v -0.009577988646924496 -0.030004439875483513 0.048149820417165756
v -0.004310131072998047 -0.031375110149383545 0.0423501692712307
v -0.01978939026594162 -0.02461891993880272 0.0423504114151001
v -0.009577988646924496 -0.030004439875483513 0.048149820417165756
v -0.004310131072998047 -0.031375110149383545 0.0423501692712307
v -0.009577988646924496 -0.030004439875483513 0.048149820417165756
v 0.0008627030183561146 -0.03159844130277634 0.04815018177032471
vn -0.24638152180852133 0.969076039702143 0.013703101347059583
vn 0.1612912968649696 0.986730667941742 0.018646889790525714
vn -0.03830163868174318 0.9992608873482022 0.003265500019460912
vn -0.24638152180852133 0.969076039702143 0.013703101347059583
vn -0.03830163868174318 0.9992608873482022 0.003265500019460912
vn -0.3860107413896126 0.9224826220862888 0.004638909424298136
vn -0.6171488770031396 0.7868022929065512 0.008331595931001296
vn -0.24638152180852133 0.969076039702143 0.013703101347059583
vn -0.3860107413896126 0.9224826220862888 0.004638909424298136
vn -0.6171488770031396 0.7868022929065512 0.008331595931001296
vn -0.3860107413896126 0.9224826220862888 0.004638909424298136
vn -0.6985511866038896 0.7155197351112911 -0.007599234209164053
vn -0.8992763043946892 0.4368810894523431 0.020905550295649018
vn -0.6171488770031396 0.7868022929065512 0.008331595931001296
vn -0.6985511866038896 0.7155197351112911 -0.007599234209164053
vn -0.8992763043946892 0.4368810894523431 0.020905550295649018
vn -0.6985511866038896 0.7155197351112911 -0.007599234209164053
vn -0.9312920111990688 0.36418507041443593 0.008026478930745928
vn -0.996497182346579 -0.08227842533234048 -0.014954139900354246
vn -0.8992763043946892 0.4368810894523431 0.020905550295649018
vn -0.9312920111990688 0.36418507041443593 0.008026478930745928
vn -0.996497182346579 -0.08227842533234048 -0.014954139900354246
vn -0.9312920111990688 0.36418507041443593 0.008026478930745928
vn -0.9925224515125974 -0.11997189796414799 -0.022492819794405837
vn -0.996497182346579 -0.08227842533234048 -0.014954139900354246
vn -0.9925224515125974 -0.11997189796414799 -0.022492819794405837
vn -0.8119948625852019 -0.5835582699824008 0.011139509432038949
vn -0.8670901485776505 -0.4978954694191357 0.015961697011479474
vn -0.996497182346579 -0.08227842533234048 -0.014954139900354246
vn -0.8119948625852019 -0.5835582699824008 0.011139509432038949
vn -0.5755309566811706 -0.8177007584888717 -0.011383649168011049
vn -0.8670901485776505 -0.4978954694191357 0.015961697011479474
vn -0.8119948625852019 -0.5835582699824008 0.011139509432038949
vn -0.5755309566811706 -0.8177007584888717 -0.011383649168011049
vn -0.8119948625852019 -0.5835582699824008 0.011139509432038949
vn -0.45668540751286335 -0.8895051145540427 -0.01480168054678372
vn -0.23673608646544506 -0.971542824870276 0.0077823395010531505
vn -0.5755309566811706 -0.8177007584888717 -0.011383649168011049
vn -0.45668540751286335 -0.8895051145540427 -0.01480168054678372
vn -0.23673608646544506 -0.971542824870276 0.0077823395010531505
vn -0.45668540751286335 -0.8895051145540427 -0.01480168054678372
vn -0.08026545351054484 -0.9967568338230822 -0.005768119254230113
vn 0.14603318471491006 -0.9890281095729301 -0.02230935760207365
vn -0.23673608646544506 -0.971542824870276 0.0077823395010531505
vn -0.08026545351054484 -0.9967568338230822 -0.005768119254230113
vn -0.16745658345288844 0.98584849386656 0.00781279715088722
vn 0.20334829326405982 0.9786542027361566 -0.029756059776994734
vn -0.02377413819735915 0.9995820126771443 -0.016449628727791054
vn -0.16745658345288844 0.98584849386656 0.00781279715088722
vn -0.02377413819735915 0.9995820126771443 -0.016449628727791054
vn -0.3874709780798308 0.9217693512144195 -0.014405009809344404
vn -0.5213010760287811 0.852954900073159 -0.026704429827696937
vn -0.16745658345288844 0.98584849386656 0.00781279715088722
vn -0.3874709780798308 0.9217693512144195 -0.014405009809344404
vn -0.5213010760287811 0.852954900073159 -0.026704429827696937
vn -0.3874709780798308 0.9217693512144195 -0.014405009809344404
vn -0.7769461072715815 0.6294795707581933 0.01049839957407404
vn -0.8174388241749616 0.5750820519324361 0.032778076158236816
vn -0.5213010760287811 0.852954900073159 -0.026704429827696937
vn -0.7769461072715815 0.6294795707581933 0.01049839957407404
vn -0.9832025241402267 0.1821682913359359 -0.01129203949836093
vn -0.8174388241749616 0.5750820519324361 0.032778076158236816
vn -0.7769461072715815 0.6294795707581933 0.01049839957407404
vn -0.9832025241402267 0.1821682913359359 -0.01129203949836093
vn -0.7769461072715815 0.6294795707581933 0.01049839957407404
vn -0.9773714946529066 0.2079259861412705 -0.03888117445658317
vn -0.9832025241402267 0.1821682913359359 -0.01129203949836093
vn -0.9773714946529066 0.2079259861412705 -0.03888117445658317
vn -0.9807410322174346 -0.1917838917316652 0.036958985339669875
vn -0.9256824920175244 -0.37822625323504966 0.00753825815436906
vn -0.9832025241402267 0.1821682913359359 -0.01129203949836093
vn -0.9807410322174346 -0.1917838917316652 0.036958985339669875
vn -0.9256824920175244 -0.37822625323504966 0.00753825815436906
vn -0.9807410322174346 -0.1917838917316652 0.036958985339669875
vn -0.7901525552915328 -0.6101783556865145 0.05780409689600335
vn -0.6007465772055086 -0.798391229848426 -0.04092669149813353
vn -0.9256824920175244 -0.37822625323504966 0.00753825815436906
vn -0.7901525552915328 -0.6101783556865145 0.05780409689600335
vn -0.6007465772055086 -0.798391229848426 -0.04092669149813353
vn -0.7901525552915328 -0.6101783556865145 0.05780409689600335
vn -0.3833170862193043 -0.9227993562916235 0.03885047541675288
vn -0.1401429884875867 -0.9900651316183929 -0.011444559022631693
vn -0.6007465772055086 -0.798391229848426 -0.04092669149813353
vn -0.3833170862193043 -0.9227993562916235 0.03885047541675288
vn -0.1401429884875867 -0.9900651316183929 -0.011444559022631693
vn -0.3833170862193043 -0.9227993562916235 0.03885047541675288
vn 0.03967451640928587 -0.9989750295148321 -0.021790437203729005
vn 0.00003051849839151678 0.00009155549881252914 -0.999999995343106
vn 0 0.00012207399322497578 -0.9999999925489701
vn 0 0.00009155549885516555 -0.9999999958087953
vn 0 0 -1
vn 0 0 -1
vn 0.00003051849851942606 0 -0.9999999995343107
vn 0.0006714278899861099 0.00045779095472310094 -0.9999996698059606
vn 0 -0.00006103699695357926 -0.9999999981372425
vn 0.0007324659487372865 0.0005188299766879866 -0.9999995971544635
vn -0.00030519396602498536 -0.00024415595862339743 -0.9999999236222525
vn 0 -0.00006103699695357926 -0.9999999981372425
vn 0.0006714278899861099 0.00045779095472310094 -0.9999996698059606
vn 0.00003051849839151678 0.00009155549881252914 -0.999999995343106
vn 0.00030519399839568176 0.0003967529895385699 -0.9999998747218365
vn 0 0.00012207399322497578 -0.9999999925489701
vn 0.00012207399299758154 0.00006103699649879077 -0.9999999906862126
vn 0 0 -1
vn 0.00003051849851942606 0 -0.9999999995343107
vn 0 0 -1
vn 0 -0.00006103699695357926 -0.9999999981372425
vn -0.00030519396602498536 -0.00024415595862339743 -0.9999999236222525
vn 0.0006714278899861099 0.00045779095472310094 -0.9999996698059606
vn 0.0007324659487372865 0.0005188299766879866 -0.9999995971544635
vn 0 0 -1
vn 0.00012207399299758154 0.00006103699649879077 -0.9999999906862126
vn 0.00003051849851942606 0 -0.9999999995343107
vn 0.00030519399839568176 0.0003967529895385699 -0.9999998747218365
vn -0.00006103699695357926 0 -0.9999999981372425
vn 0.0006714278899861099 0.00045779095472310094 -0.9999996698059606
vn 0 0 -1
vn 0.00012207399299758154 0.00006103699649879077 -0.9999999906862126
vn 0.00030519399839568176 0.0003967529895385699 -0.9999998747218365
vn 0.00003051849839151678 0.00009155549881252914 -0.999999995343106
vn 0 0 -1
vn 0 -0.00003051849851942606 -0.9999999995343107
vn 0 -0.00006103699695357926 -0.9999999981372425
vn 0.00009155829856375299 -0.0001831169900292089 -0.9999999790426226
vn 0 -0.00003051849851942606 -0.9999999995343107
vn 0 0 -1
vn -0.00006103699695357926 0 -0.9999999981372425
vn 0 0 -1
vn -0.00006103699695357926 0 -0.9999999981372425
vn 0.00012207797953912224 -0.000366232963639061 -0.999999925485189
vn 0 -0.00003051849851942606 -0.9999999995343107
vn 0.00009155829856375299 -0.0001831169900292089 -0.9999999790426226
vn -0.00021362999241563682 0.00018311100214384084 -0.9999999604162927
vn -0.00006103699695357926 0 -0.9999999981372425
vn -0.00006103699695357926 0 -0.9999999981372425
vn 0.00021363598730529034 -0.00039675296985823116 -0.9999998984733677
vn 0.00012207797953912224 -0.000366232963639061 -0.999999925485189
vn 0.00009155829856375299 -0.0001831169900292089 -0.9999999790426226
vn -0.00027467496667350777 0.00021363598332709954 -0.9999999394566629
vn -0.00021362999241563682 0.00018311100214384084 -0.9999999604162927
vn -0.00006103699695357926 0 -0.9999999981372425
vn 0.00009155829971504874 -0.00009155829971504874 -0.9999999916170778
vn 0.00012207797953912224 -0.000366232963639061 -0.999999925485189
vn 0.00021363598730529034 -0.00039675296985823116 -0.9999998984733677
vn 0.00015259699806298904 -0.00006103890254379234 -0.9999999864942042
vn 0.00009155829971504874 -0.00009155829971504874 -0.9999999916170778
vn 0.00021363598730529034 -0.00039675296985823116 -0.9999998984733677
vn -0.00021362999692031302 0.00009155549676597089 -0.9999999729899075
vn -0.00021362999241563682 0.00018311100214384084 -0.9999999604162927
vn -0.00027467496667350777 0.00021363598332709954 -0.9999999394566629
vn 0 -0.00006103699695357926 -0.9999999981372425
vn -0.00021362999692031302 0.00009155549676597089 -0.9999999729899075
vn -0.00027467496667350777 0.00021363598332709954 -0.9999999394566629
vn 0.00003051849850521391 0.00003051849850521391 -0.9999999990686212
vn -0.00021362999692031302 0.00009155549676597089 -0.9999999729899075
vn 0 -0.00006103699695357926 -0.9999999981372425
vn 0.00003051849851942606 0 -0.9999999995343107
vn 0.00009155829971504874 -0.00009155829971504874 -0.9999999916170778
vn 0.00015259699806298904 -0.00006103890254379234 -0.9999999864942042
vn 0 0 -1
vn 0.00003051849851942606 0 -0.9999999995343107
vn 0.00015259699806298904 -0.00006103890254379234 -0.9999999864942042
vn 0 0.00009155549885516555 -0.9999999958087953
vn 0.00003051849850521391 0.00003051849850521391 -0.9999999990686212
vn 0 -0.00006103699695357926 -0.9999999981372425
vn 0 0.00009155549885516555 -0.9999999958087953
vn 0 0.00012207399322497578 -0.9999999925489701
vn 0.00003051849850521391 0.00003051849850521391 -0.9999999990686212
vn 0 0 -1
vn 0.00003051849851942606 0 -0.9999999995343107
vn 0 0 -1
vn 0 0.00006103699695357926 0.9999999981372425
vn 0.00012207399589640215 0.00027466699644596634 0.9999999548279892
vn -0.00003051849816412019 -0.00015259299649964902 0.9999999878919993
vn 0.00003051940073816896 0 0.9999999995342832
vn 0 0 1
vn -0.00006103699624296755 -0.0001525929962864662 0.9999999864949312
vn 0.00003051849851942606 0 0.9999999995343107
vn 0 0 1
vn 0.00003051940073816896 0 0.9999999995342832
vn 0.00012207399589640215 0.00027466699644596634 0.9999999548279892
vn -0.00027467496667350777 -0.00021363598332709954 0.9999999394566629
vn -0.00003051849816412019 -0.00015259299649964902 0.9999999878919993
vn 0 0 1
vn 0 -0.00003051849851942606 0.9999999995343107
vn -0.00006103699624296755 -0.0001525929962864662 0.9999999864949312
vn -0.00003051849851942606 0 0.9999999995343107
vn -0.00003051849851942606 0 0.9999999995343107
vn -0.00003051849816412019 -0.00015259299649964902 0.9999999878919993
vn -0.00027467496667350777 -0.00021363598332709954 0.9999999394566629
vn -0.00003051849851942606 0 0.9999999995343107
vn -0.00003051849816412019 -0.00015259299649964902 0.9999999878919993
vn 0.00003051849851942606 0 0.9999999995343107
vn 0.00003051940073816896 0 0.9999999995342832
vn 0.00006103699695357926 0 0.9999999981372425
vn -0.00006103699624296755 -0.0001525929962864662 0.9999999864949312
vn 0 -0.00003051849851942606 0.9999999995343107
vn 0 0 1
vn 0 -0.00003051849851942606 0.9999999995343107
vn 0 0 1
vn 0 0 1
vn 0.0001831169904556128 -0.00006103890223109038 0.9999999813712098
vn 0.00003051849851942606 0 0.9999999995343107
vn 0.00006103699695357926 0 0.9999999981372425
vn 0.0001831169904556128 -0.00006103890223109038 0.9999999813712098
vn 0.00006103699695357926 0 0.9999999981372425
vn 0.0001831169904556128 -0.00006103890223109038 0.9999999813712098
vn 0 0 1
vn 0 0 1
vn -0.00006103699649879077 0.00012207399299758154 0.9999999906862126
vn -0.00006103699649879077 0.00012207399299758154 0.9999999906862126
vn 0 0 1
vn -0.00006103890325446353 0 0.9999999981371261
vn -0.00006103699649879077 0.00012207399299758154 0.9999999906862126
vn -0.00006103890325446353 0 0.9999999981371261
vn 0.00018311699753259942 -0.0002136359878043228 0.9999999604139141
vn 0.0001831169904556128 -0.00006103890223109038 0.9999999813712098
vn 0.0001831169904556128 -0.00006103890223109038 0.9999999813712098
vn 0.00030519397909919814 -0.00030519397909919814 0.9999999068566308
vn 0.0001831169904556128 -0.00006103890223109038 0.9999999813712098
vn 0.00030519397909919814 -0.00030519397909919814 0.9999999068566308
vn 0.00009155549676597089 -0.00021362999692031302 0.9999999729899075
vn 0.00018311699753259942 -0.0002136359878043228 0.9999999604139141
vn -0.00006103890325446353 0 0.9999999981371261
vn 0.00012207399316812724 -0.00003051849829203181 0.9999999920832808
vn 0.00018311699753259942 -0.0002136359878043228 0.9999999604139141
vn 0.00012207399316812724 -0.00003051849829203181 0.9999999920832808
vn 0.00003051849851942606 0 0.9999999995343107
vn 0.00009155549676597089 -0.00021362999692031302 0.9999999729899075
vn 0.00030519397909919814 -0.00030519397909919814 0.9999999068566308
vn 0.00003051940061024807 -0.00009155830005617155 0.999999995342822
vn 0.00003051849851942606 0 0.9999999995343107
vn 0.00012207399316812724 -0.00003051849829203181 0.9999999920832808
vn 0.00003051849851942606 0 0.9999999995343107
vn 0.00009155549676597089 -0.00021362999692031302 0.9999999729899075
vn 0.00003051940061024807 -0.00009155830005617155 0.999999995342822
vn 0.00003051849839151678 -0.00009155549881252914 0.999999995343106
vn 0.00003051849839151678 -0.00009155549881252914 0.999999995343106
vn 0.00003051940061024807 -0.00009155830005617155 0.999999995342822
vn 0.00003051849839151678 -0.00009155549881252914 0.999999995343106
vn 0.00003051849839151678 -0.00009155549881252914 0.999999995343106
vn 0.00003051849839151678 -0.00009155549881252914 0.999999995343106
vn 0 0.00006103699695357926 0.9999999981372425
vn -0.00003051849851942606 0 0.9999999995343107
vn 0.00003051849851942606 0 0.9999999995343107
vn 0.00003051849851942606 0 0.9999999995343107
vn 0.00003051849839151678 -0.00009155549881252914 0.999999995343106
vn 0.00012207399589640215 0.00027466699644596634 0.9999999548279892
vn 0 0.00006103699695357926 0.9999999981372425
vn -0.00003051849851942606 0 0.9999999995343107
vn 0.00003051849851942606 0 0.9999999995343107
vn -0.00003051849851942606 0 0.9999999995343107
vn 0.21986138491664273 -0.9754901382393505 -0.008942126162657427
vn -0.1401429884875867 -0.9900651316183929 -0.011444559022631693
vn 0.03967451640928587 -0.9989750295148321 -0.021790437203729005
vn 0.21986138491664273 -0.9754901382393505 -0.008942126162657427
vn 0.03967451640928587 -0.9989750295148321 -0.021790437203729005
vn 0.42748538767457134 -0.9040154452945856 0.0035096999236005717
vn 0.5957381723077946 -0.8031783696978324 0.0007324649483944858
vn 0.21986138491664273 -0.9754901382393505 -0.008942126162657427
vn 0.42748538767457134 -0.9040154452945856 0.0035096999236005717
vn 0.5957381723077946 -0.8031783696978324 0.0007324649483944858
vn 0.42748538767457134 -0.9040154452945856 0.0035096999236005717
vn 0.7663145460152845 -0.6396890114676116 0.05966561130985308
vn 0.9205182297590906 -0.3906755789074524 0.004333673559135488
vn 0.5957381723077946 -0.8031783696978324 0.0007324649483944858
vn 0.7663145460152845 -0.6396890114676116 0.05966561130985308
vn 0.9205182297590906 -0.3906755789074524 0.004333673559135488
vn 0.7663145460152845 -0.6396890114676116 0.05966561130985308
vn 0.9729166833224395 -0.2307849873363473 0.013092628957781523
vn 0.9812511287880862 0.19135490220166665 0.02301138099935094
vn 0.9205182297590906 -0.3906755789074524 0.004333673559135488
vn 0.9729166833224395 -0.2307849873363473 0.013092628957781523
vn 0.9812511287880862 0.19135490220166665 0.02301138099935094
vn 0.9729166833224395 -0.2307849873363473 0.013092628957781523
vn 0.9883073281701096 0.15177258408951436 -0.014618748374972568
vn 0.9812511287880862 0.19135490220166665 0.02301138099935094
vn 0.9883073281701096 0.15177258408951436 -0.014618748374972568
vn 0.8465751520682376 0.529174334798177 0.05731522739680227
vn 0.6954288068957548 0.7174632141354733 -0.04031514482106209
vn 0.9812511287880862 0.19135490220166665 0.02301138099935094
vn 0.8465751520682376 0.529174334798177 0.05731522739680227
vn 0.6954288068957548 0.7174632141354733 -0.04031514482106209
vn 0.8465751520682376 0.529174334798177 0.05731522739680227
vn 0.4440891766664231 0.8924510527119759 0.07947277320582401
vn 0.20334829326405982 0.9786542027361566 -0.029756059776994734
vn 0.6954288068957548 0.7174632141354733 -0.04031514482106209
vn 0.4440891766664231 0.8924510527119759 0.07947277320582401
vn 0.20334829326405982 0.9786542027361566 -0.029756059776994734
vn 0.4440891766664231 0.8924510527119759 0.07947277320582401
vn -0.02377413819735915 0.9995820126771443 -0.016449628727791054
vn 0.14603318471491006 -0.9890281095729301 -0.02230935760207365
vn -0.08026545351054484 -0.9967568338230822 -0.005768119254230113
vn 0.35374515761481956 -0.9352839460300226 -0.01040690936715661
vn 0.5063449084720655 -0.8622602718830137 0.011047949884337374
vn 0.14603318471491006 -0.9890281095729301 -0.02230935760207365
vn 0.35374515761481956 -0.9352839460300226 -0.01040690936715661
vn 0.5063449084720655 -0.8622602718830137 0.011047949884337374
vn 0.35374515761481956 -0.9352839460300226 -0.01040690936715661
vn 0.6921317657741736 -0.7217654669659458 -0.002868710817556896
vn 0.8270732759246096 -0.5607007741125911 -0.039552979165617286
vn 0.5063449084720655 -0.8622602718830137 0.011047949884337374
vn 0.6921317657741736 -0.7217654669659458 -0.002868710817556896
vn 0.8270732759246096 -0.5607007741125911 -0.039552979165617286
vn 0.6921317657741736 -0.7217654669659458 -0.002868710817556896
vn 0.9205935095229683 -0.37191194675055017 0.11911798389999817
vn 0.9256239181696903 -0.31740210298043187 0.2060977125923278
vn 0.8270732759246096 -0.5607007741125911 -0.039552979165617286
vn 0.9205935095229683 -0.37191194675055017 0.11911798389999817
vn 0.9866412960523381 0.07318400652796413 -0.14554399373618057
vn 0.9828025284003551 0.06003080419231519 -0.17462958717781313
vn 0.927663878125932 0.3732812764706921 0.0100408095672896
vn 0.9499061517852279 0.3098601936280856 0.04080396065757614
vn 0.9866412960523381 0.07318400652796413 -0.14554399373618057
vn 0.927663878125932 0.3732812764706921 0.0100408095672896
vn 0.6648894569499813 0.7467112564876979 -0.018555577903221154
vn 0.9499061517852279 0.3098601936280856 0.04080396065757614
vn 0.927663878125932 0.3732812764706921 0.0100408095672896
vn 0.6648894569499813 0.7467112564876979 -0.018555577903221154
vn 0.927663878125932 0.3732812764706921 0.0100408095672896
vn 0.6471937911240384 0.7590472717468594 -0.07062178123032539
vn 0.6648894569499813 0.7467112564876979 -0.018555577903221154
vn 0.6471937911240384 0.7590472717468594 -0.07062178123032539
vn 0.3500279266516466 0.9352084607633666 0.05353116363917266
vn 0.1612912968649696 0.986730667941742 0.018646889790525714
vn 0.6648894569499813 0.7467112564876979 -0.018555577903221154
vn 0.3500279266516466 0.9352084607633666 0.05353116363917266
vn 0.1612912968649696 0.986730667941742 0.018646889790525714
vn 0.3500279266516466 0.9352084607633666 0.05353116363917266
vn -0.03830163868174318 0.9992608873482022 0.003265500019460912
f 1//1 2//2 3//3
f 4//4 5//5 6//6
f 7//7 8//8 9//9
f 10//10 11//11 12//12
f 13//13 14//14 15//15
f 16//16 17//17 18//18
f 19//19 20//20 21//21
f 22//22 23//23 24//24
f 25//25 26//26 27//27
f 28//28 29//29 30//30
f 31//31 32//32 33//33
f 34//34 35//35 36//36
f 37//37 38//38 39//39
f 40//40 41//41 42//42
f 43//43 44//44 45//45
f 46//46 47//47 48//48
f 49//49 50//50 51//51
f 52//52 53//53 54//54
f 55//55 56//56 57//57
f 58//58 59//59 60//60
f 61//61 62//62 63//63
f 64//64 65//65 66//66
f 67//67 68//68 69//69
f 70//70 71//71 72//72
f 73//73 74//74 75//75
f 76//76 77//77 78//78
f 79//79 80//80 81//81
f 82//82 83//83 84//84
f 85//85 86//86 87//87
f 88//88 89//89 90//90
f 91//91 92//92 93//93
f 94//94 95//95 96//96
f 97//97 98//98 99//99
f 100//100 101//101 102//102
f 103//103 104//104 105//105
f 106//106 107//107 108//108
f 109//109 110//110 111//111
f 112//112 113//113 114//114
f 115//115 116//116 117//117
f 118//118 119//119 120//120
f 121//121 122//122 123//123
f 124//124 125//125 126//126
f 127//127 128//128 129//129
f 130//130 131//131 132//132
f 133//133 134//134 135//135
f 136//136 137//137 138//138
f 139//139 140//140 141//141
f 142//142 143//143 144//144
f 145//145 146//146 147//147
f 148//148 149//149 150//150
f 151//151 152//152 153//153
f 154//154 155//155 156//156
f 157//157 158//158 159//159
f 160//160 161//161 162//162
f 163//163 164//164 165//165
f 166//166 167//167 168//168
f 169//169 170//170 171//171
f 172//172 173//173 174//174
f 175//175 176//176 177//177
f 178//178 179//179 180//180
f 181//181 182//182 183//183
f 184//184 185//185 186//186
f 187//187 188//188 189//189
f 190//190 191//191 192//192
f 193//193 194//194 195//195
f 196//196 197//197 198//198
f 199//199 200//200 201//201
f 202//202 203//203 204//204
f 205//205 206//206 207//207
f 208//208 209//209 210//210
f 211//211 212//212 213//213
f 214//214 215//215 216//216
f 217//217 218//218 219//219
f 220//220 221//221 222//222
f 223//223 224//224 225//225
f 226//226 227//227 228//228
f 229//229 230//230 231//231
f 232//232 233//233 234//234
f 235//235 236//236 237//237
f 238//238 239//239 240//240
f 241//241 242//242 243//243
f 244//244 245//245 246//246
f 247//247 248//248 249//249
f 250//250 251//251 252//252
f 253//253 254//254 255//255
f 256//256 257//257 258//258
f 259//259 260//260 261//261
f 262//262 263//263 264//264
f 265//265 266//266 267//267
f 268//268 269//269 270//270
f 271//271 272//272 273//273
f 274//274 275//275 276//276
f 277//277 278//278 279//279
f 280//280 281//281 282//282
f 283//283 284//284 285//285
f 286//286 287//287 288//288
f 289//289 290//290 291//291
f 292//292 293//293 294//294
f 295//295 296//296 297//297
f 298//298 299//299 300//300
f 301//301 302//302 303//303
f 304//304 305//305 306//306
f 307//307 308//308 309//309
f 310//310 311//311 312//312
f 313//313 314//314 315//315
f 316//316 317//317 318//318
f 319//319 320//320 321//321
f 322//322 323//323 324//324
f 325//325 326//326 327//327
f 328//328 329//329 330//330
