o node1
usemtl verbindung
v -0.028055189177393913 0.04064952954649925 0.008011518977582455
v -0.029506679624319077 0.04064952954649925 -0.005049765110015869
v -0.029197990894317627 0.04844950884580612 0.0032261009328067303
v -0.028055189177393913 0.04064952954649925 0.008011518977582455
v -0.029197990894317627 0.04844950884580612 0.0032261009328067303
v -0.025500290095806122 0.048449091613292694 0.012827809900045395
v -0.020771019160747528 0.040649350732564926 0.01895231008529663
v -0.028055189177393913 0.04064952954649925 0.008011518977582455
v -0.025500290095806122 0.048449091613292694 0.012827809900045395
v -0.020771019160747528 0.040649350732564926 0.01895231008529663
v -0.025500290095806122 0.048449091613292694 0.012827809900045395
v -0.01887989044189453 0.048449330031871796 0.020722320303320885
v -0.01097774039953947 0.04064946994185448 0.02543823979794979
v -0.020771019160747528 0.040649350732564926 0.01895231008529663
v -0.01887989044189453 0.048449330031871796 0.020722320303320885
v -0.01097774039953947 0.04064946994185448 0.02543823979794979
v -0.01887989044189453 0.048449330031871796 0.020722320303320885
v -0.0098838796839118 0.04844927042722702 0.025698600336909294
v -0.01097774039953947 0.04064946994185448 0.02543823979794979
v -0.0098838796839118 0.04844927042722702 0.025698600336909294
v 0.0037653439212590456 0.04844950884580612 0.027559159323573112
v 0.001453398959711194 0.04064952954649925 0.02746259979903698
v -0.01097774039953947 0.04064946994185448 0.02543823979794979
v 0.0037653439212590456 0.04844950884580612 0.027559159323573112
v 0.013877860270440578 0.04064946994185448 0.02412598952651024
v 0.001453398959711194 0.04064952954649925 0.02746259979903698
v 0.0037653439212590456 0.04844950884580612 0.027559159323573112
v 0.013877860270440578 0.04064946994185448 0.02412598952651024
v 0.0037653439212590456 0.04844950884580612 0.027559159323573112
v 0.02147912047803402 0.04844950884580612 0.018874580040574074
v 0.023657789453864098 0.04064929112792015 0.015750819817185402
v 0.013877860270440578 0.04064946994185448 0.02412598952651024
v 0.02147912047803402 0.04844950884580612 0.018874580040574074
v 0.029167110100388527 0.04064952954649925 0.0038229820784181356
v 0.023657789453864098 0.04064929112792015 0.015750819817185402
v 0.02147912047803402 0.04844950884580612 0.018874580040574074
v 0.029167110100388527 0.04064952954649925 0.0038229820784181356
v 0.02147912047803402 0.04844950884580612 0.018874580040574074
v 0.029353609308600426 0.04844950884580612 0.0029758810997009277
v 0.031087510287761688 0.0484495684504509 -0.008103013038635254
v 0.03048115037381649 0.04844950884580612 0.007824838161468506
v 0.03166805952787399 0.04064952954649925 -0.004870951175689697
v 0.031087510287761688 0.0484495684504509 -0.008103013038635254
v 0.03166805952787399 0.04064952954649925 -0.004870951175689697
v 0.02679513953626156 0.04064952954649925 -0.01937722973525524
v 0.026563160121440887 0.048449449241161346 -0.019605150446295738
v 0.031087510287761688 0.0484495684504509 -0.008103013038635254
v 0.02679513953626156 0.04064952954649925 -0.01937722973525524
v 0.017102239653468132 0.04844950884580612 -0.028886789456009865
v 0.02679513953626156 0.04064952954649925 -0.01937722973525524
v 0.01756858080625534 0.0406494103372097 -0.028497690334916115
v 0.017102239653468132 0.04844950884580612 -0.028886789456009865
v 0.026563160121440887 0.048449449241161346 -0.019605150446295738
v 0.02679513953626156 0.04064952954649925 -0.01937722973525524
v 0.017102239653468132 0.04844950884580612 -0.028886789456009865
v 0.01756858080625534 0.0406494103372097 -0.028497690334916115
v 0.005616188049316406 0.04064958915114403 -0.03352886065840721
v 0.0055866241455078125 0.0484495684504509 -0.033400170505046844
v 0.017102239653468132 0.04844950884580612 -0.028886789456009865
v 0.005616188049316406 0.04064958915114403 -0.03352886065840721
v -0.009410858154296875 0.04844950884580612 -0.03268694132566452
v 0.005616188049316406 0.04064958915114403 -0.03352886065840721
v -0.011104580014944077 0.04064952954649925 -0.03211212158203125
v -0.009410858154296875 0.04844950884580612 -0.03268694132566452
v 0.0055866241455078125 0.0484495684504509 -0.033400170505046844
v 0.005616188049316406 0.04064958915114403 -0.03352886065840721
v -0.022212980315089226 0.0484495684504509 -0.024809829890727997
v -0.011104580014944077 0.04064952954649925 -0.03211212158203125
v -0.02651475928723812 0.04064958915114403 -0.02027082070708275
v -0.022212980315089226 0.0484495684504509 -0.024809829890727997
v -0.009410858154296875 0.04844950884580612 -0.03268694132566452
v -0.011104580014944077 0.04064952954649925 -0.03211212158203125
v -0.030426019802689552 0.04844950884580612 -0.011897560209035873
v -0.022212980315089226 0.0484495684504509 -0.024809829890727997
v -0.02651475928723812 0.04064958915114403 -0.02027082070708275
v -0.030426019802689552 0.04844950884580612 -0.011897560209035873
v -0.02651475928723812 0.04064958915114403 -0.02027082070708275
v -0.031368009746074677 0.04064958915114403 -0.006001948844641447
v -0.03082120046019554 0.0484495684504509 0.006051123142242432
v -0.030426019802689552 0.04844950884580612 -0.011897560209035873
v -0.031368009746074677 0.04064958915114403 -0.006001948844641447
v -0.011104580014944077 0.04064952954649925 -0.03211212158203125
v 0.000866950023919344 0.04064952954649925 -0.03196965903043747
v -0.014983169734477997 0.04064958915114403 -0.0281522199511528
v -0.02651475928723812 0.04064958915114403 -0.02027082070708275
v -0.02606200985610485 0.0406496487557888 -0.01656769961118698
v -0.029506679624319077 0.04064952954649925 -0.005049765110015869
v -0.02651475928723812 0.04064958915114403 -0.02027082070708275
v -0.029506679624319077 0.04064952954649925 -0.005049765110015869
v -0.031368009746074677 0.04064958915114403 -0.006001948844641447
v 0.013877860270440578 0.04064946994185448 0.02412598952651024
v 0.023657789453864098 0.04064929112792015 0.015750819817185402
v 0.0188674908131361 0.04064958915114403 0.023345880210399628
v 0.023657789453864098 0.04064929112792015 0.015750819817185402
v 0.029003620147705078 0.04064952954649925 0.011097369715571404
v 0.0188674908131361 0.04064958915114403 0.023345880210399628
v 0.013877860270440578 0.04064946994185448 0.02412598952651024
v 0.0188674908131361 0.04064958915114403 0.023345880210399628
v 0.003291368018835783 0.04064952954649925 0.029623210430145264
v 0.029167110100388527 0.04064952954649925 0.0038229820784181356
v 0.029003620147705078 0.04064952954649925 0.011097369715571404
v 0.023657789453864098 0.04064929112792015 0.015750819817185402
v -0.02651475928723812 0.04064958915114403 -0.02027082070708275
v -0.011104580014944077 0.04064952954649925 -0.03211212158203125
v -0.014983169734477997 0.04064958915114403 -0.0281522199511528
v -0.02651475928723812 0.04064958915114403 -0.02027082070708275
v -0.014983169734477997 0.04064958915114403 -0.0281522199511528
v -0.02606200985610485 0.0406496487557888 -0.01656769961118698
v 0.001453398959711194 0.04064952954649925 0.02746259979903698
v 0.013877860270440578 0.04064946994185448 0.02412598952651024
v 0.003291368018835783 0.04064952954649925 0.029623210430145264
v 0.029167110100388527 0.04064952954649925 0.0038229820784181356
v 0.03166805952787399 0.04064952954649925 -0.004870951175689697
v 0.029003620147705078 0.04064952954649925 0.011097369715571404
v 0.02910267934203148 0.04064958915114403 -0.0075941081158816814
v 0.03166805952787399 0.04064952954649925 -0.004870951175689697
v 0.029167110100388527 0.04064952954649925 0.0038229820784181356
v -0.01097774039953947 0.04064946994185448 0.02543823979794979
v 0.001453398959711194 0.04064952954649925 0.02746259979903698
v 0.003291368018835783 0.04064952954649925 0.029623210430145264
v -0.011541360057890415 0.0406494103372097 0.027262620627880096
v -0.01097774039953947 0.04064946994185448 0.02543823979794979
v 0.003291368018835783 0.04064952954649925 0.029623210430145264
v 0.02679513953626156 0.04064952954649925 -0.01937722973525524
v 0.03166805952787399 0.04064952954649925 -0.004870951175689697
v 0.02910267934203148 0.04064958915114403 -0.0075941081158816814
v 0.02490377053618431 0.04064958915114403 -0.018578050658106804
v 0.02679513953626156 0.04064952954649925 -0.01937722973525524
v 0.02910267934203148 0.04064958915114403 -0.0075941081158816814
v -0.021327970549464226 0.0406494103372097 0.021247800439596176
v -0.01097774039953947 0.04064946994185448 0.02543823979794979
v -0.011541360057890415 0.0406494103372097 0.027262620627880096
v -0.020771019160747528 0.040649350732564926 0.01895231008529663
v -0.01097774039953947 0.04064946994185448 0.02543823979794979
v -0.021327970549464226 0.0406494103372097 0.021247800439596176
v 0.01756858080625534 0.0406494103372097 -0.028497690334916115
v 0.02679513953626156 0.04064952954649925 -0.01937722973525524
v 0.02490377053618431 0.04064958915114403 -0.018578050658106804
v 0.014367099851369858 0.04064946994185448 -0.028262130916118622
v 0.01756858080625534 0.0406494103372097 -0.028497690334916115
v 0.02490377053618431 0.04064958915114403 -0.018578050658106804
v -0.030292920768260956 0.04064952954649925 0.008089721202850342
v -0.020771019160747528 0.040649350732564926 0.01895231008529663
v -0.021327970549464226 0.0406494103372097 0.021247800439596176
v -0.028055189177393913 0.04064952954649925 0.008011518977582455
v -0.020771019160747528 0.040649350732564926 0.01895231008529663
v -0.030292920768260956 0.04064952954649925 0.008089721202850342
v 0.005616188049316406 0.04064958915114403 -0.03352886065840721
v 0.01756858080625534 0.0406494103372097 -0.028497690334916115
v 0.014367099851369858 0.04064946994185448 -0.028262130916118622
v 0.000866950023919344 0.04064952954649925 -0.03196965903043747
v 0.005616188049316406 0.04064958915114403 -0.03352886065840721
v 0.014367099851369858 0.04064946994185448 -0.028262130916118622
v -0.030292920768260956 0.04064952954649925 0.008089721202850342
v -0.029506679624319077 0.04064952954649925 -0.005049765110015869
v -0.028055189177393913 0.04064952954649925 0.008011518977582455
v -0.031368009746074677 0.04064958915114403 -0.006001948844641447
v -0.029506679624319077 0.04064952954649925 -0.005049765110015869
v -0.030292920768260956 0.04064952954649925 0.008089721202850342
v -0.011104580014944077 0.04064952954649925 -0.03211212158203125
v 0.005616188049316406 0.04064958915114403 -0.03352886065840721
v 0.000866950023919344 0.04064952954649925 -0.03196965903043747
v -0.009582518599927425 0.04844975098967552 -0.03025341033935547
v 0.0008631939999759197 0.0484495684504509 -0.03184795007109642
v -0.009410858154296875 0.04844950884580612 -0.03268694132566452
v 0.0202712994068861 0.04844938963651657 0.02224629931151867
v 0.03048115037381649 0.04844950884580612 0.007824838161468506
v 0.02147912047803402 0.04844950884580612 0.018874580040574074
v 0.008504866622388363 0.048449449241161346 0.02833455055952072
v 0.0202712994068861 0.04844938963651657 0.02224629931151867
v 0.02147912047803402 0.04844950884580612 0.018874580040574074
v -0.019298549741506577 0.048449449241161346 -0.024771690368652344
v -0.009582518599927425 0.04844975098967552 -0.03025341033935547
v -0.009410858154296875 0.04844950884580612 -0.03268694132566452
v 0.008504866622388363 0.048449449241161346 0.02833455055952072
v 0.02147912047803402 0.04844950884580612 0.018874580040574074
v 0.0037653439212590456 0.04844950884580612 0.027559159323573112
v 0.02147912047803402 0.04844950884580612 0.018874580040574074
v 0.03048115037381649 0.04844950884580612 0.007824838161468506
v 0.029353609308600426 0.04844950884580612 0.0029758810997009277
v -0.019298549741506577 0.048449449241161346 -0.024771690368652344
v -0.009410858154296875 0.04844950884580612 -0.03268694132566452
v -0.022212980315089226 0.0484495684504509 -0.024809829890727997
v -0.030426019802689552 0.04844950884580612 -0.011897560209035873
v -0.028283530846238136 0.04844950884580612 -0.012190580368041992
v -0.022212980315089226 0.0484495684504509 -0.024809829890727997
v -0.028283530846238136 0.04844950884580612 -0.012190580368041992
v -0.019298549741506577 0.048449449241161346 -0.024771690368652344
v -0.022212980315089226 0.0484495684504509 -0.024809829890727997
v -0.0044364919885993 0.04844950884580612 0.02922552078962326
v 0.008504866622388363 0.048449449241161346 0.02833455055952072
v 0.0037653439212590456 0.04844950884580612 0.027559159323573112
v 0.03048115037381649 0.04844950884580612 0.007824838161468506
v 0.031087510287761688 0.0484495684504509 -0.008103013038635254
v 0.029353609308600426 0.04844950884580612 0.0029758810997009277
v 0.029353609308600426 0.04844950884580612 0.0029758810997009277
v 0.031087510287761688 0.0484495684504509 -0.008103013038635254
v 0.02852749079465866 0.04844950884580612 -0.01045512966811657
v -0.0044364919885993 0.04844950884580612 0.02922552078962326
v 0.0037653439212590456 0.04844950884580612 0.027559159323573112
v -0.0098838796839118 0.04844927042722702 0.025698600336909294
v -0.0044364919885993 0.04844950884580612 0.02922552078962326
v -0.0098838796839118 0.04844927042722702 0.025698600336909294
v -0.01583671011030674 0.04844950884580612 0.02519696019589901
v 0.02852749079465866 0.04844950884580612 -0.01045512966811657
v 0.031087510287761688 0.0484495684504509 -0.008103013038635254
v 0.026563160121440887 0.048449449241161346 -0.019605150446295738
v -0.01583671011030674 0.04844950884580612 0.02519696019589901
v -0.0098838796839118 0.04844927042722702 0.025698600336909294
v -0.01887989044189453 0.048449330031871796 0.020722320303320885
v 0.02852749079465866 0.04844950884580612 -0.01045512966811657
v 0.026563160121440887 0.048449449241161346 -0.019605150446295738
v 0.021716110408306122 0.04844963178038597 -0.02268791012465954
v -0.01583671011030674 0.04844950884580612 0.02519696019589901
v -0.01887989044189453 0.048449330031871796 0.020722320303320885
v -0.02400016039609909 0.0484498105943203 0.018420150503516197
v 0.021716110408306122 0.04844963178038597 -0.02268791012465954
v 0.026563160121440887 0.048449449241161346 -0.019605150446295738
v 0.017102239653468132 0.04844950884580612 -0.028886789456009865
v -0.02400016039609909 0.0484498105943203 0.018420150503516197
v -0.01887989044189453 0.048449330031871796 0.020722320303320885
v -0.025500290095806122 0.048449091613292694 0.012827809900045395
v 0.021716110408306122 0.04844963178038597 -0.02268791012465954
v 0.017102239653468132 0.04844950884580612 -0.028886789456009865
v 0.010938639752566814 0.04844975098967552 -0.02973317913711071
v -0.02400016039609909 0.0484498105943203 0.018420150503516197
v -0.025500290095806122 0.048449091613292694 0.012827809900045395
v -0.03082120046019554 0.0484495684504509 0.006051123142242432
v -0.03082120046019554 0.0484495684504509 0.006051123142242432
v -0.025500290095806122 0.048449091613292694 0.012827809900045395
v -0.029197990894317627 0.04844950884580612 0.0032261009328067303
v 0.010938639752566814 0.04844975098967552 -0.02973317913711071
v 0.017102239653468132 0.04844950884580612 -0.028886789456009865
v 0.0055866241455078125 0.0484495684504509 -0.033400170505046844
v 0.010938639752566814 0.04844975098967552 -0.02973317913711071
v 0.0055866241455078125 0.0484495684504509 -0.033400170505046844
v 0.0008631939999759197 0.0484495684504509 -0.03184795007109642
v -0.03082120046019554 0.0484495684504509 0.006051123142242432
v -0.029197990894317627 0.04844950884580612 0.0032261009328067303
v -0.030426019802689552 0.04844950884580612 -0.011897560209035873
v -0.029197990894317627 0.04844950884580612 0.0032261009328067303
v -0.028283530846238136 0.04844950884580612 -0.012190580368041992
v -0.030426019802689552 0.04844950884580612 -0.011897560209035873
v 0.0008631939999759197 0.0484495684504509 -0.03184795007109642
v 0.0055866241455078125 0.0484495684504509 -0.033400170505046844
v -0.009410858154296875 0.04844950884580612 -0.03268694132566452
v -0.03082120046019554 0.0484495684504509 0.006051123142242432
v -0.031368009746074677 0.04064958915114403 -0.006001948844641447
v -0.030292920768260956 0.04064952954649925 0.008089721202850342
v -0.02400016039609909 0.0484498105943203 0.018420150503516197
v -0.03082120046019554 0.0484495684504509 0.006051123142242432
v -0.030292920768260956 0.04064952954649925 0.008089721202850342
v -0.02400016039609909 0.0484498105943203 0.018420150503516197
v -0.030292920768260956 0.04064952954649925 0.008089721202850342
v -0.021327970549464226 0.0406494103372097 0.021247800439596176
v -0.01583671011030674 0.04844950884580612 0.02519696019589901
v -0.02400016039609909 0.0484498105943203 0.018420150503516197
v -0.021327970549464226 0.0406494103372097 0.021247800439596176
v -0.01583671011030674 0.04844950884580612 0.02519696019589901
v -0.021327970549464226 0.0406494103372097 0.021247800439596176
v -0.011541360057890415 0.0406494103372097 0.027262620627880096
v -0.0044364919885993 0.04844950884580612 0.02922552078962326
v -0.01583671011030674 0.04844950884580612 0.02519696019589901
v -0.011541360057890415 0.0406494103372097 0.027262620627880096
v -0.0044364919885993 0.04844950884580612 0.02922552078962326
v -0.011541360057890415 0.0406494103372097 0.027262620627880096
v 0.003291368018835783 0.04064952954649925 0.029623210430145264
v 0.008504866622388363 0.048449449241161346 0.02833455055952072
v -0.0044364919885993 0.04844950884580612 0.02922552078962326
v 0.003291368018835783 0.04064952954649925 0.029623210430145264
v 0.008504866622388363 0.048449449241161346 0.02833455055952072
v 0.003291368018835783 0.04064952954649925 0.029623210430145264
v 0.0188674908131361 0.04064958915114403 0.023345880210399628
v 0.0202712994068861 0.04844938963651657 0.02224629931151867
v 0.008504866622388363 0.048449449241161346 0.02833455055952072
v 0.0188674908131361 0.04064958915114403 0.023345880210399628
v 0.0202712994068861 0.04844938963651657 0.02224629931151867
v 0.0188674908131361 0.04064958915114403 0.023345880210399628
v 0.029003620147705078 0.04064952954649925 0.011097369715571404
v 0.03048115037381649 0.04844950884580612 0.007824838161468506
v 0.0202712994068861 0.04844938963651657 0.02224629931151867
v 0.029003620147705078 0.04064952954649925 0.011097369715571404
v 0.03048115037381649 0.04844950884580612 0.007824838161468506
v 0.029003620147705078 0.04064952954649925 0.011097369715571404
v 0.03166805952787399 0.04064952954649925 -0.004870951175689697
v 0.02910267934203148 0.04064958915114403 -0.0075941081158816814
v 0.029167110100388527 0.04064952954649925 0.0038229820784181356
v 0.029353609308600426 0.04844950884580612 0.0029758810997009277
v 0.02910267934203148 0.04064958915114403 -0.0075941081158816814
v 0.029353609308600426 0.04844950884580612 0.0029758810997009277
v 0.02852749079465866 0.04844950884580612 -0.01045512966811657
v 0.02490377053618431 0.04064958915114403 -0.018578050658106804
v 0.02910267934203148 0.04064958915114403 -0.0075941081158816814
v 0.02852749079465866 0.04844950884580612 -0.01045512966811657
v 0.02490377053618431 0.04064958915114403 -0.018578050658106804
v 0.02852749079465866 0.04844950884580612 -0.01045512966811657
v 0.021716110408306122 0.04844963178038597 -0.02268791012465954
v 0.014367099851369858 0.04064946994185448 -0.028262130916118622
v 0.02490377053618431 0.04064958915114403 -0.018578050658106804
v 0.021716110408306122 0.04844963178038597 -0.02268791012465954
v 0.014367099851369858 0.04064946994185448 -0.028262130916118622
v 0.021716110408306122 0.04844963178038597 -0.02268791012465954
v 0.010938639752566814 0.04844975098967552 -0.02973317913711071
v 0.000866950023919344 0.04064952954649925 -0.03196965903043747
v 0.014367099851369858 0.04064946994185448 -0.028262130916118622
v 0.010938639752566814 0.04844975098967552 -0.02973317913711071
v 0.000866950023919344 0.04064952954649925 -0.03196965903043747
v 0.010938639752566814 0.04844975098967552 -0.02973317913711071
v 0.0008631939999759197 0.0484495684504509 -0.03184795007109642
v 0.000866950023919344 0.04064952954649925 -0.03196965903043747
v 0.0008631939999759197 0.0484495684504509 -0.03184795007109642
v -0.009582518599927425 0.04844975098967552 -0.03025341033935547
v -0.014983169734477997 0.04064958915114403 -0.0281522199511528
v 0.000866950023919344 0.04064952954649925 -0.03196965903043747
v -0.009582518599927425 0.04844975098967552 -0.03025341033935547
v -0.014983169734477997 0.04064958915114403 -0.0281522199511528
v -0.009582518599927425 0.04844975098967552 -0.03025341033935547
v -0.019298549741506577 0.048449449241161346 -0.024771690368652344
v -0.02606200985610485 0.0406496487557888 -0.01656769961118698
v -0.014983169734477997 0.04064958915114403 -0.0281522199511528
v -0.019298549741506577 0.048449449241161346 -0.024771690368652344
v -0.02606200985610485 0.0406496487557888 -0.01656769961118698
v -0.019298549741506577 0.048449449241161346 -0.024771690368652344
v -0.028283530846238136 0.04844950884580612 -0.012190580368041992
v -0.029506679624319077 0.04064952954649925 -0.005049765110015869
v -0.02606200985610485 0.0406496487557888 -0.01656769961118698
v -0.028283530846238136 0.04844950884580612 -0.012190580368041992
v -0.029506679624319077 0.04064952954649925 -0.005049765110015869
v -0.028283530846238136 0.04844950884580612 -0.012190580368041992
v -0.029197990894317627 0.04844950884580612 0.0032261009328067303
vn 0.9908830094829166 0.07762329411501423 -0.11011578328655834
vn 0.9908830094829166 0.07762329411501423 -0.11011578328655834
vn 0.9908830094829166 0.07762329411501423 -0.11011578328655834
vn 0.9299330004351372 -0.08346819032965637 -0.3581308083714598
vn 0.9299330004351372 -0.08346819032965637 -0.3581308083714598
vn 0.9299330004351372 -0.08346819032965637 -0.3581308083714598
vn 0.830385261783516 0.06938271174775164 -0.5528529246764008
vn 0.830385261783516 0.06938271174775164 -0.5528529246764008
vn 0.830385261783516 0.06938271174775164 -0.5528529246764008
vn 0.7656191934053986 -0.03992861006705715 -0.6420537024170015
vn 0.7656191934053986 -0.03992861006705715 -0.6420537024170015
vn 0.7656191934053986 -0.03992861006705715 -0.6420537024170015
vn 0.5513247670692002 0.055236039773894956 -0.8324601979231131
vn 0.5513247670692002 0.055236039773894956 -0.8324601979231131
vn 0.5513247670692002 0.055236039773894956 -0.8324601979231131
vn 0.48368149359924245 -0.03864603811359774 -0.874390471407213
vn 0.48368149359924245 -0.03864603811359774 -0.874390471407213
vn 0.48368149359924245 -0.03864603811359774 -0.874390471407213
vn 0.1350497190074381 0.014130531231435938 -0.9907380589657033
vn 0.1350497190074381 0.014130531231435938 -0.9907380589657033
vn 0.1350497190074381 0.014130531231435938 -0.9907380589657033
vn 0.16062739466250506 -0.03539973119305348 -0.9863800987020143
vn 0.16062739466250506 -0.03539973119305348 -0.9863800987020143
vn 0.16062739466250506 -0.03539973119305348 -0.9863800987020143
vn -0.25834389876463115 0.08848302590612764 -0.9619922993961987
vn -0.25834389876463115 0.08848302590612764 -0.9619922993961987
vn -0.25834389876463115 0.08848302590612764 -0.9619922993961987
vn -0.433584509206405 -0.17287419653706793 -0.8843749123238991
vn -0.433584509206405 -0.17287419653706793 -0.8843749123238991
vn -0.433584509206405 -0.17287419653706793 -0.8843749123238991
vn -0.645622149507141 0.12159312059516103 -0.7539145529101487
vn -0.645622149507141 0.12159312059516103 -0.7539145529101487
vn -0.645622149507141 0.12159312059516103 -0.7539145529101487
vn -0.9045264049181623 -0.08532828021174342 -0.417793091615851
vn -0.9045264049181623 -0.08532828021174342 -0.417793091615851
vn -0.9045264049181623 -0.08532828021174342 -0.417793091615851
vn -0.8957875189763395 -0.026768981868900085 -0.44367571767667974
vn -0.8957875189763395 -0.026768981868900085 -0.44367571767667974
vn -0.8957875189763395 -0.026768981868900085 -0.44367571767667974
vn 0.9952414812019463 0.08977054222023688 0.037889891058701754
vn 0.9952414812019463 0.08977054222023688 0.037889891058701754
vn 0.9952414812019463 0.08977054222023688 0.037889891058701754
vn 0.9461641722803643 -0.061280785793642094 -0.3178333279968084
vn 0.9461641722803643 -0.061280785793642094 -0.3178333279968084
vn 0.9461641722803643 -0.061280785793642094 -0.3178333279968084
vn 0.9304608674052259 0.016978140868200726 -0.36599770075804317
vn 0.9304608674052259 0.016978140868200726 -0.36599770075804317
vn 0.9304608674052259 0.016978140868200726 -0.36599770075804317
vn 0.7029908030365158 0.006554067349651079 -0.7111687388006103
vn 0.7029908030365158 0.006554067349651079 -0.7111687388006103
vn 0.7029908030365158 0.006554067349651079 -0.7111687388006103
vn 0.7003105845895473 -0.00003139950043772717 -0.7138382758902171
vn 0.7003105845895473 -0.00003139950043772717 -0.7138382758902171
vn 0.7003105845895473 -0.00003139950043772717 -0.7138382758902171
vn 0.3878630629488308 -0.022775411205134547 -0.9214355783473896
vn 0.3878630629488308 -0.022775411205134547 -0.9214355783473896
vn 0.3878630629488308 -0.022775411205134547 -0.9214355783473896
vn 0.36485799435692606 0.016741329477656986 -0.9309126553233453
vn 0.36485799435692606 0.016741329477656986 -0.9309126553233453
vn 0.36485799435692606 0.016741329477656986 -0.9309126553233453
vn -0.08429897385065188 -0.055016575993971556 -0.9949205291748817
vn -0.08429897385065188 -0.055016575993971556 -0.9949205291748817
vn -0.08429897385065188 -0.055016575993971556 -0.9949205291748817
vn -0.04749660703794201 0.016297448897755293 -0.9987384369690135
vn -0.04749660703794201 0.016297448897755293 -0.9987384369690135
vn -0.04749660703794201 0.016297448897755293 -0.9987384369690135
vn -0.6045660975746434 -0.12442079937982842 -0.7867777947712119
vn -0.6045660975746434 -0.12442079937982842 -0.7867777947712119
vn -0.6045660975746434 -0.12442079937982842 -0.7867777947712119
vn -0.5233623942849562 0.05096077136337172 -0.8505849775480214
vn -0.5233623942849562 0.05096077136337172 -0.8505849775480214
vn -0.5233623942849562 0.05096077136337172 -0.8505849775480214
vn -0.8340656277822266 0.1512745043905886 -0.5305191352567991
vn -0.8340656277822266 0.1512745043905886 -0.5305191352567991
vn -0.8340656277822266 0.1512745043905886 -0.5305191352567991
vn -0.9389483281955089 -0.12799501349983236 -0.3193639201569843
vn -0.9389483281955089 -0.12799501349983236 -0.3193639201569843
vn -0.9389483281955089 -0.12799501349983236 -0.3193639201569843
vn -0.9943838467926376 0.10354429970620074 -0.021893908655811867
vn -0.9943838467926376 0.10354429970620074 -0.021893908655811867
vn -0.9943838467926376 0.10354429970620074 -0.021893908655811867
vn 0 -0.9999999999723281 0.000007439330147257037
vn 0 -0.9999999999723281 0.000007439330147257037
vn 0 -0.9999999999723281 0.000007439330147257037
vn 0.00005014549963535126 -0.9999999987250674 0.000005940879865804214
vn 0.00005014549963535126 -0.9999999987250674 0.000005940879865804214
vn 0.00005014549963535126 -0.9999999987250674 0.000005940879865804214
vn -0.000027276300886617607 -0.999999999584966 -0.000009277479872040534
vn -0.000027276300886617607 -0.999999999584966 -0.000009277479872040534
vn -0.000027276300886617607 -0.999999999584966 -0.000009277479872040534
vn 0.00003696449847452793 -0.9999999972357205 0.00006451499921596756
vn 0.00003696449847452793 -0.9999999972357205 0.00006451499921596756
vn 0.00003696449847452793 -0.9999999972357205 0.00006451499921596756
vn 0.00019078401050946623 -0.999999968754597 0.00016153100754013353
vn 0.00019078401050946623 -0.999999968754597 0.00016153100754013353
vn 0.00019078401050946623 -0.999999968754597 0.00016153100754013353
vn 0.0000408822996015326 -0.9999999951526131 0.00008957349884676196
vn 0.0000408822996015326 -0.9999999951526131 0.00008957349884676196
vn 0.0000408822996015326 -0.9999999951526131 0.00008957349884676196
vn 0.00005481280087097674 -0.999999998483579 0.000005329050046488878
vn 0.00005481280087097674 -0.999999998483579 0.000005329050046488878
vn 0.00005481280087097674 -0.999999998483579 0.000005329050046488878
vn 0.000011651300152910297 -0.999999999752798 0.000018938100761126948
vn 0.000011651300152910297 -0.999999999752798 0.000018938100761126948
vn 0.000011651300152910297 -0.999999999752798 0.000018938100761126948
vn 0.000006421820216387156 -0.9999999999156854 0.000011286700099802755
vn 0.000006421820216387156 -0.9999999999156854 0.000011286700099802755
vn 0.000006421820216387156 -0.9999999999156854 0.000011286700099802755
vn -0.000003905220182735834 -0.9999999999868567 0.000003322059910671662
vn -0.000003905220182735834 -0.9999999999868567 0.000003322059910671662
vn -0.000003905220182735834 -0.9999999999868567 0.000003322059910671662
vn 0.000008986029569777926 -0.9999999999503855 0.0000042988899620154264
vn 0.000008986029569777926 -0.9999999999503855 0.0000042988899620154264
vn 0.000008986029569777926 -0.9999999999503855 0.0000042988899620154264
vn -0.000023642800435844144 -0.9999999997075697 -0.000005087129919378942
vn -0.000023642800435844144 -0.9999999997075697 -0.000005087129919378942
vn -0.000023642800435844144 -0.9999999997075697 -0.000005087129919378942
vn 0.000005565800165492528 -0.9999999999733025 -0.000004734669800983299
vn 0.000005565800165492528 -0.9999999999733025 -0.000004734669800983299
vn 0.000005565800165492528 -0.9999999999733025 -0.000004734669800983299
vn 0.000010419599672589412 -0.9999999997192033 -0.000021284400639550467
vn 0.000010419599672589412 -0.9999999997192033 -0.000021284400639550467
vn 0.000010419599672589412 -0.9999999997192033 -0.000021284400639550467
vn -0.00004005389924923638 -0.9999999991440409 0.000010373199975435817
vn -0.00004005389924923638 -0.9999999991440409 0.000010373199975435817
vn -0.00004005389924923638 -0.9999999991440409 0.000010373199975435817
vn -0.000013565700099595223 -0.9999999998945395 0.000005185870122112348
vn -0.000013565700099595223 -0.9999999998945395 0.000005185870122112348
vn -0.000013565700099595223 -0.9999999998945395 0.000005185870122112348
vn 0.000012656600116256055 -0.9999999997078635 -0.000020593299262496
vn 0.000012656600116256055 -0.9999999997078635 -0.000020593299262496
vn 0.000012656600116256055 -0.9999999997078635 -0.000020593299262496
vn -0.000010425799693416348 -0.9999999992824686 0.00003641930013260896
vn -0.000010425799693416348 -0.9999999992824686 0.00003641930013260896
vn -0.000010425799693416348 -0.9999999992824686 0.00003641930013260896
vn -0.000006685900187350577 -0.9999999997472118 0.0000214680003355471
vn -0.000006685900187350577 -0.9999999997472118 0.0000214680003355471
vn -0.000006685900187350577 -0.9999999997472118 0.0000214680003355471
vn -0.000016504100121929126 -0.9999999994511528 0.000028728200034187074
vn -0.000016504100121929126 -0.9999999994511528 0.000028728200034187074
vn -0.000016504100121929126 -0.9999999994511528 0.000028728200034187074
vn -0.000051960101612218027 -0.9999999983031236 0.000026342000592969995
vn -0.000051960101612218027 -0.9999999983031236 0.000026342000592969995
vn -0.000051960101612218027 -0.9999999983031236 0.000026342000592969995
vn -6.512020148652827e-7 -0.9999999998261713 -0.000018634200383929517
vn -6.512020148652827e-7 -0.9999999998261713 -0.000018634200383929517
vn -6.512020148652827e-7 -0.9999999998261713 -0.000018634200383929517
vn -0.000017888200087223647 -0.9999999997908338 0.00000991690012389818
vn -0.000017888200087223647 -0.9999999997908338 0.00000991690012389818
vn -0.000017888200087223647 -0.9999999997908338 0.00000991690012389818
vn 0.0000018833200096666985 -0.9999999997352356 -0.000022934300426025912
vn 0.0000018833200096666985 -0.9999999997352356 -0.000022934300426025912
vn 0.0000018833200096666985 -0.9999999997352356 -0.000022934300426025912
vn 0 -0.9999999999993543 0.000001136450009652611
vn 0 -0.9999999999993543 0.000001136450009652611
vn 0 -0.9999999999993543 0.000001136450009652611
vn -0.00003163409927091061 -0.999999999499354 -7.588529907318636e-7
vn -0.00003163409927091061 -0.999999999499354 -7.588529907318636e-7
vn -0.00003163409927091061 -0.999999999499354 -7.588529907318636e-7
vn 3.2923500713097606e-7 -0.9999999996171867 -0.00002766800024651668
vn 3.2923500713097606e-7 -0.9999999996171867 -0.00002766800024651668
vn 3.2923500713097606e-7 -0.9999999996171867 -0.00002766800024651668
vn 0.000004622880141373057 0.999999993951189 -0.00010989199587960421
vn 0.000004622880141373057 0.999999993951189 -0.00010989199587960421
vn 0.000004622880141373057 0.999999993951189 -0.00010989199587960421
vn 0.00004545599941734809 0.9999999982303371 0.00003838069817476952
vn 0.00004545599941734809 0.9999999982303371 0.00003838069817476952
vn 0.00004545599941734809 0.9999999982303371 0.00003838069817476952
vn 0.000017144300718167656 0.9999999994543216 0.00002823879911653175
vn 0.000017144300718167656 0.9999999994543216 0.00002823879911653175
vn 0.000017144300718167656 0.9999999994543216 0.00002823879911653175
vn -0.00009670659962877684 0.9999999884747363 -0.00011703999781898368
vn -0.00009670659962877684 0.9999999884747363 -0.00011703999781898368
vn -0.00009670659962877684 0.9999999884747363 -0.00011703999781898368
vn 0.00000963996990121867 0.9999999997924935 0.00001794670060544864
vn 0.00000963996990121867 0.9999999997924935 0.00001794670060544864
vn 0.00000963996990121867 0.9999999997924935 0.00001794670060544864
vn 0.0000016467599834786537 0.9999999999950258 0.000002690140036052332
vn 0.0000016467599834786537 0.9999999999950258 0.000002690140036052332
vn 0.0000016467599834786537 0.9999999999950258 0.000002690140036052332
vn 0.000030135299272429374 0.9999999986885337 0.000041410101348708646
vn 0.000030135299272429374 0.9999999986885337 0.000041410101348708646
vn 0.000030135299272429374 0.9999999986885337 0.000041410101348708646
vn -0.0000069262700888586195 0.9999999999759912 2.1056500542676214e-7
vn -0.0000069262700888586195 0.9999999999759912 2.1056500542676214e-7
vn -0.0000069262700888586195 0.9999999999759912 2.1056500542676214e-7
vn 0.000030439299715872703 0.9999999993713684 0.000018185499345627618
vn 0.000030439299715872703 0.9999999993713684 0.000018185499345627618
vn 0.000030439299715872703 0.9999999993713684 0.000018185499345627618
vn 0.000007776809976405562 0.9999999995394895 0.000029335000349553058
vn 0.000007776809976405562 0.9999999995394895 0.000029335000349553058
vn 0.000007776809976405562 0.9999999995394895 0.000029335000349553058
vn -0.000002472570031362557 0.9999999999902893 0.0000036480200833112124
vn -0.000002472570031362557 0.9999999999902893 0.0000036480200833112124
vn -0.000002472570031362557 0.9999999999902893 0.0000036480200833112124
vn -0.000013419000423386005 0.9999999999080935 0.0000019348299245434472
vn -0.000013419000423386005 0.9999999999080935 0.0000019348299245434472
vn -0.000013419000423386005 0.9999999999080935 0.0000019348299245434472
vn -0.000009724300054807707 0.9999999983393038 -0.00005680519816112453
vn -0.000009724300054807707 0.9999999983393038 -0.00005680519816112453
vn -0.000009724300054807707 0.9999999983393038 -0.00005680519816112453
vn 0.00005300209816587873 0.9999999867855425 -0.00015368699475130825
vn 0.00005300209816587873 0.9999999867855425 -0.00015368699475130825
vn 0.00005300209816587873 0.9999999867855425 -0.00015368699475130825
vn -0.000007046030077354581 0.9999999999626692 -0.0000050015000850132405
vn -0.000007046030077354581 0.9999999999626692 -0.0000050015000850132405
vn -0.000007046030077354581 0.9999999999626692 -0.0000050015000850132405
vn 0.000046355998895324656 0.9999999961266792 -0.00007481819891960837
vn 0.000046355998895324656 0.9999999961266792 -0.00007481819891960837
vn 0.000046355998895324656 0.9999999961266792 -0.00007481819891960837
vn 0.00003684180043664615 0.9999999992173236 -0.000014423399977738676
vn 0.00003684180043664615 0.9999999992173236 -0.000014423399977738676
vn 0.00003684180043664615 0.9999999992173236 -0.000014423399977738676
vn 0.00016218499108733728 0.999999975052609 -0.00015359300212999374
vn 0.00016218499108733728 0.999999975052609 -0.00015359300212999374
vn 0.00016218499108733728 0.999999975052609 -0.00015359300212999374
vn 0.000067055996344474 0.999999995834115 -0.00006192950215002902
vn 0.000067055996344474 0.999999995834115 -0.00006192950215002902
vn 0.000067055996344474 0.999999995834115 -0.00006192950215002902
vn 0.0001672049938268657 0.9999999724486451 -0.00016475800203714238
vn 0.0001672049938268657 0.9999999724486451 -0.00016475800203714238
vn 0.0001672049938268657 0.9999999724486451 -0.00016475800203714238
vn 0.00003684530014742186 0.9999999985433172 -0.000039443500951916324
vn 0.00003684530014742186 0.9999999985433172 -0.000039443500951916324
vn 0.00003684530014742186 0.9999999985433172 -0.000039443500951916324
vn 0.000368076008414127 0.9999999083582969 -0.0002186400003003399
vn 0.000368076008414127 0.9999999083582969 -0.0002186400003003399
vn 0.000368076008414127 0.9999999083582969 -0.0002186400003003399
vn 0.000071143796770967 0.9999999973641001 0.000014503800191928392
vn 0.000071143796770967 0.9999999973641001 0.000014503800191928392
vn 0.000071143796770967 0.9999999973641001 0.000014503800191928392
vn 0.000046983499134127524 0.9999999924810027 -0.0001132719981465515
vn 0.000046983499134127524 0.9999999924810027 -0.0001132719981465515
vn 0.000046983499134127524 0.9999999924810027 -0.0001132719981465515
vn -0.000012059799695787056 0.9999999995601272 -0.000027098099951121304
vn -0.000012059799695787056 0.9999999995601272 -0.000027098099951121304
vn -0.000012059799695787056 0.9999999995601272 -0.000027098099951121304
vn 0.000038715101225294054 0.999999999242047 -0.000004128839915719359
vn 0.000038715101225294054 0.999999999242047 -0.000004128839915719359
vn 0.000038715101225294054 0.999999999242047 -0.000004128839915719359
vn -0.000007011949946727146 0.99999999997533 -4.159319928373569e-7
vn -0.000007011949946727146 0.99999999997533 -4.159319928373569e-7
vn -0.000007011949946727146 0.99999999997533 -4.159319928373569e-7
vn -0.000004112980150187035 0.9999999999872904 -0.0000029159600671475813
vn -0.000004112980150187035 0.9999999999872904 -0.0000029159600671475813
vn -0.000004112980150187035 0.9999999999872904 -0.0000029159600671475813
vn -0.9959723285752613 -0.04759496418103969 0.07598578878301591
vn -0.9959723285752613 -0.04759496418103969 0.07598578878301591
vn -0.9959723285752613 -0.04759496418103969 0.07598578878301591
vn -0.873722590177644 0.06675278967194882 0.48182247818494467
vn -0.873722590177644 0.06675278967194882 0.48182247818494467
vn -0.873722590177644 0.06675278967194882 0.48182247818494467
vn -0.823849866009903 -0.07875286875275712 0.5613104167380792
vn -0.823849866009903 -0.07875286875275712 0.5613104167380792
vn -0.823849866009903 -0.07875286875275712 0.5613104167380792
vn -0.6375814126084713 0.05999850524891522 0.7680430467519916
vn -0.6375814126084713 0.05999850524891522 0.7680430467519916
vn -0.6375814126084713 0.05999850524891522 0.7680430467519916
vn -0.522584014846507 -0.06259918138083702 0.8502865928128908
vn -0.522584014846507 -0.06259918138083702 0.8502865928128908
vn -0.522584014846507 -0.06259918138083702 0.8502865928128908
vn -0.3324562087419798 0.06607090829393356 0.9408015222915638
vn -0.3324562087419798 0.06607090829393356 0.9408015222915638
vn -0.3324562087419798 0.06607090829393356 0.9408015222915638
vn -0.15630288533341483 -0.1047832898801983 0.9821353624619835
vn -0.15630288533341483 -0.1047832898801983 0.9821353624619835
vn -0.15630288533341483 -0.1047832898801983 0.9821353624619835
vn 0.06820429157333335 0.11808210682059783 0.9906587660036066
vn 0.06820429157333335 0.11808210682059783 0.9906587660036066
vn 0.06820429157333335 0.11808210682059783 0.9906587660036066
vn 0.37206370716784315 -0.09616166631928243 0.9232126145906048
vn 0.37206370716784315 -0.09616166631928243 0.9232126145906048
vn 0.37206370716784315 -0.09616166631928243 0.9232126145906048
vn 0.4591377589888942 0.04245941634251507 0.8873498274268775
vn 0.4591377589888942 0.04245941634251507 0.8873498274268775
vn 0.4591377589888942 0.04245941634251507 0.8873498274268775
vn 0.7694970090944895 -0.048721840705091515 0.6367892392565557
vn 0.7694970090944895 -0.048721840705091515 0.6367892392565557
vn 0.7694970090944895 -0.048721840705091515 0.6367892392565557
vn 0.8130375361402516 0.08748482398567492 0.5756008776914645
vn 0.8130375361402516 0.08748482398567492 0.5756008776914645
vn 0.8130375361402516 0.08748482398567492 0.5756008776914645
vn 0.9795906128625288 -0.11698539026098277 0.16345228556707564
vn 0.9795906128625288 -0.11698539026098277 0.16345228556707564
vn 0.9795906128625288 -0.11698539026098277 0.16345228556707564
vn -0.9996835954089891 0.02451222891999218 0.00564444005464449
vn -0.9996835954089891 0.02451222891999218 0.00564444005464449
vn -0.9996835954089891 0.02451222891999218 0.00564444005464449
vn -0.9968139303276113 -0.0510178234039609 0.06131207058925882
vn -0.9968139303276113 -0.0510178234039609 0.06131207058925882
vn -0.9968139303276113 -0.0510178234039609 0.06131207058925882
vn -0.9322799081017139 0.06197523480483496 0.3563891738265143
vn -0.9322799081017139 0.06197523480483496 0.3563891738265143
vn -0.9322799081017139 0.06197523480483496 0.3563891738265143
vn -0.8692919357735133 -0.1002170935770314 0.4840331234059408
vn -0.8692919357735133 -0.1002170935770314 0.4840331234059408
vn -0.8692919357735133 -0.1002170935770314 0.4840331234059408
vn -0.6725319832772783 0.11071099684680663 0.7317402590033687
vn -0.6725319832772783 0.11071099684680663 0.7317402590033687
vn -0.6725319832772783 0.11071099684680663 0.7317402590033687
vn -0.5453072144142513 -0.08236253191873526 0.8341801095948674
vn -0.5453072144142513 -0.08236253191873526 0.8341801095948674
vn -0.5453072144142513 -0.08236253191873526 0.8341801095948674
vn -0.2642577023916818 0.06531786251207514 0.9622377271566123
vn -0.2642577023916818 0.06531786251207514 0.9622377271566123
vn -0.2642577023916818 0.06531786251207514 0.9622377271566123
vn -0.20539303086011146 -0.015368461580498387 0.9785588961645315
vn -0.20539303086011146 -0.015368461580498387 0.9785588961645315
vn -0.20539303086011146 -0.015368461580498387 0.9785588961645315
vn 0.15088430081069232 -0.015350990032013187 0.98843223079476
vn 0.15088430081069232 -0.015350990032013187 0.98843223079476
vn 0.15088430081069232 -0.015350990032013187 0.98843223079476
vn 0.23299399597514284 0.09927409389052694 0.9673977734736369
vn 0.23299399597514284 0.09927409389052694 0.9673977734736369
vn 0.23299399597514284 0.09927409389052694 0.9673977734736369
vn 0.4886658225492011 -0.10502630544851604 0.8661265433157833
vn 0.4886658225492011 -0.10502630544851604 0.8661265433157833
vn 0.4886658225492011 -0.10502630544851604 0.8661265433157833
vn 0.7190973375641516 0.09979050902060096 0.6877069676959497
vn 0.7190973375641516 0.09979050902060096 0.6877069676959497
vn 0.7190973375641516 0.09979050902060096 0.6877069676959497
vn 0.8101807262736596 -0.09394752264445316 0.5786026734847114
vn 0.8101807262736596 -0.09394752264445316 0.5786026734847114
vn 0.8101807262736596 -0.09394752264445316 0.5786026734847114
vn 0.9521096342697674 0.11138030879555276 0.284748434839065
vn 0.9521096342697674 0.11138030879555276 0.284748434839065
vn 0.9521096342697674 0.11138030879555276 0.284748434839065
vn 0.9930595873354119 -0.1017976042780572 0.05890588904744265
vn 0.9930595873354119 -0.1017976042780572 0.05890588904744265
vn 0.9930595873354119 -0.1017976042780572 0.05890588904744265
f 1//1 2//2 3//3
f 4//4 5//5 6//6
f 7//7 8//8 9//9
f 10//10 11//11 12//12
f 13//13 14//14 15//15
f 16//16 17//17 18//18
f 19//19 20//20 21//21
f 22//22 23//23 24//24
f 25//25 26//26 27//27
f 28//28 29//29 30//30
f 31//31 32//32 33//33
f 34//34 35//35 36//36
f 37//37 38//38 39//39
f 40//40 41//41 42//42
f 43//43 44//44 45//45
f 46//46 47//47 48//48
f 49//49 50//50 51//51
f 52//52 53//53 54//54
f 55//55 56//56 57//57
f 58//58 59//59 60//60
f 61//61 62//62 63//63
f 64//64 65//65 66//66
f 67//67 68//68 69//69
f 70//70 71//71 72//72
f 73//73 74//74 75//75
f 76//76 77//77 78//78
f 79//79 80//80 81//81
f 82//82 83//83 84//84
f 85//85 86//86 87//87
f 88//88 89//89 90//90
f 91//91 92//92 93//93
f 94//94 95//95 96//96
f 97//97 98//98 99//99
f 100//100 101//101 102//102
f 103//103 104//104 105//105
f 106//106 107//107 108//108
f 109//109 110//110 111//111
f 112//112 113//113 114//114
f 115//115 116//116 117//117
f 118//118 119//119 120//120
f 121//121 122//122 123//123
f 124//124 125//125 126//126
f 127//127 128//128 129//129
f 130//130 131//131 132//132
f 133//133 134//134 135//135
f 136//136 137//137 138//138
f 139//139 140//140 141//141
f 142//142 143//143 144//144
f 145//145 146//146 147//147
f 148//148 149//149 150//150
f 151//151 152//152 153//153
f 154//154 155//155 156//156
f 157//157 158//158 159//159
f 160//160 161//161 162//162
f 163//163 164//164 165//165
f 166//166 167//167 168//168
f 169//169 170//170 171//171
f 172//172 173//173 174//174
f 175//175 176//176 177//177
f 178//178 179//179 180//180
f 181//181 182//182 183//183
f 184//184 185//185 186//186
f 187//187 188//188 189//189
f 190//190 191//191 192//192
f 193//193 194//194 195//195
f 196//196 197//197 198//198
f 199//199 200//200 201//201
f 202//202 203//203 204//204
f 205//205 206//206 207//207
f 208//208 209//209 210//210
f 211//211 212//212 213//213
f 214//214 215//215 216//216
f 217//217 218//218 219//219
f 220//220 221//221 222//222
f 223//223 224//224 225//225
f 226//226 227//227 228//228
f 229//229 230//230 231//231
f 232//232 233//233 234//234
f 235//235 236//236 237//237
f 238//238 239//239 240//240
f 241//241 242//242 243//243
f 244//244 245//245 246//246
f 247//247 248//248 249//249
f 250//250 251//251 252//252
f 253//253 254//254 255//255
f 256//256 257//257 258//258
f 259//259 260//260 261//261
f 262//262 263//263 264//264
f 265//265 266//266 267//267
f 268//268 269//269 270//270
f 271//271 272//272 273//273
f 274//274 275//275 276//276
f 277//277 278//278 279//279
f 280//280 281//281 282//282
f 283//283 284//284 285//285
f 286//286 287//287 288//288
f 289//289 290//290 291//291
f 292//292 293//293 294//294
f 295//295 296//296 297//297
f 298//298 299//299 300//300
f 301//301 302//302 303//303
f 304//304 305//305 306//306
f 307//307 308//308 309//309
f 310//310 311//311 312//312
f 313//313 314//314 315//315
f 316//316 317//317 318//318
f 319//319 320//320 321//321
f 322//322 323//323 324//324
f 325//325 326//326 327//327
f 328//328 329//329 330//330
