o 5b3aea852d36660f8dc55aaa
usemtl Material0
v 0.0406000018119812 -0.004346040077507496 -0.002400000113993883
v 0.0406000018119812 -0.00466356985270977 -0.002400000113993883
v 0.0406000018119812 -0.0046629998832941055 -0.0032735499553382397
v 0.03963610157370567 -0.005794229917228222 -0.002400000113993883
v 0.039291199296712875 -0.006395149976015091 -0.003171789925545454
v 0.03920910134911537 -0.006416140124201775 -0.0029158201068639755
v 0.03963610157370567 -0.005794229917228222 -0.002400000113993883
v 0.03920910134911537 -0.006416140124201775 -0.0029158201068639755
v 0.03913030028343201 -0.006432500202208757 -0.0026584600564092398
v 0.03963610157370567 -0.005794229917228222 -0.002400000113993883
v 0.03913030028343201 -0.006432500202208757 -0.0026584600564092398
v 0.0390545018017292 -0.006444919854402542 -0.002400000113993883
v 0.03937729820609093 -0.006368619855493307 -0.0034259299281984568
v 0.039291199296712875 -0.006395149976015091 -0.003171789925545454
v 0.03963610157370567 -0.005794229917228222 -0.002400000113993883
v 0.03946809843182564 -0.006335330195724964 -0.0036776300985366106
v 0.03963610157370567 -0.005794229917228222 -0.002400000113993883
v 0.039564598351716995 -0.006293530110269785 -0.003925899975001812
v 0.03946809843182564 -0.006335330195724964 -0.0036776300985366106
v 0.03937729820609093 -0.006368619855493307 -0.0034259299281984568
v 0.03963610157370567 -0.005794229917228222 -0.002400000113993883
v 0.03966829925775528 -0.006240630056709051 -0.004169059917330742
v 0.03963610157370567 -0.005794229917228222 -0.002400000113993883
v 0.03978149965405464 -0.00617250008508563 -0.0044040498323738575
v 0.03966829925775528 -0.006240630056709051 -0.004169059917330742
v 0.039564598351716995 -0.006293530110269785 -0.003925899975001812
v 0.03963610157370567 -0.005794229917228222 -0.002400000113993883
v 0.03990739956498146 -0.006082190200686455 -0.0046244398690760136
v 0.03963610157370567 -0.005794229917228222 -0.002400000113993883
v 0.04005130007863045 -0.00595661997795105 -0.004813760053366423
v 0.03990739956498146 -0.006082190200686455 -0.0046244398690760136
v 0.03978149965405464 -0.00617250008508563 -0.0044040498323738575
v 0.03963610157370567 -0.005794229917228222 -0.002400000113993883
v 0.03963610157370567 -0.005794229917228222 -0.002400000113993883
v 0.04015130177140236 -0.005094610154628754 -0.002400000113993883
v 0.04021390154957771 -0.005777209997177124 -0.004924499895423651
v 0.04021390154957771 -0.005777209997177124 -0.004924499895423651
v 0.04005130007863045 -0.00595661997795105 -0.004813760053366423
v 0.03963610157370567 -0.005794229917228222 -0.002400000113993883
v 0.04015130177140236 -0.005094610154628754 -0.002400000113993883
v 0.04045350104570389 -0.005373990163207054 -0.00470591988414526
v 0.040359798818826675 -0.005561660043895245 -0.004873869940638542
v 0.04021390154957771 -0.005777209997177124 -0.004924499895423651
v 0.04015130177140236 -0.005094610154628754 -0.002400000113993883
v 0.040359798818826675 -0.005561660043895245 -0.004873869940638542
v 0.04015130177140236 -0.005094610154628754 -0.002400000113993883
v 0.0405506007373333 -0.005082990042865276 -0.004264120012521744
v 0.04051240161061287 -0.005217850208282471 -0.0044944798573851585
v 0.04045350104570389 -0.005373990163207054 -0.00470591988414526
v 0.04015130177140236 -0.005094610154628754 -0.002400000113993883
v 0.04051240161061287 -0.005217850208282471 -0.0044944798573851585
v 0.04015130177140236 -0.005094610154628754 -0.002400000113993883
v 0.04058989882469177 -0.004855419974774122 -0.0037771400529891253
v 0.04057500138878822 -0.00496360007673502 -0.004023659974336624
v 0.0405506007373333 -0.005082990042865276 -0.004264120012521744
v 0.04015130177140236 -0.005094610154628754 -0.002400000113993883
v 0.04057500138878822 -0.00496360007673502 -0.004023659974336624
v 0.04015130177140236 -0.005094610154628754 -0.002400000113993883
v 0.0406000018119812 -0.0046629998832941055 -0.0032735499553382397
v 0.04059769958257675 -0.004755809903144836 -0.003526699962094426
v 0.04058989882469177 -0.004855419974774122 -0.0037771400529891253
v 0.04015130177140236 -0.005094610154628754 -0.002400000113993883
v 0.04059769958257675 -0.004755809903144836 -0.003526699962094426
v 0.04015130177140236 -0.005094610154628754 -0.002400000113993883
v 0.0406000018119812 -0.004346040077507496 -0.002400000113993883
v 0.0406000018119812 -0.0046629998832941055 -0.0032735499553382397
v 0.04015130177140236 -0.005094610154628754 -0.002400000113993883
v 0.0405799001455307 -0.004931440111249685 -0.002400000113993883
v 0.0406000018119812 -0.00466356985270977 -0.002400000113993883
v 0.03963610157370567 -0.005794229917228222 -0.002400000113993883
v 0.039316799491643906 -0.0063872202299535275 -0.002400000113993883
v 0.039578601717948914 -0.00628589978441596 -0.002400000113993883
v 0.04051649942994118 -0.00520492997020483 -0.002400000113993883
v 0.04015130177140236 -0.005094610154628754 -0.002400000113993883
v 0.040407098829746246 -0.005473619792610407 -0.002400000113993883
v 0.04051649942994118 -0.00520492997020483 -0.002400000113993883
v 0.0405799001455307 -0.004931440111249685 -0.002400000113993883
v 0.04015130177140236 -0.005094610154628754 -0.002400000113993883
v 0.0406000018119812 -0.004346040077507496 -0.002400000113993883
v 0.04015130177140236 -0.005094610154628754 -0.002400000113993883
v 0.0406000018119812 -0.00466356985270977 -0.002400000113993883
v 0.040407098829746246 -0.005473619792610407 -0.002400000113993883
v 0.04015130177140236 -0.005094610154628754 -0.002400000113993883
v 0.040252599865198135 -0.005726050119847059 -0.002400000113993883
v 0.04015130177140236 -0.005094610154628754 -0.002400000113993883
v 0.03963610157370567 -0.005794229917228222 -0.002400000113993883
v 0.04005730152130127 -0.005951140075922012 -0.002400000113993883
v 0.040252599865198135 -0.005726050119847059 -0.002400000113993883
v 0.04015130177140236 -0.005094610154628754 -0.002400000113993883
v 0.04005730152130127 -0.005951140075922012 -0.002400000113993883
v 0.04005730152130127 -0.005951140075922012 -0.002400000113993883
v 0.03963610157370567 -0.005794229917228222 -0.002400000113993883
v 0.03982910141348839 -0.006139770150184631 -0.002400000113993883
v 0.03982910141348839 -0.006139770150184631 -0.002400000113993883
v 0.03963610157370567 -0.005794229917228222 -0.002400000113993883
v 0.039578601717948914 -0.00628589978441596 -0.002400000113993883
v 0.0390545018017292 -0.006444919854402542 -0.002400000113993883
v 0.039316799491643906 -0.0063872202299535275 -0.002400000113993883
v 0.03963610157370567 -0.005794229917228222 -0.002400000113993883
v 0.040407098829746246 -0.005473619792610407 -0.002400000113993883
v 0.04045350104570389 -0.005373990163207054 -0.00470591988414526
v 0.04051649942994118 -0.00520492997020483 -0.002400000113993883
v 0.0405799001455307 -0.004931440111249685 -0.002400000113993883
v 0.04058989882469177 -0.004855419974774122 -0.0037771400529891253
v 0.04059769958257675 -0.004755809903144836 -0.003526699962094426
v 0.03982910141348839 -0.006139770150184631 -0.002400000113993883
v 0.03966829925775528 -0.006240630056709051 -0.004169059917330742
v 0.03978149965405464 -0.00617250008508563 -0.0044040498323738575
v 0.04021390154957771 -0.005777209997177124 -0.004924499895423651
v 0.04005730152130127 -0.005951140075922012 -0.002400000113993883
v 0.04005130007863045 -0.00595661997795105 -0.004813760053366423
v 0.039316799491643906 -0.0063872202299535275 -0.002400000113993883
v 0.03937729820609093 -0.006368619855493307 -0.0034259299281984568
v 0.03946809843182564 -0.006335330195724964 -0.0036776300985366106
v 0.03946809843182564 -0.006335330195724964 -0.0036776300985366106
v 0.039564598351716995 -0.006293530110269785 -0.003925899975001812
v 0.039578601717948914 -0.00628589978441596 -0.002400000113993883
v 0.03913030028343201 -0.006432500202208757 -0.0026584600564092398
v 0.03920910134911537 -0.006416140124201775 -0.0029158201068639755
v 0.039316799491643906 -0.0063872202299535275 -0.002400000113993883
v 0.039316799491643906 -0.0063872202299535275 -0.002400000113993883
v 0.03920910134911537 -0.006416140124201775 -0.0029158201068639755
v 0.039291199296712875 -0.006395149976015091 -0.003171789925545454
v 0.03937729820609093 -0.006368619855493307 -0.0034259299281984568
v 0.039316799491643906 -0.0063872202299535275 -0.002400000113993883
v 0.039291199296712875 -0.006395149976015091 -0.003171789925545454
v 0.03913030028343201 -0.006432500202208757 -0.0026584600564092398
v 0.039316799491643906 -0.0063872202299535275 -0.002400000113993883
v 0.0390545018017292 -0.006444919854402542 -0.002400000113993883
v 0.039564598351716995 -0.006293530110269785 -0.003925899975001812
v 0.03966829925775528 -0.006240630056709051 -0.004169059917330742
v 0.039578601717948914 -0.00628589978441596 -0.002400000113993883
v 0.03946809843182564 -0.006335330195724964 -0.0036776300985366106
v 0.039578601717948914 -0.00628589978441596 -0.002400000113993883
v 0.039316799491643906 -0.0063872202299535275 -0.002400000113993883
v 0.03978149965405464 -0.00617250008508563 -0.0044040498323738575
v 0.03990739956498146 -0.006082190200686455 -0.0046244398690760136
v 0.03982910141348839 -0.006139770150184631 -0.002400000113993883
v 0.039578601717948914 -0.00628589978441596 -0.002400000113993883
v 0.03966829925775528 -0.006240630056709051 -0.004169059917330742
v 0.03982910141348839 -0.006139770150184631 -0.002400000113993883
v 0.04005130007863045 -0.00595661997795105 -0.004813760053366423
v 0.04005730152130127 -0.005951140075922012 -0.002400000113993883
v 0.03990739956498146 -0.006082190200686455 -0.0046244398690760136
v 0.03982910141348839 -0.006139770150184631 -0.002400000113993883
v 0.03990739956498146 -0.006082190200686455 -0.0046244398690760136
v 0.04005730152130127 -0.005951140075922012 -0.002400000113993883
v 0.040359798818826675 -0.005561660043895245 -0.004873869940638542
v 0.040252599865198135 -0.005726050119847059 -0.002400000113993883
v 0.04021390154957771 -0.005777209997177124 -0.004924499895423651
v 0.04021390154957771 -0.005777209997177124 -0.004924499895423651
v 0.040252599865198135 -0.005726050119847059 -0.002400000113993883
v 0.04005730152130127 -0.005951140075922012 -0.002400000113993883
v 0.040359798818826675 -0.005561660043895245 -0.004873869940638542
v 0.04045350104570389 -0.005373990163207054 -0.00470591988414526
v 0.040407098829746246 -0.005473619792610407 -0.002400000113993883
v 0.040407098829746246 -0.005473619792610407 -0.002400000113993883
v 0.040252599865198135 -0.005726050119847059 -0.002400000113993883
v 0.040359798818826675 -0.005561660043895245 -0.004873869940638542
v 0.04051240161061287 -0.005217850208282471 -0.0044944798573851585
v 0.0405506007373333 -0.005082990042865276 -0.004264120012521744
v 0.04051649942994118 -0.00520492997020483 -0.002400000113993883
v 0.04051649942994118 -0.00520492997020483 -0.002400000113993883
v 0.04045350104570389 -0.005373990163207054 -0.00470591988414526
v 0.04051240161061287 -0.005217850208282471 -0.0044944798573851585
v 0.0405799001455307 -0.004931440111249685 -0.002400000113993883
v 0.0405506007373333 -0.005082990042865276 -0.004264120012521744
v 0.04057500138878822 -0.00496360007673502 -0.004023659974336624
v 0.0405506007373333 -0.005082990042865276 -0.004264120012521744
v 0.0405799001455307 -0.004931440111249685 -0.002400000113993883
v 0.04051649942994118 -0.00520492997020483 -0.002400000113993883
v 0.04059769958257675 -0.004755809903144836 -0.003526699962094426
v 0.0406000018119812 -0.00466356985270977 -0.002400000113993883
v 0.0405799001455307 -0.004931440111249685 -0.002400000113993883
v 0.04057500138878822 -0.00496360007673502 -0.004023659974336624
v 0.04058989882469177 -0.004855419974774122 -0.0037771400529891253
v 0.0405799001455307 -0.004931440111249685 -0.002400000113993883
v 0.0406000018119812 -0.00466356985270977 -0.002400000113993883
v 0.04059769958257675 -0.004755809903144836 -0.003526699962094426
v 0.0406000018119812 -0.0046629998832941055 -0.0032735499553382397
f 1 2 3
f 4 5 6
f 7 8 9
f 10 11 12
f 13 14 15
f 16 17 18
f 19 20 21
f 22 23 24
f 25 26 27
f 28 29 30
f 31 32 33
f 34 35 36
f 37 38 39
f 40 41 42
f 43 44 45
f 46 47 48
f 49 50 51
f 52 53 54
f 55 56 57
f 58 59 60
f 61 62 63
f 64 65 66
f 67 68 69
f 70 71 72
f 73 74 75
f 76 77 78
f 79 80 81
f 82 83 84
f 85 86 87
f 88 89 90
f 91 92 93
f 94 95 96
f 97 98 99
f 100 101 102
f 103 104 105
f 106 107 108
f 109 110 111
f 112 113 114
f 115 116 117
f 118 119 120
f 121 122 123
f 124 125 126
f 127 128 129
f 130 131 132
f 133 134 135
f 136 137 138
f 139 140 141
f 142 143 144
f 145 146 147
f 148 149 150
f 151 152 153
f 154 155 156
f 157 158 159
f 160 161 162
f 163 164 165
f 166 167 168
f 169 170 171
f 172 173 174
f 175 176 177
f 178 179 180
