o 5b3aea852d36660f8dc55aaa
usemtl Material0
v 0.019750000908970833 0.0023900000378489494 -0.010990000329911709
v 0.01986750029027462 0.002372350078076124 -0.010990000329911709
v 0.019807999953627586 0.002385779982432723 -0.010990000329911709
v 0.014750000089406967 -0.002309999894350767 -0.010990000329911709
v 0.014632499776780605 -0.002292349934577942 -0.010990000329911709
v 0.014692000113427639 -0.0023057800717651844 -0.010990000329911709
v 0.01992649957537651 0.0023489498998969793 -0.010990000329911709
v 0.019750000908970833 0.0023900000378489494 -0.010990000329911709
v 0.01998239941895008 0.002315530087798834 -0.010990000329911709
v 0.01992649957537651 0.0023489498998969793 -0.010990000329911709
v 0.01986750029027462 0.002372350078076124 -0.010990000329911709
v 0.019750000908970833 0.0023900000378489494 -0.010990000329911709
v 0.02003280073404312 0.002272839890792966 -0.010990000329911709
v 0.019750000908970833 0.0023900000378489494 -0.010990000329911709
v 0.020075500011444092 0.0022224399726837873 -0.010990000329911709
v 0.02003280073404312 0.002272839890792966 -0.010990000329911709
v 0.01998239941895008 0.002315530087798834 -0.010990000329911709
v 0.019750000908970833 0.0023900000378489494 -0.010990000329911709
v 0.020075500011444092 0.0022224399726837873 -0.010990000329911709
v 0.019750000908970833 0.0023900000378489494 -0.010990000329911709
v 0.020108899101614952 0.0021665100939571857 -0.010990000329911709
v 0.019750000908970833 0.0023900000378489494 -0.010990000329911709
v 0.020145799964666367 0.0020479699596762657 -0.010990000329911709
v 0.02013229951262474 0.002107529900968075 -0.010990000329911709
v 0.020108899101614952 0.0021665100939571857 -0.010990000329911709
v 0.019750000908970833 0.0023900000378489494 -0.010990000329911709
v 0.02013229951262474 0.002107529900968075 -0.010990000329911709
v 0.020145799964666367 0.0020479699596762657 -0.010990000329911709
v 0.019750000908970833 0.0023900000378489494 -0.010990000329911709
v 0.020150000229477882 0.001990000018849969 -0.010990000329911709
v 0.014354200102388859 -0.001967970049008727 -0.010990000329911709
v 0.014750000089406967 -0.002309999894350767 -0.010990000329911709
v 0.014349999837577343 -0.0019099999917671084 -0.010990000329911709
v 0.01992649957537651 -0.0022689499892294407 -0.010990000329911709
v 0.019750000908970833 -0.002309999894350767 -0.010990000329911709
v 0.01986750029027462 -0.002292349934577942 -0.010990000329911709
v 0.019807999953627586 -0.0023057800717651844 -0.010990000329911709
v 0.01986750029027462 -0.002292349934577942 -0.010990000329911709
v 0.019750000908970833 -0.002309999894350767 -0.010990000329911709
v 0.01998239941895008 -0.0022355299443006516 -0.010990000329911709
v 0.02003280073404312 -0.0021928399801254272 -0.010990000329911709
v 0.019750000908970833 -0.002309999894350767 -0.010990000329911709
v 0.01998239941895008 -0.0022355299443006516 -0.010990000329911709
v 0.019750000908970833 -0.002309999894350767 -0.010990000329911709
v 0.01992649957537651 -0.0022689499892294407 -0.010990000329911709
v 0.019750000908970833 -0.002309999894350767 -0.010990000329911709
v 0.020075500011444092 -0.0021424400620162487 -0.010990000329911709
v 0.020108899101614952 -0.0020865099504590034 -0.010990000329911709
v 0.02003280073404312 -0.0021928399801254272 -0.010990000329911709
v 0.020075500011444092 -0.0021424400620162487 -0.010990000329911709
v 0.019750000908970833 -0.002309999894350767 -0.010990000329911709
v 0.020145799964666367 -0.001967970049008727 -0.010990000329911709
v 0.019750000908970833 -0.002309999894350767 -0.010990000329911709
v 0.02013229951262474 -0.002027519978582859 -0.010990000329911709
v 0.019750000908970833 -0.002309999894350767 -0.010990000329911709
v 0.020108899101614952 -0.0020865099504590034 -0.010990000329911709
v 0.02013229951262474 -0.002027519978582859 -0.010990000329911709
v 0.014750000089406967 -0.002309999894350767 -0.010990000329911709
v 0.019750000908970833 -0.002309999894350767 -0.010990000329911709
v 0.014349999837577343 -0.0019099999917671084 -0.010990000329911709
v 0.020150000229477882 -0.0019099999917671084 -0.010990000329911709
v 0.019750000908970833 -0.002309999894350767 -0.010990000329911709
v 0.020145799964666367 -0.001967970049008727 -0.010990000329911709
v 0.014750000089406967 -0.002309999894350767 -0.010990000329911709
v 0.014354200102388859 -0.001967970049008727 -0.010990000329911709
v 0.01436769962310791 -0.002027519978582859 -0.010990000329911709
v 0.01457349956035614 -0.0022689499892294407 -0.010990000329911709
v 0.014750000089406967 -0.002309999894350767 -0.010990000329911709
v 0.01451759971678257 -0.0022355299443006516 -0.010990000329911709
v 0.01457349956035614 -0.0022689499892294407 -0.010990000329911709
v 0.014632499776780605 -0.002292349934577942 -0.010990000329911709
v 0.014750000089406967 -0.002309999894350767 -0.010990000329911709
v 0.014467200264334679 -0.0021928399801254272 -0.010990000329911709
v 0.014750000089406967 -0.002309999894350767 -0.010990000329911709
v 0.014424500055611134 -0.0021424400620162487 -0.010990000329911709
v 0.014467200264334679 -0.0021928399801254272 -0.010990000329911709
v 0.01451759971678257 -0.0022355299443006516 -0.010990000329911709
v 0.014750000089406967 -0.002309999894350767 -0.010990000329911709
v 0.014391000382602215 -0.0020865099504590034 -0.010990000329911709
v 0.014750000089406967 -0.002309999894350767 -0.010990000329911709
v 0.01436769962310791 -0.002027519978582859 -0.010990000329911709
v 0.014391000382602215 -0.0020865099504590034 -0.010990000329911709
v 0.014424500055611134 -0.0021424400620162487 -0.010990000329911709
v 0.014750000089406967 -0.002309999894350767 -0.010990000329911709
v 0.014349999837577343 0.001990000018849969 -0.010990000329911709
v 0.014349999837577343 -0.0019099999917671084 -0.010990000329911709
v 0.020150000229477882 -0.0019099999917671084 -0.010990000329911709
v 0.019750000908970833 -0.002309999894350767 -0.010990000329911709
v 0.020150000229477882 -0.0019099999917671084 -0.010990000329911709
v 0.014349999837577343 -0.0019099999917671084 -0.010990000329911709
v 0.020150000229477882 0.001990000018849969 -0.010990000329911709
v 0.014349999837577343 0.001990000018849969 -0.010990000329911709
v 0.020150000229477882 -0.0019099999917671084 -0.010990000329911709
v 0.014750000089406967 0.0023900000378489494 -0.010990000329911709
v 0.014349999837577343 0.001990000018849969 -0.010990000329911709
v 0.020150000229477882 0.001990000018849969 -0.010990000329911709
v 0.014692000113427639 0.002385779982432723 -0.010990000329911709
v 0.014632499776780605 0.002372350078076124 -0.010990000329911709
v 0.014750000089406967 0.0023900000378489494 -0.010990000329911709
v 0.014750000089406967 0.0023900000378489494 -0.010990000329911709
v 0.01457349956035614 0.0023489498998969793 -0.010990000329911709
v 0.01451759971678257 0.002315530087798834 -0.010990000329911709
v 0.014632499776780605 0.002372350078076124 -0.010990000329911709
v 0.01457349956035614 0.0023489498998969793 -0.010990000329911709
v 0.014750000089406967 0.0023900000378489494 -0.010990000329911709
v 0.014424500055611134 0.0022224399726837873 -0.010990000329911709
v 0.014750000089406967 0.0023900000378489494 -0.010990000329911709
v 0.014467200264334679 0.002272839890792966 -0.010990000329911709
v 0.014750000089406967 0.0023900000378489494 -0.010990000329911709
v 0.01451759971678257 0.002315530087798834 -0.010990000329911709
v 0.014467200264334679 0.002272839890792966 -0.010990000329911709
v 0.014750000089406967 0.0023900000378489494 -0.010990000329911709
v 0.014424500055611134 0.0022224399726837873 -0.010990000329911709
v 0.014391000382602215 0.0021665100939571857 -0.010990000329911709
v 0.014750000089406967 0.0023900000378489494 -0.010990000329911709
v 0.01436769962310791 0.002107529900968075 -0.010990000329911709
v 0.014354200102388859 0.0020479699596762657 -0.010990000329911709
v 0.014391000382602215 0.0021665100939571857 -0.010990000329911709
v 0.01436769962310791 0.002107529900968075 -0.010990000329911709
v 0.014750000089406967 0.0023900000378489494 -0.010990000329911709
v 0.014750000089406967 0.0023900000378489494 -0.010990000329911709
v 0.014354200102388859 0.0020479699596762657 -0.010990000329911709
v 0.014349999837577343 0.001990000018849969 -0.010990000329911709
v 0.014750000089406967 0.0023900000378489494 -0.010990000329911709
v 0.020150000229477882 0.001990000018849969 -0.010990000329911709
v 0.019750000908970833 0.0023900000378489494 -0.010990000329911709
v 0.020150000229477882 0.001990000018849969 -0.011470000259578228
v 0.020150000229477882 0.001990000018849969 -0.010990000329911709
v 0.020150000229477882 -0.0019099999917671084 -0.010990000329911709
v 0.020150000229477882 0.001990000018849969 -0.011470000259578228
v 0.020150000229477882 -0.0019099999917671084 -0.010990000329911709
v 0.020150000229477882 -0.0019099999917671084 -0.011470000259578228
v 0.019807999953627586 0.002385779982432723 -0.010990000329911709
v 0.019750000908970833 0.0023900000378489494 -0.011470000259578228
v 0.019750000908970833 0.0023900000378489494 -0.010990000329911709
v 0.01998239941895008 0.002315530087798834 -0.010990000329911709
v 0.019931700080633163 0.002346340101212263 -0.011470000259578228
v 0.01992649957537651 0.0023489498998969793 -0.010990000329911709
v 0.01986750029027462 0.002372350078076124 -0.010990000329911709
v 0.01987360045313835 0.0023704099003225565 -0.011470000259578228
v 0.019812600687146187 0.0023850700818002224 -0.011470000259578228
v 0.020073700696229935 0.0022250099573284388 -0.011470000259578228
v 0.020075500011444092 0.0022224399726837873 -0.010990000329911709
v 0.020108899101614952 0.0021665100939571857 -0.010990000329911709
v 0.019985200837254524 0.0023135601077228785 -0.011470000259578228
v 0.02003280073404312 0.002272839890792966 -0.010990000329911709
v 0.02003289945423603 0.002272719983011484 -0.011470000259578228
v 0.020130500197410583 0.0021134898997843266 -0.011470000259578228
v 0.02013229951262474 0.002107529900968075 -0.010990000329911709
v 0.020145799964666367 0.0020479699596762657 -0.010990000329911709
v 0.02013229951262474 0.002107529900968075 -0.010990000329911709
v 0.020130500197410583 0.0021134898997843266 -0.011470000259578228
v 0.020106399431824684 0.0021714800968766212 -0.011470000259578228
v 0.020150000229477882 0.001990000018849969 -0.010990000329911709
v 0.020145099610090256 0.002052620053291321 -0.011470000259578228
v 0.020145799964666367 0.0020479699596762657 -0.010990000329911709
v 0.020130500197410583 0.0021134898997843266 -0.011470000259578228
v 0.020145799964666367 0.0020479699596762657 -0.010990000329911709
v 0.020145099610090256 0.002052620053291321 -0.011470000259578228
v 0.020150000229477882 0.001990000018849969 -0.011470000259578228
v 0.020145099610090256 0.002052620053291321 -0.011470000259578228
v 0.020150000229477882 0.001990000018849969 -0.010990000329911709
v 0.020106399431824684 0.0021714800968766212 -0.011470000259578228
v 0.020073700696229935 0.0022250099573284388 -0.011470000259578228
v 0.020108899101614952 0.0021665100939571857 -0.010990000329911709
v 0.020108899101614952 0.0021665100939571857 -0.010990000329911709
v 0.02013229951262474 0.002107529900968075 -0.010990000329911709
v 0.020106399431824684 0.0021714800968766212 -0.011470000259578228
v 0.02003289945423603 0.002272719983011484 -0.011470000259578228
v 0.02003280073404312 0.002272839890792966 -0.010990000329911709
v 0.020075500011444092 0.0022224399726837873 -0.010990000329911709
v 0.02003289945423603 0.002272719983011484 -0.011470000259578228
v 0.020075500011444092 0.0022224399726837873 -0.010990000329911709
v 0.020073700696229935 0.0022250099573284388 -0.011470000259578228
v 0.019985200837254524 0.0023135601077228785 -0.011470000259578228
v 0.019931700080633163 0.002346340101212263 -0.011470000259578228
v 0.01998239941895008 0.002315530087798834 -0.010990000329911709
v 0.019985200837254524 0.0023135601077228785 -0.011470000259578228
v 0.01998239941895008 0.002315530087798834 -0.010990000329911709
v 0.02003280073404312 0.002272839890792966 -0.010990000329911709
v 0.01992649957537651 0.0023489498998969793 -0.010990000329911709
v 0.01987360045313835 0.0023704099003225565 -0.011470000259578228
v 0.01986750029027462 0.002372350078076124 -0.010990000329911709
v 0.019931700080633163 0.002346340101212263 -0.011470000259578228
v 0.01987360045313835 0.0023704099003225565 -0.011470000259578228
v 0.01992649957537651 0.0023489498998969793 -0.010990000329911709
v 0.019807999953627586 0.002385779982432723 -0.010990000329911709
v 0.019812600687146187 0.0023850700818002224 -0.011470000259578228
v 0.019750000908970833 0.0023900000378489494 -0.011470000259578228
v 0.01986750029027462 0.002372350078076124 -0.010990000329911709
v 0.019812600687146187 0.0023850700818002224 -0.011470000259578228
v 0.019807999953627586 0.002385779982432723 -0.010990000329911709
v 0.014750000089406967 0.0023900000378489494 -0.011470000259578228
v 0.019750000908970833 0.0023900000378489494 -0.010990000329911709
v 0.019750000908970833 0.0023900000378489494 -0.011470000259578228
v 0.019750000908970833 0.0023900000378489494 -0.010990000329911709
v 0.014750000089406967 0.0023900000378489494 -0.011470000259578228
v 0.014750000089406967 0.0023900000378489494 -0.010990000329911709
v 0.014354200102388859 0.0020479699596762657 -0.010990000329911709
v 0.014349999837577343 0.001990000018849969 -0.011470000259578228
v 0.014349999837577343 0.001990000018849969 -0.010990000329911709
v 0.014424500055611134 0.0022224399726837873 -0.010990000329911709
v 0.014393700286746025 0.0021717099007219076 -0.011470000259578228
v 0.014391000382602215 0.0021665100939571857 -0.010990000329911709
v 0.01436769962310791 0.002107529900968075 -0.010990000329911709
v 0.0143696004524827 0.0021136400755494833 -0.011470000259578228
v 0.01435490045696497 0.002052620053291321 -0.011470000259578228
v 0.014515000395476818 0.00231368001550436 -0.011470000259578228
v 0.01451759971678257 0.002315530087798834 -0.010990000329911709
v 0.01457349956035614 0.0023489498998969793 -0.010990000329911709
v 0.01442639995366335 0.002225179923698306 -0.011470000259578228
v 0.014467200264334679 0.002272839890792966 -0.010990000329911709
v 0.014467299915850163 0.002272940007969737 -0.011470000259578228
v 0.014626500196754932 0.002370449947193265 -0.011470000259578228
v 0.014632499776780605 0.002372350078076124 -0.010990000329911709
v 0.014692000113427639 0.002385779982432723 -0.010990000329911709
v 0.014632499776780605 0.002372350078076124 -0.010990000329911709
v 0.014626500196754932 0.002370449947193265 -0.011470000259578228
v 0.014568500220775604 0.0023464499972760677 -0.011470000259578228
v 0.014750000089406967 0.0023900000378489494 -0.010990000329911709
v 0.014687400311231613 0.0023850700818002224 -0.011470000259578228
v 0.014692000113427639 0.002385779982432723 -0.010990000329911709
v 0.014626500196754932 0.002370449947193265 -0.011470000259578228
v 0.014692000113427639 0.002385779982432723 -0.010990000329911709
v 0.014687400311231613 0.0023850700818002224 -0.011470000259578228
v 0.014750000089406967 0.0023900000378489494 -0.011470000259578228
v 0.014687400311231613 0.0023850700818002224 -0.011470000259578228
v 0.014750000089406967 0.0023900000378489494 -0.010990000329911709
v 0.014568500220775604 0.0023464499972760677 -0.011470000259578228
v 0.014515000395476818 0.00231368001550436 -0.011470000259578228
v 0.01457349956035614 0.0023489498998969793 -0.010990000329911709
v 0.01457349956035614 0.0023489498998969793 -0.010990000329911709
v 0.014632499776780605 0.002372350078076124 -0.010990000329911709
v 0.014568500220775604 0.0023464499972760677 -0.011470000259578228
v 0.014467299915850163 0.002272940007969737 -0.011470000259578228
v 0.014467200264334679 0.002272839890792966 -0.010990000329911709
v 0.01451759971678257 0.002315530087798834 -0.010990000329911709
v 0.014467299915850163 0.002272940007969737 -0.011470000259578228
v 0.01451759971678257 0.002315530087798834 -0.010990000329911709
v 0.014515000395476818 0.00231368001550436 -0.011470000259578228
v 0.01442639995366335 0.002225179923698306 -0.011470000259578228
v 0.014393700286746025 0.0021717099007219076 -0.011470000259578228
v 0.014424500055611134 0.0022224399726837873 -0.010990000329911709
v 0.01442639995366335 0.002225179923698306 -0.011470000259578228
v 0.014424500055611134 0.0022224399726837873 -0.010990000329911709
v 0.014467200264334679 0.002272839890792966 -0.010990000329911709
v 0.014391000382602215 0.0021665100939571857 -0.010990000329911709
v 0.0143696004524827 0.0021136400755494833 -0.011470000259578228
v 0.01436769962310791 0.002107529900968075 -0.010990000329911709
v 0.014393700286746025 0.0021717099007219076 -0.011470000259578228
v 0.0143696004524827 0.0021136400755494833 -0.011470000259578228
v 0.014391000382602215 0.0021665100939571857 -0.010990000329911709
v 0.014354200102388859 0.0020479699596762657 -0.010990000329911709
v 0.01435490045696497 0.002052620053291321 -0.011470000259578228
v 0.014349999837577343 0.001990000018849969 -0.011470000259578228
v 0.01436769962310791 0.002107529900968075 -0.010990000329911709
v 0.01435490045696497 0.002052620053291321 -0.011470000259578228
v 0.014354200102388859 0.0020479699596762657 -0.010990000329911709
v 0.014349999837577343 0.001990000018849969 -0.011470000259578228
v 0.014349999837577343 -0.0019099999917671084 -0.010990000329911709
v 0.014349999837577343 0.001990000018849969 -0.010990000329911709
v 0.014349999837577343 -0.0019099999917671084 -0.010990000329911709
v 0.014349999837577343 0.001990000018849969 -0.011470000259578228
v 0.014349999837577343 -0.0019099999917671084 -0.011470000259578228
v 0.014692000113427639 -0.0023057800717651844 -0.010990000329911709
v 0.014750000089406967 -0.002309999894350767 -0.011470000259578228
v 0.014750000089406967 -0.002309999894350767 -0.010990000329911709
v 0.01451759971678257 -0.0022355299443006516 -0.010990000329911709
v 0.014568299986422062 -0.002266339957714081 -0.011470000259578228
v 0.01457349956035614 -0.0022689499892294407 -0.010990000329911709
v 0.014632499776780605 -0.002292349934577942 -0.010990000329911709
v 0.014626399613916874 -0.002290409989655018 -0.011470000259578228
v 0.014687400311231613 -0.00230506993830204 -0.011470000259578228
v 0.014426300302147865 -0.0021450100466609 -0.011470000259578228
v 0.014424500055611134 -0.0021424400620162487 -0.010990000329911709
v 0.014391000382602215 -0.0020865099504590034 -0.010990000329911709
v 0.014514800161123276 -0.002233559964224696 -0.011470000259578228
v 0.014467200264334679 -0.0021928399801254272 -0.010990000329911709
v 0.01446709968149662 -0.0021927200723439455 -0.011470000259578228
v 0.014369499869644642 -0.002033489989116788 -0.011470000259578228
v 0.01436769962310791 -0.002027519978582859 -0.010990000329911709
v 0.014354200102388859 -0.001967970049008727 -0.010990000329911709
v 0.01436769962310791 -0.002027519978582859 -0.010990000329911709
v 0.014369499869644642 -0.002033489989116788 -0.011470000259578228
v 0.014393599703907967 -0.002091479953378439 -0.011470000259578228
v 0.014349999837577343 -0.0019099999917671084 -0.010990000329911709
v 0.01435490045696497 -0.0019726199097931385 -0.011470000259578228
v 0.014354200102388859 -0.001967970049008727 -0.010990000329911709
v 0.014369499869644642 -0.002033489989116788 -0.011470000259578228
v 0.014354200102388859 -0.001967970049008727 -0.010990000329911709
v 0.01435490045696497 -0.0019726199097931385 -0.011470000259578228
v 0.014349999837577343 -0.0019099999917671084 -0.011470000259578228
v 0.01435490045696497 -0.0019726199097931385 -0.011470000259578228
v 0.014349999837577343 -0.0019099999917671084 -0.010990000329911709
v 0.014393599703907967 -0.002091479953378439 -0.011470000259578228
v 0.014426300302147865 -0.0021450100466609 -0.011470000259578228
v 0.014391000382602215 -0.0020865099504590034 -0.010990000329911709
v 0.014391000382602215 -0.0020865099504590034 -0.010990000329911709
v 0.01436769962310791 -0.002027519978582859 -0.010990000329911709
v 0.014393599703907967 -0.002091479953378439 -0.011470000259578228
v 0.01446709968149662 -0.0021927200723439455 -0.011470000259578228
v 0.014467200264334679 -0.0021928399801254272 -0.010990000329911709
v 0.014424500055611134 -0.0021424400620162487 -0.010990000329911709
v 0.01446709968149662 -0.0021927200723439455 -0.011470000259578228
v 0.014424500055611134 -0.0021424400620162487 -0.010990000329911709
v 0.014426300302147865 -0.0021450100466609 -0.011470000259578228
v 0.014514800161123276 -0.002233559964224696 -0.011470000259578228
v 0.014568299986422062 -0.002266339957714081 -0.011470000259578228
v 0.01451759971678257 -0.0022355299443006516 -0.010990000329911709
v 0.014514800161123276 -0.002233559964224696 -0.011470000259578228
v 0.01451759971678257 -0.0022355299443006516 -0.010990000329911709
v 0.014467200264334679 -0.0021928399801254272 -0.010990000329911709
v 0.01457349956035614 -0.0022689499892294407 -0.010990000329911709
v 0.014626399613916874 -0.002290409989655018 -0.011470000259578228
v 0.014632499776780605 -0.002292349934577942 -0.010990000329911709
v 0.014568299986422062 -0.002266339957714081 -0.011470000259578228
v 0.014626399613916874 -0.002290409989655018 -0.011470000259578228
v 0.01457349956035614 -0.0022689499892294407 -0.010990000329911709
v 0.014692000113427639 -0.0023057800717651844 -0.010990000329911709
v 0.014687400311231613 -0.00230506993830204 -0.011470000259578228
v 0.014750000089406967 -0.002309999894350767 -0.011470000259578228
v 0.014632499776780605 -0.002292349934577942 -0.010990000329911709
v 0.014687400311231613 -0.00230506993830204 -0.011470000259578228
v 0.014692000113427639 -0.0023057800717651844 -0.010990000329911709
v 0.019750000908970833 -0.002309999894350767 -0.010990000329911709
v 0.014750000089406967 -0.002309999894350767 -0.010990000329911709
v 0.014750000089406967 -0.002309999894350767 -0.011470000259578228
v 0.019750000908970833 -0.002309999894350767 -0.010990000329911709
v 0.014750000089406967 -0.002309999894350767 -0.011470000259578228
v 0.019750000908970833 -0.002309999894350767 -0.011470000259578228
v 0.020145799964666367 -0.001967970049008727 -0.010990000329911709
v 0.020150000229477882 -0.0019099999917671084 -0.011470000259578228
v 0.020150000229477882 -0.0019099999917671084 -0.010990000329911709
v 0.020075500011444092 -0.0021424400620162487 -0.010990000329911709
v 0.020106300711631775 -0.002091709990054369 -0.011470000259578228
v 0.020108899101614952 -0.0020865099504590034 -0.010990000329911709
v 0.02013229951262474 -0.002027519978582859 -0.010990000329911709
v 0.020130399614572525 -0.002033629920333624 -0.011470000259578228
v 0.020145099610090256 -0.0019726199097931385 -0.011470000259578228
v 0.019984999671578407 -0.0022336801048368216 -0.011470000259578228
v 0.01998239941895008 -0.0022355299443006516 -0.010990000329911709
v 0.01992649957537651 -0.0022689499892294407 -0.010990000329911709
v 0.020073600113391876 -0.0021451800130307674 -0.011470000259578228
v 0.02003280073404312 -0.0021928399801254272 -0.010990000329911709
v 0.020032700151205063 -0.0021929400973021984 -0.011470000259578228
v 0.019873499870300293 -0.0022904500365257263 -0.011470000259578228
v 0.01986750029027462 -0.002292349934577942 -0.010990000329911709
v 0.019807999953627586 -0.0023057800717651844 -0.010990000329911709
v 0.01986750029027462 -0.002292349934577942 -0.010990000329911709
v 0.019873499870300293 -0.0022904500365257263 -0.011470000259578228
v 0.019931500777602196 -0.002266450086608529 -0.011470000259578228
v 0.019750000908970833 -0.002309999894350767 -0.010990000329911709
v 0.019812600687146187 -0.00230506993830204 -0.011470000259578228
v 0.019807999953627586 -0.0023057800717651844 -0.010990000329911709
v 0.019873499870300293 -0.0022904500365257263 -0.011470000259578228
v 0.019807999953627586 -0.0023057800717651844 -0.010990000329911709
v 0.019812600687146187 -0.00230506993830204 -0.011470000259578228
v 0.019750000908970833 -0.002309999894350767 -0.011470000259578228
v 0.019812600687146187 -0.00230506993830204 -0.011470000259578228
v 0.019750000908970833 -0.002309999894350767 -0.010990000329911709
v 0.019931500777602196 -0.002266450086608529 -0.011470000259578228
v 0.019984999671578407 -0.0022336801048368216 -0.011470000259578228
v 0.01992649957537651 -0.0022689499892294407 -0.010990000329911709
v 0.01992649957537651 -0.0022689499892294407 -0.010990000329911709
v 0.01986750029027462 -0.002292349934577942 -0.010990000329911709
v 0.019931500777602196 -0.002266450086608529 -0.011470000259578228
v 0.020032700151205063 -0.0021929400973021984 -0.011470000259578228
v 0.02003280073404312 -0.0021928399801254272 -0.010990000329911709
v 0.01998239941895008 -0.0022355299443006516 -0.010990000329911709
v 0.020032700151205063 -0.0021929400973021984 -0.011470000259578228
v 0.01998239941895008 -0.0022355299443006516 -0.010990000329911709
v 0.019984999671578407 -0.0022336801048368216 -0.011470000259578228
v 0.020073600113391876 -0.0021451800130307674 -0.011470000259578228
v 0.020106300711631775 -0.002091709990054369 -0.011470000259578228
v 0.020075500011444092 -0.0021424400620162487 -0.010990000329911709
v 0.020073600113391876 -0.0021451800130307674 -0.011470000259578228
v 0.020075500011444092 -0.0021424400620162487 -0.010990000329911709
v 0.02003280073404312 -0.0021928399801254272 -0.010990000329911709
v 0.020108899101614952 -0.0020865099504590034 -0.010990000329911709
v 0.020130399614572525 -0.002033629920333624 -0.011470000259578228
v 0.02013229951262474 -0.002027519978582859 -0.010990000329911709
v 0.020106300711631775 -0.002091709990054369 -0.011470000259578228
v 0.020130399614572525 -0.002033629920333624 -0.011470000259578228
v 0.020108899101614952 -0.0020865099504590034 -0.010990000329911709
v 0.020145799964666367 -0.001967970049008727 -0.010990000329911709
v 0.020145099610090256 -0.0019726199097931385 -0.011470000259578228
v 0.020150000229477882 -0.0019099999917671084 -0.011470000259578228
v 0.02013229951262474 -0.002027519978582859 -0.010990000329911709
v 0.020145099610090256 -0.0019726199097931385 -0.011470000259578228
v 0.020145799964666367 -0.001967970049008727 -0.010990000329911709
v 0.014750000089406967 0.0023900000378489494 -0.011470000259578228
v 0.014626500196754932 0.002370449947193265 -0.011470000259578228
v 0.014687400311231613 0.0023850700818002224 -0.011470000259578228
v 0.019750000908970833 0.0023900000378489494 -0.011470000259578228
v 0.01987360045313835 0.0023704099003225565 -0.011470000259578228
v 0.019931700080633163 0.002346340101212263 -0.011470000259578228
v 0.01987360045313835 0.0023704099003225565 -0.011470000259578228
v 0.019750000908970833 0.0023900000378489494 -0.011470000259578228
v 0.019812600687146187 0.0023850700818002224 -0.011470000259578228
v 0.02003289945423603 0.002272719983011484 -0.011470000259578228
v 0.019750000908970833 0.0023900000378489494 -0.011470000259578228
v 0.019985200837254524 0.0023135601077228785 -0.011470000259578228
v 0.019750000908970833 0.0023900000378489494 -0.011470000259578228
v 0.019931700080633163 0.002346340101212263 -0.011470000259578228
v 0.019985200837254524 0.0023135601077228785 -0.011470000259578228
v 0.020073700696229935 0.0022250099573284388 -0.011470000259578228
v 0.020106399431824684 0.0021714800968766212 -0.011470000259578228
v 0.019750000908970833 0.0023900000378489494 -0.011470000259578228
v 0.020073700696229935 0.0022250099573284388 -0.011470000259578228
v 0.019750000908970833 0.0023900000378489494 -0.011470000259578228
v 0.02003289945423603 0.002272719983011484 -0.011470000259578228
v 0.019750000908970833 0.0023900000378489494 -0.011470000259578228
v 0.020130500197410583 0.0021134898997843266 -0.011470000259578228
v 0.020145099610090256 0.002052620053291321 -0.011470000259578228
v 0.020106399431824684 0.0021714800968766212 -0.011470000259578228
v 0.020130500197410583 0.0021134898997843266 -0.011470000259578228
v 0.019750000908970833 0.0023900000378489494 -0.011470000259578228
v 0.019750000908970833 0.0023900000378489494 -0.011470000259578228
v 0.020145099610090256 0.002052620053291321 -0.011470000259578228
v 0.020150000229477882 0.001990000018849969 -0.011470000259578228
v 0.019750000908970833 0.0023900000378489494 -0.011470000259578228
v 0.020150000229477882 0.001990000018849969 -0.011470000259578228
v 0.014750000089406967 0.0023900000378489494 -0.011470000259578228
v 0.014626500196754932 0.002370449947193265 -0.011470000259578228
v 0.014750000089406967 0.0023900000378489494 -0.011470000259578228
v 0.014568500220775604 0.0023464499972760677 -0.011470000259578228
v 0.014467299915850163 0.002272940007969737 -0.011470000259578228
v 0.014515000395476818 0.00231368001550436 -0.011470000259578228
v 0.014750000089406967 0.0023900000378489494 -0.011470000259578228
v 0.014750000089406967 0.0023900000378489494 -0.011470000259578228
v 0.014515000395476818 0.00231368001550436 -0.011470000259578228
v 0.014568500220775604 0.0023464499972760677 -0.011470000259578228
v 0.014750000089406967 0.0023900000378489494 -0.011470000259578228
v 0.01442639995366335 0.002225179923698306 -0.011470000259578228
v 0.014467299915850163 0.002272940007969737 -0.011470000259578228
v 0.014393700286746025 0.0021717099007219076 -0.011470000259578228
v 0.014750000089406967 0.0023900000378489494 -0.011470000259578228
v 0.0143696004524827 0.0021136400755494833 -0.011470000259578228
v 0.014393700286746025 0.0021717099007219076 -0.011470000259578228
v 0.01442639995366335 0.002225179923698306 -0.011470000259578228
v 0.014750000089406967 0.0023900000378489494 -0.011470000259578228
v 0.01435490045696497 0.002052620053291321 -0.011470000259578228
v 0.014750000089406967 0.0023900000378489494 -0.011470000259578228
v 0.014349999837577343 0.001990000018849969 -0.011470000259578228
v 0.01435490045696497 0.002052620053291321 -0.011470000259578228
v 0.0143696004524827 0.0021136400755494833 -0.011470000259578228
v 0.014750000089406967 0.0023900000378489494 -0.011470000259578228
v 0.014349999837577343 0.001990000018849969 -0.011470000259578228
v 0.014750000089406967 0.0023900000378489494 -0.011470000259578228
v 0.020150000229477882 0.001990000018849969 -0.011470000259578228
v 0.020145099610090256 -0.0019726199097931385 -0.011470000259578228
v 0.019750000908970833 -0.002309999894350767 -0.011470000259578228
v 0.020150000229477882 -0.0019099999917671084 -0.011470000259578228
v 0.014568299986422062 -0.002266339957714081 -0.011470000259578228
v 0.014750000089406967 -0.002309999894350767 -0.011470000259578228
v 0.014626399613916874 -0.002290409989655018 -0.011470000259578228
v 0.014687400311231613 -0.00230506993830204 -0.011470000259578228
v 0.014626399613916874 -0.002290409989655018 -0.011470000259578228
v 0.014750000089406967 -0.002309999894350767 -0.011470000259578228
v 0.014514800161123276 -0.002233559964224696 -0.011470000259578228
v 0.01446709968149662 -0.0021927200723439455 -0.011470000259578228
v 0.014750000089406967 -0.002309999894350767 -0.011470000259578228
v 0.014514800161123276 -0.002233559964224696 -0.011470000259578228
v 0.014750000089406967 -0.002309999894350767 -0.011470000259578228
v 0.014568299986422062 -0.002266339957714081 -0.011470000259578228
v 0.014750000089406967 -0.002309999894350767 -0.011470000259578228
v 0.014426300302147865 -0.0021450100466609 -0.011470000259578228
v 0.014393599703907967 -0.002091479953378439 -0.011470000259578228
v 0.01446709968149662 -0.0021927200723439455 -0.011470000259578228
v 0.014426300302147865 -0.0021450100466609 -0.011470000259578228
v 0.014750000089406967 -0.002309999894350767 -0.011470000259578228
v 0.014393599703907967 -0.002091479953378439 -0.011470000259578228
v 0.014369499869644642 -0.002033489989116788 -0.011470000259578228
v 0.014750000089406967 -0.002309999894350767 -0.011470000259578228
v 0.01435490045696497 -0.0019726199097931385 -0.011470000259578228
v 0.014349999837577343 -0.0019099999917671084 -0.011470000259578228
v 0.014750000089406967 -0.002309999894350767 -0.011470000259578228
v 0.01435490045696497 -0.0019726199097931385 -0.011470000259578228
v 0.014750000089406967 -0.002309999894350767 -0.011470000259578228
v 0.014369499869644642 -0.002033489989116788 -0.011470000259578228
v 0.014750000089406967 -0.002309999894350767 -0.011470000259578228
v 0.014349999837577343 -0.0019099999917671084 -0.011470000259578228
v 0.019750000908970833 -0.002309999894350767 -0.011470000259578228
v 0.019873499870300293 -0.0022904500365257263 -0.011470000259578228
v 0.019812600687146187 -0.00230506993830204 -0.011470000259578228
v 0.019750000908970833 -0.002309999894350767 -0.011470000259578228
v 0.019750000908970833 -0.002309999894350767 -0.011470000259578228
v 0.014349999837577343 -0.0019099999917671084 -0.011470000259578228
v 0.020150000229477882 -0.0019099999917671084 -0.011470000259578228
v 0.019750000908970833 -0.002309999894350767 -0.011470000259578228
v 0.019984999671578407 -0.0022336801048368216 -0.011470000259578228
v 0.019931500777602196 -0.002266450086608529 -0.011470000259578228
v 0.019873499870300293 -0.0022904500365257263 -0.011470000259578228
v 0.019750000908970833 -0.002309999894350767 -0.011470000259578228
v 0.019931500777602196 -0.002266450086608529 -0.011470000259578228
v 0.019750000908970833 -0.002309999894350767 -0.011470000259578228
v 0.020073600113391876 -0.0021451800130307674 -0.011470000259578228
v 0.020032700151205063 -0.0021929400973021984 -0.011470000259578228
v 0.019984999671578407 -0.0022336801048368216 -0.011470000259578228
v 0.019750000908970833 -0.002309999894350767 -0.011470000259578228
v 0.020032700151205063 -0.0021929400973021984 -0.011470000259578228
v 0.019750000908970833 -0.002309999894350767 -0.011470000259578228
v 0.020130399614572525 -0.002033629920333624 -0.011470000259578228
v 0.020106300711631775 -0.002091709990054369 -0.011470000259578228
v 0.020073600113391876 -0.0021451800130307674 -0.011470000259578228
v 0.019750000908970833 -0.002309999894350767 -0.011470000259578228
v 0.020106300711631775 -0.002091709990054369 -0.011470000259578228
v 0.020150000229477882 -0.0019099999917671084 -0.011470000259578228
v 0.014349999837577343 -0.0019099999917671084 -0.011470000259578228
v 0.014349999837577343 0.001990000018849969 -0.011470000259578228
v 0.020130399614572525 -0.002033629920333624 -0.011470000259578228
v 0.019750000908970833 -0.002309999894350767 -0.011470000259578228
v 0.020145099610090256 -0.0019726199097931385 -0.011470000259578228
v 0.014349999837577343 0.001990000018849969 -0.011470000259578228
v 0.020150000229477882 0.001990000018849969 -0.011470000259578228
v 0.020150000229477882 -0.0019099999917671084 -0.011470000259578228
f 1 2 3
f 4 5 6
f 7 8 9
f 10 11 12
f 13 14 15
f 16 17 18
f 19 20 21
f 22 23 24
f 25 26 27
f 28 29 30
f 31 32 33
f 34 35 36
f 37 38 39
f 40 41 42
f 43 44 45
f 46 47 48
f 49 50 51
f 52 53 54
f 55 56 57
f 58 59 60
f 61 62 63
f 64 65 66
f 67 68 69
f 70 71 72
f 73 74 75
f 76 77 78
f 79 80 81
f 82 83 84
f 85 86 87
f 88 89 90
f 91 92 93
f 94 95 96
f 97 98 99
f 100 101 102
f 103 104 105
f 106 107 108
f 109 110 111
f 112 113 114
f 115 116 117
f 118 119 120
f 121 122 123
f 124 125 126
f 127 128 129
f 130 131 132
f 133 134 135
f 136 137 138
f 139 140 141
f 142 143 144
f 145 146 147
f 148 149 150
f 151 152 153
f 154 155 156
f 157 158 159
f 160 161 162
f 163 164 165
f 166 167 168
f 169 170 171
f 172 173 174
f 175 176 177
f 178 179 180
f 181 182 183
f 184 185 186
f 187 188 189
f 190 191 192
f 193 194 195
f 196 197 198
f 199 200 201
f 202 203 204
f 205 206 207
f 208 209 210
f 211 212 213
f 214 215 216
f 217 218 219
f 220 221 222
f 223 224 225
f 226 227 228
f 229 230 231
f 232 233 234
f 235 236 237
f 238 239 240
f 241 242 243
f 244 245 246
f 247 248 249
f 250 251 252
f 253 254 255
f 256 257 258
f 259 260 261
f 262 263 264
f 265 266 267
f 268 269 270
f 271 272 273
f 274 275 276
f 277 278 279
f 280 281 282
f 283 284 285
f 286 287 288
f 289 290 291
f 292 293 294
f 295 296 297
f 298 299 300
f 301 302 303
f 304 305 306
f 307 308 309
f 310 311 312
f 313 314 315
f 316 317 318
f 319 320 321
f 322 323 324
f 325 326 327
f 328 329 330
f 331 332 333
f 334 335 336
f 337 338 339
f 340 341 342
f 343 344 345
f 346 347 348
f 349 350 351
f 352 353 354
f 355 356 357
f 358 359 360
f 361 362 363
f 364 365 366
f 367 368 369
f 370 371 372
f 373 374 375
f 376 377 378
f 379 380 381
f 382 383 384
f 385 386 387
f 388 389 390
f 391 392 393
f 394 395 396
f 397 398 399
f 400 401 402
f 403 404 405
f 406 407 408
f 409 410 411
f 412 413 414
f 415 416 417
f 418 419 420
f 421 422 423
f 424 425 426
f 427 428 429
f 430 431 432
f 433 434 435
f 436 437 438
f 439 440 441
f 442 443 444
f 445 446 447
f 448 449 450
f 451 452 453
f 454 455 456
f 457 458 459
f 460 461 462
f 463 464 465
f 466 467 468
f 469 470 471
f 472 473 474
f 475 476 477
f 478 479 480
f 481 482 483
f 484 485 486
f 487 488 489
f 490 491 492
f 493 494 495
f 496 497 498
f 499 500 501
f 502 503 504
f 505 506 507
f 508 509 510
f 511 512 513
f 514 515 516
