o 5b3aea852d36660f8dc55aaa
usemtl Material0
v -0.0397288016974926 0.0004810660029761493 -0.002785000018775463
v -0.03972779959440231 -0.00048695100122131407 -0.002785000018775463
v -0.039601098746061325 -0.0014373100129887462 -0.002785000018775463
v -0.0397288016974926 0.0004810660029761493 -0.002785000018775463
v -0.039601098746061325 -0.0014373100129887462 -0.002785000018775463
v -0.039601098746061325 0.0014373100129887462 -0.002785000018775463
v -0.039601098746061325 -0.0014373100129887462 -0.002785000018775463
v -0.039351001381874084 -0.0023562898859381676 -0.002785000018775463
v -0.039601098746061325 0.0014373100129887462 -0.002785000018775463
v -0.039601098746061325 0.0014373100129887462 -0.002785000018775463
v -0.039351001381874084 -0.0023562898859381676 -0.002785000018775463
v -0.039351001381874084 0.0023562898859381676 -0.002785000018775463
v -0.039351001381874084 0.0023562898859381676 -0.003019999945536256
v -0.039351001381874084 0.0023562898859381676 -0.002785000018775463
v -0.039351001381874084 -0.0023562898859381676 -0.002785000018775463
v -0.039351001381874084 -0.0023562898859381676 -0.002785000018775463
v -0.039351001381874084 -0.0023562898859381676 -0.003019999945536256
v -0.039351001381874084 0.0023562898859381676 -0.003019999945536256
v -0.039351001381874084 0.0023562898859381676 -0.003019999945536256
v -0.039250001311302185 -0.002631689887493849 -0.003019999945536256
v -0.039250001311302185 0.002631689887493849 -0.003019999945536256
v -0.039250001311302185 -0.002631689887493849 -0.003019999945536256
v -0.039351001381874084 0.0023562898859381676 -0.003019999945536256
v -0.039351001381874084 -0.0023562898859381676 -0.003019999945536256
v -0.039450500160455704 -0.0020521599799394608 -0.003056110115721822
v -0.039351001381874084 -0.0023562898859381676 -0.002785000018775463
v -0.039601098746061325 -0.0014373100129887462 -0.002785000018775463
v -0.0397212989628315 0.0006160360062494874 -0.003241690108552575
v -0.03973820060491562 0.00031121898791752756 -0.0032701799646019936
v -0.0397288016974926 0.0004810660029761493 -0.002785000018775463
v -0.039601098746061325 -0.0014373100129887462 -0.002785000018775463
v -0.03953919932246208 -0.0017141399439424276 -0.0030945700127631426
v -0.039450500160455704 -0.0020521599799394608 -0.003056110115721822
v -0.03935080021619797 -0.0023567399475723505 -0.0030285699758678675
v -0.039250001311302185 -0.002631689887493849 -0.003019999945536256
v -0.039351001381874084 -0.0023562898859381676 -0.003019999945536256
v -0.039535101503133774 0.00173099001403898 -0.0030924100428819656
v -0.03960840031504631 0.0013426300138235092 -0.0031474900897592306
v -0.039601098746061325 0.0014373100129887462 -0.002785000018775463
v -0.03973820060491562 1.628800028186106e-8 -0.0032701799646019936
v -0.0397288016974926 0.0004810660029761493 -0.002785000018775463
v -0.03973820060491562 0.00031121898791752756 -0.0032701799646019936
v -0.039351001381874084 0.0023562898859381676 -0.002785000018775463
v -0.039351001381874084 0.0023562898859381676 -0.003019999945536256
v -0.0394430011510849 0.0020438600331544876 -0.0030604898929595947
v -0.03935080021619797 0.0023567399475723505 -0.0030285699758678675
v -0.0394430011510849 0.0020438600331544876 -0.0030604898929595947
v -0.039351001381874084 0.0023562898859381676 -0.003019999945536256
v -0.039601098746061325 0.0014373100129887462 -0.002785000018775463
v -0.039351001381874084 0.0023562898859381676 -0.002785000018775463
v -0.0394430011510849 0.0020438600331544876 -0.0030604898929595947
v -0.039250001311302185 0.002631689887493849 -0.003019999945536256
v -0.03935080021619797 0.0023567399475723505 -0.0030285699758678675
v -0.039351001381874084 0.0023562898859381676 -0.003019999945536256
v -0.039601098746061325 0.0014373100129887462 -0.002785000018775463
v -0.0394430011510849 0.0020438600331544876 -0.0030604898929595947
v -0.039535101503133774 0.00173099001403898 -0.0030924100428819656
v -0.039681799709796906 0.0009542690240778029 -0.003202569903805852
v -0.0397288016974926 0.0004810660029761493 -0.002785000018775463
v -0.039601098746061325 0.0014373100129887462 -0.002785000018775463
v -0.03960840031504631 0.0013426300138235092 -0.0031474900897592306
v -0.039681799709796906 0.0009542690240778029 -0.003202569903805852
v -0.039601098746061325 0.0014373100129887462 -0.002785000018775463
v -0.03973820060491562 1.628800028186106e-8 -0.0032701799646019936
v -0.03972779959440231 -0.00048695100122131407 -0.002785000018775463
v -0.0397288016974926 0.0004810660029761493 -0.002785000018775463
v -0.0397212989628315 0.0006160360062494874 -0.003241690108552575
v -0.0397288016974926 0.0004810660029761493 -0.002785000018775463
v -0.039681799709796906 0.0009542690240778029 -0.003202569903805852
v -0.03971109911799431 -0.0006245070253498852 -0.0032372099813073874
v -0.03972779959440231 -0.00048695100122131407 -0.002785000018775463
v -0.03973820060491562 -0.0003111870028078556 -0.0032701799646019936
v -0.03972779959440231 -0.00048695100122131407 -0.002785000018775463
v -0.03973820060491562 1.628800028186106e-8 -0.0032701799646019936
v -0.03973820060491562 -0.0003111870028078556 -0.0032701799646019936
v -0.03972779959440231 -0.00048695100122131407 -0.002785000018775463
v -0.03971109911799431 -0.0006245070253498852 -0.0032372099813073874
v -0.03968390077352524 -0.0009378269896842539 -0.003204239998012781
v -0.03968390077352524 -0.0009378269896842539 -0.003204239998012781
v -0.039601098746061325 -0.0014373100129887462 -0.002785000018775463
v -0.03972779959440231 -0.00048695100122131407 -0.002785000018775463
v -0.03953919932246208 -0.0017141399439424276 -0.0030945700127631426
v -0.039601098746061325 -0.0014373100129887462 -0.002785000018775463
v -0.03961160033941269 -0.0013259799452498555 -0.0031494100112468004
v -0.039601098746061325 -0.0014373100129887462 -0.002785000018775463
v -0.03968390077352524 -0.0009378269896842539 -0.003204239998012781
v -0.03961160033941269 -0.0013259799452498555 -0.0031494100112468004
v -0.039351001381874084 -0.0023562898859381676 -0.002785000018775463
v -0.039450500160455704 -0.0020521599799394608 -0.003056110115721822
v -0.039351001381874084 -0.0023562898859381676 -0.003019999945536256
v -0.03935080021619797 -0.0023567399475723505 -0.0030285699758678675
v -0.039351001381874084 -0.0023562898859381676 -0.003019999945536256
v -0.039450500160455704 -0.0020521599799394608 -0.003056110115721822
v -0.03971109911799431 -0.0006245070253498852 -0.0032372099813073874
v -0.03973820060491562 -0.0003111870028078556 -0.0032701799646019936
v -0.03973820060491562 0.00031121898791752756 -0.0032701799646019936
v -0.03971109911799431 -0.0006245070253498852 -0.0032372099813073874
v -0.03973820060491562 0.00031121898791752756 -0.0032701799646019936
v -0.0397212989628315 0.0006160360062494874 -0.003241690108552575
v -0.039681799709796906 0.0009542690240778029 -0.003202569903805852
v -0.03968390077352524 -0.0009378269896842539 -0.003204239998012781
v -0.0397212989628315 0.0006160360062494874 -0.003241690108552575
v -0.03971109911799431 -0.0006245070253498852 -0.0032372099813073874
v -0.0397212989628315 0.0006160360062494874 -0.003241690108552575
v -0.03968390077352524 -0.0009378269896842539 -0.003204239998012781
v -0.03968390077352524 -0.0009378269896842539 -0.003204239998012781
v -0.03960840031504631 0.0013426300138235092 -0.0031474900897592306
v -0.03961160033941269 -0.0013259799452498555 -0.0031494100112468004
v -0.03960840031504631 0.0013426300138235092 -0.0031474900897592306
v -0.03968390077352524 -0.0009378269896842539 -0.003204239998012781
v -0.039681799709796906 0.0009542690240778029 -0.003202569903805852
v -0.03960840031504631 0.0013426300138235092 -0.0031474900897592306
v -0.039535101503133774 0.00173099001403898 -0.0030924100428819656
v -0.03961160033941269 -0.0013259799452498555 -0.0031494100112468004
v -0.039450500160455704 -0.0020521599799394608 -0.003056110115721822
v -0.03953919932246208 -0.0017141399439424276 -0.0030945700127631426
v -0.039535101503133774 0.00173099001403898 -0.0030924100428819656
v -0.039535101503133774 0.00173099001403898 -0.0030924100428819656
v -0.03953919932246208 -0.0017141399439424276 -0.0030945700127631426
v -0.03961160033941269 -0.0013259799452498555 -0.0031494100112468004
v -0.039450500160455704 -0.0020521599799394608 -0.003056110115721822
v -0.0394430011510849 0.0020438600331544876 -0.0030604898929595947
v -0.03935080021619797 -0.0023567399475723505 -0.0030285699758678675
v -0.0394430011510849 0.0020438600331544876 -0.0030604898929595947
v -0.039450500160455704 -0.0020521599799394608 -0.003056110115721822
v -0.039535101503133774 0.00173099001403898 -0.0030924100428819656
v -0.03935080021619797 0.0023567399475723505 -0.0030285699758678675
v -0.039250001311302185 -0.002631689887493849 -0.003019999945536256
v -0.03935080021619797 -0.0023567399475723505 -0.0030285699758678675
v -0.03935080021619797 -0.0023567399475723505 -0.0030285699758678675
v -0.0394430011510849 0.0020438600331544876 -0.0030604898929595947
v -0.03935080021619797 0.0023567399475723505 -0.0030285699758678675
v -0.039250001311302185 0.002631689887493849 -0.003019999945536256
v -0.039250001311302185 -0.002631689887493849 -0.003019999945536256
v -0.03935080021619797 0.0023567399475723505 -0.0030285699758678675
f 1 2 3
f 4 5 6
f 7 8 9
f 10 11 12
f 13 14 15
f 16 17 18
f 19 20 21
f 22 23 24
f 25 26 27
f 28 29 30
f 31 32 33
f 34 35 36
f 37 38 39
f 40 41 42
f 43 44 45
f 46 47 48
f 49 50 51
f 52 53 54
f 55 56 57
f 58 59 60
f 61 62 63
f 64 65 66
f 67 68 69
f 70 71 72
f 73 74 75
f 76 77 78
f 79 80 81
f 82 83 84
f 85 86 87
f 88 89 90
f 91 92 93
f 94 95 96
f 97 98 99
f 100 101 102
f 103 104 105
f 106 107 108
f 109 110 111
f 112 113 114
f 115 116 117
f 118 119 120
f 121 122 123
f 124 125 126
f 127 128 129
f 130 131 132
f 133 134 135
