o 5b3aea852d36660f8dc55aaa
usemtl Material0
v -0.024624599143862724 0.01041870005428791 -0.011470000259578228
v -0.0011721999617293477 0.010368299670517445 -0.011470000259578228
v -0.024583600461483 0.010368100367486477 -0.011470000259578228
v -0.02452250011265278 0.010283400304615498 -0.011470199562609196
v -0.024583600461483 0.010368100367486477 -0.011470000259578228
v -0.0012335600331425667 0.010283200070261955 -0.011470300145447254
v -0.02425510063767433 0.010127400048077106 -0.011470300145447254
v -0.02435450069606304 0.01016009971499443 -0.011470699682831764
v -0.001501200022175908 0.01012749969959259 -0.011470300145447254
v -0.0014016800560057163 0.010160200297832489 -0.011470699682831764
v -0.001501200022175908 0.01012749969959259 -0.011470300145447254
v -0.02435450069606304 0.01016009971499443 -0.011470699682831764
v -0.001501200022175908 0.01012749969959259 -0.011470300145447254
v -0.001605210010893643 0.010116299614310265 -0.011470000259578228
v -0.02425510063767433 0.010127400048077106 -0.011470300145447254
v -0.024150799959897995 0.010116299614310265 -0.011470000259578228
v -0.02425510063767433 0.010127400048077106 -0.011470300145447254
v -0.001605210010893643 0.010116299614310265 -0.011470000259578228
v -0.0014016800560057163 0.010160200297832489 -0.011470699682831764
v -0.024444999173283577 0.01021290011703968 -0.01147060003131628
v -0.0013111199950799346 0.01021290011703968 -0.01147060003131628
v -0.0014016800560057163 0.010160200297832489 -0.011470699682831764
v -0.02435450069606304 0.01016009971499443 -0.011470699682831764
v -0.024444999173283577 0.01021290011703968 -0.01147060003131628
v -0.02452250011265278 0.010283400304615498 -0.011470199562609196
v -0.0012335600331425667 0.010283200070261955 -0.011470300145447254
v -0.0013111199950799346 0.01021290011703968 -0.01147060003131628
v -0.0013111199950799346 0.01021290011703968 -0.01147060003131628
v -0.024444999173283577 0.01021290011703968 -0.01147060003131628
v -0.02452250011265278 0.010283400304615498 -0.011470199562609196
v -0.024624599143862724 0.01041870005428791 -0.011470000259578228
v -0.0011312799761071801 0.01041870005428791 -0.011470000259578228
v -0.0011721999617293477 0.010368299670517445 -0.011470000259578228
v -0.024583600461483 0.010368100367486477 -0.011470000259578228
v -0.0011721999617293477 0.010368299670517445 -0.011470000259578228
v -0.0012335600331425667 0.010283200070261955 -0.011470300145447254
v -0.024444999173283577 0.01021290011703968 -0.01147060003131628
v -0.02435450069606304 0.010140899568796158 -0.01131999958306551
v -0.024444999173283577 0.010193799622356892 -0.01131999958306551
v -0.024583600461483 0.010368100367486477 -0.011470000259578228
v -0.02452250011265278 0.010283400304615498 -0.011470199562609196
v -0.02452250011265278 0.010264200158417225 -0.01131999958306551
v -0.024150799959897995 0.010097100399434566 -0.01131999958306551
v -0.02425510063767433 0.010108199901878834 -0.01131999958306551
v -0.02425510063767433 0.010127400048077106 -0.011470300145447254
v -0.02435450069606304 0.01016009971499443 -0.011470699682831764
v -0.02425510063767433 0.010108199901878834 -0.01131999958306551
v -0.02435450069606304 0.010140899568796158 -0.01131999958306551
v -0.02425510063767433 0.010127400048077106 -0.011470300145447254
v -0.02425510063767433 0.010108199901878834 -0.01131999958306551
v -0.02435450069606304 0.01016009971499443 -0.011470699682831764
v -0.024150799959897995 0.010097100399434566 -0.01131999958306551
v -0.02425510063767433 0.010127400048077106 -0.011470300145447254
v -0.024150799959897995 0.010116299614310265 -0.011470000259578228
v -0.024444999173283577 0.010193799622356892 -0.01131999958306551
v -0.02452250011265278 0.010283400304615498 -0.011470199562609196
v -0.024444999173283577 0.01021290011703968 -0.01147060003131628
v -0.024444999173283577 0.01021290011703968 -0.01147060003131628
v -0.02435450069606304 0.01016009971499443 -0.011470699682831764
v -0.02435450069606304 0.010140899568796158 -0.01131999958306551
v -0.024583600461483 0.010368100367486477 -0.011470000259578228
v -0.02452250011265278 0.010264200158417225 -0.01131999958306551
v -0.02458369918167591 0.01034920010715723 -0.01131999958306551
v -0.024444999173283577 0.010193799622356892 -0.01131999958306551
v -0.02452250011265278 0.010264200158417225 -0.01131999958306551
v -0.02452250011265278 0.010283400304615498 -0.011470199562609196
v -0.024624599143862724 0.010399599559605122 -0.01131999958306551
v -0.024624599143862724 0.01041870005428791 -0.011470000259578228
v -0.024583600461483 0.010368100367486477 -0.011470000259578228
v -0.024583600461483 0.010368100367486477 -0.011470000259578228
v -0.02458369918167591 0.01034920010715723 -0.01131999958306551
v -0.024624599143862724 0.010399599559605122 -0.01131999958306551
v -0.024624599143862724 0.010399599559605122 -0.01131999958306551
v -0.0011312799761071801 0.01041870005428791 -0.011470000259578228
v -0.024624599143862724 0.01041870005428791 -0.011470000259578228
v -0.0011312799761071801 0.01041870005428791 -0.011470000259578228
v -0.024624599143862724 0.010399599559605122 -0.01131999958306551
v -0.0011312799761071801 0.010399599559605122 -0.01131999958306551
v -0.0011312799761071801 0.010399599559605122 -0.01131999958306551
v -0.0011721999617293477 0.010368299670517445 -0.011470000259578228
v -0.0011312799761071801 0.01041870005428791 -0.011470000259578228
v -0.0011312799761071801 0.010399599559605122 -0.01131999958306551
v -0.0011721999617293477 0.01034920010715723 -0.01131999958306551
v -0.0011721999617293477 0.010368299670517445 -0.011470000259578228
v -0.0014016800560057163 0.010160200297832489 -0.011470699682831764
v -0.0013110199943184853 0.010193600319325924 -0.01131999958306551
v -0.0014015600318089128 0.010140899568796158 -0.01131999958306551
v -0.001605210010893643 0.010097100399434566 -0.01131999958306551
v -0.001605210010893643 0.010116299614310265 -0.011470000259578228
v -0.001501200022175908 0.01012749969959259 -0.011470300145447254
v -0.0011721999617293477 0.01034920010715723 -0.01131999958306551
v -0.001233509974554181 0.010264099575579166 -0.01131999958306551
v -0.0012335600331425667 0.010283200070261955 -0.011470300145447254
v -0.0012335600331425667 0.010283200070261955 -0.011470300145447254
v -0.001233509974554181 0.010264099575579166 -0.01131999958306551
v -0.0013111199950799346 0.01021290011703968 -0.01147060003131628
v -0.0013110199943184853 0.010193600319325924 -0.01131999958306551
v -0.0013111199950799346 0.01021290011703968 -0.01147060003131628
v -0.001233509974554181 0.010264099575579166 -0.01131999958306551
v -0.0011721999617293477 0.01034920010715723 -0.01131999958306551
v -0.0012335600331425667 0.010283200070261955 -0.011470300145447254
v -0.0011721999617293477 0.010368299670517445 -0.011470000259578228
v -0.0013110199943184853 0.010193600319325924 -0.01131999958306551
v -0.0014016800560057163 0.010160200297832489 -0.011470699682831764
v -0.0013111199950799346 0.01021290011703968 -0.01147060003131628
v -0.001501200022175908 0.01012749969959259 -0.011470300145447254
v -0.0014015600318089128 0.010140899568796158 -0.01131999958306551
v -0.001501120044849813 0.010108199901878834 -0.01131999958306551
v -0.001501200022175908 0.01012749969959259 -0.011470300145447254
v -0.0014016800560057163 0.010160200297832489 -0.011470699682831764
v -0.0014015600318089128 0.010140899568796158 -0.01131999958306551
v -0.001501200022175908 0.01012749969959259 -0.011470300145447254
v -0.001501120044849813 0.010108199901878834 -0.01131999958306551
v -0.001605210010893643 0.010097100399434566 -0.01131999958306551
v -0.024150799959897995 0.010097100399434566 -0.01131999958306551
v -0.024150799959897995 0.010116299614310265 -0.011470000259578228
v -0.001605210010893643 0.010116299614310265 -0.011470000259578228
v -0.001605210010893643 0.010116299614310265 -0.011470000259578228
v -0.001605210010893643 0.010097100399434566 -0.01131999958306551
v -0.024150799959897995 0.010097100399434566 -0.01131999958306551
v -0.0011721999617293477 0.01034920010715723 -0.01131999958306551
v -0.024624599143862724 0.010399599559605122 -0.01131999958306551
v -0.02458369918167591 0.01034920010715723 -0.01131999958306551
v -0.001605210010893643 0.010097100399434566 -0.01131999958306551
v -0.001501120044849813 0.010108199901878834 -0.01131999958306551
v -0.02425510063767433 0.010108199901878834 -0.01131999958306551
v -0.02435450069606304 0.010140899568796158 -0.01131999958306551
v -0.02425510063767433 0.010108199901878834 -0.01131999958306551
v -0.001501120044849813 0.010108199901878834 -0.01131999958306551
v -0.02425510063767433 0.010108199901878834 -0.01131999958306551
v -0.024150799959897995 0.010097100399434566 -0.01131999958306551
v -0.001605210010893643 0.010097100399434566 -0.01131999958306551
v -0.02435450069606304 0.010140899568796158 -0.01131999958306551
v -0.0014015600318089128 0.010140899568796158 -0.01131999958306551
v -0.024444999173283577 0.010193799622356892 -0.01131999958306551
v -0.0014015600318089128 0.010140899568796158 -0.01131999958306551
v -0.02435450069606304 0.010140899568796158 -0.01131999958306551
v -0.001501120044849813 0.010108199901878834 -0.01131999958306551
v -0.024444999173283577 0.010193799622356892 -0.01131999958306551
v -0.0014015600318089128 0.010140899568796158 -0.01131999958306551
v -0.0013110199943184853 0.010193600319325924 -0.01131999958306551
v -0.0013110199943184853 0.010193600319325924 -0.01131999958306551
v -0.001233509974554181 0.010264099575579166 -0.01131999958306551
v -0.02452250011265278 0.010264200158417225 -0.01131999958306551
v -0.02452250011265278 0.010264200158417225 -0.01131999958306551
v -0.024444999173283577 0.010193799622356892 -0.01131999958306551
v -0.0013110199943184853 0.010193600319325924 -0.01131999958306551
v -0.02458369918167591 0.01034920010715723 -0.01131999958306551
v -0.001233509974554181 0.010264099575579166 -0.01131999958306551
v -0.0011721999617293477 0.01034920010715723 -0.01131999958306551
v -0.001233509974554181 0.010264099575579166 -0.01131999958306551
v -0.02458369918167591 0.01034920010715723 -0.01131999958306551
v -0.02452250011265278 0.010264200158417225 -0.01131999958306551
v -0.0011312799761071801 0.010399599559605122 -0.01131999958306551
v -0.024624599143862724 0.010399599559605122 -0.01131999958306551
v -0.0011721999617293477 0.01034920010715723 -0.01131999958306551
f 1 2 3
f 4 5 6
f 7 8 9
f 10 11 12
f 13 14 15
f 16 17 18
f 19 20 21
f 22 23 24
f 25 26 27
f 28 29 30
f 31 32 33
f 34 35 36
f 37 38 39
f 40 41 42
f 43 44 45
f 46 47 48
f 49 50 51
f 52 53 54
f 55 56 57
f 58 59 60
f 61 62 63
f 64 65 66
f 67 68 69
f 70 71 72
f 73 74 75
f 76 77 78
f 79 80 81
f 82 83 84
f 85 86 87
f 88 89 90
f 91 92 93
f 94 95 96
f 97 98 99
f 100 101 102
f 103 104 105
f 106 107 108
f 109 110 111
f 112 113 114
f 115 116 117
f 118 119 120
f 121 122 123
f 124 125 126
f 127 128 129
f 130 131 132
f 133 134 135
f 136 137 138
f 139 140 141
f 142 143 144
f 145 146 147
f 148 149 150
f 151 152 153
f 154 155 156
