o 5b3aea852d36660f8dc55aaa
usemtl Material0
v -0.031406600028276443 0.0097179701551795 -0.0053813401609659195
v -0.03144039958715439 0.009722149930894375 -0.005405010189861059
v -0.0314503014087677 0.009723019786179066 -0.005319999996572733
v -0.03137730062007904 0.009712840430438519 -0.005352249834686518
v -0.0314503014087677 0.009723019786179066 -0.005319999996572733
v -0.03135170042514801 0.009707160294055939 -0.005319999996572733
v -0.03137730062007904 0.009712840430438519 -0.005352249834686518
v -0.031406600028276443 0.0097179701551795 -0.0053813401609659195
v -0.0314503014087677 0.009723019786179066 -0.005319999996572733
v -0.0314503014087677 0.009723019786179066 -0.005319999996572733
v -0.03144039958715439 0.009722149930894375 -0.005405010189861059
v -0.03147929906845093 0.009724649600684643 -0.005419230088591576
v -0.0314503014087677 0.009723019786179066 -0.005319999996572733
v -0.031520698219537735 0.009724659845232964 -0.005419259890913963
v -0.03154969960451126 0.009723019786179066 -0.005319999996572733
v -0.031520698219537735 0.009724659845232964 -0.005419259890913963
v -0.0314503014087677 0.009723019786179066 -0.005319999996572733
v -0.03147929906845093 0.009724649600684643 -0.005419230088591576
v -0.03154969960451126 0.009723019786179066 -0.005319999996572733
v -0.031559500843286514 0.009722170419991016 -0.005405120085924864
v -0.03159340098500252 0.009717980399727821 -0.005381400231271982
v -0.031520698219537735 0.009724659845232964 -0.005419259890913963
v -0.031559500843286514 0.009722170419991016 -0.005405120085924864
v -0.03154969960451126 0.009723019786179066 -0.005319999996572733
v -0.03164830058813095 0.009707160294055939 -0.005319999996572733
v -0.03154969960451126 0.009723019786179066 -0.005319999996572733
v -0.03162270039319992 0.009712849743664265 -0.005352269858121872
v -0.03159340098500252 0.009717980399727821 -0.005381400231271982
v -0.03162270039319992 0.009712849743664265 -0.005352269858121872
v -0.03154969960451126 0.009723019786179066 -0.005319999996572733
v -0.03144039958715439 0.009722149930894375 -0.005405010189861059
v -0.031520698219537735 0.009724659845232964 -0.005419259890913963
v -0.03147929906845093 0.009724649600684643 -0.005419230088591576
v -0.03159340098500252 0.009717980399727821 -0.005381400231271982
v -0.031406600028276443 0.0097179701551795 -0.0053813401609659195
v -0.03137730062007904 0.009712840430438519 -0.005352249834686518
v -0.03135170042514801 0.009707160294055939 -0.005319999996572733
v -0.03162270039319992 0.009712849743664265 -0.005352269858121872
v -0.03137730062007904 0.009712840430438519 -0.005352249834686518
v -0.03144039958715439 0.009722149930894375 -0.005405010189861059
v -0.031406600028276443 0.0097179701551795 -0.0053813401609659195
v -0.031559500843286514 0.009722170419991016 -0.005405120085924864
v -0.03144039958715439 0.009722149930894375 -0.005405010189861059
v -0.031559500843286514 0.009722170419991016 -0.005405120085924864
v -0.031520698219537735 0.009724659845232964 -0.005419259890913963
v -0.031559500843286514 0.009722170419991016 -0.005405120085924864
v -0.031406600028276443 0.0097179701551795 -0.0053813401609659195
v -0.03159340098500252 0.009717980399727821 -0.005381400231271982
v -0.03135170042514801 0.009707160294055939 -0.005319999996572733
v -0.03164830058813095 0.009707160294055939 -0.005319999996572733
v -0.03162270039319992 0.009712849743664265 -0.005352269858121872
v -0.03162270039319992 0.009712849743664265 -0.005352269858121872
v -0.03159340098500252 0.009717980399727821 -0.005381400231271982
v -0.03137730062007904 0.009712840430438519 -0.005352249834686518
v -0.03135170042514801 0.009707160294055939 -0.005319999996572733
v -0.0314503014087677 0.009723019786179066 -0.005319999996572733
v -0.03154969960451126 0.009723019786179066 -0.005319999996572733
v -0.03135170042514801 0.009707160294055939 -0.005319999996572733
v -0.03154969960451126 0.009723019786179066 -0.005319999996572733
v -0.03164830058813095 0.009707160294055939 -0.005319999996572733
f 1 2 3
f 4 5 6
f 7 8 9
f 10 11 12
f 13 14 15
f 16 17 18
f 19 20 21
f 22 23 24
f 25 26 27
f 28 29 30
f 31 32 33
f 34 35 36
f 37 38 39
f 40 41 42
f 43 44 45
f 46 47 48
f 49 50 51
f 52 53 54
f 55 56 57
f 58 59 60
