o 5b3aea852d36660f8dc55aaa
usemtl Material0
v -0.03804539889097214 -0.007499999832361937 -0.003166500013321638
v -0.03783620148897171 -0.007499999832361937 -0.002469999948516488
v -0.03804539889097214 -0.007499999832361937 -0.002469999948516488
v -0.03821109980344772 -0.007491390220820904 -0.0036909300833940506
v -0.03804539889097214 -0.007499999832361937 -0.002469999948516488
v -0.03829580172896385 -0.007480289787054062 -0.002469999948516488
v -0.03908750042319298 -0.007114049978554249 -0.0052545201033353806
v -0.038998499512672424 -0.00718510989099741 -0.00521107017993927
v -0.03898569941520691 -0.007194479927420616 -0.002469999948516488
v -0.038916200399398804 -0.007242240011692047 -0.0051412200555205345
v -0.038841500878334045 -0.0072878701612353325 -0.005056019872426987
v -0.03877190127968788 -0.007325519807636738 -0.002469999948516488
v -0.03917669877409935 -0.0070313699543476105 -0.002469999948516488
v -0.03917669877409935 -0.0070313699543476105 -0.005258650053292513
v -0.03908750042319298 -0.007114049978554249 -0.0052545201033353806
v -0.03908750042319298 -0.007114049978554249 -0.0052545201033353806
v -0.03898569941520691 -0.007194479927420616 -0.002469999948516488
v -0.03917669877409935 -0.0070313699543476105 -0.002469999948516488
v -0.03898569941520691 -0.007194479927420616 -0.002469999948516488
v -0.038998499512672424 -0.00718510989099741 -0.00521107017993927
v -0.038916200399398804 -0.007242240011692047 -0.0051412200555205345
v -0.03877190127968788 -0.007325519807636738 -0.002469999948516488
v -0.03898569941520691 -0.007194479927420616 -0.002469999948516488
v -0.038916200399398804 -0.007242240011692047 -0.0051412200555205345
v -0.03871000185608864 -0.007355439942330122 -0.0048615699633955956
v -0.03877190127968788 -0.007325519807636738 -0.002469999948516488
v -0.038773100823163986 -0.007324900012463331 -0.004961669910699129
v -0.038841500878334045 -0.0072878701612353325 -0.005056019872426987
v -0.038773100823163986 -0.007324900012463331 -0.004961669910699129
v -0.03877190127968788 -0.007325519807636738 -0.002469999948516488
v -0.0386510007083416 -0.00738092977553606 -0.004757539834827185
v -0.03853959962725639 -0.007421750109642744 -0.002469999948516488
v -0.03877190127968788 -0.007325519807636738 -0.002469999948516488
v -0.03877190127968788 -0.007325519807636738 -0.002469999948516488
v -0.03871000185608864 -0.007355439942330122 -0.0048615699633955956
v -0.0386510007083416 -0.00738092977553606 -0.004757539834827185
v -0.03859569877386093 -0.007402370218187571 -0.004650650080293417
v -0.038543399423360825 -0.007420530077069998 -0.004541680216789246
v -0.03853959962725639 -0.007421750109642744 -0.002469999948516488
v -0.03859569877386093 -0.007402370218187571 -0.004650650080293417
v -0.03853959962725639 -0.007421750109642744 -0.002469999948516488
v -0.0386510007083416 -0.00738092977553606 -0.004757539834827185
v -0.03849349915981293 -0.0074359700083732605 -0.0044311401434242725
v -0.03844569995999336 -0.00744911003857851 -0.004319400060921907
v -0.03853959962725639 -0.007421750109642744 -0.002469999948516488
v -0.03849349915981293 -0.0074359700083732605 -0.0044311401434242725
v -0.03853959962725639 -0.007421750109642744 -0.002469999948516488
v -0.038543399423360825 -0.007420530077069998 -0.004541680216789246
v -0.03853959962725639 -0.007421750109642744 -0.002469999948516488
v -0.038399700075387955 -0.007460259832441807 -0.004206680227071047
v -0.03829580172896385 -0.007480289787054062 -0.002469999948516488
v -0.038399700075387955 -0.007460259832441807 -0.004206680227071047
v -0.03853959962725639 -0.007421750109642744 -0.002469999948516488
v -0.03844569995999336 -0.00744911003857851 -0.004319400060921907
v -0.03804539889097214 -0.007499999832361937 -0.002469999948516488
v -0.03821109980344772 -0.007491390220820904 -0.0036909300833940506
v -0.03804539889097214 -0.007499999832361937 -0.003166500013321638
v -0.038399700075387955 -0.007460259832441807 -0.004206680227071047
v -0.03821109980344772 -0.007491390220820904 -0.0036909300833940506
v -0.03829580172896385 -0.007480289787054062 -0.002469999948516488
v -0.039705801755189896 -0.006502320058643818 -0.005312560126185417
v -0.03988239914178848 -0.006325739901512861 -0.002469999948516488
v -0.03988239914178848 -0.006325739901512861 -0.005403319839388132
v -0.03952940180897713 -0.006678659934550524 -0.005258200224488974
v -0.03988239914178848 -0.006325739901512861 -0.002469999948516488
v -0.039705801755189896 -0.006502320058643818 -0.005312560126185417
v -0.03988239914178848 -0.006325739901512861 -0.002469999948516488
v -0.03952940180897713 -0.006678659934550524 -0.005258200224488974
v -0.03917669877409935 -0.0070313699543476105 -0.002469999948516488
v -0.03917669877409935 -0.0070313699543476105 -0.005258650053292513
v -0.03917669877409935 -0.0070313699543476105 -0.002469999948516488
v -0.03935309872031212 -0.0068549602292478085 -0.005240229889750481
v -0.03917669877409935 -0.0070313699543476105 -0.002469999948516488
v -0.03952940180897713 -0.006678659934550524 -0.005258200224488974
v -0.03935309872031212 -0.0068549602292478085 -0.005240229889750481
v -0.03995930030941963 -0.006243110168725252 -0.005433079786598682
v -0.04004549980163574 -0.006134740076959133 -0.002469999948516488
v -0.040031999349594116 -0.006152939982712269 -0.005424030125141144
v -0.04033970087766647 -0.005384489893913269 -0.004208480007946491
v -0.040334101766347885 -0.005426050163805485 -0.0043175402097404
v -0.04033130034804344 -0.005444750189781189 -0.002469999948516488
v -0.040272701531648636 -0.005688610021024942 -0.002469999948516488
v -0.04024109989404678 -0.00577718997374177 -0.005048159975558519
v -0.040176499634981155 -0.005920920055359602 -0.002469999948516488
v -0.04035099968314171 -0.005194370169192553 -0.002469999948516488
v -0.04035099968314171 -0.005194359924644232 -0.003656290005892515
v -0.04035060107707977 -0.005230369977653027 -0.0037674400955438614
v -0.04034930095076561 -0.005267309956252575 -0.0038782800547778606
v -0.04035099968314171 -0.005194370169192553 -0.002469999948516488
v -0.04035060107707977 -0.005230369977653027 -0.0037674400955438614
v -0.04034719988703728 -0.0053052399307489395 -0.0039887698367238045
v -0.04035099968314171 -0.005194370169192553 -0.002469999948516488
v -0.04034930095076561 -0.005267309956252575 -0.0038782800547778606
v -0.04033130034804344 -0.005444750189781189 -0.002469999948516488
v -0.04035099968314171 -0.005194370169192553 -0.002469999948516488
v -0.04034719988703728 -0.0053052399307489395 -0.0039887698367238045
v -0.0403439998626709 -0.005344269797205925 -0.004098860081285238
v -0.04033970087766647 -0.005384489893913269 -0.004208480007946491
v -0.04033130034804344 -0.005444750189781189 -0.002469999948516488
v -0.0403439998626709 -0.005344269797205925 -0.004098860081285238
v -0.04033130034804344 -0.005444750189781189 -0.002469999948516488
v -0.04034719988703728 -0.0053052399307489395 -0.0039887698367238045
v -0.040318798273801804 -0.005513960029929876 -0.004533490166068077
v -0.04033130034804344 -0.005444750189781189 -0.002469999948516488
v -0.040327198803424835 -0.005469129886478186 -0.004425929859280586
v -0.040334101766347885 -0.005426050163805485 -0.0043175402097404
v -0.040327198803424835 -0.005469129886478186 -0.004425929859280586
v -0.04033130034804344 -0.005444750189781189 -0.002469999948516488
v -0.040308400988578796 -0.005560880061239004 -0.004639990162104368
v -0.040272701531648636 -0.005688610021024942 -0.002469999948516488
v -0.04033130034804344 -0.005444750189781189 -0.002469999948516488
v -0.04033130034804344 -0.005444750189781189 -0.002469999948516488
v -0.040318798273801804 -0.005513960029929876 -0.004533490166068077
v -0.040308400988578796 -0.005560880061239004 -0.004639990162104368
v -0.04029599949717522 -0.005610330030322075 -0.004745109938085079
v -0.040280599147081375 -0.005663120187819004 -0.004848190117627382
v -0.040272701531648636 -0.005688610021024942 -0.002469999948516488
v -0.04029599949717522 -0.005610330030322075 -0.004745109938085079
v -0.040272701531648636 -0.005688610021024942 -0.002469999948516488
v -0.040308400988578796 -0.005560880061239004 -0.004639990162104368
v -0.040262799710035324 -0.005718229804188013 -0.004949669819325209
v -0.04024109989404678 -0.00577718997374177 -0.005048159975558519
v -0.040272701531648636 -0.005688610021024942 -0.002469999948516488
v -0.040262799710035324 -0.005718229804188013 -0.004949669819325209
v -0.040272701531648636 -0.005688610021024942 -0.002469999948516488
v -0.040280599147081375 -0.005663120187819004 -0.004848190117627382
v -0.04021479934453964 -0.005840280093252659 -0.00514288991689682
v -0.040182799100875854 -0.005908399820327759 -0.005232280120253563
v -0.040176499634981155 -0.005920920055359602 -0.002469999948516488
v -0.040176499634981155 -0.005920920055359602 -0.002469999948516488
v -0.04024109989404678 -0.00577718997374177 -0.005048159975558519
v -0.04021479934453964 -0.005840280093252659 -0.00514288991689682
v -0.040143199265003204 -0.005982750095427036 -0.005313099827617407
v -0.04009370133280754 -0.006064409855753183 -0.0053801401518285275
v -0.040176499634981155 -0.005920920055359602 -0.002469999948516488
v -0.040143199265003204 -0.005982750095427036 -0.005313099827617407
v -0.040176499634981155 -0.005920920055359602 -0.002469999948516488
v -0.040182799100875854 -0.005908399820327759 -0.005232280120253563
v -0.04004549980163574 -0.006134740076959133 -0.002469999948516488
v -0.04009370133280754 -0.006064409855753183 -0.0053801401518285275
v -0.040031999349594116 -0.006152939982712269 -0.005424030125141144
v -0.04009370133280754 -0.006064409855753183 -0.0053801401518285275
v -0.04004549980163574 -0.006134740076959133 -0.002469999948516488
v -0.040176499634981155 -0.005920920055359602 -0.002469999948516488
v -0.03988239914178848 -0.006325739901512861 -0.005403319839388132
v -0.03988239914178848 -0.006325739901512861 -0.002469999948516488
v -0.03995930030941963 -0.006243110168725252 -0.005433079786598682
v -0.03988239914178848 -0.006325739901512861 -0.002469999948516488
v -0.04004549980163574 -0.006134740076959133 -0.002469999948516488
v -0.03995930030941963 -0.006243110168725252 -0.005433079786598682
v -0.04000930115580559 -0.005322929937392473 -0.002469999948516488
v -0.04034459963440895 -0.005344230215996504 -0.004099910147488117
v -0.04034750163555145 -0.00530525017529726 -0.0039895400404930115
v -0.04034459963440895 -0.005344230215996504 -0.004099910147488117
v -0.04000930115580559 -0.005322929937392473 -0.002469999948516488
v -0.0403405986726284 -0.005384449847042561 -0.004209789913147688
v -0.04035099968314171 -0.005194359924644232 -0.003656290005892515
v -0.04000930115580559 -0.005322929937392473 -0.002469999948516488
v -0.04035060107707977 -0.0052304198034107685 -0.003767689922824502
v -0.04034949839115143 -0.005267350003123283 -0.0038787799421697855
v -0.04035060107707977 -0.0052304198034107685 -0.003767689922824502
v -0.04000930115580559 -0.005322929937392473 -0.002469999948516488
v -0.04000930115580559 -0.005322929937392473 -0.002469999948516488
v -0.04034750163555145 -0.00530525017529726 -0.0039895400404930115
v -0.04034949839115143 -0.005267350003123283 -0.0038787799421697855
v -0.0403405986726284 -0.005384449847042561 -0.004209789913147688
v -0.04000930115580559 -0.005322929937392473 -0.002469999948516488
v -0.04033530130982399 -0.005426059942692518 -0.004319100175052881
v -0.04000930115580559 -0.005322929937392473 -0.002469999948516488
v -0.04035099968314171 -0.005194359924644232 -0.003656290005892515
v -0.04035099968314171 -0.004804879892617464 -0.002469999948516488
v -0.040328498929739 -0.0054693398997187614 -0.0044276900589466095
v -0.04000930115580559 -0.005322929937392473 -0.002469999948516488
v -0.04032000154256821 -0.005514500197023153 -0.004535370040684938
v -0.040328498929739 -0.0054693398997187614 -0.0044276900589466095
v -0.04033530130982399 -0.005426059942692518 -0.004319100175052881
v -0.04000930115580559 -0.005322929937392473 -0.002469999948516488
v -0.0403096005320549 -0.005561729893088341 -0.004641999956220388
v -0.04000930115580559 -0.005322929937392473 -0.002469999948516488
v -0.0402970016002655 -0.005611250177025795 -0.004747339989989996
v -0.0403096005320549 -0.005561729893088341 -0.004641999956220388
v -0.04032000154256821 -0.005514500197023153 -0.004535370040684938
v -0.04000930115580559 -0.005322929937392473 -0.002469999948516488
v -0.04028179869055748 -0.0056633600033819675 -0.004851089790463448
v -0.04000930115580559 -0.005322929937392473 -0.002469999948516488
v -0.04026370123028755 -0.005718419793993235 -0.0049528200179338455
v -0.04028179869055748 -0.0056633600033819675 -0.004851089790463448
v -0.0402970016002655 -0.005611250177025795 -0.004747339989989996
v -0.04000930115580559 -0.005322929937392473 -0.002469999948516488
v -0.04024229943752289 -0.0057767098769545555 -0.0050520398654043674
v -0.04000930115580559 -0.005322929937392473 -0.002469999948516488
v -0.040216200053691864 -0.005839409772306681 -0.0051474301144480705
v -0.04024229943752289 -0.0057767098769545555 -0.0050520398654043674
v -0.04026370123028755 -0.005718419793993235 -0.0049528200179338455
v -0.04000930115580559 -0.005322929937392473 -0.002469999948516488
v -0.0396357998251915 -0.0058142500929534435 -0.002469999948516488
v -0.040184300392866135 -0.005907350219786167 -0.005237230099737644
v -0.040216200053691864 -0.005839409772306681 -0.0051474301144480705
v -0.040216200053691864 -0.005839409772306681 -0.0051474301144480705
v -0.04000930115580559 -0.005322929937392473 -0.002469999948516488
v -0.0396357998251915 -0.0058142500929534435 -0.002469999948516488
v -0.0396357998251915 -0.0058142500929534435 -0.002469999948516488
v -0.040094900876283646 -0.006063779816031456 -0.005385159980505705
v -0.040144700556993484 -0.00598176009953022 -0.005318379960954189
v -0.040184300392866135 -0.005907350219786167 -0.005237230099737644
v -0.0396357998251915 -0.0058142500929534435 -0.002469999948516488
v -0.040144700556993484 -0.00598176009953022 -0.005318379960954189
v -0.0396357998251915 -0.0058142500929534435 -0.002469999948516488
v -0.03995950147509575 -0.0062431697733700275 -0.005434319842606783
v -0.04003259912133217 -0.006152759771794081 -0.005427389871329069
v -0.040094900876283646 -0.006063779816031456 -0.005385159980505705
v -0.0396357998251915 -0.0058142500929534435 -0.002469999948516488
v -0.04003259912133217 -0.006152759771794081 -0.005427389871329069
v -0.039229199290275574 -0.006280379835516214 -0.002469999948516488
v -0.03988239914178848 -0.006325739901512861 -0.005403319839388132
v -0.0396357998251915 -0.0058142500929534435 -0.002469999948516488
v -0.03995950147509575 -0.0062431697733700275 -0.005434319842606783
v -0.0396357998251915 -0.0058142500929534435 -0.002469999948516488
v -0.03988239914178848 -0.006325739901512861 -0.005403319839388132
v -0.03952940180897713 -0.006678659934550524 -0.005258200224488974
v -0.039705801755189896 -0.006502320058643818 -0.005312560126185417
v -0.039229199290275574 -0.006280379835516214 -0.002469999948516488
v -0.039229199290275574 -0.006280379835516214 -0.002469999948516488
v -0.039705801755189896 -0.006502320058643818 -0.005312560126185417
v -0.03988239914178848 -0.006325739901512861 -0.005403319839388132
v -0.03935309872031212 -0.0068549602292478085 -0.005240229889750481
v -0.039229199290275574 -0.006280379835516214 -0.002469999948516488
v -0.03879370167851448 -0.006716719828546047 -0.002469999948516488
v -0.039229199290275574 -0.006280379835516214 -0.002469999948516488
v -0.03935309872031212 -0.0068549602292478085 -0.005240229889750481
v -0.03952940180897713 -0.006678659934550524 -0.005258200224488974
v -0.03917669877409935 -0.0070313699543476105 -0.005258650053292513
v -0.03879370167851448 -0.006716719828546047 -0.002469999948516488
v -0.03908750042319298 -0.007114049978554249 -0.0052545201033353806
v -0.03917669877409935 -0.0070313699543476105 -0.005258650053292513
v -0.03935309872031212 -0.0068549602292478085 -0.005240229889750481
v -0.03879370167851448 -0.006716719828546047 -0.002469999948516488
v -0.038998499512672424 -0.00718510989099741 -0.00521107017993927
v -0.03879370167851448 -0.006716719828546047 -0.002469999948516488
v -0.038916200399398804 -0.007242240011692047 -0.0051412200555205345
v -0.038998499512672424 -0.00718510989099741 -0.00521107017993927
v -0.03908750042319298 -0.007114049978554249 -0.0052545201033353806
v -0.03879370167851448 -0.006716719828546047 -0.002469999948516488
v -0.03879370167851448 -0.006716719828546047 -0.002469999948516488
v -0.03832940012216568 -0.007123259827494621 -0.002469999948516488
v -0.038841500878334045 -0.0072878701612353325 -0.005056019872426987
v -0.038841500878334045 -0.0072878701612353325 -0.005056019872426987
v -0.038916200399398804 -0.007242240011692047 -0.0051412200555205345
v -0.03879370167851448 -0.006716719828546047 -0.002469999948516488
v -0.03832940012216568 -0.007123259827494621 -0.002469999948516488
v -0.03871000185608864 -0.007355439942330122 -0.0048615699633955956
v -0.038773100823163986 -0.007324900012463331 -0.004961669910699129
v -0.038841500878334045 -0.0072878701612353325 -0.005056019872426987
v -0.03832940012216568 -0.007123259827494621 -0.002469999948516488
v -0.038773100823163986 -0.007324900012463331 -0.004961669910699129
v -0.03832940012216568 -0.007123259827494621 -0.002469999948516488
v -0.03859569877386093 -0.007402370218187571 -0.004650650080293417
v -0.0386510007083416 -0.00738092977553606 -0.004757539834827185
v -0.03871000185608864 -0.007355439942330122 -0.0048615699633955956
v -0.03832940012216568 -0.007123259827494621 -0.002469999948516488
v -0.0386510007083416 -0.00738092977553606 -0.004757539834827185
v -0.03832940012216568 -0.007123259827494621 -0.002469999948516488
v -0.03849349915981293 -0.0074359700083732605 -0.0044311401434242725
v -0.038543399423360825 -0.007420530077069998 -0.004541680216789246
v -0.03859569877386093 -0.007402370218187571 -0.004650650080293417
v -0.03832940012216568 -0.007123259827494621 -0.002469999948516488
v -0.038543399423360825 -0.007420530077069998 -0.004541680216789246
v -0.03832940012216568 -0.007123259827494621 -0.002469999948516488
v -0.038399700075387955 -0.007460259832441807 -0.004206680227071047
v -0.03844569995999336 -0.00744911003857851 -0.004319400060921907
v -0.03849349915981293 -0.0074359700083732605 -0.0044311401434242725
v -0.03832940012216568 -0.007123259827494621 -0.002469999948516488
v -0.03844569995999336 -0.00744911003857851 -0.004319400060921907
v -0.03832940012216568 -0.007123259827494621 -0.002469999948516488
v -0.03804539889097214 -0.007499999832361937 -0.003166500013321638
v -0.03821109980344772 -0.007491390220820904 -0.0036909300833940506
v -0.038399700075387955 -0.007460259832441807 -0.004206680227071047
v -0.03832940012216568 -0.007123259827494621 -0.002469999948516488
v -0.03821109980344772 -0.007491390220820904 -0.0036909300833940506
v -0.03832940012216568 -0.007123259827494621 -0.002469999948516488
v -0.03783620148897171 -0.007499999832361937 -0.002469999948516488
v -0.03804539889097214 -0.007499999832361937 -0.003166500013321638
v -0.0396357998251915 -0.0058142500929534435 -0.002469999948516488
v -0.040176499634981155 -0.005920920055359602 -0.002469999948516488
v -0.04004549980163574 -0.006134740076959133 -0.002469999948516488
v -0.039229199290275574 -0.006280379835516214 -0.002469999948516488
v -0.0396357998251915 -0.0058142500929534435 -0.002469999948516488
v -0.03988239914178848 -0.006325739901512861 -0.002469999948516488
v -0.040176499634981155 -0.005920920055359602 -0.002469999948516488
v -0.0396357998251915 -0.0058142500929534435 -0.002469999948516488
v -0.040272701531648636 -0.005688610021024942 -0.002469999948516488
v -0.04004549980163574 -0.006134740076959133 -0.002469999948516488
v -0.03988239914178848 -0.006325739901512861 -0.002469999948516488
v -0.0396357998251915 -0.0058142500929534435 -0.002469999948516488
v -0.03917669877409935 -0.0070313699543476105 -0.002469999948516488
v -0.039229199290275574 -0.006280379835516214 -0.002469999948516488
v -0.03988239914178848 -0.006325739901512861 -0.002469999948516488
v -0.03832940012216568 -0.007123259827494621 -0.002469999948516488
v -0.03879370167851448 -0.006716719828546047 -0.002469999948516488
v -0.03877190127968788 -0.007325519807636738 -0.002469999948516488
v -0.03917669877409935 -0.0070313699543476105 -0.002469999948516488
v -0.03898569941520691 -0.007194479927420616 -0.002469999948516488
v -0.03879370167851448 -0.006716719828546047 -0.002469999948516488
v -0.03832940012216568 -0.007123259827494621 -0.002469999948516488
v -0.03877190127968788 -0.007325519807636738 -0.002469999948516488
v -0.03853959962725639 -0.007421750109642744 -0.002469999948516488
v -0.03832940012216568 -0.007123259827494621 -0.002469999948516488
v -0.03853959962725639 -0.007421750109642744 -0.002469999948516488
v -0.03829580172896385 -0.007480289787054062 -0.002469999948516488
v -0.03783620148897171 -0.007499999832361937 -0.002469999948516488
v -0.03832940012216568 -0.007123259827494621 -0.002469999948516488
v -0.03804539889097214 -0.007499999832361937 -0.002469999948516488
v -0.03832940012216568 -0.007123259827494621 -0.002469999948516488
v -0.03829580172896385 -0.007480289787054062 -0.002469999948516488
v -0.03804539889097214 -0.007499999832361937 -0.002469999948516488
v -0.03877190127968788 -0.007325519807636738 -0.002469999948516488
v -0.03879370167851448 -0.006716719828546047 -0.002469999948516488
v -0.03898569941520691 -0.007194479927420616 -0.002469999948516488
v -0.03879370167851448 -0.006716719828546047 -0.002469999948516488
v -0.039229199290275574 -0.006280379835516214 -0.002469999948516488
v -0.03917669877409935 -0.0070313699543476105 -0.002469999948516488
v -0.0396357998251915 -0.0058142500929534435 -0.002469999948516488
v -0.04000930115580559 -0.005322929937392473 -0.002469999948516488
v -0.040272701531648636 -0.005688610021024942 -0.002469999948516488
v -0.04035099968314171 -0.005194370169192553 -0.002469999948516488
v -0.04033130034804344 -0.005444750189781189 -0.002469999948516488
v -0.04000930115580559 -0.005322929937392473 -0.002469999948516488
v -0.04000930115580559 -0.005322929937392473 -0.002469999948516488
v -0.04033130034804344 -0.005444750189781189 -0.002469999948516488
v -0.040272701531648636 -0.005688610021024942 -0.002469999948516488
v -0.04035099968314171 -0.004804879892617464 -0.002469999948516488
v -0.04035099968314171 -0.005194370169192553 -0.002469999948516488
v -0.04000930115580559 -0.005322929937392473 -0.002469999948516488
v -0.04035099968314171 -0.004804879892617464 -0.002469999948516488
v -0.04035099968314171 -0.005194359924644232 -0.003656290005892515
v -0.04035099968314171 -0.005194370169192553 -0.002469999948516488
f 1 2 3
f 4 5 6
f 7 8 9
f 10 11 12
f 13 14 15
f 16 17 18
f 19 20 21
f 22 23 24
f 25 26 27
f 28 29 30
f 31 32 33
f 34 35 36
f 37 38 39
f 40 41 42
f 43 44 45
f 46 47 48
f 49 50 51
f 52 53 54
f 55 56 57
f 58 59 60
f 61 62 63
f 64 65 66
f 67 68 69
f 70 71 72
f 73 74 75
f 76 77 78
f 79 80 81
f 82 83 84
f 85 86 87
f 88 89 90
f 91 92 93
f 94 95 96
f 97 98 99
f 100 101 102
f 103 104 105
f 106 107 108
f 109 110 111
f 112 113 114
f 115 116 117
f 118 119 120
f 121 122 123
f 124 125 126
f 127 128 129
f 130 131 132
f 133 134 135
f 136 137 138
f 139 140 141
f 142 143 144
f 145 146 147
f 148 149 150
f 151 152 153
f 154 155 156
f 157 158 159
f 160 161 162
f 163 164 165
f 166 167 168
f 169 170 171
f 172 173 174
f 175 176 177
f 178 179 180
f 181 182 183
f 184 185 186
f 187 188 189
f 190 191 192
f 193 194 195
f 196 197 198
f 199 200 201
f 202 203 204
f 205 206 207
f 208 209 210
f 211 212 213
f 214 215 216
f 217 218 219
f 220 221 222
f 223 224 225
f 226 227 228
f 229 230 231
f 232 233 234
f 235 236 237
f 238 239 240
f 241 242 243
f 244 245 246
f 247 248 249
f 250 251 252
f 253 254 255
f 256 257 258
f 259 260 261
f 262 263 264
f 265 266 267
f 268 269 270
f 271 272 273
f 274 275 276
f 277 278 279
f 280 281 282
f 283 284 285
f 286 287 288
f 289 290 291
f 292 293 294
f 295 296 297
f 298 299 300
f 301 302 303
f 304 305 306
f 307 308 309
f 310 311 312
f 313 314 315
f 316 317 318
f 319 320 321
f 322 323 324
f 325 326 327
f 328 329 330
f 331 332 333
f 334 335 336
