o 5b3aea852d36660f8dc55aaa
usemtl Material0
v 0.019999999552965164 -0.010881699621677399 -0.0047448198311030865
v -0.019999999552965164 -0.01178439985960722 -0.008641630411148071
v 0.019999999552965164 -0.01178439985960722 -0.008641630411148071
v 0.019999999552965164 -0.010881699621677399 -0.0047448198311030865
v -0.019999999552965164 -0.010881699621677399 -0.0047448198311030865
v -0.019999999552965164 -0.01178439985960722 -0.008641630411148071
v -0.019999999552965164 -0.010881699621677399 -0.0047448198311030865
v -0.019999999552965164 -0.01079890038818121 -0.004764010198414326
v -0.019999999552965164 -0.011701599694788456 -0.008660810068249702
v -0.019999999552965164 -0.010881699621677399 -0.0047448198311030865
v -0.019999999552965164 -0.011701599694788456 -0.008660810068249702
v -0.019999999552965164 -0.01178439985960722 -0.008641630411148071
v 0.019999999552965164 -0.01178439985960722 -0.008641630411148071
v -0.019999999552965164 -0.01178439985960722 -0.008641630411148071
v -0.019999999552965164 -0.011701599694788456 -0.008660810068249702
v 0.019999999552965164 -0.01178439985960722 -0.008641630411148071
v -0.019999999552965164 -0.011701599694788456 -0.008660810068249702
v 0.019999999552965164 -0.011701599694788456 -0.008660810068249702
v 0.019999999552965164 -0.01079890038818121 -0.004764010198414326
v 0.019999999552965164 -0.010881699621677399 -0.0047448198311030865
v 0.019999999552965164 -0.011701599694788456 -0.008660810068249702
v 0.019999999552965164 -0.011701599694788456 -0.008660810068249702
v 0.019999999552965164 -0.010881699621677399 -0.0047448198311030865
v 0.019999999552965164 -0.01178439985960722 -0.008641630411148071
v -0.019999999552965164 -0.01079890038818121 -0.004764010198414326
v 0.019999999552965164 -0.010881699621677399 -0.0047448198311030865
v 0.019999999552965164 -0.01079890038818121 -0.004764010198414326
v 0.019999999552965164 -0.010881699621677399 -0.0047448198311030865
v -0.019999999552965164 -0.01079890038818121 -0.004764010198414326
v -0.019999999552965164 -0.010881699621677399 -0.0047448198311030865
v -0.019999999552965164 -0.011701599694788456 -0.008660810068249702
v -0.019999999552965164 -0.01079890038818121 -0.004764010198414326
v 0.019999999552965164 -0.01079890038818121 -0.004764010198414326
v -0.019999999552965164 -0.011701599694788456 -0.008660810068249702
v 0.019999999552965164 -0.01079890038818121 -0.004764010198414326
v 0.019999999552965164 -0.011701599694788456 -0.008660810068249702
f 1 2 3
f 4 5 6
f 7 8 9
f 10 11 12
f 13 14 15
f 16 17 18
f 19 20 21
f 22 23 24
f 25 26 27
f 28 29 30
f 31 32 33
f 34 35 36
