o 5b3aea852d36660f8dc55aaa
usemtl Material0
v 0.025648299604654312 0.009707160294055939 -0.005319999996572733
v 0.025550099089741707 0.009722989983856678 -0.005319999996572733
v 0.025449899956583977 0.009722989983856678 -0.005319999996572733
v 0.025648299604654312 0.009707160294055939 -0.005319999996572733
v 0.025449899956583977 0.009722989983856678 -0.005319999996572733
v 0.02535169944167137 0.009707160294055939 -0.005319999996572733
v 0.025559499859809875 0.009722149930894375 -0.005404939875006676
v 0.025479299947619438 0.009724659845232964 -0.005419239867478609
v 0.025520699098706245 0.009724659845232964 -0.005419210065156221
v 0.025406600907444954 0.009717989712953568 -0.005381349939852953
v 0.02559340000152588 0.009717980399727821 -0.005381280090659857
v 0.025622600689530373 0.009712849743664265 -0.0053522298112511635
v 0.025648299604654312 0.009707160294055939 -0.005319999996572733
v 0.0253772996366024 0.009712849743664265 -0.005352249834686518
v 0.025622600689530373 0.009712849743664265 -0.0053522298112511635
v 0.025559499859809875 0.009722149930894375 -0.005404939875006676
v 0.02559340000152588 0.009717980399727821 -0.005381280090659857
v 0.025440499186515808 0.009722170419991016 -0.00540504977107048
v 0.025559499859809875 0.009722149930894375 -0.005404939875006676
v 0.025440499186515808 0.009722170419991016 -0.00540504977107048
v 0.025479299947619438 0.009724659845232964 -0.005419239867478609
v 0.025440499186515808 0.009722170419991016 -0.00540504977107048
v 0.02559340000152588 0.009717980399727821 -0.005381280090659857
v 0.025406600907444954 0.009717989712953568 -0.005381349939852953
v 0.025648299604654312 0.009707160294055939 -0.005319999996572733
v 0.02535169944167137 0.009707160294055939 -0.005319999996572733
v 0.0253772996366024 0.009712849743664265 -0.005352249834686518
v 0.0253772996366024 0.009712849743664265 -0.005352249834686518
v 0.025406600907444954 0.009717989712953568 -0.005381349939852953
v 0.025622600689530373 0.009712849743664265 -0.0053522298112511635
v 0.02559340000152588 0.009717980399727821 -0.005381280090659857
v 0.025559499859809875 0.009722149930894375 -0.005404939875006676
v 0.025550099089741707 0.009722989983856678 -0.005319999996572733
v 0.025622600689530373 0.009712849743664265 -0.0053522298112511635
v 0.025550099089741707 0.009722989983856678 -0.005319999996572733
v 0.025648299604654312 0.009707160294055939 -0.005319999996572733
v 0.025622600689530373 0.009712849743664265 -0.0053522298112511635
v 0.02559340000152588 0.009717980399727821 -0.005381280090659857
v 0.025550099089741707 0.009722989983856678 -0.005319999996572733
v 0.025550099089741707 0.009722989983856678 -0.005319999996572733
v 0.025559499859809875 0.009722149930894375 -0.005404939875006676
v 0.025520699098706245 0.009724659845232964 -0.005419210065156221
v 0.025550099089741707 0.009722989983856678 -0.005319999996572733
v 0.025479299947619438 0.009724659845232964 -0.005419239867478609
v 0.025449899956583977 0.009722989983856678 -0.005319999996572733
v 0.025479299947619438 0.009724659845232964 -0.005419239867478609
v 0.025550099089741707 0.009722989983856678 -0.005319999996572733
v 0.025520699098706245 0.009724659845232964 -0.005419210065156221
v 0.025449899956583977 0.009722989983856678 -0.005319999996572733
v 0.025440499186515808 0.009722170419991016 -0.00540504977107048
v 0.025406600907444954 0.009717989712953568 -0.005381349939852953
v 0.025479299947619438 0.009724659845232964 -0.005419239867478609
v 0.025440499186515808 0.009722170419991016 -0.00540504977107048
v 0.025449899956583977 0.009722989983856678 -0.005319999996572733
v 0.02535169944167137 0.009707160294055939 -0.005319999996572733
v 0.025449899956583977 0.009722989983856678 -0.005319999996572733
v 0.0253772996366024 0.009712849743664265 -0.005352249834686518
v 0.025406600907444954 0.009717989712953568 -0.005381349939852953
v 0.0253772996366024 0.009712849743664265 -0.005352249834686518
v 0.025449899956583977 0.009722989983856678 -0.005319999996572733
f 1 2 3
f 4 5 6
f 7 8 9
f 10 11 12
f 13 14 15
f 16 17 18
f 19 20 21
f 22 23 24
f 25 26 27
f 28 29 30
f 31 32 33
f 34 35 36
f 37 38 39
f 40 41 42
f 43 44 45
f 46 47 48
f 49 50 51
f 52 53 54
f 55 56 57
f 58 59 60
